<svg xmlns="http://www.w3.org/2000/svg" viewBox="0 0 500 500"><g id="freepik--background-simple--inject-43"><path d="M464.86,277.39c-14.73,39.43-44.81,82.11-87.14,94.75-64,19.1-71.6,70.65-186.16,65.87A230.92,230.92,0,0,1,142,430.75,194.41,194.41,0,0,1,118.73,423C51.8,395.89,16.89,336.23,14,273.81c-3.82-82.11,53.46-121.24,90.69-144.15S186.79,18,299.44,21.77a224.06,224.06,0,0,1,50.92,7.44c37.91,10.26,76.44,32.95,98.84,66.12q2.52,3.75,4.82,7.64C484,153.82,484.93,223.63,464.86,277.39Z" style="fill:#FF3A3A"></path><path d="M464.86,277.39c-14.73,39.43-44.81,82.11-87.14,94.75-64,19.1-71.6,70.65-186.16,65.87A230.92,230.92,0,0,1,142,430.75,194.41,194.41,0,0,1,118.73,423C51.8,395.89,16.89,336.23,14,273.81c-3.82-82.11,53.46-121.24,90.69-144.15S186.79,18,299.44,21.77a224.06,224.06,0,0,1,50.92,7.44c37.91,10.26,76.44,32.95,98.84,66.12q2.52,3.75,4.82,7.64C484,153.82,484.93,223.63,464.86,277.39Z" style="fill:#fff;opacity:0.7000000000000001"></path></g><g id="freepik--Character--inject-43"><rect x="31.99" y="184.89" width="14.61" height="29.4" transform="translate(-131.68 89.37) rotate(-46.05)" style="fill:#FF3A3A;stroke:#263238;stroke-linecap:round;stroke-linejoin:round"></rect><rect x="34.21" y="187.12" width="10.17" height="24.93" transform="translate(-131.68 89.37) rotate(-46.05)" style="fill:#fff;stroke:#263238;stroke-linecap:round;stroke-linejoin:round"></rect><path d="M40.9,197.92c1.4,1.35,1.81,3.19.93,4.11s-2.74.57-4.14-.78-1.81-3.18-.92-4.1S39.5,196.58,40.9,197.92Z" style="fill:#fff;stroke:#263238;stroke-linecap:round;stroke-linejoin:round"></path><rect x="35.71" y="182.54" width="14.61" height="29.4" transform="translate(-96.03 50.88) rotate(-31.23)" style="fill:#FF3A3A;stroke:#263238;stroke-linecap:round;stroke-linejoin:round"></rect><rect x="37.93" y="184.77" width="10.17" height="24.93" transform="matrix(0.86, -0.52, 0.52, 0.86, -96.03, 50.88)" style="fill:#fff;stroke:#263238;stroke-linecap:round;stroke-linejoin:round"></rect><path d="M45,196c1,1.66.94,3.54-.16,4.21S42,200.1,41,198.44s-.94-3.54.15-4.2S44,194.38,45,196Z" style="fill:#FF3A3A;stroke:#263238;stroke-linecap:round;stroke-linejoin:round"></path><rect x="41.51" y="180.81" width="14.61" height="29.4" transform="translate(-26.54 8.62) rotate(-7.94)" style="fill:#FF3A3A;stroke:#263238;stroke-linecap:round;stroke-linejoin:round"></rect><rect x="43.73" y="183.04" width="10.17" height="24.94" transform="translate(-26.54 8.62) rotate(-7.94)" style="fill:#fff;stroke:#263238;stroke-linecap:round;stroke-linejoin:round"></rect><path d="M51.1,195.19c.27,1.92-.54,3.62-1.8,3.8s-2.51-1.24-2.78-3.16.54-3.62,1.81-3.8S50.83,193.27,51.1,195.19Z" style="fill:#FF3A3A;stroke:#263238;stroke-linecap:round;stroke-linejoin:round"></path><rect x="46.07" y="183.68" width="14.61" height="29.4" transform="translate(47.26 -6.96) rotate(13.35)" style="fill:#FF3A3A;stroke:#263238;stroke-linecap:round;stroke-linejoin:round"></rect><rect x="48.29" y="185.92" width="10.17" height="24.94" transform="translate(47.26 -6.96) rotate(13.35)" style="fill:#fff;stroke:#263238;stroke-linecap:round;stroke-linejoin:round"></rect><path d="M55.62,198.92c-.44,1.88-1.81,3.18-3.06,2.88s-1.88-2.06-1.43-4,1.81-3.18,3.06-2.89S56.07,197,55.62,198.92Z" style="fill:#FF3A3A;stroke:#263238;stroke-linecap:round;stroke-linejoin:round"></path><path d="M83.64,279.92s-3.23,4.11-4.12,23.52S91.58,350.77,92.17,359s1.47,15.88,1.47,15.88A59.41,59.41,0,0,0,93.93,399c2.94,12.64,12,46.45,12,46.45s-7,14.7-7,15.58-3.53,2.65-3.82,5a10.49,10.49,0,0,0,0,3.53h23.22s1.47-2.06,1.47-6.77-3.23-25.87-3.23-25.87l.29-72.32V317.26l30,77.61a598.79,598.79,0,0,0,23.22,57.82c.61,1.33,4.7,12.05,9.4,15.58s9.12,4.41,9.41-.88-3.53-16.76-7.35-20-8.82-10.29-8.82-11.47S158.56,346,158.56,346l-10.24-50.77s.73-5.15-1.1-13.16-13-7.13-13-7.13l-46.75-2.06Z" style="fill:#fff;stroke:#263238;stroke-linecap:round;stroke-linejoin:round"></path><path d="M158.56,346l-10.24-50.77s.73-5.15-1.1-13.16-13-7.13-13-7.13l-46.75-2.06-3.82,7.06s-3.23,4.11-4.12,23.52S91.58,350.77,92.17,359s1.47,15.88,1.47,15.88A59.41,59.41,0,0,0,93.93,399c1,4.16,2.61,10.62,4.37,17.41a87.78,87.78,0,0,0,18.35.34l.21-52.15V317.26l30,77.61s4,11.49,8.5,22.44c4.8.08,9.39-.44,13.59-2.65C164.24,388.81,158.56,346,158.56,346Z" style="fill:#263238;stroke:#263238;stroke-linecap:round;stroke-linejoin:round"></path><path d="M119.8,462.78c0-2-.57-6.85-1.23-11.85-2.38,2.95-7.12,8.33-11.12,9.8-4.36,1.6-7.28.34-8.35-.29a2.55,2.55,0,0,0-.17.58c0,.88-3.53,2.65-3.82,5a10.49,10.49,0,0,0,0,3.53h23.22S119.8,467.49,119.8,462.78Z" style="fill:#263238;stroke:#263238;stroke-linecap:round;stroke-linejoin:round"></path><path d="M181.53,447.4l-.27-.25c1.39,4.09,2.42,10-1.49,12.3-2.34,1.4-5,.29-7.25-1.54,1.74,3.68,4.19,8.29,6.95,10.36,4.71,3.53,9.12,4.41,9.41-.88S185.35,450.63,181.53,447.4Z" style="fill:#263238;stroke:#263238;stroke-linecap:round;stroke-linejoin:round"></path><path d="M102.68,183.49a96.54,96.54,0,0,1,1.54,9.92c.22,3.53-5.07,4.63-5.07,4.63s-15.22,4.19-15.88,7.28-13.89,45-13.89,45c-3.31-6.62-10.34-9.91-13.89-15.44a98.92,98.92,0,0,1-5.29-9,19.5,19.5,0,0,0,1.32-5.07,6.5,6.5,0,0,0-1.1-3.31s3.08-1.1,3.08-2.64-2-4.85-2.64-5.52c-2.31-2.47-6.18.89-6.18.89A17.13,17.13,0,0,1,48.21,206c2-1.55,4-3.75,3.53-4.63s-2.2-.44-5.07,2.2-6.62,6.18-6.62,6.18,1.55-3.53,2.65-6.18,3.53-2.86,3.31-4.41-3.09-.66-5.51,2.43a21.17,21.17,0,0,0-3.75,10.58c0,2.21,4.41,5.07,6.17,8.6a90.55,90.55,0,0,1,4.85,13.45c.88,3.31,6.84,18.52,8.6,24s11.69,13.23,14.77,11.24S89.23,243,89.23,243l3.07,12.77L81.73,282.71A83.09,83.09,0,0,0,121,289.55c22.49-1.55,26.24-7.5,26.24-7.5a80.19,80.19,0,0,0-3.66-14.5c-1.88-5.52-6.71-15.93-6.71-17.25s3.31-13.89,3.31-13.89,17.86,22.93,21.39,24.25,43.22-2,43.22-2a41.43,41.43,0,0,0,5.95,2.42c2.43.66,12.79,1.1,14.33.66s.66-2,.66-2,4.41.22,4.41-1.32a2.07,2.07,0,0,0-1.32-2,1.39,1.39,0,0,0,1.59-1.39c0-1.55-1.7-1.88-1.7-1.88s.66-.88-.66-1.76-9.37-4.23-9.37-4.23,4-.44,4-1.76-11.69-.89-13,0-6.62,6-6.62,6-27.78-3.09-30.21-4-8.15-2.42-8.15-2.42-14.78-37-19-41.24A22.68,22.68,0,0,0,132,197.16a48.21,48.21,0,0,1-9-2L119.65,174S111.72,183.71,102.68,183.49Z" style="fill:#fff;stroke:#263238;stroke-linecap:round;stroke-linejoin:round"></path><path d="M172.79,247.43c-2.42-.88-8.15-2.42-8.15-2.42s-14.78-37-19-41.24A22.68,22.68,0,0,0,132,197.16a48.21,48.21,0,0,1-9-2L119.65,174s-7.93,9.7-17,9.48a96.54,96.54,0,0,1,1.54,9.92c.22,3.53-5.07,4.63-5.07,4.63s-15.22,4.19-15.88,7.28-13.89,45-13.89,45a22,22,0,0,0-4-5.46l.06.39-.91.86-9.3,8.74c.48,1.33.88,2.5,1.17,3.41,1.77,5.51,11.69,13.23,14.77,11.24S89.23,243,89.23,243l3.07,12.77L81.73,282.71A83.09,83.09,0,0,0,121,289.55c22.49-1.55,26.24-7.5,26.24-7.5a86.36,86.36,0,0,0-4.58-16.34c-2.23-5.38-5.79-14.09-5.79-15.41s3.31-13.89,3.31-13.89,17.86,22.93,21.39,24.25c1.47.55,9.25.3,17.8-.19l1.39-11.75A73,73,0,0,1,172.79,247.43Z" style="fill:#FF3A3A;stroke:#263238;stroke-linecap:round;stroke-linejoin:round"></path><path d="M127.82,235.83c-5.87,2.6-14.59,6.53-20.72,9.59" style="fill:none;stroke:#263238;stroke-linecap:round;stroke-linejoin:round"></path><path d="M134.14,233.06l-3.3,1.44" style="fill:none;stroke:#263238;stroke-linecap:round;stroke-linejoin:round"></path><line x1="116.37" y1="244.65" x2="105.55" y2="249.29" style="fill:none;stroke:#263238;stroke-linecap:round;stroke-linejoin:round"></line><path d="M69.38,250.3a40.06,40.06,0,0,1,3.31,5" style="fill:none;stroke:#263238;stroke-linecap:round;stroke-linejoin:round"></path><line x1="143.01" y1="223.02" x2="143.78" y2="219.41" style="fill:none;stroke:#263238;stroke-linecap:round;stroke-linejoin:round"></line><line x1="140.16" y1="236.41" x2="142.33" y2="226.23" style="fill:none;stroke:#263238;stroke-linecap:round;stroke-linejoin:round"></line><line x1="83.81" y1="227.21" x2="82.71" y2="224.02" style="fill:none;stroke:#263238;stroke-linecap:round;stroke-linejoin:round"></line><line x1="89.23" y1="243.02" x2="84.65" y2="229.68" style="fill:none;stroke:#263238;stroke-linecap:round;stroke-linejoin:round"></line><polyline points="50.42 217.44 49.76 215.9 51.08 214.58" style="fill:none;stroke:#263238;stroke-linecap:round;stroke-linejoin:round"></polyline><path d="M50.34,209l-4.87,4.19a1.07,1.07,0,0,0,.34,1.37" style="fill:none;stroke:#263238;stroke-linecap:round;stroke-linejoin:round"></path><path d="M218.66,247.21l-3.31,1.32s.66,4.41-4.85,5.3" style="fill:none;stroke:#263238;stroke-linecap:round;stroke-linejoin:round"></path><line x1="228.69" y1="253.2" x2="220.2" y2="251.62" style="fill:none;stroke:#263238;stroke-linecap:round;stroke-linejoin:round"></line><line x1="228.8" y1="256.47" x2="220.86" y2="254.93" style="fill:none;stroke:#263238;stroke-linecap:round;stroke-linejoin:round"></line><line x1="225.71" y1="259.78" x2="219.76" y2="258.9" style="fill:none;stroke:#263238;stroke-linecap:round;stroke-linejoin:round"></line><path d="M220.86,250.74s0,6.39-2,9.48" style="fill:none;stroke:#263238;stroke-linecap:round;stroke-linejoin:round"></path><path d="M123,195.17,119.65,174s-7.93,9.7-17,9.48a96.54,96.54,0,0,1,1.54,9.92c.12,1.92-1.4,3.12-2.8,3.82,2,4.18,7.72,15,13.6,13.38,5-1.38,7.86-9.94,9.12-15.08C123.4,195.32,123,195.17,123,195.17Z" style="fill:#fff;stroke:#263238;stroke-linecap:round;stroke-linejoin:round"></path><path d="M120.1,180.1,119,174.78c-2.1,2.29-8.82,8.89-16.29,8.71a96.54,96.54,0,0,1,1.54,9.92c0,.05,0,.1,0,.15a10,10,0,0,0,8.6-1.22C118.28,188.43,120.1,180.1,120.1,180.1Z" style="fill:#263238;stroke:#263238;stroke-linecap:round;stroke-linejoin:round"></path><path d="M92,148.17s-10.8-.67-12.57,8.6A9.47,9.47,0,0,0,86,168.23a8.43,8.43,0,0,0,2.86,7.94c4,3.53,13.68,10.36,24.48,7.94S133.4,170.66,133,164s-3.52-7.94-3.52-7.94,5.51-7.27-.89-15.87-34.39-7.72-38.8-2S92,148.17,92,148.17Z" style="fill:#263238;stroke:#263238;stroke-linecap:round;stroke-linejoin:round"></path><path d="M100.13,155.44l-9,7.45s1.54,12.84,5.39,18,10.63,10.64,15.51,8.84,9.66-9.87,9.66-18.08-1.54-12.33-1.54-12.33S104.75,159.3,100.13,155.44Z" style="fill:#fff;stroke:#263238;stroke-linecap:round;stroke-linejoin:round"></path><path d="M111,165.41s4.05-.9,5.7,0" style="fill:none;stroke:#263238;stroke-linecap:round;stroke-linejoin:round"></path><path d="M97.49,169.16a4.52,4.52,0,0,1,5.25-2.25" style="fill:none;stroke:#263238;stroke-linecap:round;stroke-linejoin:round"></path><path d="M94.94,164.21a5,5,0,0,1,5.55-3" style="fill:none;stroke:#263238;stroke-linecap:round;stroke-linejoin:round"></path><path d="M108.89,160a6.35,6.35,0,0,1,7.35.9" style="fill:none;stroke:#263238;stroke-linecap:round;stroke-linejoin:round"></path><path d="M103.94,178.16s6.6,3.3,10.2-2.85" style="fill:none;stroke:#263238;stroke-linecap:round;stroke-linejoin:round"></path><path d="M105.59,172s2.4,2,4.65-.9" style="fill:none;stroke:#263238;stroke-linecap:round;stroke-linejoin:round"></path><path d="M121,163.16s1.95-3.9,3.75-1-3,8.55-3,8.55Z" style="fill:#fff;stroke:#263238;stroke-linecap:round;stroke-linejoin:round"></path><path d="M91.79,167.21s-3.9-1.5-3.6,3S94,175.16,94,175.16Z" style="fill:none;stroke:#263238;stroke-linecap:round;stroke-linejoin:round"></path></g><g id="freepik--Device--inject-43"><rect x="222.42" y="69.6" width="208.1" height="385.51" style="fill:#FF3A3A"></rect><rect x="222.42" y="69.6" width="208.1" height="24.02" style="fill:#fff"></rect><polygon points="367.24 69.6 222.42 322.25 222.42 412.65 419.06 69.6 367.24 69.6" style="fill:#fff;opacity:0.30000000000000004"></polygon><polygon points="430.52 227.5 427.08 225.02 301.9 446.14 305.32 455.11 430.52 455.11 430.52 227.5" style="fill:#fff;opacity:0.30000000000000004"></polygon><path d="M436.77,145.45a2.57,2.57,0,0,0,2.57-2.57v-25.7a2.57,2.57,0,0,0-2.57-2.57,3.58,3.58,0,0,0-.48,0V66.57A16.57,16.57,0,0,0,419.71,50H237.06a16.57,16.57,0,0,0-16.58,16.57v388a16.58,16.58,0,0,0,16.58,16.58H419.71a16.58,16.58,0,0,0,16.58-16.58v-236a2.44,2.44,0,0,0,.48,0,2.57,2.57,0,0,0,2.57-2.57V190.29a2.57,2.57,0,0,0-2.57-2.57,2.44,2.44,0,0,0-.48.05V182a2.44,2.44,0,0,0,.48,0,2.57,2.57,0,0,0,2.57-2.57v-25.7a2.57,2.57,0,0,0-2.57-2.57,2.45,2.45,0,0,0-.48,0V145.4A2.44,2.44,0,0,0,436.77,145.45ZM426.69,446.14H230.08V78.6H426.69Z" style="fill:#263238"></path><rect x="238.59" y="118.02" width="179.87" height="69.58" rx="6.38" style="fill:#263238;stroke:#263238;stroke-linecap:round;stroke-linejoin:round"></rect><path d="M314.41,125.91V136h-.67V125.91Z" style="fill:#fff"></path><path d="M316.17,136h-.61V125.91h.87l3,8.53v-8.53h.61V136h-.74l-3.16-9Z" style="fill:#fff"></path><path d="M325.52,128.38v.84h-.63v-.88c0-1.09-.42-1.91-1.53-1.91s-1.53.82-1.53,1.91v5.25c0,1.09.42,1.89,1.53,1.89s1.53-.8,1.53-1.89v-1.2h.63v1.16c0,1.46-.63,2.56-2.18,2.56s-2.18-1.1-2.18-2.56v-5.17c0-1.46.64-2.56,2.18-2.56S325.52,126.92,325.52,128.38Z" style="fill:#fff"></path><path d="M326.56,128.38c0-1.47.68-2.56,2.21-2.56s2.24,1.09,2.24,2.56v5.17c0,1.47-.68,2.56-2.24,2.56s-2.21-1.09-2.21-2.56Zm.67,5.21c0,1.1.43,1.91,1.54,1.91s1.57-.81,1.57-1.91v-5.25c0-1.1-.44-1.91-1.57-1.91s-1.54.81-1.54,1.91Z" style="fill:#fff"></path><path d="M335.5,136h-.67l-2.13-8.94v9h-.6V125.91h1l2.12,8.94,2.11-8.94h.95V136h-.63v-9Z" style="fill:#fff"></path><path d="M342.82,130.59v.6h-2.76v4.22h3.32V136h-4V125.91h4v.61h-3.32v4.07Z" style="fill:#fff"></path><path d="M283.44,150.39V149h2.48v1.44c2.15.44,3.26,2.09,3.26,4.72v.6h-2.87v-.8c0-1.38-.55-1.9-1.52-1.9s-1.52.52-1.52,1.9c0,4,5.94,4.17,5.94,9.69,0,2.62-1.14,4.3-3.29,4.75v1.4h-2.48v-1.4c-2.18-.45-3.29-2.13-3.29-4.75v-1.33H283v1.52c0,1.38.61,1.88,1.58,1.88s1.57-.5,1.57-1.88c0-4-5.93-4.16-5.93-9.68C280.24,152.51,281.31,150.86,283.44,150.39Z" style="fill:#fff"></path><path d="M293.12,152.62c2.35,0,2.87-1.13,3.34-2.43h2.05v19.32h-3V154.78h-2.35Z" style="fill:#fff"></path><path d="M304.91,163.27v1.8c0,1.38.6,1.87,1.57,1.87s1.57-.49,1.57-1.87v-4.25c0-1.38-.6-1.91-1.57-1.91s-1.57.53-1.57,1.91v.58H302l.55-11.21h8V153h-5.27l-.25,4.61a2.9,2.9,0,0,1,2.65-1.4c2.24,0,3.37,1.57,3.37,4.41v4.31c0,3.09-1.55,4.85-4.53,4.85S302,168,302,164.88v-1.61Z" style="fill:#fff"></path><path d="M313.1,169.51v-2.92H316v2.62l-1.33,3.06h-1.24l.8-2.76Z" style="fill:#fff"></path><path d="M318,155c0-3.26,1.49-5,4.64-5,3,0,4.52,1.77,4.52,4.86v.5h-2.87v-.69c0-1.38-.6-1.91-1.57-1.91s-1.68.53-1.68,2.38v3.53a2.87,2.87,0,0,1,2.81-1.71c2.24,0,3.37,1.57,3.37,4.41v3.54c0,3.09-1.63,4.85-4.61,4.85S318,168,318,164.88Zm3,6.59v3.48c0,1.38.6,1.87,1.57,1.87s1.57-.49,1.57-1.87v-3.48c0-1.38-.6-1.9-1.57-1.9S321.08,160.21,321.08,161.59Z" style="fill:#fff"></path><path d="M338.08,150.19v2.65l-4.47,16.67h-3L335,153h-6v-2.76Z" style="fill:#fff"></path><path d="M344.45,169.73c-3.06,0-4.75-1.76-4.75-4.85v-1.52c0-1.85.56-3.29,1.88-4-1.27-.69-1.88-2-1.88-3.89v-.61c0-3.09,1.69-4.86,4.75-4.86s4.75,1.77,4.75,4.86v.61c0,1.9-.64,3.2-1.88,3.89,1.32.74,1.88,2.18,1.88,4v1.52C349.2,168,347.51,169.73,344.45,169.73ZM342.74,156c0,1.54.72,2,1.71,2s1.71-.5,1.71-2v-1.08c0-1.74-.74-2.21-1.71-2.21s-1.71.47-1.71,2.21ZM344.45,167c1,0,1.68-.47,1.71-2.18V163c0-1.52-.63-2.18-1.71-2.18s-1.71.66-1.71,2.18v1.79C342.74,166.5,343.48,167,344.45,167Z" style="fill:#fff"></path><path d="M353.94,166.59v2.92H351v-2.92Z" style="fill:#fff"></path><path d="M360.59,152.73c-1,0-1.57.53-1.57,1.91v2.07h-2.87v-1.88c0-3.09,1.55-4.86,4.53-4.86s4.52,1.77,4.52,4.86c0,6.07-6,8.33-6,11.51a1.89,1.89,0,0,0,0,.41h5.74v2.76h-8.78v-2.37c0-5.69,6-6.62,6-12.2C362.17,153.2,361.56,152.73,360.59,152.73Z" style="fill:#fff"></path><path d="M366.88,155c0-3.26,1.49-5,4.64-5,3,0,4.53,1.77,4.53,4.86v.5h-2.87v-.69c0-1.38-.61-1.91-1.58-1.91s-1.68.53-1.68,2.38v3.53a2.88,2.88,0,0,1,2.82-1.71c2.23,0,3.36,1.57,3.36,4.41v3.54c0,3.09-1.63,4.85-4.61,4.85s-4.61-1.76-4.61-4.85Zm3,6.59v3.48c0,1.38.61,1.87,1.57,1.87s1.58-.49,1.58-1.87v-3.48c0-1.38-.61-1.9-1.58-1.9S369.92,160.21,369.92,161.59Z" style="fill:#fff"></path><rect x="237.9" y="205.86" width="181.25" height="216.18" rx="6.38" style="fill:#d9d9d9;stroke:#263238;stroke-linecap:round;stroke-linejoin:round"></rect><path d="M417.39,285.94H341.47V233H237.9V422H417.39a1.76,1.76,0,0,0,1.76-1.76V287.7A1.76,1.76,0,0,0,417.39,285.94Z" style="fill:#fff;stroke:#263238;stroke-linecap:round;stroke-linejoin:round"></path><rect x="249.36" y="347.81" width="15.08" height="36.43" style="fill:#FF3A3A;stroke:#263238;stroke-linecap:round;stroke-linejoin:round"></rect><rect x="273.66" y="324.44" width="15.08" height="59.8" style="fill:#263238;stroke:#263238;stroke-linecap:round;stroke-linejoin:round"></rect><rect x="297.95" y="343.68" width="15.08" height="40.56" style="fill:#FF3A3A;stroke:#263238;stroke-linecap:round;stroke-linejoin:round"></rect><rect x="322.25" y="337.3" width="15.08" height="46.94" style="fill:#263238;stroke:#263238;stroke-linecap:round;stroke-linejoin:round"></rect><rect x="346.54" y="334.75" width="15.08" height="49.49" style="fill:#FF3A3A;stroke:#263238;stroke-linecap:round;stroke-linejoin:round"></rect><rect x="370.84" y="302.44" width="15.08" height="81.8" style="fill:#263238;stroke:#263238;stroke-linecap:round;stroke-linejoin:round"></rect><rect x="395.13" y="312.06" width="15.08" height="72.18" style="fill:#FF3A3A;stroke:#263238;stroke-linecap:round;stroke-linejoin:round"></rect><path d="M253.8,395.32v.19h-.54v-.22c0-.92-.35-1.61-1.29-1.61s-1.29.68-1.29,1.59c0,2.11,3.13,2.14,3.13,4.53,0,1.25-.54,2.16-1.86,2.16s-1.87-.91-1.87-2.16v-.45h.54v.49c0,.92.36,1.59,1.31,1.59s1.31-.67,1.31-1.59c0-2.08-3.12-2.12-3.12-4.53,0-1.3.56-2.14,1.84-2.15S253.8,394.07,253.8,395.32Z" style="fill:#263238"></path><path d="M255.27,399.8c0,.93.35,1.64,1.3,1.64s1.3-.71,1.3-1.64v-6.57h.53v6.54c0,1.24-.52,2.19-1.84,2.19s-1.85-.95-1.85-2.19v-6.54h.56Z" style="fill:#263238"></path><path d="M259.9,401.89h-.52v-8.66h.74l2.6,7.31v-7.31h.52v8.66h-.63l-2.71-7.72Z" style="fill:#263238"></path><path d="M276.29,401.88h-.57l-1.83-7.66v7.67h-.5v-8.66h.81l1.82,7.66,1.81-7.66h.81v8.66h-.54V394.2Z" style="fill:#263238"></path><path d="M279.6,395.35c0-1.26.58-2.19,1.89-2.19s1.92.93,1.92,2.19v4.42c0,1.27-.58,2.19-1.92,2.19s-1.89-.92-1.89-2.19Zm.57,4.46c0,.94.37,1.63,1.32,1.63s1.35-.69,1.35-1.63v-4.5c0-.94-.38-1.63-1.35-1.63s-1.32.69-1.32,1.63Z" style="fill:#263238"></path><path d="M284.87,401.89h-.52v-8.66h.74l2.6,7.31v-7.31h.52v8.66h-.63l-2.71-7.72Z" style="fill:#263238"></path><path d="M300.84,401.89v-8.14h-1.76v-.52h4.09v.52h-1.76v8.14Z" style="fill:#263238"></path><path d="M304.43,399.8c0,.93.34,1.64,1.29,1.64s1.3-.71,1.3-1.64v-6.57h.54v6.54c0,1.24-.52,2.19-1.85,2.19s-1.85-.95-1.85-2.19v-6.54h.57Z" style="fill:#263238"></path><path d="M311.47,397.24v.52H309.1v3.61H312v.52h-3.42v-8.66H312v.52H309.1v3.49Z" style="fill:#263238"></path><path d="M324.72,401.89h-.79l-1.4-8.66h.56l1.29,7.89,1.27-7.85h.6l1.21,7.83,1.25-7.87h.51l-1.39,8.66h-.74l-1.16-7.09Z" style="fill:#263238"></path><path d="M333,397.24v.52h-2.36v3.61h2.84v.52H330.1v-8.66h3.41v.52h-2.84v3.49Z" style="fill:#263238"></path><path d="M336.35,393.23c1.33,0,1.92.88,1.92,2.15v4.36c0,1.27-.59,2.15-1.92,2.15h-1.91v-8.66Zm0,8.14c1,0,1.36-.65,1.36-1.61v-4.4c0-.95-.41-1.61-1.36-1.61H335v7.62Z" style="fill:#263238"></path><path d="M348,401.89v-8.14h-1.76v-.52h4.1v.52h-1.77v8.14Z" style="fill:#263238"></path><path d="M351.62,397.82v4.07h-.56v-8.66h.56v4.07h2.7v-4.07h.58v8.66h-.58v-4.07Z" style="fill:#263238"></path><path d="M356.44,399.8c0,.93.34,1.64,1.29,1.64s1.3-.71,1.3-1.64v-6.57h.54v6.54c0,1.24-.52,2.19-1.85,2.19s-1.85-.95-1.85-2.19v-6.54h.57Z" style="fill:#263238"></path><path d="M376.06,397.45V398h-2.24v3.92h-.57v-8.66h3.29v.52h-2.72v3.7Z" style="fill:#263238"></path><path d="M379.22,393.23c1.32,0,1.85.73,1.85,2v.75c0,1-.39,1.6-1.25,1.79a1.57,1.57,0,0,1,1.25,1.77v1.35a2,2,0,0,0,.21,1h-.59a2,2,0,0,1-.19-1v-1.36c0-1.15-.63-1.47-1.62-1.47H378v3.87h-.57v-8.66Zm-.32,4.27c1,0,1.6-.28,1.6-1.45v-.81c0-.93-.36-1.49-1.3-1.49H378v3.75Z" style="fill:#263238"></path><path d="M382.76,393.23v8.66h-.57v-8.66Z" style="fill:#263238"></path><path d="M402.23,395.32v.19h-.55v-.22c0-.92-.34-1.61-1.28-1.61s-1.29.68-1.29,1.59c0,2.11,3.13,2.14,3.13,4.53,0,1.25-.55,2.16-1.87,2.16s-1.87-.91-1.87-2.16v-.45h.55v.49c0,.92.36,1.59,1.31,1.59s1.31-.67,1.31-1.59c0-2.08-3.13-2.12-3.13-4.53,0-1.3.57-2.14,1.84-2.15S402.23,394.07,402.23,395.32Z" style="fill:#263238"></path><path d="M404,400l-.44,1.92H403l1.89-8.67h.83l1.93,8.67h-.57l-.43-1.92Zm.08-.49h2.52l-1.27-5.6Z" style="fill:#263238"></path><path d="M409.54,401.89v-8.14h-1.76v-.52h4.1v.52h-1.77v8.14Z" style="fill:#263238"></path><path d="M291.87,216.19v.21h-.64v-.26c0-1.06-.4-1.87-1.5-1.87s-1.5.79-1.5,1.86c0,2.46,3.65,2.5,3.65,5.29,0,1.45-.63,2.52-2.18,2.52s-2.18-1.07-2.18-2.52v-.52h.64v.56c0,1.08.42,1.86,1.53,1.86s1.53-.78,1.53-1.86c0-2.43-3.66-2.47-3.66-5.29,0-1.51.67-2.5,2.16-2.51S291.87,214.73,291.87,216.19Z" style="fill:#263238"></path><path d="M295,213.75c1.56,0,2.17,1,2.17,2.45v1.1c0,1.6-.74,2.4-2.34,2.4h-1.26v4.16H293V213.75Zm-.17,5.34c1.17,0,1.67-.52,1.67-1.75v-1.18c0-1.1-.37-1.81-1.5-1.81h-1.43v4.74Z" style="fill:#263238"></path><path d="M301.63,218.43v.6h-2.76v4.22h3.32v.61h-4V213.75h4v.6h-3.32v4.08Z" style="fill:#263238"></path><path d="M303.88,223.86h-.61V213.75h.87l3,8.53v-8.53h.61v10.11H307l-3.16-9Z" style="fill:#263238"></path><path d="M311.14,213.75c1.56,0,2.24,1,2.24,2.51v5.08c0,1.49-.68,2.52-2.24,2.52h-2.23V213.75Zm0,9.5c1.13,0,1.59-.77,1.59-1.88v-5.14c0-1.11-.47-1.88-1.59-1.88h-1.54v8.9Z" style="fill:#263238"></path><path d="M315.14,213.75v10.11h-.67V213.75Z" style="fill:#263238"></path><path d="M316.9,223.86h-.61V213.75h.87l3,8.53v-8.53h.61v10.11h-.74l-3.16-9Z" style="fill:#263238"></path><path d="M326.25,216.22V217h-.63v-.8c0-1.08-.42-1.9-1.53-1.9s-1.54.82-1.54,1.9v5.26c0,1.08.42,1.89,1.54,1.89s1.53-.81,1.53-1.89v-2.18h-1.35v-.61h2v2.75c0,1.46-.63,2.55-2.18,2.55s-2.18-1.09-2.18-2.55v-5.17c0-1.46.64-2.56,2.18-2.56S326.25,214.76,326.25,216.22Z" style="fill:#263238"></path><path d="M333.86,216.19v.21h-.64v-.26c0-1.06-.4-1.87-1.5-1.87s-1.5.79-1.5,1.86c0,2.46,3.65,2.5,3.65,5.29,0,1.45-.63,2.52-2.18,2.52s-2.18-1.07-2.18-2.52v-.52h.64v.56c0,1.08.42,1.86,1.53,1.86s1.53-.78,1.53-1.86c0-2.43-3.66-2.47-3.66-5.29,0-1.51.67-2.5,2.16-2.51S333.86,214.73,333.86,216.19Z" style="fill:#263238"></path><path d="M335.57,221.42c0,1.08.41,1.92,1.52,1.92s1.52-.84,1.52-1.92v-7.67h.62v7.64c0,1.44-.61,2.55-2.15,2.55s-2.17-1.11-2.17-2.55v-7.64h.66Z" style="fill:#263238"></path><path d="M343.76,223.84h-.66L341,214.9v9h-.59V213.75h.95l2.12,8.94,2.11-8.94h.95v10.11h-.63v-9Z" style="fill:#263238"></path><path d="M351.05,223.84h-.66l-2.14-8.94v9h-.59V213.75h.95l2.12,8.94,2.11-8.94h1v10.11h-.63v-9Z" style="fill:#263238"></path><path d="M355.91,221.62l-.5,2.24h-.61L357,213.73h1l2.25,10.13h-.66l-.51-2.24ZM356,221H359l-1.49-6.54Z" style="fill:#263238"></path><path d="M363.35,213.75c1.54,0,2.16.85,2.16,2.28v.88a1.84,1.84,0,0,1-1.45,2.09,1.83,1.83,0,0,1,1.45,2.07v1.57a2.27,2.27,0,0,0,.25,1.22h-.69a2.34,2.34,0,0,1-.22-1.22v-1.58c0-1.35-.74-1.72-1.89-1.72H361.9v4.52h-.66V213.75Zm-.38,5c1.19,0,1.88-.33,1.88-1.69v-.95c0-1.09-.42-1.74-1.52-1.74H361.9v4.38Z" style="fill:#263238"></path><path d="M368.75,220l-2.27-6.22h.69l1.94,5.31,1.93-5.31h.65L369.41,220v3.89h-.66Z" style="fill:#263238"></path><path d="M247.16,251.35h-.92l-1.63-10.11h.65l1.51,9.22,1.48-9.17h.7l1.42,9.14,1.46-9.19h.59l-1.62,10.11h-.86l-1.36-8.27Z" style="fill:#263238"></path><path d="M256.86,245.92v.61h-2.75v4.22h3.32v.6h-4V241.24h4v.61h-3.32v4.07Z" style="fill:#263238"></path><path d="M261.93,245.92v.61h-2.76v4.22h3.32v.6h-4V241.24h4v.61h-3.32v4.07Z" style="fill:#263238"></path><path d="M264.93,246.6l-.69,1.1v3.65h-.66V241.24h.66v5.35l3.29-5.35h.7L265.34,246l3.07,5.4h-.69Z" style="fill:#263238"></path><path d="M269.41,251.35V241.24h.66v9.51h3.18v.6Z" style="fill:#263238"></path><path d="M275.43,247.47l-2.27-6.23h.69l1.94,5.32,1.93-5.32h.65l-2.28,6.23v3.88h-.66Z" style="fill:#263238"></path><path d="M247.2,261.76v-1H249v1c1.55.31,2.35,1.5,2.35,3.39v.44h-2.07V265c0-1-.4-1.37-1.09-1.37s-1.09.38-1.09,1.37c0,2.86,4.27,3,4.27,7,0,1.89-.82,3.1-2.37,3.42v1H247.2v-1c-1.57-.32-2.37-1.53-2.37-3.42v-1h2.07v1.09c0,1,.44,1.35,1.13,1.35s1.13-.36,1.13-1.35c0-2.86-4.27-3-4.27-7C244.89,263.28,245.67,262.09,247.2,261.76Z" style="fill:#263238"></path><path d="M259.23,272.06c0,2.34-1.07,3.61-3.34,3.61s-3.25-1.27-3.25-3.49v-.36h2.06v.5c0,1,.44,1.37,1.13,1.37S257,273.31,257,272v-2.54a2.07,2.07,0,0,1-2,1.23c-1.61,0-2.42-1.13-2.42-3.18V265c0-2.22,1.17-3.49,3.31-3.49s3.32,1.27,3.32,3.49ZM257,267.31v-2.5c0-1-.43-1.35-1.13-1.35s-1.13.36-1.13,1.35v2.5c0,1,.44,1.37,1.13,1.37S257,268.31,257,267.31Z" style="fill:#263238"></path><path d="M260.5,265c0-2.22,1.17-3.49,3.31-3.49s3.32,1.27,3.32,3.49v7.23c0,2.22-1.17,3.49-3.32,3.49s-3.31-1.27-3.31-3.49Zm2.18,7.37c0,1,.44,1.37,1.13,1.37s1.14-.38,1.14-1.37v-7.51c0-1-.44-1.37-1.14-1.37s-1.13.38-1.13,1.37Z" style="fill:#263238"></path><path d="M268.36,265c0-2.22,1.17-3.49,3.32-3.49S275,262.73,275,265v7.23c0,2.22-1.17,3.49-3.31,3.49s-3.32-1.27-3.32-3.49Zm2.18,7.37c0,1,.44,1.37,1.14,1.37s1.13-.38,1.13-1.37v-7.51c0-1-.44-1.37-1.13-1.37s-1.14.38-1.14,1.37Z" style="fill:#263238"></path><path d="M278.51,273.41v2.1H276.4v-2.1Z" style="fill:#263238"></path><path d="M283.23,275.67c-2.2,0-3.41-1.27-3.41-3.49v-1.09a3,3,0,0,1,1.35-2.9,2.88,2.88,0,0,1-1.35-2.8V265c0-2.22,1.21-3.49,3.41-3.49a3.13,3.13,0,0,1,3.42,3.49v.44a2.93,2.93,0,0,1-1.35,2.8,3.06,3.06,0,0,1,1.35,2.9v1.09A3.13,3.13,0,0,1,283.23,275.67ZM282,265.81c0,1.11.52,1.47,1.23,1.47s1.23-.36,1.23-1.47V265c0-1.25-.53-1.59-1.23-1.59S282,263.78,282,265Zm1.23,7.88c.7,0,1.21-.34,1.23-1.57v-1.29c0-1.09-.46-1.57-1.23-1.57s-1.23.48-1.23,1.57v1.29C282,273.35,282.54,273.69,283.23,273.69Z" style="fill:#263238"></path><path d="M294.37,272.06c0,2.34-1.07,3.61-3.34,3.61s-3.25-1.27-3.25-3.49v-.36h2.06v.5c0,1,.44,1.37,1.13,1.37s1.21-.38,1.21-1.71v-2.54a2.07,2.07,0,0,1-2,1.23c-1.61,0-2.42-1.13-2.42-3.18V265c0-2.22,1.17-3.49,3.31-3.49s3.32,1.27,3.32,3.49Zm-2.19-4.75v-2.5c0-1-.43-1.35-1.13-1.35s-1.13.36-1.13,1.35v2.5c0,1,.44,1.37,1.13,1.37S292.18,268.31,292.18,267.31Z" style="fill:#263238"></path><path d="M352.61,251.34H352l-2.14-8.94v8.95h-.59V241.24h.95l2.13,8.94,2.1-8.94h1v10.11h-.64v-9Z" style="fill:#263238"></path><path d="M356.47,243.71c0-1.47.67-2.55,2.21-2.55s2.23,1.08,2.23,2.55v5.17c0,1.48-.67,2.56-2.23,2.56s-2.21-1.08-2.21-2.56Zm.66,5.22c0,1.09.43,1.9,1.55,1.9s1.57-.81,1.57-1.9v-5.26c0-1.1-.45-1.91-1.57-1.91s-1.55.81-1.55,1.91Z" style="fill:#263238"></path><path d="M362.61,251.35H362V241.24h.87l3,8.54v-8.54h.6v10.11h-.73l-3.17-9Z" style="fill:#263238"></path><path d="M369.36,251.35v-9.5h-2.05v-.61h4.78v.61H370v9.5Z" style="fill:#263238"></path><path d="M373.57,246.6v4.75h-.66V241.24h.66V246h3.15v-4.75h.68v10.11h-.68V246.6Z" style="fill:#263238"></path><path d="M378.55,251.35V241.24h.67v9.51h3.17v.6Z" style="fill:#263238"></path><path d="M384.57,247.47l-2.27-6.23h.7l1.93,5.32,1.94-5.32h.65l-2.28,6.23v3.88h-.67Z" style="fill:#263238"></path><path d="M351.68,261.76v-1h1.79v1c1.55.31,2.34,1.5,2.34,3.39v.44h-2.07V265c0-1-.39-1.37-1.09-1.37s-1.09.38-1.09,1.37c0,2.86,4.27,3,4.27,7,0,1.89-.81,3.1-2.36,3.42v1h-1.79v-1c-1.57-.32-2.36-1.53-2.36-3.42v-1h2.06v1.09c0,1,.44,1.35,1.13,1.35s1.13-.36,1.13-1.35c0-2.86-4.26-3-4.26-7C349.38,263.28,350.15,262.09,351.68,261.76Z" style="fill:#263238"></path><path d="M358.65,263.36a2.16,2.16,0,0,0,2.4-1.74h1.47v13.89h-2.18v-10.6h-1.69Z" style="fill:#263238"></path><path d="M365,265c0-2.22,1.17-3.49,3.32-3.49s3.31,1.27,3.31,3.49v7.23c0,2.22-1.17,3.49-3.31,3.49S365,274.4,365,272.18Zm2.18,7.37c0,1,.44,1.37,1.14,1.37s1.13-.38,1.13-1.37v-7.51c0-1-.44-1.37-1.13-1.37s-1.14.38-1.14,1.37Z" style="fill:#263238"></path><path d="M373,275.51v-2.1h2.11v1.89l-1,2.2h-.89l.58-2Z" style="fill:#263238"></path><path d="M379.91,263.44c-.69,0-1.13.38-1.13,1.37v1.49h-2.07V265c0-2.22,1.12-3.49,3.26-3.49s3.26,1.27,3.26,3.49c0,4.37-4.35,6-4.35,8.28a1.51,1.51,0,0,0,0,.3H383v2h-6.32v-1.7c0-4.09,4.33-4.77,4.33-8.78C381,263.78,380.61,263.44,379.91,263.44Z" style="fill:#263238"></path><path d="M384.4,265c0-2.22,1.17-3.49,3.31-3.49S391,262.73,391,265v7.23c0,2.22-1.17,3.49-3.32,3.49s-3.31-1.27-3.31-3.49Zm2.18,7.37c0,1,.44,1.37,1.13,1.37s1.13-.38,1.13-1.37v-7.51c0-1-.43-1.37-1.13-1.37s-1.13.38-1.13,1.37Z" style="fill:#263238"></path><path d="M392.26,265c0-2.22,1.17-3.49,3.31-3.49s3.32,1.27,3.32,3.49v7.23c0,2.22-1.17,3.49-3.32,3.49s-3.31-1.27-3.31-3.49Zm2.18,7.37c0,1,.44,1.37,1.13,1.37s1.14-.38,1.14-1.37v-7.51c0-1-.44-1.37-1.14-1.37s-1.13.38-1.13,1.37Z" style="fill:#263238"></path><path d="M402.4,273.41v2.1h-2.1v-2.1Z" style="fill:#263238"></path><path d="M406,271v1.29c0,1,.43,1.35,1.13,1.35s1.13-.36,1.13-1.35v-3.06c0-1-.44-1.37-1.13-1.37s-1.13.38-1.13,1.37v.42h-2.07l.4-8.06h5.76v2h-3.79l-.18,3.32a2.07,2.07,0,0,1,1.9-1c1.61,0,2.43,1.14,2.43,3.18v3.1c0,2.22-1.12,3.49-3.26,3.49s-3.26-1.27-3.26-3.49V271Z" style="fill:#263238"></path></g></svg>