<svg xmlns="http://www.w3.org/2000/svg" viewBox="0 0 500 500"><g id="freepik--background-simple--inject-207"><path d="M252.4,309.17c-27.41-19.78-94.2,38.59-134.79,10.64C80.79,294.46,83.2,230.5,106.09,193.32c34.08-55.34,115.3-85.81,152.52-56.13,43.18,34.44,1.33,82.38,24.95,109.81,23.16,26.9,27.08,8.68,78.18-.68,47.53-8.71,78.48,38.26,49.5,76.11C352.62,399,297.88,405.06,269.72,379.35,242.74,354.71,267.06,319.75,252.4,309.17Z" style="fill:#407BFF"></path><path d="M252.4,309.17c-27.41-19.78-94.2,38.59-134.79,10.64C80.79,294.46,83.2,230.5,106.09,193.32c34.08-55.34,115.3-85.81,152.52-56.13,43.18,34.44,1.33,82.38,24.95,109.81,23.16,26.9,27.08,8.68,78.18-.68,47.53-8.71,78.48,38.26,49.5,76.11C352.62,399,297.88,405.06,269.72,379.35,242.74,354.71,267.06,319.75,252.4,309.17Z" style="fill:#fff;opacity:0.9"></path></g><g id="freepik--Shadow--inject-207"><ellipse id="freepik--path--inject-207" cx="250" cy="415.69" rx="193.89" ry="11.32" style="fill:#f5f5f5"></ellipse></g><g id="freepik--Clipboard--inject-207"><path d="M218.6,114.22h11.57l18.34,206.49H236.94a10.78,10.78,0,0,1-10.52-9.66L209.79,123.89A8.71,8.71,0,0,1,218.6,114.22Z" style="fill:#407BFF"></path><path d="M366.69,320.71H240.37a12,12,0,0,1-11.77-10.82L212.43,125.05a9.76,9.76,0,0,1,9.88-10.83H348.62a12.07,12.07,0,0,1,11.78,10.83l16.17,184.84A9.76,9.76,0,0,1,366.69,320.71Z" style="fill:#407BFF"></path><path d="M366.69,320.71H240.37a12,12,0,0,1-11.77-10.82L212.43,125.05a9.76,9.76,0,0,1,9.88-10.83H348.62a12.07,12.07,0,0,1,11.78,10.83l16.17,184.84A9.76,9.76,0,0,1,366.69,320.71Z" style="fill:#fff;opacity:0.5"></path><polygon points="241.63 297.12 365.36 297.12 349.71 121.03 225.98 121.03 241.63 297.12" style="opacity:0.2"></polygon><polygon points="247.04 294.71 370.77 294.71 349.71 121.03 225.98 121.03 247.04 294.71" style="fill:#407BFF"></polygon><polygon points="247.04 294.71 370.77 294.71 349.71 121.03 225.98 121.03 247.04 294.71" style="fill:#fff;opacity:0.8"></polygon><path d="M342.12,169.1h-77.4a1.79,1.79,0,0,1-1.74-1.6h0a1.45,1.45,0,0,1,1.46-1.61h77.4a1.79,1.79,0,0,1,1.75,1.61h0A1.45,1.45,0,0,1,342.12,169.1Z" style="fill:#263238"></path><path d="M339.71,178.21H251.86a1.78,1.78,0,0,1-1.74-1.61h0a1.43,1.43,0,0,1,1.46-1.6h87.85a1.77,1.77,0,0,1,1.74,1.6h0A1.44,1.44,0,0,1,339.71,178.21Z" style="fill:#263238"></path><path d="M343.72,187.31H252.66a1.78,1.78,0,0,1-1.75-1.6h0a1.45,1.45,0,0,1,1.47-1.61h91.06a1.78,1.78,0,0,1,1.74,1.61h0A1.43,1.43,0,0,1,343.72,187.31Z" style="fill:#263238"></path><path d="M333.27,196.42H253.46a1.79,1.79,0,0,1-1.75-1.61h0a1.45,1.45,0,0,1,1.46-1.6H333a1.78,1.78,0,0,1,1.74,1.6h0A1.45,1.45,0,0,1,333.27,196.42Z" style="fill:#263238"></path><path d="M345.31,205.53h-77.4a1.79,1.79,0,0,1-1.75-1.61h0a1.46,1.46,0,0,1,1.47-1.61H345a1.79,1.79,0,0,1,1.75,1.61h0A1.45,1.45,0,0,1,345.31,205.53Z" style="fill:#263238"></path><path d="M342.09,214.63h-87a1.79,1.79,0,0,1-1.75-1.6h0a1.45,1.45,0,0,1,1.47-1.61h87a1.79,1.79,0,0,1,1.75,1.61h0A1.45,1.45,0,0,1,342.09,214.63Z" style="fill:#263238"></path><path d="M346.9,223.74h-91a1.79,1.79,0,0,1-1.75-1.61h0a1.45,1.45,0,0,1,1.46-1.61h91.06a1.79,1.79,0,0,1,1.75,1.61h0A1.45,1.45,0,0,1,346.9,223.74Z" style="fill:#263238"></path><path d="M341.27,232.84H256.64a1.77,1.77,0,0,1-1.74-1.6h0a1.44,1.44,0,0,1,1.46-1.61H341a1.79,1.79,0,0,1,1.75,1.61h0A1.44,1.44,0,0,1,341.27,232.84Z" style="fill:#263238"></path><g style="opacity:0.30000000000000004"><path d="M342.12,169.1h-77.4a1.79,1.79,0,0,1-1.74-1.6h0a1.45,1.45,0,0,1,1.46-1.61h77.4a1.79,1.79,0,0,1,1.75,1.61h0A1.45,1.45,0,0,1,342.12,169.1Z" style="fill:#fff"></path><path d="M339.71,178.21H251.86a1.78,1.78,0,0,1-1.74-1.61h0a1.43,1.43,0,0,1,1.46-1.6h87.85a1.77,1.77,0,0,1,1.74,1.6h0A1.44,1.44,0,0,1,339.71,178.21Z" style="fill:#fff"></path><path d="M343.72,187.31H252.66a1.78,1.78,0,0,1-1.75-1.6h0a1.45,1.45,0,0,1,1.47-1.61h91.06a1.78,1.78,0,0,1,1.74,1.61h0A1.43,1.43,0,0,1,343.72,187.31Z" style="fill:#fff"></path><path d="M333.27,196.42H253.46a1.79,1.79,0,0,1-1.75-1.61h0a1.45,1.45,0,0,1,1.46-1.6H333a1.78,1.78,0,0,1,1.74,1.6h0A1.45,1.45,0,0,1,333.27,196.42Z" style="fill:#fff"></path><path d="M345.31,205.53h-77.4a1.79,1.79,0,0,1-1.75-1.61h0a1.46,1.46,0,0,1,1.47-1.61H345a1.79,1.79,0,0,1,1.75,1.61h0A1.45,1.45,0,0,1,345.31,205.53Z" style="fill:#fff"></path><path d="M342.09,214.63h-87a1.79,1.79,0,0,1-1.75-1.6h0a1.45,1.45,0,0,1,1.47-1.61h87a1.79,1.79,0,0,1,1.75,1.61h0A1.45,1.45,0,0,1,342.09,214.63Z" style="fill:#fff"></path><path d="M346.9,223.74h-91a1.79,1.79,0,0,1-1.75-1.61h0a1.45,1.45,0,0,1,1.46-1.61h91.06a1.79,1.79,0,0,1,1.75,1.61h0A1.45,1.45,0,0,1,346.9,223.74Z" style="fill:#fff"></path><path d="M341.27,232.84H256.64a1.77,1.77,0,0,1-1.74-1.6h0a1.44,1.44,0,0,1,1.46-1.61H341a1.79,1.79,0,0,1,1.75,1.61h0A1.44,1.44,0,0,1,341.27,232.84Z" style="fill:#fff"></path></g><path d="M270.34,141.48h2.37l.72,8.31h5.14l.17,1.93h-7.51Z" style="fill:#263238"></path><path d="M281.93,151.2a5.76,5.76,0,0,1-2.17-1.89,5.6,5.6,0,0,1-1-2.71,4.84,4.84,0,0,1,.49-2.72,4.5,4.5,0,0,1,1.83-1.89,5.66,5.66,0,0,1,2.82-.69,6.3,6.3,0,0,1,2.93.69,6,6,0,0,1,2.17,1.89,5.54,5.54,0,0,1,1,2.72,4.8,4.8,0,0,1-.49,2.71,4.53,4.53,0,0,1-1.84,1.89,5.57,5.57,0,0,1-2.81.69A6.3,6.3,0,0,1,281.93,151.2Zm4.36-1.74a2.71,2.71,0,0,0,1-1.17,3.22,3.22,0,0,0,.26-1.69,3.61,3.61,0,0,0-.56-1.7,3.45,3.45,0,0,0-2.92-1.58,3.07,3.07,0,0,0-1.61.42,2.6,2.6,0,0,0-1,1.16,3.16,3.16,0,0,0-.27,1.7,3.57,3.57,0,0,0,.56,1.69,3.5,3.5,0,0,0,1.25,1.17,3.57,3.57,0,0,0,1.68.41A3.12,3.12,0,0,0,286.29,149.46Z" style="fill:#263238"></path><path d="M298.64,149.52h-4.75l-.72,2.2h-2.43l3.67-10.24h2.34l5.48,10.24h-2.49Zm-.9-1.8-2-3.92-1.28,3.92Z" style="fill:#263238"></path><path d="M311.79,141.48l.89,10.24h-1.94l-5.65-6.22.54,6.22h-2.34l-.89-10.24h2l5.63,6.21-.54-6.21Z" style="fill:#263238"></path><g style="opacity:0.30000000000000004"><path d="M270.34,141.48h2.37l.72,8.31h5.14l.17,1.93h-7.51Z" style="fill:#fff"></path><path d="M281.93,151.2a5.76,5.76,0,0,1-2.17-1.89,5.6,5.6,0,0,1-1-2.71,4.84,4.84,0,0,1,.49-2.72,4.5,4.5,0,0,1,1.83-1.89,5.66,5.66,0,0,1,2.82-.69,6.3,6.3,0,0,1,2.93.69,6,6,0,0,1,2.17,1.89,5.54,5.54,0,0,1,1,2.72,4.8,4.8,0,0,1-.49,2.71,4.53,4.53,0,0,1-1.84,1.89,5.57,5.57,0,0,1-2.81.69A6.3,6.3,0,0,1,281.93,151.2Zm4.36-1.74a2.71,2.71,0,0,0,1-1.17,3.22,3.22,0,0,0,.26-1.69,3.61,3.61,0,0,0-.56-1.7,3.45,3.45,0,0,0-2.92-1.58,3.07,3.07,0,0,0-1.61.42,2.6,2.6,0,0,0-1,1.16,3.16,3.16,0,0,0-.27,1.7,3.57,3.57,0,0,0,.56,1.69,3.5,3.5,0,0,0,1.25,1.17,3.57,3.57,0,0,0,1.68.41A3.12,3.12,0,0,0,286.29,149.46Z" style="fill:#fff"></path><path d="M298.64,149.52h-4.75l-.72,2.2h-2.43l3.67-10.24h2.34l5.48,10.24h-2.49Zm-.9-1.8-2-3.92-1.28,3.92Z" style="fill:#fff"></path><path d="M311.79,141.48l.89,10.24h-1.94l-5.65-6.22.54,6.22h-2.34l-.89-10.24h2l5.63,6.21-.54-6.21Z" style="fill:#fff"></path></g><path d="M345.71,282.12H318.55a1.79,1.79,0,0,1-1.75-1.6h0a1.46,1.46,0,0,1,1.47-1.61h27.16a1.79,1.79,0,0,1,1.75,1.61h0A1.45,1.45,0,0,1,345.71,282.12Z" style="fill:#263238"></path><path d="M316.57,276.57h0a.63.63,0,0,1,.09-.9c1.92-1.41,4-3.07,6-4.73a16.73,16.73,0,0,1,4.6-8.77c1.56-1.35,2.72-1.19,3.42-.81a1.58,1.58,0,0,1,.86,1.21c.25,2-3.73,5.84-7.65,9.14a3.51,3.51,0,0,0,.14,1.61,1,1,0,0,0,1,.65c2.2.14,3.4-1,4.55-2.14,1.31-1.27,2.65-2.57,5.11-1.37,2.16,1.07,2.21,2.14,2.09,3.06a.92.92,0,0,0,0,.32h0a4.62,4.62,0,0,0,1.95.46,6.48,6.48,0,0,0,6.45-3.4.61.61,0,0,1,.82-.2h0a.68.68,0,0,1,.32.93,7.64,7.64,0,0,1-7.64,4c-1.68-.21-2.49-.5-2.92-1a1.6,1.6,0,0,1-.26-1.32c.07-.52.12-.92-1.29-1.62s-2.32-.12-3.65,1.18-2.73,2.65-5.48,2.47a2.41,2.41,0,0,1-2.19-1.56,3.32,3.32,0,0,1-.23-.94c-2.1,1.71-4,3.17-5.14,4A.69.69,0,0,1,316.57,276.57Zm13.2-14.18a2.78,2.78,0,0,0-1.57.79,15.29,15.29,0,0,0-3.78,6.27c3.38-3,6-5.71,5.85-6.84,0-.05,0-.08-.1-.13A.81.81,0,0,0,329.77,262.39Z" style="fill:#263238"></path><g style="opacity:0.30000000000000004"><path d="M345.71,282.12H318.55a1.79,1.79,0,0,1-1.75-1.6h0a1.46,1.46,0,0,1,1.47-1.61h27.16a1.79,1.79,0,0,1,1.75,1.61h0A1.45,1.45,0,0,1,345.71,282.12Z" style="fill:#fff"></path><path d="M316.57,276.57h0a.63.63,0,0,1,.09-.9c1.92-1.41,4-3.07,6-4.73a16.73,16.73,0,0,1,4.6-8.77c1.56-1.35,2.72-1.19,3.42-.81a1.58,1.58,0,0,1,.86,1.21c.25,2-3.73,5.84-7.65,9.14a3.51,3.51,0,0,0,.14,1.61,1,1,0,0,0,1,.65c2.2.14,3.4-1,4.55-2.14,1.31-1.27,2.65-2.57,5.11-1.37,2.16,1.07,2.21,2.14,2.09,3.06a.92.92,0,0,0,0,.32h0a4.62,4.62,0,0,0,1.95.46,6.48,6.48,0,0,0,6.45-3.4.61.61,0,0,1,.82-.2h0a.68.68,0,0,1,.32.93,7.64,7.64,0,0,1-7.64,4c-1.68-.21-2.49-.5-2.92-1a1.6,1.6,0,0,1-.26-1.32c.07-.52.12-.92-1.29-1.62s-2.32-.12-3.65,1.18-2.73,2.65-5.48,2.47a2.41,2.41,0,0,1-2.19-1.56,3.32,3.32,0,0,1-.23-.94c-2.1,1.71-4,3.17-5.14,4A.69.69,0,0,1,316.57,276.57Zm13.2-14.18a2.78,2.78,0,0,0-1.57.79,15.29,15.29,0,0,0-3.78,6.27c3.38-3,6-5.71,5.85-6.84,0-.05,0-.08-.1-.13A.81.81,0,0,0,329.77,262.39Z" style="fill:#fff"></path></g><path d="M263.88,109.38h9.69l1.57,17.68h-9.69a6.59,6.59,0,0,1-6.44-5.92l-.52-5.84A5.33,5.33,0,0,1,263.88,109.38Z" style="fill:#263238"></path><path d="M307,127.06H267.85a7.38,7.38,0,0,1-7.21-6.63l-.39-4.42a6,6,0,0,1,6.05-6.63h39.16a7.38,7.38,0,0,1,7.21,6.63l.39,4.42A6,6,0,0,1,307,127.06Z" style="fill:#263238"></path><path d="M307,127.06H267.85a7.38,7.38,0,0,1-7.21-6.63l-.39-4.42a6,6,0,0,1,6.05-6.63h39.16a7.38,7.38,0,0,1,7.21,6.63l.39,4.42A6,6,0,0,1,307,127.06Z" style="fill:#fff;opacity:0.5"></path><path d="M306.7,120.09a1.56,1.56,0,0,1-1.58,1.74,1.94,1.94,0,0,1-1.9-1.74,1.57,1.57,0,0,1,1.59-1.74A1.93,1.93,0,0,1,306.7,120.09Z" style="fill:#263238"></path><path d="M270.41,120.09a1.56,1.56,0,0,1-1.58,1.74,1.94,1.94,0,0,1-1.9-1.74,1.57,1.57,0,0,1,1.59-1.74A1.93,1.93,0,0,1,270.41,120.09Z" style="fill:#263238"></path></g><g id="freepik--Stamp--inject-207"><path d="M314.42,266.94a7.46,7.46,0,0,1-7.16-6l-.24-1.29a6,6,0,0,1,5.29-7.33l33.41-3.55a7.11,7.11,0,0,1,5,1.45,7.39,7.39,0,0,1,2.83,4.49l.25,1.29a6.27,6.27,0,0,1-1,4.9,6,6,0,0,1-4.28,2.43l-33.4,3.55C314.89,266.93,314.65,266.94,314.42,266.94Zm32.11-17a5.63,5.63,0,0,0-.58,0l-33.41,3.55a4.9,4.9,0,0,0-3.51,2,5.12,5.12,0,0,0-.83,4l.24,1.28a6.12,6.12,0,0,0,6.45,4.88l33.4-3.55a4.86,4.86,0,0,0,3.51-2,5.14,5.14,0,0,0,.84-4l-.24-1.28a6.11,6.11,0,0,0-2.33-3.69A5.91,5.91,0,0,0,346.53,250Z" style="fill:#407BFF"></path><path d="M314.46,260.78l-2.54.27-.29,1.26-.71.07,1.24-5.05.68-.07,3.1,4.59-.72.08Zm-.34-.53L312.63,258l-.58,2.47Z" style="fill:#407BFF"></path><path d="M319.13,257.05a1.7,1.7,0,0,1,.77,1.18,1.44,1.44,0,0,1-.3,1.29,2.06,2.06,0,0,1-1.37.6l-1.18.12.28,1.46-.68.08-.93-4.83,1.86-.19A2.34,2.34,0,0,1,319.13,257.05Zm-.1,2.09a1,1,0,0,0,.19-.84,1.12,1.12,0,0,0-.5-.77,1.61,1.61,0,0,0-1-.17l-1.16.12.41,2.16,1.16-.12A1.46,1.46,0,0,0,319,259.14Z" style="fill:#407BFF"></path><path d="M324,256.53a1.72,1.72,0,0,1,.77,1.18,1.44,1.44,0,0,1-.3,1.29,2,2,0,0,1-1.37.6l-1.18.13.28,1.46-.68.07-.93-4.82,1.86-.2A2.34,2.34,0,0,1,324,256.53Zm-.1,2.09a1,1,0,0,0,.19-.84,1.1,1.1,0,0,0-.5-.76,1.61,1.61,0,0,0-1-.18l-1.16.12.41,2.17L323,259A1.44,1.44,0,0,0,323.89,258.62Z" style="fill:#407BFF"></path><path d="M329.56,260.41,328.25,259l-.3.05-1.18.13.28,1.46-.68.08-.93-4.83,1.86-.2a2.4,2.4,0,0,1,1.55.3,1.7,1.7,0,0,1,.77,1.17,1.58,1.58,0,0,1-.09,1,1.39,1.39,0,0,1-.67.66l1.45,1.5Zm-.81-2.3a1,1,0,0,0,.19-.84,1.12,1.12,0,0,0-.5-.77,1.61,1.61,0,0,0-1-.17l-1.16.12.41,2.17,1.17-.12A1.44,1.44,0,0,0,328.75,258.11Z" style="fill:#407BFF"></path><path d="M332.13,259.86a2.64,2.64,0,0,1-1.08-.79,2.7,2.7,0,0,1-.57-1.22,2.36,2.36,0,0,1,.09-1.3,2,2,0,0,1,.74-1,2.51,2.51,0,0,1,1.24-.46,2.74,2.74,0,0,1,2.44,1,2.68,2.68,0,0,1,.57,1.23,2.36,2.36,0,0,1-.09,1.3,2,2,0,0,1-.74,1,2.46,2.46,0,0,1-1.23.45A2.65,2.65,0,0,1,332.13,259.86Zm2.15-.77a1.49,1.49,0,0,0,.53-.73,1.79,1.79,0,0,0,.06-1,2,2,0,0,0-.42-.92,2.08,2.08,0,0,0-.79-.59,1.85,1.85,0,0,0-1-.14,1.73,1.73,0,0,0-.91.34,1.58,1.58,0,0,0-.54.73,1.79,1.79,0,0,0-.06,1,2.15,2.15,0,0,0,.42.92,2.11,2.11,0,0,0,.8.59,2,2,0,0,0,1,.14A1.79,1.79,0,0,0,334.28,259.09Z" style="fill:#407BFF"></path><path d="M340.14,254.36,339,259.41l-.68.07-3-4.6.74-.08,2.48,3.78,1-4.15Z" style="fill:#407BFF"></path><path d="M345,258.15l.11.6-3.47.37-.93-4.82,3.38-.36.11.6-2.69.29.29,1.48,2.39-.26.12.59-2.4.25.3,1.56Z" style="fill:#407BFF"></path><path d="M345.32,253.81l2-.21a3.12,3.12,0,0,1,1.41.16,2.54,2.54,0,0,1,1.07.75,2.64,2.64,0,0,1,.57,1.23,2.42,2.42,0,0,1-.08,1.29,2,2,0,0,1-.75,1,2.71,2.71,0,0,1-1.29.44l-2,.22Zm2.79,4a2.08,2.08,0,0,0,1-.34,1.44,1.44,0,0,0,.56-.71,1.84,1.84,0,0,0,.06-1,1.92,1.92,0,0,0-.43-.92,1.84,1.84,0,0,0-.8-.57,2.32,2.32,0,0,0-1.06-.12l-1.29.14.7,3.62Z" style="fill:#407BFF"></path></g><g id="freepik--Keys--inject-207"><path d="M216.82,256.61l-.91-1.75a3.16,3.16,0,0,1,.77-3.89l1.63-1.37a3.16,3.16,0,0,0,1.07-1.81l1.38-6.95a3.13,3.13,0,0,0-.3-2.08L219,236a3.16,3.16,0,0,1,.77-3.89l2.74-2.3A3.16,3.16,0,0,0,223.6,228l2.24-11.24L218,215.18l-7.81-1.56L208,224.86a3.19,3.19,0,0,0,.3,2.08l1.65,3.18a3.18,3.18,0,0,1-.77,3.89l-2.41,2a3.17,3.17,0,0,0-1.07,1.8l-1.38,7a3.18,3.18,0,0,0,.29,2.08l1,1.89a3.16,3.16,0,0,1-.77,3.89l-1.51,1.27a3.16,3.16,0,0,0-.77,3.89l.61,1.18a3.16,3.16,0,0,1-.77,3.89h0a3.17,3.17,0,0,0-.78,3.89l1.92,3.69,3.4.67,3.4.68,3.18-2.68a3.17,3.17,0,0,0,.78-3.89h0a3.16,3.16,0,0,1,.77-3.89l1-.85A3.18,3.18,0,0,0,216.82,256.61Z" style="fill:#263238"></path><path d="M216.82,256.61l-.91-1.75a3.16,3.16,0,0,1,.77-3.89l1.63-1.37a3.16,3.16,0,0,0,1.07-1.81l1.38-6.95a3.13,3.13,0,0,0-.3-2.08L219,236a3.16,3.16,0,0,1,.77-3.89l2.74-2.3A3.16,3.16,0,0,0,223.6,228l2.24-11.24L218,215.18l-7.81-1.56L208,224.86a3.19,3.19,0,0,0,.3,2.08l1.65,3.18a3.18,3.18,0,0,1-.77,3.89l-2.41,2a3.17,3.17,0,0,0-1.07,1.8l-1.38,7a3.18,3.18,0,0,0,.29,2.08l1,1.89a3.16,3.16,0,0,1-.77,3.89l-1.51,1.27a3.16,3.16,0,0,0-.77,3.89l.61,1.18a3.16,3.16,0,0,1-.77,3.89h0a3.17,3.17,0,0,0-.78,3.89l1.92,3.69,3.4.67,3.4.68,3.18-2.68a3.17,3.17,0,0,0,.78-3.89h0a3.16,3.16,0,0,1,.77-3.89l1-.85A3.18,3.18,0,0,0,216.82,256.61Z" style="fill:#fff;opacity:0.6000000000000001"></path><path d="M222.53,229.78A3.16,3.16,0,0,0,223.6,228l2.24-11.24-3.91-.77-3.91-.78-7.81-1.56L208.54,222l7.82,1.56-9.47,47.59,3.4.68,3.18-2.68a3.17,3.17,0,0,0,.78-3.89,3.16,3.16,0,0,1,.77-3.89l1-.85a3.18,3.18,0,0,0,.78-3.89l-.91-1.75a3.16,3.16,0,0,1,.77-3.89l1.63-1.37a3.16,3.16,0,0,0,1.07-1.81l1.38-6.95a3.18,3.18,0,0,0-.29-2.08L219,236a3.16,3.16,0,0,1,.77-3.89Z" style="opacity:0.2"></path><path d="M242,201.4c-2.07-2.46-11.22-7-16.13-7.93s-15.09-.33-17.94,1.15c-6.33,3.28-10.27,14.89-4,20.15,2.53,2.12,12.23,4.52,16.6,5.57s14.23,2.14,17.47,1.2C246,219.24,246.56,206.85,242,201.4Zm-10.66,1-14-2.78c-1-.2-1.15-1.46-.16-1.71,3-.75,6.07-1.12,7.9-.76s4.52,1.88,7,3.73C232.92,201.49,232.32,202.6,231.3,202.4Z" style="fill:#263238"></path><path d="M242,201.4c-2.07-2.46-11.22-7-16.13-7.93s-15.09-.33-17.94,1.15c-6.33,3.28-10.27,14.89-4,20.15,2.53,2.12,12.23,4.52,16.6,5.57s14.23,2.14,17.47,1.2C246,219.24,246.56,206.85,242,201.4Zm-10.66,1-14-2.78c-1-.2-1.15-1.46-.16-1.71,3-.75,6.07-1.12,7.9-.76s4.52,1.88,7,3.73C232.92,201.49,232.32,202.6,231.3,202.4Z" style="opacity:0.6000000000000001"></path><path d="M238.56,200.72c-2.07-2.45-11.22-6.95-16.14-7.92s-15.09-.33-17.94,1.14c-6.33,3.28-10.26,14.89-4,20.15,2.54,2.13,12.24,4.52,16.61,5.57s14.22,2.14,17.47,1.21C242.57,218.56,243.15,206.17,238.56,200.72Zm-10.67,1L214,199c-1-.21-1.15-1.47-.17-1.71,3-.76,6.08-1.13,7.91-.76s4.51,1.87,7,3.72C229.52,200.81,228.92,201.92,227.89,201.72Z" style="fill:#263238"></path><path d="M218.86,201.19a17.14,17.14,0,0,1-32.08-12c3.31-9.76,14.51-15.17,23.29-11.54l1.34.56a1.26,1.26,0,0,1,.68,1.64h0a1.26,1.26,0,0,1-1.64.68l-1.34-.56c-7.38-3.06-16.81,1.47-19.83,9.66a14.63,14.63,0,0,0,27.26,10.61C220,192,213.9,186,207.66,183.43l-1.84-.77a1.26,1.26,0,0,1-.68-1.64h0a1.25,1.25,0,0,1,1.64-.67l1.85.76C218.1,185,222.21,193.1,218.86,201.19Z" style="fill:#263238"></path><g style="opacity:0.5"><path d="M218.86,201.19a17.14,17.14,0,0,1-32.08-12c3.31-9.76,14.51-15.17,23.29-11.54l1.34.56a1.26,1.26,0,0,1,.68,1.64h0a1.26,1.26,0,0,1-1.64.68l-1.34-.56c-7.38-3.06-16.81,1.47-19.83,9.66a14.63,14.63,0,0,0,27.26,10.61C220,192,213.9,186,207.66,183.43l-1.84-.77a1.26,1.26,0,0,1-.68-1.64h0a1.25,1.25,0,0,1,1.64-.67l1.85.76C218.1,185,222.21,193.1,218.86,201.19Z" style="fill:#fff"></path></g><path d="M207,218.58c-.66-5-7.58-14-12.21-15.92s-15.91-.43-19.89,2.62c-8.84,6.78-20.4,30.54-17.05,41.16,1.36,4.3,10.2,9,14.21,11.1s13.83,4.15,17.89,2.2C200,254.9,208.49,229.62,207,218.58ZM198.65,212l-13.13-5.44a1,1,0,0,1,.27-1.95c3.19-.35,6.32-.25,8,.46s4,2.86,6,5.36A1,1,0,0,1,198.65,212Z" style="fill:#263238"></path><path d="M207,218.58c-.66-5-7.58-14-12.21-15.92s-15.91-.43-19.89,2.62c-8.84,6.78-20.4,30.54-17.05,41.16,1.36,4.3,10.2,9,14.21,11.1s13.83,4.15,17.89,2.2C200,254.9,208.49,229.62,207,218.58ZM198.65,212l-13.13-5.44a1,1,0,0,1,.27-1.95c3.19-.35,6.32-.25,8,.46s4,2.86,6,5.36A1,1,0,0,1,198.65,212Z" style="opacity:0.6000000000000001"></path><path d="M203.83,217.25c-.65-5-7.58-14-12.21-15.91s-15.91-.44-19.89,2.61c-8.83,6.78-20.4,30.54-17,41.16,1.36,4.3,10.21,9,14.21,11.11s13.83,4.14,17.89,2.19C196.82,253.57,205.28,228.29,203.83,217.25Zm-8.38-6.58-13.14-5.44a1,1,0,0,1,.27-1.95c3.19-.35,6.32-.25,8,.46s4,2.86,6,5.36A1,1,0,0,1,195.45,210.67Z" style="fill:#263238"></path><path d="M194.66,230.69,168.79,220a63.23,63.23,0,0,0-4.88,9.9l27.26,11.29A62.75,62.75,0,0,0,194.66,230.69Z" style="fill:#407BFF"></path><path d="M162.89,232.72c-1.37,4.24-2,8.11-1.21,10.51.09.2,1.23,2.4,10.11,7,3.16,1.64,10,2.56,11.52,1.85,2.23-1.08,4.55-4.22,6.57-8.18Z" style="fill:#407BFF"></path><path d="M195.27,227.68a23.89,23.89,0,0,0,.34-6.72c-.36-2.7-5.35-9.21-7.86-10.25s-10.65,0-12.81,1.68a23.69,23.69,0,0,0-4.47,5Z" style="fill:#407BFF"></path><rect x="176.16" y="229.8" width="5.76" height="4.2" transform="translate(102.38 -50.86) rotate(22.5)" style="fill:#fff"></rect><path d="M181.41,231.68l-.72-.3.79-1.91a1.33,1.33,0,1,0-2.45-1l-.79,1.91-.72-.3.79-1.91a2.11,2.11,0,1,1,3.89,1.61Z" style="fill:#fff"></path><rect x="170.84" y="242.63" width="5.76" height="4.2" transform="translate(106.87 -47.85) rotate(22.5)" style="fill:#fff"></rect><path d="M172.93,243.2l-.72-.3L173,241a2.11,2.11,0,1,1,3.89,1.61l-.73-.3a1.32,1.32,0,1,0-2.44-1Z" style="fill:#fff"></path><polygon points="190.14 217.95 187.93 217.03 186.08 214.03 183.31 220.72 186.74 219.9 188.95 220.82 190.14 217.95" style="fill:#fff"></polygon><path d="M180.46,219.43a5,5,0,0,1,2.69-6.51l.4,1a3.94,3.94,0,0,0-2.13,5.15Z" style="fill:#fff"></path><path d="M182.73,218.49a2.53,2.53,0,0,1,1.36-3.3l.4,1a1.51,1.51,0,0,0-.8.81,1.47,1.47,0,0,0,0,1.13Z" style="fill:#fff"></path></g><g id="freepik--Car--inject-207"><polygon points="82.09 395.48 144.78 397.53 283.45 397.53 343.28 394.49 343.28 381.42 335.61 370.34 314.75 362.97 288.28 370.34 277.78 380.25 159.04 381.42 135.78 364.47 117.6 357.91 90.95 364.8 84.45 376.72 80.61 388.72 82.09 395.48" style="fill:#263238"></polygon><polygon points="82.09 395.48 144.78 397.53 283.45 397.53 343.28 394.49 343.28 381.42 335.61 370.34 314.75 362.97 288.28 370.34 277.78 380.25 159.04 381.42 135.78 364.47 117.6 357.91 90.95 364.8 84.45 376.72 80.61 388.72 82.09 395.48" style="opacity:0.6000000000000001"></polygon><path d="M85.74,385.57C88,380.1,96.86,371,102.31,368.72c5.3-2.22,17.88-2.64,23,0,5.4,2.79,12.23,14,14.08,19.81.68,2.14.48,7.28.26,10.67l148,1.56c-.31-4.11-.52-9.78.45-12.15,2.24-5.46,11.12-14.56,16.57-16.84,5.3-2.23,17.88-2.64,23,0,5.4,2.78,12.24,14,14.09,19.81a25.33,25.33,0,0,1,.44,6.73,14.77,14.77,0,0,0,3-2.95l1.39-1.88a14.5,14.5,0,0,0,2.86-8.65V380a14.58,14.58,0,0,0-2.11-7.55l-3.56-5.85V326.84a14.48,14.48,0,0,0-1.16-5.69l-14.22-33.43a14.52,14.52,0,0,0-12.88-8.83c-15.27-.52-45.23-1.42-57.4-1-17.7.6-65.16,5.44-79.31,6.91a12.21,12.21,0,0,0-7,3.16l-42,38.6L88,344.75a12.24,12.24,0,0,0-7,8.46l-3.94,17-1.31,1.71a12.28,12.28,0,0,0-2.43,8.91l.81,6.62a12.23,12.23,0,0,0,4.42,8l.52.42a12.16,12.16,0,0,0,6.29,2.66C85,394.41,84.7,388.09,85.74,385.57Z" style="fill:#407BFF"></path><circle cx="111.88" cy="395.47" r="22.75" style="fill:#263238"></circle><circle cx="111.88" cy="395.47" r="15.85" style="fill:#fff;opacity:0.5"></circle><g style="opacity:0.5"><path d="M106,390.26l-1.1-3.3a2.13,2.13,0,0,0-3.59-.78,14.05,14.05,0,0,0-2.78,4.8,2.14,2.14,0,0,0,2.47,2.74l3.4-.69A2.13,2.13,0,0,0,106,390.26Z"></path><path d="M113.48,387.81l2.3-2.61a2.12,2.12,0,0,0-1.11-3.49,13.57,13.57,0,0,0-5.58,0A2.12,2.12,0,0,0,108,385.2l2.31,2.61A2.12,2.12,0,0,0,113.48,387.81Z"></path><path d="M119.31,393l3.41.69a2.13,2.13,0,0,0,2.46-2.74,14,14,0,0,0-2.77-4.8,2.13,2.13,0,0,0-3.59.78l-1.11,3.3A2.14,2.14,0,0,0,119.31,393Z"></path><path d="M117.71,400.69l1.11,3.3a2.13,2.13,0,0,0,3.59.78,14,14,0,0,0,2.77-4.8,2.13,2.13,0,0,0-2.46-2.74l-3.41.69A2.14,2.14,0,0,0,117.71,400.69Z"></path><path d="M110.28,403.14,108,405.75a2.12,2.12,0,0,0,1.12,3.49,13.57,13.57,0,0,0,5.58,0,2.12,2.12,0,0,0,1.11-3.49l-2.3-2.61A2.12,2.12,0,0,0,110.28,403.14Z"></path><path d="M104.44,397.92l-3.4-.69A2.14,2.14,0,0,0,98.57,400a14.05,14.05,0,0,0,2.78,4.8,2.13,2.13,0,0,0,3.59-.78l1.1-3.3A2.13,2.13,0,0,0,104.44,397.92Z"></path></g><g style="opacity:0.5"><circle cx="109.82" cy="393.42" r="1.07" style="fill:#fff"></circle><path d="M115,393.42a1.07,1.07,0,1,1-1.07-1.07A1.07,1.07,0,0,1,115,393.42Z" style="fill:#fff"></path><path d="M110.89,397.53a1.07,1.07,0,1,1-1.07-1.07A1.07,1.07,0,0,1,110.89,397.53Z" style="fill:#fff"></path><path d="M115,397.53a1.07,1.07,0,1,1-1.07-1.07A1.07,1.07,0,0,1,115,397.53Z" style="fill:#fff"></path></g><circle cx="315.74" cy="395.47" r="22.75" style="fill:#263238"></circle><circle cx="315.74" cy="395.47" r="15.85" style="fill:#fff;opacity:0.5"></circle><g style="opacity:0.5"><path d="M309.9,390.26l-1.1-3.3a2.13,2.13,0,0,0-3.59-.78,14.05,14.05,0,0,0-2.78,4.8,2.14,2.14,0,0,0,2.47,2.74l3.4-.69A2.13,2.13,0,0,0,309.9,390.26Z"></path><path d="M317.34,387.81l2.3-2.61a2.12,2.12,0,0,0-1.11-3.49,13.57,13.57,0,0,0-5.58,0,2.12,2.12,0,0,0-1.12,3.49l2.31,2.61A2.12,2.12,0,0,0,317.34,387.81Z"></path><path d="M323.17,393l3.41.69A2.13,2.13,0,0,0,329,391a14,14,0,0,0-2.77-4.8,2.13,2.13,0,0,0-3.59.78l-1.11,3.3A2.14,2.14,0,0,0,323.17,393Z"></path><path d="M321.57,400.69l1.11,3.3a2.13,2.13,0,0,0,3.59.78A14,14,0,0,0,329,400a2.13,2.13,0,0,0-2.46-2.74l-3.41.69A2.14,2.14,0,0,0,321.57,400.69Z"></path><path d="M314.14,403.14l-2.31,2.61a2.12,2.12,0,0,0,1.12,3.49,13.57,13.57,0,0,0,5.58,0,2.12,2.12,0,0,0,1.11-3.49l-2.3-2.61A2.12,2.12,0,0,0,314.14,403.14Z"></path><path d="M308.3,397.92l-3.4-.69a2.14,2.14,0,0,0-2.47,2.74,14.05,14.05,0,0,0,2.78,4.8,2.13,2.13,0,0,0,3.59-.78l1.1-3.3A2.13,2.13,0,0,0,308.3,397.92Z"></path></g><g style="opacity:0.5"><path d="M314.75,393.42a1.07,1.07,0,1,1-1.07-1.07A1.07,1.07,0,0,1,314.75,393.42Z" style="fill:#fff"></path><circle cx="317.79" cy="393.42" r="1.07" style="fill:#fff"></circle><path d="M314.75,397.53a1.07,1.07,0,1,1-1.07-1.07A1.07,1.07,0,0,1,314.75,397.53Z" style="fill:#fff"></path><path d="M318.86,397.53a1.07,1.07,0,1,1-1.07-1.07A1.07,1.07,0,0,1,318.86,397.53Z" style="fill:#fff"></path></g><path d="M170.51,294.43a4,4,0,0,0,.28-5.61l-41.08,37.73-1.2.52c.08.1.14.2.23.3a4,4,0,0,0,5.65.24Z" style="fill:#263238"></path><path d="M82.55,372.72h0a.46.46,0,0,1-.46-.5L84,352.78a.46.46,0,0,1,.6-.39l1.74.58a4.43,4.43,0,0,1,3,5.15l-2.4,11.1A4.42,4.42,0,0,1,82.55,372.72Z" style="fill:#fff;opacity:0.5"></path><g style="opacity:0.2"><path d="M93.38,359.88h0a1.5,1.5,0,0,1,1.47-1.53l237.67-4.61a1.52,1.52,0,0,1,1.53,1.47h0a1.51,1.51,0,0,1-1.48,1.53L94.91,361.35A1.49,1.49,0,0,1,93.38,359.88Z" style="fill:#fff"></path></g><path d="M243.41,331.79l44.23-.77a7.94,7.94,0,0,0,7.72-9.1L291,292.16a3.62,3.62,0,0,0-3.5-3.08c-7.67-.18-15.36-.31-21.47-.31-3,0-5.53,0-7.56.1-4,.14-10.31.59-17.7,1.21a3.6,3.6,0,0,0-3.3,3.35l-2.07,29.87A7.94,7.94,0,0,0,243.41,331.79Z" style="fill:#263238"></path><path d="M332.16,324.83l-14-32.8a3.52,3.52,0,0,0-3.13-2.15c-2.45-.08-5.57-.19-9.09-.29a3.61,3.61,0,0,0-3.69,4.14l4.45,30a8,8,0,0,0,8,6.77l13.64-.23a4.13,4.13,0,0,0,4-3A4,4,0,0,0,332.16,324.83Z" style="fill:#263238"></path><path d="M222.3,291.73c-16.2,1.52-32.64,3.22-39.64,4a10.56,10.56,0,0,0-6.07,2.74L152.06,321A7.09,7.09,0,0,0,157,333.28l59.45-1a7.93,7.93,0,0,0,7.78-7.39l2-29.29A3.61,3.61,0,0,0,222.3,291.73Z" style="fill:#263238"></path><path d="M290.18,339.53l-10.33.2a1.5,1.5,0,0,0-1.47,1.5h0a1.5,1.5,0,0,0,1.53,1.5l10.33-.2a1.5,1.5,0,0,0,1.47-1.5h0A1.5,1.5,0,0,0,290.18,339.53Z" style="fill:#263238"></path><path d="M217.71,342.46h0a1.5,1.5,0,0,0-1.53-1.5l-10.33.2a1.5,1.5,0,0,0-1.47,1.5h0a1.5,1.5,0,0,0,1.53,1.5l10.33-.2A1.49,1.49,0,0,0,217.71,342.46Z" style="fill:#263238"></path><g style="opacity:0.2"><path d="M85.74,385.57A26.93,26.93,0,0,1,90,379.11l-12.51.24a4.16,4.16,0,0,1-3.93-2.63,12.07,12.07,0,0,0-.22,4.11l.81,6.62a12.23,12.23,0,0,0,4.42,8l.52.42a12.16,12.16,0,0,0,6.29,2.66C85,394.41,84.7,388.09,85.74,385.57Z"></path><path d="M287.64,400.76c-.31-4.11-.52-9.78.45-12.15,1.61-3.94,6.69-9.77,11.43-13.57l-165.36,3.21a47.82,47.82,0,0,1,5.22,10.28c.68,2.14.48,7.28.26,10.67Z"></path><path d="M341.73,391.58a25.33,25.33,0,0,1,.44,6.73,14.77,14.77,0,0,0,3-2.95l1.39-1.88a14.5,14.5,0,0,0,2.86-8.65V380a14.58,14.58,0,0,0-2.11-7.55L346,370.34a4.15,4.15,0,0,1-4,3.88l-10.89.21A51.33,51.33,0,0,1,341.73,391.58Z"></path></g><g style="opacity:0.2"><path d="M148.71,386.76h0a2,2,0,0,1,2-2L278,382.25a2,2,0,0,1,2,2h0a2,2,0,0,1-2,2l-127.35,2.47A2,2,0,0,1,148.71,386.76Z" style="fill:#fff"></path></g><path d="M159.05,314.54l-7,6.42A7.09,7.09,0,0,0,157,333.28l2.07,0Z" style="opacity:0.6000000000000001"></path><path d="M168.61,316.21h-3.53a3.2,3.2,0,0,0-3.2,3.2v4.92L156,325.47a1.55,1.55,0,0,0-1.26,1.53v1.39a1.55,1.55,0,0,0,2.12,1.45l5.61-2.17a3.2,3.2,0,0,0,3.33,1.35l3.33-.74a2.29,2.29,0,0,0,1.78-2.22v-7.58A2.27,2.27,0,0,0,168.61,316.21Z" style="fill:#407BFF"></path></g></svg>