<svg xmlns="http://www.w3.org/2000/svg" xmlns:xlink="http://www.w3.org/1999/xlink" viewBox="0 0 400 300" data-imageid="money-jar-8" imageName="Money tree" class="illustrations_image" style="width: 219px;"><defs><linearGradient id="linear-gradient" x1="194.08" y1="250.53" x2="214.59" y2="228.09" gradientUnits="userSpaceOnUse"><stop offset="0" stop-color="#fff" stop-opacity="0"/><stop offset="1"/></linearGradient><linearGradient id="linear-gradient-2" x1="91.22" y1="229.77" x2="99.59" y2="214.57" xlink:href="#linear-gradient"/></defs><title>pp</title><g style="isolation:isolate"><g id="Layer_2" data-name="Layer 2"><path d="M205.38,282.94l152-89.83c4.84-2.72,9-7.18,4.27-10.1L209.1,95.08c-2.29-1.42-5.76-2.35-8.09-1L41.45,186.69c-4.84,2.81-5.71,10.66-.87,13.47l144.76,82.64A20.21,20.21,0,0,0,205.38,282.94Z" fill="#2c9135"/><path d="M209.69,210.31l-25.33,14.8c-.57,1.85-20,9.75-20.35,11.65l37.24,25.1L253.81,232Z" opacity="0.5" fill="url(#linear-gradient)" style="mix-blend-mode:multiply"/><path d="M91,192.93l-25.33,14.8a43,43,0,0,0-1.33,5.62l36.54,21.07,36.54-20.06Z" opacity="0.5" fill="url(#linear-gradient-2)" style="mix-blend-mode:multiply"/><ellipse cx="232.3" cy="222.01" rx="27.43" ry="16.07" fill="#fcd11a"/><polygon points="204.86 222.01 204.86 217.37 207.85 221.08 204.86 222.01" fill="#fcd11a"/><polygon points="259.73 217.37 259.73 222.01 256.25 222.01 258.8 218.28 259.73 217.37" fill="#fcd11a"/><ellipse cx="232.3" cy="217.56" rx="27.43" ry="16.07" fill="#fede17"/><ellipse cx="232.34" cy="217.56" rx="23.03" ry="13.49" fill="#fea500"/><path d="M245.78,212.9a2.14,2.14,0,0,1,.22,1.22l-.11.43-5,0a2.27,2.27,0,0,0,.09-.43,1.87,1.87,0,0,0-.3-.91,2.74,2.74,0,0,0-1.21-1.11,5.48,5.48,0,0,0-2.35-.62,5.07,5.07,0,0,0-2.24.34q-1.05.45-.81,1.18a4.34,4.34,0,0,0,1.07,1.57,19.07,19.07,0,0,1,1.52,1.75,1.83,1.83,0,0,1,.27,1.93,4.31,4.31,0,0,1-2.43,1.9,14.41,14.41,0,0,1-5.31,1.1,17,17,0,0,1-5.8-.82l-2.88,1.24-3.38-1.64,2.8-1.2a6.32,6.32,0,0,1-1.34-1.2,3.56,3.56,0,0,1-.66-1.12,3.68,3.68,0,0,1-.17-.91,2,2,0,0,1,0-.63l.1-.24h5a4,4,0,0,0-.12.51,2.13,2.13,0,0,0,.4,1.14,3.76,3.76,0,0,0,1.66,1.41,7.12,7.12,0,0,0,2.91.76,6.06,6.06,0,0,0,2.68-.43q1-.45.78-1.17a4.33,4.33,0,0,0-1.11-1.57,16,16,0,0,1-1.53-1.74,1.8,1.8,0,0,1-.21-1.94,4.67,4.67,0,0,1,2.55-1.93,13.78,13.78,0,0,1,5.09-1,14.7,14.7,0,0,1,5.43.85l2.87-1.23,3.14,1.71-2.88,1.24A4.1,4.1,0,0,1,245.78,212.9Z" fill="#fff039"/><ellipse cx="232.3" cy="213.23" rx="27.43" ry="16.07" fill="#fcd11a"/><polygon points="204.86 213.23 204.86 208.59 207.85 212.3 204.86 213.23" fill="#fcd11a"/><polygon points="259.73 208.59 259.73 213.23 256.25 213.23 258.8 209.5 259.73 208.59" fill="#fcd11a"/><ellipse cx="232.3" cy="208.78" rx="27.43" ry="16.07" fill="#fede17"/><ellipse cx="232.34" cy="208.78" rx="23.03" ry="13.49" fill="#fea500"/><path d="M245.78,204.12a2.14,2.14,0,0,1,.22,1.22l-.11.43-5,0a2.27,2.27,0,0,0,.09-.43,1.87,1.87,0,0,0-.3-.91,2.74,2.74,0,0,0-1.21-1.11,5.48,5.48,0,0,0-2.35-.62,5.07,5.07,0,0,0-2.24.34q-1.05.45-.81,1.18a4.34,4.34,0,0,0,1.07,1.57,19.07,19.07,0,0,1,1.52,1.75,1.83,1.83,0,0,1,.27,1.93,4.31,4.31,0,0,1-2.43,1.9,14.41,14.41,0,0,1-5.31,1.1,17,17,0,0,1-5.8-.82l-2.88,1.24-3.38-1.64,2.8-1.2a6.32,6.32,0,0,1-1.34-1.2,3.56,3.56,0,0,1-.66-1.12,3.68,3.68,0,0,1-.17-.91,2,2,0,0,1,0-.63l.1-.24h5a4,4,0,0,0-.12.51,2.13,2.13,0,0,0,.4,1.14,3.76,3.76,0,0,0,1.66,1.41,7.12,7.12,0,0,0,2.91.76,6.06,6.06,0,0,0,2.68-.43q1-.45.78-1.17a4.33,4.33,0,0,0-1.11-1.57,16,16,0,0,1-1.53-1.74,1.8,1.8,0,0,1-.21-1.94,4.67,4.67,0,0,1,2.55-1.93,13.78,13.78,0,0,1,5.09-1,14.7,14.7,0,0,1,5.43.85l2.87-1.23,3.14,1.71-2.88,1.24A4.1,4.1,0,0,1,245.78,204.12Z" fill="#fff039"/><ellipse cx="232.3" cy="203.71" rx="27.43" ry="16.07" fill="#fcd11a"/><polygon points="204.86 203.71 204.86 199.07 207.85 202.78 204.86 203.71" fill="#fcd11a"/><polygon points="259.73 199.07 259.73 203.71 256.25 203.71 258.8 199.99 259.73 199.07" fill="#fcd11a"/><ellipse cx="232.3" cy="199.27" rx="27.43" ry="16.07" fill="#fede17"/><ellipse cx="232.34" cy="199.27" rx="23.03" ry="13.49" fill="#fea500"/><path d="M245.78,194.6a2.14,2.14,0,0,1,.22,1.22l-.11.43-5,0a2.27,2.27,0,0,0,.09-.43,1.87,1.87,0,0,0-.3-.91,2.74,2.74,0,0,0-1.21-1.11,5.48,5.48,0,0,0-2.35-.62,5.07,5.07,0,0,0-2.24.34q-1.05.45-.81,1.18a4.34,4.34,0,0,0,1.07,1.57,19.07,19.07,0,0,1,1.52,1.75,1.83,1.83,0,0,1,.27,1.93,4.31,4.31,0,0,1-2.43,1.9,14.41,14.41,0,0,1-5.31,1.1,17,17,0,0,1-5.8-.82l-2.88,1.24-3.38-1.64,2.8-1.2a6.32,6.32,0,0,1-1.34-1.2,3.56,3.56,0,0,1-.66-1.12,3.68,3.68,0,0,1-.17-.91,2,2,0,0,1,0-.63l.1-.24h5a4,4,0,0,0-.12.51,2.13,2.13,0,0,0,.4,1.14,3.76,3.76,0,0,0,1.66,1.41,7.12,7.12,0,0,0,2.91.76,6.06,6.06,0,0,0,2.68-.43q1-.45.78-1.17a4.33,4.33,0,0,0-1.11-1.57,16,16,0,0,1-1.53-1.74,1.8,1.8,0,0,1-.21-1.94,4.67,4.67,0,0,1,2.55-1.93,13.78,13.78,0,0,1,5.09-1,14.7,14.7,0,0,1,5.43.85l2.87-1.23,3.14,1.71L244.59,193A4.1,4.1,0,0,1,245.78,194.6Z" fill="#fff039"/><ellipse cx="232.3" cy="195.05" rx="27.43" ry="16.07" fill="#fcd11a"/><polygon points="204.86 195.05 204.86 190.41 207.85 194.12 204.86 195.05" fill="#fcd11a"/><polygon points="259.73 190.41 259.73 195.05 256.25 195.05 258.8 191.32 259.73 190.41" fill="#fcd11a"/><ellipse cx="232.3" cy="190.6" rx="27.43" ry="16.07" fill="#fede17"/><ellipse cx="232.34" cy="190.6" rx="23.03" ry="13.49" fill="#fea500"/><path d="M245.78,185.94a2.14,2.14,0,0,1,.22,1.22l-.11.43-5,0a2.27,2.27,0,0,0,.09-.43,1.87,1.87,0,0,0-.3-.91,2.74,2.74,0,0,0-1.21-1.11,5.48,5.48,0,0,0-2.35-.62,5.07,5.07,0,0,0-2.24.34q-1.05.45-.81,1.18a4.34,4.34,0,0,0,1.07,1.57,19.07,19.07,0,0,1,1.52,1.75,1.83,1.83,0,0,1,.27,1.93,4.31,4.31,0,0,1-2.43,1.9,14.41,14.41,0,0,1-5.31,1.1,17,17,0,0,1-5.8-.82l-2.88,1.24-3.38-1.64,2.8-1.2a6.32,6.32,0,0,1-1.34-1.2,3.56,3.56,0,0,1-.66-1.12,3.68,3.68,0,0,1-.17-.91,2,2,0,0,1,0-.63l.1-.24h5a4,4,0,0,0-.12.51,2.13,2.13,0,0,0,.4,1.14,3.76,3.76,0,0,0,1.66,1.41,7.12,7.12,0,0,0,2.91.76,6.06,6.06,0,0,0,2.68-.43q1-.45.78-1.17a4.33,4.33,0,0,0-1.11-1.57,16,16,0,0,1-1.53-1.74,1.8,1.8,0,0,1-.21-1.94,4.67,4.67,0,0,1,2.55-1.93,13.78,13.78,0,0,1,5.09-1,14.7,14.7,0,0,1,5.43.85l2.87-1.23,3.14,1.71-2.88,1.24A4.1,4.1,0,0,1,245.78,185.94Z" fill="#fff039"/><path d="M253.91,77.49s-8.7-2.94-7.73-19.15C246.19,58.34,261,63.8,253.91,77.49Z" fill="#89db5b"/><path d="M254.17,77a.41.41,0,0,0,0-.11A100.3,100.3,0,0,0,247,58.65l-.82-.25c0,.21,0,.43-.06.64s0,.19,0,.28a98.85,98.85,0,0,1,7,17.8l.28.15.54.17Z" fill="#6aaf3e"/><path d="M246.24,90.15S240,88,240.7,76.42C240.7,76.42,251.31,80.34,246.24,90.15Z" fill="#89db5b"/><path d="M246.42,89.81a.3.3,0,0,0,0-.08,71.92,71.92,0,0,0-5.15-13.08l-.59-.18c0,.15,0,.31,0,.46s0,.13,0,.2a70.88,70.88,0,0,1,5,12.76l.2.1.39.12Z" fill="#6aaf3e"/><path d="M252.22,86.58s1.9-9,18.11-9.92C270.34,76.66,266.64,92,252.22,86.58Z" fill="#89db5b"/><path d="M252.73,86.78a.41.41,0,0,0,.11,0,100.3,100.3,0,0,0,17.28-9.27c.06-.28.11-.57.16-.85l-.65,0h-.28a98.85,98.85,0,0,1-16.86,9l-.11.29c0,.19-.07.37-.11.56Z" fill="#6aaf3e"/><path d="M245.49,104.19s1.26-9.1,17.37-11.16C262.87,93,260.25,108.58,245.49,104.19Z" fill="#89db5b"/><path d="M246,104.35s.07,0,.11,0a100.3,100.3,0,0,0,16.59-10.45c0-.29.07-.57.1-.86l-.64.06-.28,0a98.85,98.85,0,0,1-16.18,10.19c0,.1-.06.2-.09.3s0,.38-.07.57Z" fill="#6aaf3e"/><path d="M208.44,82.24s-8.7-2.94-7.73-19.15C200.71,63.09,215.51,68.55,208.44,82.24Z" fill="#89db5b"/><path d="M208.7,81.76a.41.41,0,0,0,0-.11,100.3,100.3,0,0,0-7.18-18.25l-.82-.25c0,.21,0,.43-.06.64s0,.19,0,.28a98.85,98.85,0,0,1,7,17.8l.28.15.54.17Z" fill="#6aaf3e"/><path d="M225.11,82.65s-2-9,12.4-16.51C237.51,66.14,240.48,81.63,225.11,82.65Z" fill="#89db5b"/><path d="M225.65,82.63s.07,0,.09-.06A100.3,100.3,0,0,0,237.66,67c-.06-.28-.14-.56-.21-.84l-.58.28-.25.13A98.85,98.85,0,0,1,225,81.75c0,.1,0,.21,0,.31l.13.55Z" fill="#6aaf3e"/><path d="M212.93,92.23s-5.25,4-14.47-3.15C198.46,89.07,207.67,82.51,212.93,92.23Z" fill="#89db5b"/><path d="M212.75,91.88s0,0-.06,0A71.92,71.92,0,0,0,199,88.72l-.48.39.36.29.16.12a70.88,70.88,0,0,1,13.37,3l.2-.11.32-.25Z" fill="#6aaf3e"/><path d="M221.69,108.78s-5.17,4.07-14.53-2.86C207.16,105.92,216.25,99.18,221.69,108.78Z" fill="#89db5b"/><path d="M221.51,108.44s0,0-.07,0a71.92,71.92,0,0,0-13.77-2.84l-.48.4.36.29.16.12a70.88,70.88,0,0,1,13.43,2.78l.2-.11.32-.26Z" fill="#6aaf3e"/><polyline points="254.06 74.13 255.13 76.28 255.38 74.59" fill="#fcd11a"/><ellipse cx="266.89" cy="70.11" rx="13.3" ry="6.89" transform="translate(-3.97 122.84) rotate(-25.73)" fill="#fcd11a"/><polygon points="278.03 62.57 278.88 64.34 278.03 64.34 278.03 62.57" fill="#fcd11a"/><ellipse cx="266.04" cy="68.35" rx="13.3" ry="6.89" transform="translate(-3.29 122.29) rotate(-25.73)" fill="#fede17"/><path d="M276.47,63.32c1.44,3-2.2,7.31-8,10.09s-11.47,2.95-12.9,0,2.17-7.51,7.93-10.29S275,60.34,276.47,63.32Z" fill="#fea500"/><path d="M266.59,67c.85,1.06.83,1.95-.6,3.08a4.34,4.34,0,0,1-4.33.87l-1.13.9-.83-.48,1.15-.91a2.62,2.62,0,0,1-1-2.14l2.25-.81a2.07,2.07,0,0,0,.55,1.59L264,68c-.86-1.07-.89-1.95.54-3.08a4.29,4.29,0,0,1,4.37-.86l.66-.52.84.47-.69.55a2.11,2.11,0,0,1,.79,1.67l-2.2.86a1.84,1.84,0,0,0-.38-1.16Zm-2.13,2.42c.31-.25.36-.45.12-.83l-1.27,1a1.06,1.06,0,0,0,1.12-.16l0,0m1.57-3,1.25-1a1.06,1.06,0,0,0-1.12.15l0,0c-.3.24-.36.44-.1.82" fill="#fff039"/><polyline points="203.04 66.54 202.02 68.7 203.49 67.85" fill="#fcd11a"/><ellipse cx="214" cy="74.07" rx="6.81" ry="13.15" transform="translate(53.36 233.68) rotate(-63.91)" fill="#fcd11a"/><polygon points="226.67 78.11 225.81 79.85 225.3 79.19 226.67 78.11" fill="#fcd11a"/><ellipse cx="214.85" cy="72.33" rx="6.81" ry="13.15" transform="translate(55.39 233.47) rotate(-63.91)" fill="#fede17"/><path d="M225.14,77.36c-1.44,2.94-7,2.76-12.71,0s-9.3-7.11-7.86-10.05,7.16-2.9,12.84-.12S226.58,74.42,225.14,77.36Z" fill="#fea500"/><path d="M216.21,72c-.31,1.31-1,1.84-2.76,1.42a4.3,4.3,0,0,1-3.32-2.84l-1.39-.33-.14-.94,1.41.34a2.59,2.59,0,0,1,1-2.1l2,1.26a2.05,2.05,0,0,0-.9,1.4l1.7.4c.3-1.32,1-1.88,2.73-1.46A4.24,4.24,0,0,1,219.92,72l.81.19.14.94-.85-.2a2.08,2.08,0,0,1-.82,1.64l-2-1.19a1.82,1.82,0,0,0,.67-1ZM213,71.77c.38.09.57,0,.71-.41L212.19,71a1,1,0,0,0,.81.77h0m3.29-.61,1.53.36a1,1,0,0,0-.8-.78h0c-.37-.09-.56,0-.7.42" fill="#fff039"/><path d="M239.38,133.25l-1-14.82,19-43.8-2.15-2-21.83,42.27-9.29-17.42,1.39-21.83L223,74.53,220.83,94,210,79.11h-2.86l20.39,39.77-1.13,15.26-25.18-14.29v2.58l24.27,24-3.25,44c13.69,8.18,20.92.19,20.92.19l-3.34-50.2,17.1-18Z" fill="#68e1fd" class="target-color"/><path d="M239.38,133.25l-1-14.82,19-43.8-2.15-2-21.83,42.27-9.29-17.42,1.39-21.83L223,74.53,220.83,94,210,79.11h-2.86l20.39,39.77-1.13,15.26-25.18-14.29v2.58l24.27,24-3.25,44c13.69,8.18,20.92.19,20.92.19l-3.34-50.2,17.1-18Z" fill="#606060" opacity="0.18"/><polyline points="245.15 126.41 246.21 128.54 246.46 126.86" fill="#fcd11a"/><ellipse cx="257.85" cy="122.44" rx="13.16" ry="6.82" transform="translate(-27.59 124.1) rotate(-25.73)" fill="#fcd11a"/><polygon points="268.87 114.97 269.71 116.72 268.87 116.72 268.87 114.97" fill="#fcd11a"/><ellipse cx="257.01" cy="120.69" rx="13.16" ry="6.82" transform="translate(-26.91 123.56) rotate(-25.73)" fill="#fede17"/><path d="M267.33,115.72c1.42,3-2.17,7.24-7.87,10s-11.34,2.92-12.77,0,2.14-7.43,7.84-10.18S265.9,112.76,267.33,115.72Z" fill="#fea500"/><path d="M257.55,119.39c.84,1.05.82,1.93-.59,3.05a4.3,4.3,0,0,1-4.29.86l-1.12.89-.82-.47,1.14-.9a2.59,2.59,0,0,1-1-2.11l2.23-.8a2.05,2.05,0,0,0,.54,1.58l1.37-1.09c-.85-1.06-.88-1.92.54-3.05a4.24,4.24,0,0,1,4.32-.85l.65-.52.83.47-.68.54a2.08,2.08,0,0,1,.78,1.66l-2.18.85a1.82,1.82,0,0,0-.38-1.14Zm-2.11,2.39c.31-.25.36-.45.12-.82l-1.25,1a1,1,0,0,0,1.11-.16l0,0m1.56-3,1.23-1a1,1,0,0,0-1.11.15l0,0c-.3.23-.35.43-.1.81" fill="#fff039"/><polyline points="182.52 110.59 181.33 113.08 183.03 112.11" fill="#fcd11a"/><ellipse cx="195.23" cy="119.31" rx="7.9" ry="15.25" transform="translate(2.2 242.16) rotate(-63.91)" fill="#fcd11a"/><polygon points="209.91 124.01 208.93 126.02 208.32 125.26 209.91 124.01" fill="#fcd11a"/><ellipse cx="196.21" cy="117.3" rx="7.9" ry="15.25" transform="translate(4.57 241.92) rotate(-63.91)" fill="#fede17"/><path d="M208.14,123.14c-1.67,3.41-8.15,3.2-14.73,0s-10.78-8.25-9.11-11.66,8.3-3.37,14.89-.14S209.81,119.73,208.14,123.14Z" fill="#fea500"/><path d="M197.79,116.86c-.36,1.52-1.16,2.13-3.2,1.65a5,5,0,0,1-3.85-3.29l-1.61-.39-.16-1.09,1.64.39a3,3,0,0,1,1.2-2.43l2.32,1.46a2.38,2.38,0,0,0-1,1.62l2,.47c.35-1.54,1.12-2.18,3.16-1.69a4.92,4.92,0,0,1,3.87,3.33l.93.22.17,1.09-1-.24a2.42,2.42,0,0,1-.95,1.9l-2.33-1.38a2.11,2.11,0,0,0,.77-1.16Zm-3.69-.21c.44.1.66,0,.83-.48l-1.8-.43a1.21,1.21,0,0,0,.94.9h0m3.82-.71,1.77.42a1.22,1.22,0,0,0-.93-.91h0c-.43-.1-.65,0-.81.49" fill="#fff039"/><ellipse cx="112.53" cy="203.58" rx="30.63" ry="17.94" fill="#fcd11a"/><polygon points="81.9 203.58 81.9 198.39 85.24 202.54 81.9 203.58" fill="#fcd11a"/><polygon points="143.16 198.39 143.16 203.58 139.28 203.58 142.13 199.42 143.16 198.39" fill="#fcd11a"/><ellipse cx="112.53" cy="198.61" rx="30.63" ry="17.94" fill="#fede17"/><ellipse cx="112.59" cy="198.61" rx="25.71" ry="15.06" fill="#fea500"/><path d="M127.59,193.4a2.39,2.39,0,0,1,.24,1.36l-.12.48-5.59,0a2.54,2.54,0,0,0,.1-.48,2.09,2.09,0,0,0-.34-1,3.06,3.06,0,0,0-1.35-1.24,6.12,6.12,0,0,0-2.63-.69,5.66,5.66,0,0,0-2.5.38q-1.17.5-.9,1.32a4.84,4.84,0,0,0,1.19,1.75,21.29,21.29,0,0,1,1.7,1.95,2,2,0,0,1,.3,2.16,4.82,4.82,0,0,1-2.72,2.12,16.09,16.09,0,0,1-5.93,1.23,19,19,0,0,1-6.48-.91l-3.21,1.38L95.6,201.4l3.13-1.34a7.06,7.06,0,0,1-1.5-1.34,4,4,0,0,1-.74-1.25,4.1,4.1,0,0,1-.19-1,2.19,2.19,0,0,1,.05-.71l.11-.27h5.59a4.46,4.46,0,0,0-.14.57,2.38,2.38,0,0,0,.45,1.27,4.2,4.2,0,0,0,1.85,1.58,8,8,0,0,0,3.25.84,6.76,6.76,0,0,0,3-.48q1.16-.5.87-1.31a4.83,4.83,0,0,0-1.24-1.75,17.9,17.9,0,0,1-1.71-1.94,2,2,0,0,1-.24-2.17,5.21,5.21,0,0,1,2.85-2.16,15.39,15.39,0,0,1,5.69-1.12,16.41,16.41,0,0,1,6.06.94l3.21-1.38,3.51,1.91-3.21,1.38A4.58,4.58,0,0,1,127.59,193.4Z" fill="#fff039"/><path d="M103.74,200.53l3.12-42.27-12-23.48H96.5l6.38,8.81,1.27-11.52,1.51.69-.82,12.89,5.49,10.29,12.89-25,1.27,1.16L113.25,158l2.84,42.65S111.82,205.36,103.74,200.53Z" fill="#68e1fd" class="target-color"/><path d="M122.42,133.82s-5.14-1.73-4.56-11.31C117.85,122.51,126.59,125.74,122.42,133.82Z" fill="#89db5b"/><path d="M122.57,133.53a.24.24,0,0,0,0-.06,59.22,59.22,0,0,0-4.24-10.77l-.49-.15c0,.13,0,.25,0,.38s0,.11,0,.17a58.37,58.37,0,0,1,4.13,10.51l.16.09.32.1Z" fill="#6aaf3e"/><path d="M117.88,141.29s-3.68-1.24-3.27-8.11C114.61,133.19,120.88,135.5,117.88,141.29Z" fill="#89db5b"/><path d="M118,141.09a.17.17,0,0,0,0,0,42.46,42.46,0,0,0-3-7.73l-.35-.11c0,.09,0,.18,0,.27v.12a41.85,41.85,0,0,1,3,7.54l.12.06.23.07Z" fill="#6aaf3e"/><path d="M121.42,139.18s1.12-5.31,10.69-5.86C132.11,133.32,129.93,142.38,121.42,139.18Z" fill="#89db5b"/><path d="M121.72,139.3h.06a59.22,59.22,0,0,0,10.2-5.47c0-.17.06-.33.09-.5h-.55a58.37,58.37,0,0,1-10,5.33l-.07.17-.06.33Z" fill="#6aaf3e"/><path d="M117.44,149.58s.75-5.37,10.26-6.59C127.7,143,126.16,152.18,117.44,149.58Z" fill="#89db5b"/><path d="M117.75,149.68h.06a59.22,59.22,0,0,0,9.79-6.17c0-.17,0-.34.06-.51l-.38,0-.16,0a58.37,58.37,0,0,1-9.56,6l-.05.18,0,.33Z" fill="#6aaf3e"/><path d="M95.56,136.62s-5.14-1.73-4.56-11.31C91,125.31,99.74,128.54,95.56,136.62Z" fill="#89db5b"/><path d="M95.72,136.34a.24.24,0,0,0,0-.06,59.22,59.22,0,0,0-4.24-10.77l-.49-.15c0,.13,0,.25,0,.38s0,.11,0,.17a58.37,58.37,0,0,1,4.13,10.51l.16.09.32.1Z" fill="#6aaf3e"/><path d="M105.41,136.87s-1.17-5.29,7.32-9.75C112.73,127.12,114.48,136.26,105.41,136.87Z" fill="#89db5b"/><path d="M105.73,136.85l.06,0a59.22,59.22,0,0,0,7-9.2c0-.17-.08-.33-.12-.49l-.34.17-.15.08a58.37,58.37,0,0,1-6.87,9c0,.06,0,.12,0,.18l.08.33Z" fill="#6aaf3e"/><path d="M98.21,142.52s-3.1,2.34-8.54-1.86C89.67,140.66,95.11,136.78,98.21,142.52Z" fill="#89db5b"/><path d="M98.11,142.31l0,0a42.46,42.46,0,0,0-8.1-1.84l-.29.23.21.17.09.07a41.85,41.85,0,0,1,7.89,1.8l.12-.06.19-.15Z" fill="#6aaf3e"/><path d="M103.39,152.29s-3.05,2.41-8.58-1.69C94.81,150.6,100.17,146.62,103.39,152.29Z" fill="#89db5b"/><path d="M103.28,152.09l0,0a42.46,42.46,0,0,0-8.13-1.68l-.28.23.22.17.1.07a41.85,41.85,0,0,1,7.93,1.64l.12-.07.19-.15Z" fill="#6aaf3e"/><polyline points="122.5 131.83 123.13 133.1 123.28 132.1" fill="#fcd11a"/><ellipse cx="130.08" cy="129.46" rx="7.86" ry="4.07" transform="translate(-43.31 69.32) rotate(-25.73)" fill="#fcd11a"/><polygon points="136.65 125.01 137.16 126.05 136.65 126.05 136.65 125.01" fill="#fcd11a"/><ellipse cx="129.58" cy="128.42" rx="7.86" ry="4.07" transform="translate(-42.91 69) rotate(-25.73)" fill="#fede17"/><path d="M135.74,125.45c.85,1.76-1.3,4.32-4.7,6s-6.77,1.74-7.62,0,1.28-4.43,4.68-6.07S134.89,123.69,135.74,125.45Z" fill="#fea500"/><path d="M129.9,127.64c.5.63.49,1.15-.35,1.82A2.57,2.57,0,0,1,127,130l-.67.53-.49-.28.68-.54a1.55,1.55,0,0,1-.6-1.26l1.33-.48a1.23,1.23,0,0,0,.32.94l.82-.65c-.51-.63-.52-1.15.32-1.82a2.53,2.53,0,0,1,2.58-.51l.39-.31.49.28-.41.32a1.24,1.24,0,0,1,.47,1l-1.3.51a1.09,1.09,0,0,0-.23-.68Zm-1.26,1.43c.18-.15.21-.27.07-.49l-.75.59a.62.62,0,0,0,.66-.09h0m.93-1.77.74-.58a.63.63,0,0,0-.66.09h0c-.18.14-.21.26-.06.48" fill="#fff039"/><polyline points="92.38 127.35 91.78 128.63 92.64 128.13" fill="#fcd11a"/><ellipse cx="98.85" cy="131.8" rx="4.02" ry="7.77" transform="translate(-62.99 162.6) rotate(-63.91)" fill="#fcd11a"/><polygon points="106.33 134.19 105.83 135.21 105.52 134.82 106.33 134.19" fill="#fcd11a"/><ellipse cx="99.35" cy="130.77" rx="4.02" ry="7.77" transform="translate(-61.79 162.48) rotate(-63.91)" fill="#fede17"/><path d="M105.42,133.74c-.85,1.74-4.15,1.63-7.5,0s-5.49-4.2-4.64-5.93,4.23-1.71,7.58-.07S106.27,132,105.42,133.74Z" fill="#fea500"/><path d="M100.16,130.55c-.18.77-.59,1.08-1.63.84a2.54,2.54,0,0,1-2-1.68l-.82-.2-.08-.55.83.2a1.53,1.53,0,0,1,.61-1.24l1.18.74a1.21,1.21,0,0,0-.53.83l1,.24c.18-.78.57-1.11,1.61-.86a2.5,2.5,0,0,1,2,1.69l.48.11.09.55-.5-.12a1.23,1.23,0,0,1-.48,1l-1.19-.7a1.07,1.07,0,0,0,.39-.59Zm-1.88-.11c.23.05.34,0,.42-.24l-.92-.22a.62.62,0,0,0,.48.46h0m1.94-.36.9.21a.62.62,0,0,0-.47-.46h0c-.22-.05-.33,0-.41.25" fill="#fff039"/><polyline points="91.32 158.83 107.23 167.86 108.09 176.95 91.32 160.35" fill="#68e1fd" class="target-color"/><polyline points="109.65 169.31 124.21 160.36 112 173.22" fill="#68e1fd" class="target-color"/><polyline points="117.24 162.7 117.87 163.96 118.01 162.97" fill="#fcd11a"/><ellipse cx="124.74" cy="160.36" rx="7.77" ry="4.03" transform="translate(-57.25 70.07) rotate(-25.73)" fill="#fcd11a"/><polygon points="131.24 155.95 131.74 156.98 131.24 156.98 131.24 155.95" fill="#fcd11a"/><ellipse cx="124.24" cy="159.32" rx="7.77" ry="4.03" transform="translate(-56.86 69.75) rotate(-25.73)" fill="#fede17"/><path d="M130.34,156.39c.84,1.74-1.28,4.27-4.65,5.9s-6.7,1.72-7.54,0,1.27-4.39,4.63-6S129.5,154.64,130.34,156.39Z" fill="#fea500"/><path d="M124.56,158.55c.5.62.49,1.14-.35,1.8a2.54,2.54,0,0,1-2.53.51l-.66.52-.49-.28.67-.53a1.53,1.53,0,0,1-.6-1.25l1.32-.47a1.21,1.21,0,0,0,.32.93l.81-.64c-.5-.62-.52-1.14.32-1.8a2.51,2.51,0,0,1,2.55-.5l.38-.3.49.28-.4.32a1.23,1.23,0,0,1,.46,1l-1.29.5a1.08,1.08,0,0,0-.22-.68ZM123.32,160c.18-.15.21-.26.07-.48l-.74.59a.62.62,0,0,0,.66-.09h0m.92-1.75.73-.58a.62.62,0,0,0-.66.09h0c-.18.14-.21.26-.06.48" fill="#fff039"/><polyline points="80.26 153.36 79.56 154.83 80.56 154.26" fill="#fcd11a"/><ellipse cx="87.76" cy="158.51" rx="4.66" ry="9.01" transform="matrix(0.44, -0.9, 0.9, 0.44, -93.19, 167.61)" fill="#fcd11a"/><polygon points="96.44 161.28 95.85 162.47 95.5 162.02 96.44 161.28" fill="#fcd11a"/><ellipse cx="88.35" cy="157.32" rx="4.66" ry="9.01" transform="translate(-91.8 167.47) rotate(-63.91)" fill="#fede17"/><path d="M95.39,160.77c-1,2-4.81,1.89-8.7,0s-6.37-4.87-5.38-6.88,4.9-2,8.79-.08S96.37,158.76,95.39,160.77Z" fill="#fea500"/><path d="M89.28,157.06c-.21.9-.69,1.26-1.89,1a2.94,2.94,0,0,1-2.28-1.94l-1-.23-.1-.64,1,.23a1.77,1.77,0,0,1,.71-1.44l1.37.86a1.4,1.4,0,0,0-.62,1l1.16.28c.21-.91.66-1.29,1.87-1a2.9,2.9,0,0,1,2.29,2l.55.13.1.64-.58-.14a1.43,1.43,0,0,1-.56,1.12L89.95,158a1.25,1.25,0,0,0,.46-.69Zm-2.18-.12c.26.06.39,0,.49-.28l-1.07-.25a.72.72,0,0,0,.55.53h0m2.25-.42,1,.25a.72.72,0,0,0-.55-.54h0c-.25-.06-.38,0-.48.29" fill="#fff039"/><path d="M163.23,236.57s1.59-11.42,21.8-14C185,222.56,181.76,242.09,163.23,236.57Z" fill="#89db5b"/><path d="M163.88,236.78s.09,0,.14,0a125.87,125.87,0,0,0,20.82-13.12c0-.36.08-.72.12-1.08l-.81.08-.35,0a124.06,124.06,0,0,1-20.31,12.78c0,.12-.08.25-.11.38s-.06.47-.09.71Z" fill="#6aaf3e"/><path d="M157.94,173s8.6-7.67,25.69,3.45C183.63,176.48,168.49,189.23,157.94,173Z" fill="#89db5b"/><path d="M158.31,173.61s.07.06.12.07a125.87,125.87,0,0,0,24.36,3.49c.27-.24.53-.49.79-.74l-.67-.46-.29-.19a124.06,124.06,0,0,1-23.75-3.41l-.33.21-.53.49Q158.16,173.33,158.31,173.61Z" fill="#6aaf3e"/><path d="M110.6,37.12a14.19,14.19,0,0,0-2.82-1.31c-3.64-1.22-8-1.45-11.26.91-3.82,2.77-4.47,7.89-5.18,12.22l-.06.34A126.27,126.27,0,0,0,90,69.71q0,7.68.49,15.35c0,.65.08,1.3.14,1.95l5.07-3.29c-.41-3.38-.65-6.78-.83-10.18a117.39,117.39,0,0,1,.43-20.4,41,41,0,0,1,2-9.56c1-2.62,2.65-6.36,5.77-6.89,2.18-.37,3.79,1,5.19,2.43a15.94,15.94,0,0,1,2.95,4.56,23.1,23.1,0,0,1,1.85,7c0,.06,0,.13,0,.19l7.13.31C118.53,45.8,115.52,40.08,110.6,37.12ZM103.12,36h0l.1,0Z" fill="#68e1fd" class="target-color"/><path d="M145.79,46.09a11.36,11.36,0,0,0-.4-1.73,10.3,10.3,0,0,0-8.9-7C121.11,34.3,112,58.41,112,58.41l3,3.94c-.67-.88,4.12-8.08,4.62-8.87,3-4.88,7-10,12.39-12.41,2.17-1,5.12-1.77,7.52-1.21,3.9.91,3,5.36,1.39,8a1.31,1.31,0,0,0-.28,1.08,1.28,1.28,0,0,0,.41.48,11.6,11.6,0,0,1,3.42,5A14.76,14.76,0,0,0,145.79,46.09Z" fill="#68e1fd" class="target-color"/><path d="M110.6,37.12a14.19,14.19,0,0,0-2.82-1.31c-3.64-1.22-8-1.45-11.26.91-3.82,2.77-4.47,7.89-5.18,12.22l-.06.34A126.27,126.27,0,0,0,90,69.71q0,7.68.49,15.35c0,.65.08,1.3.14,1.95l5.07-3.29c-.41-3.38-.65-6.78-.83-10.18a117.39,117.39,0,0,1,.43-20.4,41,41,0,0,1,2-9.56c1-2.62,2.65-6.36,5.77-6.89,2.18-.37,3.79,1,5.19,2.43a15.94,15.94,0,0,1,2.95,4.56,23.1,23.1,0,0,1,1.85,7c0,.06,0,.13,0,.19l7.13.31C118.53,45.8,115.52,40.08,110.6,37.12ZM103.12,36h0l.1,0Z" fill="#631303" opacity="0.55"/><path d="M144.32,62.09l-8.84,44.09s-7.82,12.24-28.79,4.19S86.18,87.48,90.26,83.06L112.13,48.6s8-10,20.93-4.08C146.82,50.75,144.32,62.09,144.32,62.09Z" fill="#68e1fd" class="target-color"/><path d="M144.53,54.11a9.23,9.23,0,0,1,.88,4.69c-.3,4.21-3.74,6.3-7.66,6.78a26.51,26.51,0,0,1-15.27-3.05c-4.32-2.25-10.36-6.39-10-12,.25-4.42,4.32-7,8.31-7.65a20.84,20.84,0,0,1,4.86-.21C132.61,43.17,141.41,47.49,144.53,54.11Z" fill="#68e1fd" class="target-color"/><path d="M144.53,54.11a9.23,9.23,0,0,1,.88,4.69c-.3,4.21-3.74,6.3-7.66,6.78a26.51,26.51,0,0,1-15.27-3.05c-4.32-2.25-10.36-6.39-10-12,.25-4.42,4.32-7,8.31-7.65a20.84,20.84,0,0,1,4.86-.21C132.61,43.17,141.41,47.49,144.53,54.11Z" fill="#631303" opacity="0.55"/><path d="M145.79,46.09a11.36,11.36,0,0,0-.4-1.73,10.3,10.3,0,0,0-8.9-7C121.11,34.3,112,58.41,112,58.41l3,3.94c-.67-.88,4.12-8.08,4.62-8.87,3-4.88,7-10,12.39-12.41,2.17-1,5.12-1.77,7.52-1.21,3.9.91,3,5.36,1.39,8a1.31,1.31,0,0,0-.28,1.08,1.28,1.28,0,0,0,.41.48,11.6,11.6,0,0,1,3.42,5A14.76,14.76,0,0,0,145.79,46.09Z" fill="#631303" opacity="0.55"/><ellipse cx="114.29" cy="57.95" rx="0.92" ry="1.44" fill="#631303"/><path d="M156.08,79.71,127,90.48s-7.93,8.84-2.15,14.28c0,0,1.93,1.7,10.88-4.76s21.37-15.76,21.37-15.76Z" fill="#68e1fd" class="target-color"/><path d="M156.08,79.71,127,90.48s-7.93,8.84-2.15,14.28c0,0,1.93,1.7,10.88-4.76s21.37-15.76,21.37-15.76Z" fill="#606060" opacity="0.46"/><ellipse cx="161.09" cy="77.1" rx="7.82" ry="11.19" transform="translate(-11.2 30.07) rotate(-10.31)" fill="#68e1fd" class="target-color"/><polygon points="146.34 84.02 133.64 68.83 137.38 68.15 149.38 82.19 146.34 84.02" fill="#68e1fd" class="target-color"/><ellipse cx="161.09" cy="77.1" rx="7.82" ry="11.19" transform="translate(-11.2 30.07) rotate(-10.31)" fill="#606060" opacity="0.46"/><ellipse cx="162.52" cy="77.23" rx="7.82" ry="11.19" transform="translate(-11.2 30.33) rotate(-10.31)" fill="#68e1fd" class="target-color"/><path d="M165.94,70.22a.5.5,0,0,1,0,1A.5.5,0,0,1,165.94,70.22Z" fill="#631303"/><path d="M162.76,68.95a.5.5,0,0,1,0,1A.5.5,0,0,1,162.76,68.95Z" fill="#631303"/><path d="M160.61,74a.5.5,0,0,1,0,1A.5.5,0,0,1,160.61,74Z" fill="#631303"/><path d="M163.5,72.89a.5.5,0,0,1,0,1A.5.5,0,0,1,163.5,72.89Z" fill="#631303"/><path d="M160.61,68.45a.5.5,0,0,1,0,1A.5.5,0,0,1,160.61,68.45Z" fill="#631303"/><path d="M156.84,73.22a.5.5,0,0,1,0,1A.5.5,0,0,1,156.84,73.22Z" fill="#631303"/><path d="M157.89,79.49v.11a.5.5,0,0,1-1,0v-.11A.5.5,0,0,1,157.89,79.49Z" fill="#631303"/><path d="M158.73,82.21a.5.5,0,0,1,0,1A.5.5,0,0,1,158.73,82.21Z" fill="#631303"/><path d="M162.5,84.53a.5.5,0,0,1,0,1A.5.5,0,0,1,162.5,84.53Z" fill="#631303"/><path d="M165.6,85a.5.5,0,0,1,0,1A.5.5,0,0,1,165.6,85Z" fill="#631303"/><path d="M168,82a.5.5,0,0,1,0,1A.5.5,0,0,1,168,82Z" fill="#631303"/><path d="M169.15,78a.5.5,0,0,1,0,1A.5.5,0,0,1,169.15,78Z" fill="#631303"/><path d="M168.16,73.44a.5.5,0,0,1,0,1A.5.5,0,0,1,168.16,73.44Z" fill="#631303"/><path d="M157.73,69.89a.5.5,0,0,1,0,1A.5.5,0,0,1,157.73,69.89Z" fill="#631303"/><path d="M156.73,75.88a.5.5,0,0,1,0,1A.5.5,0,0,1,156.73,75.88Z" fill="#631303"/><path d="M165.27,75a.5.5,0,0,1,0,1A.5.5,0,0,1,165.27,75Z" fill="#631303"/><path d="M165.83,77.88a.5.5,0,0,1,0,1A.5.5,0,0,1,165.83,77.88Z" fill="#631303"/><path d="M165,81a.5.5,0,0,1,0,1A.5.5,0,0,1,165,81Z" fill="#631303"/><path d="M161.61,81.21a.5.5,0,0,1,0,1A.5.5,0,0,1,161.61,81.21Z" fill="#631303"/><path d="M159.06,78a.5.5,0,0,1,0,1A.5.5,0,0,1,159.06,78Z" fill="#631303"/><path d="M162,77.36l.11-.11a.5.5,0,0,1,.71.71l-.11.11A.5.5,0,0,1,162,77.36Z" fill="#631303"/><polygon points="146.34 84.02 133.64 68.83 137.38 68.15 149.38 82.19 146.34 84.02" fill="#606060" opacity="0.46"/><path d="M304.74,201.48s-1.59-11.42-21.8-14C282.94,187.47,286.22,207,304.74,201.48Z" fill="#89db5b"/><path d="M304.09,201.68s-.09,0-.14,0a125.87,125.87,0,0,1-20.82-13.12c0-.36-.08-.72-.12-1.08l.81.08.35,0a124.06,124.06,0,0,0,20.31,12.78c0,.12.08.25.11.38s.06.47.09.71Z" fill="#6aaf3e"/><path d="M285.91,151.2s-8.6-7.67-25.69,3.45C260.23,154.64,275.37,167.4,285.91,151.2Z" fill="#89db5b"/><path d="M285.55,151.77s-.07.06-.12.07a125.87,125.87,0,0,1-24.36,3.49c-.27-.24-.53-.49-.79-.74l.67-.46.29-.19A124.06,124.06,0,0,0,285,150.52l.33.21.53.49Q285.7,151.49,285.55,151.77Z" fill="#6aaf3e"/><path d="M187.87,83.71a32.71,32.71,0,0,1-3.47-1.9c-1.64-1-3.15,1.56-1.51,2.59a32.7,32.7,0,0,0,3.47,1.9,1.54,1.54,0,0,0,2.05-.54A1.51,1.51,0,0,0,187.87,83.71Z" fill="#68e1fd" class="target-color"/><path d="M174.6,95.66l-3.68-2c-1.69-.94-3.21,1.65-1.51,2.59l3.68,2C174.78,99.19,176.29,96.6,174.6,95.66Z" fill="#68e1fd" class="target-color"/><path d="M178.6,85.6,176,83.54a1.55,1.55,0,0,0-2.12,0,1.51,1.51,0,0,0,0,2.12l2.55,2.06a1.55,1.55,0,0,0,2.12,0A1.51,1.51,0,0,0,178.6,85.6Z" fill="#68e1fd" class="target-color"/><path d="M186.91,97.36a26.26,26.26,0,0,0-3.64-4.62,1.5,1.5,0,0,0-2.12,2.12,22.69,22.69,0,0,1,3.17,4C185.34,100.51,187.93,99,186.91,97.36Z" fill="#68e1fd" class="target-color"/><path d="M199.84,86.72a29.84,29.84,0,0,0-4.38-1.05,1.55,1.55,0,0,0-1.85,1,1.51,1.51,0,0,0,1,1.85A29.83,29.83,0,0,1,199,89.62C200.89,90.21,201.68,87.31,199.84,86.72Z" fill="#68e1fd" class="target-color"/><path d="M198.39,95.06a8.68,8.68,0,0,1-3.48-1.46,1.51,1.51,0,0,0-2.05.54,1.53,1.53,0,0,0,.54,2.05A10.81,10.81,0,0,0,197.59,98a1.54,1.54,0,0,0,1.85-1A1.51,1.51,0,0,0,198.39,95.06Z" fill="#68e1fd" class="target-color"/><path d="M187,107.31l-2.93-3.15c-1.32-1.42-3.44.71-2.12,2.12l2.93,3.15C186.2,110.85,188.32,108.72,187,107.31Z" fill="#68e1fd" class="target-color"/><path d="M183.74,75.12l-3.31-1.84c-1.69-.94-3.2,1.65-1.51,2.59l3.31,1.84C183.92,78.65,185.43,76.06,183.74,75.12Z" fill="#68e1fd" class="target-color"/></g></g></svg>