<svg xmlns="http://www.w3.org/2000/svg" viewBox="0 0 500 500"><g id="freepik--background-complete--inject-452"><rect y="382.4" width="500" height="0.25" style="fill:#ebebeb"></rect><rect x="416.78" y="398.49" width="33.12" height="0.25" style="fill:#ebebeb"></rect><rect x="322.53" y="401.21" width="8.69" height="0.25" style="fill:#ebebeb"></rect><rect x="396.59" y="389.21" width="19.19" height="0.25" style="fill:#ebebeb"></rect><rect x="52.46" y="390.89" width="43.19" height="0.25" style="fill:#ebebeb"></rect><rect x="104.56" y="390.89" width="6.33" height="0.25" style="fill:#ebebeb"></rect><rect x="131.47" y="395.11" width="93.68" height="0.25" style="fill:#ebebeb"></rect><path d="M237,337.8H43.91a5.71,5.71,0,0,1-5.7-5.71V60.66A5.71,5.71,0,0,1,43.91,55H237a5.71,5.71,0,0,1,5.71,5.71V332.09A5.71,5.71,0,0,1,237,337.8ZM43.91,55.2a5.46,5.46,0,0,0-5.45,5.46V332.09a5.46,5.46,0,0,0,5.45,5.46H237a5.47,5.47,0,0,0,5.46-5.46V60.66A5.47,5.47,0,0,0,237,55.2Z" style="fill:#ebebeb"></path><path d="M453.31,337.8H260.21a5.72,5.72,0,0,1-5.71-5.71V60.66A5.72,5.72,0,0,1,260.21,55h193.1A5.71,5.71,0,0,1,459,60.66V332.09A5.71,5.71,0,0,1,453.31,337.8ZM260.21,55.2a5.47,5.47,0,0,0-5.46,5.46V332.09a5.47,5.47,0,0,0,5.46,5.46h193.1a5.47,5.47,0,0,0,5.46-5.46V60.66a5.47,5.47,0,0,0-5.46-5.46Z" style="fill:#ebebeb"></path><rect x="71.08" y="134.05" width="240.15" height="202.37" style="fill:#ebebeb"></rect><rect x="74.95" y="138.42" width="236.29" height="193.22" style="fill:#fafafa"></rect><polygon points="311.24 206.53 277.91 206.53 277.91 196.03 271.79 196.03 271.79 142.79 269.16 142.79 269.16 196.03 260.42 196.03 260.42 206.53 256.92 206.53 256.92 259.02 238.54 259.02 238.54 243.27 244.67 243.27 244.67 240.65 238.54 240.65 238.54 236.28 221.05 236.28 221.05 196.03 216.67 196.03 216.67 189.91 195.68 189.91 195.68 196.03 193.05 196.03 193.05 252.02 183.43 252.02 183.43 277.39 178.18 277.39 178.18 257.27 173.81 257.27 173.81 252.02 164.18 252.02 164.18 233.65 158.94 233.65 158.94 221.4 152.81 221.4 152.81 203.03 150.19 203.03 150.19 221.4 144.06 221.4 144.06 233.65 138.81 233.65 138.81 252.02 129.19 252.02 129.19 257.27 124.82 257.27 124.82 277.39 118.69 277.39 118.69 224.03 116.07 224.03 116.07 242.4 108.19 242.4 108.19 277.39 104.7 277.39 104.7 210.03 102.07 210.03 102.07 184.66 99.45 184.66 99.45 193.77 83.7 201.13 83.7 210.03 76.7 210.03 76.7 277.39 74.95 277.39 74.95 331.63 311.24 331.63 311.24 206.53" style="fill:#f0f0f0"></polygon><rect x="291.31" y="209.27" width="2.48" height="2.48" style="fill:#f5f5f5"></rect><rect x="291.31" y="213.43" width="2.48" height="2.48" style="fill:#f5f5f5"></rect><rect x="291.31" y="230.05" width="2.48" height="2.48" style="fill:#f5f5f5"></rect><rect x="291.31" y="234.21" width="2.48" height="2.48" style="fill:#f5f5f5"></rect><rect x="291.31" y="238.36" width="2.48" height="2.48" style="fill:#f5f5f5"></rect><rect x="291.31" y="250.83" width="2.48" height="2.48" style="fill:#f5f5f5"></rect><rect x="291.31" y="254.98" width="2.48" height="2.48" style="fill:#f5f5f5"></rect><rect x="287.37" y="225.9" width="2.48" height="2.48" style="fill:#f5f5f5"></rect><rect x="287.37" y="230.05" width="2.48" height="2.48" style="fill:#f5f5f5"></rect><rect x="287.37" y="234.21" width="2.48" height="2.48" style="fill:#f5f5f5"></rect><rect x="287.37" y="238.36" width="2.48" height="2.48" style="fill:#f5f5f5"></rect><rect x="287.37" y="242.52" width="2.48" height="2.48" style="fill:#f5f5f5"></rect><rect x="287.37" y="250.83" width="2.48" height="2.48" style="fill:#f5f5f5"></rect><rect x="287.37" y="254.98" width="2.48" height="2.48" style="fill:#f5f5f5"></rect><rect x="283.43" y="209.27" width="2.48" height="2.48" style="fill:#f5f5f5"></rect><rect x="283.43" y="213.43" width="2.48" height="2.48" style="fill:#f5f5f5"></rect><rect x="283.43" y="217.58" width="2.48" height="2.48" style="fill:#f5f5f5"></rect><rect x="283.43" y="221.74" width="2.48" height="2.48" style="fill:#f5f5f5"></rect><rect x="283.43" y="225.9" width="2.48" height="2.48" style="fill:#f5f5f5"></rect><rect x="283.43" y="230.05" width="2.48" height="2.48" style="fill:#f5f5f5"></rect><rect x="283.43" y="234.21" width="2.48" height="2.48" style="fill:#f5f5f5"></rect><rect x="283.43" y="238.36" width="2.48" height="2.48" style="fill:#f5f5f5"></rect><rect x="283.43" y="242.52" width="2.48" height="2.48" style="fill:#f5f5f5"></rect><rect x="283.43" y="246.67" width="2.48" height="2.48" style="fill:#f5f5f5"></rect><rect x="283.43" y="254.98" width="2.48" height="2.48" style="fill:#f5f5f5"></rect><rect x="279.5" y="209.27" width="2.48" height="2.48" style="fill:#f5f5f5"></rect><rect x="279.5" y="213.43" width="2.48" height="2.48" style="fill:#f5f5f5"></rect><rect x="279.5" y="217.58" width="2.48" height="2.48" style="fill:#f5f5f5"></rect><rect x="279.5" y="221.74" width="2.48" height="2.48" style="fill:#f5f5f5"></rect><rect x="279.5" y="225.9" width="2.48" height="2.48" style="fill:#f5f5f5"></rect><rect x="279.5" y="230.05" width="2.48" height="2.48" style="fill:#f5f5f5"></rect><rect x="279.5" y="234.21" width="2.48" height="2.48" style="fill:#f5f5f5"></rect><rect x="279.5" y="271.61" width="2.48" height="2.48" style="fill:#f5f5f5"></rect><rect x="275.56" y="209.27" width="2.48" height="2.48" style="fill:#f5f5f5"></rect><rect x="275.56" y="213.43" width="2.48" height="2.48" style="fill:#f5f5f5"></rect><rect x="275.56" y="217.58" width="2.48" height="2.48" style="fill:#f5f5f5"></rect><rect x="275.56" y="221.74" width="2.48" height="2.48" style="fill:#f5f5f5"></rect><rect x="275.56" y="225.9" width="2.48" height="2.48" style="fill:#f5f5f5"></rect><rect x="275.56" y="230.05" width="2.48" height="2.48" style="fill:#f5f5f5"></rect><rect x="275.56" y="234.21" width="2.48" height="2.48" style="fill:#f5f5f5"></rect><rect x="275.56" y="238.36" width="2.48" height="2.48" style="fill:#f5f5f5"></rect><rect x="275.56" y="263.29" width="2.48" height="2.48" style="fill:#f5f5f5"></rect><rect x="275.56" y="267.45" width="2.48" height="2.48" style="fill:#f5f5f5"></rect><rect x="275.56" y="271.61" width="2.48" height="2.48" style="fill:#f5f5f5"></rect><rect x="275.56" y="275.76" width="2.48" height="2.48" style="fill:#f5f5f5"></rect><rect x="275.56" y="292.38" width="2.48" height="2.48" style="fill:#f5f5f5"></rect><rect x="271.62" y="209.27" width="2.48" height="2.48" style="fill:#f5f5f5"></rect><rect x="271.62" y="213.43" width="2.48" height="2.48" style="fill:#f5f5f5"></rect><rect x="271.62" y="217.58" width="2.48" height="2.48" style="fill:#f5f5f5"></rect><rect x="271.62" y="221.74" width="2.48" height="2.48" style="fill:#f5f5f5"></rect><rect x="271.62" y="225.9" width="2.48" height="2.48" style="fill:#f5f5f5"></rect><rect x="271.62" y="230.05" width="2.48" height="2.48" style="fill:#f5f5f5"></rect><rect x="271.62" y="234.21" width="2.48" height="2.48" style="fill:#f5f5f5"></rect><rect x="271.62" y="238.36" width="2.48" height="2.48" style="fill:#f5f5f5"></rect><rect x="271.62" y="242.52" width="2.48" height="2.48" style="fill:#f5f5f5"></rect><rect x="271.62" y="246.67" width="2.48" height="2.48" style="fill:#f5f5f5"></rect><rect x="271.62" y="259.14" width="2.48" height="2.48" style="fill:#f5f5f5"></rect><rect x="271.62" y="263.29" width="2.48" height="2.48" style="fill:#f5f5f5"></rect><rect x="271.62" y="267.45" width="2.48" height="2.48" style="fill:#f5f5f5"></rect><rect x="271.62" y="271.61" width="2.48" height="2.48" style="fill:#f5f5f5"></rect><rect x="271.62" y="275.76" width="2.48" height="2.48" style="fill:#f5f5f5"></rect><rect x="271.62" y="292.38" width="2.48" height="2.48" style="fill:#f5f5f5"></rect><rect x="267.69" y="209.27" width="2.48" height="2.48" style="fill:#f5f5f5"></rect><rect x="267.69" y="213.43" width="2.48" height="2.48" style="fill:#f5f5f5"></rect><rect x="267.69" y="217.58" width="2.48" height="2.48" style="fill:#f5f5f5"></rect><rect x="267.69" y="221.74" width="2.48" height="2.48" style="fill:#f5f5f5"></rect><rect x="267.69" y="225.9" width="2.48" height="2.48" style="fill:#f5f5f5"></rect><rect x="267.69" y="230.05" width="2.48" height="2.48" style="fill:#f5f5f5"></rect><rect x="267.69" y="234.21" width="2.48" height="2.48" style="fill:#f5f5f5"></rect><rect x="267.69" y="238.36" width="2.48" height="2.48" style="fill:#f5f5f5"></rect><rect x="267.69" y="242.52" width="2.48" height="2.48" style="fill:#f5f5f5"></rect><rect x="267.69" y="246.67" width="2.48" height="2.48" style="fill:#f5f5f5"></rect><rect x="267.69" y="250.83" width="2.48" height="2.48" style="fill:#f5f5f5"></rect><rect x="267.69" y="254.98" width="2.48" height="2.48" style="fill:#f5f5f5"></rect><rect x="267.69" y="259.14" width="2.48" height="2.48" style="fill:#f5f5f5"></rect><rect x="267.69" y="263.29" width="2.48" height="2.48" style="fill:#f5f5f5"></rect><rect x="267.69" y="267.45" width="2.48" height="2.48" style="fill:#f5f5f5"></rect><rect x="267.69" y="271.61" width="2.48" height="2.48" style="fill:#f5f5f5"></rect><rect x="267.69" y="275.76" width="2.48" height="2.48" style="fill:#f5f5f5"></rect><rect x="267.69" y="279.92" width="2.48" height="2.48" style="fill:#f5f5f5"></rect><rect x="263.75" y="209.27" width="2.48" height="2.48" style="fill:#f5f5f5"></rect><rect x="263.75" y="213.43" width="2.48" height="2.48" style="fill:#f5f5f5"></rect><rect x="263.75" y="217.58" width="2.48" height="2.48" style="fill:#f5f5f5"></rect><rect x="263.75" y="221.74" width="2.48" height="2.48" style="fill:#f5f5f5"></rect><rect x="263.75" y="225.9" width="2.48" height="2.48" style="fill:#f5f5f5"></rect><rect x="263.75" y="230.05" width="2.48" height="2.48" style="fill:#f5f5f5"></rect><rect x="263.75" y="234.21" width="2.48" height="2.48" style="fill:#f5f5f5"></rect><rect x="263.75" y="238.36" width="2.48" height="2.48" style="fill:#f5f5f5"></rect><rect x="263.75" y="242.52" width="2.48" height="2.48" style="fill:#f5f5f5"></rect><rect x="263.75" y="246.67" width="2.48" height="2.48" style="fill:#f5f5f5"></rect><rect x="263.75" y="259.14" width="2.48" height="2.48" style="fill:#f5f5f5"></rect><rect x="263.75" y="263.29" width="2.48" height="2.48" style="fill:#f5f5f5"></rect><rect x="263.75" y="267.45" width="2.48" height="2.48" style="fill:#f5f5f5"></rect><rect x="263.75" y="271.61" width="2.48" height="2.48" style="fill:#f5f5f5"></rect><rect x="259.81" y="209.27" width="2.48" height="2.48" style="fill:#f5f5f5"></rect><rect x="259.81" y="213.43" width="2.48" height="2.48" style="fill:#f5f5f5"></rect><rect x="259.81" y="217.58" width="2.48" height="2.48" style="fill:#f5f5f5"></rect><rect x="259.81" y="221.74" width="2.48" height="2.48" style="fill:#f5f5f5"></rect><rect x="259.81" y="225.9" width="2.48" height="2.48" style="fill:#f5f5f5"></rect><rect x="259.81" y="230.05" width="2.48" height="2.48" style="fill:#f5f5f5"></rect><rect x="259.81" y="234.21" width="2.48" height="2.48" style="fill:#f5f5f5"></rect><rect x="259.81" y="238.36" width="2.48" height="2.48" style="fill:#f5f5f5"></rect><rect x="259.81" y="242.52" width="2.48" height="2.48" style="fill:#f5f5f5"></rect><rect x="259.81" y="246.67" width="2.48" height="2.48" style="fill:#f5f5f5"></rect><rect x="259.81" y="259.14" width="2.48" height="2.48" style="fill:#f5f5f5"></rect><rect x="259.81" y="263.29" width="2.48" height="2.48" style="fill:#f5f5f5"></rect><rect x="259.81" y="267.45" width="2.48" height="2.48" style="fill:#f5f5f5"></rect><rect x="215.49" y="198.48" width="2.48" height="2.48" style="fill:#f5f5f5"></rect><rect x="215.49" y="202.64" width="2.48" height="2.48" style="fill:#f5f5f5"></rect><rect x="215.49" y="206.8" width="2.48" height="2.48" style="fill:#f5f5f5"></rect><rect x="215.49" y="210.95" width="2.48" height="2.48" style="fill:#f5f5f5"></rect><rect x="215.49" y="215.11" width="2.48" height="2.48" style="fill:#f5f5f5"></rect><rect x="215.49" y="219.26" width="2.48" height="2.48" style="fill:#f5f5f5"></rect><rect x="215.49" y="223.42" width="2.48" height="2.48" style="fill:#f5f5f5"></rect><rect x="215.49" y="227.57" width="2.48" height="2.48" style="fill:#f5f5f5"></rect><rect x="215.49" y="240.04" width="2.48" height="2.48" style="fill:#f5f5f5"></rect><rect x="215.49" y="244.19" width="2.48" height="2.48" style="fill:#f5f5f5"></rect><rect x="211.55" y="198.48" width="2.48" height="2.48" style="fill:#f5f5f5"></rect><rect x="211.55" y="202.64" width="2.48" height="2.48" style="fill:#f5f5f5"></rect><rect x="211.55" y="206.8" width="2.48" height="2.48" style="fill:#f5f5f5"></rect><rect x="211.55" y="210.95" width="2.48" height="2.48" style="fill:#f5f5f5"></rect><rect x="211.55" y="215.11" width="2.48" height="2.48" style="fill:#f5f5f5"></rect><rect x="211.55" y="219.26" width="2.48" height="2.48" style="fill:#f5f5f5"></rect><rect x="211.55" y="223.42" width="2.48" height="2.48" style="fill:#f5f5f5"></rect><rect x="211.55" y="227.57" width="2.48" height="2.48" style="fill:#f5f5f5"></rect><rect x="211.55" y="244.19" width="2.48" height="2.48" style="fill:#f5f5f5"></rect><rect x="207.62" y="198.48" width="2.48" height="2.48" style="fill:#f5f5f5"></rect><rect x="207.62" y="202.64" width="2.48" height="2.48" style="fill:#f5f5f5"></rect><rect x="207.62" y="206.8" width="2.48" height="2.48" style="fill:#f5f5f5"></rect><rect x="207.62" y="210.95" width="2.48" height="2.48" style="fill:#f5f5f5"></rect><rect x="207.62" y="215.11" width="2.48" height="2.48" style="fill:#f5f5f5"></rect><rect x="207.62" y="219.26" width="2.48" height="2.48" style="fill:#f5f5f5"></rect><rect x="207.62" y="223.42" width="2.48" height="2.48" style="fill:#f5f5f5"></rect><rect x="207.62" y="227.57" width="2.48" height="2.48" style="fill:#f5f5f5"></rect><rect x="203.68" y="198.48" width="2.48" height="2.48" style="fill:#f5f5f5"></rect><rect x="203.68" y="202.64" width="2.48" height="2.48" style="fill:#f5f5f5"></rect><rect x="203.68" y="206.8" width="2.48" height="2.48" style="fill:#f5f5f5"></rect><rect x="203.68" y="210.95" width="2.48" height="2.48" style="fill:#f5f5f5"></rect><rect x="203.68" y="215.11" width="2.48" height="2.48" style="fill:#f5f5f5"></rect><rect x="203.68" y="219.26" width="2.48" height="2.48" style="fill:#f5f5f5"></rect><rect x="203.68" y="227.57" width="2.48" height="2.48" style="fill:#f5f5f5"></rect><rect x="203.68" y="231.73" width="2.48" height="2.48" style="fill:#f5f5f5"></rect><rect x="203.68" y="244.19" width="2.48" height="2.48" style="fill:#f5f5f5"></rect><rect x="203.68" y="248.35" width="2.48" height="2.48" style="fill:#f5f5f5"></rect><rect x="203.68" y="252.51" width="2.48" height="2.48" style="fill:#f5f5f5"></rect><rect x="203.68" y="256.66" width="2.48" height="2.48" style="fill:#f5f5f5"></rect><rect x="203.68" y="260.82" width="2.48" height="2.48" style="fill:#f5f5f5"></rect><rect x="203.68" y="264.97" width="2.48" height="2.48" style="fill:#f5f5f5"></rect><rect x="203.68" y="269.13" width="2.48" height="2.48" style="fill:#f5f5f5"></rect><rect x="199.74" y="198.48" width="2.48" height="2.48" style="fill:#f5f5f5"></rect><rect x="199.74" y="202.64" width="2.48" height="2.48" style="fill:#f5f5f5"></rect><rect x="199.74" y="206.8" width="2.48" height="2.48" style="fill:#f5f5f5"></rect><rect x="199.74" y="210.95" width="2.48" height="2.48" style="fill:#f5f5f5"></rect><rect x="199.74" y="215.11" width="2.48" height="2.48" style="fill:#f5f5f5"></rect><rect x="199.74" y="219.26" width="2.48" height="2.48" style="fill:#f5f5f5"></rect><rect x="199.74" y="231.73" width="2.48" height="2.48" style="fill:#f5f5f5"></rect><rect x="199.74" y="235.88" width="2.48" height="2.48" style="fill:#f5f5f5"></rect><rect x="199.74" y="240.04" width="2.48" height="2.48" style="fill:#f5f5f5"></rect><rect x="199.74" y="244.19" width="2.48" height="2.48" style="fill:#f5f5f5"></rect><rect x="199.74" y="248.35" width="2.48" height="2.48" style="fill:#f5f5f5"></rect><rect x="199.74" y="252.51" width="2.48" height="2.48" style="fill:#f5f5f5"></rect><rect x="199.74" y="256.66" width="2.48" height="2.48" style="fill:#f5f5f5"></rect><rect x="199.74" y="260.82" width="2.48" height="2.48" style="fill:#f5f5f5"></rect><rect x="199.74" y="264.97" width="2.48" height="2.48" style="fill:#f5f5f5"></rect><rect x="199.74" y="269.13" width="2.48" height="2.48" style="fill:#f5f5f5"></rect><rect x="199.74" y="273.28" width="2.48" height="2.48" style="fill:#f5f5f5"></rect><rect x="199.74" y="281.59" width="2.48" height="2.48" style="fill:#f5f5f5"></rect><rect x="195.81" y="198.48" width="2.48" height="2.48" style="fill:#f5f5f5"></rect><rect x="195.81" y="202.64" width="2.48" height="2.48" style="fill:#f5f5f5"></rect><rect x="195.81" y="206.8" width="2.48" height="2.48" style="fill:#f5f5f5"></rect><rect x="195.81" y="210.95" width="2.48" height="2.48" style="fill:#f5f5f5"></rect><rect x="195.81" y="215.11" width="2.48" height="2.48" style="fill:#f5f5f5"></rect><rect x="195.81" y="219.26" width="2.48" height="2.48" style="fill:#f5f5f5"></rect><rect x="195.81" y="231.73" width="2.48" height="2.48" style="fill:#f5f5f5"></rect><rect x="195.81" y="235.88" width="2.48" height="2.48" style="fill:#f5f5f5"></rect><rect x="195.81" y="240.04" width="2.48" height="2.48" style="fill:#f5f5f5"></rect><rect x="195.81" y="244.19" width="2.48" height="2.48" style="fill:#f5f5f5"></rect><rect x="195.81" y="256.66" width="2.48" height="2.48" style="fill:#f5f5f5"></rect><rect x="195.81" y="260.82" width="2.48" height="2.48" style="fill:#f5f5f5"></rect><rect x="195.81" y="264.97" width="2.48" height="2.48" style="fill:#f5f5f5"></rect><rect x="195.81" y="269.13" width="2.48" height="2.48" style="fill:#f5f5f5"></rect><rect x="195.81" y="273.28" width="2.48" height="2.48" style="fill:#f5f5f5"></rect><rect x="195.81" y="281.59" width="2.48" height="2.48" style="fill:#f5f5f5"></rect><rect x="195.81" y="285.75" width="2.48" height="2.48" style="fill:#f5f5f5"></rect><rect x="160.08" y="237.12" width="2.48" height="2.48" style="fill:#f5f5f5"></rect><rect x="160.08" y="241.28" width="2.48" height="2.48" style="fill:#f5f5f5"></rect><rect x="160.08" y="245.43" width="2.48" height="2.48" style="fill:#f5f5f5"></rect><rect x="160.08" y="249.59" width="2.48" height="2.48" style="fill:#f5f5f5"></rect><rect x="160.08" y="253.74" width="2.48" height="2.48" style="fill:#f5f5f5"></rect><rect x="160.08" y="257.9" width="2.48" height="2.48" style="fill:#f5f5f5"></rect><rect x="160.08" y="262.06" width="2.48" height="2.48" style="fill:#f5f5f5"></rect><rect x="160.08" y="274.52" width="2.48" height="2.48" style="fill:#f5f5f5"></rect><rect x="160.08" y="278.68" width="2.48" height="2.48" style="fill:#f5f5f5"></rect><rect x="160.08" y="282.83" width="2.48" height="2.48" style="fill:#f5f5f5"></rect><rect x="156.15" y="237.12" width="2.48" height="2.48" style="fill:#f5f5f5"></rect><rect x="156.15" y="241.28" width="2.48" height="2.48" style="fill:#f5f5f5"></rect><rect x="156.15" y="245.43" width="2.48" height="2.48" style="fill:#f5f5f5"></rect><rect x="156.15" y="249.59" width="2.48" height="2.48" style="fill:#f5f5f5"></rect><rect x="156.15" y="253.74" width="2.48" height="2.48" style="fill:#f5f5f5"></rect><rect x="156.15" y="257.9" width="2.48" height="2.48" style="fill:#f5f5f5"></rect><rect x="156.15" y="262.06" width="2.48" height="2.48" style="fill:#f5f5f5"></rect><rect x="152.21" y="237.12" width="2.48" height="2.48" style="fill:#f5f5f5"></rect><rect x="152.21" y="241.28" width="2.48" height="2.48" style="fill:#f5f5f5"></rect><rect x="152.21" y="245.43" width="2.48" height="2.48" style="fill:#f5f5f5"></rect><rect x="152.21" y="249.59" width="2.48" height="2.48" style="fill:#f5f5f5"></rect><rect x="152.21" y="253.74" width="2.48" height="2.48" style="fill:#f5f5f5"></rect><rect x="152.21" y="257.9" width="2.48" height="2.48" style="fill:#f5f5f5"></rect><rect x="152.21" y="262.06" width="2.48" height="2.48" style="fill:#f5f5f5"></rect><rect x="148.27" y="237.12" width="2.48" height="2.48" style="fill:#f5f5f5"></rect><rect x="148.27" y="241.28" width="2.48" height="2.48" style="fill:#f5f5f5"></rect><rect x="148.27" y="245.43" width="2.48" height="2.48" style="fill:#f5f5f5"></rect><rect x="148.27" y="249.59" width="2.48" height="2.48" style="fill:#f5f5f5"></rect><rect x="148.27" y="253.74" width="2.48" height="2.48" style="fill:#f5f5f5"></rect><rect x="148.27" y="257.9" width="2.48" height="2.48" style="fill:#f5f5f5"></rect><rect x="148.27" y="262.06" width="2.48" height="2.48" style="fill:#f5f5f5"></rect><rect x="148.27" y="266.21" width="2.48" height="2.48" style="fill:#f5f5f5"></rect><rect x="148.27" y="270.37" width="2.48" height="2.48" style="fill:#f5f5f5"></rect><rect x="148.27" y="274.52" width="2.48" height="2.48" style="fill:#f5f5f5"></rect><rect x="148.27" y="278.68" width="2.48" height="2.48" style="fill:#f5f5f5"></rect><rect x="144.34" y="237.12" width="2.48" height="2.48" style="fill:#f5f5f5"></rect><rect x="144.34" y="241.28" width="2.48" height="2.48" style="fill:#f5f5f5"></rect><rect x="144.34" y="245.43" width="2.48" height="2.48" style="fill:#f5f5f5"></rect><rect x="144.34" y="249.59" width="2.48" height="2.48" style="fill:#f5f5f5"></rect><rect x="144.34" y="253.74" width="2.48" height="2.48" style="fill:#f5f5f5"></rect><rect x="144.34" y="257.9" width="2.48" height="2.48" style="fill:#f5f5f5"></rect><rect x="144.34" y="262.06" width="2.48" height="2.48" style="fill:#f5f5f5"></rect><rect x="144.34" y="266.21" width="2.48" height="2.48" style="fill:#f5f5f5"></rect><rect x="144.34" y="270.37" width="2.48" height="2.48" style="fill:#f5f5f5"></rect><rect x="144.34" y="274.52" width="2.48" height="2.48" style="fill:#f5f5f5"></rect><rect x="144.34" y="278.68" width="2.48" height="2.48" style="fill:#f5f5f5"></rect><rect x="144.34" y="282.83" width="2.48" height="2.48" style="fill:#f5f5f5"></rect><rect x="144.34" y="295.3" width="2.48" height="2.48" style="fill:#f5f5f5"></rect><rect x="144.34" y="299.45" width="2.48" height="2.48" style="fill:#f5f5f5"></rect><rect x="140.4" y="237.12" width="2.48" height="2.48" style="fill:#f5f5f5"></rect><rect x="140.4" y="241.28" width="2.48" height="2.48" style="fill:#f5f5f5"></rect><rect x="140.4" y="245.43" width="2.48" height="2.48" style="fill:#f5f5f5"></rect><rect x="140.4" y="257.9" width="2.48" height="2.48" style="fill:#f5f5f5"></rect><rect x="140.4" y="262.06" width="2.48" height="2.48" style="fill:#f5f5f5"></rect><rect x="140.4" y="266.21" width="2.48" height="2.48" style="fill:#f5f5f5"></rect><rect x="140.4" y="270.37" width="2.48" height="2.48" style="fill:#f5f5f5"></rect><rect x="140.4" y="274.52" width="2.48" height="2.48" style="fill:#f5f5f5"></rect><rect x="140.4" y="278.68" width="2.48" height="2.48" style="fill:#f5f5f5"></rect><rect x="140.4" y="282.83" width="2.48" height="2.48" style="fill:#f5f5f5"></rect><rect x="140.4" y="295.3" width="2.48" height="2.48" style="fill:#f5f5f5"></rect><rect x="140.4" y="299.45" width="2.48" height="2.48" style="fill:#f5f5f5"></rect><rect x="140.4" y="303.61" width="2.48" height="2.48" style="fill:#f5f5f5"></rect><rect x="99.14" y="212.19" width="2.48" height="2.48" style="fill:#f5f5f5"></rect><rect x="99.14" y="216.35" width="2.48" height="2.48" style="fill:#f5f5f5"></rect><rect x="99.14" y="220.5" width="2.48" height="2.48" style="fill:#f5f5f5"></rect><rect x="99.14" y="224.66" width="2.48" height="2.48" style="fill:#f5f5f5"></rect><rect x="99.14" y="228.81" width="2.48" height="2.48" style="fill:#f5f5f5"></rect><rect x="99.14" y="232.97" width="2.48" height="2.48" style="fill:#f5f5f5"></rect><rect x="99.14" y="237.12" width="2.48" height="2.48" style="fill:#f5f5f5"></rect><rect x="99.14" y="241.28" width="2.48" height="2.48" style="fill:#f5f5f5"></rect><rect x="99.14" y="245.43" width="2.48" height="2.48" style="fill:#f5f5f5"></rect><rect x="99.14" y="249.59" width="2.48" height="2.48" style="fill:#f5f5f5"></rect><rect x="99.14" y="253.74" width="2.48" height="2.48" style="fill:#f5f5f5"></rect><rect x="99.14" y="257.9" width="2.48" height="2.48" style="fill:#f5f5f5"></rect><rect x="99.14" y="262.06" width="2.48" height="2.48" style="fill:#f5f5f5"></rect><rect x="99.14" y="266.21" width="2.48" height="2.48" style="fill:#f5f5f5"></rect><rect x="99.14" y="270.37" width="2.48" height="2.48" style="fill:#f5f5f5"></rect><rect x="99.14" y="274.52" width="2.48" height="2.48" style="fill:#f5f5f5"></rect><rect x="99.14" y="278.68" width="2.48" height="2.48" style="fill:#f5f5f5"></rect><rect x="99.14" y="282.83" width="2.48" height="2.48" style="fill:#f5f5f5"></rect><rect x="99.14" y="286.99" width="2.48" height="2.48" style="fill:#f5f5f5"></rect><rect x="99.14" y="291.14" width="2.48" height="2.48" style="fill:#f5f5f5"></rect><rect x="99.14" y="295.3" width="2.48" height="2.48" style="fill:#f5f5f5"></rect><rect x="99.14" y="299.45" width="2.48" height="2.48" style="fill:#f5f5f5"></rect><rect x="99.14" y="303.61" width="2.48" height="2.48" style="fill:#f5f5f5"></rect><rect x="95.2" y="212.19" width="2.48" height="2.48" style="fill:#f5f5f5"></rect><rect x="95.2" y="216.35" width="2.48" height="2.48" style="fill:#f5f5f5"></rect><rect x="95.2" y="220.5" width="2.48" height="2.48" style="fill:#f5f5f5"></rect><rect x="95.2" y="224.66" width="2.48" height="2.48" style="fill:#f5f5f5"></rect><rect x="95.2" y="228.81" width="2.48" height="2.48" style="fill:#f5f5f5"></rect><rect x="95.2" y="232.97" width="2.48" height="2.48" style="fill:#f5f5f5"></rect><rect x="95.2" y="237.12" width="2.48" height="2.48" style="fill:#f5f5f5"></rect><rect x="95.2" y="241.28" width="2.48" height="2.48" style="fill:#f5f5f5"></rect><rect x="95.2" y="245.43" width="2.48" height="2.48" style="fill:#f5f5f5"></rect><rect x="95.2" y="249.59" width="2.48" height="2.48" style="fill:#f5f5f5"></rect><rect x="95.2" y="253.74" width="2.48" height="2.48" style="fill:#f5f5f5"></rect><rect x="95.2" y="257.9" width="2.48" height="2.48" style="fill:#f5f5f5"></rect><rect x="95.2" y="262.06" width="2.48" height="2.48" style="fill:#f5f5f5"></rect><rect x="95.2" y="266.21" width="2.48" height="2.48" style="fill:#f5f5f5"></rect><rect x="95.2" y="270.37" width="2.48" height="2.48" style="fill:#f5f5f5"></rect><rect x="95.2" y="274.52" width="2.48" height="2.48" style="fill:#f5f5f5"></rect><rect x="95.2" y="278.68" width="2.48" height="2.48" style="fill:#f5f5f5"></rect><rect x="95.2" y="282.83" width="2.48" height="2.48" style="fill:#f5f5f5"></rect><rect x="95.2" y="286.99" width="2.48" height="2.48" style="fill:#f5f5f5"></rect><rect x="91.26" y="212.19" width="2.48" height="2.48" style="fill:#f5f5f5"></rect><rect x="91.26" y="216.35" width="2.48" height="2.48" style="fill:#f5f5f5"></rect><rect x="91.26" y="220.5" width="2.48" height="2.48" style="fill:#f5f5f5"></rect><rect x="91.26" y="224.66" width="2.48" height="2.48" style="fill:#f5f5f5"></rect><rect x="91.26" y="228.81" width="2.48" height="2.48" style="fill:#f5f5f5"></rect><rect x="91.26" y="232.97" width="2.48" height="2.48" style="fill:#f5f5f5"></rect><rect x="91.26" y="237.12" width="2.48" height="2.48" style="fill:#f5f5f5"></rect><rect x="91.26" y="241.28" width="2.48" height="2.48" style="fill:#f5f5f5"></rect><rect x="91.26" y="245.43" width="2.48" height="2.48" style="fill:#f5f5f5"></rect><rect x="91.26" y="249.59" width="2.48" height="2.48" style="fill:#f5f5f5"></rect><rect x="91.26" y="253.74" width="2.48" height="2.48" style="fill:#f5f5f5"></rect><rect x="91.26" y="257.9" width="2.48" height="2.48" style="fill:#f5f5f5"></rect><rect x="91.26" y="262.06" width="2.48" height="2.48" style="fill:#f5f5f5"></rect><rect x="91.26" y="266.21" width="2.48" height="2.48" style="fill:#f5f5f5"></rect><rect x="91.26" y="270.37" width="2.48" height="2.48" style="fill:#f5f5f5"></rect><rect x="91.26" y="274.52" width="2.48" height="2.48" style="fill:#f5f5f5"></rect><rect x="91.26" y="278.68" width="2.48" height="2.48" style="fill:#f5f5f5"></rect><rect x="91.26" y="282.83" width="2.48" height="2.48" style="fill:#f5f5f5"></rect><rect x="91.26" y="286.99" width="2.48" height="2.48" style="fill:#f5f5f5"></rect><rect x="87.33" y="212.19" width="2.48" height="2.48" style="fill:#f5f5f5"></rect><rect x="87.33" y="216.35" width="2.48" height="2.48" style="fill:#f5f5f5"></rect><rect x="87.33" y="220.5" width="2.48" height="2.48" style="fill:#f5f5f5"></rect><rect x="87.33" y="224.66" width="2.48" height="2.48" style="fill:#f5f5f5"></rect><rect x="87.33" y="228.81" width="2.48" height="2.48" style="fill:#f5f5f5"></rect><rect x="87.33" y="232.97" width="2.48" height="2.48" style="fill:#f5f5f5"></rect><rect x="87.33" y="237.12" width="2.48" height="2.48" style="fill:#f5f5f5"></rect><rect x="87.33" y="241.28" width="2.48" height="2.48" style="fill:#f5f5f5"></rect><rect x="87.33" y="245.43" width="2.48" height="2.48" style="fill:#f5f5f5"></rect><rect x="87.33" y="249.59" width="2.48" height="2.48" style="fill:#f5f5f5"></rect><rect x="87.33" y="253.74" width="2.48" height="2.48" style="fill:#f5f5f5"></rect><rect x="87.33" y="257.9" width="2.48" height="2.48" style="fill:#f5f5f5"></rect><rect x="87.33" y="262.06" width="2.48" height="2.48" style="fill:#f5f5f5"></rect><rect x="87.33" y="266.21" width="2.48" height="2.48" style="fill:#f5f5f5"></rect><rect x="87.33" y="270.37" width="2.48" height="2.48" style="fill:#f5f5f5"></rect><rect x="83.39" y="212.19" width="2.48" height="2.48" style="fill:#f5f5f5"></rect><rect x="83.39" y="216.35" width="2.48" height="2.48" style="fill:#f5f5f5"></rect><rect x="83.39" y="220.5" width="2.48" height="2.48" style="fill:#f5f5f5"></rect><rect x="83.39" y="224.66" width="2.48" height="2.48" style="fill:#f5f5f5"></rect><rect x="83.39" y="228.81" width="2.48" height="2.48" style="fill:#f5f5f5"></rect><rect x="83.39" y="232.97" width="2.48" height="2.48" style="fill:#f5f5f5"></rect><rect x="83.39" y="237.12" width="2.48" height="2.48" style="fill:#f5f5f5"></rect><rect x="83.39" y="241.28" width="2.48" height="2.48" style="fill:#f5f5f5"></rect><rect x="83.39" y="245.43" width="2.48" height="2.48" style="fill:#f5f5f5"></rect><rect x="83.39" y="249.59" width="2.48" height="2.48" style="fill:#f5f5f5"></rect><rect x="83.39" y="253.74" width="2.48" height="2.48" style="fill:#f5f5f5"></rect><rect x="83.39" y="257.9" width="2.48" height="2.48" style="fill:#f5f5f5"></rect><rect x="83.39" y="262.06" width="2.48" height="2.48" style="fill:#f5f5f5"></rect><rect x="79.45" y="212.19" width="2.48" height="2.48" style="fill:#f5f5f5"></rect><rect x="79.45" y="216.35" width="2.48" height="2.48" style="fill:#f5f5f5"></rect><rect x="79.45" y="220.5" width="2.48" height="2.48" style="fill:#f5f5f5"></rect><rect x="79.45" y="224.66" width="2.48" height="2.48" style="fill:#f5f5f5"></rect><rect x="79.45" y="228.81" width="2.48" height="2.48" style="fill:#f5f5f5"></rect><rect x="79.45" y="232.97" width="2.48" height="2.48" style="fill:#f5f5f5"></rect><rect x="79.45" y="237.12" width="2.48" height="2.48" style="fill:#f5f5f5"></rect><rect x="79.45" y="241.28" width="2.48" height="2.48" style="fill:#f5f5f5"></rect><rect x="79.45" y="245.43" width="2.48" height="2.48" style="fill:#f5f5f5"></rect><rect x="79.45" y="249.59" width="2.48" height="2.48" style="fill:#f5f5f5"></rect><rect x="79.45" y="253.74" width="2.48" height="2.48" style="fill:#f5f5f5"></rect><rect x="79.45" y="257.9" width="2.48" height="2.48" style="fill:#f5f5f5"></rect><rect x="305.3" y="210.95" width="2.48" height="2.48" style="fill:#f5f5f5"></rect><rect x="305.3" y="215.11" width="2.48" height="2.48" style="fill:#f5f5f5"></rect><rect x="305.3" y="219.26" width="2.48" height="2.48" style="fill:#f5f5f5"></rect><rect x="305.3" y="223.42" width="2.48" height="2.48" style="fill:#f5f5f5"></rect><rect x="305.3" y="227.57" width="2.48" height="2.48" style="fill:#f5f5f5"></rect><rect x="305.3" y="231.73" width="2.48" height="2.48" style="fill:#f5f5f5"></rect><rect x="305.3" y="235.88" width="2.48" height="2.48" style="fill:#f5f5f5"></rect><rect x="305.3" y="240.04" width="2.48" height="2.48" style="fill:#f5f5f5"></rect><rect x="305.3" y="244.19" width="2.48" height="2.48" style="fill:#f5f5f5"></rect><rect x="305.3" y="248.35" width="2.48" height="2.48" style="fill:#f5f5f5"></rect><rect x="305.3" y="252.51" width="2.48" height="2.48" style="fill:#f5f5f5"></rect><rect x="305.3" y="256.66" width="2.48" height="2.48" style="fill:#f5f5f5"></rect><rect x="305.3" y="260.82" width="2.48" height="2.48" style="fill:#f5f5f5"></rect><rect x="305.3" y="264.97" width="2.48" height="2.48" style="fill:#f5f5f5"></rect><rect x="305.3" y="269.13" width="2.48" height="2.48" style="fill:#f5f5f5"></rect><rect x="305.3" y="273.28" width="2.48" height="2.48" style="fill:#f5f5f5"></rect><rect x="305.3" y="298.21" width="2.48" height="2.48" style="fill:#f5f5f5"></rect><rect x="305.3" y="302.37" width="2.48" height="2.48" style="fill:#f5f5f5"></rect><rect x="301.37" y="210.95" width="2.48" height="2.48" style="fill:#f5f5f5"></rect><rect x="301.37" y="215.11" width="2.48" height="2.48" style="fill:#f5f5f5"></rect><rect x="301.37" y="219.26" width="2.48" height="2.48" style="fill:#f5f5f5"></rect><rect x="301.37" y="223.42" width="2.48" height="2.48" style="fill:#f5f5f5"></rect><rect x="301.37" y="227.57" width="2.48" height="2.48" style="fill:#f5f5f5"></rect><rect x="301.37" y="231.73" width="2.48" height="2.48" style="fill:#f5f5f5"></rect><rect x="301.37" y="235.88" width="2.48" height="2.48" style="fill:#f5f5f5"></rect><rect x="301.37" y="240.04" width="2.48" height="2.48" style="fill:#f5f5f5"></rect><rect x="301.37" y="244.19" width="2.48" height="2.48" style="fill:#f5f5f5"></rect><rect x="301.37" y="248.35" width="2.48" height="2.48" style="fill:#f5f5f5"></rect><rect x="301.37" y="252.51" width="2.48" height="2.48" style="fill:#f5f5f5"></rect><rect x="301.37" y="256.66" width="2.48" height="2.48" style="fill:#f5f5f5"></rect><rect x="301.37" y="260.82" width="2.48" height="2.48" style="fill:#f5f5f5"></rect><rect x="301.37" y="264.97" width="2.48" height="2.48" style="fill:#f5f5f5"></rect><rect x="301.37" y="269.13" width="2.48" height="2.48" style="fill:#f5f5f5"></rect><rect x="301.37" y="273.28" width="2.48" height="2.48" style="fill:#f5f5f5"></rect><rect x="301.37" y="281.59" width="2.48" height="2.48" style="fill:#f5f5f5"></rect><rect x="301.37" y="285.75" width="2.48" height="2.48" style="fill:#f5f5f5"></rect><rect x="301.37" y="289.9" width="2.48" height="2.48" style="fill:#f5f5f5"></rect><rect x="301.37" y="294.06" width="2.48" height="2.48" style="fill:#f5f5f5"></rect><rect x="301.37" y="302.37" width="2.48" height="2.48" style="fill:#f5f5f5"></rect><rect x="232.69" y="240.04" width="2.48" height="2.48" style="fill:#f5f5f5"></rect><rect x="232.69" y="244.19" width="2.48" height="2.48" style="fill:#f5f5f5"></rect><rect x="232.69" y="248.35" width="2.48" height="2.48" style="fill:#f5f5f5"></rect><rect x="232.69" y="252.51" width="2.48" height="2.48" style="fill:#f5f5f5"></rect><rect x="232.69" y="256.66" width="2.48" height="2.48" style="fill:#f5f5f5"></rect><rect x="232.69" y="260.82" width="2.48" height="2.48" style="fill:#f5f5f5"></rect><rect x="232.69" y="264.97" width="2.48" height="2.48" style="fill:#f5f5f5"></rect><rect x="232.69" y="269.13" width="2.48" height="2.48" style="fill:#f5f5f5"></rect><rect x="232.69" y="273.28" width="2.48" height="2.48" style="fill:#f5f5f5"></rect><rect x="232.69" y="277.44" width="2.48" height="2.48" style="fill:#f5f5f5"></rect><rect x="232.69" y="281.59" width="2.48" height="2.48" style="fill:#f5f5f5"></rect><rect x="232.69" y="285.75" width="2.48" height="2.48" style="fill:#f5f5f5"></rect><rect x="232.69" y="289.9" width="2.48" height="2.48" style="fill:#f5f5f5"></rect><rect x="232.69" y="298.21" width="2.48" height="2.48" style="fill:#f5f5f5"></rect><rect x="232.69" y="302.37" width="2.48" height="2.48" style="fill:#f5f5f5"></rect><rect x="232.69" y="306.53" width="2.48" height="2.48" style="fill:#f5f5f5"></rect><rect x="232.69" y="310.68" width="2.48" height="2.48" style="fill:#f5f5f5"></rect><rect x="232.69" y="318.99" width="2.48" height="2.48" style="fill:#f5f5f5"></rect><rect x="232.69" y="323.15" width="2.48" height="2.48" style="fill:#f5f5f5"></rect><rect x="232.69" y="327.3" width="2.48" height="2.48" style="fill:#f5f5f5"></rect><rect x="228.76" y="240.04" width="2.48" height="2.48" style="fill:#f5f5f5"></rect><rect x="228.76" y="244.19" width="2.48" height="2.48" style="fill:#f5f5f5"></rect><rect x="228.76" y="248.35" width="2.48" height="2.48" style="fill:#f5f5f5"></rect><rect x="228.76" y="252.51" width="2.48" height="2.48" style="fill:#f5f5f5"></rect><rect x="228.76" y="256.66" width="2.48" height="2.48" style="fill:#f5f5f5"></rect><rect x="228.76" y="260.82" width="2.48" height="2.48" style="fill:#f5f5f5"></rect><rect x="228.76" y="264.97" width="2.48" height="2.48" style="fill:#f5f5f5"></rect><rect x="228.76" y="269.13" width="2.48" height="2.48" style="fill:#f5f5f5"></rect><rect x="228.76" y="273.28" width="2.48" height="2.48" style="fill:#f5f5f5"></rect><rect x="228.76" y="277.44" width="2.48" height="2.48" style="fill:#f5f5f5"></rect><rect x="228.76" y="281.59" width="2.48" height="2.48" style="fill:#f5f5f5"></rect><rect x="228.76" y="285.75" width="2.48" height="2.48" style="fill:#f5f5f5"></rect><rect x="228.76" y="289.9" width="2.48" height="2.48" style="fill:#f5f5f5"></rect><rect x="228.76" y="302.37" width="2.48" height="2.48" style="fill:#f5f5f5"></rect><rect x="228.76" y="306.53" width="2.48" height="2.48" style="fill:#f5f5f5"></rect><rect x="228.76" y="314.84" width="2.48" height="2.48" style="fill:#f5f5f5"></rect><rect x="228.76" y="318.99" width="2.48" height="2.48" style="fill:#f5f5f5"></rect><rect x="228.76" y="323.15" width="2.48" height="2.48" style="fill:#f5f5f5"></rect><rect x="228.76" y="327.3" width="2.48" height="2.48" style="fill:#f5f5f5"></rect><rect x="224.82" y="240.04" width="2.48" height="2.48" style="fill:#f5f5f5"></rect><rect x="224.82" y="244.19" width="2.48" height="2.48" style="fill:#f5f5f5"></rect><rect x="224.82" y="248.35" width="2.48" height="2.48" style="fill:#f5f5f5"></rect><rect x="224.82" y="252.51" width="2.48" height="2.48" style="fill:#f5f5f5"></rect><rect x="224.82" y="256.66" width="2.48" height="2.48" style="fill:#f5f5f5"></rect><rect x="224.82" y="260.82" width="2.48" height="2.48" style="fill:#f5f5f5"></rect><rect x="224.82" y="264.97" width="2.48" height="2.48" style="fill:#f5f5f5"></rect><rect x="224.82" y="269.13" width="2.48" height="2.48" style="fill:#f5f5f5"></rect><rect x="224.82" y="273.28" width="2.48" height="2.48" style="fill:#f5f5f5"></rect><rect x="224.82" y="277.44" width="2.48" height="2.48" style="fill:#f5f5f5"></rect><rect x="224.82" y="281.59" width="2.48" height="2.48" style="fill:#f5f5f5"></rect><rect x="224.82" y="285.75" width="2.48" height="2.48" style="fill:#f5f5f5"></rect><rect x="224.82" y="289.9" width="2.48" height="2.48" style="fill:#f5f5f5"></rect><rect x="224.82" y="294.06" width="2.48" height="2.48" style="fill:#f5f5f5"></rect><rect x="224.82" y="302.37" width="2.48" height="2.48" style="fill:#f5f5f5"></rect><rect x="224.82" y="310.68" width="2.48" height="2.48" style="fill:#f5f5f5"></rect><rect x="224.82" y="314.84" width="2.48" height="2.48" style="fill:#f5f5f5"></rect><rect x="224.82" y="318.99" width="2.48" height="2.48" style="fill:#f5f5f5"></rect><rect x="224.82" y="323.15" width="2.48" height="2.48" style="fill:#f5f5f5"></rect><rect x="224.82" y="327.3" width="2.48" height="2.48" style="fill:#f5f5f5"></rect><rect x="248.73" y="263.73" width="2.48" height="2.48" style="fill:#f5f5f5"></rect><rect x="248.73" y="267.89" width="2.48" height="2.48" style="fill:#f5f5f5"></rect><rect x="248.73" y="272.04" width="2.48" height="2.48" style="fill:#f5f5f5"></rect><rect x="248.73" y="276.2" width="2.48" height="2.48" style="fill:#f5f5f5"></rect><rect x="248.73" y="280.35" width="2.48" height="2.48" style="fill:#f5f5f5"></rect><rect x="248.73" y="284.51" width="2.48" height="2.48" style="fill:#f5f5f5"></rect><rect x="248.73" y="296.98" width="2.48" height="2.48" style="fill:#f5f5f5"></rect><rect x="248.73" y="301.13" width="2.48" height="2.48" style="fill:#f5f5f5"></rect><rect x="248.73" y="305.29" width="2.48" height="2.48" style="fill:#f5f5f5"></rect><rect x="248.73" y="309.44" width="2.48" height="2.48" style="fill:#f5f5f5"></rect><rect x="248.73" y="313.6" width="2.48" height="2.48" style="fill:#f5f5f5"></rect><rect x="248.73" y="317.75" width="2.48" height="2.48" style="fill:#f5f5f5"></rect><rect x="248.73" y="321.91" width="2.48" height="2.48" style="fill:#f5f5f5"></rect><rect x="244.8" y="263.73" width="2.48" height="2.48" style="fill:#f5f5f5"></rect><rect x="244.8" y="267.89" width="2.48" height="2.48" style="fill:#f5f5f5"></rect><rect x="244.8" y="272.04" width="2.48" height="2.48" style="fill:#f5f5f5"></rect><rect x="244.8" y="276.2" width="2.48" height="2.48" style="fill:#f5f5f5"></rect><rect x="244.8" y="280.35" width="2.48" height="2.48" style="fill:#f5f5f5"></rect><rect x="244.8" y="284.51" width="2.48" height="2.48" style="fill:#f5f5f5"></rect><rect x="244.8" y="296.98" width="2.48" height="2.48" style="fill:#f5f5f5"></rect><rect x="244.8" y="301.13" width="2.48" height="2.48" style="fill:#f5f5f5"></rect><rect x="244.8" y="305.29" width="2.48" height="2.48" style="fill:#f5f5f5"></rect><rect x="244.8" y="309.44" width="2.48" height="2.48" style="fill:#f5f5f5"></rect><rect x="244.8" y="313.6" width="2.48" height="2.48" style="fill:#f5f5f5"></rect><rect x="244.8" y="317.75" width="2.48" height="2.48" style="fill:#f5f5f5"></rect><rect x="244.8" y="326.06" width="2.48" height="2.48" style="fill:#f5f5f5"></rect><rect x="114.01" y="245.43" width="2.48" height="2.48" style="fill:#f5f5f5"></rect><rect x="114.01" y="249.59" width="2.48" height="2.48" style="fill:#f5f5f5"></rect><rect x="114.01" y="253.74" width="2.48" height="2.48" style="fill:#f5f5f5"></rect><rect x="114.01" y="257.9" width="2.48" height="2.48" style="fill:#f5f5f5"></rect><rect x="114.01" y="262.06" width="2.48" height="2.48" style="fill:#f5f5f5"></rect><rect x="114.01" y="266.21" width="2.48" height="2.48" style="fill:#f5f5f5"></rect><rect x="114.01" y="270.37" width="2.48" height="2.48" style="fill:#f5f5f5"></rect><rect x="114.01" y="274.52" width="2.48" height="2.48" style="fill:#f5f5f5"></rect><rect x="114.01" y="278.68" width="2.48" height="2.48" style="fill:#f5f5f5"></rect><rect x="114.01" y="282.83" width="2.48" height="2.48" style="fill:#f5f5f5"></rect><rect x="114.01" y="286.99" width="2.48" height="2.48" style="fill:#f5f5f5"></rect><rect x="114.01" y="295.3" width="2.48" height="2.48" style="fill:#f5f5f5"></rect><rect x="114.01" y="299.45" width="2.48" height="2.48" style="fill:#f5f5f5"></rect><rect x="114.01" y="303.61" width="2.48" height="2.48" style="fill:#f5f5f5"></rect><rect x="114.01" y="307.77" width="2.48" height="2.48" style="fill:#f5f5f5"></rect><rect x="114.01" y="311.92" width="2.48" height="2.48" style="fill:#f5f5f5"></rect><rect x="114.01" y="316.08" width="2.48" height="2.48" style="fill:#f5f5f5"></rect><rect x="114.01" y="320.23" width="2.48" height="2.48" style="fill:#f5f5f5"></rect><rect x="114.01" y="324.39" width="2.48" height="2.48" style="fill:#f5f5f5"></rect><rect x="110.07" y="245.43" width="2.48" height="2.48" style="fill:#f5f5f5"></rect><rect x="110.07" y="249.59" width="2.48" height="2.48" style="fill:#f5f5f5"></rect><rect x="110.07" y="253.74" width="2.48" height="2.48" style="fill:#f5f5f5"></rect><rect x="110.07" y="257.9" width="2.48" height="2.48" style="fill:#f5f5f5"></rect><rect x="110.07" y="262.06" width="2.48" height="2.48" style="fill:#f5f5f5"></rect><rect x="110.07" y="266.21" width="2.48" height="2.48" style="fill:#f5f5f5"></rect><rect x="110.07" y="270.37" width="2.48" height="2.48" style="fill:#f5f5f5"></rect><rect x="110.07" y="274.52" width="2.48" height="2.48" style="fill:#f5f5f5"></rect><rect x="110.07" y="278.68" width="2.48" height="2.48" style="fill:#f5f5f5"></rect><rect x="110.07" y="282.83" width="2.48" height="2.48" style="fill:#f5f5f5"></rect><rect x="110.07" y="286.99" width="2.48" height="2.48" style="fill:#f5f5f5"></rect><rect x="110.07" y="291.14" width="2.48" height="2.48" style="fill:#f5f5f5"></rect><rect x="110.07" y="295.3" width="2.48" height="2.48" style="fill:#f5f5f5"></rect><rect x="110.07" y="299.45" width="2.48" height="2.48" style="fill:#f5f5f5"></rect><rect x="110.07" y="303.61" width="2.48" height="2.48" style="fill:#f5f5f5"></rect><rect x="110.07" y="307.77" width="2.48" height="2.48" style="fill:#f5f5f5"></rect><rect x="110.07" y="311.92" width="2.48" height="2.48" style="fill:#f5f5f5"></rect><rect x="110.07" y="316.08" width="2.48" height="2.48" style="fill:#f5f5f5"></rect><rect x="110.07" y="320.23" width="2.48" height="2.48" style="fill:#f5f5f5"></rect><rect x="110.07" y="324.39" width="2.48" height="2.48" style="fill:#f5f5f5"></rect><rect x="133.4" y="261.62" width="2.48" height="2.48" style="fill:#f5f5f5"></rect><rect x="133.4" y="265.77" width="2.48" height="2.48" style="fill:#f5f5f5"></rect><rect x="133.4" y="269.93" width="2.48" height="2.48" style="fill:#f5f5f5"></rect><rect x="133.4" y="274.08" width="2.48" height="2.48" style="fill:#f5f5f5"></rect><rect x="133.4" y="278.24" width="2.48" height="2.48" style="fill:#f5f5f5"></rect><rect x="133.4" y="282.4" width="2.48" height="2.48" style="fill:#f5f5f5"></rect><rect x="133.4" y="286.55" width="2.48" height="2.48" style="fill:#f5f5f5"></rect><rect x="133.4" y="290.71" width="2.48" height="2.48" style="fill:#f5f5f5"></rect><rect x="133.4" y="294.86" width="2.48" height="2.48" style="fill:#f5f5f5"></rect><rect x="133.4" y="299.02" width="2.48" height="2.48" style="fill:#f5f5f5"></rect><rect x="129.46" y="261.62" width="2.48" height="2.48" style="fill:#f5f5f5"></rect><rect x="129.46" y="265.77" width="2.48" height="2.48" style="fill:#f5f5f5"></rect><rect x="129.46" y="269.93" width="2.48" height="2.48" style="fill:#f5f5f5"></rect><rect x="129.46" y="274.08" width="2.48" height="2.48" style="fill:#f5f5f5"></rect><rect x="129.46" y="278.24" width="2.48" height="2.48" style="fill:#f5f5f5"></rect><rect x="129.46" y="282.4" width="2.48" height="2.48" style="fill:#f5f5f5"></rect><rect x="129.46" y="286.55" width="2.48" height="2.48" style="fill:#f5f5f5"></rect><rect x="129.46" y="290.71" width="2.48" height="2.48" style="fill:#f5f5f5"></rect><rect x="129.46" y="294.86" width="2.48" height="2.48" style="fill:#f5f5f5"></rect><rect x="151.2" y="134.66" width="4.16" height="201.76" style="fill:#ebebeb"></rect><rect x="229.46" y="134.66" width="4.16" height="201.76" style="fill:#ebebeb"></rect><rect x="307.73" y="134.66" width="4.44" height="201.76" style="fill:#ebebeb"></rect><rect x="335.36" y="133.36" width="92.32" height="248.84" style="fill:#ebebeb"></rect><rect x="343.51" y="160.73" width="21.25" height="92.85" style="fill:#fafafa"></rect><circle cx="346.47" cy="272.33" r="4.23" style="fill:#e0e0e0"></circle><rect x="363.8" y="116.3" width="35.44" height="8.36" style="fill:#f5f5f5"></rect><circle cx="191.12" cy="105.85" r="15.17" style="fill:#f0f0f0"></circle><circle cx="191.12" cy="105.85" r="12.9" transform="translate(56.02 277.54) rotate(-80.78)" style="fill:#fafafa"></circle><polyline points="190.51 97 190.51 106.02 184.53 102.64" style="fill:none;stroke:#e0e0e0;stroke-linecap:round;stroke-linejoin:round;stroke-width:2px"></polyline></g><g id="freepik--Shadow--inject-452"><ellipse id="freepik--path--inject-452" cx="250" cy="416.24" rx="193.89" ry="11.32" style="fill:#f5f5f5"></ellipse></g><g id="freepik--Plant--inject-452"><path d="M88.59,392.78s4.76-10.37-.67-20.58-7-12.63-3.54-14.72,5,8.17,5,8.17a23,23,0,0,0,.51-14.45c-2.41-7.39-3.92-19.43-.63-20.72s.63,15,3.48,20.58a48,48,0,0,0,2.8-12.13C96,333,95.35,323.51,98,321.08s4.26-.75,1.71,12.35a137.14,137.14,0,0,0-2.53,23.76s5.63-17.19,9.42-17.69,3.77,5.06.54,9.89-9.49,13.48-10.51,17.93c0,0,6.19-12.94,11.75-9s-4.84,11.77-9.48,14.59S91,393.46,91,393.46Z" style="fill:#407BFF"></path><path d="M88.59,392.78s4.76-10.37-.67-20.58-7-12.63-3.54-14.72,5,8.17,5,8.17a23,23,0,0,0,.51-14.45c-2.41-7.39-3.92-19.43-.63-20.72s.63,15,3.48,20.58a48,48,0,0,0,2.8-12.13C96,333,95.35,323.51,98,321.08s4.26-.75,1.71,12.35a137.14,137.14,0,0,0-2.53,23.76s5.63-17.19,9.42-17.69,3.77,5.06.54,9.89-9.49,13.48-10.51,17.93c0,0,6.19-12.94,11.75-9s-4.84,11.77-9.48,14.59S91,393.46,91,393.46Z" style="isolation:isolate;opacity:0.2"></path><path d="M92.34,397s-4.62-10.44.93-20.57,7.15-12.52,3.72-14.66-5.15,8.09-5.15,8.09a23.06,23.06,0,0,1-.33-14.46c2.49-7.35,4.15-19.37.87-20.71s-.8,15-3.72,20.53A47.8,47.8,0,0,1,86,343.08c-.32-5.94.41-15.41-2.16-17.88s-4.25-.81-1.86,12.32a136.7,136.7,0,0,1,2.25,23.79S78.81,344,75,343.48s-3.83,5-.65,9.89S83.7,367,84.67,371.45c0,0-6-13-11.65-9.15s4.71,11.85,9.31,14.74S90,397.68,90,397.68Z" style="fill:#407BFF"></path><polygon points="71.01 389.59 109.22 389.59 106.13 416.94 74.1 416.94 71.01 389.59" style="fill:#263238"></polygon></g><g id="freepik--Clipboard--inject-452"><path d="M125.6,416.93H296.67a4.63,4.63,0,0,0,4.69-5.21l-26-258.16a5.9,5.9,0,0,0-5.74-5.21H98.53a4.63,4.63,0,0,0-4.69,5.21l26,258.16A5.9,5.9,0,0,0,125.6,416.93Z" style="fill:#407BFF"></path><path d="M127.4,416.93H298.47a4.63,4.63,0,0,0,4.69-5.21l-26-258.16a5.9,5.9,0,0,0-5.74-5.21H100.33a4.63,4.63,0,0,0-4.68,5.21l26,258.16A5.9,5.9,0,0,0,127.4,416.93Z" style="fill:#407BFF"></path><path d="M127.4,416.93H298.47a4.63,4.63,0,0,0,4.69-5.21l-26-258.16a5.9,5.9,0,0,0-5.74-5.21H100.33a4.63,4.63,0,0,0-4.68,5.21l26,258.16A5.9,5.9,0,0,0,127.4,416.93Z" style="fill:#fff;opacity:0.4"></path><path d="M159.82,167.91h56a3.71,3.71,0,0,0,3.76-4.18l-1.57-15.53a.84.84,0,0,0-.82-.75h-62.9a.67.67,0,0,0-.68.75l1.57,15.53A4.73,4.73,0,0,0,159.82,167.91Z" style="fill:#263238"></path><path d="M181.29,144.54l.66,6.51h8.38l-.66-6.51a4.74,4.74,0,0,0-4.61-4.19A3.73,3.73,0,0,0,181.29,144.54Zm2.54.36a1.5,1.5,0,0,1,1.52-1.7,1.92,1.92,0,0,1,1.86,1.7,1.5,1.5,0,0,1-1.52,1.69A1.91,1.91,0,0,1,183.83,144.9Z" style="fill:#263238"></path><path d="M159.82,167.91h56a3.71,3.71,0,0,0,3.76-4.18l-1.57-15.53a.84.84,0,0,0-.82-.75h-62.9a.67.67,0,0,0-.68.75l1.57,15.53A4.73,4.73,0,0,0,159.82,167.91Z" style="fill:#fff;opacity:0.2"></path><polygon points="273.42 156.76 103.67 156.76 128.25 409.31 298 409.31 273.42 156.76" style="fill:#fff"></polygon><path d="M141.23,179.52h1.41l.74,7.56H142Z"></path><path d="M150.66,183.78l.32,3.3h-1.35l-.31-3.13c-.1-1-.65-1.52-1.52-1.52s-1.55.58-1.44,1.74l.28,2.91h-1.35l-.56-5.76H146l.07.74a2.28,2.28,0,0,1,1.91-.81A2.53,2.53,0,0,1,150.66,183.78Z"></path><path d="M153.6,181l0,.35h1.59l.1,1.08h-1.55l.46,4.64h-1.36l-.45-4.64h-1l-.11-1.08h1l0-.37a1.67,1.67,0,0,1,1.87-2,2.31,2.31,0,0,1,1.26.31l-.28,1a1.45,1.45,0,0,0-.77-.23C153.8,180.09,153.54,180.4,153.6,181Z"></path><path d="M155.85,184.2a2.59,2.59,0,0,1,2.78-2.95A3.25,3.25,0,0,1,162,184.2a2.6,2.6,0,0,1-2.79,3A3.27,3.27,0,0,1,155.85,184.2Zm4.79,0a1.89,1.89,0,0,0-1.89-1.8,1.5,1.5,0,0,0-1.54,1.8,1.89,1.89,0,0,0,1.89,1.8A1.5,1.5,0,0,0,160.64,184.2Z"></path><path d="M166.36,181.25l.12,1.29a2,2,0,0,0-.32,0c-1,0-1.61.61-1.5,1.79l.27,2.79h-1.35l-.56-5.76h1.29l.08.84A2,2,0,0,1,166.36,181.25Z"></path><path d="M177.41,183.78l.32,3.3h-1.35l-.31-3.13c-.1-1-.62-1.52-1.44-1.52s-1.45.58-1.34,1.73l.29,2.92h-1.36l-.3-3.13c-.1-1-.63-1.52-1.45-1.52s-1.44.58-1.33,1.73l.28,2.92h-1.35l-.56-5.76h1.29l.07.73a2.15,2.15,0,0,1,1.81-.8,2.41,2.41,0,0,1,2,1,2.44,2.44,0,0,1,2.07-1A2.49,2.49,0,0,1,177.41,183.78Z"></path><path d="M184.68,184.63h-4.53a2,2,0,0,0,2,1.38,1.86,1.86,0,0,0,1.5-.62l.81.83a2.64,2.64,0,0,1-2.23.94,3.28,3.28,0,0,1-3.48-3,2.56,2.56,0,0,1,2.7-2.95,3.17,3.17,0,0,1,3.21,3C184.68,184.34,184.68,184.5,184.68,184.63Zm-4.63-.89h3.28a1.77,1.77,0,0,0-1.77-1.41A1.42,1.42,0,0,0,180.05,183.74Z"></path><path d="M191.12,179.07l.78,8h-1.3l-.07-.74a2.17,2.17,0,0,1-1.84.82,3.17,3.17,0,0,1-3.21-3,2.51,2.51,0,0,1,2.64-2.95,2.59,2.59,0,0,1,1.93.78l-.28-3Zm-.83,5.13a1.89,1.89,0,0,0-1.9-1.8,1.5,1.5,0,0,0-1.54,1.8,1.89,1.89,0,0,0,1.89,1.8A1.51,1.51,0,0,0,190.29,184.2Z"></path><path d="M195.88,183.3a3.44,3.44,0,0,1,3.68-3.88,4.25,4.25,0,0,1,3.12,1.26l-.83.85a3,3,0,0,0-2.11-.88,2.31,2.31,0,0,0-2.45,2.65,2.91,2.91,0,0,0,3,2.66,2.35,2.35,0,0,0,1.93-.9l1,.87a3.49,3.49,0,0,1-2.89,1.26A4.33,4.33,0,0,1,195.88,183.3Z"></path><path d="M203.55,184.2a2.59,2.59,0,0,1,2.78-2.95,3.26,3.26,0,0,1,3.37,2.95,2.6,2.6,0,0,1-2.79,3A3.27,3.27,0,0,1,203.55,184.2Zm4.79,0a1.89,1.89,0,0,0-1.9-1.8,1.5,1.5,0,0,0-1.53,1.8,1.88,1.88,0,0,0,1.88,1.8A1.5,1.5,0,0,0,208.34,184.2Z"></path><path d="M216.65,183.78l.32,3.3h-1.35l-.31-3.13c-.1-1-.65-1.52-1.52-1.52s-1.55.58-1.44,1.74l.28,2.91h-1.35l-.56-5.76H212l.07.74a2.28,2.28,0,0,1,1.91-.81A2.53,2.53,0,0,1,216.65,183.78Z"></path><path d="M218,186.51l.42-1a4.26,4.26,0,0,0,2.07.57c.86,0,1.19-.24,1.15-.64-.11-1.1-3.58-.06-3.8-2.36-.11-1.1.81-1.81,2.37-1.81a5,5,0,0,1,2.21.5l-.42,1a3.43,3.43,0,0,0-1.7-.43c-.82,0-1.18.27-1.15.65.12,1.17,3.59.13,3.81,2.39.1,1.08-.83,1.78-2.45,1.78A4.94,4.94,0,0,1,218,186.51Z"></path><path d="M229.43,184.63H224.9a2,2,0,0,0,2,1.38,1.88,1.88,0,0,0,1.51-.62l.81.83a2.65,2.65,0,0,1-2.24.94,3.3,3.3,0,0,1-3.48-3,2.57,2.57,0,0,1,2.7-2.95,3.16,3.16,0,0,1,3.21,3C229.42,184.34,229.43,184.5,229.43,184.63Zm-4.63-.89h3.28a1.77,1.77,0,0,0-1.77-1.41A1.42,1.42,0,0,0,224.8,183.74Z"></path><path d="M236.36,183.78l.32,3.3h-1.35L235,184c-.1-1-.66-1.52-1.52-1.52s-1.56.58-1.44,1.74l.28,2.91H231l-.56-5.76h1.28l.08.74a2.26,2.26,0,0,1,1.91-.81A2.53,2.53,0,0,1,236.36,183.78Z"></path><path d="M241.84,186.77a2.2,2.2,0,0,1-3.44-1.56l-.27-2.77h-.95l-.11-1.08h1l-.13-1.32h1.36l.13,1.32h1.54l.11,1.08h-1.55l.27,2.74a.84.84,0,0,0,.88.87,1.15,1.15,0,0,0,.74-.24Z"></path><line x1="111.36" y1="203.31" x2="274.79" y2="203.31" style="stroke:#000;stroke-miterlimit:10;opacity:0.30000000000000004"></line><polygon points="264.28 221.26 125.37 221.26 124.63 213.72 263.55 213.72 264.28 221.26" style="opacity:0.30000000000000004"></polygon><g style="opacity:0.30000000000000004"><path d="M265.29,233.09H140a1.46,1.46,0,1,1,0-2.91H265.29a1.46,1.46,0,1,1,0,2.91Z"></path></g><g style="opacity:0.30000000000000004"><path d="M266,240.36H127.08a1.46,1.46,0,0,1,0-2.92H266a1.46,1.46,0,0,1,0,2.92Z"></path></g><g style="opacity:0.30000000000000004"><path d="M266.7,247.62H127.79a1.46,1.46,0,1,1,0-2.92H266.7a1.46,1.46,0,1,1,0,2.92Z"></path></g><g style="opacity:0.30000000000000004"><path d="M267.41,254.88H128.5a1.46,1.46,0,1,1,0-2.92H267.41a1.46,1.46,0,0,1,0,2.92Z"></path></g><g style="opacity:0.30000000000000004"><path d="M268.12,262.14H129.2a1.46,1.46,0,0,1,0-2.91H268.12a1.46,1.46,0,0,1,0,2.91Z"></path></g><g style="opacity:0.30000000000000004"><path d="M268.82,269.4H129.91a1.46,1.46,0,1,1,0-2.91H268.82a1.46,1.46,0,1,1,0,2.91Z"></path></g><g style="opacity:0.30000000000000004"><path d="M255.93,276.66H130.62a1.46,1.46,0,1,1,0-2.91H255.93a1.46,1.46,0,1,1,0,2.91Z"></path></g><polygon points="271.83 298.88 132.92 298.88 132.19 291.34 271.1 291.34 271.83 298.88" style="opacity:0.30000000000000004"></polygon><g style="opacity:0.30000000000000004"><path d="M272.84,310.72H147.53a1.46,1.46,0,1,1,0-2.91H272.84a1.46,1.46,0,1,1,0,2.91Z"></path></g><g style="opacity:0.30000000000000004"><path d="M273.55,318H134.64a1.46,1.46,0,1,1,0-2.91H273.55a1.46,1.46,0,1,1,0,2.91Z"></path></g><g style="opacity:0.30000000000000004"><path d="M274.26,325.24H135.34a1.46,1.46,0,0,1,0-2.91H274.26a1.46,1.46,0,0,1,0,2.91Z"></path></g><g style="opacity:0.30000000000000004"><path d="M275,332.5H136.05a1.46,1.46,0,0,1,0-2.91H275a1.46,1.46,0,1,1,0,2.91Z"></path></g><g style="opacity:0.30000000000000004"><path d="M203.79,339.76h-67a1.46,1.46,0,1,1,0-2.91h67a1.46,1.46,0,1,1,0,2.91Z"></path></g><g style="opacity:0.30000000000000004"><rect x="181.09" y="381.74" width="51.26" height="0.97"></rect></g><path d="M182.88,365.06a4.81,4.81,0,0,0-.82-.74,1.09,1.09,0,0,0,.08.15c.33.66.62,1.33.88,2a1.93,1.93,0,0,0,.16-.94A1.22,1.22,0,0,0,182.88,365.06Z" style="fill:none"></path><path d="M176.35,375.42a.56.56,0,0,0,0-.08l-.17-.18s0-.08-.06-.11a.14.14,0,0,1,0-.06c0-.12,0-.24,0-.36.15-1.17.18-2.37.26-3.56l3.66-1.52a18.69,18.69,0,0,0-1.35-3.64,19.35,19.35,0,0,0-2.11-3.33l-17,7.07h0a1.27,1.27,0,0,1-.35.88c-.26.19-.77,0-.79-.28l-.31.29a1.46,1.46,0,0,1-.36.34l.36-.34a2.23,2.23,0,0,0,.24-.4l-11.44,4.75a17.93,17.93,0,0,0,1.35,3.65,19.27,19.27,0,0,0,2.11,3.32l3.91-1.62a.4.4,0,0,1-.09-.23c-.1-1.28,3.43-2.27,4.34-2.63a1.41,1.41,0,0,1,1.43,0c-.2.29-.59.37-.91.54a3.69,3.69,0,0,0-.78.65l16.3-6.77a8.75,8.75,0,0,0,.22,1.92c.08.39.15.84.28,1.26a8.73,8.73,0,0,1-.21,1,.14.14,0,0,0,0,.07L168,378.9h0a.3.3,0,0,1,.09.38.82.82,0,0,1-.32.26c-.71.37-3.11,2-3.87,1.41a8.14,8.14,0,0,1,.67-.64L153.39,385c5.08,4.13,12,5.56,17.93,3.09a12.19,12.19,0,0,0,1.21-.57c0-.13,0-.26.05-.39v-.67a2.46,2.46,0,0,1,1-.54c-.08.37-.13.75-.2,1.13a15.17,15.17,0,0,0,7.19-13.33Z" style="fill:none"></path><path d="M145.06,382.25c0-.28-.07-.6-.11-1a3.23,3.23,0,0,1,.05-.88c-.08-.14-.16-.26-.23-.4a21.73,21.73,0,0,1-2.3-10.78l-.14.07a.33.33,0,0,1-.38,0,.42.42,0,0,1-.09-.19,5.11,5.11,0,0,1,.1-2.52l.11-.32a1,1,0,0,1,.43-.3.46.46,0,0,1,.38.05,18.83,18.83,0,0,1,3.19-7.16c.33-1.4.88-2.74,1.85-2.89a2.89,2.89,0,0,0-.14.92,18.16,18.16,0,0,1,6-4.06c9.22-3.83,20.36,0,26.42,8.5a1,1,0,0,1,.3,0c1.15.11,2.34,2.72,2.87,3.57.42.69.86,1.57.46,2.2a.48.48,0,0,1-.44.26.52.52,0,0,1-.13-.06,20.1,20.1,0,0,1-1.62,17.09,5.93,5.93,0,0,1,.13,2.76c4.83-6.17,5.82-15.1,1.77-23.23-5.73-11.53-19.41-17.16-30.5-12.55s-15.45,17.72-9.72,29.25a25.64,25.64,0,0,0,1.71,2.92,4.08,4.08,0,0,0,0-.92Z" style="fill:none"></path><path d="M158.52,392c0,.29-.32.52-.64.57a2.45,2.45,0,0,1-2-.69l-.55-.51a11.45,11.45,0,0,1,1.55,0,24,24,0,0,1-11.69-10.64,6.24,6.24,0,0,0-.1,1.56q0,.18,0,.33a11,11,0,0,0,.2,1.26c6.49,9.28,18.57,13.43,28.56,9.29a19.56,19.56,0,0,0,7.3-5.25c0-.27,0-.54,0-.8,0-.62,0-1.39.08-2.08a18.15,18.15,0,0,1-8.13,6.65A20.77,20.77,0,0,1,158.52,392Z" style="fill:none"></path><path d="M149.85,369.19l.58-1a1,1,0,0,1,1-.3,4.55,4.55,0,0,0,1.1.1,1.46,1.46,0,0,1,.55-.06l0,.05,9.6-4a.25.25,0,0,1,0,.09l0,.08h0a1.77,1.77,0,0,1,.08.4.55.55,0,0,0,.71.4,2.92,2.92,0,0,0,1.29-1.33l.21-.37a1.88,1.88,0,0,0,.21-.36l8.32-3.46a19.9,19.9,0,0,0-3.79-2.41.89.89,0,0,0-.12-.39,1,1,0,0,0-.23-.28c-.06.39-.12.77-.21,1.16l-.5.1a1,1,0,0,1-.33-.94,1.41,1.41,0,0,1,.16-.49.88.88,0,0,0-.29.18,16.94,16.94,0,0,0-12.62,0,15.1,15.1,0,0,0-9.25,14.37l4.17-1.73A.64.64,0,0,0,149.85,369.19Z" style="fill:none"></path><path d="M187.05,378.7c0-.29.1-.58.13-.87a11.35,11.35,0,0,1,0-1.17,1.66,1.66,0,0,1,.8-1.17,25.47,25.47,0,0,0-2.71-12.33,28.05,28.05,0,0,0-15.7-13.89,3.88,3.88,0,0,0-.22.46c-.17.51-1,.28-.95-.26a1.74,1.74,0,0,0-.1-.61,24.15,24.15,0,0,0-16.17.67,21.89,21.89,0,0,0-2.9,1.47c0,.41.07.81.11,1.22a1.91,1.91,0,0,1-1-.65c-9.17,6.17-12.27,18.63-6.75,29.73a27.87,27.87,0,0,0,2.85,4.55,3.72,3.72,0,0,1,.3-1.37,4.93,4.93,0,0,0,.29-1,25.64,25.64,0,0,1-1.71-2.92c-5.73-11.53-1.37-24.65,9.72-29.25s24.77,1,30.5,12.55c4.05,8.13,3.06,17.06-1.77,23.23a4.75,4.75,0,0,0,0,.6c0,.49,0,1,0,1.48s0,.69,0,1a21.76,21.76,0,0,0,5.75-10.71h-.11A1,1,0,0,1,187.05,378.7Z" style="fill:#407BFF"></path><path d="M173.85,393.13c-10,4.14-22.07,0-28.56-9.29.11.55.24,1.11.37,1.65a2.69,2.69,0,0,1-.17,1.62,28,28,0,0,0,12.16,8.18,1.64,1.64,0,0,1,.74-.49,3,3,0,0,1,1.16,0,.56.56,0,0,1,.31.09.72.72,0,0,1,.22.29c.15.32.31.63.47,1a23.8,23.8,0,0,0,14.19-1.17,21.38,21.38,0,0,0,6.49-4.19c-.06-1-.09-1.91-.08-2.86A19.56,19.56,0,0,1,173.85,393.13Z" style="fill:#407BFF"></path><path d="M183.28,367.26a.74.74,0,0,1-.27-.76v0c-.26-.68-.55-1.35-.88-2a1.09,1.09,0,0,1-.08-.15l-.06,0a2.27,2.27,0,0,1-.81-.72,4.62,4.62,0,0,0-.39-.91c-.16-.22-.55-.1-.7-.32-.33-.48-.29-.92.12-1-6.06-8.52-17.2-12.33-26.42-8.5a18.16,18.16,0,0,0-6,4.06,4.48,4.48,0,0,1-.05.73,3,3,0,0,1-.75,1.23,6.82,6.82,0,0,0-1.41,2.85c.11-.62.24-1.75.5-2.84a18.83,18.83,0,0,0-3.19,7.16.34.34,0,0,1,.12.12.73.73,0,0,1,0,.44,2.58,2.58,0,0,0,.13,1.13,1.73,1.73,0,0,1,.15.49c0,.49-.39.81-.83,1a21.73,21.73,0,0,0,2.3,10.78c.07.14.15.26.23.4l.06-.42c.08-.41.16-.82.23-1.23a2.3,2.3,0,0,1-.09,1.76c0,.07,0,.13,0,.19a24,24,0,0,0,11.69,10.64c.31,0,.62,0,.93.08s.62.12.73.39c0,.05,0,.11,0,.16a20.77,20.77,0,0,0,14.59-.31,18.15,18.15,0,0,0,8.13-6.65,4.21,4.21,0,0,1,.15-.92.64.64,0,0,1,.27.27A20.1,20.1,0,0,0,183.28,367.26Zm-27.69-10.85a16.94,16.94,0,0,1,12.62,0,.88.88,0,0,1,.29-.18c.06-.14.14-.27.21-.4.18-.31.43-.65.8-.6,0,.39-.07.78-.13,1.17a1,1,0,0,1,.23.28.89.89,0,0,1,.12.39,19.9,19.9,0,0,1,3.79,2.41L165.2,363a1.88,1.88,0,0,1-.21.36l-.21.37a2.92,2.92,0,0,1-1.29,1.33.55.55,0,0,1-.71-.4,1.77,1.77,0,0,0-.08-.4h0l0-.08a.25.25,0,0,0,0-.09l-9.6,4c-.45.62-1,1.27-1.84,1.18-.21,0-.44-.1-.67-.14l-4.17,1.73A15.1,15.1,0,0,1,155.59,356.41ZM173.37,387c0,.27-.1.55-.14.82a3.71,3.71,0,0,1-.94,2.48c0-.95.12-1.9.24-2.83a12.19,12.19,0,0,1-1.21.57c-5.94,2.47-12.85,1-17.93-3.09l11.15-4.63,1.05-.9a2.73,2.73,0,0,1,.75-.5,2.94,2.94,0,0,1,1.45-.06.47.47,0,0,1,.17,0l6.86-2.84a.14.14,0,0,1,0-.07,8.73,8.73,0,0,0,.21-1c-.13-.42-.2-.87-.28-1.26a8.75,8.75,0,0,1-.22-1.92l-16.3,6.77-.16.16c-.48.44-3.32,2.18-3.83,1.5l-3.91,1.62a19.27,19.27,0,0,1-2.11-3.32,17.93,17.93,0,0,1-1.35-3.65l11.44-4.75c.27-.54.46-1.17,1-1.36a.94.94,0,0,1,.19.86l17-7.07a19.35,19.35,0,0,1,2.11,3.33,18.69,18.69,0,0,1,1.35,3.64l-3.66,1.52c-.08,1.19-.11,2.39-.26,3.56,0,.12,0,.24,0,.36a.14.14,0,0,0,0,.06s.09.15.06.11l.17.18a.56.56,0,0,1,0,.08l4.21-1.75A15.17,15.17,0,0,1,173.37,387Z" style="fill:#407BFF"></path><path d="M191.17,371.4c5.64-3.26,10,10.42.36,18.44s-23,1.51-15.9-14.41,21.43-16.5,26.32-11.7,3.72,16.51.2,15.92,3.09-11.7,8-10.93,3.86,12,1,10.78,2.71-7.72,6.57-7.52,2.86,7.75.73,7.52,1.7-6.18,10-5.8" style="fill:none;stroke:#000;stroke-miterlimit:10"></path><path d="M214.23,164.08H191.54a.9.9,0,0,1-.89-.76,3.84,3.84,0,0,0-3.69-3.18,2.81,2.81,0,0,0-2.87,3,.87.87,0,0,1-.25.65.9.9,0,0,1-.65.28H160.5a.91.91,0,0,1-.9-.81L158.47,152a.88.88,0,0,1,.23-.69.89.89,0,0,1,.67-.3H213.1a.89.89,0,0,1,.89.81l1.14,11.24a.89.89,0,0,1-.9,1Zm-22-1.8h21l-.95-9.44H160.36l.95,9.44h21a4.58,4.58,0,0,1,1.23-2.53,4.66,4.66,0,0,1,3.39-1.41A5.7,5.7,0,0,1,192.25,162.28Z" style="fill:#263238"></path><g style="opacity:0.6000000000000001"><path d="M214.23,164.08H191.54a.9.9,0,0,1-.89-.76,3.84,3.84,0,0,0-3.69-3.18,2.81,2.81,0,0,0-2.87,3,.87.87,0,0,1-.25.65.9.9,0,0,1-.65.28H160.5a.91.91,0,0,1-.9-.81L158.47,152a.88.88,0,0,1,.23-.69.89.89,0,0,1,.67-.3H213.1a.89.89,0,0,1,.89.81l1.14,11.24a.89.89,0,0,1-.9,1Zm-22-1.8h21l-.95-9.44H160.36l.95,9.44h21a4.58,4.58,0,0,1,1.23-2.53,4.66,4.66,0,0,1,3.39-1.41A5.7,5.7,0,0,1,192.25,162.28Z" style="fill:#fff"></path></g><path d="M163.61,152a1.47,1.47,0,0,0-.71-1.22h46.87a1.47,1.47,0,0,1,.71,1.22c.09,1-.47,1.23-.47,1.23H163.14S163.7,153,163.61,152Z" style="fill:#263238"></path><path d="M163.61,152a1.47,1.47,0,0,0-.71-1.22h46.87a1.47,1.47,0,0,1,.71,1.22c.09,1-.47,1.23-.47,1.23H163.14S163.7,153,163.61,152Z" style="fill:#fff;opacity:0.30000000000000004"></path></g><g id="freepik--Arrow--inject-452"><polygon points="243.15 345.4 218.69 363.26 243.15 381.11 243.15 375.21 304.93 375.21 304.93 351.3 243.15 351.3 243.15 345.4" style="fill:#407BFF"></polygon><path d="M249.3,365.36l.43-1a3.7,3.7,0,0,0,2.22.74c1.05,0,1.49-.37,1.49-.87,0-1.45-4-.5-4-3,0-1.08.87-2,2.71-2a4.18,4.18,0,0,1,2.24.6l-.39,1a3.71,3.71,0,0,0-1.85-.53c-1,0-1.47.4-1.47.91,0,1.44,4,.5,4,3,0,1.08-.87,2-2.72,2A4.33,4.33,0,0,1,249.3,365.36Z" style="fill:#fff"></path><path d="M255.64,359.37a.72.72,0,0,1,.76-.72.71.71,0,0,1,.77.69.74.74,0,0,1-.77.75A.73.73,0,0,1,255.64,359.37Zm.16,1.56H257v5.14h-1.2Z" style="fill:#fff"></path><path d="M263.67,360.93v4.36c0,1.86-1,2.71-2.77,2.71a4.1,4.1,0,0,1-2.5-.73l.54-.9a3.13,3.13,0,0,0,1.9.61c1.13,0,1.63-.52,1.63-1.56v-.27a2.23,2.23,0,0,1-1.72.69,2.48,2.48,0,1,1,0-5,2.24,2.24,0,0,1,1.78.74v-.69Zm-1.18,2.42a1.56,1.56,0,0,0-3.12,0,1.56,1.56,0,0,0,3.12,0Z" style="fill:#fff"></path><path d="M270.31,363.13v2.94H269.1v-2.79c0-.91-.45-1.36-1.22-1.36a1.37,1.37,0,0,0-1.43,1.55v2.6h-1.2v-5.14h1.14v.67a2.25,2.25,0,0,1,1.77-.72A2,2,0,0,1,270.31,363.13Z" style="fill:#fff"></path><path d="M279.54,363.13v2.94h-1.2v-2.79c0-.91-.45-1.36-1.22-1.36a1.37,1.37,0,0,0-1.43,1.55v2.6h-1.2v-7.14h1.2v2.6a2.29,2.29,0,0,1,1.71-.65A2,2,0,0,1,279.54,363.13Z" style="fill:#fff"></path><path d="M285.93,363.88h-4a1.56,1.56,0,0,0,1.66,1.24,1.88,1.88,0,0,0,1.4-.56l.64.74a2.89,2.89,0,0,1-4.9-1.8,2.55,2.55,0,0,1,2.65-2.62,2.5,2.5,0,0,1,2.6,2.65C286,363.63,285.94,363.77,285.93,363.88Zm-4-.79h2.91a1.39,1.39,0,0,0-1.45-1.25A1.42,1.42,0,0,0,281.89,363.09Z" style="fill:#fff"></path><path d="M290.07,360.88V362l-.28,0a1.4,1.4,0,0,0-1.49,1.59v2.49h-1.2v-5.14h1.14v.75A2.05,2.05,0,0,1,290.07,360.88Z" style="fill:#fff"></path><path d="M295.85,363.88h-4a1.56,1.56,0,0,0,1.66,1.24,1.88,1.88,0,0,0,1.4-.56l.64.74a2.89,2.89,0,0,1-4.9-1.8,2.55,2.55,0,0,1,2.65-2.62,2.5,2.5,0,0,1,2.6,2.65C295.87,363.63,295.86,363.77,295.85,363.88Zm-4-.79h2.91a1.39,1.39,0,0,0-1.45-1.25A1.42,1.42,0,0,0,291.81,363.09Z" style="fill:#fff"></path></g><g id="freepik--speech-bubble--inject-452"><path d="M378,111H350.13a8.59,8.59,0,0,0-8.59,8.59v24.27a8.59,8.59,0,0,0,8.59,8.59H368l5.8,9.6,0-9.6H378a8.59,8.59,0,0,0,8.59-8.59V119.57A8.59,8.59,0,0,0,378,111Z" style="fill:#407BFF"></path><circle cx="364.07" cy="131.6" r="13.84" transform="translate(152.34 455.7) rotate(-76.72)" style="fill:#fff;opacity:0.7000000000000001"></circle><path d="M362.62,137.78a1.24,1.24,0,0,1-1-.45l-5.43-6.39a1.27,1.27,0,1,1,1.94-1.65l4.46,5.26,7.36-8.68a1.28,1.28,0,0,1,1.8-.15,1.27,1.27,0,0,1,.14,1.79l-8.33,9.82A1.27,1.27,0,0,1,362.62,137.78Z" style="fill:#407BFF"></path></g><g id="freepik--Character--inject-452"><path d="M379.29,222.61a134,134,0,0,1-11.38,8.45c-2,1.33-4,2.6-6.19,3.79-1.08.59-2.2,1.17-3.43,1.71-.62.26-1.25.52-2,.76-.34.12-.74.24-1.13.34-.12,0-.15.05-.34.09l-.5.1a6.26,6.26,0,0,1-.95.1,10.63,10.63,0,0,1-5.3-1.34,24.2,24.2,0,0,1-3.48-2.22,48.39,48.39,0,0,1-5.51-5,84.43,84.43,0,0,1-8.94-11.09l3.59-3c3.28,3.07,6.7,6.12,10.12,8.88a52.38,52.38,0,0,0,5.2,3.72,16.25,16.25,0,0,0,2.48,1.27,2.59,2.59,0,0,0,1.33.3h-.17s.06,0,.08,0a4.64,4.64,0,0,0,.51-.21,13.22,13.22,0,0,0,1.21-.59c.85-.46,1.75-1,2.65-1.56,1.8-1.14,3.61-2.41,5.42-3.7s3.6-2.66,5.39-4,3.59-2.77,5.33-4.1Z" style="fill:#dc897c"></path><path d="M382.33,216.51c.81,9.66-18.37,19-18.37,19l-6.38-10.4a110.52,110.52,0,0,1,11.94-12.6C375.71,207.25,381.79,210.09,382.33,216.51Z" style="fill:#407BFF"></path><path d="M375.78,227.75a46.42,46.42,0,0,1-4.76,3.62,65.7,65.7,0,0,1-7.06,4.16l-6.38-10.4a110,110,0,0,1,11.95-12.6c6.18-5.28,12.27-2.44,12.8,4C382.67,220.53,379.54,224.5,375.78,227.75Z" style="fill:#fff;opacity:0.7000000000000001"></path><path d="M333.7,215.7l-5.33-7.21-5.48,5.6s3,5.57,8.19,4.92Z" style="fill:#e4897b"></path><polygon points="322.62 205.73 319.53 210.89 322.89 214.09 328.37 208.49 322.62 205.73" style="fill:#e4897b"></polygon><path d="M375.78,227.75a46.42,46.42,0,0,1-4.76,3.62,30.65,30.65,0,0,1,3.3-7.29A6.39,6.39,0,0,1,375.78,227.75Z" style="opacity:0.2"></path><path d="M366.85,409.27l7.53-.2a.6.6,0,0,1,.6.45l1.59,6.06a1,1,0,0,1-.95,1.25c-2.72,0-6.65,0-10.06.07-4,.1-6.53-.09-11.21,0-2.83.08-3.72-2.75-2.55-3,5.35-1.32,8.85-1.06,13.41-4A3.07,3.07,0,0,1,366.85,409.27Z" style="fill:#263238"></path><g style="opacity:0.4"><path d="M366.85,409.27l7.53-.2a.6.6,0,0,1,.6.45l1.59,6.06a1,1,0,0,1-.95,1.25c-2.72,0-6.65,0-10.06.07-4,.1-6.53-.09-11.21,0-2.83.08-3.72-2.75-2.55-3,5.35-1.32,8.85-1.06,13.41-4A3.07,3.07,0,0,1,366.85,409.27Z" style="fill:#fff"></path></g><path d="M405.16,409.27l7.53-.2a.6.6,0,0,1,.6.45l1.58,6.06a1,1,0,0,1-.95,1.25c-2.71,0-6.64,0-10.06.07-4,.1-6.53-.09-11.21,0-2.83.08-3.71-2.75-2.54-3,5.35-1.32,8.85-1.06,13.41-4A3,3,0,0,1,405.16,409.27Z" style="fill:#263238"></path><g style="opacity:0.4"><path d="M405.16,409.27l7.53-.2a.6.6,0,0,1,.6.45l1.58,6.06a1,1,0,0,1-.95,1.25c-2.71,0-6.64,0-10.06.07-4,.1-6.53-.09-11.21,0-2.83.08-3.71-2.75-2.54-3,5.35-1.32,8.85-1.06,13.41-4A3,3,0,0,1,405.16,409.27Z" style="fill:#fff"></path></g><path d="M418,260.56c3.63,15.7-3.57,149.66-3.57,149.66l-11.89-.37-4.27-113L375.63,410.89l-11.56-1.73c8.39-79.72,18.27-137.66,18.27-137.66l0-6Z" style="fill:#263238"></path><path d="M411.55,202.42a149.3,149.3,0,0,0,.57,22.51c.49,5.22,1.19,10.16,1.93,14.62,1.72,10.45,3.69,18.28,4,21l-35.69,4.93c-13-36.4-8.11-55.71-8.11-55.71l8.17-4.67,1.81-.46a135,135,0,0,1,15.18-2.09c1-.09,1.95-.15,2.9-.19C407.15,202.15,411.55,202.42,411.55,202.42Z" style="fill:#407BFF"></path><g style="opacity:0.7000000000000001"><path d="M418,260.56c-5.24.73-24.95,3.45-35.7,4.92-13-36.39-8.11-55.7-8.11-55.7l8.17-4.66s1.2-.32,1.82-.47a134.48,134.48,0,0,1,15.17-2.09c1-.08,1.95-.15,2.9-.19,4.88-.22,9.27,0,9.27,0a142.16,142.16,0,0,0,0,14.45c.14,2.75.34,5.44.58,8.06,0,.12,0,.25,0,.37.5,5.08,1.18,9.9,1.9,14.25C415.77,250,417.73,257.83,418,260.56Z" style="fill:#fff"></path></g><path d="M398.11,202.39s-8.19,6.46-10.65,6.43c-1.73,0-4.23-2.84-4.23-2.84a7.42,7.42,0,0,0,2.7-2.16c1.71-2.35.72-5.19-.68-7.8l7.19-10a47.74,47.74,0,0,0,.92,7.24h0C394.17,197.17,395.63,201,398.11,202.39Z" style="fill:#e4897b"></path><path d="M393.36,193.28h0c-.75,4.36-2.65,9.39-7.43,10.53,1.71-2.35.72-5.19-.68-7.8l7.19-10A47.74,47.74,0,0,0,393.36,193.28Z" style="opacity:0.2"></path><path d="M387.46,208.83s2,1.81,4.27,3.56c2.74-1.82,9.1-6.59,8.33-10.19-.53-1-3.39-1.35-3.39-1.35S394.12,205.14,387.46,208.83Z" style="fill:#407BFF"></path><path d="M387.46,208.83a19.39,19.39,0,0,0-3.28,4.47c-2.32-1.14-2.05-8.05-1.35-8.89a7.72,7.72,0,0,1,3.58-1.42A6.34,6.34,0,0,0,387.46,208.83Z" style="fill:#407BFF"></path><g style="opacity:0.5"><path d="M387.46,208.83s2,1.81,4.27,3.56c2.74-1.82,9.1-6.59,8.33-10.19-.53-1-3.39-1.35-3.39-1.35S394.12,205.14,387.46,208.83Z" style="fill:#fff"></path><path d="M387.46,208.83a19.39,19.39,0,0,0-3.28,4.47c-2.32-1.14-2.05-8.05-1.35-8.89a7.72,7.72,0,0,1,3.58-1.42A6.34,6.34,0,0,0,387.46,208.83Z" style="fill:#fff"></path></g><path d="M394.25,318.74l4-21.9-.77-11.58S392,305.35,394.25,318.74Z" style="opacity:0.2"></path><path d="M374.18,178.92c-.79,2.77-.16,8.4,3.63,6.46S375.54,174.15,374.18,178.92Z" style="fill:#263238"></path><path d="M394.09,182.08c.62,7.06,1.34,11.16-1.66,15.24-4.52,6.15-13.66,4.16-16.38-2.59-2.45-6.07-3.05-16.59,3.4-20.33A9.76,9.76,0,0,1,394.09,182.08Z" style="fill:#e4897b"></path><path d="M383.75,185.53c.08.56-.15,1.07-.52,1.12s-.75-.37-.84-.94.15-1.07.53-1.12S383.66,185,383.75,185.53Z" style="fill:#263238"></path><path d="M377.29,186.43c.09.57-.15,1.07-.52,1.12s-.75-.36-.83-.93.15-1.08.52-1.13S377.21,185.86,377.29,186.43Z" style="fill:#263238"></path><path d="M379.39,186.42a20,20,0,0,1-2.07,5.09,3.41,3.41,0,0,0,2.78.08Z" style="fill:#de5753"></path><path d="M385.43,183.17a.36.36,0,0,1-.34-.09,2.69,2.69,0,0,0-2.31-.81.35.35,0,0,1-.41-.26.33.33,0,0,1,.26-.4,3.36,3.36,0,0,1,2.94,1,.34.34,0,0,1,0,.48A.42.42,0,0,1,385.43,183.17Z" style="fill:#263238"></path><path d="M374.18,184.6a.34.34,0,0,1-.42-.43,3.33,3.33,0,0,1,2.13-2.22.34.34,0,0,1,.41.24.33.33,0,0,1-.23.42,2.57,2.57,0,0,0-1.66,1.77A.36.36,0,0,1,374.18,184.6Z" style="fill:#263238"></path><path d="M382.32,178s1.74-1.65,2.82-.28,1.58,5.35,1.58,5.35l.29-.76s3.7,8.51,7,5.78,7.37-12.43-1.69-15.85c0,0-1.19-2-6.9-2.3s-12,4.07-12.62,7.91,1.25,5.66,1.25,5.66a5.3,5.3,0,0,1,.77-2.32,2.32,2.32,0,0,0,1.62,1.5,4,4,0,0,1,.16-2.24,4.55,4.55,0,0,0,1.17,1.65c-.11-3.85,2.36-5,3.18-5.06A1.41,1.41,0,0,1,382.32,178Z" style="fill:#263238"></path><path d="M397.67,187.5a6.66,6.66,0,0,1-2.71,4.35c-1.93,1.35-3.7-.19-3.83-2.42-.12-2,.74-5.14,3-5.6A3.06,3.06,0,0,1,397.67,187.5Z" style="fill:#e4897b"></path><path d="M380.64,193.91a18.68,18.68,0,0,1,1.94,1.78l.38-.26c1.73-1.2,2.14-2.32,2.07-3.21a2.63,2.63,0,0,0-.43-1.2,2.53,2.53,0,0,0-.47-.57,9.74,9.74,0,0,1-2.9,3C380.88,193.76,380.64,193.91,380.64,193.91Z" style="fill:#263238"></path><path d="M381.23,193.49l.58.51c1.63-1.13,2.62-2.14,2.79-3a2.53,2.53,0,0,0-.47-.57A9.74,9.74,0,0,1,381.23,193.49Z" style="fill:#fff"></path><path d="M383,195.43c1.73-1.2,2.14-2.32,2.07-3.21a7,7,0,0,0-1.66,1.71A2.59,2.59,0,0,0,383,195.43Z" style="fill:#a24e3f"></path><polygon points="382.32 267.3 381.63 263.52 418.01 258.17 418.57 264.78 382.32 267.3" style="fill:#263238"></polygon><polygon points="384.57 264.1 384.89 266.19 381.98 266.54 381.63 264.46 384.57 264.1"></polygon><polygon points="404.86 261.56 405.19 263.77 386.2 266.04 385.88 263.93 404.86 261.56"></polygon><polygon points="418.57 262.17 406.51 263.61 406.17 261.41 418.36 259.88 418.57 262.17"></polygon><path d="M392.31,263.9l.14.73a.72.72,0,0,0,.78.57l3.15-.38A.71.71,0,0,0,397,264l-.09-.75a.71.71,0,0,0-.79-.62l-3.2.4A.71.71,0,0,0,392.31,263.9Z" style="fill:none;stroke:#fff;stroke-linecap:round;stroke-linejoin:round;stroke-width:0.5px"></path><line x1="395.3" y1="263.82" x2="396.29" y2="263.7" style="fill:none;stroke:#fff;stroke-linecap:round;stroke-linejoin:round;stroke-width:0.5px"></line><path d="M423,254.61l-9-.6.74,7.81s6.2,1.3,9.05-3.08Z" style="fill:#e4897b"></path><polygon points="408.27 256.63 410.21 262.32 414.83 261.82 414.1 254.01 408.27 256.63" style="fill:#e4897b"></polygon><path d="M412.15,225.3c-2.43-3.62-3.08-9.66-3.08-9.66a5.31,5.31,0,0,1,2.46,1.23c.14,2.75.34,5.44.58,8.06C412.12,225.05,412.13,225.18,412.15,225.3Z" style="opacity:0.2"></path><path d="M415.28,204.9a145.6,145.6,0,0,1,10.05,10.89c1.61,1.9,3.17,3.86,4.65,6,.74,1.05,1.48,2.13,2.18,3.31a21.77,21.77,0,0,1,2,4.2,10.31,10.31,0,0,1,.44,3,16,16,0,0,1-.18,2.38,31.06,31.06,0,0,1-.92,4.06,60.63,60.63,0,0,1-2.68,7.19,102,102,0,0,1-7,13.1l-4.19-2.09c1.6-4.46,3.17-9,4.5-13.47a66.74,66.74,0,0,0,1.66-6.62,21,21,0,0,0,.4-3.05,10,10,0,0,0,0-1.24c0-.34-.11-.58-.13-.54a15.93,15.93,0,0,0-1.33-2.22c-.6-.85-1.26-1.74-2-2.62-1.41-1.76-2.94-3.52-4.49-5.27s-3.18-3.46-4.8-5.19-3.28-3.44-4.87-5.12Z" style="fill:#dc897c"></path><path d="M409.1,202.4c9.58-1.48,20.26,17,20.26,17l-9.93,7.09a109,109,0,0,1-13.4-11C400.32,209.65,402.73,203.39,409.1,202.4Z" style="fill:#407BFF"></path><path d="M409.1,202.4c9.58-1.48,20.26,17,20.26,17l-9.93,7.09a109,109,0,0,1-13.4-11C400.32,209.65,402.73,203.39,409.1,202.4Z" style="fill:#fff;opacity:0.7000000000000001"></path><polygon points="324.01 414.99 324.75 416.94 325.51 415 325.61 404.86 324.11 404.85 324.01 414.99" style="fill:#263238"></polygon><path d="M323.23,179.76h7.41a0,0,0,0,1,0,0v20.47a1.38,1.38,0,0,1-1.38,1.38h-4.65a1.38,1.38,0,0,1-1.38-1.38V179.76A0,0,0,0,1,323.23,179.76Z" transform="translate(652 384.52) rotate(-179.45)" style="fill:#263238"></path><path d="M323.12,201.58l7.41.07.2-20.51a1.36,1.36,0,0,0-1.33-1.36l-4.73,0a1.33,1.33,0,0,0-1.35,1.32Z" style="fill:#fff;isolation:isolate;opacity:0.30000000000000004"></path><path d="M321.83,196.58l10.09.1a3.48,3.48,0,0,1,3.44,3.39q2.49,95.94-2,191.91h0s-1.7,12.87-7.36,21.13l-2.49,0c-5.51-8.36-7-21.26-7-21.26h0Q314,295.88,318.32,199.9A3.48,3.48,0,0,1,321.83,196.58Z" style="fill:#263238"></path><path d="M314.78,193.9l17,.16a1,1,0,0,1,1,1.05v1.71l-17.3-.17c-1.46,25.76-.6,47.23-.6,47.23l1.26.62-1.37,5c-3.05-8.59-1.52-47.33-1.2-54.47A1.17,1.17,0,0,1,314.78,193.9Z" style="fill:#263238"></path><rect x="315.67" y="289.15" width="20.58" height="3.95" transform="translate(649.1 585.39) rotate(-179.45)" style="fill:#263238"></rect><path d="M336.56,326q-.62,28.54-1.82,57a1.6,1.6,0,0,1-1.62,1.53L317,384.35a1.6,1.6,0,0,1-1.58-1.57q-.68-28.41-.72-57a1.61,1.61,0,0,1,1.62-1.61l18.66.18A1.61,1.61,0,0,1,336.56,326Z" style="fill:#263238"></path><rect x="315.67" y="289.15" width="20.58" height="3.95" transform="translate(649.1 585.39) rotate(-179.45)" style="isolation:isolate;opacity:0.2"></rect><path d="M314.78,193.9l17,.16a1,1,0,0,1,1,1.05v1.71l-17.3-.17c-1.46,25.76-.6,47.23-.6,47.23l1.26.62-1.37,5c-3.05-8.59-1.52-47.33-1.2-54.47A1.17,1.17,0,0,1,314.78,193.9Z" style="fill:#fff;isolation:isolate;opacity:0.6000000000000001"></path><path d="M336.56,326q-.62,28.54-1.82,57a1.6,1.6,0,0,1-1.62,1.53L317,384.35a1.6,1.6,0,0,1-1.58-1.57q-.68-28.41-.72-57a1.61,1.61,0,0,1,1.62-1.61l18.66.18A1.61,1.61,0,0,1,336.56,326Z" style="fill:#fff;isolation:isolate;opacity:0.30000000000000004"></path></g></svg>
