<svg xmlns="http://www.w3.org/2000/svg" viewBox="0 0 750 500"><g id="freepik--background-complete--inject-100"><path d="M400.18,247.38C378.15,232,376,230,364.88,209.32l-10.59,21.61c45.33,12.77,84.43,55.6,118.54,88.06,34.93,33.25,99.47,82.2,108.94,128.33,12.55-31.77,32-27.68,54.57-53.27C561.13,373.26,455,285.74,400.18,247.38Z" style="fill:#ebebeb"></path><path d="M505.4,480.26c5.41-14.85,24.08-21.82,38.49-15.33l-.31-6.73A37.76,37.76,0,0,1,586.94,426c.86-11.11,12.45-20.14,23.43-18.25a21.18,21.18,0,0,1,30.54-23.53A33.17,33.17,0,0,1,690.29,422c17.28,13.21,23.52,39,14.2,58.63" style="fill:#ebebeb"></path><path d="M340.73,224.56l30.34-20.65c10.88-1.43,16.69,9.33,16.23,17.07A12.36,12.36,0,0,1,404,237.56c6.2.31,11.37,6.71,10.37,12.84s-8,10.54-13.93,8.84c-3.94-1.12-7.15-4.38-11.22-4.84-3.82-.43-7.39,1.69-11.05,2.85-9.09,2.91-19.49-.36-26.35-7S341.42,234.08,340.73,224.56Z" style="fill:#ebebeb"></path><path d="M360.2,211.6a27.85,27.85,0,0,1,9.74,4.93,2.49,2.49,0,0,1-1.63,4.44h-.06a102.54,102.54,0,0,1,10.52,8.41,3.07,3.07,0,0,1-2.18,5.34,47,47,0,0,1-30.42-12.89Z" style="fill:#e0e0e0"></path><path d="M306.1,214.14s0,.12,0,.24a46.2,46.2,0,0,0,18.57,35.4l7,5.26.72-21.24Z" style="fill:#e0e0e0"></path><path d="M335.91,174.2l.23-.07a45.61,45.61,0,0,1,38.68,7.62l6.95,5.19-19.88,6.64Z" style="fill:#e0e0e0"></path><path d="M252,142.71c2.36-3.16,14.87-2.88,32.56,1.91A101.78,101.78,0,0,1,314,157.82l58.77,43.86-11.56,15.48-6.69,9-11.56,15.48L289.6,201.83a101.66,101.66,0,0,1-14.44-13.06,122.19,122.19,0,0,1-12-15.4c-9.93-15.31-13.46-27.5-11.1-30.66" style="fill:#f5f5f5"></path><line x1="363.43" y1="194.72" x2="333.69" y2="234.1" style="fill:#f5f5f5"></line><path d="M333.69,234.1c.05,0,6.76-8.74,15-19.61s14.82-19.72,14.77-19.77-6.76,8.74-15,19.61S333.63,234.05,333.69,234.1Z" style="fill:#e0e0e0"></path><line x1="365.34" y1="195.88" x2="335.6" y2="235.25" style="fill:#f5f5f5"></line><path d="M335.6,235.25c.06,0,6.76-8.74,15-19.61s14.83-19.72,14.77-19.76-6.76,8.73-15,19.61S335.54,235.21,335.6,235.25Z" style="fill:#e0e0e0"></path><line x1="367.2" y1="197.31" x2="337.46" y2="236.68" style="fill:#f5f5f5"></line><path d="M337.46,236.68c.05,0,6.76-8.73,15-19.6s14.82-19.73,14.77-19.77-6.76,8.73-15,19.61S337.4,236.64,337.46,236.68Z" style="fill:#e0e0e0"></path><line x1="369.05" y1="198.74" x2="339.31" y2="238.12" style="fill:#f5f5f5"></line><path d="M339.31,238.12c.06,0,6.77-8.74,15-19.61s14.82-19.72,14.76-19.77-6.76,8.74-15,19.61S339.26,238.07,339.31,238.12Z" style="fill:#e0e0e0"></path><line x1="370.91" y1="200.18" x2="341.17" y2="239.55" style="fill:#f5f5f5"></line><path d="M341.17,239.55c.06,0,6.76-8.73,15-19.6s14.83-19.73,14.77-19.77-6.76,8.73-15,19.61S341.11,239.51,341.17,239.55Z" style="fill:#e0e0e0"></path><path d="M321,194.28l.24.25c.17.17.43.36.77.64.67.54,1.66,1.31,2.89,2.24,2.45,1.86,5.88,4.4,9.68,7.18s7.26,5.27,9.77,7.07l3,2.11.82.56.29.19s-.08-.09-.26-.23l-.79-.6-2.93-2.18-9.73-7.13L325,197.26l-2.94-2.17c-.34-.26-.62-.45-.79-.6A1.34,1.34,0,0,0,321,194.28Z" style="fill:#e0e0e0"></path><path d="M306.1,214.14c.06.05,6.73-8.78,14.9-19.71s14.75-19.83,14.69-19.87-6.73,8.78-14.9,19.71S306,214.1,306.1,214.14Z" style="fill:#e0e0e0"></path><path d="M338,212s-.14,0-.36.11a1.54,1.54,0,0,0-.67.77,1.5,1.5,0,0,0,.17,1.51,1.61,1.61,0,0,0,2.92-.8,1.49,1.49,0,0,0-.62-1.38,1.56,1.56,0,0,0-1-.33c-.24,0-.37.07-.36.09s.13,0,.36,0a1.75,1.75,0,0,1,.86.37,1.34,1.34,0,0,1,.49,1.21,1.45,1.45,0,0,1-1,1.2,1.47,1.47,0,0,1-1.48-.52,1.31,1.31,0,0,1-.19-1.29,1.55,1.55,0,0,1,.56-.75C337.87,212,338,212,338,212Z" style="fill:#e0e0e0"></path><path d="M326.47,203.68a.73.73,0,0,0-.36.11,1.67,1.67,0,0,0-.67.78,1.49,1.49,0,0,0,.18,1.5,1.6,1.6,0,0,0,2.91-.8,1.5,1.5,0,0,0-.61-1.38,1.61,1.61,0,0,0-1-.32.69.69,0,0,0-.36.08,2.63,2.63,0,0,0,.36,0,1.58,1.58,0,0,1,.86.37,1.29,1.29,0,0,1,.49,1.2,1.37,1.37,0,0,1-2.48.68,1.31,1.31,0,0,1-.19-1.29,1.59,1.59,0,0,1,.55-.75C326.35,203.74,326.48,203.7,326.47,203.68Z" style="fill:#e0e0e0"></path><path d="M381,240.69a2.6,2.6,0,1,1-.18.07" style="fill:#e0e0e0"></path><path d="M279.24,177.1a13.46,13.46,0,1,0,8.15-17.2A13.46,13.46,0,0,0,279.24,177.1Z" style="fill:#fff"></path><path d="M279.24,177.1a26.52,26.52,0,0,1-.6-3.24,13.43,13.43,0,0,1,2.18-8.5,13.16,13.16,0,0,1,4.43-4.19A13.36,13.36,0,0,1,292,159.4a13.3,13.3,0,0,1,7.3,2.28,13.12,13.12,0,0,1,5.24,14.66,13.32,13.32,0,0,1-4.21,6.39,13.21,13.21,0,0,1-12.4,2.46,13.35,13.35,0,0,1-7.07-5.2,27,27,0,0,1-1.6-2.89,4.76,4.76,0,0,0,.28.82,6,6,0,0,0,.42,1,9.79,9.79,0,0,0,.71,1.24,13.53,13.53,0,0,0,13.41,6,13.61,13.61,0,0,0,6.59-3,12.62,12.62,0,0,0,2.66-2.92,13,13,0,0,0,1.76-3.72,13.65,13.65,0,0,0-5.47-15.3,13.74,13.74,0,0,0-7.62-2.34,13.69,13.69,0,0,0-7,1.89,13.54,13.54,0,0,0-6.59,13.13,9.57,9.57,0,0,0,.24,1.41,5.49,5.49,0,0,0,.28,1A4.64,4.64,0,0,0,279.24,177.1Z" style="fill:#e0e0e0"></path><path d="M252,142.71c2.36-3.16,14.87-2.88,32.56,1.91l-21.46,28.75c-9.93-15.31-13.46-27.5-11.1-30.66" style="fill:#e0e0e0"></path><path d="M252,142.71s-.12.19-.35.6a6.21,6.21,0,0,0-.4,2,24,24,0,0,0,1.46,7.76c2.15,6.54,6.62,15.62,13.94,25.73a121.11,121.11,0,0,0,13.49,15.4,104.91,104.91,0,0,0,8.75,7.42l9.77,7.31,44.06,32.92.23.17.17-.23,14.91-20c5.1-6.85,10.12-13.57,14.9-20l.17-.23-.23-.18-44.1-32.86L319,161.29l-4.67-3.48c-1.58-1.12-3.19-2.08-4.79-3a107.93,107.93,0,0,0-18.64-8.44,131.63,131.63,0,0,0-16.23-4.22,83.31,83.31,0,0,0-12.48-1.57,24.63,24.63,0,0,0-7.87.7,9.15,9.15,0,0,0-1.1.46,6,6,0,0,0-.72.47c-.33.33-.48.51-.48.51l.51-.47a7.72,7.72,0,0,1,.73-.44,10.6,10.6,0,0,1,1.1-.43,25.24,25.24,0,0,1,7.82-.59,85.34,85.34,0,0,1,12.43,1.65,134.83,134.83,0,0,1,16.16,4.29,107.92,107.92,0,0,1,18.54,8.47c1.59.92,3.2,1.9,4.74,3l4.66,3.49,9.78,7.31,44.06,32.92-.06-.41-14.91,20-14.9,20,.4-.06L299,208.53l-9.78-7.29a102.42,102.42,0,0,1-8.74-7.36A120.71,120.71,0,0,1,267,178.58c-7.34-10-11.85-19.07-14.06-25.57a24.74,24.74,0,0,1-1.54-7.69,6.48,6.48,0,0,1,.34-2C252,142.93,252,142.71,252,142.71Z" style="fill:#e0e0e0"></path><path d="M293,182.58a11.52,11.52,0,0,0-.23-2.71c-.23-1.66-.64-3.93-1.13-6.43l-1.31-6.4a13.89,13.89,0,0,0-.63-2.64,10.88,10.88,0,0,0,.23,2.71c.23,1.66.64,3.94,1.13,6.44s.93,4.54,1.3,6.39A14.3,14.3,0,0,0,293,182.58Z" style="fill:#e0e0e0"></path><path d="M295.4,179.42a30.31,30.31,0,0,0-.67-5.9,30,30,0,0,0-1.25-5.81,30,30,0,0,0,.67,5.9A30.49,30.49,0,0,0,295.4,179.42Z" style="fill:#e0e0e0"></path><path d="M624,356.8,595.57,343a4,4,0,0,1-1.83-5.29l19.15-39.32a4,4,0,0,1,5.29-1.83l18,8.78,6.95,21.17L629.27,355A4,4,0,0,1,624,356.8Z" style="fill:#ebebeb"></path><path d="M636.2,305.31l-5.39,11.07a3.67,3.67,0,0,0,1.69,4.91l10.65,5.19Z" style="fill:#e0e0e0"></path><path d="M628.65,314.76c-.07.15-3.07-1.17-6.7-2.94a47.45,47.45,0,0,1-6.45-3.46,47.36,47.36,0,0,1,6.7,2.95A46.81,46.81,0,0,1,628.65,314.76Z" style="fill:#fff"></path><path d="M634.09,325.15c-.07.15-5-2.1-10.94-5s-10.76-5.38-10.7-5.52,5,2.1,10.95,5S634.16,325,634.09,325.15Z" style="fill:#fff"></path><path d="M633.49,331.33c-.07.14-5.4-2.31-11.91-5.49s-11.74-5.85-11.67-6,5.4,2.31,11.92,5.48S633.56,331.19,633.49,331.33Z" style="fill:#fff"></path><path d="M631.09,336.26c-.07.14-5.4-2.31-11.91-5.49s-11.74-5.85-11.67-6,5.4,2.31,11.92,5.48S631.16,336.12,631.09,336.26Z" style="fill:#fff"></path><path d="M628.69,341.19c-.07.14-5.4-2.31-11.92-5.49s-11.73-5.85-11.66-6,5.4,2.31,11.92,5.48S628.76,341.05,628.69,341.19Z" style="fill:#fff"></path><path d="M626.29,346.12c-.07.14-5.41-2.31-11.92-5.49s-11.73-5.85-11.66-6,5.4,2.31,11.91,5.48S626.36,346,626.29,346.12Z" style="fill:#fff"></path><path d="M233.93,215.45A34.41,34.41,0,1,1,202,178.79,34.38,34.38,0,0,1,233.93,215.45Z" style="fill:#f5f5f5"></path><path d="M225.76,214.88a26.22,26.22,0,1,1-24.33-27.94A26.19,26.19,0,0,1,225.76,214.88Z" style="fill:#ebebeb"></path><path d="M225.81,214.06c-.16,0-.19-1.17-.47-3.2a27.66,27.66,0,0,0-2.46-8.23,26.15,26.15,0,0,0-8-9.67,25.94,25.94,0,0,0-3.07-2,26.42,26.42,0,0,0-3.46-1.56,26.14,26.14,0,0,0-3.79-1.05,26.6,26.6,0,0,0-4-.48,28.44,28.44,0,0,0-4,.16,25.6,25.6,0,0,0-3.86.77,23.67,23.67,0,0,0-3.57,1.29,22.87,22.87,0,0,0-3.21,1.72,25.85,25.85,0,0,0-5.19,4.29,26.53,26.53,0,0,0-3.51,4.74,28,28,0,0,0-3.08,8c-.43,2-.55,3.16-.71,3.15s-.26-1.17-.06-3.27a24.28,24.28,0,0,1,2.61-8.57,26.27,26.27,0,0,1,3.51-5.17,26.6,26.6,0,0,1,5.43-4.74,26.09,26.09,0,0,1,3.41-1.91,25.37,25.37,0,0,1,3.83-1.43,26.91,26.91,0,0,1,4.16-.86,28.65,28.65,0,0,1,4.36-.18,28.13,28.13,0,0,1,4.34.52,26.89,26.89,0,0,1,4.07,1.17,26.8,26.8,0,0,1,12,9,26.64,26.64,0,0,1,3.11,5.43,24.31,24.31,0,0,1,1.94,8.75C226.16,212.91,225.93,214.06,225.81,214.06Z" style="fill:#e0e0e0"></path><path d="M201.46,228.85l-.25,4.56-4.07-.22.25-4.44c-4-.47-7.82-1.95-10-3.82l2.51-4.85a16.38,16.38,0,0,0,7.74,3.33l.38-6.8c-4.46-1.35-9.43-3.13-9.1-9,.24-4.31,3.58-7.85,10-8.22l.26-4.52,4.07.22-.25,4.44a18.53,18.53,0,0,1,8.13,3l-2.31,4.89a16.94,16.94,0,0,0-6.12-2.46l-.38,6.92c4.46,1.31,9.34,3.1,9,8.84C211.2,224.94,207.9,228.44,201.46,228.85Zm-3.07-18.22.32-5.78c-2.18.36-3.1,1.5-3.18,2.84S196.63,210,198.39,210.63Zm6.46,10.2c.08-1.42-1.06-2.26-2.77-3l-.32,5.62C203.82,223.14,204.78,222.13,204.85,220.83Z" style="fill:#e0e0e0"></path><path d="M679.9,111.55a26.29,26.29,0,1,1-24.39-28A26.26,26.26,0,0,1,679.9,111.55Z" style="fill:#f5f5f5"></path><path d="M673.66,111.11a20,20,0,1,1-18.59-21.34A20,20,0,0,1,673.66,111.11Z" style="fill:#ebebeb"></path><path d="M673.7,110.49a12.65,12.65,0,0,1-.36-2.45,21.24,21.24,0,0,0-1.87-6.28,20.71,20.71,0,0,0-2.4-3.82,20,20,0,0,0-3.7-3.58A18.6,18.6,0,0,0,663,92.87a18.16,18.16,0,0,0-2.65-1.2,20.48,20.48,0,0,0-2.89-.81,22,22,0,0,0-3.07-.36,21.07,21.07,0,0,0-3.09.13,19,19,0,0,0-3,.58,19.45,19.45,0,0,0-2.72,1,18,18,0,0,0-2.46,1.32,20,20,0,0,0-6.64,6.9,21.35,21.35,0,0,0-2.36,6.12,12.05,12.05,0,0,1-.54,2.41,6,6,0,0,1,0-2.5,18.63,18.63,0,0,1,2-6.55,20.51,20.51,0,0,1,2.69-4,20.72,20.72,0,0,1,4.14-3.62,21.31,21.31,0,0,1,2.62-1.46A19.52,19.52,0,0,1,648,89.77a20.36,20.36,0,0,1,3.18-.66,21.62,21.62,0,0,1,3.33-.14,22.51,22.51,0,0,1,3.31.4,20,20,0,0,1,3.12.9,19.25,19.25,0,0,1,2.83,1.32,18.85,18.85,0,0,1,2.49,1.65,20.36,20.36,0,0,1,3.85,3.93,20.1,20.1,0,0,1,2.38,4.14,18.66,18.66,0,0,1,1.48,6.68A6,6,0,0,1,673.7,110.49Z" style="fill:#e0e0e0"></path><path d="M655.1,121.79l-.19,3.49-3.11-.18.18-3.39a14.67,14.67,0,0,1-7.6-2.92l1.92-3.7a12.63,12.63,0,0,0,5.91,2.55l.29-5.2c-3.41-1-7.2-2.4-7-6.85.18-3.3,2.73-6,7.68-6.28l.19-3.45,3.11.17-.19,3.39a14,14,0,0,1,6.21,2.25l-1.76,3.74a12.75,12.75,0,0,0-4.67-1.88l-.3,5.29c3.41,1,7.14,2.36,6.9,6.75C662.54,118.8,660,121.47,655.1,121.79Zm-2.35-13.92.25-4.42c-1.67.28-2.37,1.15-2.43,2.17S651.41,107.36,652.75,107.87Zm4.94,7.79c.06-1.09-.81-1.73-2.12-2.27l-.24,4.29C656.9,117.43,657.63,116.66,657.69,115.66Z" style="fill:#e0e0e0"></path><path d="M379.57,303.65a19,19,0,1,1-21.54-16A19,19,0,0,1,379.57,303.65Z" style="fill:#f5f5f5"></path><path d="M375.09,304.3a14.49,14.49,0,1,1-16.41-12.22A14.47,14.47,0,0,1,375.09,304.3Z" style="fill:#ebebeb"></path><path d="M375,303.85a8,8,0,0,1-.63-1.66,15.38,15.38,0,0,0-2.3-4.16,14.16,14.16,0,0,0-5.44-4.28,12.89,12.89,0,0,0-1.89-.7,13.55,13.55,0,0,0-2-.44,14.75,14.75,0,0,0-4.39.09,16.67,16.67,0,0,0-2.16.56,14.91,14.91,0,0,0-2,.87,14.31,14.31,0,0,0-1.77,1.11,14,14,0,0,0-1.53,1.31,14.37,14.37,0,0,0-2.3,2.93,14.79,14.79,0,0,0-1.34,3,15.61,15.61,0,0,0-.72,4.69,9.6,9.6,0,0,1,0,1.78,4.2,4.2,0,0,1-.42-1.76,13.29,13.29,0,0,1,.4-4.93,15,15,0,0,1,1.29-3.21,14.73,14.73,0,0,1,2.37-3.19,14,14,0,0,1,1.62-1.43,13.74,13.74,0,0,1,1.9-1.23,15.27,15.27,0,0,1,2.14-.95,15.16,15.16,0,0,1,4.74-.84,15.17,15.17,0,0,1,2.34.16,14.34,14.34,0,0,1,2.2.49,15,15,0,0,1,2,.79,14.64,14.64,0,0,1,3.33,2.18,14.38,14.38,0,0,1,2.32,2.57,13.37,13.37,0,0,1,2.07,4.49A4.44,4.44,0,0,1,375,303.85Z" style="fill:#e0e0e0"></path><path d="M363.62,314.7l.4,2.49-2.22.36-.39-2.42a10.78,10.78,0,0,1-5.83-.9l.79-2.91a9.07,9.07,0,0,0,4.57.89l-.59-3.72c-2.57-.2-5.46-.58-6-3.76-.38-2.36,1-4.66,4.46-5.62l-.39-2.47,2.22-.36.39,2.43a10.12,10.12,0,0,1,4.73.63l-.67,2.91a9.39,9.39,0,0,0-3.59-.61l.61,3.79c2.56.18,5.41.57,5.91,3.7C368.42,311.45,367.05,313.72,363.62,314.7Zm-3.8-9.48-.5-3.15c-1.14.45-1.5,1.17-1.39,1.91S358.79,305.07,359.82,305.22Zm4.69,4.75c-.13-.78-.84-1.09-1.85-1.28l.49,3.08C364.23,311.34,364.62,310.69,364.51,310Z" style="fill:#e0e0e0"></path><path d="M49.72,360.79v20.88a1,1,0,0,1-1,1H46.93a1,1,0,0,0-1,1v.42a1,1,0,0,0,1,1h1.76a1,1,0,0,1,1,1v13.3a1,1,0,0,0,1,1h69.6a1,1,0,0,0,1-1V387.63a1,1,0,0,0-1-1h-3.24a1,1,0,0,1-1-1v-1a1,1,0,0,1,1-1h3.24a1,1,0,0,0,1-1V380a1,1,0,0,1,1-1h.29a1,1,0,0,0,1-1h0a1,1,0,0,0-1-1H122a1,1,0,0,1-1-1V360.79a1,1,0,0,0-1-1H50.76A1,1,0,0,0,49.72,360.79Z" style="fill:#f5f5f5"></path><path d="M102.36,360.85v38.43a1,1,0,0,0,1,1h17a1,1,0,0,0,1-1V387.37a1,1,0,0,0-1-1h-3.24a1,1,0,0,1-1-1v-.7a1,1,0,0,1,1-1l3.2.06a1,1,0,0,0,1-1v-2.47a1,1,0,0,1,1-1h.31a1,1,0,0,0,1-1.06v-.31a1,1,0,0,0-1-1l-.79,0a1,1,0,0,1-1-1V360.79a1,1,0,0,0-1-1l-16.51.06A1,1,0,0,0,102.36,360.85Z" style="fill:#e0e0e0"></path><path d="M103.72,384.88c0,.14-13,.25-29,.25s-29-.11-29-.25,13-.26,29-.26S103.72,384.74,103.72,384.88Z" style="fill:#e0e0e0"></path><path d="M103.72,382.54c0,.14-13,.26-29,.26s-29-.12-29-.26,13-.25,29-.25S103.72,382.4,103.72,382.54Z" style="fill:#e0e0e0"></path><path d="M107.44,376.27c0,.14-13,.25-29,.25s-29-.11-29-.25,13-.26,29-.26S107.44,376.12,107.44,376.27Z" style="fill:#e0e0e0"></path><path d="M107.8,393.37c0,.14-13,.26-29,.26s-29-.12-29-.26,13-.25,29-.25S107.8,393.23,107.8,393.37Z" style="fill:#e0e0e0"></path><path d="M55.13,400.48v20.89a1,1,0,0,1-1,1H52.33a1,1,0,0,0-1,1v.42a1,1,0,0,0,1,1h1.76a1,1,0,0,1,1,1v13.29a1,1,0,0,0,1,1h69.59a1,1,0,0,0,1-1V427.32a1,1,0,0,0-1-1h-3.23a1,1,0,0,1-1-1v-1a1,1,0,0,1,1-1h3.23a1,1,0,0,0,1-1v-2.5a1,1,0,0,1,1-1h.28a1,1,0,0,0,1-1h0a1,1,0,0,0-1-1h-.72a1,1,0,0,1-1-1V400.48a1,1,0,0,0-1-1H56.17A1,1,0,0,0,55.13,400.48Z" style="fill:#f5f5f5"></path><path d="M107.77,400.54V439a1,1,0,0,0,1,1h17a1,1,0,0,0,1-1V427.06a1,1,0,0,0-1-1h-3.23a1,1,0,0,1-1-1v-.7a1,1,0,0,1,1.06-1l3.19.06a1,1,0,0,0,1.06-1V419.8a1,1,0,0,1,1-1h.31a1,1,0,0,0,1-1.06v-.3a1,1,0,0,0-1-1l-.8,0a1,1,0,0,1-1-1V400.48a1,1,0,0,0-1-1l-16.52.06A1,1,0,0,0,107.77,400.54Z" style="fill:#e0e0e0"></path><path d="M109.13,424.57c0,.14-13,.25-29,.25s-29-.11-29-.25,13-.26,29-.26S109.13,424.43,109.13,424.57Z" style="fill:#e0e0e0"></path><path d="M109.13,422.23c0,.15-13,.26-29,.26s-29-.11-29-.26,13-.25,29-.25S109.13,422.09,109.13,422.23Z" style="fill:#e0e0e0"></path><path d="M112.85,416c0,.14-13,.25-29,.25s-29-.11-29-.25,13-.26,29-.26S112.85,415.82,112.85,416Z" style="fill:#e0e0e0"></path><path d="M113.2,433.06c0,.15-13,.26-29,.26s-29-.11-29-.26,13-.25,29-.25S113.2,432.92,113.2,433.06Z" style="fill:#e0e0e0"></path><path d="M48.85,439.64v20.88a1,1,0,0,1-1,1H46.05a1,1,0,0,0-1,1V463a1,1,0,0,0,1,1h1.76a1,1,0,0,1,1,1v13.3a1,1,0,0,0,1,1h69.59a1,1,0,0,0,1-1V466.48a1,1,0,0,0-1-1h-3.23a1,1,0,0,1-1-1v-1a1,1,0,0,1,1-1h3.23a1,1,0,0,0,1-1v-2.49a1,1,0,0,1,1-1h.28a1,1,0,0,0,1-1h0a1,1,0,0,0-1-1h-.72a1,1,0,0,1-1-1V439.64a1,1,0,0,0-1-1H49.89A1,1,0,0,0,48.85,439.64Z" style="fill:#f5f5f5"></path><path d="M101.49,439.7v38.43a1,1,0,0,0,1,1h17a1,1,0,0,0,1-1V466.22a1,1,0,0,0-1-1h-3.23a1,1,0,0,1-1-1v-.69a1,1,0,0,1,1.06-1l3.19.06a1,1,0,0,0,1.06-1V459a1,1,0,0,1,1-1h.3a1,1,0,0,0,1-1.06v-.31a1,1,0,0,0-1-1l-.8,0a1,1,0,0,1-1-1V439.64a1,1,0,0,0-1-1l-16.52.06A1,1,0,0,0,101.49,439.7Z" style="fill:#e0e0e0"></path><path d="M102.84,463.72c0,.14-13,.26-29,.26s-29-.12-29-.26,13-.25,29-.25S102.84,463.58,102.84,463.72Z" style="fill:#e0e0e0"></path><path d="M102.84,461.39c0,.14-13,.26-29,.26s-29-.12-29-.26,13-.25,29-.25S102.84,461.25,102.84,461.39Z" style="fill:#e0e0e0"></path><path d="M106.56,455.11c0,.14-13,.26-29,.26s-29-.12-29-.26,13-.25,29-.25S106.56,455,106.56,455.11Z" style="fill:#e0e0e0"></path><path d="M106.92,472.22c0,.14-13,.26-29,.26s-29-.12-29-.26S62,472,78,472,106.92,472.08,106.92,472.22Z" style="fill:#e0e0e0"></path><path d="M56.11,242.61v20.88a1,1,0,0,1-1,1H53.31a1,1,0,0,0-1,1V266a1,1,0,0,0,1,1h1.76a1,1,0,0,1,1,1v13.3a1,1,0,0,0,1,1h69.59a1,1,0,0,0,1-1V269.45a1,1,0,0,0-1-1h-3.23a1,1,0,0,1-1-1v-1a1,1,0,0,1,1-1h3.23a1,1,0,0,0,1-1v-2.49a1,1,0,0,1,1-1h.28a1,1,0,0,0,1-1h0a1,1,0,0,0-1-1h-.73a1,1,0,0,1-1-1V242.61a1,1,0,0,0-1-1H57.15A1,1,0,0,0,56.11,242.61Z" style="fill:#f5f5f5"></path><path d="M108.75,242.67V281.1a1,1,0,0,0,1,1h17a1,1,0,0,0,1-1V269.19a1,1,0,0,0-1-1h-3.23a1,1,0,0,1-1-1v-.7a1,1,0,0,1,1.06-1l3.19.06a1,1,0,0,0,1.06-1v-2.47a1,1,0,0,1,1-1h.3a1,1,0,0,0,1-1.06v-.31a1,1,0,0,0-1-1l-.79,0a1,1,0,0,1-1-1V242.61a1,1,0,0,0-1-1l-16.51.06A1,1,0,0,0,108.75,242.67Z" style="fill:#e0e0e0"></path><path d="M110.1,266.69c0,.15-13,.26-29,.26s-29-.11-29-.26,13-.25,29-.25S110.1,266.55,110.1,266.69Z" style="fill:#e0e0e0"></path><path d="M110.1,264.36c0,.14-13,.26-29,.26s-29-.12-29-.26,13-.25,29-.25S110.1,264.22,110.1,264.36Z" style="fill:#e0e0e0"></path><path d="M113.82,258.08c0,.15-13,.26-29,.26s-29-.11-29-.26,13-.25,29-.25S113.82,257.94,113.82,258.08Z" style="fill:#e0e0e0"></path><path d="M114.18,275.19c0,.14-13,.26-29,.26s-29-.12-29-.26,13-.25,29-.25S114.18,275.05,114.18,275.19Z" style="fill:#e0e0e0"></path><path d="M61.51,282.3v20.89a1,1,0,0,1-1,1H58.72a1,1,0,0,0-1,1v.42a1,1,0,0,0,1,1h1.76a1,1,0,0,1,1,1v13.29a1,1,0,0,0,1,1h69.6a1,1,0,0,0,1-1V309.14a1,1,0,0,0-1-1h-3.24a1,1,0,0,1-1-1v-1a1,1,0,0,1,1-1h3.24a1,1,0,0,0,1-1v-2.5a1,1,0,0,1,1-1h.29a1,1,0,0,0,1-1h0a1,1,0,0,0-1-1h-.73a1,1,0,0,1-1-1V282.3a1,1,0,0,0-1-1H62.55A1,1,0,0,0,61.51,282.3Z" style="fill:#f5f5f5"></path><path d="M114.15,282.36v38.43a1,1,0,0,0,1,1h17a1,1,0,0,0,1-1V308.88a1,1,0,0,0-1-1h-3.24a1,1,0,0,1-1-1v-.7a1,1,0,0,1,1.05-1l3.2.06a1,1,0,0,0,1.05-1v-2.47a1,1,0,0,1,1-1h.31a1,1,0,0,0,1-1.06v-.3a1,1,0,0,0-1-1l-.79,0a1,1,0,0,1-1-1V282.3a1,1,0,0,0-1-1l-16.51.06A1,1,0,0,0,114.15,282.36Z" style="fill:#e0e0e0"></path><path d="M115.51,306.39c0,.14-13,.25-29,.25s-29-.11-29-.25,13-.26,29-.26S115.51,306.25,115.51,306.39Z" style="fill:#e0e0e0"></path><path d="M115.51,304.05c0,.14-13,.26-29,.26s-29-.12-29-.26,13-.25,29-.25S115.51,303.91,115.51,304.05Z" style="fill:#e0e0e0"></path><path d="M119.23,297.78c0,.14-13,.25-29,.25s-29-.11-29-.25,13-.26,29-.26S119.23,297.64,119.23,297.78Z" style="fill:#e0e0e0"></path><path d="M119.59,314.88c0,.14-13,.26-29,.26s-29-.12-29-.26,13-.25,29-.25S119.59,314.74,119.59,314.88Z" style="fill:#e0e0e0"></path><path d="M55.23,321.45v20.89a1,1,0,0,1-1,1H52.44a1,1,0,0,0-1,1v.41a1,1,0,0,0,1,1h1.75a1,1,0,0,1,1,1V360.2a1,1,0,0,0,1,1h69.59a1,1,0,0,0,1-1V348.3a1,1,0,0,0-1-1h-3.23a1,1,0,0,1-1-1v-1a1,1,0,0,1,1-1h3.23a1,1,0,0,0,1-1v-2.49a1,1,0,0,1,1-1h.28a1,1,0,0,0,1-1h0a1,1,0,0,0-1-1h-.72a1,1,0,0,1-1-1V321.45a1,1,0,0,0-1-1H56.27A1,1,0,0,0,55.23,321.45Z" style="fill:#f5f5f5"></path><path d="M107.87,321.52V360a1,1,0,0,0,1,1h17a1,1,0,0,0,1-1V348a1,1,0,0,0-1-1h-3.23a1,1,0,0,1-1-1v-.69a1,1,0,0,1,1.06-1l3.2.06a1,1,0,0,0,1.05-1v-2.47a1,1,0,0,1,1-1h.31a1,1,0,0,0,1-1.06v-.31a1,1,0,0,0-1-1l-.8,0a1,1,0,0,1-1-1V321.46a1,1,0,0,0-1-1l-16.52.06A1,1,0,0,0,107.87,321.52Z" style="fill:#e0e0e0"></path><path d="M109.23,345.54c0,.14-13,.26-29,.26s-29-.12-29-.26,13-.25,29-.25S109.23,345.4,109.23,345.54Z" style="fill:#e0e0e0"></path><path d="M109.23,343.21c0,.14-13,.26-29,.26s-29-.12-29-.26,13-.25,29-.25S109.23,343.07,109.23,343.21Z" style="fill:#e0e0e0"></path><path d="M113,336.93c0,.14-13,.26-29,.26s-29-.12-29-.26,13-.25,29-.25S113,336.79,113,336.93Z" style="fill:#e0e0e0"></path><path d="M113.3,354c0,.14-13,.25-29,.25s-29-.11-29-.25,13-.25,29-.25S113.3,353.9,113.3,354Z" style="fill:#e0e0e0"></path><rect x="381.68" y="62.22" width="17.23" height="53.81" style="fill:#f5f5f5"></rect><rect x="407.4" y="74.51" width="17.23" height="41.52" style="fill:#f5f5f5"></rect><rect x="431.22" y="91.38" width="17.23" height="24.65" style="fill:#f5f5f5"></rect></g><g id="freepik--Floor--inject-100"><path d="M711.37,480.19c0,.15-150.64.26-336.43.26s-336.47-.11-336.47-.26,150.61-.26,336.47-.26S711.37,480.05,711.37,480.19Z" style="fill:#263238"></path></g><g id="freepik--Chart--inject-100"><path d="M598.15,227.74a37,37,0,1,1,37.6,36.58A37.15,37.15,0,0,1,598.15,227.74Zm54.7-.89a17.7,17.7,0,1,0-17.41,18.07A17.76,17.76,0,0,0,652.85,226.85Z" style="fill:#455a64"></path><path d="M598.15,227.74A37.15,37.15,0,0,1,634.56,190l.31,19.4a17.78,17.78,0,0,0,.57,35.56l.31,19.4A37.14,37.14,0,0,1,598.15,227.74Z" style="fill:#407BFF"></path><path d="M631.24,187a42.28,42.28,0,0,1,43.3,42.12l-22.59.37C651.76,218,643,210.78,631.62,211Z" style="fill:#263238"></path></g><g id="freepik--Coins--inject-100"><circle cx="287.11" cy="87.99" r="27.41" transform="translate(193.97 373.47) rotate(-88.97)" style="fill:#407BFF"></circle><g style="opacity:0.1"><path d="M292.27,61.08a27.4,27.4,0,0,0-32.08,21.75S278.94,87.3,285,80.56,292.27,61.08,292.27,61.08Z" style="fill:#fff"></path></g><path d="M307.22,91.41A20.83,20.83,0,1,1,290.69,67,20.83,20.83,0,0,1,307.22,91.41Z" style="fill:#407BFF"></path><g style="opacity:0.2"><path d="M307.22,91.41A20.83,20.83,0,1,1,290.69,67,20.83,20.83,0,0,1,307.22,91.41Z"></path></g><path d="M307.64,92.37a20.56,20.56,0,1,1-16.32-24.06A20.56,20.56,0,0,1,307.64,92.37Z" style="fill:#407BFF"></path><g style="opacity:0.2"><path d="M307.64,92.37a20.56,20.56,0,1,1-16.32-24.06A20.56,20.56,0,0,1,307.64,92.37Z" style="fill:#fff"></path></g><path d="M288.59,86.91l1-5.17h0a10.46,10.46,0,0,1,2.6,1.24,8.42,8.42,0,0,1,1.13,1.06l.1-.15,1.16-1.71.26-.39-.73-1.14-.48.11a10,10,0,0,0-3.54-1.8l.55-2.84-.75-.88-.14.71-1.21-.23L288,78.62c-4.06-.38-6.39,1.53-6.89,4.14-.69,3.56,2.18,5.07,4.89,6.3l-1,5.12a10,10,0,0,1-4.75-2.93l-1.64,2.37a11.4,11.4,0,0,0,5.86,3.32l-.41,2.15-1-.18.86.87,2.1.41.55-2.87c4.1.36,6.45-1.52,7-4.13C294.22,89.63,291.3,88.14,288.59,86.91Zm-2-.94c-1.4-.72-2.39-1.5-2.15-2.73s1.16-1.9,3-1.83Zm3-4.23Zm-2.45,12.79L288,90c1.45.73,2.46,1.54,2.22,2.79C290,93.89,289.05,94.61,287.13,94.53Z" style="fill:#407BFF"></path><g style="opacity:0.30000000000000004"><path d="M288.59,86.91l1-5.17h0a10.46,10.46,0,0,1,2.6,1.24,8.42,8.42,0,0,1,1.13,1.06l.1-.15,1.16-1.71.26-.39-.73-1.14-.48.11a10,10,0,0,0-3.54-1.8l.55-2.84-.75-.88-.14.71-1.21-.23L288,78.62c-4.06-.38-6.39,1.53-6.89,4.14-.69,3.56,2.18,5.07,4.89,6.3l-1,5.12a10,10,0,0,1-4.75-2.93l-1.64,2.37a11.4,11.4,0,0,0,5.86,3.32l-.41,2.15-1-.18.86.87,2.1.41.55-2.87c4.1.36,6.45-1.52,7-4.13C294.22,89.63,291.3,88.14,288.59,86.91Zm-2-.94c-1.4-.72-2.39-1.5-2.15-2.73s1.16-1.9,3-1.83Zm3-4.23Zm-2.45,12.79L288,90c1.45.73,2.46,1.54,2.22,2.79C290,93.89,289.05,94.61,287.13,94.53Z"></path></g><path d="M285.86,96.45l-.55,2.87-2.1-.4.55-2.84a11.45,11.45,0,0,1-5.87-3.33l1.65-2.37a9.93,9.93,0,0,0,4.75,2.93l1-5.12c-2.71-1.23-5.58-2.74-4.9-6.3.5-2.61,2.83-4.52,6.9-4.14l.56-2.89,2.09.4-.54,2.84a11.32,11.32,0,0,1,4.9,2.56L292.73,83a10.7,10.7,0,0,0-3.88-2.17l-1,5.17c2.71,1.23,5.63,2.72,4.95,6.28C292.31,94.93,290,96.81,285.86,96.45Zm0-11.35.88-4.56c-1.88-.07-2.82.71-3,1.83S284.46,84.38,285.86,85.1Zm3.63,6.82c.24-1.25-.77-2.06-2.23-2.79l-.87,4.53C288.32,93.74,289.28,93,289.49,91.92Z" style="fill:#407BFF"></path><path d="M261.76,96.22s0-.07-.08-.23l-.21-.68a9.19,9.19,0,0,1-.28-1.08,13.8,13.8,0,0,1-.3-1.46c-.05-.27-.09-.56-.14-.85s-.07-.61-.1-.93c-.09-.65-.11-1.34-.14-2.07a29.24,29.24,0,0,1,.3-4.73,30,30,0,0,1,1.11-4.61c.25-.68.47-1.34.74-1.93.13-.3.24-.59.38-.86l.38-.78c.23-.5.5-.92.71-1.3s.42-.7.6-.95l.39-.59a1.58,1.58,0,0,1,.16-.2,2.08,2.08,0,0,1-.12.22l-.37.61c-.16.26-.35.58-.56,1s-.46.81-.68,1.31l-.37.77c-.13.27-.24.57-.36.86-.26.59-.48,1.25-.72,1.93a28.1,28.1,0,0,0-1.4,9.28c0,.72,0,1.41.11,2,0,.32.05.63.1.93s.08.58.12.85c.07.54.18,1,.27,1.45a10.08,10.08,0,0,0,.25,1.09c.07.28.12.51.17.69A1.12,1.12,0,0,1,261.76,96.22Z" style="fill:#fff"></path><path d="M281.71,84.37a1.85,1.85,0,0,1-.48-.7,3.26,3.26,0,0,1-.2-2,3.19,3.19,0,0,1,1.07-1.75,1.64,1.64,0,0,1,.74-.43s-.27.18-.64.53a3.44,3.44,0,0,0-1,1.69,3.4,3.4,0,0,0,.13,2C281.54,84.09,281.74,84.35,281.71,84.37Z" style="fill:#fff"></path><path d="M287.78,77.41a2,2,0,0,1,.07-.86c.09-.46.2-.83.26-.82a2,2,0,0,1-.06.86C288,77.05,287.84,77.42,287.78,77.41Z" style="fill:#fff"></path><path d="M292.64,66.85a3.3,3.3,0,0,1-.66-.15c-.2-.06-.46-.13-.76-.19s-.63-.15-1-.2-.79-.14-1.24-.19S288,66,287.53,66a23,23,0,0,0-3.29.07,22.76,22.76,0,0,0-3.25.58c-.49.14-.95.26-1.38.41s-.82.28-1.18.42-.67.29-.95.41a6.13,6.13,0,0,0-.71.33,3.28,3.28,0,0,1-.61.27,4,4,0,0,1,.57-.34c.19-.11.42-.24.7-.37s.58-.29.95-.43.74-.31,1.18-.45.89-.29,1.38-.43a21.56,21.56,0,0,1,3.28-.6,23.37,23.37,0,0,1,3.32-.06c.51,0,1,.08,1.45.15s.87.14,1.25.21.71.17,1,.24.55.15.76.22Z" style="fill:#fff"></path><path d="M285.49,114.15l-.51,0a13.49,13.49,0,0,1-1.38,0,20.2,20.2,0,0,1-4.47-.8,19.82,19.82,0,0,1-4.18-1.81c-.51-.29-.9-.54-1.17-.73a3.93,3.93,0,0,1-.4-.31,1.65,1.65,0,0,1,.45.24c.27.17.68.4,1.19.68a22.82,22.82,0,0,0,4.16,1.73,22.5,22.5,0,0,0,4.43.85c.58.06,1.05.08,1.37.09A2.1,2.1,0,0,1,285.49,114.15Z" style="fill:#fff"></path><path d="M293.52,233.61a16.87,16.87,0,1,1-20.77-11.75A16.87,16.87,0,0,1,293.52,233.61Z" style="fill:#407BFF"></path><g style="opacity:0.1"><path d="M272.75,221.86A16.87,16.87,0,0,0,261,242.63s11.57-2.66,13-8S272.75,221.86,272.75,221.86Z" style="fill:#fff"></path></g><path d="M289.29,234.51a12.83,12.83,0,1,1-15.79-8.94A12.83,12.83,0,0,1,289.29,234.51Z" style="fill:#407BFF"></path><g style="opacity:0.2"><path d="M289.29,234.51a12.83,12.83,0,1,1-15.79-8.94A12.83,12.83,0,0,1,289.29,234.51Z"></path></g><path d="M289.78,234.92a12.66,12.66,0,1,1-15.57-8.81A12.66,12.66,0,0,1,289.78,234.92Z" style="fill:#407BFF"></path><g style="opacity:0.2"><path d="M289.78,234.92a12.66,12.66,0,1,1-15.57-8.81A12.66,12.66,0,0,1,289.78,234.92Z" style="fill:#fff"></path></g><path d="M277.78,237.11l-.87-3.12h0a6.59,6.59,0,0,1,1.78,0,4.9,4.9,0,0,1,.91.28l0-.11.17-1.26,0-.29-.71-.43-.24.2a5.89,5.89,0,0,0-2.44,0l-.47-1.71-.66-.29.12.43-.73.21.48,1.74c-2.34.9-3.11,2.6-2.67,4.17.6,2.15,2.59,2.2,4.42,2.14l.86,3.09a6.13,6.13,0,0,1-3.42-.32l-.26,1.76a7,7,0,0,0,4.14.23l.36,1.3-.6.17.72.25,1.26-.36-.48-1.73c2.36-.92,3.14-2.6,2.71-4.17C281.63,237.08,279.61,237.05,277.78,237.11Zm-1.36,0c-1,0-1.73-.17-1.93-.91s.12-1.37,1.17-1.84Zm.49-3.15Zm2.15,7.73L278.3,239c1,0,1.78.18,2,.93S280.14,241.24,279.06,241.72Z" style="fill:#407BFF"></path><g style="opacity:0.30000000000000004"><path d="M277.78,237.11l-.87-3.12h0a6.59,6.59,0,0,1,1.78,0,4.9,4.9,0,0,1,.91.28l0-.11.17-1.26,0-.29-.71-.43-.24.2a5.89,5.89,0,0,0-2.44,0l-.47-1.71-.66-.29.12.43-.73.21.48,1.74c-2.34.9-3.11,2.6-2.67,4.17.6,2.15,2.59,2.2,4.42,2.14l.86,3.09a6.13,6.13,0,0,1-3.42-.32l-.26,1.76a7,7,0,0,0,4.14.23l.36,1.3-.6.17.72.25,1.26-.36-.48-1.73c2.36-.92,3.14-2.6,2.71-4.17C281.63,237.08,279.61,237.05,277.78,237.11Zm-1.36,0c-1,0-1.73-.17-1.93-.91s.12-1.37,1.17-1.84Zm.49-3.15Zm2.15,7.73L278.3,239c1,0,1.78.18,2,.93S280.14,241.24,279.06,241.72Z"></path></g><path d="M278.88,243.13l.48,1.73-1.26.35-.48-1.72a7,7,0,0,1-4.14-.23l.26-1.75a6.22,6.22,0,0,0,3.42.31l-.86-3.09c-1.83.06-3.83,0-4.42-2.14-.44-1.57.32-3.27,2.67-4.17l-.48-1.74,1.26-.35.48,1.71a6.94,6.94,0,0,1,3.4.07l-.2,1.74a6.76,6.76,0,0,0-2.74-.14l.87,3.12c1.83-.05,3.85,0,4.45,2.12C282,240.52,281.24,242.2,278.88,243.13Zm-3.1-6.27-.76-2.75c-1,.47-1.36,1.16-1.17,1.84S274.81,236.85,275.78,236.86Zm3.87,2.77c-.21-.75-1-.92-2-.93l.76,2.74C279.5,241,279.83,240.3,279.65,239.63Z" style="fill:#407BFF"></path><path d="M265.53,249.58s0,0-.11-.1l-.3-.32a6.92,6.92,0,0,1-.46-.52c-.16-.21-.37-.44-.56-.72l-.31-.43-.31-.49c-.22-.33-.42-.71-.64-1.1a16.53,16.53,0,0,1-1.77-5.54c-.05-.45-.11-.87-.12-1.27,0-.2,0-.39,0-.57V238a8.35,8.35,0,0,1,0-.91c0-.27,0-.5.06-.69l.06-.43,0-.15s0,0,0,.15,0,.26,0,.44a6.07,6.07,0,0,0,0,.68c0,.27,0,.58,0,.91,0,.17,0,.35,0,.53s0,.38,0,.58c0,.39.08.81.13,1.25a19.32,19.32,0,0,0,.65,2.83,19,19,0,0,0,1.11,2.67c.22.4.41.77.63,1.11.1.16.2.33.3.48l.3.44c.19.28.39.51.55.73s.31.39.43.53.21.25.29.33Z" style="fill:#fff"></path><path d="M273.29,237.59a1,1,0,0,1-.46-.25,2.07,2.07,0,0,1-.67-1.08,2,2,0,0,1,.12-1.26,1,1,0,0,1,.29-.43s-.1.17-.21.47a2.08,2.08,0,0,0-.08,1.19,2.24,2.24,0,0,0,.61,1C273.12,237.49,273.3,237.57,273.29,237.59Z" style="fill:#fff"></path><path d="M274.74,232.1a1.44,1.44,0,0,1-.2-.5,1.16,1.16,0,0,1-.08-.52,1.25,1.25,0,0,1,.2.49A1.2,1.2,0,0,1,274.74,232.1Z" style="fill:#fff"></path><path d="M274.53,224.94a1.81,1.81,0,0,1-.4.1l-.47.1-.62.17-.73.23c-.27.09-.54.21-.83.33a14.92,14.92,0,0,0-1.8.94,14.66,14.66,0,0,0-1.63,1.2c-.23.21-.46.4-.65.6s-.38.39-.54.56-.29.34-.41.48l-.3.38c-.16.21-.26.32-.26.32a1.86,1.86,0,0,1,.22-.35,4.41,4.41,0,0,1,.28-.39c.12-.15.25-.32.41-.5s.33-.37.53-.57.41-.4.64-.62a14.13,14.13,0,0,1,1.65-1.22,14.4,14.4,0,0,1,1.82-.94c.29-.12.57-.23.83-.31a7.72,7.72,0,0,1,.75-.23c.23-.07.44-.1.62-.14a4.28,4.28,0,0,1,.48-.09Z" style="fill:#fff"></path><path d="M283.51,253l-.26.16c-.18.09-.44.22-.77.36a12.19,12.19,0,0,1-2.69.78,12.37,12.37,0,0,1-2.8.15l-.84-.09-.31-.06a1,1,0,0,1,.31,0c.2,0,.49,0,.85,0a13.69,13.69,0,0,0,2.77-.18,14.34,14.34,0,0,0,2.67-.74c.34-.13.6-.25.78-.33A1.43,1.43,0,0,1,283.51,253Z" style="fill:#fff"></path><path d="M447.43,210.37a11.44,11.44,0,1,1-14.07-8A11.44,11.44,0,0,1,447.43,210.37Z" style="fill:#407BFF"></path><g style="opacity:0.1"><path d="M433.36,202.4a11.44,11.44,0,0,0-8,14.08s7.84-1.8,8.84-5.44S433.36,202.4,433.36,202.4Z" style="fill:#fff"></path></g><path d="M444.57,211a8.7,8.7,0,1,1-10.7-6.05A8.71,8.71,0,0,1,444.57,211Z" style="fill:#407BFF"></path><g style="opacity:0.2"><path d="M444.57,211a8.7,8.7,0,1,1-10.7-6.05A8.71,8.71,0,0,1,444.57,211Z"></path></g><circle cx="436.63" cy="213.55" r="8.58" transform="translate(-44.33 143.37) rotate(-17.76)" style="fill:#407BFF"></circle><g style="opacity:0.2"><circle cx="436.63" cy="213.55" r="8.58" transform="translate(-44.33 143.37) rotate(-17.76)" style="fill:#fff"></circle></g><path d="M436.77,212.74l-.59-2.11h0a4.37,4.37,0,0,1,1.2,0,3.45,3.45,0,0,1,.62.18v-.07l.12-.85,0-.2-.48-.29-.16.13a4.21,4.21,0,0,0-1.66,0l-.32-1.16-.44-.19.08.29-.5.14.33,1.18c-1.59.61-2.11,1.76-1.81,2.83.4,1.46,1.76,1.49,3,1.45l.58,2.09a4.23,4.23,0,0,1-2.32-.21l-.18,1.19a4.79,4.79,0,0,0,2.81.16l.25.87-.41.12.48.17.86-.24L438,217c1.6-.63,2.13-1.77,1.83-2.84C439.38,212.72,438,212.7,436.77,212.74Zm-.92,0c-.66,0-1.18-.12-1.32-.62s.09-.92.8-1.24Zm.33-2.13Zm1.45,5.23-.51-1.85c.67,0,1.2.12,1.35.63S438.36,215.54,437.63,215.86Z" style="fill:#407BFF"></path><g style="opacity:0.30000000000000004"><path d="M436.77,212.74l-.59-2.11h0a4.37,4.37,0,0,1,1.2,0,3.45,3.45,0,0,1,.62.18v-.07l.12-.85,0-.2-.48-.29-.16.13a4.21,4.21,0,0,0-1.66,0l-.32-1.16-.44-.19.08.29-.5.14.33,1.18c-1.59.61-2.11,1.76-1.81,2.83.4,1.46,1.76,1.49,3,1.45l.58,2.09a4.23,4.23,0,0,1-2.32-.21l-.18,1.19a4.79,4.79,0,0,0,2.81.16l.25.87-.41.12.48.17.86-.24L438,217c1.6-.63,2.13-1.77,1.83-2.84C439.38,212.72,438,212.7,436.77,212.74Zm-.92,0c-.66,0-1.18-.12-1.32-.62s.09-.92.8-1.24Zm.33-2.13Zm1.45,5.23-.51-1.85c.67,0,1.2.12,1.35.63S438.36,215.54,437.63,215.86Z"></path></g><path d="M437.51,216.82l.33,1.17-.86.24-.32-1.16a4.78,4.78,0,0,1-2.81-.16l.18-1.19a4.11,4.11,0,0,0,2.31.21l-.58-2.09c-1.24,0-2.59,0-3-1.45-.29-1.07.22-2.22,1.82-2.83l-.33-1.18.86-.24.32,1.16a4.67,4.67,0,0,1,2.3,0l-.13,1.18a4.39,4.39,0,0,0-1.86-.09l.59,2.11c1.24,0,2.61,0,3,1.43C439.64,215.05,439.11,216.19,437.51,216.82Zm-2.1-4.25-.52-1.86c-.71.32-.92.78-.79,1.24S434.75,212.56,435.41,212.57Zm2.62,1.88c-.14-.51-.67-.63-1.35-.63l.52,1.86C437.93,215.35,438.16,214.9,438,214.45Z" style="fill:#407BFF"></path><path d="M428.46,221.2l-.08-.07-.2-.22c-.09-.09-.19-.21-.31-.35s-.25-.3-.38-.49-.13-.19-.21-.3l-.21-.33c-.15-.22-.28-.48-.43-.74a12.43,12.43,0,0,1-.77-1.83,11.46,11.46,0,0,1-.43-1.93c0-.3-.08-.59-.09-.86s0-.26,0-.39v-.36a5.92,5.92,0,0,1,0-.62,4.31,4.31,0,0,1,.05-.46l0-.3c0-.06,0-.1,0-.1a.87.87,0,0,1,0,.11l0,.29c0,.13,0,.28,0,.46a6.2,6.2,0,0,0,0,.62v.36c0,.13,0,.26,0,.39s.05.55.08.85a14.12,14.12,0,0,0,.44,1.92,13.88,13.88,0,0,0,.76,1.81q.21.41.42.75l.21.33.2.29c.13.19.26.35.37.5l.3.36.19.22Z" style="fill:#fff"></path><path d="M433.72,213.07a.85.85,0,0,1-.31-.18,1.34,1.34,0,0,1-.45-.72,1.39,1.39,0,0,1,.07-.86.86.86,0,0,1,.2-.29,3.18,3.18,0,0,0-.14.31,1.54,1.54,0,0,0,0,.82,1.57,1.57,0,0,0,.41.7C433.61,213,433.73,213.06,433.72,213.07Z" style="fill:#fff"></path><path d="M434.71,209.34s-.09-.14-.14-.33a1,1,0,0,1-.06-.36s.09.14.14.33A1,1,0,0,1,434.71,209.34Z" style="fill:#fff"></path><path d="M434.56,204.49l-.27.07-.32.07-.42.11a4,4,0,0,0-.49.16c-.18.06-.37.14-.56.22a10.15,10.15,0,0,0-1.22.63,10.67,10.67,0,0,0-1.11.82,5.89,5.89,0,0,0-.44.41,4.12,4.12,0,0,0-.36.38c-.11.11-.2.23-.29.33l-.2.25a1.9,1.9,0,0,1-.18.22l.15-.24.2-.26c.08-.1.16-.22.27-.34s.22-.26.36-.39.28-.27.44-.42a9.43,9.43,0,0,1,1.11-.83,9.71,9.71,0,0,1,1.23-.64l.57-.21.51-.15.42-.1.33-.06Z" style="fill:#fff"></path><path d="M440.65,223.5a.6.6,0,0,1-.18.11c-.12.07-.3.15-.52.25a8.25,8.25,0,0,1-3.72.63l-.57-.06-.21-.05h.21c.14,0,.33,0,.57,0a10.33,10.33,0,0,0,1.88-.13,8.93,8.93,0,0,0,1.82-.5l.53-.22Z" style="fill:#fff"></path></g><g id="freepik--Bars--inject-100"><rect x="331.95" y="337.87" width="65.86" height="141.81" style="fill:#407BFF"></rect><g style="opacity:0.30000000000000004"><rect x="377.39" y="337.87" width="20.42" height="141.81"></rect></g><path d="M377.39,479.68c-.15,0-.28-31.39-.28-70.1s.13-70.11.28-70.11.28,31.39.28,70.11S377.55,479.68,377.39,479.68Z" style="fill:#263238"></path><rect x="251.57" y="287.88" width="65.86" height="191.8" style="fill:#407BFF"></rect><g style="opacity:0.30000000000000004"><rect x="297.02" y="287.88" width="20.42" height="191.8"></rect></g><path d="M297,479.68c-.16,0-.28-42.45-.28-94.81S296.86,290,297,290s.28,42.45.28,94.83S297.17,479.68,297,479.68Z" style="fill:#263238"></path><rect x="413.21" y="379.16" width="65.86" height="100.53" style="fill:#407BFF"></rect><g style="opacity:0.30000000000000004"><rect x="458.65" y="379.16" width="20.42" height="100.53"></rect></g><path d="M458.65,479.68c-.16,0-.28-22.25-.28-49.69s.12-49.7.28-49.7.28,22.25.28,49.7S458.8,479.68,458.65,479.68Z" style="fill:#263238"></path><rect x="492.7" y="424.83" width="65.86" height="54.85" style="fill:#407BFF"></rect><g style="opacity:0.30000000000000004"><rect x="538.15" y="424.83" width="20.42" height="54.85"></rect></g><path d="M538.15,479.68c-.16,0-.28-12.14-.28-27.11s.12-27.12.28-27.12.28,12.14.28,27.12S538.3,479.68,538.15,479.68Z" style="fill:#263238"></path><rect x="573.08" y="443.81" width="65.86" height="35.87" style="fill:#407BFF"></rect><g style="opacity:0.30000000000000004"><rect x="618.52" y="443.81" width="20.42" height="35.87"></rect></g><path d="M618.52,479.68c-.15,0-.28-7.94-.28-17.73s.13-17.74.28-17.74.28,7.94.28,17.74S618.68,479.68,618.52,479.68Z" style="fill:#263238"></path><rect x="171.2" y="224.82" width="65.86" height="254.82" style="fill:#407BFF"></rect><g style="opacity:0.30000000000000004"><rect x="216.64" y="224.82" width="20.42" height="254.82"></rect></g><path d="M216.64,480.68c-.15,0-.28-56.63-.28-126.48s.13-126.5.28-126.5.28,56.63.28,126.5S216.79,480.68,216.64,480.68Z" style="fill:#263238"></path><rect x="90.82" y="173.1" width="65.86" height="307.58" style="fill:#407BFF"></rect><g style="opacity:0.30000000000000004"><rect x="136.26" y="173.1" width="20.42" height="307.58"></rect></g><path d="M136.26,480.68c-.15,0-.28-68.08-.28-152s.13-152.06.28-152.06.28,68.06.28,152.06S136.42,480.68,136.26,480.68Z" style="fill:#263238"></path></g><g id="freepik--Target--inject-100"><circle cx="119.62" cy="111.15" r="41.86" transform="translate(-41.75 86.17) rotate(-34.1)" style="fill:#407BFF"></circle><circle cx="119.62" cy="111.15" r="41.86" transform="translate(-41.75 86.17) rotate(-34.1)" style="opacity:0.30000000000000004"></circle><circle cx="119.62" cy="106.53" r="41.86" transform="translate(-39.16 85.38) rotate(-34.1)" style="fill:#407BFF"></circle><circle cx="119.62" cy="106.53" r="28.04" style="fill:#fff"></circle><circle cx="119.62" cy="106.53" r="13.72" transform="translate(-40.29 115.78) rotate(-45)" style="fill:#407BFF"></circle><polygon points="153.27 71.08 152.13 62.15 161.23 52.42 161.88 62.06 153.27 71.08" style="fill:#455a64"></polygon><polygon points="172.78 63.98 163.56 63.23 154.32 72.12 163.56 73.11 172.78 63.98" style="fill:#455a64"></polygon><path d="M121.45,106.33l32-24.44a39.77,39.77,0,0,0-4-4.89l-28,27.15Z" style="opacity:0.30000000000000004"></path><path d="M162.71,59.67,148,74.55l-23.29,23.6-5.36,5.43c-1.7,1.72,1,4.37,2.65,2.65l14.69-14.88L160,67.75l5.36-5.43c1.69-1.72-1-4.37-2.66-2.65Z" style="fill:#263238"></path><path d="M119.62,54c-.15,0-.26-8-.26-17.89s.11-17.89.26-17.89.26,8,.26,17.89S119.76,54,119.62,54Z" style="fill:#263238"></path><path d="M146.65,35.33c.11.09-2.75,4.11-6.39,9s-6.69,8.75-6.81,8.66,2.75-4.1,6.39-9S146.53,35.25,146.65,35.33Z" style="fill:#263238"></path><path d="M92.26,34.51c.13-.07,2.61,4.19,5.55,9.51s5.21,9.7,5.09,9.77-2.61-4.19-5.55-9.52S92.14,34.58,92.26,34.51Z" style="fill:#263238"></path></g><g id="freepik--speech-bubble--inject-100"><path d="M539.06,144.21l8-.93a25.69,25.69,0,1,0-5.17-7.6v0Z" style="fill:#fff"></path><path d="M539.06,144.21s0-.17.15-.53l.51-1.63c.46-1.48,1.14-3.63,2-6.42l.06-.2.14.16h0l-.19.12a25.66,25.66,0,0,1-2.19-12.56,25.13,25.13,0,0,1,2-8,25.84,25.84,0,0,1,49.4,6.76,26.5,26.5,0,0,1-1.21,11.86,25.65,25.65,0,0,1-5.91,9.53,26.21,26.21,0,0,1-8.6,5.82,25.86,25.86,0,0,1-17.44.85A25.56,25.56,0,0,1,547,143.36l.09,0-6,.63-1.52.15a4.81,4.81,0,0,1-.49,0l.53-.08,1.54-.2,5.9-.76h.05l0,0a25.54,25.54,0,0,0,36.37-.23,25.15,25.15,0,0,0,5.78-9.37A26,26,0,0,0,590.44,122a25.4,25.4,0,0,0-24.6-22.07A25.47,25.47,0,0,0,547,107.69a25.13,25.13,0,0,0-5.06,7.62,24.66,24.66,0,0,0-2,7.88A25.67,25.67,0,0,0,542,135.63l.34.77-.53-.65h0l.2,0-2.14,6.3c-.25.71-.43,1.25-.57,1.64Z" style="fill:#263238"></path><polygon points="552.68 126.25 555.84 122.87 562.34 128.26 574.31 115.93 577.45 119.1 562.08 134.58 552.68 126.25" style="fill:#407BFF"></polygon></g><g id="freepik--Character--inject-100"><path d="M425.07,161.84a30.92,30.92,0,0,0-4.85-4.29,11.52,11.52,0,0,0-2.92-1.11s-14.87-4.1-18-4.38-2.81,2.28.09,2.76,9.08,3,9.08,3a1.69,1.69,0,0,0-1.36,1.54A1.44,1.44,0,0,0,408,161a4.06,4.06,0,0,0-.82,1.76,4.12,4.12,0,0,0,.72,1.74s-1.08.88-.74,1.87A8.41,8.41,0,0,0,409,168.7s6.36,4,7.73,4.13,3,.41,3,.41l2.24,1.62,6-9.41A28.91,28.91,0,0,0,425.07,161.84Z" style="fill:#ffbf9d"></path><path d="M408.47,157.74a5.84,5.84,0,0,0,1.29.35,6,6,0,0,0,1.32.18,5.09,5.09,0,0,0-1.28-.35A5.36,5.36,0,0,0,408.47,157.74Z" style="fill:#ff9a6c"></path><path d="M407.85,160.92a6.39,6.39,0,0,0,1.25.41,7.69,7.69,0,0,0,1.27.35,3.89,3.89,0,0,0-1.21-.5A4.5,4.5,0,0,0,407.85,160.92Z" style="fill:#ff9a6c"></path><path d="M407.49,163.94a10.67,10.67,0,0,0,1.35.58,10,10,0,0,0,1.36.54,4.52,4.52,0,0,0-1.28-.69A5.11,5.11,0,0,0,407.49,163.94Z" style="fill:#ff9a6c"></path><path d="M535.38,308.42s-2.65-24.28-8.33-27-13.58-4.47-15.73-.83a42.88,42.88,0,0,0-5.24,14.92c-.86,5.81-.37,14.69-.37,14.69l6.48-.72s-.32-24.21,1.65-27.78,11.95-.71,13,3.6S530.37,309,530.37,309Z" style="fill:#455a64"></path><path d="M558,342.67c-.3-10-1.26-32.11-1.69-41.82a4.92,4.92,0,0,0-5-4.72l-59.58.36a4.93,4.93,0,0,0-4.9,4.79l-1.17,41.14a5,5,0,0,0,4.92,5.08l62.42.25A4.92,4.92,0,0,0,558,342.67Z" style="fill:#455a64"></path><path d="M491,311.58s0,.15,0,.44v1.33c0,1.19,0,2.92,0,5.14,0,4.5.07,11,.12,19,0,.51,0,1,0,1.53a2.88,2.88,0,0,0,.35,1.58,2.65,2.65,0,0,0,1.22,1.12,3.57,3.57,0,0,0,1.66.25h6.82l15,0,16.6,0,8.79,0h5.62a5.46,5.46,0,0,0,1.19-.07,2.77,2.77,0,0,0,1.86-1.51,2.69,2.69,0,0,0,.25-1c0-.36,0-.67,0-1,0-.65,0-1.3,0-1.95,0-1.3-.05-2.59-.08-3.87q-.09-3.84-.16-7.58c-.11-5-.22-9.79-.32-14.39v-.22h-.22c-17.12,1.05-31.8,1.33-42.19,1.38-5.2,0-9.32,0-12.15,0l-3.25,0H491l.29,0,.85,0,3.21.09c2.83.07,6.95.14,12.15.15,10.4,0,25.09-.2,42.22-1.22l-.23-.2c.1,4.6.2,9.41.3,14.39q.07,3.73.15,7.58,0,1.92.09,3.87c0,.65,0,1.3,0,1.95a3.79,3.79,0,0,1-.2,1.83,2.3,2.3,0,0,1-1.57,1.26,4.63,4.63,0,0,1-1.08.07h-1.13l-4.49,0-8.79,0-16.61.06-15,.07-6.81,0a3.17,3.17,0,0,1-1.52-.2,2.41,2.41,0,0,1-1.08-1,2.61,2.61,0,0,1-.31-1.41c0-.51,0-1,0-1.51-.12-8-.22-14.44-.28-18.92,0-2.24-.08-4-.1-5.18l0-1.35C491,311.75,491,311.58,491,311.58Z" style="fill:#263238"></path><path d="M508.09,338s-.37,0-1-.15a5.25,5.25,0,0,1-2.58-1.42,5.42,5.42,0,0,1-1.45-4.33c0-1.88,0-4,0-6.35,0-1.18,0-2.41,0-3.7a5.26,5.26,0,0,1,1.06-3.64,5,5,0,0,1,3.54-1.88c1.45,0,3,0,4.53-.05l20.24-.16a4.91,4.91,0,0,1,5,4.72q0,1.29,0,2.55c0,1.7,0,3.36,0,5,0,.81,0,1.62,0,2.41a19.9,19.9,0,0,1,0,2.33,4.94,4.94,0,0,1-4.27,4.22c-.68.07-1.41,0-2.09.06l-7.69.1-11.15.17-3,.07-.79,0-.27,0,.27,0h.79l3,0,11.14,0,7.69,0c.7,0,1.38,0,2.13-.05a5.41,5.41,0,0,0,2.12-.73,5.31,5.31,0,0,0,2.52-3.81,21.28,21.28,0,0,0,.05-2.39c0-.8,0-1.6,0-2.42,0-1.63,0-3.29,0-5,0-.85,0-1.7,0-2.57a5.35,5.35,0,0,0-5.41-5.15l-20.23.2c-1.56,0-3.06,0-4.56.07a5.31,5.31,0,0,0-3.8,2,5.6,5.6,0,0,0-1.11,3.88c0,1.28,0,2.51.05,3.69q0,3.53.09,6.35c0,.46,0,.91.05,1.36a5.92,5.92,0,0,0,.31,1.24,5.33,5.33,0,0,0,1.22,1.85A5.1,5.1,0,0,0,507,338,4,4,0,0,0,508.09,338Z" style="fill:#263238"></path><g style="opacity:0.30000000000000004"><path d="M548.64,341.58a95.22,95.22,0,0,1-54.55.13Z"></path></g><rect x="512.86" y="318.68" width="11.02" height="3.99" rx="1.81" transform="translate(1039.65 636.6) rotate(179.48)" style="fill:#e0e0e0"></rect><path d="M515.19,271.34a17.27,17.27,0,0,0-2.72,3c-.7,1.24-1.94,6.6-1.94,6.6s1,.89,2.77-1.93a26.43,26.43,0,0,0,2.29-4.25Z" style="fill:#ffbf9d"></path><path d="M524,260.7l-2.36,4.16-6.52,6.59-2.45,9.77a4.3,4.3,0,0,0,.34,3.07,1.58,1.58,0,0,0,.65.73c.73.3,2.8-.75,2.8-.75s1.5,1.86,3.1.76c0,0,2.32,1.19,3.61,0,0,0,1.47,1.16,2.56.44s4.22-5.29,4.22-5.29l4.2-15.06Z" style="fill:#ffbf9d"></path><path d="M539.31,178.34a10.62,10.62,0,0,1,4.36,8.17c.17,4.1,3.25,31.92,3,39.4s-13,42.91-13,42.91l-14.07-4.24L531.73,225l-1.2-24.87Z" style="fill:#ebebeb"></path><path d="M514.63,117.16a3.88,3.88,0,0,0-3.95-2.09,5.31,5.31,0,0,0-6.51-.1,4.85,4.85,0,0,0-4.64-.25,4.78,4.78,0,0,0-2.6,3.82,4.07,4.07,0,0,0-4.18,1.91,4,4,0,0,0,.52,4.54,3.75,3.75,0,0,0,1.33,7.34l19.18-10.81A3.83,3.83,0,0,0,514.63,117.16Z" style="fill:#263238"></path><path d="M492.16,153.1c.09-4.12,1-12.6,1.88-20.26a16,16,0,0,1,16.49-14.07l.83,0c8.94.83,13.22,8.81,12.14,17.65L521,164.3l-17.29,15.59-3.76-11,.6-5.61S492,161.64,492.16,153.1Z" style="fill:#ffbf9d"></path><path d="M500.45,163.25a21.08,21.08,0,0,0,11.39-2.89s-2.86,6-11.42,5Z" style="fill:#ff9a6c"></path><path d="M496.27,140.26a1.22,1.22,0,0,0,1.14,1.27,1.18,1.18,0,0,0,1.31-1.06,1.23,1.23,0,0,0-1.14-1.27A1.18,1.18,0,0,0,496.27,140.26Z" style="fill:#263238"></path><path d="M495.74,137.08c.15.16,1.1-.49,2.42-.44s2.27.74,2.42.58-.07-.36-.48-.68a3.52,3.52,0,0,0-1.93-.66,3.25,3.25,0,0,0-1.94.55C495.81,136.72,495.67,137,495.74,137.08Z" style="fill:#263238"></path><path d="M508.2,140.9a1.23,1.23,0,0,0,1.15,1.27,1.17,1.17,0,0,0,1.3-1,1.22,1.22,0,0,0-1.14-1.28A1.19,1.19,0,0,0,508.2,140.9Z" style="fill:#263238"></path><path d="M508.73,137.77c.15.17,1.1-.48,2.42-.43s2.27.73,2.42.58-.07-.36-.48-.68a3.45,3.45,0,0,0-1.93-.67,3.32,3.32,0,0,0-1.94.55C508.8,137.42,508.66,137.7,508.73,137.77Z" style="fill:#263238"></path><path d="M503.59,147.33a9.37,9.37,0,0,0-2.14-.46c-.33,0-.65-.12-.7-.35a1.67,1.67,0,0,1,.26-1L502.1,143a45.11,45.11,0,0,0,2.48-6.59,42.12,42.12,0,0,0-3,6.38c-.37.88-.71,1.72-1.05,2.53a2,2,0,0,0-.22,1.31.88.88,0,0,0,.54.51,2.09,2.09,0,0,0,.57.09A8.33,8.33,0,0,0,503.59,147.33Z" style="fill:#263238"></path><path d="M507.45,148.37c-.22,0-.27,1.41-1.53,2.38s-2.79.75-2.81.95.33.29,1,.33a3.65,3.65,0,0,0,2.34-.72,3.08,3.08,0,0,0,1.19-2C507.69,148.73,507.55,148.37,507.45,148.37Z" style="fill:#263238"></path><path d="M508.57,132.62c.12.36,1.44.24,3,.48s2.78.7,3,.39c.1-.15-.11-.49-.6-.86a5.16,5.16,0,0,0-2.21-.85,5.09,5.09,0,0,0-2.36.19C508.81,132.18,508.52,132.45,508.57,132.62Z" style="fill:#263238"></path><path d="M496.36,133.3c.22.31,1.14,0,2.24,0s2,.27,2.24,0c.1-.15,0-.45-.43-.75a3.26,3.26,0,0,0-3.61,0C496.4,132.85,496.26,133.15,496.36,133.3Z" style="fill:#263238"></path><path d="M495,129s2.46-5.27,5.1-6.43c3.2-1.4,4.43,2.07,7.46,1.35s6.08-2.08,9.06.33c3.27,2.63,1.64,4.34,1.71,8.13.3,15.38,3,19.82,4,12.62.12-.79,2.36-1.34,2.8-4.68.58-4.33.94-9.59.07-12.7-.73-2.63-2.16-4.47-4.77-6.54-4.12-3.27-9.92-3.54-13.87-3.28S494.88,122.25,495,129Z" style="fill:#263238"></path><path d="M521.82,144.71a2.33,2.33,0,0,1,2.6-2.15c1.6.21,3.36,1.17,3.14,4.46-.4,5.83-6.22,4.23-6.21,4.07S521.64,147.14,521.82,144.71Z" style="fill:#ffbf9d"></path><path d="M522.77,149s.1.08.27.17a1,1,0,0,0,.76.06,2.51,2.51,0,0,0,1.33-2.17,3.39,3.39,0,0,0-.19-1.48,1.2,1.2,0,0,0-.72-.83.52.52,0,0,0-.62.24c-.09.16-.06.28-.1.29s-.12-.11,0-.35a.7.7,0,0,1,.25-.35.8.8,0,0,1,.58-.11,1.44,1.44,0,0,1,1,1,3.38,3.38,0,0,1,.24,1.64,2.62,2.62,0,0,1-1.66,2.42,1.11,1.11,0,0,1-.92-.21C522.77,149.12,522.75,149,522.77,149Z" style="fill:#ff9a6c"></path><path d="M522.11,133.4a5.56,5.56,0,0,1-2.54,1,1.92,1.92,0,0,1-2.08-1.41c0-.41.06-.87-.2-1.2s-.9-.29-1.4-.25a3.76,3.76,0,0,1-3.8-2.81,1.58,1.58,0,0,1-2.12.13,8.12,8.12,0,0,1-1.54-1.76,2.46,2.46,0,0,0-2-1.07,5.75,5.75,0,0,1-1.29.24c-.77-.1-1.11-1-1.2-1.77s-.15-1.66-.79-2.09a3.06,3.06,0,0,0-2.1-.13c-.72.08-1.63-.12-1.79-.82a1.41,1.41,0,0,1,.3-1.05,3.85,3.85,0,0,1,4.55-1.27,5.18,5.18,0,0,1,9.52-.67,5.38,5.38,0,0,1,4.73-1,5.28,5.28,0,0,1,3.58,3.24,3.93,3.93,0,0,1,3.93,1.47,3.87,3.87,0,0,1,.17,4.16,3.58,3.58,0,0,1,1.88,2.91,2.07,2.07,0,0,1-2.41,2,2.15,2.15,0,0,1-.93,2.71,2.19,2.19,0,0,1-2.78-.76" style="fill:#263238"></path><path d="M526,131.27a1.41,1.41,0,0,1-.41,1.11,1.85,1.85,0,0,1-1.2.65,2,2,0,0,1-1.66-.54l.25,0a5.78,5.78,0,0,1-1.23,1.42,3.21,3.21,0,0,1-1.09.62,2.62,2.62,0,0,1-2.85-.95,3.53,3.53,0,0,1-.44-1.23,1.19,1.19,0,0,1,0-.48s.07.16.16.45a3.75,3.75,0,0,0,.51,1.12,2.41,2.41,0,0,0,3.53.21,5.8,5.8,0,0,0,1.17-1.33l.11-.16.14.14a1.79,1.79,0,0,0,1.4.49,1.7,1.7,0,0,0,1.08-.52A2.89,2.89,0,0,0,526,131.27Z" style="fill:#455a64"></path><path d="M509.44,149.29c-.09,0-.11-.62-.59-1.14s-1.08-.64-1.07-.73.17-.08.43,0a1.65,1.65,0,0,1,.89.54,1.67,1.67,0,0,1,.43.94C509.55,149.14,509.48,149.3,509.44,149.29Z" style="fill:#ff9a6c"></path><path d="M510,147.7c-.08.05-.29-.16-.6-.31s-.6-.2-.61-.3.36-.21.76,0S510.1,147.66,510,147.7Z" style="fill:#ff9a6c"></path><path d="M499.25,114.87c0-.05-.63.33-1.11,1.29a5,5,0,0,0-.53,1.8,3.31,3.31,0,0,0,.61,2.24,4.67,4.67,0,0,0,1.84,1.41,14.07,14.07,0,0,0,1.73.66,8,8,0,0,0,1.65.42,5.94,5.94,0,0,0-1.55-.7,17.44,17.44,0,0,1-1.66-.72,4.74,4.74,0,0,1-1.67-1.31,3,3,0,0,1-.56-2,5.05,5.05,0,0,1,.41-1.7A6.58,6.58,0,0,1,499.25,114.87Z" style="fill:#e0e0e0"></path><path d="M495.52,118.71s-.09.37.07.94a4.29,4.29,0,0,0,1.22,1.93,4.36,4.36,0,0,0,2,1c.59.11,1,.05,1,0s-.35-.11-.87-.28a5.28,5.28,0,0,1-1.83-1.08,5.09,5.09,0,0,1-1.22-1.72C495.65,119.05,495.58,118.7,495.52,118.71Z" style="fill:#e0e0e0"></path><path d="M489.36,174.64l-8.46,67.6c-.41,3.29,2.56,9.27,5.78,10.08L529.46,257c2.59.45,4.69-1.54,5-4.16,1.07-9.17,1.8-28.44,3.13-41,1.45-13.84,4.11-31.43.89-33.93a115.64,115.64,0,0,0-16.38-10l-.72-6.28s-19.07,2.2-22.32,5l-1.51,6.08Z" style="fill:#ebebeb"></path><path d="M496.13,173.45l-39.25,3.71-30.52-14.95-6.45,13.4,4.67,2.43c7.52,4.8,21.25,14.88,27,17.4,8,3.54,48.25-1,48.25-1Z" style="fill:#ebebeb"></path><path d="M485,196.07a20.76,20.76,0,0,0,2.59-.37,12.79,12.79,0,0,0,6.08-3.44,14.66,14.66,0,0,0,4.1-9.39,11.9,11.9,0,0,0-1.26-5.94,4.48,4.48,0,0,0-2.09-2.26,7,7,0,0,0-3.24-.4c-9.19.68-17.52,1.5-23.54,2l-7.14.61-1.94.15a3.17,3.17,0,0,1-.68,0,3.6,3.6,0,0,1,.67-.12l1.93-.25,7.12-.78c6-.6,14.33-1.48,23.55-2.16a7.5,7.5,0,0,1,3.48.44,5.06,5.06,0,0,1,2.34,2.5,12.33,12.33,0,0,1,1.28,6.21,14.87,14.87,0,0,1-4.32,9.62,12.57,12.57,0,0,1-6.3,3.38,11.68,11.68,0,0,1-1.95.21A2.54,2.54,0,0,1,485,196.07Z" style="fill:#263238"></path><path d="M522.1,167.88c0,.08-1.37.29-3.59.72s-5.27,1.12-8.63,1.94-6.43,1.46-8.68,1.79c-1.12.17-2,.28-2.67.33a4.06,4.06,0,0,1-1,0c0-.08,1.37-.29,3.59-.72s5.26-1.12,8.62-1.94,6.44-1.46,8.68-1.79c1.13-.17,2-.28,2.67-.33A4.14,4.14,0,0,1,522.1,167.88Z" style="fill:#263238"></path><path d="M539.71,184.92a4.11,4.11,0,0,1,0,.74c0,.54-.13,1.25-.21,2.13-.2,1.9-.47,4.56-.81,7.81-.65,6.6-1.45,15.73-2,25.83-.28,5-.48,9.87-.61,14.25-.06,2.19-.11,4.27-.16,6.22s0,3.77-.16,5.44a20.57,20.57,0,0,1-.73,4.44,9.87,9.87,0,0,1-1.47,3.07,6.49,6.49,0,0,1-1.52,1.52,5.51,5.51,0,0,1-.65.38,8.66,8.66,0,0,0,2-2,9.85,9.85,0,0,0,1.35-3,20.91,20.91,0,0,0,.64-4.39c.09-1.64.07-3.46.09-5.41s.06-4,.12-6.23c.11-4.39.29-9.21.57-14.27.56-10.11,1.41-19.24,2.16-25.84.37-3.29.71-6,1-7.8.12-.87.23-1.58.3-2.11A3.52,3.52,0,0,1,539.71,184.92Z" style="fill:#263238"></path><path d="M452.5,351.13l7.66,17.08s-20.16,7.9-20.33,11.65l39.25-.71-.05-3.28-8.65-28.18Z" style="fill:#455a64"></path><path d="M471.66,365.14A1.59,1.59,0,0,1,472.8,367,1.54,1.54,0,0,1,471,368.1a1.69,1.69,0,0,1-1.2-1.92,1.6,1.6,0,0,1,2-1" style="fill:#e0e0e0"></path><path d="M479.08,379.15l-.05-3.28-37.68,2s-1.74.79-1.52,2Z" style="fill:#263238"></path><path d="M459.52,368c0,.2,1,.27,1.93.86s1.47,1.4,1.64,1.32-.13-1.18-1.29-1.88S459.48,367.85,459.52,368Z" style="fill:#263238"></path><path d="M455.44,369.8c0,.19.79.5,1.46,1.3s.87,1.65,1.06,1.64.29-1.1-.55-2.08S455.44,369.62,455.44,369.8Z" style="fill:#263238"></path><path d="M453.19,374.77c.17,0,.42-.92-.09-2s-1.41-1.45-1.49-1.29.49.72.89,1.58S453,374.76,453.19,374.77Z" style="fill:#263238"></path><path d="M458.09,363.57c.09.17,1-.11,2.05-.05s1.93.38,2,.21-.73-.83-2-.88S458,363.42,458.09,363.57Z" style="fill:#263238"></path><polygon points="521.52 392.88 522.39 425.46 505.26 425.41 504.35 393.62 521.52 392.88" style="fill:#455a64"></polygon><path d="M513.89,423.81c-.15,0-.36-6.95-.48-15.51s-.11-15.52,0-15.53.36,7,.49,15.52S514,423.81,513.89,423.81Z" style="fill:#263238"></path><path d="M505,415.25s.11-.27.42-.7a12,12,0,0,1,1.49-1.67A11.58,11.58,0,0,1,509.6,411a9.13,9.13,0,0,1,10.71,1.74,7.61,7.61,0,0,1,1.3,1.83,2.25,2.25,0,0,1,.29.77,17.23,17.23,0,0,0-1.85-2.35,9.09,9.09,0,0,0-6.47-2.48,10.48,10.48,0,0,0-6.46,2.68C505.72,414.36,505,415.31,505,415.25Z" style="fill:#263238"></path><polygon points="522.33 425.49 505.28 425.41 505.15 421.56 522.35 421.64 522.33 425.49" style="fill:#263238"></polygon><path d="M522.88,254.89l-35.52-3.11-.59,3.9c-9,7.25-37.25,24.58-51.81,38.77,0,0-5.38,7.5-3.24,14.1l22.77,51.61,23.17-5.34L463.52,311,507,290.7c8.45-3.13,16.07-13.8,17.87-19.92C526.43,265.54,523.11,261.6,522.88,254.89Z" style="fill:#263238"></path><path d="M493.05,296l9.4,109.63,23.71-.13s.76-33.47.29-56S528.73,281,528.73,281Z" style="fill:#263238"></path><path d="M522.88,254.89l11.4,1.26s1.12,22.77.3,25.66-7,14.31-7,14.31l-33.72,9.82V280.26Z" style="fill:#263238"></path><path d="M519.87,278.21a2.77,2.77,0,0,1-.28.61,15.42,15.42,0,0,1-.93,1.7,23.49,23.49,0,0,1-4.54,5.47,40.91,40.91,0,0,1-8.75,5.88c-3.52,1.85-7.54,3.54-11.68,5.47L472.4,307.1l-6.48,2.9-1.77.77a3.28,3.28,0,0,1-.63.24,3.53,3.53,0,0,1,.59-.32l1.73-.85,6.42-3,21.23-9.88c4.15-1.93,8.17-3.61,11.68-5.43a41.91,41.91,0,0,0,8.73-5.74,25.06,25.06,0,0,0,4.6-5.32C519.41,279,519.83,278.18,519.87,278.21Z" style="fill:#455a64"></path><path d="M448.44,309a10.11,10.11,0,0,1,2.46-.47,26.74,26.74,0,0,1,6,0,25.26,25.26,0,0,1,5.88,1.38,9.3,9.3,0,0,1,2.26,1.07,22,22,0,0,1-2.37-.75,31.46,31.46,0,0,0-5.83-1.23,35.2,35.2,0,0,0-5.95-.13A17.36,17.36,0,0,1,448.44,309Z" style="fill:#455a64"></path><polygon points="486.51 255.64 534.46 260.17 534.3 256.66 487.36 251.78 486.51 255.64" style="fill:#455a64"></polygon><path d="M496.67,257.1c.14-.28.48-4.44.48-4.44l2.61.27-.63,5.09Z" style="fill:#263238"></path><path d="M521.81,259.78c.14-.28.49-4.44.49-4.44l2.6.27-.62,5.09Z" style="fill:#263238"></path></g></svg>
