<svg xmlns="http://www.w3.org/2000/svg" viewBox="0 0 500 500"><g id="freepik--background-complete--inject-216"><rect y="382.4" width="500" height="0.25" style="fill:#ebebeb"></rect><rect x="416.78" y="398.49" width="33.12" height="0.25" style="fill:#ebebeb"></rect><rect x="322.53" y="401.21" width="8.69" height="0.25" style="fill:#ebebeb"></rect><rect x="396.59" y="389.21" width="19.19" height="0.25" style="fill:#ebebeb"></rect><rect x="52.46" y="390.89" width="43.19" height="0.25" style="fill:#ebebeb"></rect><rect x="104.56" y="390.89" width="6.33" height="0.25" style="fill:#ebebeb"></rect><rect x="131.47" y="395.11" width="93.68" height="0.25" style="fill:#ebebeb"></rect><path d="M237,337.8H43.91a5.71,5.71,0,0,1-5.7-5.71V60.66A5.71,5.71,0,0,1,43.91,55H237a5.71,5.71,0,0,1,5.71,5.71V332.09A5.71,5.71,0,0,1,237,337.8ZM43.91,55.2a5.46,5.46,0,0,0-5.45,5.46V332.09a5.46,5.46,0,0,0,5.45,5.46H237a5.47,5.47,0,0,0,5.46-5.46V60.66A5.47,5.47,0,0,0,237,55.2Z" style="fill:#ebebeb"></path><path d="M453.31,337.8H260.21a5.72,5.72,0,0,1-5.71-5.71V60.66A5.72,5.72,0,0,1,260.21,55h193.1A5.71,5.71,0,0,1,459,60.66V332.09A5.71,5.71,0,0,1,453.31,337.8ZM260.21,55.2a5.47,5.47,0,0,0-5.46,5.46V332.09a5.47,5.47,0,0,0,5.46,5.46h193.1a5.47,5.47,0,0,0,5.46-5.46V60.66a5.47,5.47,0,0,0-5.46-5.46Z" style="fill:#ebebeb"></path><ellipse cx="197.97" cy="241.96" rx="105.71" ry="131.39" transform="translate(-88.94 117.77) rotate(-27.31)" style="fill:#f0f0f0"></ellipse><ellipse cx="205.35" cy="238.15" rx="85.33" ry="106.05" transform="translate(-86.37 120.73) rotate(-27.3)" style="fill:#fff"></ellipse><path d="M272.44,203.51C294,245.2,284.22,293,250.68,310.33s-78.16-2.44-99.68-44.12-11.78-89.5,21.76-106.82S250.92,161.83,272.44,203.51Z" style="fill:#f0f0f0"></path><ellipse cx="216.24" cy="232.53" rx="50.41" ry="65.22" transform="translate(-82.57 125.11) rotate(-27.31)" style="fill:#fff"></ellipse><path d="M252.88,215.82c11.78,22.83,7.66,48.39-9.2,57.09s-40.09-2.74-51.87-25.56S184.14,199,201,190.26,241.09,193,252.88,215.82Z" style="fill:#f0f0f0"></path><path d="M247,218.87c8.51,16.48,6.14,34.63-5.28,40.52s-27.58-2.68-36.09-19.17-6.15-34.63,5.27-40.52S238.47,202.38,247,218.87Z" style="fill:#fff"></path><polygon points="379.45 121.5 348.75 137.35 346.48 167.5 372.38 183.1 403.07 167.25 376.67 151.91 379.45 121.5" style="fill:#f0f0f0"></polygon><path d="M231.83,232.75A5.72,5.72,0,0,1,228.44,222l150.3-77.59A5.73,5.73,0,0,1,384,154.58L233.7,232.17A5.63,5.63,0,0,1,231.83,232.75Z" style="fill:#f5f5f5"></path><path d="M409.36,250.54v4.81l2.48.24a12.77,12.77,0,0,0,1.85,4.45l-1.6,1.92,3.41,3.41,1.93-1.59a13,13,0,0,0,4.45,1.85l.23,2.48h4.82l.23-2.48a13,13,0,0,0,4.45-1.85l1.93,1.59,3.4-3.41L435.35,260a13.16,13.16,0,0,0,1.85-4.45l2.48-.24v-4.81l-2.48-.24a13.16,13.16,0,0,0-1.85-4.45l1.59-1.92-3.4-3.41-1.93,1.59a13,13,0,0,0-4.45-1.85l-.23-2.48h-4.82l-.23,2.48a13,13,0,0,0-4.45,1.85l-1.93-1.59-3.41,3.41,1.6,1.92a12.77,12.77,0,0,0-1.85,4.45Zm15.16-4.12a6.53,6.53,0,1,1-6.52,6.52A6.52,6.52,0,0,1,424.52,246.42Z" style="fill:#ebebeb"></path><path d="M401.22,272.1l1.38,1.14,2.45-2.45-1.15-1.38a9.24,9.24,0,0,0,1.33-3.2L407,266v-3.46l-1.78-.17a9.19,9.19,0,0,0-1.33-3.19l1.15-1.39-2.45-2.44-1.38,1.14a9.24,9.24,0,0,0-3.2-1.33l-.17-1.78h-3.46l-.17,1.78a9.24,9.24,0,0,0-3.2,1.33l-1.38-1.14-2.45,2.44,1.15,1.39a9.19,9.19,0,0,0-1.33,3.19l-1.78.17V266l1.78.17a9.24,9.24,0,0,0,1.33,3.2l-1.15,1.38,2.45,2.45L391,272.1a9.42,9.42,0,0,0,3.2,1.32l.17,1.79h3.46l.17-1.79A9.42,9.42,0,0,0,401.22,272.1Zm-9.79-7.79a4.69,4.69,0,1,1,4.69,4.69A4.69,4.69,0,0,1,391.43,264.31Z" style="fill:#ebebeb"></path><path d="M416.6,295.54a10.88,10.88,0,0,0,3.81-1.58l1.64,1.36,2.92-2.91-1.36-1.65a11.21,11.21,0,0,0,1.58-3.8l2.12-.2v-4.13l-2.12-.19a11.18,11.18,0,0,0-1.58-3.81L425,277l-2.92-2.91-1.64,1.36a10.88,10.88,0,0,0-3.81-1.58l-.2-2.12h-4.12l-.2,2.12a10.88,10.88,0,0,0-3.81,1.58l-1.64-1.36L403.71,277l1.37,1.65a11,11,0,0,0-1.59,3.81l-2.12.19v4.13l2.12.2a11,11,0,0,0,1.59,3.8l-1.37,1.65,2.92,2.91,1.64-1.36a10.88,10.88,0,0,0,3.81,1.58l.2,2.13h4.12Zm-7.84-10.84a5.58,5.58,0,1,1,5.58,5.57A5.58,5.58,0,0,1,408.76,284.7Z" style="fill:#ebebeb"></path><path d="M74.16,114.83v4.82l2.48.23a12.62,12.62,0,0,0,1.85,4.45l-1.59,1.93,3.4,3.41,1.93-1.6a12.62,12.62,0,0,0,4.45,1.85l.23,2.48h4.82l.23-2.48a12.62,12.62,0,0,0,4.45-1.85l1.93,1.6,3.41-3.41-1.6-1.93a12.62,12.62,0,0,0,1.85-4.45l2.48-.23v-4.82L102,114.6a12.62,12.62,0,0,0-1.85-4.45l1.6-1.93-3.41-3.4-1.93,1.59A12.62,12.62,0,0,0,92,104.56l-.23-2.48H86.91l-.23,2.48a12.62,12.62,0,0,0-4.45,1.85l-1.93-1.59-3.4,3.4,1.59,1.93a12.62,12.62,0,0,0-1.85,4.45Zm15.16-4.11a6.52,6.52,0,1,1-6.52,6.52A6.52,6.52,0,0,1,89.32,110.72Z" style="fill:#ebebeb"></path><path d="M102.67,357.92l1.38,1.15,2.45-2.45-1.15-1.39a9.12,9.12,0,0,0,1.33-3.19l1.78-.17v-3.46l-1.78-.17a9.24,9.24,0,0,0-1.33-3.2l1.15-1.38-2.45-2.45-1.38,1.15a9.24,9.24,0,0,0-3.2-1.33l-.17-1.79H95.84L95.67,341a9.24,9.24,0,0,0-3.2,1.33l-1.38-1.15-2.45,2.45L89.79,345a9.24,9.24,0,0,0-1.33,3.2l-1.78.17v3.46l1.78.17a9.12,9.12,0,0,0,1.33,3.19l-1.15,1.39,2.45,2.45,1.38-1.15a9.24,9.24,0,0,0,3.2,1.33l.17,1.78H99.3l.17-1.78A9.24,9.24,0,0,0,102.67,357.92Zm-9.79-7.78a4.69,4.69,0,1,1,4.69,4.68A4.69,4.69,0,0,1,92.88,350.14Z" style="fill:#ebebeb"></path><path d="M408,116.37l1.38,1.15,2.45-2.45-1.15-1.38a9.24,9.24,0,0,0,1.33-3.2l1.78-.17v-3.46l-1.78-.17a9.24,9.24,0,0,0-1.33-3.2l1.15-1.38-2.45-2.45L408,100.81a9.24,9.24,0,0,0-3.2-1.33l-.17-1.78h-3.46L401,99.48a9.24,9.24,0,0,0-3.2,1.33l-1.38-1.15L394,102.11l1.15,1.38a9.24,9.24,0,0,0-1.33,3.2l-1.78.17v3.46l1.78.17a9.24,9.24,0,0,0,1.33,3.2L394,115.07l2.45,2.45,1.38-1.15a9.24,9.24,0,0,0,3.2,1.33l.17,1.78h3.46l.17-1.78A9.24,9.24,0,0,0,408,116.37Zm-9.79-7.78a4.69,4.69,0,1,1,4.69,4.69A4.69,4.69,0,0,1,398.22,108.59Z" style="fill:#ebebeb"></path><path d="M70.41,261l1.38,1.14,2.45-2.44-1.14-1.39a9.37,9.37,0,0,0,1.32-3.19l1.79-.17v-3.46l-1.78-.17a9.64,9.64,0,0,0-1.33-3.2l1.14-1.38-2.45-2.45-1.38,1.14a9.42,9.42,0,0,0-3.2-1.32L67,242.34H63.58l-.16,1.78a9.56,9.56,0,0,0-3.2,1.33l-1.39-1.14-2.44,2.45,1.14,1.38a9.24,9.24,0,0,0-1.33,3.2l-1.78.17V255l1.78.17a9.19,9.19,0,0,0,1.33,3.19l-1.14,1.39,2.44,2.44L60.22,261a9.16,9.16,0,0,0,3.2,1.33l.16,1.78H67l.17-1.78A9.24,9.24,0,0,0,70.41,261Zm-9.78-7.78a4.69,4.69,0,1,1,4.68,4.68A4.69,4.69,0,0,1,60.63,253.24Z" style="fill:#ebebeb"></path><path d="M264.45,122.44l-1.79.17v3.46l1.79.17a9.2,9.2,0,0,0,1.32,3.2l-1.14,1.38,2.44,2.45,1.38-1.14a9.2,9.2,0,0,0,3.2,1.32l.17,1.79h3.46l.17-1.79a9.2,9.2,0,0,0,3.2-1.32l1.38,1.14,2.45-2.45-1.14-1.38a9.2,9.2,0,0,0,1.32-3.2l1.79-.17v-3.46l-1.79-.17a9.2,9.2,0,0,0-1.32-3.2l1.14-1.38L280,115.42l-1.38,1.14a9.2,9.2,0,0,0-3.2-1.32l-.17-1.79h-3.46l-.17,1.79a9.2,9.2,0,0,0-3.2,1.32l-1.38-1.14-2.44,2.44,1.14,1.38A9.2,9.2,0,0,0,264.45,122.44ZM276.87,121a4.69,4.69,0,1,1-6.63,0A4.69,4.69,0,0,1,276.87,121Z" style="fill:#ebebeb"></path><path d="M126.3,384.19a11,11,0,0,0,3.8-1.58l1.65,1.36,2.91-2.91-1.36-1.65a10.88,10.88,0,0,0,1.58-3.81l2.13-.2v-4.12l-2.13-.2a11,11,0,0,0-1.58-3.81l1.36-1.64-2.91-2.92-1.65,1.37a11,11,0,0,0-3.8-1.59l-.2-2.12H122l-.19,2.12a11,11,0,0,0-3.81,1.59l-1.65-1.37-2.91,2.92,1.36,1.64a11,11,0,0,0-1.58,3.81l-2.12.2v4.12l2.12.2a10.88,10.88,0,0,0,1.58,3.81l-1.36,1.65,2.91,2.91,1.65-1.36a11,11,0,0,0,3.81,1.58l.19,2.12h4.13Zm-7.84-10.85a5.58,5.58,0,1,1,5.58,5.58A5.58,5.58,0,0,1,118.46,373.34Z" style="fill:#ebebeb"></path><path d="M348.36,360.93a14.32,14.32,0,0,0-2.07,5l-2.8.27v5.42l2.8.26a14.37,14.37,0,0,0,2.07,5l-1.79,2.16,3.83,3.83,2.16-1.79a14.45,14.45,0,0,0,5,2.07l.26,2.8h5.42l.27-2.8a14.32,14.32,0,0,0,5-2.07l2.16,1.79,3.84-3.83-1.79-2.16a14.56,14.56,0,0,0,2.07-5l2.8-.26v-5.42l-2.8-.27a14.51,14.51,0,0,0-2.07-5l1.79-2.16-3.84-3.84-2.16,1.79a14.51,14.51,0,0,0-5-2.07l-.27-2.8h-5.42l-.26,2.8a14.64,14.64,0,0,0-5,2.07l-2.16-1.79-3.83,3.84Zm17.38,2.8a7.34,7.34,0,1,1-10.38,0A7.33,7.33,0,0,1,365.74,363.73Z" style="fill:#ebebeb"></path><path d="M285.8,100.6a14.79,14.79,0,0,0-2.07,5l-2.8.27v5.42l2.8.26a14.76,14.76,0,0,0,2.07,5L284,118.74l3.83,3.83,2.16-1.78a14.57,14.57,0,0,0,5,2.06l.27,2.8h5.42l.27-2.8a14.57,14.57,0,0,0,5-2.06l2.16,1.78,3.83-3.83-1.78-2.16a14.76,14.76,0,0,0,2.07-5l2.8-.26v-5.42l-2.8-.27a14.79,14.79,0,0,0-2.07-5L312,98.44l-3.83-3.84L306,96.39a14.59,14.59,0,0,0-5-2.07l-.27-2.8h-5.42l-.27,2.8a14.59,14.59,0,0,0-5,2.07l-2.16-1.79L284,98.44Zm17.39,2.8a7.34,7.34,0,1,1-10.38,0A7.33,7.33,0,0,1,303.19,103.4Z" style="fill:#ebebeb"></path></g><g id="freepik--Shadow--inject-216"><ellipse id="freepik--path--inject-216" cx="250" cy="416.24" rx="193.89" ry="11.32" style="fill:#f5f5f5"></ellipse></g><g id="freepik--Plant--inject-216"><path d="M94.86,312.28a.25.25,0,0,1-.09-.48A2.45,2.45,0,0,0,96,310.64a.25.25,0,0,1,.46.21A3,3,0,0,1,95,312.26.15.15,0,0,1,94.86,312.28Z" style="fill:#407BFF"></path><path d="M89.38,308.87a.24.24,0,0,1-.2-.11.25.25,0,0,1,.06-.35c.49-.34-.11-1.64-.48-2.21a.25.25,0,0,1,.07-.35.26.26,0,0,1,.35.08c.14.22,1.37,2.18.35,2.89A.3.3,0,0,1,89.38,308.87Z" style="fill:#407BFF"></path><path d="M82.32,308.59a.25.25,0,0,1-.24-.19l-.6-2.62a.25.25,0,0,1,.49-.11l.59,2.62a.24.24,0,0,1-.18.29Z" style="fill:#407BFF"></path><path d="M95.91,371.35s7.75-9.23,12.72-4.92,2.45,13.43-3.27,13.72a14.34,14.34,0,0,1-9.45-2.88Z" style="fill:#407BFF"></path><path d="M64.28,348s-6.51-6.82-10.55-5.67-3.61,17.46,8.9,10.86Z" style="fill:#407BFF"></path><path d="M64.28,348s-6.51-6.82-10.55-5.67-3.61,17.46,8.9,10.86Z" style="fill:#fff;isolation:isolate;opacity:0.5"></path><path d="M87.54,398.84s21.4-29.27,4-35.2S71.1,387.19,76.06,395.4,87.54,398.84,87.54,398.84Z" style="fill:#407BFF"></path><path d="M77.61,338.91S64.34,308.09,84,307.15s21.81,30.56-.82,35.13Z" style="fill:#407BFF"></path><path d="M87.54,398.84s21.4-29.27,4-35.2S71.1,387.19,76.06,395.4,87.54,398.84,87.54,398.84Z" style="fill:#fff;isolation:isolate;opacity:0.5"></path><path d="M77.61,338.91S64.34,308.09,84,307.15s21.81,30.56-.82,35.13Z" style="fill:#fff;isolation:isolate;opacity:0.5"></path><path d="M82.32,364.14s6.46-27.21-5.95-29.38-24.65,22.41,1,34.77C77.38,369.53,81.79,366.8,82.32,364.14Z" style="fill:#407BFF"></path><path d="M82.32,364.14s6.46-27.21-5.95-29.38-24.65,22.41,1,34.77C77.38,369.53,81.79,366.8,82.32,364.14Z" style="fill:#fff;isolation:isolate;opacity:0.4"></path><polygon points="102.94 394.69 67.01 394.69 70.01 417.68 99.94 417.68 102.94 394.69" style="fill:#263238"></polygon><path d="M84.26,336.7c5.92-5.62,10.56-13.79,8.85-22.17-.14-.55-.54-1.94-.69-2.5,4,8.89-1,19-8.16,24.67Z" style="opacity:0.2"></path><path d="M89,310.25C80.87,313,77.74,321,78,329l.21,3.36L77.78,329c-.68-8.11,2.7-16.55,11.19-18.75Z" style="opacity:0.2"></path><path d="M73.93,336.7c-5.44,2.57-8.32,9.55-6.58,15.24a23.75,23.75,0,0,0,4.31,7.85,49.32,49.32,0,0,0,6.2,6.64,41.85,41.85,0,0,1-6.5-6.4c-2.38-2.94-4.5-6.38-5-10.22-.43-5.31,2.44-11.1,7.52-13.11Z" style="opacity:0.2"></path><path d="M77.61,338.91c-.67,4-1.66,8.55.31,12.27,2.34,3.65,2,8.36,1.25,12.46.12-1.05.17-2.11.19-3.16,0-3.08-.07-6.44-1.87-9-2-3.86-.95-8.55.12-12.53Z" style="opacity:0.2"></path><path d="M86.34,366.43c-3.71,2.3-5.57,17.3-6.4,22-.17,1.09-.33,2.19-.42,3.3.11-5.3,2.18-22.67,6.82-25.26Z" style="opacity:0.2"></path><path d="M92.42,367.37c3.2,7.15,1.86,16.26-3.78,21.81l-1.1,1.1a22.41,22.41,0,0,0,4.88-22.91Z" style="opacity:0.2"></path><path d="M59.23,351.27c-2.26.51-5.13-.49-5.88-2.84,1.37,1.91,3.61,2.6,5.88,2.84Z" style="opacity:0.2"></path><path d="M60.56,346.77c-1.83-1.24-4.17-2.47-6.28-1.16,1.77-2,4.92-.7,6.28,1.16Z" style="opacity:0.2"></path><path d="M99.45,372.73c1.59-2.55,5.51-5.93,8.32-3.2-3.1-2-6.12,1.19-8.32,3.2Z" style="opacity:0.2"></path><path d="M99.45,377.27c3.45,0,8.72.66,10.2-3.28a3.68,3.68,0,0,1-.47,1.41c-2.13,2.94-6.56,2.55-9.73,1.87Z" style="opacity:0.2"></path><path d="M80.19,309.68a.25.25,0,0,1-.18-.08,12.55,12.55,0,0,1-2.87-5.36.25.25,0,0,1,.19-.3.25.25,0,0,1,.3.19,12.06,12.06,0,0,0,2.74,5.12.25.25,0,0,1,0,.36A.28.28,0,0,1,80.19,309.68Z" style="fill:#407BFF"></path><path d="M76.11,315.85a.23.23,0,0,1-.11,0,7.27,7.27,0,0,0-4.25-.5.25.25,0,0,1-.31-.16.25.25,0,0,1,.17-.31,7.6,7.6,0,0,1,4.6.52.25.25,0,0,1,.12.33A.25.25,0,0,1,76.11,315.85Z" style="fill:#407BFF"></path><path d="M71.68,322a.25.25,0,0,1-.23-.14.25.25,0,0,1,.13-.33l2.64-1.2a.26.26,0,0,1,.33.13.25.25,0,0,1-.13.33L71.78,322A.16.16,0,0,1,71.68,322Z" style="fill:#407BFF"></path><path d="M71.68,327.68a.27.27,0,0,1-.25-.22.25.25,0,0,1,.22-.28l3.06-.43A.26.26,0,0,1,75,327a.25.25,0,0,1-.21.28l-3.07.42Z" style="fill:#407BFF"></path><path d="M86.15,308.87a.25.25,0,0,1-.25-.24,15.61,15.61,0,0,1,.21-3.76.26.26,0,0,1,.32-.15.25.25,0,0,1,.15.32,14.48,14.48,0,0,0-.18,3.57.26.26,0,0,1-.24.26Z" style="fill:#407BFF"></path><path d="M92.28,310.14a.25.25,0,0,1-.21-.1.25.25,0,0,1,.06-.35c.68-.49.71-2.25.66-2.89a.25.25,0,0,1,.23-.26.24.24,0,0,1,.27.23c0,.26.15,2.59-.87,3.33A.23.23,0,0,1,92.28,310.14Z" style="fill:#407BFF"></path><path d="M95.6,314.4a.25.25,0,0,1,0-.5,18.38,18.38,0,0,0,3.76-1.17.25.25,0,0,1,.33.13.25.25,0,0,1-.14.33A18.83,18.83,0,0,1,95.6,314.4Z" style="fill:#407BFF"></path><path d="M101.52,323h-.06a25.74,25.74,0,0,0-3.94-.68.25.25,0,0,1-.25-.25.26.26,0,0,1,.25-.25,26.35,26.35,0,0,1,4.06.69.25.25,0,0,1,.19.3A.26.26,0,0,1,101.52,323Z" style="fill:#407BFF"></path><path d="M98.37,332.6H98.3a11.4,11.4,0,0,1-2.23-1,.25.25,0,1,1,.24-.44,10.44,10.44,0,0,0,2.12,1,.26.26,0,0,1,.18.31A.25.25,0,0,1,98.37,332.6Z" style="fill:#407BFF"></path><path d="M93.67,339.68a.25.25,0,0,1-.24-.23,2.36,2.36,0,0,0-2-1.91.24.24,0,0,1-.18-.3.24.24,0,0,1,.3-.18,2.8,2.8,0,0,1,2.35,2.35.24.24,0,0,1-.23.27Z" style="fill:#407BFF"></path><path d="M88.41,343.25a.27.27,0,0,1-.15-.05,9.29,9.29,0,0,1-2.13-2.29.25.25,0,0,1,.09-.34.24.24,0,0,1,.34.1,9.27,9.27,0,0,0,2,2.13.25.25,0,0,1,0,.35A.23.23,0,0,1,88.41,343.25Z" style="fill:#407BFF"></path><path d="M87.38,315.85a.26.26,0,0,1-.25-.21.25.25,0,0,1,.2-.29A4.28,4.28,0,0,0,89.19,314a.25.25,0,0,1,.35,0,.26.26,0,0,1,0,.36,4.73,4.73,0,0,1-2.16,1.53Z" style="fill:#407BFF"></path><path d="M85.38,319.68a.26.26,0,0,1-.24-.18.25.25,0,0,1,.17-.31c.24-.08,2.41-.71,3.24.05a.24.24,0,0,1,0,.35.23.23,0,0,1-.35,0c-.47-.42-1.94-.19-2.75.06Z" style="fill:#407BFF"></path><path d="M87.38,324.62l-.1,0A31.51,31.51,0,0,1,83.87,323a.26.26,0,0,1-.08-.35.27.27,0,0,1,.35-.08,31.34,31.34,0,0,0,3.33,1.61.24.24,0,0,1,.14.32A.25.25,0,0,1,87.38,324.62Z" style="fill:#407BFF"></path><path d="M81.72,329.21a.24.24,0,0,1-.24-.22.25.25,0,0,1,.21-.28c1-.15,2.75-.65,2.85-1.32a.25.25,0,0,1,.29-.21.24.24,0,0,1,.2.28c-.19,1.26-3,1.7-3.27,1.74Z" style="fill:#407BFF"></path><path d="M82.66,334.87a.27.27,0,0,1-.2-.09A11.74,11.74,0,0,1,81,332.43a.23.23,0,0,1,.15-.31.25.25,0,0,1,.32.15,11.71,11.71,0,0,0,1.41,2.2.26.26,0,0,1,0,.35A.27.27,0,0,1,82.66,334.87Z" style="fill:#407BFF"></path><path d="M79.52,313.21a.25.25,0,0,1-.24-.2s-.33-1.37-1.47-1.59a.25.25,0,0,1-.2-.3.25.25,0,0,1,.29-.2,2.67,2.67,0,0,1,1.87,2,.25.25,0,0,1-.19.3Z" style="fill:#407BFF"></path><path d="M76.1,318.4a3.49,3.49,0,0,1-1.46-.36.25.25,0,0,1-.12-.34.26.26,0,0,1,.33-.12,2.66,2.66,0,0,0,1.62.3,1.44,1.44,0,0,1,.65,0,.26.26,0,0,1,.16.32.26.26,0,0,1-.32.16.91.91,0,0,0-.44,0Z" style="fill:#407BFF"></path><path d="M74.74,324.62a.26.26,0,0,1-.24-.19.26.26,0,0,1,.19-.31,10.66,10.66,0,0,0,1.78-.78.25.25,0,0,1,.34.09.26.26,0,0,1-.1.34,10,10,0,0,1-1.91.84Z" style="fill:#407BFF"></path><path d="M73.89,332.1a.25.25,0,0,1-.08-.49l2.69-.94a.26.26,0,0,1,.32.16.25.25,0,0,1-.15.32l-2.69.93Z" style="fill:#407BFF"></path><path d="M89.38,339.16a.27.27,0,0,1-.21-.12s-.85-1.35-1.51-2.18a.25.25,0,0,1,0-.35.26.26,0,0,1,.36,0c.68.85,1.51,2.17,1.54,2.22a.26.26,0,0,1-.07.35A.37.37,0,0,1,89.38,339.16Z" style="fill:#407BFF"></path><path d="M93.68,333.21l-.1,0a9,9,0,0,0-2.09-.59.25.25,0,0,1-.23-.27.26.26,0,0,1,.28-.23,9.65,9.65,0,0,1,2.23.63.24.24,0,0,1,.14.32A.26.26,0,0,1,93.68,333.21Z" style="fill:#407BFF"></path><path d="M96.62,326.75a.27.27,0,0,1-.23-.14c-.21-.42-1.18-.42-1.5-.38a.26.26,0,0,1-.28-.23.26.26,0,0,1,.23-.27c.16,0,1.59-.15,2,.65a.26.26,0,0,1-.11.34A.23.23,0,0,1,96.62,326.75Z" style="fill:#407BFF"></path><path d="M95.61,318.74h0a.25.25,0,0,1,0-.5h0a3.43,3.43,0,0,0,1.54-.3.26.26,0,0,1,.35.08.25.25,0,0,1-.07.34A4.1,4.1,0,0,1,95.61,318.74Z" style="fill:#407BFF"></path><path d="M71.51,335.85a.25.25,0,0,1-.24-.18,7.47,7.47,0,0,0-.57-1.4.25.25,0,0,1,.1-.34.26.26,0,0,1,.34.1,8,8,0,0,1,.61,1.49.24.24,0,0,1-.17.31Z" style="fill:#407BFF"></path><path d="M67.67,339.43a.28.28,0,0,1-.18-.06,17.33,17.33,0,0,1-2.39-2.88.26.26,0,0,1,.08-.35.25.25,0,0,1,.34.07A15.56,15.56,0,0,0,67.84,339a.26.26,0,0,1,0,.36A.26.26,0,0,1,67.67,339.43Z" style="fill:#407BFF"></path><path d="M64.94,342.68a.3.3,0,0,1-.16-.05l-2-1.58a.26.26,0,0,1,0-.35.24.24,0,0,1,.35,0l2,1.57a.24.24,0,0,1,0,.35A.23.23,0,0,1,64.94,342.68Z" style="fill:#407BFF"></path><path d="M62.21,355.66a3.23,3.23,0,0,1-.88-.13.24.24,0,0,1-.17-.31.25.25,0,0,1,.31-.17,2.7,2.7,0,0,0,2.18-.31.26.26,0,0,1,.35.07.26.26,0,0,1-.08.35A3.16,3.16,0,0,1,62.21,355.66Z" style="fill:#407BFF"></path><path d="M63.62,360.39a.22.22,0,0,1-.2-.1.25.25,0,0,1,.06-.35,7.19,7.19,0,0,0,1.46-1.35.25.25,0,1,1,.38.31,7.16,7.16,0,0,1-1.56,1.45A.23.23,0,0,1,63.62,360.39Z" style="fill:#407BFF"></path><path d="M67,364.29a.22.22,0,0,1-.13,0,.24.24,0,0,1-.08-.34c.37-.58.72-1.19,1.05-1.8a.25.25,0,0,1,.34-.1.24.24,0,0,1,.1.34c-.33.62-.69,1.23-1.06,1.83A.27.27,0,0,1,67,364.29Z" style="fill:#407BFF"></path><path d="M69.36,366.37a.25.25,0,0,1-.18-.42A10.5,10.5,0,0,0,70.66,364,.25.25,0,0,1,71,364a.26.26,0,0,1,.09.35,11.51,11.51,0,0,1-1.55,2A.26.26,0,0,1,69.36,366.37Z" style="fill:#407BFF"></path><path d="M74.91,369.89a.24.24,0,0,1-.23-.15,3.43,3.43,0,0,1,0-2.65A.27.27,0,0,1,75,367a.26.26,0,0,1,.14.33,3,3,0,0,0,0,2.26.24.24,0,0,1-.13.33A.15.15,0,0,1,74.91,369.89Z" style="fill:#407BFF"></path><path d="M82.7,361.8a8.43,8.43,0,0,1-1-.06.25.25,0,0,1-.22-.28.26.26,0,0,1,.28-.22,7.41,7.41,0,0,0,3.14-.26.25.25,0,0,1,.31.17.24.24,0,0,1-.17.31A8,8,0,0,1,82.7,361.8Z" style="fill:#407BFF"></path><path d="M83.42,357.59a5.23,5.23,0,0,1-1.62-.26.26.26,0,0,1-.16-.32.25.25,0,0,1,.32-.16,4.72,4.72,0,0,0,2.36.15.24.24,0,0,1,.29.2.25.25,0,0,1-.19.29A5.65,5.65,0,0,1,83.42,357.59Z" style="fill:#407BFF"></path><path d="M84.78,353.14h-.1l-1.87-.77a.25.25,0,0,1-.14-.32.26.26,0,0,1,.33-.14l1.87.76A.25.25,0,0,1,85,353,.24.24,0,0,1,84.78,353.14Z" style="fill:#407BFF"></path><path d="M84.79,348.7H83a.25.25,0,0,1-.25-.25.25.25,0,0,1,.25-.25h1.79a.25.25,0,0,1,.25.25A.25.25,0,0,1,84.79,348.7Z" style="fill:#407BFF"></path><path d="M84.45,345.21H82.74a.26.26,0,0,1-.25-.25.25.25,0,0,1,.25-.25h1.71a.25.25,0,0,1,.25.25A.26.26,0,0,1,84.45,345.21Z" style="fill:#407BFF"></path><path d="M79.87,341.31a.29.29,0,0,1-.18-.07.25.25,0,0,1,0-.36l1.92-2a.24.24,0,0,1,.35,0,.25.25,0,0,1,0,.35l-1.93,2A.23.23,0,0,1,79.87,341.31Z" style="fill:#407BFF"></path><path d="M75.75,337.46h0a.25.25,0,0,1-.22-.28,16.59,16.59,0,0,0,.09-2.34.25.25,0,0,1,.24-.26.24.24,0,0,1,.26.24,16.28,16.28,0,0,1-.1,2.42A.24.24,0,0,1,75.75,337.46Z" style="fill:#407BFF"></path><path d="M72.74,342.6a.25.25,0,0,1-.22-.13,8.66,8.66,0,0,0-1.4-1.89.24.24,0,0,1,0-.35.25.25,0,0,1,.36,0,9.34,9.34,0,0,1,1.48,2,.26.26,0,0,1-.1.34Z" style="fill:#407BFF"></path><path d="M71.93,346.69h0a9.6,9.6,0,0,1-2.16-.53.26.26,0,0,1-.15-.32.26.26,0,0,1,.32-.15,8.77,8.77,0,0,0,2,.5.25.25,0,0,1,.22.28A.25.25,0,0,1,71.93,346.69Z" style="fill:#407BFF"></path><path d="M69.85,351.66l-.12,0a.34.34,0,0,1-.23-.22.26.26,0,0,1,.16-.32.24.24,0,0,1,.23,0h0L71.44,350a.25.25,0,0,1,.35.06.26.26,0,0,1-.06.35l-1.53,1.11A.6.6,0,0,1,69.85,351.66Z" style="fill:#407BFF"></path><path d="M71.54,356.41a.25.25,0,0,1-.13-.46,10.84,10.84,0,0,0,1.64-1.29.25.25,0,0,1,.35.37,11.68,11.68,0,0,1-1.72,1.34A.23.23,0,0,1,71.54,356.41Z" style="fill:#407BFF"></path><path d="M74.19,361.35a.2.2,0,0,1-.13,0A.25.25,0,0,1,74,361a5.49,5.49,0,0,1,1.41-1.55.25.25,0,0,1,.3.4,5.06,5.06,0,0,0-1.28,1.41A.25.25,0,0,1,74.19,361.35Z" style="fill:#407BFF"></path><path d="M76.81,364.28h-.08a.26.26,0,0,1-.15-.33,4.08,4.08,0,0,0,.19-2.16.25.25,0,0,1,.2-.3.26.26,0,0,1,.29.2,4.61,4.61,0,0,1-.21,2.44A.26.26,0,0,1,76.81,364.28Z" style="fill:#407BFF"></path><path d="M78.85,347.27a.27.27,0,0,1-.2-.09.26.26,0,0,1,0-.35l1.62-1.28a.24.24,0,0,1,.35,0,.25.25,0,0,1,0,.35L79,347.22A.25.25,0,0,1,78.85,347.27Z" style="fill:#407BFF"></path><path d="M80.87,351.08h-1.1a.25.25,0,1,1,0-.5h1.1a.25.25,0,0,1,0,.5Z" style="fill:#407BFF"></path><path d="M65,347.62a.25.25,0,0,1-.16-.06,6.65,6.65,0,0,1-1.58-1.88.26.26,0,0,1,.1-.34.25.25,0,0,1,.34.1,5.93,5.93,0,0,0,1.46,1.73.25.25,0,0,1,0,.36A.25.25,0,0,1,65,347.62Z" style="fill:#407BFF"></path><path d="M63.07,352.84a.24.24,0,0,1-.21-.12.24.24,0,0,1,.08-.34l1.65-1a.26.26,0,0,1,.35.08.25.25,0,0,1-.08.34l-1.66,1A.22.22,0,0,1,63.07,352.84Z" style="fill:#407BFF"></path><path d="M61.72,346h0a.25.25,0,0,1-.19-.3,8.79,8.79,0,0,0,.17-2,.25.25,0,0,1,.24-.26.26.26,0,0,1,.26.24,9.22,9.22,0,0,1-.18,2.1A.26.26,0,0,1,61.72,346Z" style="fill:#407BFF"></path><path d="M57,343.84a.25.25,0,0,1-.25-.23,16.29,16.29,0,0,0-.23-2.09.25.25,0,0,1,.2-.29.24.24,0,0,1,.29.2,15.72,15.72,0,0,1,.24,2.15.24.24,0,0,1-.24.26Z" style="fill:#407BFF"></path><path d="M53.67,344.17a.27.27,0,0,1-.21-.12l-1.05-1.68a.25.25,0,1,1,.42-.27l1.05,1.68a.25.25,0,0,1-.08.35A.28.28,0,0,1,53.67,344.17Z" style="fill:#407BFF"></path><path d="M52,346.89l-.12,0a6.14,6.14,0,0,1-1.57-1.16.24.24,0,0,1,0-.35.25.25,0,0,1,.36,0,5.68,5.68,0,0,0,1.45,1.07.25.25,0,0,1-.12.47Z" style="fill:#407BFF"></path><path d="M50.53,353.44a.26.26,0,0,1-.22-.13.25.25,0,0,1,.1-.34c.23-.13.47-.24.71-.35a8.14,8.14,0,0,0,.78-.4,1.92,1.92,0,0,0,.94-1.1.25.25,0,0,1,.31-.18.26.26,0,0,1,.18.31,2.41,2.41,0,0,1-1.17,1.4,9.23,9.23,0,0,1-.83.42c-.23.11-.46.21-.68.34Z" style="fill:#407BFF"></path><path d="M54.23,356a.25.25,0,0,1-.13-.46,9.55,9.55,0,0,0,1.78-1.4c.15-.15.32-.36.27-.51a.26.26,0,0,1,.16-.32.26.26,0,0,1,.32.16,1.09,1.09,0,0,1-.4,1A9.85,9.85,0,0,1,54.36,356Z" style="fill:#407BFF"></path><path d="M59,356.45h0a.26.26,0,0,1-.22-.29,5.65,5.65,0,0,0,0-1.88A.25.25,0,0,1,59,354a.25.25,0,0,1,.29.2,6.64,6.64,0,0,1,0,2A.26.26,0,0,1,59,356.45Z" style="fill:#407BFF"></path><path d="M57,348.73a.23.23,0,0,1-.2-.1L55.51,347a.25.25,0,1,1,.4-.3l1.29,1.67a.25.25,0,0,1-.05.35A.3.3,0,0,1,57,348.73Z" style="fill:#407BFF"></path><path d="M59.2,349.24a.28.28,0,0,1-.17-.07.25.25,0,0,1,0-.36c.33-.34.65-.7.95-1.06a.24.24,0,0,1,.35,0,.25.25,0,0,1,0,.35c-.3.37-.63.74-1,1.09A.25.25,0,0,1,59.2,349.24Z" style="fill:#407BFF"></path><path d="M90.56,364.7h0a.23.23,0,0,1-.22-.27,6,6,0,0,0-.36-2.79.24.24,0,0,1,.14-.32.25.25,0,0,1,.33.14,6.61,6.61,0,0,1,.39,3A.27.27,0,0,1,90.56,364.7Z" style="fill:#407BFF"></path><path d="M94.47,366.89a.25.25,0,0,1-.19-.09.25.25,0,0,1,0-.35,3.81,3.81,0,0,0,1.25-2.85.25.25,0,0,1,.24-.25h0a.25.25,0,0,1,.25.24,4.32,4.32,0,0,1-1.41,3.23A.28.28,0,0,1,94.47,366.89Z" style="fill:#407BFF"></path><path d="M84.85,365.14a.27.27,0,0,1-.19-.08,7.55,7.55,0,0,1-1.13-1.78.25.25,0,1,1,.45-.21A7.21,7.21,0,0,0,85,364.73a.25.25,0,0,1,0,.35A.27.27,0,0,1,84.85,365.14Z" style="fill:#407BFF"></path><path d="M77.38,374.31h-.09c-1-.39-2-.75-3-1.07a.25.25,0,0,1-.16-.31.25.25,0,0,1,.32-.16c1,.32,2,.68,3,1.07a.26.26,0,0,1,.14.33A.27.27,0,0,1,77.38,374.31Z" style="fill:#407BFF"></path><path d="M74.91,380.18A3.25,3.25,0,0,1,72.37,379a.25.25,0,0,1,.4-.3,2.76,2.76,0,0,0,2.91.91.25.25,0,1,1,.14.48A3.09,3.09,0,0,1,74.91,380.18Z" style="fill:#407BFF"></path><path d="M72.78,386.38a.25.25,0,0,1-.24-.17.25.25,0,0,1,.16-.31,20.12,20.12,0,0,1,2.51-.65.25.25,0,0,1,.3.19.27.27,0,0,1-.2.3,20.47,20.47,0,0,0-2.45.63Z" style="fill:#407BFF"></path><path d="M73.06,392.72a.25.25,0,0,1-.23-.14.25.25,0,0,1,.11-.33l2.36-1.17a.25.25,0,0,1,.33.11.26.26,0,0,1-.11.34l-2.35,1.17Z" style="fill:#407BFF"></path><path d="M93.12,394h-.06a14,14,0,0,1-3.72-1.5.25.25,0,1,1,.25-.43,13.66,13.66,0,0,0,3.59,1.45.24.24,0,0,1,.18.3A.25.25,0,0,1,93.12,394Z" style="fill:#407BFF"></path><path d="M94.41,390.91a.23.23,0,0,1-.11,0c-.67-.3-1.35-.63-2-1a.25.25,0,0,1-.1-.34.25.25,0,0,1,.34-.1c.64.34,1.3.66,2,1a.25.25,0,0,1,.12.33A.25.25,0,0,1,94.41,390.91Z" style="fill:#407BFF"></path><path d="M97.14,385.93h0l-3.24-.58a.25.25,0,0,1-.2-.29.25.25,0,0,1,.29-.2l3.24.58a.24.24,0,0,1,.2.29A.25.25,0,0,1,97.14,385.93Z" style="fill:#407BFF"></path><path d="M98.65,381.92h-.07A13.37,13.37,0,0,1,96,380.83a.25.25,0,0,1-.1-.34.26.26,0,0,1,.34-.1,13.24,13.24,0,0,0,2.49,1,.25.25,0,0,1,.17.31A.25.25,0,0,1,98.65,381.92Z" style="fill:#407BFF"></path><path d="M99.84,368.44a.25.25,0,0,1-.24-.18,11.24,11.24,0,0,0-1.16-2.66.25.25,0,0,1,.43-.26,11.34,11.34,0,0,1,1.21,2.79.24.24,0,0,1-.17.3Z" style="fill:#407BFF"></path><path d="M104.33,367.43a.26.26,0,0,1-.25-.21l-.39-2.39a.25.25,0,0,1,.21-.29.25.25,0,0,1,.28.21l.4,2.39a.25.25,0,0,1-.21.28Z" style="fill:#407BFF"></path><path d="M109.45,369l-.12,0a.26.26,0,0,1-.1-.34,18.77,18.77,0,0,1,1.86-2.73.25.25,0,0,1,.39.32,17.22,17.22,0,0,0-1.81,2.65A.26.26,0,0,1,109.45,369Z" style="fill:#407BFF"></path><path d="M110.49,372.84h-.28a.25.25,0,0,1-.22-.27.24.24,0,0,1,.27-.23,2.81,2.81,0,0,0,2.24-.85.25.25,0,0,1,.35,0,.24.24,0,0,1,0,.35A3.31,3.31,0,0,1,110.49,372.84Z" style="fill:#407BFF"></path><path d="M110.12,381l-.1,0a7.39,7.39,0,0,1-3.12-2.55.25.25,0,0,1,.41-.29,6.89,6.89,0,0,0,2.91,2.38.25.25,0,0,1,.13.33A.25.25,0,0,1,110.12,381Z" style="fill:#407BFF"></path><path d="M102.61,382.06a.25.25,0,0,1-.25-.24,25.19,25.19,0,0,1,.08-2.75.24.24,0,0,1,.26-.23.25.25,0,0,1,.23.27,26.84,26.84,0,0,0-.07,2.69.26.26,0,0,1-.25.26Z" style="fill:#407BFF"></path><path d="M102,374.82h-.06a.26.26,0,0,1-.18-.31,6.89,6.89,0,0,0,.27-1.56.24.24,0,0,1,.27-.23.25.25,0,0,1,.23.26,7.21,7.21,0,0,1-.29,1.67A.25.25,0,0,1,102,374.82Z" style="fill:#407BFF"></path><path d="M106,374.15a.27.27,0,0,1-.18-.08.26.26,0,0,1,0-.36,2.59,2.59,0,0,0,.85-2.1.25.25,0,0,1,.5,0,3.1,3.1,0,0,1-1,2.51A.27.27,0,0,1,106,374.15Z" style="fill:#407BFF"></path><path d="M97.89,373.65H97.8a12.74,12.74,0,0,0-2-.54.24.24,0,0,1-.2-.29.24.24,0,0,1,.29-.2,13.47,13.47,0,0,1,2.07.56.25.25,0,0,1-.08.48Z" style="fill:#407BFF"></path><path d="M89.11,370.41a.25.25,0,0,1-.23-.15A11.27,11.27,0,0,0,87.55,368a.24.24,0,0,1,0-.35.25.25,0,0,1,.35,0,11.57,11.57,0,0,1,1.4,2.41.26.26,0,0,1-.14.33Z" style="fill:#407BFF"></path><path d="M86.77,374.73a.27.27,0,0,1-.28-.25.26.26,0,0,1,.25-.25h0a3.78,3.78,0,0,0,2.64-1.08.25.25,0,1,1,.35.35A4.25,4.25,0,0,1,86.77,374.73Z" style="fill:#407BFF"></path><path d="M87.15,380,87,380a9.4,9.4,0,0,1-1.94-1.24.25.25,0,0,1,.32-.39,8.87,8.87,0,0,0,1.84,1.18.25.25,0,0,1,.12.33A.27.27,0,0,1,87.15,380Z" style="fill:#407BFF"></path><path d="M85.18,385.7a3.53,3.53,0,0,1-1.83-.45.25.25,0,0,1,.25-.43c1.11.65,2.56.35,3.94,0a.25.25,0,1,1,.13.48A10,10,0,0,1,85.18,385.7Z" style="fill:#407BFF"></path><path d="M83.18,389.82a.27.27,0,0,1-.18-.08.25.25,0,0,1,0-.35,5.44,5.44,0,0,1,1.13-.84.24.24,0,0,1,.34.09.25.25,0,0,1-.09.34,5.19,5.19,0,0,0-1,.77A.26.26,0,0,1,83.18,389.82Z" style="fill:#407BFF"></path><path d="M82.13,394.21a.3.3,0,0,1-.16,0,.25.25,0,0,1,0-.36,9.19,9.19,0,0,1,1.76-1.65.25.25,0,0,1,.35.06.24.24,0,0,1-.06.34,9.2,9.2,0,0,0-1.67,1.57A.25.25,0,0,1,82.13,394.21Z" style="fill:#407BFF"></path><path d="M81.45,372.66a.27.27,0,0,1-.22-.12,10.49,10.49,0,0,0-1.49-2,.25.25,0,0,1,0-.35.24.24,0,0,1,.35,0,11,11,0,0,1,1.56,2,.24.24,0,0,1-.08.34A.22.22,0,0,1,81.45,372.66Z" style="fill:#407BFF"></path><path d="M79.42,378.84h-.06l-1.1-.29a.25.25,0,0,1-.18-.3.26.26,0,0,1,.31-.18l1.09.28a.25.25,0,0,1-.06.5Z" style="fill:#407BFF"></path><path d="M78.92,384.16h-.08l-1.37-.48a.25.25,0,1,1,.16-.47l1.37.48a.26.26,0,0,1,.16.32A.25.25,0,0,1,78.92,384.16Z" style="fill:#407BFF"></path><path d="M77.28,390.64a.23.23,0,0,1-.16-.06.25.25,0,0,1,0-.35l1.21-1.44a.25.25,0,0,1,.35,0,.24.24,0,0,1,0,.35l-1.2,1.44A.25.25,0,0,1,77.28,390.64Z" style="fill:#407BFF"></path></g><g id="freepik--speech-bubble-1--inject-216"><path d="M93.19,113.38h32.52a11.18,11.18,0,0,1,11.18,11.18v13.5a11.18,11.18,0,0,1-11.18,11.18h-5.48l-1.29,8-6.23-8H93.19A11.18,11.18,0,0,1,82,138.06v-13.5A11.18,11.18,0,0,1,93.19,113.38Z" style="fill:#407BFF"></path><g style="opacity:0.30000000000000004"><path d="M93.19,113.38h32.52a11.18,11.18,0,0,1,11.18,11.18v13.5a11.18,11.18,0,0,1-11.18,11.18h-5.48l-1.29,8-6.23-8H93.19A11.18,11.18,0,0,1,82,138.06v-13.5A11.18,11.18,0,0,1,93.19,113.38Z"></path></g><path d="M122.12,130.54a2.26,2.26,0,1,0,2.26-2.26A2.26,2.26,0,0,0,122.12,130.54Z" style="fill:#fff"></path><path d="M112.17,130.54a2.26,2.26,0,1,0,2.26-2.26A2.26,2.26,0,0,0,112.17,130.54Z" style="fill:#fff"></path><path d="M102.22,130.54a2.26,2.26,0,1,0,2.25-2.26A2.26,2.26,0,0,0,102.22,130.54Z" style="fill:#fff"></path><path d="M92.26,130.54a2.26,2.26,0,1,0,2.26-2.26A2.26,2.26,0,0,0,92.26,130.54Z" style="fill:#fff"></path></g><g id="freepik--character-1--inject-216"><path d="M270.12,413.06v3.77a.85.85,0,0,1-.85.85H162.8a5.55,5.55,0,0,1-5.15-7.62l33.74-83.56,54.52.37-1.86,10.84-12,70.17a3.71,3.71,0,0,0,3.65,4.34h33.6A.84.84,0,0,1,270.12,413.06Z" style="fill:#263238"></path><path d="M270.12,413.06v3.77a.85.85,0,0,1-.85.85H162.8a5.55,5.55,0,0,1-5.15-7.62l20.92-51.8,12.82-31.76,54.52.37-1.86,10.84-5.23,30.52L232,407.88a3.71,3.71,0,0,0,3.65,4.34h33.6A.84.84,0,0,1,270.12,413.06Z" style="fill:#fff;opacity:0.6000000000000001"></path><path d="M235.67,412.22H166.4a2.43,2.43,0,0,1-2.24-3.36l29.58-71.15h50.31l-12,70.17A3.71,3.71,0,0,0,235.67,412.22Z" style="fill:#fff;isolation:isolate;opacity:0.4"></path><polygon points="245.91 326.87 244.05 337.71 238.82 368.23 178.57 358.26 191.39 326.5 245.91 326.87" style="isolation:isolate;opacity:0.1"></polygon><path d="M351.93,171.11H99.52a6.46,6.46,0,0,0-6.46,6.45V348.44a6.46,6.46,0,0,0,6.46,6.46H351.93a6.46,6.46,0,0,0,6.46-6.46V177.56A6.46,6.46,0,0,0,351.93,171.11Z" style="fill:#263238"></path><path d="M351.93,171.11H99.52a6.46,6.46,0,0,0-6.46,6.45V348.44a6.46,6.46,0,0,0,6.46,6.46H351.93a6.46,6.46,0,0,0,6.46-6.46V177.56A6.46,6.46,0,0,0,351.93,171.11Z" style="fill:#fff;opacity:0.8"></path><path d="M104.86,354.9H99.51a6.45,6.45,0,0,1-6.45-6.45V177.57a6.46,6.46,0,0,1,6.45-6.47h5.35a6.46,6.46,0,0,0-6.45,6.47V348.45A6.45,6.45,0,0,0,104.86,354.9Z" style="isolation:isolate;opacity:0.2"></path><rect x="104.24" y="176.65" width="248.33" height="164.78" style="fill:#407BFF"></rect><path d="M326.68,177.43c-34.33,34.4-122.52,111-222.45,105.3V177.43Z" style="fill:#fff;opacity:0.1"></path><path d="M352.57,240.65V342.21H203.06c5.73-20.51,17.19-48.6,39.43-68.67C282.48,237.42,328.9,237.53,352.57,240.65Z" style="fill:#fff;opacity:0.1"></path><polygon points="274.26 249.33 261.8 236.87 249.34 249.33 253.24 249.33 253.24 318.76 270.36 318.76 270.36 249.33 274.26 249.33" style="opacity:0.30000000000000004"></polygon><rect x="292.89" y="241.14" width="13.02" height="4.98" style="opacity:0.30000000000000004"></rect><polygon points="292.89 239.79 305.91 239.79 305.91 221.19 308.87 221.19 299.4 211.72 289.93 221.19 292.89 221.19 292.89 239.79" style="opacity:0.30000000000000004"></polygon><rect x="292.89" y="248.12" width="13.02" height="3.61" style="opacity:0.30000000000000004"></rect><rect x="292.89" y="255.96" width="13.02" height="1.87" style="opacity:0.30000000000000004"></rect><rect x="219.27" y="225.45" width="13.02" height="4.98" style="opacity:0.30000000000000004"></rect><polygon points="219.27 224.1 232.29 224.1 232.29 205.5 235.25 205.5 225.78 196.04 216.31 205.5 219.27 205.5 219.27 224.1" style="opacity:0.30000000000000004"></polygon><rect x="219.27" y="232.43" width="13.02" height="3.61" style="opacity:0.30000000000000004"></rect><rect x="219.27" y="240.27" width="13.02" height="1.87" style="opacity:0.30000000000000004"></rect><rect x="312.7" y="323.76" width="13.02" height="4.98" style="opacity:0.30000000000000004"></rect><polygon points="312.7 322.4 325.71 322.4 325.71 303.81 328.67 303.81 319.21 294.34 309.74 303.81 312.7 303.81 312.7 322.4" style="opacity:0.30000000000000004"></polygon><rect x="312.7" y="330.73" width="13.02" height="3.61" style="opacity:0.30000000000000004"></rect><rect x="312.7" y="338.58" width="13.02" height="1.87" style="opacity:0.30000000000000004"></rect><circle cx="261.8" cy="307.5" r="22.23" transform="translate(-137.41 368.54) rotate(-58.28)" style="fill:#407BFF"></circle><circle cx="261.8" cy="307.5" r="22.23" transform="translate(-137.41 368.54) rotate(-58.28)" style="opacity:0.1"></circle><circle cx="261.8" cy="307.5" r="19.36" style="opacity:0.2"></circle><g style="opacity:0.6000000000000001"><path d="M263,316.35v2.78h-2v-2.75a10.81,10.81,0,0,1-6.06-2.06l1.12-2.49a9.56,9.56,0,0,0,4.94,1.88v-4.95c-2.74-.67-5.69-1.56-5.69-5,0-2.52,1.84-4.73,5.69-5.1v-2.79h2v2.74a10.7,10.7,0,0,1,5,1.51l-1,2.5a10,10,0,0,0-4-1.33v5c2.75.67,5.74,1.54,5.74,5C268.71,313.78,266.86,316,263,316.35Zm-2-10.59v-4.4c-1.75.27-2.49,1.16-2.49,2.25S259.51,305.34,260.94,305.76Zm4.61,5.72c0-1.21-1.09-1.78-2.58-2.2v4.38C264.78,313.39,265.55,312.54,265.55,311.48Z" style="fill:#407BFF"></path></g><ellipse cx="176.59" cy="184.1" rx="6.78" ry="10.41" transform="translate(-34.84 41.37) rotate(-12.17)" style="fill:#263238"></ellipse><ellipse cx="176.59" cy="184.1" rx="6.78" ry="10.41" transform="translate(-34.84 41.37) rotate(-12.17)" style="fill:#fff;opacity:0.2"></ellipse><path d="M181.88,201.4l-.24-1.13c2-.42,3.18-1,3.67-1.78a1.76,1.76,0,0,0,.19-1.42c-.46-1.95-3.76-6.18-5-7.65l.88-.74c.19.22,4.62,5.51,5.24,8.13a2.93,2.93,0,0,1-.34,2.3C185.4,200.51,183.35,201.09,181.88,201.4Z" style="fill:#263238"></path><path d="M216.4,341.41H200.21c.09-1.72.18-3.52.28-5.36.1-1.68.21-3.4.31-5.12l.09-1.29c1-14.06,2.58-28.16,5.11-28.12.32,0,.66.26,1,.77a13,13,0,0,1,1.23,2.3C211.44,311.86,214.45,328.68,216.4,341.41Z" style="fill:#263238"></path><path d="M210.05,341.41h-86c0-8.48,0-19.48-.54-32.06-.41-10.16-1.12-21.37-2.41-33.11-.74-6.73-1.66-13.65-2.81-20.63-.66-4-1.4-8.07-2.21-12.11-1.16-5.71-2.47-11.44-4-17.14,0,0,6.55-1.78,15-3.39,1.75-.33,3.59-.66,5.46-1,1.59-.25,3.21-.49,4.85-.69h.08l1.55-.19,3.76-.42h0c2-.21,4-.42,6.11-.62,6.78-.63,14.06-1.15,20-1.27l1.61,0c1,0,2,0,2.91,0s2.89.11,3.73.15h0l.45,0,11.85,3.85,8.31,2.71s.39,1.77,1,5.11h0c.76,3.93,1.86,10,3.08,17.92s2.58,17.45,3.81,28.51v0c.94,8.38,1.83,17.59,2.56,27.47q.42,5.52.76,11.32c.26,4.36.47,8.84.65,13.41,0,.43,0,.87.05,1.31.07,1.64.13,3.31.18,5C210,337.53,210,339.46,210.05,341.41Z" style="fill:#407BFF"></path><g style="opacity:0.7000000000000001"><path d="M210.05,341.41h-86c0-8.48,0-19.48-.54-32.06-.41-10.16-1.12-21.37-2.41-33.11-.74-6.73-1.66-13.65-2.81-20.63-.66-4-1.4-8.07-2.21-12.11-1.16-5.71-2.47-11.44-4-17.14,0,0,6.55-1.78,15-3.39,1.75-.33,3.59-.66,5.46-1,1.59-.25,3.21-.49,4.85-.69h.08l1.55-.19,3.76-.42h0c2-.21,4-.42,6.11-.62,6.78-.63,14.06-1.15,20-1.27l1.61,0c1,0,2,0,2.91,0s2.89.11,3.73.15h0l.45,0,11.85,3.85,8.31,2.71s.39,1.77,1,5.11h0c.76,3.93,1.86,10,3.08,17.92s2.58,17.45,3.81,28.51v0c.94,8.38,1.83,17.59,2.56,27.47q.42,5.52.76,11.32c.26,4.36.47,8.84.65,13.41,0,.43,0,.87.05,1.31.07,1.64.13,3.31.18,5C210,337.53,210,339.46,210.05,341.41Z" style="fill:#fff"></path></g><polygon points="211.66 341.41 128.09 341.41 129.73 332.24 137.45 331.96 200.89 329.64 209.67 329.32 210.18 329.3 210.34 330.61 210.35 330.61 210.94 335.56 211.66 341.41" style="fill:#263238"></polygon><polygon points="211.66 341.41 128.09 341.41 129.73 332.24 137.45 331.96 200.89 329.64 209.67 329.32 210.18 329.3 210.34 330.61 210.35 330.61 210.94 335.56 211.66 341.41" style="fill:#fff;opacity:0.4"></polygon><polygon points="158.29 332.35 158.44 338.04 129.3 339.43 130.78 333.28 158.29 332.35"></polygon><polygon points="201.3 330.91 201.86 335.99 160.2 337.96 160.13 332.3 201.3 330.91"></polygon><polygon points="210.94 335.56 203.62 335.9 203.12 330.85 210.35 330.61 210.94 335.56"></polygon><path d="M177.69,337.72a1.31,1.31,0,0,1-1.3-1.19l-.36-4a1.32,1.32,0,0,1,.33-1,1.27,1.27,0,0,1,.93-.44l8.18-.28a1.33,1.33,0,0,1,1.35,1.21l.28,3.93a1.28,1.28,0,0,1-.33,1,1.25,1.25,0,0,1-.92.43l-8.11.32Zm-.5-5.26.35,4a.16.16,0,0,0,.16.14l8.11-.31a.14.14,0,0,0,.1-.05.16.16,0,0,0,0-.11l-.28-3.93c0-.08-.08-.16-.16-.14l-8.18.28a.13.13,0,0,0-.11.05.12.12,0,0,0,0,.11Z" style="fill:#fff"></path><path d="M183.4,334.68a.56.56,0,0,1-.57-.54.57.57,0,0,1,.54-.61l1.7-.09a.57.57,0,0,1,.61.54.58.58,0,0,1-.55.61l-1.69.09Z" style="fill:#fff"></path><path d="M285,264.19,301.36,262l-10-15.32s-14.47,2.83-12.7,10.23Z" style="fill:#ebb376"></path><polygon points="314.07 251.72 300.99 241.47 291.35 246.68 301.36 262 314.07 251.72" style="fill:#ebb376"></polygon><path d="M199.07,221.72c11.12,1.91,36.72,52.68,36.72,52.68L279,251.17l9.91,13.94S243.75,302.47,231.94,300s-34.2-33-34.2-33Z" style="fill:#263238"></path><path d="M288.87,265.11S243.75,302.46,231.94,300c-4.35-.9-10.13-5.61-15.69-11.2A219.35,219.35,0,0,1,197.75,267l.3-10.21,1-35.07c11.13,1.9,36.73,52.67,36.73,52.67L279,251.17Z" style="fill:#fff;opacity:0.2"></path><path d="M216.25,288.82A219.35,219.35,0,0,1,197.75,267l.3-10.21,2.09-11S211.92,262.55,216.25,288.82Z" style="opacity:0.2"></path><path d="M141.7,220.17s21,10.51,26.42,9.32c3.8-.83,8-8.21,8-8.21a16.42,16.42,0,0,1-6.93-3.52c-4.83-4.39-4-11.12-2.07-17.5l-20.39-18.72A107.25,107.25,0,0,1,148,197.91v0C148,206.86,146.52,215.89,141.7,220.17Z" style="fill:#ebb376"></path><path d="M148,197.91v0c3.64,9.27,10.13,19.5,21.19,19.83-4.83-4.39-4-11.12-2.07-17.5l-20.39-18.72A107.25,107.25,0,0,1,148,197.91Z" style="opacity:0.2"></path><path d="M141.65,280.38v.09c0,.83,0,1.68-.05,2.56v.07c-.06,2.19-.14,4.49-.26,6.9v.15c-.07,1.41-.16,2.85-.25,4.35a1.09,1.09,0,0,1,0,.18c-.06,1-.12,1.94-.18,2.93-.33,4.85-.77,10-1.3,15.47q-.15,1.59-.33,3.21c-.14,1.34-.28,2.7-.42,4.06-.13,1.09-.25,2.18-.38,3.3-.33,2.72-.67,5.5-1,8.31,0,.36-.11.73-.15,1.1,0,.11,0,.23-.05.35q-.37,2.82-.77,5.68c-.12.78-.23,1.55-.33,2.32H121.81l0-.74c.16-4.68.21-9.34.06-13.81-.06-1.81-.16-3.58-.28-5.33,0-.46-.07-.93-.1-1.41-.11-1.43-.25-2.93-.4-4.5-.65-6.77-1.61-14.75-2.74-23.12a.51.51,0,0,0,0-.13c-.17-1.29-.34-2.59-.53-3.9,0-.44-.12-.89-.18-1.34l-.36-2.6c-.14-1-.27-1.94-.42-2.92h0c-.19-1.34-.38-2.68-.58-4-.14-1-.28-2-.43-2.93-.26-1.78-.53-3.56-.79-5.3-.46-3.1-.92-6.14-1.38-9.08-.2-1.22-.39-2.44-.57-3.63s-.38-2.37-.56-3.52l-.27-1.68c-.23-1.41-.44-2.79-.65-4.13-.09-.53-.18-1.05-.26-1.57-.13-.85-.27-1.66-.4-2.47-.07-.43-.13-.84-.2-1.25,0-.24-.08-.47-.11-.71-.12-.66-.22-1.31-.32-1.93-.15-.92-.3-1.81-.44-2.64-.06-.4-.13-.8-.19-1.18l-.12-.7c-.85-5.13-1.38-8.2-1.38-8.2h0l.06,0c.15-.07.55-.23,1.2-.45l.61-.21c.16-.06.33-.12.51-.17,1.73-.57,4.38-1.36,7.86-2.17,1.51-.35,3.16-.71,5-1.06.57-.11,1.15-.22,1.76-.32.79-.14,1.62-.29,2.48-.42,2.54-.4,5.33-.77,8.33-1.07l1.28-.12h0s.05.22.13.67.14.89.24,1.55c0,0,0,0,0,0s0,.09,0,.14a.43.43,0,0,1,0,.11c0,.24.08.51.13.79.14.92.3,2,.48,3.26l.09.65c.06.44.12.89.18,1.36s.13,1,.2,1.48.13,1,.19,1.55c.35,2.8.71,6,1.06,9.64,0,.43.08.88.12,1.33.11,1.18.22,2.41.32,3.67,0,.22,0,.44.05.68.08.91.15,1.84.22,2.78,0,.39.06.78.08,1.18s.06.81.08,1.21.06.81.08,1.22c0,.65.08,1.32.12,2,0,.33,0,.67.05,1,0,.53.07,1.07.1,1.63,0,.28,0,.58,0,.87C141.62,266,141.78,273,141.65,280.38Z" style="fill:#263238"></path><path d="M141.66,280.39a.08.08,0,0,0,0,0,0,0,0,0,0,0,0c0,.83,0,1.69-.06,2.57v.07q-.07,3.28-.26,6.9v.15c-.07,1.41-.16,2.85-.25,4.35a1.09,1.09,0,0,1,0,.18c-.05,1-.11,1.94-.18,2.93-.33,4.85-.77,10-1.3,15.47q-.15,1.59-.33,3.21c-.14,1.34-.28,2.7-.42,4.06-.13,1.09-.26,2.18-.38,3.3-.33,2.72-.67,5.5-1,8.31,0,.36-.11.73-.15,1.1h0c0,.11,0,.23,0,.35q-.37,2.82-.77,5.68c-.12.78-.23,1.55-.33,2.32H121.81c0,.11,0,.22,0,.33a1.88,1.88,0,0,0,0-.33c0-.24,0-.5,0-.74.16-4.68.21-9.34.06-13.81-.05-1.81-.15-3.59-.27-5.33,0-.46-.07-.93-.11-1.41-.11-1.43-.25-2.93-.4-4.5-.63-6.77-1.6-14.75-2.74-23.12a.51.51,0,0,0,0-.13l-.27-2.07c-.08-.61-.16-1.22-.26-1.83,0-.44-.12-.89-.18-1.34-.11-.86-.24-1.73-.36-2.6s-.27-1.94-.42-2.92h0c-.19-1.34-.38-2.68-.58-4-.14-1-.28-2-.43-2.93-.26-1.78-.53-3.56-.79-5.3-.46-3.1-.92-6.14-1.38-9.08-.09-.54-.18-1.06-.26-1.59-.1-.69-.21-1.37-.31-2-.2-1.2-.38-2.37-.56-3.52l-.27-1.68c-.23-1.41-.44-2.79-.65-4.13-.09-.53-.18-1.06-.26-1.57-.13-.85-.27-1.66-.4-2.47-.07-.43-.13-.84-.2-1.25,0-.24-.08-.47-.11-.71-.12-.66-.22-1.31-.32-1.93-.15-.92-.3-1.81-.44-2.64-.06-.4-.13-.8-.19-1.18l-.12-.7c-.81-5-1.33-8-1.37-8.2h0l.06,0c.15-.07.55-.23,1.2-.45l.61-.21c.16-.06.33-.12.51-.17,1.73-.57,4.38-1.36,7.86-2.17,1.51-.35,3.16-.71,5-1.06.57-.11,1.15-.22,1.76-.32.79-.14,1.62-.29,2.48-.42,2.54-.4,5.33-.77,8.33-1.07l1.28-.13h0a.43.43,0,0,1,0,.05h0c0,.1.07.3.12.61s.14.89.25,1.55a.88.88,0,0,0,0,.16.43.43,0,0,1,0,.11c0,.24.07.51.13.79.13.91.29,2,.48,3.26l.09.65c0,.43.11.89.18,1.36s.13,1,.2,1.48.12,1,.19,1.55c.35,2.8.71,6,1.06,9.64l.12,1.33c.11,1.18.22,2.41.32,3.67,0,.22,0,.44.05.68.08.91.15,1.84.22,2.78,0,.39.06.78.08,1.18s.06.81.08,1.21.06.81.08,1.22c0,.65.08,1.32.12,2,0,.33,0,.67.05,1,0,.54.07,1.08.1,1.63,0,.28,0,.58,0,.87.08,1.67.14,3.38.2,5.12C141.68,269.59,141.75,274.91,141.66,280.39Z" style="fill:#fff;opacity:0.2"></path><path d="M137.32,220.63a343.68,343.68,0,0,1,4.34,59.75.6.6,0,0,0,0,.08l-19-39.34,10.78-3.33-12.33-4.19,6.58-11.77C130.61,221.38,133.82,221,137.32,220.63Z" style="fill:#fff;opacity:0.2"></path><path d="M218.5,341.41h-4.66c-1.37-7.75-3-16.31-4.82-25.5q-1.41-7-3-14.39-1.91-8.76-4.1-18c-.65-2.78-1.31-5.45-2-8-.74-3-1.49-5.79-2.21-8.45-11.17-41.1-19.56-47.62-20.13-48l7.63,1,13.83,1.77h0c2.77,9.14,5.49,22.16,8,36.92,1.35,7.83,2.66,16.14,3.9,24.61h0C213.93,303.2,216.5,324,218.5,341.41Z" style="fill:#263238"></path><path d="M218.5,341.41h-4.66c-1.37-7.75-3-16.31-4.82-25.5q-1.41-7-3-14.39-1.91-8.76-4.1-18c-.65-2.78-1.31-5.45-2-8-.74-3-1.49-5.79-2.21-8.45-11.17-41.1-19.56-47.62-20.13-48l7.63,1,13.83,1.77h0c2.77,9.14,5.49,22.16,8,36.92,1.35,7.83,2.66,16.14,3.9,24.61h0C213.93,303.2,216.5,324,218.5,341.41Z" style="fill:#fff;opacity:0.2"></path><path d="M188.84,234.62,198,238s2.85,24.46,1.91,37.43c-12.26-48.68-21.73-56-22.33-56.47l7.62,1c3.41,2.15,8.74,5.94,12.3,10.59Z" style="fill:#fff;opacity:0.2"></path><path d="M173.16,156.21s10.66,6.76,7,25.69S153.71,163.18,173.16,156.21Z" style="fill:#263238"></path><path d="M140.9,180.47c2.68,14.63.86,17.24,9.22,23.84,12.58,9.94,31.18,10,32-5.28.79-13.74-.74-38.27-15.89-42.27C151.35,152.82,138.22,165.83,140.9,180.47Z" style="fill:#ebb376"></path><path d="M158.92,179.83c.2,1.25.78,1.3,1.6,1.16s1.56-.4,1.36-1.66-1-2.15-1.84-2S158.72,178.58,158.92,179.83Z" style="fill:#263238"></path><path d="M174.41,179c.2,1.25.79,1.29,1.61,1.15s1.56-.4,1.36-1.65-1-2.16-1.85-2S174.21,177.71,174.41,179Z" style="fill:#263238"></path><path d="M172,178.67s2.74,5.36,5.43,7.8c-1.56,1.78-4.55,1.36-4.55,1.36Z" style="fill:#d58745"></path><path d="M155.92,174.46a.69.69,0,0,1-.36-.13.74.74,0,0,1-.17-1,7.43,7.43,0,0,1,6-3.29.73.73,0,0,1,.72.77.75.75,0,0,1-.78.71h0a6,6,0,0,0-4.71,2.66A.72.72,0,0,1,155.92,174.46Z" style="fill:#263238"></path><path d="M179.79,172.4a.76.76,0,0,1-.69-.14,5.8,5.8,0,0,0-5.18-1.38.76.76,0,0,1-.92-.51.74.74,0,0,1,.51-.92,7.31,7.31,0,0,1,6.56,1.66.75.75,0,0,1,.08,1.06A.77.77,0,0,1,179.79,172.4Z" style="fill:#263238"></path><path d="M143.6,190.27c6.86,3.67,5.08-3.29,4.58-4-2.18-3.07-.48-7.46,1.6-13.64.93-2.75.05-7.17.05-7.17s-8.36-1.34-13.28.06c-5.08,1.45-5.13,5.58-5.13,5.58C132.93,184,138.07,187.31,143.6,190.27Z" style="fill:#263238"></path><path d="M135.34,191.12a13.58,13.58,0,0,0,7.65,6.39c4.15,1.24,5.87-2.88,4.43-7.19-1.3-3.89-5-9.21-9-8.55S133.2,187.27,135.34,191.12Z" style="fill:#ebb376"></path><path d="M174.93,192.2a45.63,45.63,0,0,0-1.42,6.54l-1.18,0c-5.34.05-7.83-1.69-9-3.63a7,7,0,0,1-.88-3.14,6.74,6.74,0,0,1,.14-1.86c2.85,1.66,7.83,2,10.5,2.06C174.22,192.23,174.93,192.2,174.93,192.2Z" style="fill:#263238"></path><path d="M173.11,192.19l-.47,1.92c-5,0-8.58-.61-10.17-2.12a6.74,6.74,0,0,1,.14-1.86C165.46,191.79,170.44,192.12,173.11,192.19Z" style="fill:#fff"></path><path d="M172.33,198.76c-5.34.05-7.83-1.69-9-3.63a17.09,17.09,0,0,1,5.94,1.11A6.41,6.41,0,0,1,172.33,198.76Z" style="fill:#de5753"></path><path d="M131.7,173.13s-6.38-8,3.66-16.28,26.46-9.67,35.89-6.67,2.85,11-7,14.71c-5.37,2-7.66,1.15-7.66,1.15s2.83.28,6.72-3.56c0,0-13.5.33-15.43,8.58S131.7,173.13,131.7,173.13Z" style="fill:#263238"></path><path d="M118.09,290.3c-.57-4.2-1.17-8.48-1.8-12.72-.4-2.77-.81-5.53-1.22-8.24a12,12,0,0,1,1.59-3.06S120.44,276.33,118.09,290.3Z" style="opacity:0.2"></path><path d="M161.44,232.18l7.25,5.68s5.57,35.22,5.35,65.67l6.37,6.81,4.71-8.06s-8.45-49.57-13.24-64.42l4.26-8.28-8-.09Z" style="fill:#407BFF"></path><path d="M168.13,229.49s-3.57,4.91-7.81,9.82c-6.87-2.77-23.06-10.38-23-18.68.71-2.47,6.85-4.52,6.85-4.52S151.76,224.4,168.13,229.49Z" style="fill:#407BFF"></path><path d="M168.13,229.49a44,44,0,0,1,9.26,8.37c4.59-3.56.84-18.67-1.09-20.22a17.31,17.31,0,0,0-8.54-1.47S171.81,222.84,168.13,229.49Z" style="fill:#407BFF"></path><g style="opacity:0.6000000000000001"><path d="M168.13,229.49s-3.57,4.91-7.81,9.82c-6.87-2.77-23.06-10.38-23-18.68.71-2.47,6.85-4.52,6.85-4.52S151.76,224.4,168.13,229.49Z" style="fill:#fff"></path><path d="M168.13,229.49a44,44,0,0,1,9.26,8.37c4.59-3.56.84-18.67-1.09-20.22a17.31,17.31,0,0,0-8.54-1.47S171.81,222.84,168.13,229.49Z" style="fill:#fff"></path></g><path d="M118.66,271.42l-.35,2-1.44,8.2h0l-4.77,27.2.76,32.6h-8.63V231.23c1.31-2.56,2.65-4.19,4-4.58h0c.21.23,4.79,5.48,7.86,16.84a77.18,77.18,0,0,1,2.21,12.11A100.46,100.46,0,0,1,118.66,271.42Z" style="fill:#263238"></path><path d="M118.66,271.42l-.35,2-1.44,8.2h0l-4.77,27.2.76,32.6h-8.63V231.23c1.31-2.56,2.65-4.19,4-4.58h0c.21.23,4.79,5.48,7.86,16.84a77.18,77.18,0,0,1,2.21,12.11A100.46,100.46,0,0,1,118.66,271.42Z" style="fill:#fff;opacity:0.2"></path><path d="M147.3,186.07c1.56,5.52,0,11.07-3.56,12.4s-7.65-2.07-9.21-7.58,0-11.07,3.56-12.4S145.74,180.56,147.3,186.07Z" style="fill:#263238"></path><path d="M147.3,186.07c1.56,5.52,0,11.07-3.56,12.4s-7.65-2.07-9.21-7.58,0-11.07,3.56-12.4S145.74,180.56,147.3,186.07Z" style="fill:#fff;opacity:0.2"></path><path d="M139.94,183.74s-2.62-27.53,11.21-34.1a7,7,0,0,0-3.87.53c-2,.91-13.94,5.88-11.94,33.33Z" style="fill:#263238"></path><path d="M139.78,180.5c0,2,.16,3.24.16,3.24l-4.6-.24c-.05-.59-.08-1.17-.11-1.74-1.38-25.92,10.11-30.7,12.05-31.59a7.05,7.05,0,0,1,3.88-.53C140.25,154.82,139.57,173,139.78,180.5Z" style="fill:#fff;opacity:0.4"></path><rect x="179.58" y="199.84" width="4.35" height="1.99" rx="0.86" transform="translate(-37.85 42.27) rotate(-12.02)" style="fill:#263238"></rect><rect x="179.58" y="199.84" width="4.35" height="1.99" rx="0.86" transform="translate(-37.85 42.27) rotate(-12.02)" style="fill:#fff;opacity:0.2"></rect><path d="M139.94,183.74l-4.6-.24c-.05-.59-.08-1.17-.11-1.74,0,0,1.23-2.27,4.55-1.26C139.82,182.52,139.94,183.74,139.94,183.74Z" style="opacity:0.2"></path><path d="M143.8,187.72c1.17,4.15,0,8.33-2.68,9.33s-5.76-1.56-6.93-5.71,0-8.32,2.68-9.32S142.62,183.58,143.8,187.72Z" style="fill:#263238"></path><path d="M143.8,187.72c1.17,4.15,0,8.33-2.68,9.33s-5.76-1.56-6.93-5.71,0-8.32,2.68-9.32S142.62,183.58,143.8,187.72Z" style="fill:#fff;opacity:0.4"></path></g><g id="freepik--chart-3--inject-216"><rect x="314.19" y="179.44" width="65.25" height="61.3" rx="2.55" style="fill:#407BFF"></rect><rect x="314.19" y="179.44" width="65.25" height="61.3" rx="2.55" style="fill:#fff;opacity:0.7000000000000001"></rect><circle cx="346.81" cy="210.09" r="21.16" style="fill:#407BFF"></circle><path d="M346.81,210.09H368a21.17,21.17,0,1,1-13.37-19.67Z" style="fill:#fff;opacity:0.30000000000000004"></path><path d="M346.81,210.09l-.56,21.15a21.16,21.16,0,1,1,8.35-40.82Z" style="fill:#fff;opacity:0.30000000000000004"></path><circle cx="346.81" cy="210.09" r="13.2" style="fill:#fff"></circle><rect x="320.66" y="186.4" width="9.51" height="4.98" style="fill:#fff"></rect><rect x="363.22" y="229.8" width="9.51" height="4.98" style="fill:#fff"></rect><rect x="362.23" y="184.57" width="9.51" height="4.98" style="fill:#fff"></rect><rect x="329.27" y="187.3" width="0.48" height="12.21" transform="translate(-44.47 271.62) rotate(-42.22)" style="fill:#fff"></rect><rect x="357.56" y="193.23" width="13.28" height="0.48" transform="translate(35.59 442.66) rotate(-65.15)" style="fill:#fff"></rect><rect x="364.02" y="220.15" width="0.48" height="13.28" transform="translate(-64.55 242.18) rotate(-33.96)" style="fill:#fff"></rect><path d="M334.25,197.92a.64.64,0,0,1-1.28,0,.64.64,0,0,1,.64-.64A.64.64,0,0,1,334.25,197.92Z" style="fill:#fff"></path><circle cx="361.41" cy="199.5" r="0.64" style="fill:#fff"></circle><path d="M361.19,221.28a.64.64,0,0,1-.64.64.64.64,0,0,1,0-1.28A.64.64,0,0,1,361.19,221.28Z" style="fill:#fff"></path></g><g id="freepik--chart-2--inject-216"><rect x="289.41" y="271.62" width="81.62" height="61.3" rx="2.55" style="fill:#407BFF"></rect><rect x="289.41" y="271.62" width="81.62" height="61.3" rx="2.55" style="fill:#fff;opacity:0.7000000000000001"></rect><path d="M362.51,285.18v-.24h-3.82v-3.59h-.24v3.59h-6.39v-3.59h-.24v3.59h-6.4v-3.59h-.24v3.59h-6.39v-3.59h-.24v3.59h-6.39v-3.59h-.24v3.59h-6.39v-3.59h-.24v3.59H318.9v-3.59h-.25v3.59h-6.39v-3.59H312v3.59h-6.39v-3.59h-.24v3.59h-7.18v.24h7.18v6.09h-7.18v.24h7.18v6.08h-7.18v.24h7.18v6.09h-7.18v.24h7.18v6.08h-7.18v.24h7.18v6.09h-7.18v.24h7.18v6.78h.24v-6.78H312v6.78h.24v-6.78h6.39v6.78h.25v-6.78h6.39v6.78h.24v-6.78h6.39v6.78h.24v-6.78h6.39v6.78h.24v-6.78h6.39v6.78h.24v-6.78h6.4v6.78h.24v-6.78h6.39v6.78h.24v-6.78h3.82v-.24h-3.82v-6.09h3.82v-.24h-3.82v-6.08h3.82v-.24h-3.82v-6.09h3.82v-.24h-3.82v-6.08h3.82v-.24h-3.82v-6.09Zm-10.69,0v6.09h-6.4v-6.09Zm-26.29,12.65h6.39v6.09h-6.39Zm-.24,6.09H318.9v-6.09h6.39Zm6.87-6.09h6.39v6.09h-6.39Zm6.63,0h6.39v6.09h-6.39Zm0-.24v-6.08h6.39v6.08Zm-.24,0h-6.39v-6.08h6.39Zm-6.63,0h-6.39v-6.08h6.39Zm-6.63,0H318.9v-6.08h6.39Zm-6.64,0h-6.39v-6.08h6.39Zm0,.24v6.09h-6.39v-6.09Zm0,6.33v6.08h-6.39v-6.08Zm.25,0h6.39v6.08H318.9Zm6.63,0h6.39v6.08h-6.39Zm6.63,0h6.39v6.08h-6.39Zm6.63,0h6.39v6.08h-6.39Zm6.63,0h6.4v6.08h-6.4Zm0-.24v-6.09h6.4v6.09Zm0-6.33v-6.08h6.4v6.08Zm-.24-12.41v6.09h-6.39v-6.09Zm-6.63,0v6.09h-6.39v-6.09Zm-6.63,0v6.09h-6.39v-6.09Zm-6.63,0v6.09H318.9v-6.09Zm-6.64,0v6.09h-6.39v-6.09Zm-13,0H312v6.09h-6.39Zm0,6.33H312v6.08h-6.39Zm0,6.32H312v6.09h-6.39Zm0,6.33H312v6.08h-6.39Zm0,12.41v-6.09H312v6.09Zm6.63,0v-6.09h6.39v6.09Zm6.64,0v-6.09h6.39v6.09Zm6.63,0v-6.09h6.39v6.09Zm6.63,0v-6.09h6.39v6.09Zm6.63,0v-6.09h6.39v6.09Zm6.63,0v-6.09h6.4v6.09Zm13,0h-6.39v-6.09h6.39Zm0-6.33h-6.39v-6.08h6.39Zm0-6.32h-6.39v-6.09h6.39Zm0-6.33h-6.39v-6.08h6.39Zm0-6.32h-6.39v-6.09h6.39Z" style="opacity:0.1"></path><path d="M307,320.34a1.57,1.57,0,1,1-1.57-1.57A1.57,1.57,0,0,1,307,320.34Z" style="fill:#fff"></path><polygon points="298.82 323.48 298.46 322.59 305.21 319.89 311.8 316.38 318.48 313.69 325.21 309.73 338.5 313.02 344.97 309.81 358.49 303.72 358.89 304.6 345.38 310.68 338.61 314.04 325.36 310.76 318.9 314.55 312.2 317.26 305.62 320.76 298.82 323.48" style="fill:#fff"></polygon><polygon points="362.24 323.51 297.46 323.51 297.46 280.95 298.42 280.95 298.42 322.55 362.24 322.55 362.24 323.51" style="fill:#263238"></polygon><polygon points="298.25 323.4 297.62 322.67 305.07 316.2 311.85 307.43 318.78 309.7 325.44 303.58 338.46 309.9 344.85 303.58 358.12 291.16 358.78 291.86 345.51 304.27 338.65 311.07 325.61 304.73 319.01 310.79 312.19 308.55 305.77 316.86 298.25 323.4" style="fill:#407BFF"></polygon><path d="M307,316.57a1.57,1.57,0,1,1-1.57-1.57A1.57,1.57,0,0,1,307,316.57Z" style="fill:#fff"></path><path d="M305.39,318.62a2.06,2.06,0,1,1,2.05-2.05A2.05,2.05,0,0,1,305.39,318.62Zm0-3.14a1.09,1.09,0,1,0,1.09,1.09A1.09,1.09,0,0,0,305.39,315.48Z" style="fill:#407BFF"></path><path d="M313.59,316.57A1.57,1.57,0,1,1,312,315,1.57,1.57,0,0,1,313.59,316.57Z" style="fill:#fff"></path><circle cx="318.65" cy="314.14" r="1.57" style="fill:#fff"></circle><path d="M326.86,310.48a1.57,1.57,0,1,1-1.57-1.57A1.57,1.57,0,0,1,326.86,310.48Z" style="fill:#fff"></path><path d="M340.12,313.53a1.57,1.57,0,1,1-1.57-1.58A1.57,1.57,0,0,1,340.12,313.53Z" style="fill:#fff"></path><path d="M346.76,310.48a1.58,1.58,0,1,1-1.58-1.57A1.58,1.58,0,0,1,346.76,310.48Z" style="fill:#fff"></path><path d="M360,304.16a1.57,1.57,0,1,1-1.57-1.57A1.57,1.57,0,0,1,360,304.16Z" style="fill:#fff"></path><path d="M313.59,308a1.57,1.57,0,1,1-1.57-1.57A1.57,1.57,0,0,1,313.59,308Z" style="fill:#fff"></path><path d="M312,310a2.05,2.05,0,1,1,2.06-2.05A2.05,2.05,0,0,1,312,310Zm0-3.14a1.09,1.09,0,1,0,1.09,1.09A1.09,1.09,0,0,0,312,306.9Z" style="fill:#407BFF"></path><path d="M320.47,310.24a1.58,1.58,0,1,1-1.57-1.57A1.58,1.58,0,0,1,320.47,310.24Z" style="fill:#fff"></path><path d="M318.9,312.3a2.06,2.06,0,1,1,2.05-2.06A2.06,2.06,0,0,1,318.9,312.3Zm0-3.15a1.09,1.09,0,1,0,1.09,1.09A1.09,1.09,0,0,0,318.9,309.15Z" style="fill:#407BFF"></path><path d="M327.1,304.16a1.57,1.57,0,1,1-1.57-1.57A1.57,1.57,0,0,1,327.1,304.16Z" style="fill:#fff"></path><path d="M325.53,306.21a2.06,2.06,0,1,1,2.05-2A2.06,2.06,0,0,1,325.53,306.21Zm0-3.14a1.09,1.09,0,1,0,1.09,1.09A1.09,1.09,0,0,0,325.53,303.07Z" style="fill:#407BFF"></path><path d="M340.12,310.48a1.57,1.57,0,1,1-1.57-1.57A1.57,1.57,0,0,1,340.12,310.48Z" style="fill:#fff"></path><path d="M338.55,312.54a2.06,2.06,0,1,1,2.06-2.06A2.05,2.05,0,0,1,338.55,312.54Zm0-3.15a1.1,1.1,0,1,0,1.09,1.09A1.09,1.09,0,0,0,338.55,309.39Z" style="fill:#407BFF"></path><path d="M346.76,303.92a1.58,1.58,0,1,1-1.58-1.57A1.57,1.57,0,0,1,346.76,303.92Z" style="fill:#fff"></path><path d="M345.18,306a2.06,2.06,0,1,1,2.06-2.05A2.05,2.05,0,0,1,345.18,306Zm0-3.14a1.09,1.09,0,1,0,1.1,1.09A1.09,1.09,0,0,0,345.18,302.83Z" style="fill:#407BFF"></path><path d="M360,291.51a1.57,1.57,0,1,1-1.57-1.57A1.57,1.57,0,0,1,360,291.51Z" style="fill:#fff"></path><path d="M358.45,293.56a2.06,2.06,0,1,1,2.05-2.05A2.06,2.06,0,0,1,358.45,293.56Zm0-3.14a1.09,1.09,0,1,0,1.09,1.09A1.09,1.09,0,0,0,358.45,290.42Z" style="fill:#407BFF"></path></g><g id="freepik--chart-1--inject-216"><rect x="209.57" y="154.61" width="81.62" height="61.3" rx="2.55" style="fill:#407BFF"></rect><rect x="209.57" y="154.61" width="81.62" height="61.3" rx="2.55" style="fill:#fff;opacity:0.7000000000000001"></rect><path d="M282.66,168.18v-.24h-3.82v-3.59h-.24v3.59h-6.39v-3.59H272v3.59h-6.39v-3.59h-.25v3.59h-6.39v-3.59h-.24v3.59h-6.39v-3.59h-.24v3.59h-6.39v-3.59h-.24v3.59h-6.39v-3.59h-.24v3.59h-6.4v-3.59h-.24v3.59h-6.39v-3.59h-.24v3.59h-7.18v.24h7.18v6.08h-7.18v.24h7.18v6.09h-7.18v.24h7.18v6.08h-7.18v.25h7.18v6.08h-7.18v.24h7.18v6.09h-7.18v.24h7.18v6.78h.24v-6.78h6.39v6.78h.24v-6.78h6.4v6.78h.24v-6.78h6.39v6.78h.24v-6.78h6.39v6.78h.24v-6.78h6.39v6.78h.24v-6.78h6.39v6.78h.25v-6.78H272v6.78h.24v-6.78h6.39v6.78h.24v-6.78h3.82v-.24h-3.82v-6.09h3.82v-.24h-3.82v-6.08h3.82v-.25h-3.82v-6.08h3.82v-.24h-3.82V174.5h3.82v-.24h-3.82v-6.08Zm-10.69,0v6.08h-6.39v-6.08Zm-26.29,12.65h6.39v6.08h-6.39Zm-.24,6.08h-6.39v-6.08h6.39Zm6.87-6.08h6.39v6.08h-6.39Zm6.63,0h6.39v6.08h-6.39Zm0-.24V174.5h6.39v6.09Zm-.24,0h-6.39V174.5h6.39Zm-6.63,0h-6.39V174.5h6.39Zm-6.63,0h-6.39V174.5h6.39Zm-6.63,0h-6.4V174.5h6.4Zm0,.24v6.08h-6.4v-6.08Zm0,6.33v6.08h-6.4v-6.08Zm.24,0h6.39v6.08h-6.39Zm6.63,0h6.39v6.08h-6.39Zm6.63,0h6.39v6.08h-6.39Zm6.63,0h6.39v6.08h-6.39Zm6.64,0H272v6.08h-6.39Zm0-.25v-6.08H272v6.08Zm0-6.32V174.5H272v6.09Zm-.25-12.41v6.08h-6.39v-6.08Zm-6.63,0v6.08h-6.39v-6.08Zm-6.63,0v6.08h-6.39v-6.08Zm-6.63,0v6.08h-6.39v-6.08Zm-6.63,0v6.08h-6.4v-6.08Zm-13,0h6.39v6.08h-6.39Zm0,6.32h6.39v6.09h-6.39Zm0,6.33h6.39v6.08h-6.39Zm0,6.33h6.39v6.08h-6.39Zm0,12.41v-6.09h6.39v6.09Zm6.63,0v-6.09h6.4v6.09Zm6.64,0v-6.09h6.39v6.09Zm6.63,0v-6.09h6.39v6.09Zm6.63,0v-6.09h6.39v6.09Zm6.63,0v-6.09h6.39v6.09Zm6.64,0v-6.09H272v6.09Zm13,0h-6.39v-6.09h6.39Zm0-6.33h-6.39v-6.08h6.39Zm0-6.33h-6.39v-6.08h6.39Zm0-6.32h-6.39V174.5h6.39Zm0-6.33h-6.39v-6.08h6.39Z" style="opacity:0.1"></path><rect x="222.46" y="202.22" width="5.08" height="3.81" style="fill:#407BFF"></rect><rect x="232.3" y="195.18" width="5.08" height="10.85" style="fill:#407BFF"></rect><rect x="242.13" y="187.36" width="5.08" height="18.67" style="fill:#407BFF"></rect><rect x="251.97" y="190.74" width="5.08" height="15.29" style="fill:#407BFF"></rect><rect x="261.8" y="184.6" width="5.08" height="21.43" style="fill:#407BFF"></rect><rect x="271.63" y="169.65" width="5.08" height="36.38" style="fill:#407BFF"></rect><polygon points="282.39 206.51 217.61 206.51 217.61 163.95 218.57 163.95 218.57 205.55 282.39 205.55 282.39 206.51" style="fill:#263238"></polygon></g><g id="freepik--speech-bubble-2--inject-216"><circle cx="412.85" cy="138.2" r="17.96" transform="translate(23.2 332.41) rotate(-45)" style="fill:#407BFF"></circle><path d="M415.51,134.39c0-1.51-1.3-2.54-3.38-2.54a5.08,5.08,0,0,0-4.39,2.08l-2.62-1.7c1.51-2,3.94-3.29,7.31-3.29,4,0,6.61,1.81,6.61,4.91,0,4.4-4.61,4.8-4.61,8H411C411,137.84,415.51,137.09,415.51,134.39Zm-4.94,11.79a2.15,2.15,0,1,1,2.16,2.1A2.07,2.07,0,0,1,410.57,146.18Z" style="fill:#fff"></path><polygon points="412.85 151.03 410.39 154.35 412.85 161.68 415.31 154.35 412.85 151.03" style="fill:#407BFF"></polygon></g><g id="freepik--character-2--inject-216"><path d="M396.75,226.57s-1.22,1.45-3,3.48c-1.62,1.79-3.7,4-5.83,6.11-3.87,3.77-7.91,7-9.55,6-3.15-1.87-1.4-6.89-1.4-6.89s11-20.17,17.78-23.31c4.36-2,10.87-1.13,10.87-1.13C406.3,212.76,396.75,226.57,396.75,226.57Z" style="fill:#407BFF"></path><path d="M393.72,230.05c-1.62,1.79-3.7,4-5.83,6.11,1-9.6,5.58-15.16,5.58-15.16C394.31,222.5,394.25,226.07,393.72,230.05Z" style="opacity:0.2"></path><path d="M428.92,219c3.48-3.9,1.36-11,2.45-25.05s-7.76-16-7.76-16-1.22-7-7.77-6.63-19.37,3.4-19.5,18.5-2.2,17.19-5.69,20.24,3.76,9.21,2.37,12.09c0,0,13.5,5.83,32.46,4.66C425.48,226.81,424.8,223.61,428.92,219Z" style="fill:#263238"></path><path d="M430.65,403.37l-.78,1.08-1.56-.66-1,4.77-6.57,9.11s-2.51.4-.53-4.78a3.65,3.65,0,0,0,.2-.79c.59-3.09-.7-9-.7-9l3.61-5a6.69,6.69,0,0,1,1,.11C425.85,398.43,428.84,399.15,430.65,403.37Z" style="fill:#407BFF"></path><path d="M430.65,403.37l-.78,1.08-1.56-.66-1,4.77-6.57,9.11s-2.51.4-.53-4.78a3.65,3.65,0,0,0,.2-.79c.59-3.09-.7-9-.7-9l3.61-5a6.69,6.69,0,0,1,1,.11C425.85,398.43,428.84,399.15,430.65,403.37Z" style="opacity:0.2"></path><path d="M424.36,398.18h0c-1.21.13-.15,5.47-.63,8.46-.44,2.67-1.6,5.19-3.31,5.45C421,409,418.91,402,418.91,402l2.9-4S423.72,398.07,424.36,398.18Z" style="fill:#ebb376"></path><path d="M424.36,398.18h0c-1.21.13-.15,5.47-.63,8.46-.44,2.67-1.6,5.19-3.31,5.45C421,409,418.91,402,418.91,402l2.9-4S423.72,398.07,424.36,398.18Z" style="opacity:0.2"></path><path d="M420.58,417.33h-1.34l-.37-1.66-4.43,2H403.2s-1.79-1.8,3.56-3.23a4.21,4.21,0,0,0,.76-.29c2.85-1.34,6.92-5.86,6.92-5.86h6.16a7.42,7.42,0,0,1,.51.89C421.78,410.54,423,413.39,420.58,417.33Z" style="fill:#407BFF"></path><path d="M421.11,409.19v0c-.82-.91-4.52,3.08-7.24,4.43-2.42,1.21-5.14,1.74-6.35.52,2.85-1.34,7.34-7.18,7.34-7.18h5S420.82,408.61,421.11,409.19Z" style="fill:#ebb376"></path><path d="M386.61,344.44c3,5.55,6.05,11.52,9,17.5,3.85,7.9,7.47,15.81,10.57,22.89,3.27,7.46,5.92,14,7.58,18.51,1.57.17,6.3-2.65,7.67-5.21a255.62,255.62,0,0,0-11-42.81c-3.06-8.37-6.81-16.59-11.31-23.25,18.4-52.33,13.89-71.95,13.89-71.95l-21.32-.95s-3.22,19.49-5.8,39.48h0c-1.34,10.48-2.51,21.1-2.94,29.12v.07A31.17,31.17,0,0,0,386.61,344.44Z" style="fill:#263238"></path><path d="M404.18,316.5c2.7-8.89,4.65-16.6,6-23.2-1.36-5.17-3.3-9.59-5.93-12.25C404.27,281.05,400.48,295.44,404.18,316.5Z" style="opacity:0.2"></path><path d="M406.15,384.83c3.27,7.46,5.92,14,7.58,18.51,1.57.17,6.3-2.65,7.67-5.21a255.62,255.62,0,0,0-11-42.81C408.81,364,407.06,374.93,406.15,384.83Z" style="opacity:0.2"></path><path d="M399.76,256.8s6.21,48,9.76,71.12c3.74,24.27,4.21,63.21,3.28,79.08,1.36.79,6.31,1.74,9,.91,0,0,12.65-49.08,4.25-77.59,7.65-56.15-3.42-69.9-3.42-69.9Z" style="fill:#263238"></path><path d="M401.83,226.57a100.78,100.78,0,0,1,20.59-14.36l-2.07-.2a99.21,99.21,0,0,0-14.22-.48c-1.17.07-2.38.16-3.57.26h0C399.62,218.54,401.83,226.57,401.83,226.57Z" style="fill:#fff;opacity:0.7000000000000001"></path><path d="M422.42,256.8c.64-7.28,3.25-20.63,7.74-34.65,1.46-4.56-1-9.71-1-9.71s-6.12-.16-6.73-.23l-2.07-.2a99.21,99.21,0,0,0-14.22-.48c-1.17.07-2.38.16-3.57.26-.38,0-4.68.08-5.05.12,0,0-5.95,6.8-6.31,12.31a95.71,95.71,0,0,0-.49,12.77c0,5,.39,11.6.72,18.63Z" style="fill:#407BFF"></path><path d="M422.42,256.8c.64-7.28,3.25-20.63,7.74-34.65,1.46-4.56-1-9.71-1-9.71s-6.12-.16-6.73-.23l-2.07-.2a99.21,99.21,0,0,0-14.22-.48c-1.17.07-2.38.16-3.57.26-.38,0-4.68.08-5.05.12,0,0-5.95,6.8-6.31,12.31a95.71,95.71,0,0,0-.49,12.77c0,5,.39,11.6.72,18.63Z" style="fill:#fff;opacity:0.8"></path><path d="M422.42,256.8l-31-2.09s-.93,9.31-.72,9.18,33.22,1.16,33.22,1.16Z" style="fill:#263238"></path><polygon points="422.14 257.31 391.44 255.62 391.44 258.53 422.42 260.17 422.14 257.31"></polygon><path d="M404.85,259.72h0l-3.23-.17a.85.85,0,0,1-.8-.84v-1.8a.86.86,0,0,1,.27-.62.9.9,0,0,1,.64-.22l3.36.27a.83.83,0,0,1,.77.9l-.13,1.71A.84.84,0,0,1,404.85,259.72Zm-3.23-3.15a.35.35,0,0,0-.23.09.36.36,0,0,0-.11.25v1.8a.35.35,0,0,0,.33.34l3.23.17a.33.33,0,0,0,.35-.31l.14-1.71a.35.35,0,0,0-.32-.37l-3.36-.26Z" style="fill:#fff"></path><path d="M419.9,278.11l10.72-1.94-6.24-23.07s1.6-5.72,3.36-12.29c.85-3.2,1.75-6.59,2.5-9.61a78.53,78.53,0,0,0,2-9.14c.2-3.67-3.08-9.62-3.08-9.62l-7.74-1.26s-7.06,7.79-7.52,22.73S419.9,278.11,419.9,278.11Z" style="fill:#407BFF"></path><path d="M403.72,211.19s-6.73,11.72-8.28,20.38-5.82,45.51-5.82,45.51l-2.32-1.17,3.23-22s-1.16-25.48-.26-30.71,6.76-12,6.76-12Z" style="fill:#407BFF"></path><path d="M407.05,210.63l-.46-.41S400,211,394,218.53l2.33,2.28-4,3.2,1.9,15.45s6.05-20.59,8.67-25.54A18.47,18.47,0,0,1,407.05,210.63Z" style="fill:#407BFF"></path><path d="M407.05,210.63l-.46-.38S400,211,394,218.53l2.33,2.28-4,3.2,1.9,15.45s6.05-20.59,8.67-25.54A18.47,18.47,0,0,1,407.05,210.63Z" style="opacity:0.2"></path><path d="M419.9,211.19s-7.49,8.26-5.83,30l7.33-15.61-2.65-4.27,6.2-5.82s-3.25-6.17-5.55-5.55Z" style="fill:#407BFF"></path><path d="M419.9,211.19s-7.49,8.26-5.83,30l7.33-15.61-2.65-4.27,6.2-5.82s-3.25-6.17-5.55-5.55Z" style="opacity:0.2"></path><path d="M404.3,213.53l1.72,10.3L419.56,212c-2.86-3.15-1.06-11.48.34-16l-3.84,2.88-5.7,4.26a10.49,10.49,0,0,1-.28,3.51c-.43,1.82-1.2,3.52-2.06,3.88Z" style="fill:#ebb376"></path><path d="M410.08,206.61c2.28-.51,5.26-2.86,5.74-5.18a11.37,11.37,0,0,0,.24-2.59l-5.7,4.26A10.49,10.49,0,0,1,410.08,206.61Z" style="opacity:0.2"></path><path d="M418.9,209.38s-5.8,4.48-12.6,13.92c0,0-.61-9.43,1.73-12.8l-.49-.58a22.53,22.53,0,0,0-9,7.1l4.49-1.42,3.07,8.31,9.24-7.63,6.22,1.08S421.29,211.22,418.9,209.38Z" style="fill:#407BFF"></path><path d="M418.9,209.38s-5.8,4.48-12.6,13.92c0,0-.61-9.43,1.73-12.8l-.49-.58a22.53,22.53,0,0,0-9,7.1l4.49-1.42,3.07,8.31,9.24-7.63,6.22,1.08S421.29,211.22,418.9,209.38Z" style="fill:#fff;opacity:0.7000000000000001"></path><path d="M426.32,239a3.54,3.54,0,0,0,1.42,1.78c.85-3.2,1.75-6.59,2.5-9.61-2-2.39-3.66-4.39-3.66-4.39S424.3,233.9,426.32,239Z" style="opacity:0.2"></path><path d="M429.14,212.44c4.25.51,17.24,32.78,16.47,37.88s-28.73,2.78-28.73,2.78v-7.76l16.31-3.29L427.55,231a28.16,28.16,0,0,1-1.23-9.95A22.41,22.41,0,0,1,429.14,212.44Z" style="fill:#407BFF"></path><path d="M404.69,259.61l21.44-2.6a1.42,1.42,0,0,0,1.27-1.63l-3.76-27.58a1.56,1.56,0,0,0-1.73-1.27l-21.44,2.6a1.43,1.43,0,0,0-1.27,1.64L403,258.34A1.54,1.54,0,0,0,404.69,259.61Z" style="fill:#263238"></path><path d="M404.69,259.61l21.44-2.6a1.42,1.42,0,0,0,1.27-1.63l-3.76-27.58a1.56,1.56,0,0,0-1.73-1.27l-21.44,2.6a1.43,1.43,0,0,0-1.27,1.64L403,258.34A1.54,1.54,0,0,0,404.69,259.61Z" style="fill:#fff;opacity:0.6000000000000001"></path><path d="M405.59,259.5,426.13,257a1.42,1.42,0,0,0,1.27-1.63l-3.76-27.58a1.56,1.56,0,0,0-1.73-1.27L401.37,229a1.43,1.43,0,0,0-1.27,1.64l3.76,27.57A1.56,1.56,0,0,0,405.59,259.5Z" style="fill:#fff;opacity:0.2"></path><path d="M413.8,240.72a2.39,2.39,0,0,1,2.67,2,2.22,2.22,0,0,1-2,2.53,2.41,2.41,0,0,1-2.67-2A2.21,2.21,0,0,0,413.8,240.72Z" style="fill:#263238"></path><path d="M406.52,230.62l11.32-1.37a1.32,1.32,0,0,0,1.13-1l.35-1.43-14.95,1.82.76,1.29A1.44,1.44,0,0,0,406.52,230.62Z" style="opacity:0.30000000000000004"></path><path d="M404.9,244.39l6.38,1.82,1.34,4.23c-.61,3.43-7.21,2-7.21,2l-1.36.85a1.83,1.83,0,0,1-2.77-1.23l-.7-4a1.81,1.81,0,0,1,.68-1.76l2-1.58A1.81,1.81,0,0,1,404.9,244.39Z" style="fill:#ebb376"></path><path d="M442.14,237c2.24,6.13,3.75,11.49,3.47,13.32-.78,5.1-33.51,2-33.51,2l-.82-6.07,21.91-4.16Z" style="fill:#407BFF"></path><path d="M410.59,179c-7.34.51-9.44,4.6-9.45,12.21,0,9.51,2.54,16.09,11.59,13.43C425,201,422.79,178.17,410.59,179Z" style="fill:#ebb376"></path><path d="M405.86,190.48a15.84,15.84,0,0,1-1.93,3.2,2.05,2.05,0,0,0,2,.7Z" style="fill:#d58745"></path><path d="M410.31,189.57c0,.61.38,1.08.78,1.06s.71-.52.68-1.12-.37-1.08-.78-1.07S410.29,189,410.31,189.57Z" style="fill:#263238"></path><path d="M411.16,188.47l-1.33-.46S410.53,189.09,411.16,188.47Z" style="fill:#263238"></path><path d="M402.8,189.79c0,.6.37,1.08.77,1.06s.71-.52.68-1.13-.37-1.08-.78-1.06S402.77,189.18,402.8,189.79Z" style="fill:#263238"></path><path d="M403.64,188.68l-1.33-.45S403,189.3,403.64,188.68Z" style="fill:#263238"></path><path d="M413.3,185.73a.31.31,0,0,1-.25-.11,3.48,3.48,0,0,0-2.94-.78.35.35,0,0,1-.41-.28.34.34,0,0,1,.27-.41,4.16,4.16,0,0,1,3.59,1,.35.35,0,0,1,0,.49A.36.36,0,0,1,413.3,185.73Z" style="fill:#263238"></path><path d="M401.79,185.71a.37.37,0,0,1-.28-.14.35.35,0,0,1,.07-.49,3.75,3.75,0,0,1,3.2-.86.35.35,0,0,1-.2.67,3.09,3.09,0,0,0-2.58.75A.38.38,0,0,1,401.79,185.71Z" style="fill:#263238"></path><path d="M419.48,190.84s-3.85-5.8-3.66-10.5c0,0-15-4.94-14.66,9.89,0,0-2.33-13,10.28-14.19s13.83,17.31,7.69,23.27C419.13,199.31,421.86,194.47,419.48,190.84Z" style="fill:#263238"></path><path d="M407.78,197.89a5,5,0,0,1-1-.11.24.24,0,0,1-.19-.29.25.25,0,0,1,.29-.2,3.28,3.28,0,0,0,3.9-2,.25.25,0,0,1,.32-.15.25.25,0,0,1,.15.32A3.87,3.87,0,0,1,407.78,197.89Z" style="fill:#263238"></path><path d="M420.75,189.54h-7.33a2.76,2.76,0,0,0-.14-.67,3.75,3.75,0,0,0-4.39-2.35,3.1,3.1,0,0,0-2.51,2.83,1.33,1.33,0,0,0-.89-.3.75.75,0,0,0-.41.15,2.33,2.33,0,0,0-.11-.51,3.75,3.75,0,0,0-4.39-2.36,3.07,3.07,0,0,0-2.39,3.91,3.76,3.76,0,0,0,4.4,2.35,3.1,3.1,0,0,0,2.51-2.81.69.69,0,0,1,.46-.33,1.19,1.19,0,0,1,.84.47,3.06,3.06,0,0,0,.1.51,3.77,3.77,0,0,0,4.4,2.35,3.11,3.11,0,0,0,2.51-2.83l7.36,0h.05a.2.2,0,0,0,.16-.2A.21.21,0,0,0,420.75,189.54Zm-18.29,2.67a3.29,3.29,0,0,1-3.84-2.06,2.67,2.67,0,0,1,2.09-3.41,3.28,3.28,0,0,1,3.84,2A2.68,2.68,0,0,1,402.46,192.21Zm8.31.19a3.29,3.29,0,0,1-3.84-2.06,2.68,2.68,0,0,1,2.09-3.42,3.29,3.29,0,0,1,3.84,2.06A2.68,2.68,0,0,1,410.77,192.4Z" style="fill:#263238"></path><g style="isolation:isolate;opacity:0.30000000000000004"><path d="M420.75,189.54h-7.33a2.76,2.76,0,0,0-.14-.67,3.75,3.75,0,0,0-4.39-2.35,3.1,3.1,0,0,0-2.51,2.83,1.33,1.33,0,0,0-.89-.3.75.75,0,0,0-.41.15,2.33,2.33,0,0,0-.11-.51,3.75,3.75,0,0,0-4.39-2.36,3.07,3.07,0,0,0-2.39,3.91,3.76,3.76,0,0,0,4.4,2.35,3.1,3.1,0,0,0,2.51-2.81.69.69,0,0,1,.46-.33,1.19,1.19,0,0,1,.84.47,3.06,3.06,0,0,0,.1.51,3.77,3.77,0,0,0,4.4,2.35,3.11,3.11,0,0,0,2.51-2.83l7.36,0h.05a.2.2,0,0,0,.16-.2A.21.21,0,0,0,420.75,189.54Zm-18.29,2.67a3.29,3.29,0,0,1-3.84-2.06,2.67,2.67,0,0,1,2.09-3.41,3.28,3.28,0,0,1,3.84,2A2.68,2.68,0,0,1,402.46,192.21Zm8.31.19a3.29,3.29,0,0,1-3.84-2.06,2.68,2.68,0,0,1,2.09-3.42,3.29,3.29,0,0,1,3.84,2.06A2.68,2.68,0,0,1,410.77,192.4Z" style="fill:#fff"></path></g><path d="M418.39,192.47a3.21,3.21,0,0,1,3.26-3.18c2.29.09,3.7,4.69-1.88,6.2C419,195.71,418.45,195,418.39,192.47Z" style="fill:#ebb376"></path><path d="M382.44,238.7s16.5-21.67,15.07-26.79-11.13,11-11.13,11Z" style="opacity:0.2"></path><path d="M406.63,204.86c-2.1-.71-3.48-2.42-4.33-4.83l2.31-.72Z" style="opacity:0.2"></path><path d="M393.47,209l4.19-6.3,4.3,7.2s-4.07,5.4-6.76,3.18Z" style="fill:#ebb376"></path><polygon points="404.45 199.57 406.05 207.02 401.96 209.94 397.66 202.74 404.45 199.57" style="fill:#ebb376"></polygon><path d="M382.84,238.36l-4.5,3.83a5,5,0,0,1-5-4.47c-1.4-7.66,19.7-29.67,19.7-29.67l4.09,5.56Z" style="fill:#407BFF"></path></g></svg>
