<svg xmlns="http://www.w3.org/2000/svg" viewBox="0 0 500 500"><g id="freepik--Coins--inject-10"><path d="M214.49,155.68c-2.21,5.37-15.22,5-28.85-.62s-22.9-14.53-20.69-19.9c.52-1.24,2-5.89,3.48-6.53,5.08-2.15,14.75,2.68,25.22,7,9.75,4,20.9,6.61,22.63,11.9C217.32,150.75,215.12,154.15,214.49,155.68Z" style="fill:#0D6EFD"></path><path d="M216.28,147.53c.83,4.21-1,6.23-1.79,8.15s-3.1,3.18-6.33,3.62a11.35,11.35,0,0,1-1.22.14,33.4,33.4,0,0,1-7.41-.39c-.35,0-.7-.11-1.06-.17A58.91,58.91,0,0,1,190,156.7l-1-.34c-1.11-.39-2.25-.82-3.39-1.29s-2.22-1-3.29-1.47l-.92-.44a59.56,59.56,0,0,1-7.27-4.26l-.82-.58a32.65,32.65,0,0,1-5.53-4.94c-.25-.28-.48-.55-.7-.83-2.15-2.72-3-5.32-2.15-7.39.56-1.33,1.76-5.88,3.48-6.54a11.93,11.93,0,0,1,6.47,0l1,.24c5,1.28,11.3,4.13,17.73,6.78,7.58,3.13,16.55,6.38,20.95,10.13a10,10,0,0,1,.75.7A9,9,0,0,1,216.28,147.53Z" style="opacity:0.2"></path><g style="opacity:0.2"><path d="M176.38,128l-.46.84-8.12,14.53c-.25-.28-.48-.55-.7-.83l7.8-13.94.61-1.08Z"></path></g><g style="opacity:0.2"><path d="M182.52,133.93l-8.37,15-.82-.58,8.32-14.88Z"></path></g><g style="opacity:0.2"><path d="M197.91,142.53,190,156.7l-1-.34L197,142Z"></path></g><g style="opacity:0.2"><path d="M190.75,138.53l-8.41,15.07-.92-.44L189.88,138Z"></path></g><g style="opacity:0.2"><path d="M207.24,145.27l-7.71,13.78c-.35,0-.7-.11-1.06-.17l7.89-14.11Z"></path></g><path d="M216.22,151c-2.21,5.37-15.06,5.16-28.7-.47s-22.9-14.53-20.68-19.9,15.06-5.15,28.7.47S218.43,145.6,216.22,151Z" style="fill:#0D6EFD"></path><path d="M211.58,149.05c-1.56,3.79-11.58,3.26-22.37-1.19s-18.27-11.14-16.71-14.93,11.58-3.26,22.38,1.19S213.15,145.26,211.58,149.05Z" style="fill:#fff;opacity:0.2"></path><path d="M283.41,107.14c3.56,4.59-3.22,15.7-14.89,24.73s-24,12.63-27.55,8c-.82-1.06-4.14-4.61-3.94-6.27.67-5.47,9.66-11.45,18.62-18.39,8.34-6.46,16.13-14.84,21.58-13.71C280.54,102.23,282.4,105.84,283.41,107.14Z" style="fill:#0D6EFD"></path><path d="M277.23,101.54c4.07,1.38,4.91,4,6.18,5.6s1.22,4.27,0,7.3c-.14.37-.31.74-.49,1.12a33.12,33.12,0,0,1-4,6.24c-.21.28-.44.55-.67.83a58.73,58.73,0,0,1-6.12,6.28l-.77.67c-.89.77-1.83,1.54-2.8,2.29s-1.94,1.46-2.92,2.13c-.27.2-.56.39-.83.58a58.57,58.57,0,0,1-7.32,4.18c-.31.16-.61.29-.9.43a33,33,0,0,1-7.05,2.34c-.36.08-.71.14-1.06.19-3.43.51-6.11,0-7.48-1.81-.88-1.14-4.23-4.45-3.94-6.26a11.79,11.79,0,0,1,3.21-5.63c.22-.25.46-.5.71-.76,3.61-3.74,9.2-7.75,14.7-12,6.49-5,13.77-11.19,19.2-13.13a10.2,10.2,0,0,1,1-.31A9.43,9.43,0,0,1,277.23,101.54Z" style="opacity:0.2"></path><g style="opacity:0.2"><path d="M240.45,126.44l.5.82,8.56,14.27c-.36.08-.71.14-1.06.19L240.24,128,239.6,127Z"></path></g><g style="opacity:0.2"><path d="M248.64,124.06l8.82,14.7c-.31.16-.61.29-.9.43l-8.78-14.62Z"></path></g><g style="opacity:0.2"><path d="M263.75,115l8.35,13.92-.77.67-8.44-14.08Z"></path></g><g style="opacity:0.2"><path d="M256.73,119.21,265.61,134c-.27.2-.56.39-.83.58l-8.92-14.86Z"></path></g><g style="opacity:0.2"><path d="M270.77,108.25l8.12,13.55c-.21.28-.44.55-.67.83l-8.31-13.86Z"></path></g><ellipse cx="259.06" cy="119.65" rx="26.71" ry="10.51" transform="translate(-19.02 183.68) rotate(-37.76)" style="fill:#0D6EFD"></ellipse><ellipse cx="259.5" cy="119.31" rx="21.14" ry="7.43" transform="translate(-18.72 183.87) rotate(-37.76)" style="fill:#fff;opacity:0.2"></ellipse><path d="M235.14,85.64C234,92.22,219.24,95,202.52,92s-29.33-10.73-28.16-17.31c.27-1.53.74-7.1,2.31-8.21,5.19-3.66,17.25-.6,30.09,1.68,12,2.13,25.13,2.3,28.38,7.83C237.11,79.39,235.47,83.76,235.14,85.64Z" style="fill:#0D6EFD"></path><path d="M235.14,76c2,4.54.41,7.25,0,9.61s-2.7,4.33-6.22,5.63c-.43.17-.88.31-1.34.45a38.69,38.69,0,0,1-8.44,1.39c-.41,0-.81,0-1.23.07a68.73,68.73,0,0,1-10.08-.37l-1.17-.15c-1.35-.17-2.74-.37-4.13-.62s-2.74-.53-4.07-.84c-.38-.08-.76-.18-1.14-.27a66.94,66.94,0,0,1-9.22-3c-.37-.14-.72-.3-1.07-.44a38.07,38.07,0,0,1-7.44-4.21c-.35-.25-.67-.5-1-.76-3.1-2.53-4.69-5.25-4.24-7.78.3-1.64.54-7,2.3-8.21s4.28-1.59,7.28-1.6h1.2c6,.2,13.73,1.87,21.62,3.27,9.3,1.66,20.19,3.11,26.05,6.25a11,11,0,0,1,1,.6A10.64,10.64,0,0,1,235.14,76Z" style="opacity:0.2"></path><g style="opacity:0.2"><path d="M185.46,63.88l-.32,1.05-5.56,18.34c-.35-.25-.67-.5-1-.76l5.34-17.59.42-1.37Z"></path></g><g style="opacity:0.2"><path d="M193.82,69l-5.73,18.89c-.37-.14-.72-.3-1.07-.44l5.7-18.8Z"></path></g><g style="opacity:0.2"><path d="M213.25,74.92l-5.43,17.89-1.17-.15,5.49-18.08Z"></path></g><g style="opacity:0.2"><path d="M204.22,72.18l-5.77,19c-.38-.08-.76-.18-1.14-.27l5.8-19.09Z"></path></g><g style="opacity:0.2"><path d="M224.42,75.7l-5.29,17.41c-.41,0-.81,0-1.23.07l5.41-17.81Z"></path></g><ellipse cx="205.64" cy="74.52" rx="12.1" ry="30.76" transform="translate(96.24 263.91) rotate(-79.91)" style="fill:#0D6EFD"></ellipse><ellipse cx="206.27" cy="74.63" rx="8.55" ry="24.34" transform="translate(96.65 264.63) rotate(-79.91)" style="fill:#fff;opacity:0.2"></ellipse></g><g id="freepik--Wallet--inject-10"><path d="M322.44,253.63l-102.91,6A30.32,30.32,0,0,0,209,262.19l-111.78,50a9.36,9.36,0,0,0-5.4,10.46L110.29,410a9.45,9.45,0,0,0,13.5,6.38l110.33-55.08L336,357.89a8.83,8.83,0,0,0,8.49-10.18l-13.63-83.64C330.15,259.75,326.87,253.5,322.44,253.63Z" style="fill:#0D6EFD"></path><path d="M322.44,253.63l-102.91,6A30.32,30.32,0,0,0,209,262.19l-111.78,50a9.36,9.36,0,0,0-5.4,10.46L110.29,410a9.45,9.45,0,0,0,13.5,6.38l110.33-55.08L336,357.89a8.83,8.83,0,0,0,8.49-10.18l-13.63-83.64C330.15,259.75,326.87,253.5,322.44,253.63Z" style="opacity:0.1"></path><rect x="100.6" y="202.73" width="73.45" height="142.99" transform="translate(-149.5 165.66) rotate(-42.67)" style="fill:#0D6EFD"></rect><polygon points="212.78 301.9 158.77 351.68 61.87 246.55 97.31 213.88 115.88 196.76 118.97 200.12 212.78 301.9" style="fill:#fafafa;opacity:0.5"></polygon><rect x="105.32" y="207.45" width="64.81" height="133.75" transform="translate(-149.47 165.96) rotate(-42.67)" style="fill:none;stroke:#0D6EFD;stroke-miterlimit:10"></rect><ellipse cx="137" cy="273.55" rx="13.46" ry="16.88" transform="translate(-149.13 165.27) rotate(-42.67)" style="fill:#0D6EFD"></ellipse><polygon points="158.2 309.01 139.01 315.64 97.31 213.88 115.88 196.76 118.97 200.12 158.2 309.01" style="opacity:0.1"></polygon><rect x="115.05" y="163.81" width="73.45" height="142.99" transform="translate(-71.11 65.82) rotate(-19.93)" style="fill:#0D6EFD"></rect><rect x="115.05" y="163.81" width="73.45" height="142.99" transform="translate(-71.11 65.82) rotate(-19.93)" style="fill:#fafafa;opacity:0.5"></rect><rect x="119.69" y="168.68" width="64.81" height="133.75" transform="translate(-71.18 65.94) rotate(-19.93)" style="fill:none;stroke:#0D6EFD;stroke-miterlimit:10"></rect><ellipse cx="151.74" cy="234.56" rx="13.46" ry="16.88" transform="translate(-70.86 65.76) rotate(-19.93)" style="fill:#0D6EFD"></ellipse><path d="M323.11,257.18l-101.5,5.72a29.06,29.06,0,0,0-10.41,2.55L101.06,315.17a9.35,9.35,0,0,0-5.3,10.44L114.23,413a9.35,9.35,0,0,0,13.34,6.41l108.7-54.77,100.48-3.18a8.75,8.75,0,0,0,8.36-10.15l-13.67-83.63C330.73,263.32,327.49,257.06,323.11,257.18Z" style="fill:#0D6EFD"></path><line x1="225.74" y1="278.2" x2="312.83" y2="272.84" style="fill:none;stroke:#000;stroke-linecap:round;stroke-linejoin:round;stroke-width:2px;opacity:0.2"></line><line x1="215.31" y1="280.45" x2="231.22" y2="353.53" style="fill:none;stroke:#000;stroke-linecap:round;stroke-linejoin:round;stroke-width:2px;opacity:0.2"></line><path d="M109.23,346.43l11.22,56.21S129.05,380.34,109.23,346.43Z" style="fill:#fafafa;opacity:0.2"></path><path d="M110.7,347.09c.39,1,99.66-41.6,99.66-41.6A52.24,52.24,0,0,1,183,352.89C153.12,369.64,110.7,347.09,110.7,347.09Z" style="fill:#fafafa;opacity:0.2"></path><circle cx="176.64" cy="344.45" r="4.3" style="fill:#0D6EFD"></circle><path d="M210.41,305.49s12.31,18.53,9.33,50.09" style="opacity:0.2"></path><g style="opacity:0.2"><line x1="104.48" y1="324.35" x2="106.77" y2="323.34" style="fill:none;stroke:#fafafa;stroke-linecap:round;stroke-linejoin:round"></line><line x1="111.52" y1="321.24" x2="204.22" y2="280.26" style="fill:none;stroke:#fafafa;stroke-linecap:round;stroke-linejoin:round;stroke-dasharray:5.1975297927856445,5.1975297927856445"></line><line x1="206.6" y1="279.21" x2="208.88" y2="278.2" style="fill:none;stroke:#fafafa;stroke-linecap:round;stroke-linejoin:round"></line></g><line x1="228.66" y1="294.63" x2="315.75" y2="289.26" style="fill:none;stroke:#000;stroke-linecap:round;stroke-linejoin:round;stroke-width:2px;opacity:0.2"></line><line x1="232.58" y1="315.12" x2="319.67" y2="309.75" style="fill:none;stroke:#000;stroke-linecap:round;stroke-linejoin:round;stroke-width:2px;opacity:0.2"></line></g><g id="freepik--Card--inject-10"><path d="M306.31,188.93l-21.12,73.46a12.8,12.8,0,0,1-11,9.22,13.06,13.06,0,0,1-4.82-.44L229,259.56a12.83,12.83,0,0,1-8.78-15.85l21.13-73.48a12.82,12.82,0,0,1,15.84-8.76l40.4,11.6A12.82,12.82,0,0,1,306.31,188.93Z" style="fill:#0D6EFD"></path><path d="M306.31,188.93l-21.12,73.46a12.8,12.8,0,0,1-11,9.22,13.06,13.06,0,0,1-4.82-.44L229,259.56a12.83,12.83,0,0,1-8.78-15.85l21.13-73.48a12.82,12.82,0,0,1,15.84-8.76l40.4,11.6A12.82,12.82,0,0,1,306.31,188.93Z" style="opacity:0.2"></path><path d="M302.8,189.8l-21.12,73.47a12.77,12.77,0,0,1-7.51,8.34,13.06,13.06,0,0,1-4.82-.44L229,259.56a12.83,12.83,0,0,1-8.78-15.85l21.13-73.48a12.74,12.74,0,0,1,7.51-8.32,12.65,12.65,0,0,1,4.82.44L294,174A12.82,12.82,0,0,1,302.8,189.8Z" style="fill:#0D6EFD"></path><path d="M302.8,189.8l-21.12,73.47a12.77,12.77,0,0,1-7.51,8.34,13.06,13.06,0,0,1-4.82-.44L229,259.56a12.83,12.83,0,0,1-8.78-15.85l21.13-73.48a12.74,12.74,0,0,1,7.51-8.32,12.65,12.65,0,0,1,4.82.44L294,174A12.82,12.82,0,0,1,302.8,189.8Z" style="fill:#fafafa;opacity:0.5"></path><rect x="233.85" y="194.35" width="4.49" height="57.34" transform="translate(69.34 -55.67) rotate(15.74)" style="fill:#fafafa"></rect><polygon points="236.67 252.99 232.35 251.74 247.9 196.57 252.21 197.81 236.67 252.99" style="fill:#fafafa"></polygon><polygon points="242.95 254.79 238.63 253.55 254.18 198.38 258.5 199.62 242.95 254.79" style="fill:#fafafa"></polygon><rect x="271.48" y="205.16" width="4.49" height="57.34" transform="translate(73.68 -65.48) rotate(15.74)" style="opacity:0.5"></rect><path d="M283.1,191.25,281,198.74l-2.56-.72a4.87,4.87,0,0,1-3.36-6l1.4-5,5.17,1.48A2.2,2.2,0,0,1,283.1,191.25Z" style="fill:#fafafa"></path><path d="M281.87,187.58l-5.17-1.48,1.55-5.48a4.86,4.86,0,0,1,6-3.36l2.66.75-2.32,8.07A2.17,2.17,0,0,1,281.87,187.58Z" style="fill:#fafafa"></path><path d="M286.77,190l5.2,1.49-1.38,4.89a4.84,4.84,0,0,1-6,3.36l-2.7-.76,2.15-7.48A2.19,2.19,0,0,1,286.77,190Z" style="fill:#fafafa"></path><path d="M293.81,185l-1.57,5.56-5.2-1.49a2.2,2.2,0,0,1-1.5-2.71l2.32-8.07,2.59.73A4.85,4.85,0,0,1,293.81,185Z" style="fill:#fafafa"></path></g></svg>