<svg xmlns="http://www.w3.org/2000/svg" viewBox="0 0 500 500"><g id="freepik--Floor--inject-11"><path id="freepik--floor--inject-11" d="M76,437.23c-96.1-63.89-96.1-167.49,0-231.38s251.92-63.9,348,0,96.1,167.49,0,231.38S172.09,501.13,76,437.23Z" style="fill:#f5f5f5"></path></g><g id="freepik--Gears--inject-11"><g id="freepik--Gear--inject-11"><path id="freepik--gear--inject-11" d="M432.32,60.65V52.87a.5.5,0,0,0-.76-.5l-6,2.71a.71.71,0,0,1-1-.47,13,13,0,0,0-1.33-3,1.61,1.61,0,0,1-.09-1.45l4-8.06a.9.9,0,0,0-.35-1.17l-4.34-2.5a.89.89,0,0,0-1.19.28l-5,7.48a1.66,1.66,0,0,1-1.3.65,13.29,13.29,0,0,0-3.25.33.71.71,0,0,1-.9-.63L410.17,40a.5.5,0,0,0-.81-.41l-6.74,3.89a1.8,1.8,0,0,0-.8,1.25l-.68,7.5a2.53,2.53,0,0,1-.7,1.4,39.22,39.22,0,0,0-3.74,4,1.28,1.28,0,0,1-1.32.37l-4.33-1.51a1.06,1.06,0,0,0-1.21.45l-4.95,8.58a1.05,1.05,0,0,0,.22,1.28l3.47,3a1.3,1.3,0,0,1,.33,1.34,40.86,40.86,0,0,0-1.56,5.22,2.46,2.46,0,0,1-.86,1.3L380.34,82a1.82,1.82,0,0,0-.69,1.33v7.78a.5.5,0,0,0,.77.49l6-2.7a.71.71,0,0,1,1,.46,13.46,13.46,0,0,0,1.34,3,1.7,1.7,0,0,1,.09,1.46l-4,8.05a.91.91,0,0,0,.36,1.17l4.33,2.51a.92.92,0,0,0,1.2-.28l5-7.49a1.64,1.64,0,0,1,1.3-.65,13.21,13.21,0,0,0,3.24-.33.72.72,0,0,1,.9.64l.66,6.54a.5.5,0,0,0,.81.42l6.74-3.89a1.84,1.84,0,0,0,.8-1.26l.67-7.49a2.47,2.47,0,0,1,.7-1.4,41.47,41.47,0,0,0,3.74-4,1.31,1.31,0,0,1,1.33-.38l4.32,1.51a1.05,1.05,0,0,0,1.21-.45l5-8.57a1.06,1.06,0,0,0-.22-1.28l-3.47-3a1.29,1.29,0,0,1-.34-1.33,40.22,40.22,0,0,0,1.56-5.22,2.48,2.48,0,0,1,.86-1.31L431.64,62A1.81,1.81,0,0,0,432.32,60.65ZM406,85.1c-6.29,3.63-11.38.69-11.38-6.57S399.7,62.45,406,58.82s11.38-.68,11.38,6.57S412.27,81.47,406,85.1Z" style="fill:#ebebeb"></path><path id="freepik--gear--inject-11" d="M457.62,94.47l-.72-4.16a.69.69,0,0,0-1.14-.5L452,92.32a1.11,1.11,0,0,1-1.54-.34,8.37,8.37,0,0,0-.74-.91,1.89,1.89,0,0,1-.45-1.82L451.17,84a1,1,0,0,0-.71-1.31L447.58,82a1.55,1.55,0,0,0-1.63.76l-2.71,5.15a2.8,2.8,0,0,1-1.63,1.23,13.72,13.72,0,0,0-1.78.59,1,1,0,0,1-1.36-.63l-1-3.22a.72.72,0,0,0-1.22-.39L432,88.91a2.43,2.43,0,0,0-.82,1.83l.26,4.1a3.25,3.25,0,0,1-.67,2,30.63,30.63,0,0,0-2,2.65,2.23,2.23,0,0,1-1.76.89l-2.77-.14a1.77,1.77,0,0,0-1.59,1L420,107.05a1.12,1.12,0,0,0,.58,1.48l2.24,1a1.37,1.37,0,0,1,.77,1.54,25.46,25.46,0,0,0-.48,2.79,3.46,3.46,0,0,1-.93,1.89l-3.83,3.52a2.32,2.32,0,0,0-.64,1.88l.72,4.17a.69.69,0,0,0,1.14.49l3.82-2.51a1.1,1.1,0,0,1,1.53.34,8.37,8.37,0,0,0,.74.91,1.9,1.9,0,0,1,.45,1.82l-1.95,5.27a1,1,0,0,0,.72,1.31l2.87.64a1.55,1.55,0,0,0,1.63-.75l2.71-5.16a2.83,2.83,0,0,1,1.64-1.23,13.6,13.6,0,0,0,1.77-.59,1,1,0,0,1,1.36.63l1,3.23a.72.72,0,0,0,1.22.38l4.31-3.39a2.43,2.43,0,0,0,.82-1.83l-.26-4.1a3.25,3.25,0,0,1,.67-2,32.92,32.92,0,0,0,2-2.65,2.21,2.21,0,0,1,1.75-.89l2.77.14a1.8,1.8,0,0,0,1.6-1l2.6-5.84a1.1,1.1,0,0,0-.58-1.48l-2.24-1a1.38,1.38,0,0,1-.77-1.54,23.28,23.28,0,0,0,.48-2.79,3.47,3.47,0,0,1,.94-1.89L457,96.35A2.29,2.29,0,0,0,457.62,94.47ZM439.2,116.68c-4.67,3.67-9.15,2.67-10-2.24s2.26-11.86,6.93-15.54,9.15-2.67,10,2.24S443.88,113,439.2,116.68Z" style="fill:#ebebeb"></path></g></g><g id="freepik--Arrow--inject-11"><g id="freepik--arrow--inject-11"><polygon points="338.94 48.07 334.65 45.57 297.39 58.97 305.62 66.67 200.22 179.22 178.26 158.49 173.96 155.99 91.69 243.84 101.56 253.08 105.86 255.59 177.48 179.11 197.94 197.89 204.38 201.65 318.96 79.3 323.71 83.61 328.01 86.12 338.94 48.07" style="fill:#407BFF"></polygon><polygon points="338.94 48.07 334.65 45.57 297.39 58.97 305.62 66.67 200.22 179.22 178.26 158.49 173.96 155.99 91.69 243.84 101.56 253.08 105.86 255.59 177.48 179.11 197.94 197.89 204.38 201.65 318.96 79.3 323.71 83.61 328.01 86.12 338.94 48.07" style="fill:#fff;opacity:0.25"></polygon><polygon points="338.94 48.07 328.01 86.12 319.78 78.42 204.38 201.65 178.88 177.61 105.86 255.59 95.98 246.34 178.26 158.49 203.75 182.53 309.91 69.17 301.69 61.47 338.94 48.07" style="fill:#407BFF"></polygon><polygon points="178.88 177.61 177.48 179.11 197.94 197.89 204.38 201.65 178.88 177.61" style="fill:#407BFF"></polygon><polygon points="178.88 177.61 177.48 179.11 197.94 197.89 204.38 201.65 178.88 177.61" style="opacity:0.2"></polygon><polygon points="305.62 66.67 309.91 69.17 301.69 61.47 297.39 58.97 305.62 66.67" style="fill:#407BFF"></polygon><polygon points="305.62 66.67 309.91 69.17 301.69 61.47 297.39 58.97 305.62 66.67" style="opacity:0.2"></polygon><polygon points="318.96 79.3 319.78 78.42 328.01 86.12 323.71 83.61 318.96 79.3" style="fill:#407BFF"></polygon><polygon points="318.96 79.3 319.78 78.42 328.01 86.12 323.71 83.61 318.96 79.3" style="opacity:0.2"></polygon><polygon points="91.69 243.84 95.98 246.34 105.86 255.59 101.56 253.08 91.69 243.84" style="fill:#407BFF"></polygon><polygon points="91.69 243.84 95.98 246.34 105.86 255.59 101.56 253.08 91.69 243.84" style="opacity:0.2"></polygon><polygon points="123.1 217.39 178.26 160.31 203.75 182.53 178.26 158.49 123.1 217.39" style="fill:#fff;opacity:0.5"></polygon><polygon points="252.39 130.6 311.16 69.17 303.24 61.85 338.94 48.07 301.69 61.47 309.91 69.17 252.39 130.6" style="fill:#fff;opacity:0.5"></polygon></g></g><g id="freepik--bar-chart--inject-11"><g id="freepik--bar-graph--inject-11"><g style="opacity:0.30000000000000004"><path d="M340.94,320.78a.63.63,0,0,1-.33-.09L297.91,296a.68.68,0,0,1-.33-.57.66.66,0,0,1,.33-.57l53.37-30.81a.65.65,0,0,1,.66,0l42.7,24.65a.65.65,0,0,1,.32.57.67.67,0,0,1-.32.57l-53.37,30.81A.68.68,0,0,1,340.94,320.78Zm-41.38-25.31,41.38,23.89L393,289.31l-41.38-23.89Z" style="fill:#407BFF"></path></g><polygon points="340.94 313.96 340.93 149.09 308.91 130.6 308.92 295.47 340.94 313.96" style="fill:#407BFF"></polygon><polygon points="340.94 313.96 340.93 149.09 308.91 130.6 308.92 295.47 340.94 313.96" style="opacity:0.2"></polygon><polygon points="340.94 313.96 383.63 289.31 383.64 124.44 340.93 149.09 340.94 313.96" style="fill:#407BFF"></polygon><polygon points="383.64 124.44 351.62 105.95 308.91 130.6 340.93 149.09 383.64 124.44" style="fill:#407BFF"></polygon><polygon points="383.64 124.44 351.62 105.95 308.91 130.6 340.93 149.09 383.64 124.44" style="fill:#fff;opacity:0.25"></polygon><path d="M383.64,124.44l-43.13,23.78-14-7.82-17.59-9.8,17.28,10.34,14.17,8.46c-.34,4.8-.43,87.56-.37,92.37s.31,67.28.95,72.19c.64-4.91.86-67.28.93-72.19.07-4.65,0-87.26-.34-91.91Z" style="fill:#fff;opacity:0.30000000000000004"></path><g style="opacity:0.30000000000000004"><path d="M260.88,367a.68.68,0,0,1-.33-.09l-42.69-24.65a.68.68,0,0,1-.33-.57.66.66,0,0,1,.33-.57l53.37-30.81a.65.65,0,0,1,.66,0L314.58,335a.66.66,0,0,1,.33.57.68.68,0,0,1-.33.57l-53.37,30.81A.63.63,0,0,1,260.88,367ZM219.5,341.69l41.38,23.89,52.06-30.05-41.38-23.89Z" style="fill:#407BFF"></path></g><polygon points="260.88 360.18 260.88 227.75 228.86 209.26 228.86 341.69 260.88 360.18" style="fill:#407BFF"></polygon><polygon points="260.88 360.18 260.88 227.75 228.86 209.26 228.86 341.69 260.88 360.18" style="fill:#fff;opacity:0.1"></polygon><polygon points="260.88 360.18 303.58 335.53 303.58 203.1 260.88 227.75 260.88 360.18" style="fill:#407BFF"></polygon><polygon points="260.88 360.18 303.58 335.53 303.58 203.1 260.88 227.75 260.88 360.18" style="fill:#fff;opacity:0.30000000000000004"></polygon><polygon points="303.58 203.1 271.56 184.62 228.86 209.26 260.88 227.75 303.58 203.1" style="fill:#407BFF"></polygon><polygon points="303.58 203.1 271.56 184.62 228.86 209.26 260.88 227.75 303.58 203.1" style="fill:#fff;opacity:0.55"></polygon><path d="M261.45,228.08l42.13-25-42.7,24c-4.65-2.64-9.76-5.47-14.43-8.07l-17.59-9.79,17.28,10.33c4.72,2.83,9.44,5.67,14.18,8.46-.15,5,.24,127,.56,132.12C261.21,355.09,261.59,232.9,261.45,228.08Z" style="fill:#fff;opacity:0.30000000000000004"></path><g style="opacity:0.30000000000000004"><path d="M180.83,413.22a.66.66,0,0,1-.33-.09l-42.7-24.65a.67.67,0,0,1-.32-.57.65.65,0,0,1,.32-.57l53.37-30.81a.65.65,0,0,1,.66,0l42.7,24.65a.65.65,0,0,1,.32.57.67.67,0,0,1-.32.57l-53.37,30.81A.68.68,0,0,1,180.83,413.22Zm-41.38-25.31,41.38,23.89,52-30.05L191.5,357.86Z" style="fill:#407BFF"></path></g><polygon points="180.83 406.4 180.82 317.24 148.8 298.75 148.81 387.91 180.83 406.4" style="fill:#407BFF"></polygon><polygon points="180.83 406.4 180.82 317.24 148.8 298.75 148.81 387.91 180.83 406.4" style="opacity:0.45"></polygon><polygon points="180.83 406.4 223.52 381.75 223.53 292.59 180.82 317.24 180.83 406.4" style="fill:#407BFF"></polygon><polygon points="180.83 406.4 223.52 381.75 223.53 292.59 180.82 317.24 180.83 406.4" style="opacity:0.30000000000000004"></polygon><polygon points="223.53 292.59 191.51 274.1 148.8 298.75 180.82 317.24 223.53 292.59" style="fill:#407BFF"></polygon><polygon points="223.53 292.59 191.51 274.1 148.8 298.75 180.82 317.24 223.53 292.59" style="opacity:0.15"></polygon><path d="M223.53,292.59l-42.71,24-14.43-8.05-17.59-9.8,17.28,10.34L180.24,318s-.05,85.4.59,88.43c.64-3,.62-88.41.62-88.41Z" style="fill:#fff;opacity:0.30000000000000004"></path></g></g><g id="freepik--pie-charts--inject-11"><g id="freepik--pie-chart--inject-11"><path d="M272.75,443.13c-10.87,0-21.74-2.39-30-7.17-8.13-4.69-12.6-11-12.6-17.65s4.47-13,12.6-17.65c16.56-9.56,43.5-9.56,60,0h0c8.13,4.69,12.6,11,12.6,17.65s-4.47,13-12.6,17.65S283.63,443.13,272.75,443.13Zm0-48.56c-10.68,0-21.36,2.34-29.49,7-7.77,4.49-12.05,10.42-12.05,16.71s4.28,12.22,12.05,16.71c16.26,9.38,42.71,9.38,59,0,7.77-4.49,12.05-10.42,12.05-16.71S310,406.09,302.24,401.6h0C294.11,396.91,283.43,394.57,272.76,394.57Z" style="fill:#407BFF"></path><g id="freepik--pie-chart--inject-11"><path d="M273.88,409.43v7.08l-7-19v-7.07h0Z" style="fill:#263238"></path><polygon points="273.88 409.43 273.88 416.51 302.73 406.5 302.73 399.43 273.88 409.43" style="fill:#37474f"></polygon><path d="M266.89,390.43l7,19,28.85-10C294.81,392.52,281,389.06,266.89,390.43Z" style="fill:#455a64"></path><path d="M236.75,410.75a1.48,1.48,0,0,0,0,.21v-.21Z" style="fill:#407BFF"></path><path d="M271,418.36l-4.29,20.15c-17.48-1.71-30.11-10.55-30-20.66V411c0,10,12.61,18.78,30,20.48l2.95-13.85Z" style="fill:#407BFF"></path><path d="M271,418.36l-4.29,20.15c-17.48-1.71-30.11-10.55-30-20.66V411c0,10,12.61,18.78,30,20.48l2.95-13.85Z" style="opacity:0.4"></path><path d="M270,431.67v7.08a55.9,55.9,0,0,0,21.28-2.91c8.25-2.86,14.07-7.41,16.4-12.79a13,13,0,0,0,1.08-4.94c0-.67,0-7.32,0-7.32s-2-.15-4.34-2.65L299,410l-24.74,8.58Z" style="fill:#407BFF"></path><path d="M270,431.67v7.08a55.9,55.9,0,0,0,21.28-2.91c8.25-2.86,14.07-7.41,16.4-12.79a13,13,0,0,0,1.08-4.94c0-.67,0-7.32,0-7.32s-2-.15-4.34-2.65L299,410l-24.74,8.58Z" style="fill:#fff;opacity:0.6000000000000001"></path><polygon points="248.48 402.66 269.97 415.06 269.97 407.99 248.48 395.58 248.48 402.66" style="fill:#407BFF"></polygon><polygon points="248.48 402.66 269.97 415.06 269.97 407.99 248.48 395.58 248.48 402.66" style="opacity:0.1"></polygon><path d="M237,408.41c-2.35,11.06,10.87,21.19,29.71,23L271,411.29l-24.87-14.36C241,400.18,238,404,237,408.41Z" style="fill:#407BFF"></path><path d="M237,408.41c-2.35,11.06,10.87,21.19,29.71,23L271,411.29l-24.87-14.36C241,400.18,238,404,237,408.41Z" style="opacity:0.30000000000000004"></path><path d="M270.13,431.08l-.12.59a55.71,55.71,0,0,0,21.28-2.91c8.25-2.86,14.07-7.4,16.4-12.79,2.19-5.08,1-10.33-3.26-14.9l-5.4,1.87-24.74,8.58Z" style="fill:#407BFF"></path><path d="M270.13,431.08l-.12.59a55.71,55.71,0,0,0,21.28-2.91c8.25-2.86,14.07-7.4,16.4-12.79,2.19-5.08,1-10.33-3.26-14.9l-5.4,1.87-24.74,8.58Z" style="fill:#fff;opacity:0.75"></path><path d="M248.48,395.58,270,408l-6.32-17.17A44.25,44.25,0,0,0,248.48,395.58Z" style="fill:#407BFF"></path><polygon points="271.01 418.36 271.01 411.29 266.72 431.44 266.72 438.51 271.01 418.36" style="fill:#407BFF"></polygon><polygon points="271.01 418.36 271.01 411.29 266.72 431.44 266.72 438.51 271.01 418.36" style="opacity:0.55"></polygon></g></g><g id="freepik--pie-chart--inject-11"><path d="M343.32,402.4c-10.88,0-21.75-2.39-30-7.17s-12.6-11-12.6-17.66,4.47-13,12.6-17.65c16.56-9.56,43.5-9.56,60.06,0h0c8.12,4.69,12.59,11,12.59,17.65s-4.47,13-12.6,17.66S354.19,402.4,343.32,402.4Zm0-48.57c-10.68,0-21.36,2.35-29.48,7-7.78,4.49-12.06,10.42-12.06,16.7s4.28,12.22,12.06,16.71c16.25,9.38,42.7,9.38,59,0,7.77-4.49,12.05-10.42,12.05-16.71s-4.28-12.21-12.05-16.7h0C364.67,356.18,354,353.83,343.32,353.83Z" style="fill:#407BFF"></path><g id="freepik--pie-chart--inject-11"><path d="M378,371.61v-7.06c-13.62-7.87-44.75-10.1-58.83-2.68l24.73,14.29,26.44-3.53Z" style="fill:#407BFF"></path><path d="M378,371.61v-7.06c-13.62-7.87-44.75-10.1-58.83-2.68l24.73,14.29,26.44-3.53Z" style="opacity:0.1"></path><path d="M378,364.55c-1.68-3.57-4.56-6.4-9.2-9.08-13.63-7.87-35.55-8.09-49.63-.66l24.73,14.28,26.44-3.52Z" style="fill:#407BFF"></path><polygon points="343.89 376.15 343.89 369.09 319.15 354.81 319.15 361.87 343.89 376.15" style="fill:#407BFF"></polygon><polygon points="343.89 376.15 343.89 369.09 319.15 354.81 319.15 361.87 343.89 376.15" style="opacity:0.2"></polygon><path d="M351.46,397.42c9.35-1.25,17.3-4.52,22.39-9.22,3.6-3.32,5.46-7.08,5.48-10.9v-7.16l-22.28,6.22-12,1.59,1.21,19.94C348,397.81,349.67,397.66,351.46,397.42Z" style="fill:#37474f"></path><path d="M351.46,390.36c9.35-1.25,17.3-4.52,22.39-9.23,4.8-4.42,6.5-9.62,4.88-14.72l-21.68,2.88-12,1.6,1.21,19.93C348,390.74,349.67,390.6,351.46,390.36Z" style="fill:#455a64"></path><path d="M311.75,387.06l29-10.05-23.89-13.79c-4.41,2.78-9.51,6.73-9.51,6.73s0,5.73,0,7.25C307.33,380.54,308.79,383.92,311.75,387.06Z" style="fill:#407BFF"></path><path d="M311.75,387.06l29-10.05-23.89-13.79c-4.41,2.78-9.51,6.73-9.51,6.73s0,5.73,0,7.25C307.33,380.54,308.79,383.92,311.75,387.06Z" style="opacity:0.4"></path><path d="M311.75,380l29-10.05-23.89-13.79C306.32,362.76,304.33,372.13,311.75,380Z" style="fill:#407BFF"></path><path d="M311.75,380l29-10.05-23.89-13.79C306.32,362.76,304.33,372.13,311.75,380Z" style="opacity:0.30000000000000004"></path><polygon points="311.75 387.06 311.75 380 340.71 369.95 340.71 377.01 311.75 387.06" style="fill:#407BFF"></polygon><polygon points="311.75 387.06 311.75 380 340.71 369.95 340.71 377.01 311.75 387.06" style="opacity:0.55"></polygon><path d="M343,398v-7.06l-1.16-12-28.37,2.78v7.07C320.16,394.58,330.78,397.91,343,398Z" style="fill:#407BFF"></path><path d="M343,398v-7.06l-1.16-12-28.37,2.78v7.07C320.16,394.58,330.78,397.91,343,398Z" style="fill:#fff;opacity:0.6000000000000001"></path><path d="M343,390.89l-1.16-19.1-21.48,7.45-6.89,2.39C320.16,387.52,330.78,390.84,343,390.89Z" style="fill:#407BFF"></path><path d="M343,390.89l-1.16-19.1-21.48,7.45-6.89,2.39C320.16,387.52,330.78,390.84,343,390.89Z" style="fill:#fff;opacity:0.75"></path><polygon points="345.07 370.89 345.07 377.95 346.28 397.89 346.28 390.82 345.07 370.89" style="fill:#263238"></polygon></g></g><g id="freepik--pie-chart--inject-11"><path d="M413.87,361.67c-10.87,0-21.74-2.39-30-7.17s-12.6-11-12.6-17.66,4.47-13,12.6-17.65c16.56-9.56,43.5-9.56,60,0h0c8.13,4.69,12.6,11,12.6,17.65s-4.47,13-12.6,17.66S424.75,361.67,413.87,361.67Zm0-48.57c-10.67,0-21.35,2.35-29.48,7-7.77,4.49-12.05,10.42-12.05,16.7s4.28,12.22,12.05,16.71c16.26,9.38,42.71,9.38,59,0,7.77-4.49,12.05-10.42,12.05-16.71s-4.28-12.21-12.05-16.7h0C435.23,315.45,424.55,313.1,413.87,313.1Z" style="fill:#407BFF"></path><g id="freepik--pie-chart--inject-11"><path d="M389.7,314.09l22.43,13L411,308.74C402.78,309.09,395.78,310.85,389.7,314.09Z" style="fill:#407BFF"></path><polygon points="412.13 327.04 412.13 334.1 389.7 321.15 389.7 314.09 412.13 327.04" style="fill:#407BFF"></polygon><polygon points="412.13 327.04 412.13 334.1 389.7 321.15 389.7 314.09 412.13 327.04" style="opacity:0.2"></polygon><polygon points="441.2 315.91 415.46 327.52 415.46 334.58 441.2 322.97 441.2 315.91" style="fill:#37474f"></polygon><path d="M441.2,315.91c-6.93-4.72-16.16-7.21-26.88-7.24l.7,11.44.44,7.41Z" style="fill:#455a64"></path><polygon points="414.32 308.67 414.32 315.73 415.46 334.58 415.46 327.52 414.32 308.67" style="fill:#263238"></polygon><path d="M420.68,341.12l13.15,12.64c.74-.28,1.43-.57,2.22-.93,9.07-4.08,13.81-10.2,13.8-16.37v-7c-1-2.66-3.74-2.66-6.62-5L416.36,336.6l-.27.12Z" style="fill:#407BFF"></path><path d="M420.68,341.12l13.15,12.64c.74-.28,1.43-.57,2.22-.93,9.07-4.08,13.81-10.2,13.8-16.37v-7c-1-2.66-3.74-2.66-6.62-5L416.36,336.6l-.27.12Z" style="fill:#fff;opacity:0.6000000000000001"></path><path d="M420.68,334.06l13.15,12.64c.74-.28,1.43-.57,2.22-.93,15.18-6.84,18.23-19.38,7.18-28.36l-26.87,12.12-.27.12Z" style="fill:#407BFF"></path><path d="M420.68,334.06l13.15,12.64c.74-.28,1.43-.57,2.22-.93,15.18-6.84,18.23-19.38,7.18-28.36l-26.87,12.12-.27.12Z" style="fill:#fff;opacity:0.75"></path><polygon points="433.83 353.76 433.83 346.7 416.09 329.65 416.09 336.72 433.83 353.76" style="fill:#407BFF"></polygon><polygon points="433.83 353.76 433.83 346.7 416.09 329.65 416.09 336.72 433.83 353.76" style="fill:#fff;opacity:0.4"></polygon><path d="M387.37,322.5c-3.78,2.38-8,3.88-9.51,6.78v7.07c0,3.68,1.71,7.41,5.26,10.82,4.95,4.75,12.8,8.11,22.11,9.45A59.5,59.5,0,0,0,431,354.74v-7.06l-11.58-4.07-6.8-6.53Z" style="fill:#407BFF"></path><path d="M387.37,322.5c-3.78,2.38-8,3.88-9.51,6.78v7.07c0,3.68,1.71,7.41,5.26,10.82,4.95,4.75,12.8,8.11,22.11,9.45A59.5,59.5,0,0,0,431,354.74v-7.06l-11.58-4.07-6.8-6.53Z" style="opacity:0.4"></path><path d="M387.37,315.44c-10.86,6.84-12.61,16.63-4.25,24.67,4.95,4.75,12.8,8.1,22.11,9.44A59.35,59.35,0,0,0,431,347.68l-11.58-11.13-6.8-6.54Z" style="fill:#407BFF"></path><path d="M387.37,315.44c-10.86,6.84-12.61,16.63-4.25,24.67,4.95,4.75,12.8,8.1,22.11,9.44A59.35,59.35,0,0,0,431,347.68l-11.58-11.13-6.8-6.54Z" style="opacity:0.30000000000000004"></path></g></g></g><g id="freepik--speech-bubbles--inject-11"><g id="freepik--speech-bubble--inject-11"><g id="freepik----inject-11"><path d="M76.07,71.2a14.66,14.66,0,0,0-3.82.86c-2.81.92-4.11,1.34-4.11-.19a2.43,2.43,0,0,1,.19-.91,5,5,0,0,1,2.18-2.18c1.85-1.08,2.89-.82,3.15.37l5.07-4.33a3,3,0,0,0-3-2.26,8,8,0,0,0-3.16.74V60.21L70,61.73l-1.56.91v3.1c-3.56,2.58-5.78,6-5.78,9.62a5.4,5.4,0,0,0,.32,2c.78,2,2.93,1.69,5.2,1,.79-.24,1.56-.52,2.25-.75,1.62-.53,2.78-.73,2.78.65a3.92,3.92,0,0,1-2.29,3.13c-2.19,1.27-3,.23-3.22-.78l-5.34,4.52a4.77,4.77,0,0,0,.41,1.11,3,3,0,0,0,3.38,1.47,10.1,10.1,0,0,0,2.62-.79V90l4.15-2.39V84.53C76.51,81.88,79,78.32,79,74.59,79,71.91,77.71,71.17,76.07,71.2Z" style="fill:#407BFF"></path><path d="M76.07,71.2a14.66,14.66,0,0,0-3.82.86c-2.81.92-4.11,1.34-4.11-.19a2.43,2.43,0,0,1,.19-.91,5,5,0,0,1,2.18-2.18c1.85-1.08,2.89-.82,3.15.37l5.07-4.33a3,3,0,0,0-3-2.26,8,8,0,0,0-3.16.74V60.21L70,61.73l-1.56.91v3.1c-3.56,2.58-5.78,6-5.78,9.62a5.4,5.4,0,0,0,.32,2c.78,2,2.93,1.69,5.2,1,.79-.24,1.56-.52,2.25-.75,1.62-.53,2.78-.73,2.78.65a3.92,3.92,0,0,1-2.29,3.13c-2.19,1.27-3,.23-3.22-.78l-5.34,4.52a4.77,4.77,0,0,0,.41,1.11,3,3,0,0,0,3.38,1.47,10.1,10.1,0,0,0,2.62-.79V90l4.15-2.39V84.53C76.51,81.88,79,78.32,79,74.59,79,71.91,77.71,71.17,76.07,71.2Z" style="fill:#fff;opacity:0.55"></path></g><g id="freepik--speech-bubble--inject-11"><path d="M54,103.21a1.29,1.29,0,0,1-.67-.18,1.66,1.66,0,0,1-.73-1.53V68.58A4.48,4.48,0,0,1,54.62,65L86.06,46.87a1.49,1.49,0,0,1,2.42,1.39V81.18a4.48,4.48,0,0,1-2.06,3.57L74.48,91.64l-3,8.79a1.16,1.16,0,0,1-2.11.2l-2.61-4.51L55,102.9A2.1,2.1,0,0,1,54,103.21ZM87.08,47.28a1.36,1.36,0,0,0-.66.21L55,65.65a3.8,3.8,0,0,0-1.7,2.93V101.5a1,1,0,0,0,.37.91,1,1,0,0,0,1-.13L67,95.13l3,5.14a.42.42,0,0,0,.43.22.42.42,0,0,0,.38-.29l3.13-9,12.17-7a3.8,3.8,0,0,0,1.7-2.94V48.26a1,1,0,0,0-.37-.9A.62.62,0,0,0,87.08,47.28Z" style="fill:#407BFF"></path></g></g><g id="freepik--speech-bubble--inject-11"><path d="M399.47,426.78a6.51,6.51,0,0,1-3.18-.77l-16.9-9.76a2.31,2.31,0,0,1,0-4.32L389.65,406c-.66-1.3-2.44-4.83-2.76-5.54a1.54,1.54,0,0,1,0-1.62,1.39,1.39,0,0,1,1.44-.38l11.08,1.93,10.54-6.09a7,7,0,0,1,6.37,0l16.9,9.75a2.32,2.32,0,0,1,0,4.33L402.65,426A6.51,6.51,0,0,1,399.47,426.78Zm-11.74-27.22s0,.18.17.44c.38.84,3,5.92,3,6l.24.47L380,412.9c-.59.34-.93.77-.93,1.19a1.56,1.56,0,0,0,.93,1.2l16.9,9.75a5.91,5.91,0,0,0,5.25,0l30.52-17.62a1.24,1.24,0,0,0,0-2.39l-16.9-9.75a5.88,5.88,0,0,0-5.25,0l-10.9,6.29-11.47-2A1,1,0,0,0,387.73,399.56Z" style="fill:#407BFF"></path><g style="opacity:0.4"><path d="M399.47,426.78a6.51,6.51,0,0,1-3.18-.77l-16.9-9.76a2.31,2.31,0,0,1,0-4.32L389.65,406c-.66-1.3-2.44-4.83-2.76-5.54a1.54,1.54,0,0,1,0-1.62,1.39,1.39,0,0,1,1.44-.38l11.08,1.93,10.54-6.09a7,7,0,0,1,6.37,0l16.9,9.75a2.32,2.32,0,0,1,0,4.33L402.65,426A6.51,6.51,0,0,1,399.47,426.78Zm-11.74-27.22s0,.18.17.44c.38.84,3,5.92,3,6l.24.47L380,412.9c-.59.34-.93.77-.93,1.19a1.56,1.56,0,0,0,.93,1.2l16.9,9.75a5.91,5.91,0,0,0,5.25,0l30.52-17.62a1.24,1.24,0,0,0,0-2.39l-16.9-9.75a5.88,5.88,0,0,0-5.25,0l-10.9,6.29-11.47-2A1,1,0,0,0,387.73,399.56Z" style="fill:#fff"></path></g><path d="M400.46,408.17c.4.2.75.38,1,.55s.6.36.93.58a1.71,1.71,0,0,1,.95,1.69,2.85,2.85,0,0,1-1.58,1.75,6.86,6.86,0,0,1-3,.92,5.83,5.83,0,0,1-2.93-.55c-.38-.19-.71-.37-1-.54s-.61-.37-1-.6c-.77-.51-1.11-1.07-1-1.67s.64-1.2,1.64-1.78a6.74,6.74,0,0,1,3.08-.95A5.7,5.7,0,0,1,400.46,408.17Zm-2,3.25a1.65,1.65,0,0,0,.56.17.78.78,0,0,0,.55-.12c.18-.1.25-.2.21-.31a.85.85,0,0,0-.31-.33,13.44,13.44,0,0,0-1.69-1,1.57,1.57,0,0,0-.57-.18.8.8,0,0,0-.54.12c-.18.1-.25.2-.21.31a.72.72,0,0,0,.31.33A15.41,15.41,0,0,0,398.49,411.42Zm4.57-7.29a.56.56,0,0,1,0-.34.71.71,0,0,1,.33-.31l2.12-1.22a1.12,1.12,0,0,1,.46-.14.83.83,0,0,1,.43.1s0,0,.08.07a.21.21,0,0,1,.06.1l3.17,13.43a.53.53,0,0,1,0,.33c0,.1-.14.2-.33.31l-2.12,1.22a.86.86,0,0,1-.46.14.74.74,0,0,1-.43-.09l-.08-.07a.24.24,0,0,1-.06-.11Zm14,2.67c.41.21.76.39,1,.56s.6.36.92.58c.75.51,1.07,1.07,1,1.69s-.64,1.2-1.59,1.75a6.86,6.86,0,0,1-3,.92,5.79,5.79,0,0,1-2.92-.56c-.38-.18-.72-.36-1-.53s-.61-.37-1-.6c-.78-.51-1.12-1.07-1-1.68s.63-1.2,1.63-1.77a6.77,6.77,0,0,1,3.08-1A5.77,5.77,0,0,1,417,406.8Zm-2,3.25a1.57,1.57,0,0,0,.57.18.91.91,0,0,0,.55-.12c.17-.1.24-.2.2-.31a.72.72,0,0,0-.31-.33,15.66,15.66,0,0,0-1.68-1,1.77,1.77,0,0,0-.57-.17.84.84,0,0,0-.55.12c-.18.1-.24.2-.2.31a.75.75,0,0,0,.3.33A14,14,0,0,0,415.07,410.05Z" style="fill:#407BFF"></path></g></g></svg>
