<svg xmlns="http://www.w3.org/2000/svg" viewBox="0 0 500 500"><g id="freepik--background-complete--inject-221"><rect y="382.4" width="500" height="0.25" style="fill:#ebebeb"></rect><rect x="416.78" y="398.49" width="33.12" height="0.25" style="fill:#ebebeb"></rect><rect x="322.53" y="401.21" width="8.69" height="0.25" style="fill:#ebebeb"></rect><rect x="396.59" y="389.21" width="19.19" height="0.25" style="fill:#ebebeb"></rect><rect x="52.46" y="390.89" width="43.19" height="0.25" style="fill:#ebebeb"></rect><rect x="104.56" y="390.89" width="6.33" height="0.25" style="fill:#ebebeb"></rect><rect x="131.47" y="395.11" width="93.68" height="0.25" style="fill:#ebebeb"></rect><path d="M237,337.8H43.91a5.71,5.71,0,0,1-5.7-5.71V60.66A5.71,5.71,0,0,1,43.91,55H237a5.71,5.71,0,0,1,5.71,5.71V332.09A5.71,5.71,0,0,1,237,337.8ZM43.91,55.2a5.46,5.46,0,0,0-5.45,5.46V332.09a5.46,5.46,0,0,0,5.45,5.46H237a5.47,5.47,0,0,0,5.46-5.46V60.66A5.47,5.47,0,0,0,237,55.2Z" style="fill:#ebebeb"></path><path d="M453.31,337.8H260.21a5.72,5.72,0,0,1-5.71-5.71V60.66A5.72,5.72,0,0,1,260.21,55h193.1A5.71,5.71,0,0,1,459,60.66V332.09A5.71,5.71,0,0,1,453.31,337.8ZM260.21,55.2a5.47,5.47,0,0,0-5.46,5.46V332.09a5.47,5.47,0,0,0,5.46,5.46h193.1a5.47,5.47,0,0,0,5.46-5.46V60.66a5.47,5.47,0,0,0-5.46-5.46Z" style="fill:#ebebeb"></path><rect x="245.81" y="120.71" width="169.52" height="189.92" style="fill:#ebebeb"></rect><rect x="245.81" y="123.77" width="166.19" height="183.49" style="fill:#fafafa"></rect><polygon points="405.86 221.17 405.86 208.28 402.18 208.28 402.18 199.68 397.27 199.68 397.27 186.79 396.04 186.79 396.04 199.68 391.13 199.68 391.13 208.28 387.45 208.28 387.45 221.17 380.69 221.17 380.69 224.85 377.62 224.85 377.62 238.97 377.01 238.97 377.01 218.71 375.17 218.71 375.17 231.6 373.33 231.6 373.33 200.91 372.1 200.91 372.1 213.8 367.19 213.8 367.19 209.5 365.35 209.5 365.35 191.7 361.66 191.7 361.66 173.9 360.44 173.9 360.44 176.35 335.26 176.35 335.26 168.99 330.97 168.99 330.97 140.75 329.13 140.75 329.13 168.99 322.99 168.99 322.99 176.35 320.53 176.35 320.53 213.19 307.64 213.19 307.64 202.14 311.94 202.14 311.94 200.29 307.64 200.29 307.64 197.22 295.36 197.22 295.36 168.99 292.29 168.99 292.29 164.69 277.56 164.69 277.56 168.99 275.72 168.99 275.72 208.28 268.96 208.28 268.96 226.08 265.28 226.08 265.28 211.96 262.21 211.96 262.21 208.28 255.46 208.28 255.46 195.38 251.77 195.38 251.77 186.79 247.48 186.79 247.48 173.9 245.81 173.9 245.81 307.26 412 307.26 412 221.17 405.86 221.17" style="fill:#f0f0f0"></polygon><rect x="344.66" y="178.28" width="1.74" height="1.74" style="fill:#fafafa"></rect><rect x="344.66" y="181.19" width="1.74" height="1.74" style="fill:#fafafa"></rect><rect x="344.66" y="192.86" width="1.74" height="1.74" style="fill:#fafafa"></rect><rect x="344.66" y="195.77" width="1.74" height="1.74" style="fill:#fafafa"></rect><rect x="344.66" y="198.69" width="1.74" height="1.74" style="fill:#fafafa"></rect><rect x="344.66" y="207.44" width="1.74" height="1.74" style="fill:#fafafa"></rect><rect x="344.66" y="210.35" width="1.74" height="1.74" style="fill:#fafafa"></rect><rect x="341.9" y="189.94" width="1.74" height="1.74" style="fill:#fafafa"></rect><rect x="341.9" y="192.86" width="1.74" height="1.74" style="fill:#fafafa"></rect><rect x="341.9" y="195.77" width="1.74" height="1.74" style="fill:#fafafa"></rect><rect x="341.9" y="198.69" width="1.74" height="1.74" style="fill:#fafafa"></rect><rect x="341.9" y="201.61" width="1.74" height="1.74" style="fill:#fafafa"></rect><rect x="341.9" y="207.44" width="1.74" height="1.74" style="fill:#fafafa"></rect><rect x="341.9" y="210.35" width="1.74" height="1.74" style="fill:#fafafa"></rect><rect x="339.14" y="178.28" width="1.74" height="1.74" style="fill:#fafafa"></rect><rect x="339.14" y="181.19" width="1.74" height="1.74" style="fill:#fafafa"></rect><rect x="339.14" y="184.11" width="1.74" height="1.74" style="fill:#fafafa"></rect><rect x="339.14" y="187.03" width="1.74" height="1.74" style="fill:#fafafa"></rect><rect x="339.14" y="189.94" width="1.74" height="1.74" style="fill:#fafafa"></rect><rect x="339.14" y="192.86" width="1.74" height="1.74" style="fill:#fafafa"></rect><rect x="339.14" y="195.77" width="1.74" height="1.74" style="fill:#fafafa"></rect><rect x="339.14" y="198.69" width="1.74" height="1.74" style="fill:#fafafa"></rect><rect x="339.14" y="201.61" width="1.74" height="1.74" style="fill:#fafafa"></rect><rect x="339.14" y="204.52" width="1.74" height="1.74" style="fill:#fafafa"></rect><rect x="339.14" y="210.35" width="1.74" height="1.74" style="fill:#fafafa"></rect><rect x="336.38" y="178.28" width="1.74" height="1.74" style="fill:#fafafa"></rect><rect x="336.38" y="181.19" width="1.74" height="1.74" style="fill:#fafafa"></rect><rect x="336.38" y="184.11" width="1.74" height="1.74" style="fill:#fafafa"></rect><rect x="336.38" y="187.03" width="1.74" height="1.74" style="fill:#fafafa"></rect><rect x="336.38" y="189.94" width="1.74" height="1.74" style="fill:#fafafa"></rect><rect x="336.38" y="192.86" width="1.74" height="1.74" style="fill:#fafafa"></rect><rect x="336.38" y="195.77" width="1.74" height="1.74" style="fill:#fafafa"></rect><rect x="336.38" y="222.02" width="1.74" height="1.74" style="fill:#fafafa"></rect><rect x="333.61" y="178.28" width="1.74" height="1.74" style="fill:#fafafa"></rect><rect x="333.61" y="181.19" width="1.74" height="1.74" style="fill:#fafafa"></rect><rect x="333.61" y="184.11" width="1.74" height="1.74" style="fill:#fafafa"></rect><rect x="333.61" y="187.03" width="1.74" height="1.74" style="fill:#fafafa"></rect><rect x="333.61" y="189.94" width="1.74" height="1.74" style="fill:#fafafa"></rect><rect x="333.61" y="192.86" width="1.74" height="1.74" style="fill:#fafafa"></rect><rect x="333.61" y="195.77" width="1.74" height="1.74" style="fill:#fafafa"></rect><rect x="333.61" y="198.69" width="1.74" height="1.74" style="fill:#fafafa"></rect><rect x="333.61" y="216.19" width="1.74" height="1.74" style="fill:#fafafa"></rect><rect x="333.61" y="219.1" width="1.74" height="1.74" style="fill:#fafafa"></rect><rect x="333.61" y="222.02" width="1.74" height="1.74" style="fill:#fafafa"></rect><rect x="333.61" y="224.93" width="1.74" height="1.74" style="fill:#fafafa"></rect><rect x="333.61" y="236.6" width="1.74" height="1.74" style="fill:#fafafa"></rect><rect x="330.85" y="178.28" width="1.74" height="1.74" style="fill:#fafafa"></rect><rect x="330.85" y="181.19" width="1.74" height="1.74" style="fill:#fafafa"></rect><rect x="330.85" y="184.11" width="1.74" height="1.74" style="fill:#fafafa"></rect><rect x="330.85" y="187.03" width="1.74" height="1.74" style="fill:#fafafa"></rect><rect x="330.85" y="189.94" width="1.74" height="1.74" style="fill:#fafafa"></rect><rect x="330.85" y="192.86" width="1.74" height="1.74" style="fill:#fafafa"></rect><rect x="330.85" y="195.77" width="1.74" height="1.74" style="fill:#fafafa"></rect><rect x="330.85" y="198.69" width="1.74" height="1.74" style="fill:#fafafa"></rect><rect x="330.85" y="201.61" width="1.74" height="1.74" style="fill:#fafafa"></rect><rect x="330.85" y="204.52" width="1.74" height="1.74" style="fill:#fafafa"></rect><rect x="330.85" y="213.27" width="1.74" height="1.74" style="fill:#fafafa"></rect><rect x="330.85" y="216.19" width="1.74" height="1.74" style="fill:#fafafa"></rect><rect x="330.85" y="219.1" width="1.74" height="1.74" style="fill:#fafafa"></rect><rect x="330.85" y="222.02" width="1.74" height="1.74" style="fill:#fafafa"></rect><rect x="330.85" y="224.93" width="1.74" height="1.74" style="fill:#fafafa"></rect><rect x="330.85" y="236.6" width="1.74" height="1.74" style="fill:#fafafa"></rect><rect x="328.09" y="178.28" width="1.74" height="1.74" style="fill:#fafafa"></rect><rect x="328.09" y="181.19" width="1.74" height="1.74" style="fill:#fafafa"></rect><rect x="328.09" y="184.11" width="1.74" height="1.74" style="fill:#fafafa"></rect><rect x="328.09" y="187.03" width="1.74" height="1.74" style="fill:#fafafa"></rect><rect x="328.09" y="189.94" width="1.74" height="1.74" style="fill:#fafafa"></rect><rect x="328.09" y="192.86" width="1.74" height="1.74" style="fill:#fafafa"></rect><rect x="328.09" y="195.77" width="1.74" height="1.74" style="fill:#fafafa"></rect><rect x="328.09" y="198.69" width="1.74" height="1.74" style="fill:#fafafa"></rect><rect x="328.09" y="201.61" width="1.74" height="1.74" style="fill:#fafafa"></rect><rect x="328.09" y="204.52" width="1.74" height="1.74" style="fill:#fafafa"></rect><rect x="328.09" y="207.44" width="1.74" height="1.74" style="fill:#fafafa"></rect><rect x="328.09" y="210.35" width="1.74" height="1.74" style="fill:#fafafa"></rect><rect x="328.09" y="213.27" width="1.74" height="1.74" style="fill:#fafafa"></rect><rect x="328.09" y="216.19" width="1.74" height="1.74" style="fill:#fafafa"></rect><rect x="328.09" y="219.1" width="1.74" height="1.74" style="fill:#fafafa"></rect><rect x="328.09" y="222.02" width="1.74" height="1.74" style="fill:#fafafa"></rect><rect x="328.09" y="224.93" width="1.74" height="1.74" style="fill:#fafafa"></rect><rect x="328.09" y="227.85" width="1.74" height="1.74" style="fill:#fafafa"></rect><rect x="325.33" y="178.28" width="1.74" height="1.74" style="fill:#fafafa"></rect><rect x="325.33" y="181.19" width="1.74" height="1.74" style="fill:#fafafa"></rect><rect x="325.33" y="184.11" width="1.74" height="1.74" style="fill:#fafafa"></rect><rect x="325.33" y="187.03" width="1.74" height="1.74" style="fill:#fafafa"></rect><rect x="325.33" y="189.94" width="1.74" height="1.74" style="fill:#fafafa"></rect><rect x="325.33" y="192.86" width="1.74" height="1.74" style="fill:#fafafa"></rect><rect x="325.33" y="195.77" width="1.74" height="1.74" style="fill:#fafafa"></rect><rect x="325.33" y="198.69" width="1.74" height="1.74" style="fill:#fafafa"></rect><rect x="325.33" y="201.61" width="1.74" height="1.74" style="fill:#fafafa"></rect><rect x="325.33" y="204.52" width="1.74" height="1.74" style="fill:#fafafa"></rect><rect x="325.33" y="213.27" width="1.74" height="1.74" style="fill:#fafafa"></rect><rect x="325.33" y="216.19" width="1.74" height="1.74" style="fill:#fafafa"></rect><rect x="325.33" y="219.1" width="1.74" height="1.74" style="fill:#fafafa"></rect><rect x="325.33" y="222.02" width="1.74" height="1.74" style="fill:#fafafa"></rect><rect x="322.56" y="178.28" width="1.74" height="1.74" style="fill:#fafafa"></rect><rect x="322.56" y="181.19" width="1.74" height="1.74" style="fill:#fafafa"></rect><rect x="322.56" y="184.11" width="1.74" height="1.74" style="fill:#fafafa"></rect><rect x="322.56" y="187.03" width="1.74" height="1.74" style="fill:#fafafa"></rect><rect x="322.56" y="189.94" width="1.74" height="1.74" style="fill:#fafafa"></rect><rect x="322.56" y="192.86" width="1.74" height="1.74" style="fill:#fafafa"></rect><rect x="322.56" y="195.77" width="1.74" height="1.74" style="fill:#fafafa"></rect><rect x="322.56" y="198.69" width="1.74" height="1.74" style="fill:#fafafa"></rect><rect x="322.56" y="201.61" width="1.74" height="1.74" style="fill:#fafafa"></rect><rect x="322.56" y="204.52" width="1.74" height="1.74" style="fill:#fafafa"></rect><rect x="322.56" y="213.27" width="1.74" height="1.74" style="fill:#fafafa"></rect><rect x="322.56" y="216.19" width="1.74" height="1.74" style="fill:#fafafa"></rect><rect x="322.56" y="219.1" width="1.74" height="1.74" style="fill:#fafafa"></rect><rect x="291.46" y="170.71" width="1.74" height="1.74" style="fill:#fafafa"></rect><rect x="291.46" y="173.62" width="1.74" height="1.74" style="fill:#fafafa"></rect><rect x="291.46" y="176.54" width="1.74" height="1.74" style="fill:#fafafa"></rect><rect x="291.46" y="179.45" width="1.74" height="1.74" style="fill:#fafafa"></rect><rect x="291.46" y="182.37" width="1.74" height="1.74" style="fill:#fafafa"></rect><rect x="291.46" y="185.29" width="1.74" height="1.74" style="fill:#fafafa"></rect><rect x="291.46" y="188.2" width="1.74" height="1.74" style="fill:#fafafa"></rect><rect x="291.46" y="191.12" width="1.74" height="1.74" style="fill:#fafafa"></rect><rect x="291.46" y="199.87" width="1.74" height="1.74" style="fill:#fafafa"></rect><rect x="291.46" y="202.78" width="1.74" height="1.74" style="fill:#fafafa"></rect><rect x="288.7" y="170.71" width="1.74" height="1.74" style="fill:#fafafa"></rect><rect x="288.7" y="173.62" width="1.74" height="1.74" style="fill:#fafafa"></rect><rect x="288.7" y="176.54" width="1.74" height="1.74" style="fill:#fafafa"></rect><rect x="288.7" y="179.45" width="1.74" height="1.74" style="fill:#fafafa"></rect><rect x="288.7" y="182.37" width="1.74" height="1.74" style="fill:#fafafa"></rect><rect x="288.7" y="185.29" width="1.74" height="1.74" style="fill:#fafafa"></rect><rect x="288.7" y="188.2" width="1.74" height="1.74" style="fill:#fafafa"></rect><rect x="288.7" y="191.12" width="1.74" height="1.74" style="fill:#fafafa"></rect><rect x="288.7" y="202.78" width="1.74" height="1.74" style="fill:#fafafa"></rect><rect x="285.93" y="170.71" width="1.74" height="1.74" style="fill:#fafafa"></rect><rect x="285.93" y="173.62" width="1.74" height="1.74" style="fill:#fafafa"></rect><rect x="285.93" y="176.54" width="1.74" height="1.74" style="fill:#fafafa"></rect><rect x="285.93" y="179.45" width="1.74" height="1.74" style="fill:#fafafa"></rect><rect x="285.93" y="182.37" width="1.74" height="1.74" style="fill:#fafafa"></rect><rect x="285.93" y="185.29" width="1.74" height="1.74" style="fill:#fafafa"></rect><rect x="285.93" y="188.2" width="1.74" height="1.74" style="fill:#fafafa"></rect><rect x="285.93" y="191.12" width="1.74" height="1.74" style="fill:#fafafa"></rect><rect x="283.17" y="170.71" width="1.74" height="1.74" style="fill:#fafafa"></rect><rect x="283.17" y="173.62" width="1.74" height="1.74" style="fill:#fafafa"></rect><rect x="283.17" y="176.54" width="1.74" height="1.74" style="fill:#fafafa"></rect><rect x="283.17" y="179.45" width="1.74" height="1.74" style="fill:#fafafa"></rect><rect x="283.17" y="182.37" width="1.74" height="1.74" style="fill:#fafafa"></rect><rect x="283.17" y="185.29" width="1.74" height="1.74" style="fill:#fafafa"></rect><rect x="283.17" y="191.12" width="1.74" height="1.74" style="fill:#fafafa"></rect><rect x="283.17" y="194.03" width="1.74" height="1.74" style="fill:#fafafa"></rect><rect x="283.17" y="202.78" width="1.74" height="1.74" style="fill:#fafafa"></rect><rect x="283.17" y="205.7" width="1.74" height="1.74" style="fill:#fafafa"></rect><rect x="283.17" y="208.61" width="1.74" height="1.74" style="fill:#fafafa"></rect><rect x="283.17" y="211.53" width="1.74" height="1.74" style="fill:#fafafa"></rect><rect x="283.17" y="214.45" width="1.74" height="1.74" style="fill:#fafafa"></rect><rect x="283.17" y="217.36" width="1.74" height="1.74" style="fill:#fafafa"></rect><rect x="283.17" y="220.28" width="1.74" height="1.74" style="fill:#fafafa"></rect><rect x="280.41" y="170.71" width="1.74" height="1.74" style="fill:#fafafa"></rect><rect x="280.41" y="173.62" width="1.74" height="1.74" style="fill:#fafafa"></rect><rect x="280.41" y="176.54" width="1.74" height="1.74" style="fill:#fafafa"></rect><rect x="280.41" y="179.45" width="1.74" height="1.74" style="fill:#fafafa"></rect><rect x="280.41" y="182.37" width="1.74" height="1.74" style="fill:#fafafa"></rect><rect x="280.41" y="185.29" width="1.74" height="1.74" style="fill:#fafafa"></rect><rect x="280.41" y="194.03" width="1.74" height="1.74" style="fill:#fafafa"></rect><rect x="280.41" y="196.95" width="1.74" height="1.74" style="fill:#fafafa"></rect><rect x="280.41" y="199.87" width="1.74" height="1.74" style="fill:#fafafa"></rect><rect x="280.41" y="202.78" width="1.74" height="1.74" style="fill:#fafafa"></rect><rect x="280.41" y="205.7" width="1.74" height="1.74" style="fill:#fafafa"></rect><rect x="280.41" y="208.61" width="1.74" height="1.74" style="fill:#fafafa"></rect><rect x="280.41" y="211.53" width="1.74" height="1.74" style="fill:#fafafa"></rect><rect x="280.41" y="214.45" width="1.74" height="1.74" style="fill:#fafafa"></rect><rect x="280.41" y="217.36" width="1.74" height="1.74" style="fill:#fafafa"></rect><rect x="280.41" y="220.28" width="1.74" height="1.74" style="fill:#fafafa"></rect><rect x="280.41" y="223.19" width="1.74" height="1.74" style="fill:#fafafa"></rect><rect x="280.41" y="229.03" width="1.74" height="1.74" style="fill:#fafafa"></rect><rect x="277.65" y="170.71" width="1.74" height="1.74" style="fill:#fafafa"></rect><rect x="277.65" y="173.62" width="1.74" height="1.74" style="fill:#fafafa"></rect><rect x="277.65" y="176.54" width="1.74" height="1.74" style="fill:#fafafa"></rect><rect x="277.65" y="179.45" width="1.74" height="1.74" style="fill:#fafafa"></rect><rect x="277.65" y="182.37" width="1.74" height="1.74" style="fill:#fafafa"></rect><rect x="277.65" y="185.29" width="1.74" height="1.74" style="fill:#fafafa"></rect><rect x="277.65" y="194.03" width="1.74" height="1.74" style="fill:#fafafa"></rect><rect x="277.65" y="196.95" width="1.74" height="1.74" style="fill:#fafafa"></rect><rect x="277.65" y="199.87" width="1.74" height="1.74" style="fill:#fafafa"></rect><rect x="277.65" y="202.78" width="1.74" height="1.74" style="fill:#fafafa"></rect><rect x="277.65" y="211.53" width="1.74" height="1.74" style="fill:#fafafa"></rect><rect x="277.65" y="214.45" width="1.74" height="1.74" style="fill:#fafafa"></rect><rect x="277.65" y="217.36" width="1.74" height="1.74" style="fill:#fafafa"></rect><rect x="277.65" y="220.28" width="1.74" height="1.74" style="fill:#fafafa"></rect><rect x="277.65" y="223.19" width="1.74" height="1.74" style="fill:#fafafa"></rect><rect x="277.65" y="229.03" width="1.74" height="1.74" style="fill:#fafafa"></rect><rect x="277.65" y="231.94" width="1.74" height="1.74" style="fill:#fafafa"></rect><rect x="252.58" y="197.82" width="1.74" height="1.74" style="fill:#fafafa"></rect><rect x="252.58" y="200.74" width="1.74" height="1.74" style="fill:#fafafa"></rect><rect x="252.58" y="203.65" width="1.74" height="1.74" style="fill:#fafafa"></rect><rect x="252.58" y="206.57" width="1.74" height="1.74" style="fill:#fafafa"></rect><rect x="252.58" y="209.48" width="1.74" height="1.74" style="fill:#fafafa"></rect><rect x="252.58" y="212.4" width="1.74" height="1.74" style="fill:#fafafa"></rect><rect x="252.58" y="215.32" width="1.74" height="1.74" style="fill:#fafafa"></rect><rect x="252.58" y="224.06" width="1.74" height="1.74" style="fill:#fafafa"></rect><rect x="252.58" y="226.98" width="1.74" height="1.74" style="fill:#fafafa"></rect><rect x="252.58" y="229.9" width="1.74" height="1.74" style="fill:#fafafa"></rect><rect x="249.82" y="197.82" width="1.74" height="1.74" style="fill:#fafafa"></rect><rect x="249.82" y="200.74" width="1.74" height="1.74" style="fill:#fafafa"></rect><rect x="249.82" y="203.65" width="1.74" height="1.74" style="fill:#fafafa"></rect><rect x="249.82" y="206.57" width="1.74" height="1.74" style="fill:#fafafa"></rect><rect x="249.82" y="209.48" width="1.74" height="1.74" style="fill:#fafafa"></rect><rect x="249.82" y="212.4" width="1.74" height="1.74" style="fill:#fafafa"></rect><rect x="249.82" y="215.32" width="1.74" height="1.74" style="fill:#fafafa"></rect><rect x="246.29" y="197.82" width="2.5" height="1.74" style="fill:#fafafa"></rect><rect x="246.29" y="200.74" width="2.5" height="1.74" style="fill:#fafafa"></rect><rect x="246.29" y="203.65" width="2.5" height="1.74" style="fill:#fafafa"></rect><rect x="246.29" y="206.57" width="2.5" height="1.74" style="fill:#fafafa"></rect><rect x="246.29" y="209.48" width="2.5" height="1.74" style="fill:#fafafa"></rect><rect x="246.29" y="212.4" width="2.5" height="1.74" style="fill:#fafafa"></rect><rect x="246.29" y="215.32" width="2.5" height="1.74" style="fill:#fafafa"></rect><rect x="399" y="201.61" width="1.74" height="1.74" style="fill:#fafafa"></rect><rect x="399" y="204.52" width="1.74" height="1.74" style="fill:#fafafa"></rect><rect x="399" y="207.44" width="1.74" height="1.74" style="fill:#fafafa"></rect><rect x="399" y="210.35" width="1.74" height="1.74" style="fill:#fafafa"></rect><rect x="399" y="213.27" width="1.74" height="1.74" style="fill:#fafafa"></rect><rect x="399" y="216.19" width="1.74" height="1.74" style="fill:#fafafa"></rect><rect x="399" y="219.1" width="1.74" height="1.74" style="fill:#fafafa"></rect><rect x="399" y="222.02" width="1.74" height="1.74" style="fill:#fafafa"></rect><rect x="399" y="224.93" width="1.74" height="1.74" style="fill:#fafafa"></rect><rect x="399" y="227.85" width="1.74" height="1.74" style="fill:#fafafa"></rect><rect x="399" y="230.77" width="1.74" height="1.74" style="fill:#fafafa"></rect><rect x="399" y="233.68" width="1.74" height="1.74" style="fill:#fafafa"></rect><rect x="399" y="236.6" width="1.74" height="1.74" style="fill:#fafafa"></rect><rect x="399" y="239.51" width="1.74" height="1.74" style="fill:#fafafa"></rect><rect x="399" y="242.43" width="1.74" height="1.74" style="fill:#fafafa"></rect><rect x="399" y="245.35" width="1.74" height="1.74" style="fill:#fafafa"></rect><rect x="399" y="248.26" width="1.74" height="1.74" style="fill:#fafafa"></rect><rect x="399" y="251.18" width="1.74" height="1.74" style="fill:#fafafa"></rect><rect x="399" y="254.09" width="1.74" height="1.74" style="fill:#fafafa"></rect><rect x="399" y="257.01" width="1.74" height="1.74" style="fill:#fafafa"></rect><rect x="396.23" y="201.61" width="1.74" height="1.74" style="fill:#fafafa"></rect><rect x="396.23" y="204.52" width="1.74" height="1.74" style="fill:#fafafa"></rect><rect x="396.23" y="207.44" width="1.74" height="1.74" style="fill:#fafafa"></rect><rect x="396.23" y="210.35" width="1.74" height="1.74" style="fill:#fafafa"></rect><rect x="396.23" y="213.27" width="1.74" height="1.74" style="fill:#fafafa"></rect><rect x="396.23" y="216.19" width="1.74" height="1.74" style="fill:#fafafa"></rect><rect x="396.23" y="219.1" width="1.74" height="1.74" style="fill:#fafafa"></rect><rect x="396.23" y="222.02" width="1.74" height="1.74" style="fill:#fafafa"></rect><rect x="396.23" y="224.93" width="1.74" height="1.74" style="fill:#fafafa"></rect><rect x="396.23" y="227.85" width="1.74" height="1.74" style="fill:#fafafa"></rect><rect x="396.23" y="230.77" width="1.74" height="1.74" style="fill:#fafafa"></rect><rect x="396.23" y="233.68" width="1.74" height="1.74" style="fill:#fafafa"></rect><rect x="396.23" y="236.6" width="1.74" height="1.74" style="fill:#fafafa"></rect><rect x="396.23" y="239.51" width="1.74" height="1.74" style="fill:#fafafa"></rect><rect x="396.23" y="242.43" width="1.74" height="1.74" style="fill:#fafafa"></rect><rect x="396.23" y="245.35" width="1.74" height="1.74" style="fill:#fafafa"></rect><rect x="396.23" y="248.26" width="1.74" height="1.74" style="fill:#fafafa"></rect><rect x="396.23" y="251.18" width="1.74" height="1.74" style="fill:#fafafa"></rect><rect x="393.47" y="201.61" width="1.74" height="1.74" style="fill:#fafafa"></rect><rect x="393.47" y="204.52" width="1.74" height="1.74" style="fill:#fafafa"></rect><rect x="393.47" y="207.44" width="1.74" height="1.74" style="fill:#fafafa"></rect><rect x="393.47" y="210.35" width="1.74" height="1.74" style="fill:#fafafa"></rect><rect x="393.47" y="213.27" width="1.74" height="1.74" style="fill:#fafafa"></rect><rect x="393.47" y="216.19" width="1.74" height="1.74" style="fill:#fafafa"></rect><rect x="393.47" y="219.1" width="1.74" height="1.74" style="fill:#fafafa"></rect><rect x="393.47" y="222.02" width="1.74" height="1.74" style="fill:#fafafa"></rect><rect x="393.47" y="224.93" width="1.74" height="1.74" style="fill:#fafafa"></rect><rect x="393.47" y="227.85" width="1.74" height="1.74" style="fill:#fafafa"></rect><rect x="393.47" y="230.77" width="1.74" height="1.74" style="fill:#fafafa"></rect><rect x="393.47" y="233.68" width="1.74" height="1.74" style="fill:#fafafa"></rect><rect x="393.47" y="236.6" width="1.74" height="1.74" style="fill:#fafafa"></rect><rect x="393.47" y="239.51" width="1.74" height="1.74" style="fill:#fafafa"></rect><rect x="393.47" y="242.43" width="1.74" height="1.74" style="fill:#fafafa"></rect><rect x="393.47" y="245.35" width="1.74" height="1.74" style="fill:#fafafa"></rect><rect x="393.47" y="248.26" width="1.74" height="1.74" style="fill:#fafafa"></rect><rect x="393.47" y="251.18" width="1.74" height="1.74" style="fill:#fafafa"></rect><rect x="409.33" y="222.89" width="1.74" height="1.74" style="fill:#fafafa"></rect><rect x="409.33" y="225.8" width="1.74" height="1.74" style="fill:#fafafa"></rect><rect x="409.33" y="228.72" width="1.74" height="1.74" style="fill:#fafafa"></rect><rect x="409.33" y="231.64" width="1.74" height="1.74" style="fill:#fafafa"></rect><rect x="409.33" y="234.55" width="1.74" height="1.74" style="fill:#fafafa"></rect><rect x="409.33" y="237.47" width="1.74" height="1.74" style="fill:#fafafa"></rect><rect x="409.33" y="240.38" width="1.74" height="1.74" style="fill:#fafafa"></rect><rect x="409.33" y="243.3" width="1.74" height="1.74" style="fill:#fafafa"></rect><rect x="409.33" y="246.22" width="1.74" height="1.74" style="fill:#fafafa"></rect><rect x="409.33" y="249.13" width="1.74" height="1.74" style="fill:#fafafa"></rect><rect x="409.33" y="252.05" width="1.74" height="1.74" style="fill:#fafafa"></rect><rect x="409.33" y="254.96" width="1.74" height="1.74" style="fill:#fafafa"></rect><rect x="409.33" y="257.88" width="1.74" height="1.74" style="fill:#fafafa"></rect><rect x="406.57" y="222.89" width="1.74" height="1.74" style="fill:#fafafa"></rect><rect x="406.57" y="225.8" width="1.74" height="1.74" style="fill:#fafafa"></rect><rect x="406.57" y="228.72" width="1.74" height="1.74" style="fill:#fafafa"></rect><rect x="406.57" y="231.64" width="1.74" height="1.74" style="fill:#fafafa"></rect><rect x="406.57" y="234.55" width="1.74" height="1.74" style="fill:#fafafa"></rect><rect x="406.57" y="237.47" width="1.74" height="1.74" style="fill:#fafafa"></rect><rect x="406.57" y="240.38" width="1.74" height="1.74" style="fill:#fafafa"></rect><rect x="406.57" y="243.3" width="1.74" height="1.74" style="fill:#fafafa"></rect><rect x="406.57" y="246.22" width="1.74" height="1.74" style="fill:#fafafa"></rect><rect x="406.57" y="249.13" width="1.74" height="1.74" style="fill:#fafafa"></rect><rect x="406.57" y="252.05" width="1.74" height="1.74" style="fill:#fafafa"></rect><rect x="406.57" y="254.96" width="1.74" height="1.74" style="fill:#fafafa"></rect><rect x="406.57" y="257.88" width="1.74" height="1.74" style="fill:#fafafa"></rect><rect x="403.8" y="222.89" width="1.74" height="1.74" style="fill:#fafafa"></rect><rect x="403.8" y="225.8" width="1.74" height="1.74" style="fill:#fafafa"></rect><rect x="403.8" y="228.72" width="1.74" height="1.74" style="fill:#fafafa"></rect><rect x="403.8" y="231.64" width="1.74" height="1.74" style="fill:#fafafa"></rect><rect x="403.8" y="234.55" width="1.74" height="1.74" style="fill:#fafafa"></rect><rect x="403.8" y="237.47" width="1.74" height="1.74" style="fill:#fafafa"></rect><rect x="403.8" y="240.38" width="1.74" height="1.74" style="fill:#fafafa"></rect><rect x="403.8" y="243.3" width="1.74" height="1.74" style="fill:#fafafa"></rect><rect x="403.8" y="246.22" width="1.74" height="1.74" style="fill:#fafafa"></rect><rect x="403.8" y="249.13" width="1.74" height="1.74" style="fill:#fafafa"></rect><rect x="403.8" y="252.05" width="1.74" height="1.74" style="fill:#fafafa"></rect><rect x="403.8" y="254.96" width="1.74" height="1.74" style="fill:#fafafa"></rect><rect x="403.8" y="257.88" width="1.74" height="1.74" style="fill:#fafafa"></rect><rect x="403.8" y="260.8" width="1.74" height="1.74" style="fill:#fafafa"></rect><rect x="388.46" y="223.76" width="1.74" height="1.74" style="fill:#fafafa"></rect><rect x="388.46" y="226.67" width="1.74" height="1.74" style="fill:#fafafa"></rect><rect x="388.46" y="229.59" width="1.74" height="1.74" style="fill:#fafafa"></rect><rect x="388.46" y="232.51" width="1.74" height="1.74" style="fill:#fafafa"></rect><rect x="388.46" y="235.42" width="1.74" height="1.74" style="fill:#fafafa"></rect><rect x="388.46" y="238.34" width="1.74" height="1.74" style="fill:#fafafa"></rect><rect x="388.46" y="241.25" width="1.74" height="1.74" style="fill:#fafafa"></rect><rect x="388.46" y="244.17" width="1.74" height="1.74" style="fill:#fafafa"></rect><rect x="388.46" y="247.09" width="1.74" height="1.74" style="fill:#fafafa"></rect><rect x="388.46" y="250" width="1.74" height="1.74" style="fill:#fafafa"></rect><rect x="388.46" y="258.75" width="1.74" height="1.74" style="fill:#fafafa"></rect><rect x="385.69" y="223.76" width="1.74" height="1.74" style="fill:#fafafa"></rect><rect x="385.69" y="226.67" width="1.74" height="1.74" style="fill:#fafafa"></rect><rect x="385.69" y="229.59" width="1.74" height="1.74" style="fill:#fafafa"></rect><rect x="385.69" y="232.51" width="1.74" height="1.74" style="fill:#fafafa"></rect><rect x="385.69" y="235.42" width="1.74" height="1.74" style="fill:#fafafa"></rect><rect x="385.69" y="238.34" width="1.74" height="1.74" style="fill:#fafafa"></rect><rect x="385.69" y="241.25" width="1.74" height="1.74" style="fill:#fafafa"></rect><rect x="385.69" y="244.17" width="1.74" height="1.74" style="fill:#fafafa"></rect><rect x="385.69" y="247.09" width="1.74" height="1.74" style="fill:#fafafa"></rect><rect x="385.69" y="255.83" width="1.74" height="1.74" style="fill:#fafafa"></rect><rect x="385.69" y="258.75" width="1.74" height="1.74" style="fill:#fafafa"></rect><rect x="382.93" y="223.76" width="1.74" height="1.74" style="fill:#fafafa"></rect><rect x="382.93" y="226.67" width="1.74" height="1.74" style="fill:#fafafa"></rect><rect x="382.93" y="229.59" width="1.74" height="1.74" style="fill:#fafafa"></rect><rect x="382.93" y="232.51" width="1.74" height="1.74" style="fill:#fafafa"></rect><rect x="382.93" y="235.42" width="1.74" height="1.74" style="fill:#fafafa"></rect><rect x="382.93" y="238.34" width="1.74" height="1.74" style="fill:#fafafa"></rect><rect x="382.93" y="241.25" width="1.74" height="1.74" style="fill:#fafafa"></rect><rect x="382.93" y="244.17" width="1.74" height="1.74" style="fill:#fafafa"></rect><rect x="382.93" y="252.92" width="1.74" height="1.74" style="fill:#fafafa"></rect><rect x="382.93" y="255.83" width="1.74" height="1.74" style="fill:#fafafa"></rect><rect x="382.93" y="258.75" width="1.74" height="1.74" style="fill:#fafafa"></rect><rect x="357.25" y="179.45" width="1.74" height="1.74" style="fill:#fafafa"></rect><rect x="357.25" y="182.37" width="1.74" height="1.74" style="fill:#fafafa"></rect><rect x="357.25" y="185.29" width="1.74" height="1.74" style="fill:#fafafa"></rect><rect x="357.25" y="188.2" width="1.74" height="1.74" style="fill:#fafafa"></rect><rect x="357.25" y="191.12" width="1.74" height="1.74" style="fill:#fafafa"></rect><rect x="357.25" y="194.03" width="1.74" height="1.74" style="fill:#fafafa"></rect><rect x="357.25" y="196.95" width="1.74" height="1.74" style="fill:#fafafa"></rect><rect x="357.25" y="199.87" width="1.74" height="1.74" style="fill:#fafafa"></rect><rect x="357.25" y="202.78" width="1.74" height="1.74" style="fill:#fafafa"></rect><rect x="357.25" y="205.7" width="1.74" height="1.74" style="fill:#fafafa"></rect><rect x="357.25" y="208.61" width="1.74" height="1.74" style="fill:#fafafa"></rect><rect x="357.25" y="211.53" width="1.74" height="1.74" style="fill:#fafafa"></rect><rect x="357.25" y="214.45" width="1.74" height="1.74" style="fill:#fafafa"></rect><rect x="357.25" y="217.36" width="1.74" height="1.74" style="fill:#fafafa"></rect><rect x="357.25" y="220.28" width="1.74" height="1.74" style="fill:#fafafa"></rect><rect x="357.25" y="223.19" width="1.74" height="1.74" style="fill:#fafafa"></rect><rect x="357.25" y="226.11" width="1.74" height="1.74" style="fill:#fafafa"></rect><rect x="357.25" y="231.94" width="1.74" height="1.74" style="fill:#fafafa"></rect><rect x="357.25" y="234.86" width="1.74" height="1.74" style="fill:#fafafa"></rect><rect x="357.25" y="237.77" width="1.74" height="1.74" style="fill:#fafafa"></rect><rect x="357.25" y="240.69" width="1.74" height="1.74" style="fill:#fafafa"></rect><rect x="357.25" y="243.61" width="1.74" height="1.74" style="fill:#fafafa"></rect><rect x="354.49" y="179.45" width="1.74" height="1.74" style="fill:#fafafa"></rect><rect x="354.49" y="182.37" width="1.74" height="1.74" style="fill:#fafafa"></rect><rect x="354.49" y="185.29" width="1.74" height="1.74" style="fill:#fafafa"></rect><rect x="354.49" y="188.2" width="1.74" height="1.74" style="fill:#fafafa"></rect><rect x="354.49" y="191.12" width="1.74" height="1.74" style="fill:#fafafa"></rect><rect x="354.49" y="194.03" width="1.74" height="1.74" style="fill:#fafafa"></rect><rect x="354.49" y="196.95" width="1.74" height="1.74" style="fill:#fafafa"></rect><rect x="354.49" y="199.87" width="1.74" height="1.74" style="fill:#fafafa"></rect><rect x="354.49" y="202.78" width="1.74" height="1.74" style="fill:#fafafa"></rect><rect x="354.49" y="205.7" width="1.74" height="1.74" style="fill:#fafafa"></rect><rect x="354.49" y="208.61" width="1.74" height="1.74" style="fill:#fafafa"></rect><rect x="354.49" y="211.53" width="1.74" height="1.74" style="fill:#fafafa"></rect><rect x="354.49" y="214.45" width="1.74" height="1.74" style="fill:#fafafa"></rect><rect x="354.49" y="217.36" width="1.74" height="1.74" style="fill:#fafafa"></rect><rect x="354.49" y="220.28" width="1.74" height="1.74" style="fill:#fafafa"></rect><rect x="354.49" y="223.19" width="1.74" height="1.74" style="fill:#fafafa"></rect><rect x="354.49" y="240.69" width="1.74" height="1.74" style="fill:#fafafa"></rect><rect x="354.49" y="243.61" width="1.74" height="1.74" style="fill:#fafafa"></rect><rect x="351.72" y="179.45" width="1.74" height="1.74" style="fill:#fafafa"></rect><rect x="351.72" y="182.37" width="1.74" height="1.74" style="fill:#fafafa"></rect><rect x="351.72" y="185.29" width="1.74" height="1.74" style="fill:#fafafa"></rect><rect x="351.72" y="188.2" width="1.74" height="1.74" style="fill:#fafafa"></rect><rect x="351.72" y="191.12" width="1.74" height="1.74" style="fill:#fafafa"></rect><rect x="351.72" y="194.03" width="1.74" height="1.74" style="fill:#fafafa"></rect><rect x="351.72" y="196.95" width="1.74" height="1.74" style="fill:#fafafa"></rect><rect x="351.72" y="199.87" width="1.74" height="1.74" style="fill:#fafafa"></rect><rect x="351.72" y="202.78" width="1.74" height="1.74" style="fill:#fafafa"></rect><rect x="351.72" y="205.7" width="1.74" height="1.74" style="fill:#fafafa"></rect><rect x="351.72" y="208.61" width="1.74" height="1.74" style="fill:#fafafa"></rect><rect x="351.72" y="211.53" width="1.74" height="1.74" style="fill:#fafafa"></rect><rect x="351.72" y="214.45" width="1.74" height="1.74" style="fill:#fafafa"></rect><rect x="351.72" y="217.36" width="1.74" height="1.74" style="fill:#fafafa"></rect><rect x="351.72" y="220.28" width="1.74" height="1.74" style="fill:#fafafa"></rect><rect x="351.72" y="223.19" width="1.74" height="1.74" style="fill:#fafafa"></rect><rect x="351.72" y="229.03" width="1.74" height="1.74" style="fill:#fafafa"></rect><rect x="351.72" y="231.94" width="1.74" height="1.74" style="fill:#fafafa"></rect><rect x="351.72" y="234.86" width="1.74" height="1.74" style="fill:#fafafa"></rect><rect x="351.72" y="237.77" width="1.74" height="1.74" style="fill:#fafafa"></rect><rect x="351.72" y="243.61" width="1.74" height="1.74" style="fill:#fafafa"></rect><rect x="367.28" y="216.19" width="1.74" height="1.74" style="fill:#fafafa"></rect><rect x="367.28" y="219.1" width="1.74" height="1.74" style="fill:#fafafa"></rect><rect x="367.28" y="222.02" width="1.74" height="1.74" style="fill:#fafafa"></rect><rect x="367.28" y="224.93" width="1.74" height="1.74" style="fill:#fafafa"></rect><rect x="367.28" y="227.85" width="1.74" height="1.74" style="fill:#fafafa"></rect><rect x="367.28" y="230.77" width="1.74" height="1.74" style="fill:#fafafa"></rect><rect x="367.28" y="233.68" width="1.74" height="1.74" style="fill:#fafafa"></rect><rect x="367.28" y="239.51" width="1.74" height="1.74" style="fill:#fafafa"></rect><rect x="367.28" y="242.43" width="1.74" height="1.74" style="fill:#fafafa"></rect><rect x="367.28" y="245.35" width="1.74" height="1.74" style="fill:#fafafa"></rect><rect x="367.28" y="248.26" width="1.74" height="1.74" style="fill:#fafafa"></rect><rect x="367.28" y="251.18" width="1.74" height="1.74" style="fill:#fafafa"></rect><rect x="367.28" y="254.09" width="1.74" height="1.74" style="fill:#fafafa"></rect><rect x="367.28" y="257.01" width="1.74" height="1.74" style="fill:#fafafa"></rect><rect x="367.28" y="259.93" width="1.74" height="1.74" style="fill:#fafafa"></rect><rect x="364.51" y="216.19" width="1.74" height="1.74" style="fill:#fafafa"></rect><rect x="364.51" y="219.1" width="1.74" height="1.74" style="fill:#fafafa"></rect><rect x="364.51" y="222.02" width="1.74" height="1.74" style="fill:#fafafa"></rect><rect x="364.51" y="224.93" width="1.74" height="1.74" style="fill:#fafafa"></rect><rect x="364.51" y="227.85" width="1.74" height="1.74" style="fill:#fafafa"></rect><rect x="364.51" y="230.77" width="1.74" height="1.74" style="fill:#fafafa"></rect><rect x="364.51" y="239.51" width="1.74" height="1.74" style="fill:#fafafa"></rect><rect x="364.51" y="242.43" width="1.74" height="1.74" style="fill:#fafafa"></rect><rect x="364.51" y="245.35" width="1.74" height="1.74" style="fill:#fafafa"></rect><rect x="364.51" y="248.26" width="1.74" height="1.74" style="fill:#fafafa"></rect><rect x="364.51" y="251.18" width="1.74" height="1.74" style="fill:#fafafa"></rect><rect x="364.51" y="254.09" width="1.74" height="1.74" style="fill:#fafafa"></rect><rect x="364.51" y="257.01" width="1.74" height="1.74" style="fill:#fafafa"></rect><rect x="364.51" y="259.93" width="1.74" height="1.74" style="fill:#fafafa"></rect><rect x="361.75" y="216.19" width="1.74" height="1.74" style="fill:#fafafa"></rect><rect x="361.75" y="219.1" width="1.74" height="1.74" style="fill:#fafafa"></rect><rect x="361.75" y="222.02" width="1.74" height="1.74" style="fill:#fafafa"></rect><rect x="361.75" y="224.93" width="1.74" height="1.74" style="fill:#fafafa"></rect><rect x="361.75" y="227.85" width="1.74" height="1.74" style="fill:#fafafa"></rect><rect x="361.75" y="230.77" width="1.74" height="1.74" style="fill:#fafafa"></rect><rect x="361.75" y="236.6" width="1.74" height="1.74" style="fill:#fafafa"></rect><rect x="361.75" y="239.51" width="1.74" height="1.74" style="fill:#fafafa"></rect><rect x="361.75" y="242.43" width="1.74" height="1.74" style="fill:#fafafa"></rect><rect x="361.75" y="245.35" width="1.74" height="1.74" style="fill:#fafafa"></rect><rect x="361.75" y="248.26" width="1.74" height="1.74" style="fill:#fafafa"></rect><rect x="361.75" y="251.18" width="1.74" height="1.74" style="fill:#fafafa"></rect><rect x="361.75" y="254.09" width="1.74" height="1.74" style="fill:#fafafa"></rect><rect x="361.75" y="257.01" width="1.74" height="1.74" style="fill:#fafafa"></rect><rect x="361.75" y="259.93" width="1.74" height="1.74" style="fill:#fafafa"></rect><rect x="303.53" y="199.87" width="1.74" height="1.74" style="fill:#fafafa"></rect><rect x="303.53" y="202.78" width="1.74" height="1.74" style="fill:#fafafa"></rect><rect x="303.53" y="205.7" width="1.74" height="1.74" style="fill:#fafafa"></rect><rect x="303.53" y="208.61" width="1.74" height="1.74" style="fill:#fafafa"></rect><rect x="303.53" y="211.53" width="1.74" height="1.74" style="fill:#fafafa"></rect><rect x="303.53" y="214.45" width="1.74" height="1.74" style="fill:#fafafa"></rect><rect x="303.53" y="217.36" width="1.74" height="1.74" style="fill:#fafafa"></rect><rect x="303.53" y="220.28" width="1.74" height="1.74" style="fill:#fafafa"></rect><rect x="303.53" y="223.19" width="1.74" height="1.74" style="fill:#fafafa"></rect><rect x="303.53" y="226.11" width="1.74" height="1.74" style="fill:#fafafa"></rect><rect x="303.53" y="229.03" width="1.74" height="1.74" style="fill:#fafafa"></rect><rect x="303.53" y="231.94" width="1.74" height="1.74" style="fill:#fafafa"></rect><rect x="303.53" y="234.86" width="1.74" height="1.74" style="fill:#fafafa"></rect><rect x="303.53" y="240.69" width="1.74" height="1.74" style="fill:#fafafa"></rect><rect x="303.53" y="243.61" width="1.74" height="1.74" style="fill:#fafafa"></rect><rect x="303.53" y="246.52" width="1.74" height="1.74" style="fill:#fafafa"></rect><rect x="303.53" y="249.44" width="1.74" height="1.74" style="fill:#fafafa"></rect><rect x="303.53" y="255.27" width="1.74" height="1.74" style="fill:#fafafa"></rect><rect x="303.53" y="258.19" width="1.74" height="1.74" style="fill:#fafafa"></rect><rect x="303.53" y="261.1" width="1.74" height="1.74" style="fill:#fafafa"></rect><rect x="300.77" y="199.87" width="1.74" height="1.74" style="fill:#fafafa"></rect><rect x="300.77" y="202.78" width="1.74" height="1.74" style="fill:#fafafa"></rect><rect x="300.77" y="205.7" width="1.74" height="1.74" style="fill:#fafafa"></rect><rect x="300.77" y="208.61" width="1.74" height="1.74" style="fill:#fafafa"></rect><rect x="300.77" y="211.53" width="1.74" height="1.74" style="fill:#fafafa"></rect><rect x="300.77" y="214.45" width="1.74" height="1.74" style="fill:#fafafa"></rect><rect x="300.77" y="217.36" width="1.74" height="1.74" style="fill:#fafafa"></rect><rect x="300.77" y="220.28" width="1.74" height="1.74" style="fill:#fafafa"></rect><rect x="300.77" y="223.19" width="1.74" height="1.74" style="fill:#fafafa"></rect><rect x="300.77" y="226.11" width="1.74" height="1.74" style="fill:#fafafa"></rect><rect x="300.77" y="229.03" width="1.74" height="1.74" style="fill:#fafafa"></rect><rect x="300.77" y="231.94" width="1.74" height="1.74" style="fill:#fafafa"></rect><rect x="300.77" y="234.86" width="1.74" height="1.74" style="fill:#fafafa"></rect><rect x="300.77" y="243.61" width="1.74" height="1.74" style="fill:#fafafa"></rect><rect x="300.77" y="246.52" width="1.74" height="1.74" style="fill:#fafafa"></rect><rect x="300.77" y="252.36" width="1.74" height="1.74" style="fill:#fafafa"></rect><rect x="300.77" y="255.27" width="1.74" height="1.74" style="fill:#fafafa"></rect><rect x="300.77" y="258.19" width="1.74" height="1.74" style="fill:#fafafa"></rect><rect x="300.77" y="261.1" width="1.74" height="1.74" style="fill:#fafafa"></rect><rect x="298.01" y="199.87" width="1.74" height="1.74" style="fill:#fafafa"></rect><rect x="298.01" y="202.78" width="1.74" height="1.74" style="fill:#fafafa"></rect><rect x="298.01" y="205.7" width="1.74" height="1.74" style="fill:#fafafa"></rect><rect x="298.01" y="208.61" width="1.74" height="1.74" style="fill:#fafafa"></rect><rect x="298.01" y="211.53" width="1.74" height="1.74" style="fill:#fafafa"></rect><rect x="298.01" y="214.45" width="1.74" height="1.74" style="fill:#fafafa"></rect><rect x="298.01" y="217.36" width="1.74" height="1.74" style="fill:#fafafa"></rect><rect x="298.01" y="220.28" width="1.74" height="1.74" style="fill:#fafafa"></rect><rect x="298.01" y="223.19" width="1.74" height="1.74" style="fill:#fafafa"></rect><rect x="298.01" y="226.11" width="1.74" height="1.74" style="fill:#fafafa"></rect><rect x="298.01" y="229.03" width="1.74" height="1.74" style="fill:#fafafa"></rect><rect x="298.01" y="231.94" width="1.74" height="1.74" style="fill:#fafafa"></rect><rect x="298.01" y="234.86" width="1.74" height="1.74" style="fill:#fafafa"></rect><rect x="298.01" y="237.77" width="1.74" height="1.74" style="fill:#fafafa"></rect><rect x="298.01" y="243.61" width="1.74" height="1.74" style="fill:#fafafa"></rect><rect x="298.01" y="249.44" width="1.74" height="1.74" style="fill:#fafafa"></rect><rect x="298.01" y="252.36" width="1.74" height="1.74" style="fill:#fafafa"></rect><rect x="298.01" y="255.27" width="1.74" height="1.74" style="fill:#fafafa"></rect><rect x="298.01" y="258.19" width="1.74" height="1.74" style="fill:#fafafa"></rect><rect x="298.01" y="261.1" width="1.74" height="1.74" style="fill:#fafafa"></rect><rect x="314.79" y="216.49" width="1.74" height="1.74" style="fill:#fafafa"></rect><rect x="314.79" y="219.41" width="1.74" height="1.74" style="fill:#fafafa"></rect><rect x="314.79" y="222.32" width="1.74" height="1.74" style="fill:#fafafa"></rect><rect x="314.79" y="225.24" width="1.74" height="1.74" style="fill:#fafafa"></rect><rect x="314.79" y="228.16" width="1.74" height="1.74" style="fill:#fafafa"></rect><rect x="314.79" y="231.07" width="1.74" height="1.74" style="fill:#fafafa"></rect><rect x="314.79" y="239.82" width="1.74" height="1.74" style="fill:#fafafa"></rect><rect x="314.79" y="242.74" width="1.74" height="1.74" style="fill:#fafafa"></rect><rect x="314.79" y="245.65" width="1.74" height="1.74" style="fill:#fafafa"></rect><rect x="314.79" y="248.57" width="1.74" height="1.74" style="fill:#fafafa"></rect><rect x="314.79" y="251.49" width="1.74" height="1.74" style="fill:#fafafa"></rect><rect x="314.79" y="254.4" width="1.74" height="1.74" style="fill:#fafafa"></rect><rect x="314.79" y="257.32" width="1.74" height="1.74" style="fill:#fafafa"></rect><rect x="312.03" y="216.49" width="1.74" height="1.74" style="fill:#fafafa"></rect><rect x="312.03" y="219.41" width="1.74" height="1.74" style="fill:#fafafa"></rect><rect x="312.03" y="222.32" width="1.74" height="1.74" style="fill:#fafafa"></rect><rect x="312.03" y="225.24" width="1.74" height="1.74" style="fill:#fafafa"></rect><rect x="312.03" y="228.16" width="1.74" height="1.74" style="fill:#fafafa"></rect><rect x="312.03" y="231.07" width="1.74" height="1.74" style="fill:#fafafa"></rect><rect x="312.03" y="239.82" width="1.74" height="1.74" style="fill:#fafafa"></rect><rect x="312.03" y="242.74" width="1.74" height="1.74" style="fill:#fafafa"></rect><rect x="312.03" y="245.65" width="1.74" height="1.74" style="fill:#fafafa"></rect><rect x="312.03" y="248.57" width="1.74" height="1.74" style="fill:#fafafa"></rect><rect x="312.03" y="251.49" width="1.74" height="1.74" style="fill:#fafafa"></rect><rect x="312.03" y="254.4" width="1.74" height="1.74" style="fill:#fafafa"></rect><rect x="312.03" y="260.23" width="1.74" height="1.74" style="fill:#fafafa"></rect><rect x="245.81" y="121.14" width="3.45" height="189.49" style="fill:#ebebeb"></rect><rect x="301.27" y="121.14" width="2.92" height="189.49" style="fill:#ebebeb"></rect><rect x="356.19" y="121.14" width="2.92" height="189.49" style="fill:#ebebeb"></rect><circle cx="141.72" cy="93.04" r="14.17" style="fill:#e0e0e0"></circle><circle cx="141.72" cy="93.04" r="12.05" style="fill:#f0f0f0"></circle><polyline points="142.29 84.78 142.29 93.2 147.87 90.04" style="fill:#f0f0f0"></polyline><path d="M142.29,94.2a1,1,0,0,1-.51-.14,1,1,0,0,1-.49-.86V84.78a1,1,0,0,1,2,0v6.7l4.09-2.31a1,1,0,0,1,1,1.74l-5.58,3.16A1,1,0,0,1,142.29,94.2Z" style="fill:#e0e0e0"></path><rect x="78.49" y="193.84" width="22.5" height="188.98" style="fill:#e0e0e0"></rect><rect x="98.53" y="193.84" width="63.16" height="188.98" style="fill:#ebebeb"></rect><rect x="104.97" y="200.27" width="50.29" height="50.29" style="fill:#fafafa"></rect><path d="M143.72,229.86H116.51a1.38,1.38,0,0,1-1.39-1.38h0a1.38,1.38,0,0,1,1.39-1.38h27.21a1.38,1.38,0,0,1,1.38,1.38h0A1.38,1.38,0,0,1,143.72,229.86Z" style="fill:#e0e0e0"></path><path d="M143.72,235.39H116.51a1.39,1.39,0,0,1-1.39-1.39h0a1.38,1.38,0,0,1,1.39-1.38h27.21A1.38,1.38,0,0,1,145.1,234h0A1.38,1.38,0,0,1,143.72,235.39Z" style="fill:#e0e0e0"></path><path d="M143.72,240.91H116.51a1.38,1.38,0,0,1-1.39-1.38h0a1.38,1.38,0,0,1,1.39-1.38h27.21a1.38,1.38,0,0,1,1.38,1.38h0A1.38,1.38,0,0,1,143.72,240.91Z" style="fill:#e0e0e0"></path><polygon points="135.47 219.66 124.75 219.66 121.93 216.83 121.93 210.79 124.75 207.96 135.47 207.96 138.3 210.79 138.3 216.83 135.47 219.66" style="fill:#ebebeb"></polygon><rect x="104.97" y="255.38" width="50.29" height="50.29" style="fill:#fafafa"></rect><path d="M143.72,285H116.51a1.38,1.38,0,0,1-1.39-1.38h0a1.38,1.38,0,0,1,1.39-1.38h27.21a1.38,1.38,0,0,1,1.38,1.38h0A1.38,1.38,0,0,1,143.72,285Z" style="fill:#e0e0e0"></path><path d="M143.72,290.49H116.51a1.38,1.38,0,0,1-1.39-1.38h0a1.38,1.38,0,0,1,1.39-1.38h27.21a1.38,1.38,0,0,1,1.38,1.38h0A1.38,1.38,0,0,1,143.72,290.49Z" style="fill:#e0e0e0"></path><path d="M143.72,296H116.51a1.38,1.38,0,0,1-1.39-1.38h0a1.38,1.38,0,0,1,1.39-1.38h27.21a1.38,1.38,0,0,1,1.38,1.38h0A1.38,1.38,0,0,1,143.72,296Z" style="fill:#e0e0e0"></path><polygon points="135.47 274.76 124.75 274.76 121.93 271.93 121.93 265.9 124.75 263.07 135.47 263.07 138.3 265.9 138.3 271.93 135.47 274.76" style="fill:#ebebeb"></polygon><rect x="104.97" y="310.48" width="50.29" height="50.29" style="fill:#fafafa"></rect><path d="M143.72,340.07H116.51a1.38,1.38,0,0,1-1.39-1.38h0a1.38,1.38,0,0,1,1.39-1.38h27.21a1.38,1.38,0,0,1,1.38,1.38h0A1.38,1.38,0,0,1,143.72,340.07Z" style="fill:#e0e0e0"></path><path d="M143.72,345.6H116.51a1.38,1.38,0,0,1-1.39-1.38h0a1.39,1.39,0,0,1,1.39-1.39h27.21a1.38,1.38,0,0,1,1.38,1.39h0A1.38,1.38,0,0,1,143.72,345.6Z" style="fill:#e0e0e0"></path><path d="M143.72,351.12H116.51a1.38,1.38,0,0,1-1.39-1.38h0a1.38,1.38,0,0,1,1.39-1.38h27.21a1.38,1.38,0,0,1,1.38,1.38h0A1.38,1.38,0,0,1,143.72,351.12Z" style="fill:#e0e0e0"></path><polygon points="135.47 329.87 124.75 329.87 121.93 327.04 121.93 321 124.75 318.17 135.47 318.17 138.3 321 138.3 327.04 135.47 329.87" style="fill:#ebebeb"></polygon></g><g id="freepik--Shadow--inject-221"><ellipse id="freepik--path--inject-221" cx="250" cy="416.24" rx="193.89" ry="11.32" style="fill:#f5f5f5"></ellipse></g><g id="freepik--Plant--inject-221"><path d="M385.08,324.43c.21,1.47-3.78,2.43-7,3,.26,2.67,2,5.36,4.49,7.88,3.09-1.74,7.49-4,8.3-3.47s-3.62,3.53-6.44,5.24a58,58,0,0,0,6.39,4.84c1.38-1.29,3-2.42,4-1.81s.73,2.63.23,4.42c3.36,2,5.87,3.15,5.87,3.15a67.5,67.5,0,0,0,2.24-9.53c-.17-.34-.33-.68-.49-1-.54-1.25,0-1.79.88-2a33.62,33.62,0,0,0,.06-6.87c-3.8-.79-8.42-2.27-6.69-4.55,1-1.37,2.95-1.53,4.94-1.18a8.61,8.61,0,0,0-.94-1.28c-6.91-7.62-11.74,0-11.74,0-4-3.35-9.66-2.44-10.88,2.79C380.5,323.47,384.82,322.61,385.08,324.43Z" style="fill:#407BFF"></path><path d="M393.7,380.41l-1-.08c0-.51,4.09-51.52-7.36-56.33a3.88,3.88,0,0,0-3.47.08c-4.13,2.16-6.12,11.09-6.14,11.18l-1-.22c.08-.38,2.1-9.47,6.65-11.84a4.89,4.89,0,0,1,4.32-.12C397.85,328.16,393.88,378.28,393.7,380.41Z" style="fill:#407BFF"></path><path d="M395.15,379.31c-.21-2.3-4.88-56.27,3.86-62,2.09-1.37,4-1.67,5.55-.86,4.13,2.08,4.67,10.91,4.69,11.28l-1,.06c0-.09-.53-8.63-4.14-10.45-1.25-.63-2.78-.36-4.55.81-8.25,5.4-3.47,60.51-3.42,61.07Z" style="fill:#407BFF"></path><path d="M396.46,383.67c-.07-1.76-1.51-43.07,6.45-46.69a5.59,5.59,0,0,1,4.73,0c5.46,2.4,8.84,12.57,9,13l-.95.31c0-.1-3.38-10.18-8.43-12.4a4.54,4.54,0,0,0-3.91,0c-6.11,2.78-6.31,34-5.87,45.74Z" style="fill:#407BFF"></path><path d="M394.43,381.78l-1-.11c1.4-12.3,4.08-45.06-.3-49a1.71,1.71,0,0,0-1.79-.56c-2.93,1.13-4.72,11.79-5.16,15.8l-1-.11c.17-1.54,1.76-15.07,5.79-16.62a2.67,2.67,0,0,1,2.82.74C399.47,337,394.64,380,394.43,381.78Z" style="fill:#407BFF"></path><polygon points="377.75 358.47 413.67 358.47 410.67 398.71 380.75 398.71 377.75 358.47" style="fill:#263238"></polygon><path d="M382.64,343.7c-.37,1-3.16.21-5.35-.57-.76,1.74-.59,4,.06,6.41,2.5,0,6,.07,6.31.7s-3.44.93-5.77,1a41.47,41.47,0,0,0,2.28,5.18c1.3-.32,2.69-.47,3.07.24s-.45,1.88-1.37,2.81c1.4,2.35,2.54,3.95,2.54,3.95a46.9,46.9,0,0,0,4.65-5.11c0-.26,0-.53.05-.8.1-1,.6-1.11,1.22-.91a23.57,23.57,0,0,0,2.38-4.21c-2.07-1.8-4.41-4.29-2.56-5.1,1.11-.49,2.34.07,3.45,1a5.11,5.11,0,0,0-.14-1.11c-1.65-7.07-7.24-4-7.24-4-1.33-3.45-5.12-4.82-7.66-2C380.15,341.54,383.1,342.49,382.64,343.7Z" style="fill:#407BFF"></path><path d="M382.64,343.7c-.37,1-3.16.21-5.35-.57-.76,1.74-.59,4,.06,6.41,2.5,0,6,.07,6.31.7s-3.44.93-5.77,1a41.47,41.47,0,0,0,2.28,5.18c1.3-.32,2.69-.47,3.07.24s-.45,1.88-1.37,2.81c1.4,2.35,2.54,3.95,2.54,3.95a46.9,46.9,0,0,0,4.65-5.11c0-.26,0-.53.05-.8.1-1,.6-1.11,1.22-.91a23.57,23.57,0,0,0,2.38-4.21c-2.07-1.8-4.41-4.29-2.56-5.1,1.11-.49,2.34.07,3.45,1a5.11,5.11,0,0,0-.14-1.11c-1.65-7.07-7.24-4-7.24-4-1.33-3.45-5.12-4.82-7.66-2C380.15,341.54,383.1,342.49,382.64,343.7Z" style="fill:#fff;isolation:isolate;opacity:0.30000000000000004"></path><path d="M409.32,348.48a14.06,14.06,0,0,0-3.29.69,7.93,7.93,0,0,1-.48-2.37c-.23-7.25,5-4.2,7.7-6.32a5.88,5.88,0,0,1,4.59-1.44,9.63,9.63,0,0,0-.63,1.24,1.15,1.15,0,0,0,.88,1.55,3.33,3.33,0,0,0,2-.24,3.77,3.77,0,0,0,.52-.37,10.35,10.35,0,0,1,1,2.43,14,14,0,0,1,.46,3.1,11,11,0,0,0-1.21.34,1.13,1.13,0,0,0-.45,1.72,5.11,5.11,0,0,0,1.49,1.05,17.18,17.18,0,0,1-.91,3.4l-.37.05a7.44,7.44,0,0,0-.78.2,3.12,3.12,0,0,0-.43.15,1.18,1.18,0,0,0-.68.88,1.12,1.12,0,0,0,.43,1,3.24,3.24,0,0,0,.54.33,8.07,8.07,0,0,1-2.88,2.9,30.08,30.08,0,0,1-3.05-1.62c.22-.29.44-.58.64-.88a1.69,1.69,0,0,0,.3-1.13,1.57,1.57,0,0,0-.58-1,1.61,1.61,0,0,0-1.14-.3,1.52,1.52,0,0,0-1,.58c-.24.36-.51.7-.77,1a19.11,19.11,0,0,1-3.68-3.57l.11,0a10.87,10.87,0,0,1,2-.34,1.54,1.54,0,0,0-.39-3.06Z" style="fill:#407BFF"></path><path d="M409.32,348.48a14.06,14.06,0,0,0-3.29.69,7.93,7.93,0,0,1-.48-2.37c-.23-7.25,5-4.2,7.7-6.32a5.88,5.88,0,0,1,4.59-1.44,9.63,9.63,0,0,0-.63,1.24,1.15,1.15,0,0,0,.88,1.55,3.33,3.33,0,0,0,2-.24,3.77,3.77,0,0,0,.52-.37,10.35,10.35,0,0,1,1,2.43,14,14,0,0,1,.46,3.1,11,11,0,0,0-1.21.34,1.13,1.13,0,0,0-.45,1.72,5.11,5.11,0,0,0,1.49,1.05,17.18,17.18,0,0,1-.91,3.4l-.37.05a7.44,7.44,0,0,0-.78.2,3.12,3.12,0,0,0-.43.15,1.18,1.18,0,0,0-.68.88,1.12,1.12,0,0,0,.43,1,3.24,3.24,0,0,0,.54.33,8.07,8.07,0,0,1-2.88,2.9,30.08,30.08,0,0,1-3.05-1.62c.22-.29.44-.58.64-.88a1.69,1.69,0,0,0,.3-1.13,1.57,1.57,0,0,0-.58-1,1.61,1.61,0,0,0-1.14-.3,1.52,1.52,0,0,0-1,.58c-.24.36-.51.7-.77,1a19.11,19.11,0,0,1-3.68-3.57l.11,0a10.87,10.87,0,0,1,2-.34,1.54,1.54,0,0,0-.39-3.06Z" style="fill:#fff;isolation:isolate;opacity:0.5"></path><path d="M411.39,323.5a9.89,9.89,0,0,1,2-1.08,5.31,5.31,0,0,0-.79-1.46c-3.06-3.91-4.44,0-6.82.06a4,4,0,0,0-3,1.26,6.74,6.74,0,0,1,.87.38.77.77,0,0,1,.22,1.2,2.35,2.35,0,0,1-1.17.76,2.18,2.18,0,0,1-.44,0,6.64,6.64,0,0,0,.54,1.71,9.55,9.55,0,0,0,1.12,1.83,6.86,6.86,0,0,1,.78-.35.78.78,0,0,1,1,.71,3.63,3.63,0,0,1-.33,1.21,12.29,12.29,0,0,0,2,1.38l.22-.13a4.59,4.59,0,0,1,.5-.24,1,1,0,0,1,.29-.11.81.81,0,0,1,.75.16.79.79,0,0,1,.23.74,2,2,0,0,1-.14.41,5.5,5.5,0,0,0,2.78.26,20.83,20.83,0,0,0,.9-2.19c-.24-.05-.49-.11-.72-.18a1.12,1.12,0,0,1-.66-.46,1.07,1.07,0,0,1-.14-.8,1,1,0,0,1,.46-.66,1.09,1.09,0,0,1,.79-.14c.29.08.57.15.86.21a13.07,13.07,0,0,0,.37-3.49l-.07,0a7.6,7.6,0,0,0-1.23.72,1.05,1.05,0,0,1-1.13-1.78Z" style="fill:#407BFF"></path><path d="M411.39,323.5a9.89,9.89,0,0,1,2-1.08,5.31,5.31,0,0,0-.79-1.46c-3.06-3.91-4.44,0-6.82.06a4,4,0,0,0-3,1.26,6.74,6.74,0,0,1,.87.38.77.77,0,0,1,.22,1.2,2.35,2.35,0,0,1-1.17.76,2.18,2.18,0,0,1-.44,0,6.64,6.64,0,0,0,.54,1.71,9.55,9.55,0,0,0,1.12,1.83,6.86,6.86,0,0,1,.78-.35.78.78,0,0,1,1,.71,3.63,3.63,0,0,1-.33,1.21,12.29,12.29,0,0,0,2,1.38l.22-.13a4.59,4.59,0,0,1,.5-.24,1,1,0,0,1,.29-.11.81.81,0,0,1,.75.16.79.79,0,0,1,.23.74,2,2,0,0,1-.14.41,5.5,5.5,0,0,0,2.78.26,20.83,20.83,0,0,0,.9-2.19c-.24-.05-.49-.11-.72-.18a1.12,1.12,0,0,1-.66-.46,1.07,1.07,0,0,1-.14-.8,1,1,0,0,1,.46-.66,1.09,1.09,0,0,1,.79-.14c.29.08.57.15.86.21a13.07,13.07,0,0,0,.37-3.49l-.07,0a7.6,7.6,0,0,0-1.23.72,1.05,1.05,0,0,1-1.13-1.78Z" style="fill:#fff;isolation:isolate;opacity:0.30000000000000004"></path><path d="M382.12,330.75c-.21,1.47,3.77,2.44,7,3-.27,2.67-2,5.37-4.5,7.89-3.08-1.74-7.49-4-8.3-3.48s3.62,3.53,6.44,5.25a57.88,57.88,0,0,1-6.38,4.84c-1.39-1.3-3-2.43-4-1.82s-.73,2.64-.24,4.42c-3.35,2-5.87,3.15-5.87,3.15a67.5,67.5,0,0,1-2.24-9.53c.17-.33.34-.67.49-1,.54-1.25,0-1.78-.88-2a33.52,33.52,0,0,1-.05-6.86c3.8-.8,8.42-2.27,6.69-4.55-1-1.38-3-1.53-4.95-1.19a8.61,8.61,0,0,1,.94-1.28c6.92-7.61,11.74,0,11.74,0,4-3.34,9.66-2.44,10.88,2.79C386.7,329.8,382.38,328.94,382.12,330.75Z" style="fill:#407BFF"></path><path d="M382.12,330.75c-.21,1.47,3.77,2.44,7,3-.27,2.67-2,5.37-4.5,7.89-3.08-1.74-7.49-4-8.3-3.48s3.62,3.53,6.44,5.25a57.88,57.88,0,0,1-6.38,4.84c-1.39-1.3-3-2.43-4-1.82s-.73,2.64-.24,4.42c-3.35,2-5.87,3.15-5.87,3.15a67.5,67.5,0,0,1-2.24-9.53c.17-.33.34-.67.49-1,.54-1.25,0-1.78-.88-2a33.52,33.52,0,0,1-.05-6.86c3.8-.8,8.42-2.27,6.69-4.55-1-1.38-3-1.53-4.95-1.19a8.61,8.61,0,0,1,.94-1.28c6.92-7.61,11.74,0,11.74,0,4-3.34,9.66-2.44,10.88,2.79C386.7,329.8,382.38,328.94,382.12,330.75Z" style="fill:#fff;isolation:isolate;opacity:0.5"></path></g><g id="freepik--character-1--inject-221"><path d="M190.08,413.06l-25.21-9.28-25.48,9.29a1.35,1.35,0,0,1-1.81-1.27h0a1.36,1.36,0,0,1,.78-1.22l26.51-12.3,26.24,12.3a1.33,1.33,0,0,1,.78,1.22h0A1.34,1.34,0,0,1,190.08,413.06Z" style="fill:#263238"></path><path d="M190.08,413.06l-25.21-9.28-25.48,9.29a1.35,1.35,0,0,1-1.81-1.27h0a1.36,1.36,0,0,1,.78-1.22l26.51-12.3,26.24,12.3a1.33,1.33,0,0,1,.78,1.22h0A1.34,1.34,0,0,1,190.08,413.06Z" style="fill:#fff;opacity:0.30000000000000004"></path><polygon points="158.93 405.94 164.87 403.78 170.54 405.87 170.54 400.93 164.87 398.28 158.93 401.03 158.93 405.94" style="opacity:0.2"></polygon><path d="M164.74,413.28h0a2.24,2.24,0,0,1-2.23-2l-.71-7.47v-62h5.87v62l-.71,7.47A2.24,2.24,0,0,1,164.74,413.28Z" style="fill:#263238"></path><path d="M164.74,413.28h0a2.24,2.24,0,0,1-2.23-2l-.71-7.47v-62h5.87v62l-.71,7.47A2.24,2.24,0,0,1,164.74,413.28Z" style="fill:#fff;opacity:0.30000000000000004"></path><rect x="161.8" y="341.76" width="5.88" height="7.22" style="opacity:0.2"></rect><path d="M151.55,277.87a2.5,2.5,0,0,1,2.25,1.29,86.9,86.9,0,0,1,10.88,60,2.2,2.2,0,0,1-2.1,1.95c-1.63.12-30.64,0-31.69,0a2.92,2.92,0,0,1-2.95-3.4,81.12,81.12,0,0,0-10.33-55.79,2.69,2.69,0,0,1,2.43-4C120.88,277.85,149.7,277.9,151.55,277.87Z" style="fill:#407BFF"></path><path d="M151.55,277.87a2.5,2.5,0,0,1,2.25,1.29,86.9,86.9,0,0,1,10.88,60,2.2,2.2,0,0,1-2.1,1.95c-1.63.12-30.64,0-31.69,0a2.92,2.92,0,0,1-2.95-3.4,81.12,81.12,0,0,0-10.33-55.79,2.69,2.69,0,0,1,2.43-4C120.88,277.85,149.7,277.9,151.55,277.87Z" style="opacity:0.2"></path><path d="M127.94,337.69a81.12,81.12,0,0,0-10.33-55.79c-1.81-3,2.88-5.73,4.68-2.74a86.9,86.9,0,0,1,10.88,60c-.62,3.43-5.85,2-5.23-1.44Z" style="fill:#407BFF"></path><g style="opacity:0.1"><path d="M127.94,337.69a81.12,81.12,0,0,0-10.33-55.79c-1.81-3,2.88-5.73,4.68-2.74a86.9,86.9,0,0,1,10.88,60c-.62,3.43-5.85,2-5.23-1.44Z" style="fill:#fff"></path></g><path d="M218.42,336.12a91.36,91.36,0,0,0-20.34-2.8c-7.06-.18-33.5,0-39.78,0a91.56,91.56,0,0,0-22.7,2.83c-4.66,1.19-3.22,7.91,1,8,.37,0,80.29,0,80.58,0C221.58,344.31,223.18,337.33,218.42,336.12Z" style="fill:#407BFF"></path><path d="M218.42,336.12a91.36,91.36,0,0,0-20.34-2.8c-7.06-.18-33.5,0-39.78,0a91.56,91.56,0,0,0-22.7,2.83c-4.66,1.19-3.22,7.91,1,8,.37,0,80.29,0,80.58,0C221.58,344.31,223.18,337.33,218.42,336.12Z" style="opacity:0.30000000000000004"></path><path d="M137.77,344a83.25,83.25,0,0,1,41.07,0c5.07,1.29,7.24-6.56,2.16-7.85a92.3,92.3,0,0,0-45.4,0c-5.07,1.29-2.92,9.14,2.17,7.85Z" style="fill:#407BFF"></path><g style="opacity:0.30000000000000004"><path d="M137.77,344a83.25,83.25,0,0,1,41.07,0c5.07,1.29,7.24-6.56,2.16-7.85a92.3,92.3,0,0,0-45.4,0c-5.07,1.29-2.92,9.14,2.17,7.85Z" style="fill:#fff"></path></g><rect x="151.46" y="304.54" width="35.8" height="14.35" style="fill:#263238"></rect><rect x="151.46" y="304.54" width="35.8" height="14.35" style="fill:#fff;opacity:0.2"></rect><polygon points="206.53 380.74 201.82 401.25 207.67 403.51 216.09 382.89 206.53 380.74" style="fill:#b55b52"></polygon><path d="M207.33,402.17,202,399.33a.56.56,0,0,0-.69.13l-3.8,4.39a.93.93,0,0,0,.09,1.31,1,1,0,0,0,.16.12c2.23,1.15,4.26,2.08,7,3.57,3.24,1.75,2.21,1.69,6,3.8,2.28,1.27,4.11-1.12,3.2-1.77-4.16-3-4.71-5-5.57-7.54A2.26,2.26,0,0,0,207.33,402.17Z" style="fill:#263238"></path><path d="M159.13,317.12l28.72-1.58s47.71,7.46,47,20.8-20.13,55.4-20.13,55.4l-11.39-3.16s8.68-42.29,14.33-49.3c0,0-35.63-4.18-44.55-6.56C168.25,331.42,156.42,333.63,159.13,317.12Z" style="fill:#263238"></path><path d="M159.13,317.12l28.72-1.58s47.71,7.46,47,20.8-20.13,55.4-20.13,55.4l-11.39-3.16s8.68-42.29,14.33-49.3c0,0-35.63-4.18-44.55-6.56C168.25,331.42,156.42,333.63,159.13,317.12Z" style="fill:#fff;opacity:0.2"></path><path d="M212.88,338.7a25.57,25.57,0,0,0-2.19-11.52c-2.65-6-24.49-9.58-34.94-11l-16.62.91c-2.71,16.51,9.12,14.3,14,15.6C180,334.56,202.84,337.47,212.88,338.7Z" style="opacity:0.2"></path><polygon points="187.02 386.39 186.27 407.42 192.6 407.72 196.81 386.69 187.02 386.39" style="fill:#b55b52"></polygon><path d="M192.15,405.81l-6.14.13a.57.57,0,0,0-.55.45l-1.17,5.79a1,1,0,0,0,.73,1.13l.2,0c2.56-.09,4.82-.28,8-.33,3.76-.07,2.81.4,7.23.38,2.66,0,3.09-3,2-3.17-5.17-.56-6.69-2.1-8.71-3.91A2.3,2.3,0,0,0,192.15,405.81Z" style="fill:#263238"></path><polygon points="202.47 386.09 216.8 390.08 214.18 395.59 201.12 392.34 202.47 386.09" style="fill:#263238"></polygon><polygon points="202.47 386.09 216.8 390.08 214.18 395.59 201.12 392.34 202.47 386.09" style="opacity:0"></polygon><path d="M166.82,317.12s38.44,1.36,40.7,13.12-10.62,64.44-10.62,64.44H185.36s1.36-47.26,5.21-57.21c0,0-31.66,5-40-2.21-6-5.13,1.13-18.14,1.13-18.14Z" style="fill:#263238"></path><path d="M166.82,317.12s38.44,1.36,40.7,13.12-10.62,64.44-10.62,64.44H185.36s1.36-47.26,5.21-57.21c0,0-31.66,5-40-2.21-6-5.13,1.13-18.14,1.13-18.14Z" style="fill:#fff;opacity:0.2"></path><polygon points="184.23 391.74 198.71 392.42 197.35 398.19 184.23 397.51 184.23 391.74" style="fill:#263238"></polygon><polygon points="184.23 391.74 198.71 392.42 197.35 398.19 184.23 397.51 184.23 391.74" style="opacity:0"></polygon><path d="M217.89,272.53l6.16-2.3-5.25-5.07s-5.37,2.39-4,5.11Z" style="fill:#b55b52"></path><polygon points="228.08 265.11 222.09 262.29 218.8 265.17 224.05 270.23 228.08 265.11" style="fill:#b55b52"></polygon><polygon points="210.06 272.8 213.69 268.85 218.54 272.98 214.61 277.63 210.06 272.8" style="fill:#407BFF"></polygon><polygon points="210.06 272.8 213.69 268.85 218.54 272.98 214.61 277.63 210.06 272.8" style="fill:#fff;opacity:0.8"></polygon><path d="M185.47,248.48s3.79,4.3,9.26,18.39,11.53,10,18.18,2.38l5.47,5S208.16,287,201.72,287c-7.16,0-14.11-11.11-15.51-18.86S185.47,248.48,185.47,248.48Z" style="fill:#263238"></path><path d="M186.81,256.62l-2-1.7-1,5.42c.14,1.57.32,3.11.57,4.5.8,4.43,3.8,10.23,7,15.05A180.29,180.29,0,0,0,186.81,256.62Z" style="opacity:0.4"></path><path d="M147.92,290.41l.57,29.34,21.6.73c2.82,0,3.48-1.88,4.07-4l1.06-3.83.94,3.46c.57,2.12,3.53,2.47,5.67,2l9.41-2.33-2.16-28.89s1.45-21.76-2-35.69a7.47,7.47,0,0,0-5.72-5.14,57.09,57.09,0,0,0-33.77,2.56,3.24,3.24,0,0,0-2,3.4Z" style="fill:#263238"></path><path d="M174.71,278a.9.9,0,1,1-.9-.9A.9.9,0,0,1,174.71,278Z" style="opacity:0.5"></path><path d="M175.59,290.41a.9.9,0,1,1-.9-.9A.9.9,0,0,1,175.59,290.41Z" style="opacity:0.5"></path><path d="M176,302.69a.9.9,0,1,1-.89-.9A.9.9,0,0,1,176,302.69Z" style="opacity:0.5"></path><path d="M160.26,244.26a19.08,19.08,0,0,1,10.75-.75l2.21,1.26.77,2.45-2.79,2.19-6.6.68-5.45-2.26.3-2.42Z" style="fill:#263238"></path><path d="M172.34,245.53c-2.19-.59-3.74-4.4-1.94-6.85l-9.56-7.4c1.4,13.35.71,10.92-1.27,14.76,0,0,1.37,4.45,9.08,3.07C173.65,248.21,172.34,245.53,172.34,245.53Z" style="fill:#b55b52"></path><path d="M170.4,238.68l-9.62-7.13c.24,1.88.27,1.89.4,3.25,1,2.07,3.08,7.33,8.51,7.49C169.45,241.34,169.72,239.28,170.4,238.68Z" style="opacity:0.2"></path><polygon points="159.7 252.58 162.33 261.13 168.43 269.94 173.44 275.15 175.31 267.52 174.71 251.59 174.61 248.15 173.21 246.18 170.99 248.13 169.09 248.86 166.31 248.89 159.02 246.67 159.7 252.58" style="fill:#407BFF"></polygon><polygon points="159.7 252.58 162.33 261.13 168.43 269.94 173.44 275.15 175.31 267.52 174.71 251.59 174.61 248.15 173.21 246.18 170.99 248.13 169.09 248.86 166.31 248.89 159.02 246.67 159.7 252.58" style="fill:#407BFF;opacity:0.8"></polygon><polygon points="159.7 252.58 162.33 261.13 168.43 269.94 173.44 275.15 175.31 267.52 174.71 251.59 174.61 248.15 173.21 246.18 170.99 248.13 169.09 248.86 166.31 248.89 159.02 246.67 159.7 252.58" style="fill:#fff;opacity:0.5"></polygon><path d="M165.59,251.59a11.66,11.66,0,0,0,2.84,3.62s-1.22,8.72.66,14.82l4.35,5.12,1.27-6.33s-2-10.12-4.56-13.95a16.11,16.11,0,0,0,1.45-4.18L170,249.41s-2.17,1.55-3.47.47Z" style="fill:#407BFF"></path><path d="M159.53,245.05s4,3.43,8.07,3.43,4.49-4.22,4.49-4.22l1.7,1.84a12,12,0,0,1-1.39,6.15l-4.21-2.85-2.86,4.12a17.27,17.27,0,0,1-6.67-6Z" style="fill:#407BFF"></path><path d="M159.53,245.05s4,3.43,8.07,3.43,4.49-4.22,4.49-4.22l1.7,1.84a12,12,0,0,1-1.39,6.15l-4.21-2.85-2.86,4.12a17.27,17.27,0,0,1-6.67-6Z" style="fill:#fff;opacity:0.8"></path><path d="M160.26,244.26s-3.3,10.17,13,29.57c0,0,2.92-23.77-2.2-30.32l3.56,1.41,3.7,5.59-2.71,1.74,3.35,1.49s-.48,7.71-5.2,22.53c0,0-10.68-8.26-17.66-19.41l3.25-2.59-4.34-.69,1.93-7.72Z" style="fill:#263238"></path><path d="M160.26,244.26s-3.3,10.17,13,29.57c0,0,2.92-23.77-2.2-30.32l3.56,1.41,3.7,5.59-2.71,1.74,3.35,1.49s-.48,7.71-5.2,22.53c0,0-10.68-8.26-17.66-19.41l3.25-2.59-4.34-.69,1.93-7.72Z" style="opacity:0.30000000000000004"></path><path d="M146.05,254.87l4.23,23.57.49-.61a58.06,58.06,0,0,0-.92-23.66l-1.28.69Z" style="opacity:0.4"></path><path d="M173,213.18s4.6,8.51,1.06,13.69-9.55-11.59-9.55-11.59Z" style="fill:#263238"></path><path d="M177,231.69a8.61,8.61,0,0,1-.12,1,9.68,9.68,0,0,1-3.68,6.1,8.88,8.88,0,0,1-6.15,1.84,8.71,8.71,0,0,1-4.37-1.64c-4-2.85-4.66-6.86-6.26-13.55a9.41,9.41,0,0,1,11.14-11.53C174.71,215.45,177.42,225.34,177,231.69Z" style="fill:#b55b52"></path><path d="M167.07,225.53c.06.55.47.95.83.88s.58-.57.48-1.12-.47-.94-.83-.88S167,225,167.07,225.53Z" style="fill:#263238"></path><path d="M173.31,224.43c.06.55.47.94.83.88s.57-.57.48-1.12-.48-.94-.84-.88S173.22,223.9,173.31,224.43Z" style="fill:#263238"></path><path d="M171.38,225.05a19.94,19.94,0,0,0,3.46,4.25,3.22,3.22,0,0,1-2.56,1Z" style="fill:#a02724"></path><path d="M175.15,221.36a.38.38,0,0,1-.34,0,2.64,2.64,0,0,0-2.37.14.33.33,0,0,1-.38-.54h0a3.26,3.26,0,0,1,3-.21.32.32,0,0,1,.19.42h0A1,1,0,0,1,175.15,221.36Z" style="fill:#263238"></path><path d="M165.4,223.26a.29.29,0,0,1-.24-.49h0a3.27,3.27,0,0,1,2.74-1.24.31.31,0,0,1,.28.36h0a.33.33,0,0,1-.36.29h0a2.67,2.67,0,0,0-2.15,1A.36.36,0,0,1,165.4,223.26Z" style="fill:#263238"></path><path d="M159.93,216.13l1,2.87a2.26,2.26,0,0,0-.48,3c1.52,2.27,1,6.45-.58,8.42,0,0-.3-1.07-1.15-.61s.67,6,3.05,8.29c0,0-3.23-1.81-6.08-7.36-2.64-5.12-3.84-9.62-3.2-12Z" style="fill:#263238"></path><path d="M154.49,231.53a6.53,6.53,0,0,0,4.27,2.61c2.27.34,3.12-1.76,2.26-3.76-.79-1.77-2.91-4.14-5.08-3.54A2.91,2.91,0,0,0,154.49,231.53Z" style="fill:#b55b52"></path><path d="M152.36,220.24s-1.57-3.72,3.89-8.09,12.92-2.34,16.44-5.84,6,7.22-2.48,10.32A70.77,70.77,0,0,1,152.36,220.24Z" style="fill:#263238"></path><path d="M172.16,232.27a20.75,20.75,0,0,0-1.68,2.46l-.49-.19c-2.21-.88-2.94-2-3.09-3a3.41,3.41,0,0,1,.53-2.18,11.17,11.17,0,0,0,4,2.6A7.82,7.82,0,0,0,172.16,232.27Z" style="fill:#263238"></path><path d="M171.41,232l-.52.71c-2.07-.82-3.42-1.68-3.82-2.57a3,3,0,0,1,.36-.74A11.17,11.17,0,0,0,171.41,232Z" style="fill:#fff"></path><path d="M170,234.54c-2.21-.88-2.94-2-3.09-3a7.54,7.54,0,0,1,2.26,1.45A2.9,2.9,0,0,1,170,234.54Z" style="fill:#a02724"></path><path d="M133.2,281c1,2.24,2.84,2.46,4.69,1.54a12,12,0,0,0,4.14-3.85c.84-1.21,2-3,3.13-4.95,2.47-4.15,5.05-8.76,5.05-8.76a9.48,9.48,0,0,0,1.7-8.31c-1.49-4.45-3.33-7-5.16-7.24C141.77,251.8,131.33,277,133.2,281Z" style="fill:#263238"></path><path d="M137.89,282.52a12,12,0,0,0,4.14-3.85c.84-1.21,2-3,3.13-4.95a47.15,47.15,0,0,0-2.94-4.67l-2.51,7.08s-4.42,1-5.12,3.31C134.33,280.31,135.83,281.55,137.89,282.52Z" style="isolation:isolate;opacity:0.2"></path><path d="M138,262.3l8.34,31.78a1.63,1.63,0,0,0,1.74,1.17l22.13-2.95a1.2,1.2,0,0,0,1-1.53L162.94,259a1.63,1.63,0,0,0-1.74-1.16l-22.13,2.94A1.21,1.21,0,0,0,138,262.3Z" style="fill:#263238"></path><path d="M138,262.3l8.34,31.78a1.63,1.63,0,0,0,1.74,1.17l21.12-2.81a1.21,1.21,0,0,0,1-1.54l-8.34-31.78a1.62,1.62,0,0,0-1.74-1.17l-21.12,2.81A1.21,1.21,0,0,0,138,262.3Z" style="fill:#fff;opacity:0.4"></path><path d="M153.4,274.42a2.32,2.32,0,0,1,2.49,1.67,1.73,1.73,0,0,1-1.48,2.21,2.35,2.35,0,0,1-2.5-1.68A1.73,1.73,0,0,0,153.4,274.42Z" style="fill:#fff;opacity:0.30000000000000004"></path><path d="M136.24,288.47c1.5.79,4.86-.41,5.88-.81l.32-.12s1.83-6-2.95-9.23a.39.39,0,0,0-.11-.06c-1.52-.82-6.24.23-6.38,1.83C132.43,286.47,134.47,287.54,136.24,288.47Z" style="fill:#263238"></path><path d="M139.16,283.35a7.6,7.6,0,0,0,3,4.31l.32-.12s1.83-6-2.95-9.23a.39.39,0,0,0-.11-.06C139,278.79,138.31,280.21,139.16,283.35Z" style="isolation:isolate;opacity:0.2"></path><path d="M146.05,275.76s-3.07-.13-4.48,0-1,4.67-1,4.67l-1.21.66s-1,2.67,1.12,4l1.09-.37a3,3,0,0,0,1.17,1.6c.87.54,5.15-.67,5.15-.67Z" style="fill:#b55b52"></path></g><g id="freepik--Table--inject-221"><path d="M225.74,295.25a1,1,0,0,0,0-2H197.85a1,1,0,0,0,0,2Z" style="fill:#407BFF"></path><path d="M225.74,295.25a1,1,0,0,0,0-2H197.85a1,1,0,0,0,0,2Z" style="fill:#fff;opacity:0.5"></path><path d="M223.37,293.48l3.71-26.41a2.1,2.1,0,0,1,2-1.76h3.56v29.93h-7.77A1.49,1.49,0,0,1,223.37,293.48Z" style="fill:#407BFF"></path><path d="M223.37,293.48l3.71-26.41a2.1,2.1,0,0,1,2-1.76h3.56v29.93h-7.77A1.49,1.49,0,0,1,223.37,293.48Z" style="fill:#fff;opacity:0.6000000000000001"></path><path d="M226.42,295.24H258a2.1,2.1,0,0,0,2-1.76l3.71-26.41a1.5,1.5,0,0,0-1.51-1.76H230.62a2.08,2.08,0,0,0-2,1.76l-3.72,26.41A1.5,1.5,0,0,0,226.42,295.24Z" style="fill:#407BFF"></path><path d="M226.42,295.24H258a2.1,2.1,0,0,0,2-1.76l3.71-26.41a1.5,1.5,0,0,0-1.51-1.76H230.62a2.08,2.08,0,0,0-2,1.76l-3.72,26.41A1.5,1.5,0,0,0,226.42,295.24Z" style="fill:#fff;opacity:0.5"></path><path d="M241.67,281.64a2.3,2.3,0,0,0,2.33,2.71,3.24,3.24,0,0,0,3.1-2.71,2.31,2.31,0,0,0-2.34-2.71A3.22,3.22,0,0,0,241.67,281.64Z" style="fill:#fff;opacity:0.7000000000000001"></path><polygon points="129.41 413.95 132.03 413.95 135.39 301.78 131.94 301.78 129.41 413.95" style="fill:#263238"></polygon><polygon points="129.41 413.95 132.03 413.95 135.39 301.78 131.94 301.78 129.41 413.95" style="fill:#fff;opacity:0.6000000000000001"></polygon><polygon points="171.57 301.78 171.57 413.95 168.8 413.95 165.54 306.9 132.16 306.9 129.72 413.95 126.98 413.95 126.98 301.78 171.57 301.78" style="fill:#263238"></polygon><polygon points="171.57 301.78 171.57 413.95 168.8 413.95 165.54 306.9 132.16 306.9 129.72 413.95 126.98 413.95 126.98 301.78 171.57 301.78" style="fill:#fff;opacity:0.4"></polygon><polygon points="171.57 413.95 174.18 413.95 175.02 301.78 171.57 301.78 171.57 413.95" style="fill:#263238"></polygon><polygon points="171.57 413.95 174.18 413.95 175.02 301.78 171.57 301.78 171.57 413.95" style="fill:#fff;opacity:0.6000000000000001"></polygon><polygon points="271.31 413.95 273.92 413.95 277.29 301.78 273.83 301.78 271.31 413.95" style="fill:#263238"></polygon><polygon points="271.31 413.95 273.92 413.95 277.29 301.78 273.83 301.78 271.31 413.95" style="fill:#fff;opacity:0.6000000000000001"></polygon><polygon points="313.46 301.78 313.46 413.95 310.7 413.95 307.44 306.9 274.06 306.9 271.62 413.95 268.88 413.95 268.88 301.78 313.46 301.78" style="fill:#263238"></polygon><polygon points="313.46 301.78 313.46 413.95 310.7 413.95 307.44 306.9 274.06 306.9 271.62 413.95 268.88 413.95 268.88 301.78 313.46 301.78" style="fill:#fff;opacity:0.4"></polygon><polygon points="313.46 413.95 316.08 413.95 316.92 301.78 313.46 301.78 313.46 413.95" style="fill:#263238"></polygon><polygon points="313.46 413.95 316.08 413.95 316.92 301.78 313.46 301.78 313.46 413.95" style="fill:#fff;opacity:0.6000000000000001"></polygon><rect x="173.72" y="295.33" width="147.77" height="6.45" transform="translate(495.22 597.1) rotate(180)" style="fill:#263238"></rect><rect x="173.72" y="295.33" width="147.77" height="6.45" transform="translate(495.22 597.1) rotate(180)" style="fill:#fff;opacity:0.5"></rect><rect x="122.4" y="295.33" width="55.34" height="6.45" transform="translate(300.14 597.1) rotate(180)" style="fill:#263238"></rect><rect x="122.4" y="295.33" width="55.34" height="6.45" transform="translate(300.14 597.1) rotate(180)" style="fill:#fff;opacity:0.30000000000000004"></rect></g><g id="freepik--character-2--inject-221"><path d="M293,258.26l2.55-4.63L299,258.4s-2.52,4-4.52,2.61Z" style="fill:#e4897b"></path><polygon points="300.1 251.03 301.65 256.12 298.98 258.4 295.56 253.63 300.1 251.03" style="fill:#e4897b"></polygon><path d="M296.81,252.92A14.45,14.45,0,0,0,299,258.4l.56-.48-1.76-5.56Z" style="opacity:0.2"></path><polygon points="292.38 267.25 293.02 258.26 296.4 258.91 296.4 267.95 292.38 267.25" style="fill:#e4897b"></polygon><polygon points="248.9 376.03 254.07 378.05 257.78 371.05 261.16 364.69 255.43 361.25 251.97 369.07 248.9 376.03" style="fill:#e4897b"></polygon><polygon points="251.97 369.07 257.78 371.05 261.16 364.69 255.43 361.25 251.97 369.07" style="isolation:isolate;opacity:0.2"></polygon><path d="M253.05,365.25l7,3.77s26.55-46.67,30.63-46.28,42.8,25.07,54.61,15.95.32-36.55.32-36.55-24.43-7-27.08-1.61a41,41,0,0,0-1.75,4.9c-.52,1.68-.91,3.1-.91,3.1h0c-.74-.3-24.87-10.19-35.64-4.89C269.29,309,253.05,365.25,253.05,365.25Z" style="fill:#263238"></path><path d="M253.05,365.25l7,3.77s26.55-46.67,30.63-46.28,42.8,25.07,54.61,15.95.32-36.55.32-36.55-24.43-7-27.08-1.61a41,41,0,0,0-1.75,4.9c-.52,1.68-.91,3.1-.91,3.1h0c-.74-.3-24.87-10.19-35.64-4.89C269.29,309,253.05,365.25,253.05,365.25Z" style="fill:#fff;isolation:isolate;opacity:0.30000000000000004"></path><polygon points="291.21 403.31 296.72 402.68 296.74 394.91 296.75 387.78 290.09 387.46 290.68 395.86 291.21 403.31" style="fill:#e4897b"></polygon><polygon points="290.7 396.02 296.76 395.06 296.76 387.85 290.1 387.5 290.7 396.02" style="isolation:isolate;opacity:0.2"></polygon><polygon points="263.51 366.7 253.23 361.56 252.16 365.91 259.94 369.93 263.51 366.7" style="fill:#263238"></polygon><path d="M327.07,338.77s-1.69-.2-27.66-5c0,0-.59,33.22-1.82,58l-8,.26S278.12,337,279.47,328.75s11.22-9.42,11.22-9.42S307.83,332.65,327.07,338.77Z" style="fill:#263238"></path><path d="M327.07,338.77s-1.69-.2-27.66-5c0,0-.59,33.22-1.82,58l-8,.26S278.12,337,279.47,328.75s11.22-9.42,11.22-9.42S307.83,332.65,327.07,338.77Z" style="fill:#fff;isolation:isolate;opacity:0.4"></path><path d="M327.07,338.77s-1.69-.2-27.66-5c0,0-.59,33.22-1.82,58l-8,.26S278.12,337,279.47,328.75s11.22-9.42,11.22-9.42S307.83,332.65,327.07,338.77Z" style="isolation:isolate;opacity:0.30000000000000004"></path><polygon points="299.06 389.51 288.15 389.26 289.64 393.76 298.49 393.84 299.06 389.51" style="fill:#263238"></polygon><path d="M238.64,385.19a7,7,0,0,1,2.66-.3s3.34-1.4,7.36-8l3.44.46c1.69.22,4,2.16,3.58,3.74-.78,3.33-3.46,6.16-4.89,9.25l-.56-.23,1.76-5c.59-1.7-1.47-.27-2.56,1.38s-2.64,3.22-6.31,1.84C238.84,386.67,237.14,385.79,238.64,385.19Z" style="fill:#263238"></path><path d="M249.54,375.1s-5.53,8.39-8.24,9.79c0,0,3,2.43,7.1-1.5,5.24-5.07,6.13-4.83,6.13-4.83a5,5,0,0,0-.15-1.47C254,375.16,249.54,375.1,249.54,375.1Z" style="fill:#e4897b"></path><path d="M283,413.08a7.28,7.28,0,0,1,2.52-.92s2.9-2.15,5.24-9.54l3.45-.38c2.84-.31,4.52,1.38,4.38,3.43,0,2.61-2.57,9.5-2.57,9.5l-.6-.08.53-5.26c.17-1.79-1.49.09-2.16,1.94s-1.8,3.77-5.7,3.29C283.51,414.48,281.66,414,283,413.08Z" style="fill:#263238"></path><path d="M291.17,400.7s-3.38,9.46-5.68,11.46c0,0,3.53,1.64,6.53-3.14,3.89-6.17,5.45-6,5.45-6a6.07,6.07,0,0,1-1.13-1.58C295.47,399.71,291.17,400.7,291.17,400.7Z" style="fill:#e4897b"></path><path d="M300.28,244.29a.24.24,0,0,1-.21-.11,3.26,3.26,0,0,0-2.58-1.2h0a.26.26,0,0,1-.25-.24.26.26,0,0,1,.25-.26,3.72,3.72,0,0,1,3,1.43.24.24,0,0,1-.07.34A.22.22,0,0,1,300.28,244.29Z" style="fill:#263238"></path><path d="M298.32,247.26a14.16,14.16,0,0,1-2.24,2.57,1.85,1.85,0,0,0,1.69.94Z" style="fill:#de5753"></path><path d="M297.35,245.31c-.07.54.17,1,.53,1.07s.72-.36.79-.91-.17-1-.53-1.07S297.42,244.76,297.35,245.31Z" style="fill:#263238"></path><path d="M298.28,244.45l-1.13-.62S297.62,244.9,298.28,244.45Z" style="fill:#263238"></path><path d="M311.56,258.42a1.07,1.07,0,0,1-.22.15,9.92,9.92,0,0,1-3.59,1.55c-3.76.67-6.27,0-7.84-1.72h0c-2.19-2.63-2.55-7.12-2-12.49a20.08,20.08,0,0,1,1.48-6.22s0-.08,0-.1.07-.16.1-.22a7.33,7.33,0,0,1,5.62-4.22,14.53,14.53,0,0,1,3.2-.21C318.86,235.35,319.9,252.82,311.56,258.42Z" style="fill:#e4897b"></path><path d="M311.34,258.57a9.7,9.7,0,0,1-3.59,1.4c-3.75.68-6.25-.08-7.83-1.86a10.53,10.53,0,0,0,6.69-.22A5.47,5.47,0,0,1,311.34,258.57Z" style="isolation:isolate;opacity:0.2"></path><path d="M299.42,239.62s-.94,7.33,5.88,10.83c0,0,2.62,7.79,7,8.11,6,.44,11.72-7.85,10.07-16.66C320.24,230.47,303.17,228.72,299.42,239.62Z" style="fill:#263238"></path><path d="M301.87,248.16c.06-1.15,1.08-3,2.85-2.68s2.63,5-2,5.76C302.11,251.35,301.75,250.56,301.87,248.16Z" style="fill:#e4897b"></path><path d="M312.62,232.42s-6.94-2.12-11,.51c-4.69,3.08-6.58,6.41-1.47,12,0,0,12-3.24,15.86-2.24a42.07,42.07,0,0,1,6.62,2.28C323.88,237.18,316.61,231,312.62,232.42Z" style="fill:#263238"></path><path d="M306,259.4s5.16,2.52,3.65,8.05L322.8,262s-7.17-.45-6.81-5.49C316,256.49,308.49,253.61,306,259.4Z" style="fill:#e4897b"></path><path d="M320.15,242s2.6-7.47,8.48-6.18,5.44,7.61,1.23,9.56S319.75,246.58,320.15,242Z" style="fill:#263238"></path><path d="M327.1,245.61s5.22,0,4.58,4.44a3.79,3.79,0,0,0-1.63-2.05s1.58,1.21,0,3.31c0,0,.63-1.37-1.52-2.32s-8.07-.86-7-3.78S327.1,245.61,327.1,245.61Z" style="fill:#263238"></path><path d="M321.9,261.61l-3.21-2.3s-10.53,1.42-10.64,8.14S321.9,261.61,321.9,261.61Z" style="fill:#407BFF"></path><path d="M315.89,308.53l10,5a22.72,22.72,0,0,0-9.13-8.14C316.28,307.11,315.89,308.53,315.89,308.53Z" style="isolation:isolate;opacity:0.2"></path><path d="M323.82,261.61s-7.9-1.52-18.89,5.84c0,0-3.68,16.1,11.87,38l29.5-1.85S338.31,271.34,323.82,261.61Z" style="fill:#263238"></path><path d="M305.82,282.29A54.26,54.26,0,0,0,307.9,289a72.07,72.07,0,0,0,8.9,16.42l29.5-1.85s-8-32.23-22.48-42c0,0-7.89-1.51-18.9,5.84C304.92,267.45,303.63,273.12,305.82,282.29Z" style="fill:#fff;isolation:isolate;opacity:0.1"></path><path d="M305.82,282.29A54.26,54.26,0,0,0,307.9,289a83,83,0,0,1,1.49-8.64C308.63,280.45,306.41,282,305.82,282.29Z" style="isolation:isolate;opacity:0.2"></path><path d="M313.26,273.18c-5.22,9.41-10.74,18.65-16.38,27.82a4.53,4.53,0,0,1-8.36-2.66c.38-6,.85-12.06,1.37-18.1s1.14-12.06,1.92-18.08a2.49,2.49,0,0,1,4.95.17c.73,12.09.89,24.21.87,36.32l-8.51-2.41c3.71-7.09,7.55-14.11,11.46-21.08,1.33-2.31,2.62-4.64,4-6.93,3.48-5.47,11.61-.83,8.69,4.95Z" style="fill:#263238"></path><path d="M313.26,273.18c-5.22,9.41-10.74,18.65-16.38,27.82a4.53,4.53,0,0,1-8.36-2.66c.38-6,.85-12.06,1.37-18.1s1.14-12.06,1.92-18.08a2.49,2.49,0,0,1,4.95.17c.73,12.09.89,24.21.87,36.32l-8.51-2.41c3.71-7.09,7.55-14.11,11.46-21.08,1.33-2.31,2.62-4.64,4-6.93,3.48-5.47,11.61-.83,8.69,4.95Z" style="fill:#fff;opacity:0.1"></path><polygon points="297.6 280.14 295.07 284.69 297.36 274.45 297.6 280.14" style="opacity:0.2"></polygon><path d="M367.21,414.4,342,405.12l-25.48,9.29a1.35,1.35,0,0,1-1.81-1.26h0a1.36,1.36,0,0,1,.78-1.23L342,399.62l26.25,12.3a1.35,1.35,0,0,1,.77,1.22h0A1.34,1.34,0,0,1,367.21,414.4Z" style="fill:#263238"></path><path d="M367.21,414.4,342,405.12l-25.48,9.29a1.35,1.35,0,0,1-1.81-1.26h0a1.36,1.36,0,0,1,.78-1.23L342,399.62l26.25,12.3a1.35,1.35,0,0,1,.77,1.22h0A1.34,1.34,0,0,1,367.21,414.4Z" style="fill:#fff;opacity:0.30000000000000004"></path><polygon points="336.06 407.29 342 405.12 347.67 407.21 347.67 402.28 342 399.62 336.06 402.38 336.06 407.29" style="opacity:0.2"></polygon><path d="M341.87,414.62h0a2.24,2.24,0,0,1-2.23-2l-.71-7.47v-62h5.88v62l-.71,7.47A2.25,2.25,0,0,1,341.87,414.62Z" style="fill:#263238"></path><path d="M341.87,414.62h0a2.24,2.24,0,0,1-2.23-2l-.71-7.47v-62h5.88v62l-.71,7.47A2.25,2.25,0,0,1,341.87,414.62Z" style="fill:#fff;opacity:0.30000000000000004"></path><rect x="338.93" y="343.11" width="5.88" height="7.22" style="opacity:0.2"></rect><path d="M382.76,337.46a91.36,91.36,0,0,0-20.34-2.8c-7.06-.18-33.5,0-39.78,0a92,92,0,0,0-22.7,2.83c-4.66,1.19-3.22,7.92,1,8h80.58C385.92,345.65,387.52,338.68,382.76,337.46Z" style="fill:#407BFF"></path><path d="M382.76,337.46a91.36,91.36,0,0,0-20.34-2.8c-7.06-.18-33.5,0-39.78,0a92,92,0,0,0-22.7,2.83c-4.66,1.19-3.22,7.92,1,8h80.58C385.92,345.65,387.52,338.68,382.76,337.46Z" style="opacity:0.30000000000000004"></path><path d="M302.1,345.31a83.52,83.52,0,0,1,41.08,0c5.07,1.3,7.24-6.55,2.16-7.85a92.3,92.3,0,0,0-45.4,0c-5.07,1.29-2.92,9.15,2.16,7.85Z" style="fill:#407BFF"></path><g style="opacity:0.30000000000000004"><path d="M302.1,345.31a83.52,83.52,0,0,1,41.08,0c5.07,1.3,7.24-6.55,2.16-7.85a92.3,92.3,0,0,0-45.4,0c-5.07,1.29-2.92,9.15,2.16,7.85Z" style="fill:#fff"></path></g><path d="M361.38,279.21a2.49,2.49,0,0,0-2.24,1.3,86.82,86.82,0,0,0-10.88,60,2.21,2.21,0,0,0,2.09,2c1.63.11,30.65,0,31.7,0A2.92,2.92,0,0,0,385,339a81.11,81.11,0,0,1,10.33-55.78,2.7,2.7,0,0,0-2.44-4C392.05,279.2,363.23,279.25,361.38,279.21Z" style="fill:#407BFF"></path><path d="M361.38,279.21a2.49,2.49,0,0,0-2.24,1.3,86.82,86.82,0,0,0-10.88,60,2.21,2.21,0,0,0,2.09,2c1.63.11,30.65,0,31.7,0A2.92,2.92,0,0,0,385,339a81.11,81.11,0,0,1,10.33-55.78,2.7,2.7,0,0,0-2.44-4C392.05,279.2,363.23,279.25,361.38,279.21Z" style="opacity:0.2"></path><path d="M353.49,339a81.11,81.11,0,0,1,10.33-55.78c1.81-3-2.88-5.74-4.68-2.74a86.82,86.82,0,0,0-10.88,60c.62,3.44,5.85,2,5.23-1.44Z" style="fill:#407BFF"></path><g style="opacity:0.2"><path d="M353.49,339a81.11,81.11,0,0,1,10.33-55.78c1.81-3-2.88-5.74-4.68-2.74a86.82,86.82,0,0,0-10.88,60c.62,3.44,5.85,2,5.23-1.44Z" style="fill:#fff"></path></g></g><g id="freepik--chart-4--inject-221"><circle cx="335.05" cy="196.75" r="18.87" transform="matrix(0.98, -0.2, 0.2, 0.98, -32.1, 69.58)" style="fill:#263238"></circle><path d="M335.05,196.75l13.15,13.53a18.86,18.86,0,1,1-12.59-32.39Z" style="fill:#407BFF"></path><path d="M335.05,196.75l13.15,13.53a18.86,18.86,0,0,1-15.32,5.21Z" style="fill:#fff;opacity:0.5"></path><path d="M335.05,196.75l16.34,9.43a18.4,18.4,0,0,1-3,3.91,19,19,0,0,1-26.68,0,19.37,19.37,0,0,1-1.91-2.23Z" style="fill:#fff;opacity:0.4"></path><path d="M328,203.84a10,10,0,1,1,14.17,0A10,10,0,0,1,328,203.84Z" style="fill:#fff"></path><path d="M395,181.21h-24a.34.34,0,0,1,0-.68h24a.34.34,0,1,1,0,.68Z" style="fill:#263238"></path><path d="M390.9,189.15h-20a.34.34,0,0,1,0-.68h20a.34.34,0,0,1,0,.68Z" style="fill:#263238"></path><path d="M399.06,197.09H370.94a.34.34,0,0,1,0-.68h28.12a.34.34,0,1,1,0,.68Z" style="fill:#263238"></path><path d="M395,205h-24a.34.34,0,0,1-.34-.34.34.34,0,0,1,.34-.34h24a.34.34,0,0,1,.34.34A.34.34,0,0,1,395,205Z" style="fill:#263238"></path><path d="M396.34,213h-25.4a.34.34,0,0,1-.34-.34.34.34,0,0,1,.34-.34h25.4a.34.34,0,0,1,.34.34A.34.34,0,0,1,396.34,213Z" style="fill:#263238"></path><rect x="360.36" y="178.52" width="4.84" height="4.71" style="fill:#263238"></rect><rect x="360.36" y="186.46" width="4.84" height="4.71" style="fill:#263238"></rect><rect x="360.36" y="194.4" width="4.84" height="4.71" style="fill:#407BFF"></rect><rect x="360.36" y="202.34" width="4.84" height="4.71" style="fill:#407BFF"></rect><rect x="360.36" y="210.28" width="4.84" height="4.71" style="fill:#407BFF"></rect><rect x="360.36" y="186.46" width="4.84" height="4.71" style="fill:#fff;opacity:0.4"></rect><rect x="360.36" y="202.34" width="4.84" height="4.71" style="fill:#fff;opacity:0.4"></rect><rect x="360.36" y="210.28" width="4.84" height="4.71" style="fill:#fff;opacity:0.6000000000000001"></rect><path d="M401.17,223.12H314.86a8.44,8.44,0,0,1-8.43-8.43V176.28a8.44,8.44,0,0,1,8.43-8.43h86.31a8.44,8.44,0,0,1,8.43,8.43v38.41A8.44,8.44,0,0,1,401.17,223.12Zm-86.31-54.27a7.45,7.45,0,0,0-7.43,7.43v38.41a7.44,7.44,0,0,0,7.43,7.43h86.31a7.43,7.43,0,0,0,7.43-7.43V176.28a7.44,7.44,0,0,0-7.43-7.43Z" style="fill:#407BFF"></path></g><g id="freepik--chart-3--inject-221"><rect x="223.66" y="190.47" width="2.72" height="49.78" style="fill:#407BFF"></rect><rect x="223.66" y="190.47" width="2.72" height="49.78" style="isolation:isolate;opacity:0.2"></rect><rect x="228.18" y="201.52" width="2.72" height="38.73" style="fill:#263238"></rect><rect x="228.18" y="201.52" width="2.72" height="38.73" style="fill:#fff;opacity:0.4"></rect><rect x="214.62" y="219.95" width="2.72" height="20.3" style="fill:#407BFF"></rect><rect x="219.14" y="212.58" width="2.72" height="27.67" style="fill:#407BFF"></rect><rect x="232.7" y="197.84" width="2.72" height="42.41" style="fill:#263238"></rect><rect x="228.18" y="206.51" width="2.72" height="33.74" style="fill:#fff;opacity:0.4"></rect><rect x="232.7" y="204.44" width="2.72" height="35.81" style="fill:#fff;opacity:0.4"></rect><rect x="223.66" y="194.86" width="2.72" height="45.39" style="fill:#407BFF"></rect><rect x="219.14" y="222.4" width="2.72" height="17.85" style="fill:#fff;opacity:0.4"></rect><rect x="214.62" y="219.95" width="2.72" height="20.3" style="fill:#fff;opacity:0.2"></rect><rect x="214.62" y="224.57" width="2.72" height="15.68" style="fill:#fff;opacity:0.4"></rect><path d="M236.86,240.42H213.18a.17.17,0,1,1,0-.34h23.68a.17.17,0,0,1,0,.34Z" style="fill:#263238"></path><rect x="261.52" y="201.52" width="2.72" height="38.73" style="fill:#407BFF"></rect><rect x="261.52" y="201.52" width="2.72" height="38.73" style="isolation:isolate;opacity:0.2"></rect><rect x="266.04" y="202.59" width="2.72" height="37.66" style="fill:#263238"></rect><rect x="266.04" y="202.59" width="2.72" height="37.66" style="fill:#fff;opacity:0.4"></rect><rect x="252.48" y="209.01" width="2.72" height="31.24" style="fill:#407BFF"></rect><rect x="257" y="208.11" width="2.72" height="32.14" style="fill:#407BFF"></rect><rect x="270.56" y="212.11" width="2.72" height="28.14" style="fill:#263238"></rect><rect x="266.04" y="207.44" width="2.72" height="32.81" style="fill:#fff;opacity:0.4"></rect><rect x="270.56" y="216.49" width="2.72" height="23.76" style="fill:#fff;opacity:0.4"></rect><rect x="261.52" y="204.94" width="2.72" height="35.31" style="fill:#407BFF"></rect><rect x="257" y="213.7" width="2.72" height="26.55" style="fill:#fff;opacity:0.4"></rect><rect x="252.48" y="209.01" width="2.72" height="31.24" style="fill:#fff;opacity:0.2"></rect><rect x="252.48" y="216.12" width="2.72" height="24.13" style="fill:#fff;opacity:0.4"></rect><path d="M274.72,240.42H251a.17.17,0,1,1,0-.34h23.68a.17.17,0,0,1,0,.34Z" style="fill:#263238"></path><path d="M278.31,251.13H210.26a8.44,8.44,0,0,1-8.43-8.43V190.28a8.44,8.44,0,0,1,8.43-8.43h68.05a8.44,8.44,0,0,1,8.43,8.43V242.7A8.44,8.44,0,0,1,278.31,251.13Zm-68.05-68.28a7.45,7.45,0,0,0-7.43,7.43V242.7a7.44,7.44,0,0,0,7.43,7.43h68.05a7.44,7.44,0,0,0,7.43-7.43V190.28a7.45,7.45,0,0,0-7.43-7.43Z" style="fill:#407BFF"></path></g><g id="freepik--chart-2--inject-221"><g style="isolation:isolate;opacity:0.2"><polygon points="348.26 148.04 279.17 148.04 279.17 109.3 279.73 109.3 279.73 147.48 348.26 147.48 348.26 148.04"></polygon></g><rect x="282.79" y="141.61" width="2.99" height="5.6" style="isolation:isolate;opacity:0.2"></rect><rect x="282.79" y="141.61" width="2.99" height="1.63" style="fill:#407BFF"></rect><rect x="288.88" y="132.66" width="2.99" height="14.55" style="isolation:isolate;opacity:0.2"></rect><rect x="288.88" y="132.66" width="2.99" height="4.24" style="fill:#407BFF"></rect><rect x="294.98" y="136.01" width="2.99" height="11.19" style="isolation:isolate;opacity:0.2"></rect><rect x="294.98" y="136.01" width="2.99" height="3.26" style="fill:#407BFF"></rect><rect x="301.08" y="130.87" width="2.99" height="16.34" style="isolation:isolate;opacity:0.2"></rect><rect x="301.08" y="130.87" width="2.99" height="4.76" style="fill:#407BFF"></rect><rect x="307.17" y="126.12" width="2.99" height="21.08" style="isolation:isolate;opacity:0.2"></rect><rect x="307.17" y="126.12" width="2.99" height="6.14" style="fill:#407BFF"></rect><rect x="313.27" y="122.53" width="2.99" height="24.68" style="isolation:isolate;opacity:0.2"></rect><rect x="313.27" y="122.53" width="2.99" height="7.18" style="fill:#407BFF"></rect><rect x="319.37" y="126.68" width="2.99" height="20.52" style="isolation:isolate;opacity:0.2"></rect><rect x="319.37" y="126.68" width="2.99" height="5.98" style="fill:#407BFF"></rect><rect x="325.46" y="125.79" width="2.99" height="21.42" style="isolation:isolate;opacity:0.2"></rect><rect x="325.46" y="125.79" width="2.99" height="6.24" style="fill:#407BFF"></rect><rect x="331.56" y="120.32" width="2.99" height="26.88" style="isolation:isolate;opacity:0.2"></rect><rect x="331.56" y="120.32" width="2.99" height="7.83" style="fill:#407BFF"></rect><rect x="337.66" y="114.81" width="2.99" height="32.39" style="isolation:isolate;opacity:0.2"></rect><rect x="337.66" y="114.81" width="2.99" height="9.43" style="fill:#407BFF"></rect><rect x="343.76" y="110" width="2.99" height="37.21" style="isolation:isolate;opacity:0.2"></rect><rect x="343.76" y="110" width="2.99" height="10.83" style="fill:#407BFF"></rect><rect x="294.98" y="103.45" width="36.97" height="1.54" style="isolation:isolate;opacity:0.2"></rect><path d="M350.29,157.93H276.64a8.45,8.45,0,0,1-8.44-8.43V98.05a8.45,8.45,0,0,1,8.44-8.43h73.65a8.44,8.44,0,0,1,8.43,8.43V149.5A8.44,8.44,0,0,1,350.29,157.93ZM276.64,90.62a7.44,7.44,0,0,0-7.44,7.43V149.5a7.44,7.44,0,0,0,7.44,7.43h73.65a7.43,7.43,0,0,0,7.43-7.43V98.05a7.43,7.43,0,0,0-7.43-7.43Z" style="fill:#407BFF"></path></g><g id="freepik--chart-1--inject-221"><path d="M147.13,158.7s13-21.12,17.06-21.49S173,149.12,176.38,148s23.09-36.09,27.6-35.15,11.64,19.76,13.33,19.45,3.94-3.77,8.82,5.85A207,207,0,0,1,235,158.7Z" style="fill:#407BFF"></path><path d="M147.13,158.7s13-21.12,17.06-21.49S173,149.12,176.38,148s23.09-36.09,27.6-35.15,11.64,19.76,13.33,19.45,3.94-3.77,8.82,5.85A207,207,0,0,1,235,158.7Z" style="fill:#fff;opacity:0.4"></path><path d="M226.13,158.7s-16.51-36.24-21.77-37.88-12.4,14.42-16,17.28-9.34-10.47-11.69-10.66S163.61,148.29,160,148.1s-4.13-2.92-7.89-4.47-13.33,15.07-13.33,15.07Z" style="fill:#407BFF"></path><path d="M229.14,158.7s-8.09-13.61-11.28-16.8-7.7,8-10.9,8.4-15-22.29-18.4-24-10.32,18.4-13.61,18.77-10-12.16-13.61-12.84-19.91,26.45-19.91,26.45Z" style="fill:#263238"></path><path d="M229.14,158.7s-8.09-13.61-11.28-16.8-7.7,8-10.9,8.4-15-22.29-18.4-24-10.32,18.4-13.61,18.77-10-12.16-13.61-12.84-19.91,26.45-19.91,26.45Z" style="fill:#fff;opacity:0.4"></path><rect x="136.56" y="158.37" width="99.53" height="0.66" style="fill:#263238"></rect><path d="M226.88,158.7s-4-10-7.34-9.82-4.69,7.48-7.88,7.1-6.95-12-11.74-11.45-5.73,7.51-8.73,8.83-8.89-7.63-12.68-8.85S170.16,155.23,166,156s-5.82-4.9-8.26-4.42-9.34,7.14-9.34,7.14Z" style="fill:#263238"></path><path d="M236,169.35H136.55a8.44,8.44,0,0,1-8.43-8.43V110.55a8.44,8.44,0,0,1,8.43-8.43H236a8.44,8.44,0,0,1,8.43,8.43v50.37A8.44,8.44,0,0,1,236,169.35Zm-99.44-66.23a7.43,7.43,0,0,0-7.43,7.43v50.37a7.43,7.43,0,0,0,7.43,7.43H236a7.43,7.43,0,0,0,7.43-7.43V110.55a7.43,7.43,0,0,0-7.43-7.43Z" style="fill:#407BFF"></path></g></svg>
