<svg xmlns="http://www.w3.org/2000/svg" viewBox="0 0 500 500"><g id="freepik--Calendar--inject-62"><rect x="300.58" y="70.73" width="151.91" height="157.84" style="fill:#fff;stroke:#263238;stroke-linecap:round;stroke-miterlimit:10"></rect><rect x="300.58" y="70.73" width="151.91" height="30.38" style="fill:#BA68C8;stroke:#263238;stroke-linecap:round;stroke-miterlimit:10"></rect><rect x="309.47" y="120.38" width="17.39" height="17.39" style="fill:#fff;stroke:#263238;stroke-linecap:round;stroke-miterlimit:10"></rect><rect x="333.12" y="120.38" width="17.39" height="17.39" style="fill:#fff;stroke:#263238;stroke-linecap:round;stroke-miterlimit:10"></rect><rect x="356.76" y="120.38" width="17.39" height="17.39" style="fill:#fff;stroke:#263238;stroke-linecap:round;stroke-miterlimit:10"></rect><rect x="380.4" y="120.38" width="17.39" height="17.39" style="fill:#fff;stroke:#263238;stroke-linecap:round;stroke-miterlimit:10"></rect><rect x="404.05" y="120.38" width="17.39" height="17.39" style="fill:#fff;stroke:#263238;stroke-linecap:round;stroke-miterlimit:10"></rect><rect x="427.69" y="120.38" width="17.39" height="17.39" style="fill:#fff;stroke:#263238;stroke-linecap:round;stroke-miterlimit:10"></rect><rect x="309.47" y="144.29" width="17.39" height="17.39" style="fill:#fff;stroke:#263238;stroke-linecap:round;stroke-miterlimit:10"></rect><rect x="333.12" y="144.29" width="17.39" height="17.39" style="fill:#fff;stroke:#263238;stroke-linecap:round;stroke-miterlimit:10"></rect><rect x="356.76" y="144.29" width="17.39" height="17.39" style="fill:#fff;stroke:#263238;stroke-linecap:round;stroke-miterlimit:10"></rect><rect x="380.4" y="144.29" width="17.39" height="17.39" style="fill:#fff;stroke:#263238;stroke-linecap:round;stroke-miterlimit:10"></rect><rect x="404.05" y="144.29" width="17.39" height="17.39" style="fill:#fff;stroke:#263238;stroke-linecap:round;stroke-miterlimit:10"></rect><rect x="427.69" y="144.29" width="17.39" height="17.39" style="fill:#fff;stroke:#263238;stroke-linecap:round;stroke-miterlimit:10"></rect><rect x="309.47" y="168.2" width="17.39" height="17.39" style="fill:#fff;stroke:#263238;stroke-linecap:round;stroke-miterlimit:10"></rect><rect x="333.12" y="168.2" width="17.39" height="17.39" style="fill:#fff;stroke:#263238;stroke-linecap:round;stroke-miterlimit:10"></rect><rect x="356.76" y="168.2" width="17.39" height="17.39" style="fill:#fff;stroke:#263238;stroke-linecap:round;stroke-miterlimit:10"></rect><rect x="380.4" y="168.2" width="17.39" height="17.39" style="fill:#fff;stroke:#263238;stroke-linecap:round;stroke-miterlimit:10"></rect><rect x="404.05" y="168.2" width="17.39" height="17.39" style="fill:#fff;stroke:#263238;stroke-linecap:round;stroke-miterlimit:10"></rect><rect x="427.69" y="168.2" width="17.39" height="17.39" style="fill:#fff;stroke:#263238;stroke-linecap:round;stroke-miterlimit:10"></rect><rect x="309.47" y="192.12" width="17.39" height="17.39" style="fill:#fff;stroke:#263238;stroke-linecap:round;stroke-miterlimit:10"></rect><rect x="333.12" y="192.12" width="17.39" height="17.39" style="fill:#fff;stroke:#263238;stroke-linecap:round;stroke-miterlimit:10"></rect><rect x="356.76" y="192.12" width="17.39" height="17.39" style="fill:#fff;stroke:#263238;stroke-linecap:round;stroke-miterlimit:10"></rect><rect x="380.4" y="192.12" width="17.39" height="17.39" style="fill:#fff;stroke:#263238;stroke-linecap:round;stroke-miterlimit:10"></rect><rect x="404.05" y="192.12" width="17.39" height="17.39" style="fill:#fff;stroke:#263238;stroke-linecap:round;stroke-miterlimit:10"></rect><rect x="427.69" y="192.12" width="17.39" height="17.39" style="fill:#fff;stroke:#263238;stroke-linecap:round;stroke-miterlimit:10"></rect><path d="M313.92,78.88h0a2.22,2.22,0,0,1-2.23-2.22V61.1a2.23,2.23,0,0,1,2.23-2.23h0a2.22,2.22,0,0,1,2.22,2.23V76.66A2.21,2.21,0,0,1,313.92,78.88Z" style="fill:#fff;stroke:#263238;stroke-linecap:round;stroke-miterlimit:10"></path><path d="M322.81,78.88h0a2.21,2.21,0,0,1-2.22-2.22V61.1a2.22,2.22,0,0,1,2.22-2.23h0A2.22,2.22,0,0,1,325,61.1V76.66A2.21,2.21,0,0,1,322.81,78.88Z" style="fill:#fff;stroke:#263238;stroke-linecap:round;stroke-miterlimit:10"></path><path d="M331.7,78.88h0a2.21,2.21,0,0,1-2.22-2.22V61.1a2.22,2.22,0,0,1,2.22-2.23h0a2.22,2.22,0,0,1,2.22,2.23V76.66A2.21,2.21,0,0,1,331.7,78.88Z" style="fill:#fff;stroke:#263238;stroke-linecap:round;stroke-miterlimit:10"></path><path d="M340.59,78.88h0a2.22,2.22,0,0,1-2.22-2.22V61.1a2.23,2.23,0,0,1,2.22-2.23h0a2.23,2.23,0,0,1,2.23,2.23V76.66A2.22,2.22,0,0,1,340.59,78.88Z" style="fill:#fff;stroke:#263238;stroke-linecap:round;stroke-miterlimit:10"></path><path d="M349.49,78.88h0a2.22,2.22,0,0,1-2.23-2.22V61.1a2.23,2.23,0,0,1,2.23-2.23h0a2.23,2.23,0,0,1,2.22,2.23V76.66A2.22,2.22,0,0,1,349.49,78.88Z" style="fill:#fff;stroke:#263238;stroke-linecap:round;stroke-miterlimit:10"></path><path d="M358.38,78.88h0a2.21,2.21,0,0,1-2.22-2.22V61.1a2.22,2.22,0,0,1,2.22-2.23h0a2.22,2.22,0,0,1,2.22,2.23V76.66A2.21,2.21,0,0,1,358.38,78.88Z" style="fill:#fff;stroke:#263238;stroke-linecap:round;stroke-miterlimit:10"></path><path d="M367.27,78.88h0a2.21,2.21,0,0,1-2.22-2.22V61.1a2.22,2.22,0,0,1,2.22-2.23h0a2.22,2.22,0,0,1,2.22,2.23V76.66A2.21,2.21,0,0,1,367.27,78.88Z" style="fill:#fff;stroke:#263238;stroke-linecap:round;stroke-miterlimit:10"></path><rect x="373.94" y="58.87" width="4.45" height="20.01" rx="2.22" style="fill:#fff;stroke:#263238;stroke-linecap:round;stroke-miterlimit:10"></rect><path d="M385.06,78.88h0a2.22,2.22,0,0,1-2.23-2.22V61.1a2.23,2.23,0,0,1,2.23-2.23h0a2.23,2.23,0,0,1,2.22,2.23V76.66A2.22,2.22,0,0,1,385.06,78.88Z" style="fill:#fff;stroke:#263238;stroke-linecap:round;stroke-miterlimit:10"></path><path d="M394,78.88h0a2.21,2.21,0,0,1-2.22-2.22V61.1A2.22,2.22,0,0,1,394,58.87h0a2.22,2.22,0,0,1,2.22,2.23V76.66A2.21,2.21,0,0,1,394,78.88Z" style="fill:#fff;stroke:#263238;stroke-linecap:round;stroke-miterlimit:10"></path><path d="M402.84,78.88h0a2.21,2.21,0,0,1-2.22-2.22V61.1a2.22,2.22,0,0,1,2.22-2.23h0a2.22,2.22,0,0,1,2.22,2.23V76.66A2.21,2.21,0,0,1,402.84,78.88Z" style="fill:#fff;stroke:#263238;stroke-linecap:round;stroke-miterlimit:10"></path><path d="M411.73,78.88h0a2.21,2.21,0,0,1-2.22-2.22V61.1a2.22,2.22,0,0,1,2.22-2.23h0A2.23,2.23,0,0,1,414,61.1V76.66A2.22,2.22,0,0,1,411.73,78.88Z" style="fill:#fff;stroke:#263238;stroke-linecap:round;stroke-miterlimit:10"></path><path d="M420.62,78.88h0a2.22,2.22,0,0,1-2.22-2.22V61.1a2.23,2.23,0,0,1,2.22-2.23h0a2.23,2.23,0,0,1,2.23,2.23V76.66A2.22,2.22,0,0,1,420.62,78.88Z" style="fill:#fff;stroke:#263238;stroke-linecap:round;stroke-miterlimit:10"></path><path d="M429.52,78.88h0a2.22,2.22,0,0,1-2.23-2.22V61.1a2.23,2.23,0,0,1,2.23-2.23h0a2.22,2.22,0,0,1,2.22,2.23V76.66A2.21,2.21,0,0,1,429.52,78.88Z" style="fill:#fff;stroke:#263238;stroke-linecap:round;stroke-miterlimit:10"></path><path d="M438.41,78.88h0a2.21,2.21,0,0,1-2.22-2.22V61.1a2.22,2.22,0,0,1,2.22-2.23h0a2.22,2.22,0,0,1,2.22,2.23V76.66A2.21,2.21,0,0,1,438.41,78.88Z" style="fill:#fff;stroke:#263238;stroke-linecap:round;stroke-miterlimit:10"></path></g><g id="freepik--Money--inject-62"><rect x="127.63" y="39.85" width="119.46" height="223.68" style="fill:#fff;stroke:#263238;stroke-linecap:round;stroke-miterlimit:10"></rect><path d="M142,63.18a8.77,8.77,0,0,1-.9,0V237.88a6.6,6.6,0,0,1,.9,0A8.72,8.72,0,0,1,150.46,249h74.7a8.72,8.72,0,0,1,8.42-11.13V63.18a8.76,8.76,0,0,1-8.76-8.76h-74A8.76,8.76,0,0,1,142,63.18Zm45.32,56.25a32.26,32.26,0,1,1-32.26,32.26A32.26,32.26,0,0,1,187.36,119.43Z" style="fill:#BA68C8;stroke:#263238;stroke-linecap:round;stroke-miterlimit:10"></path><rect x="100.42" y="58.12" width="119.46" height="223.68" transform="translate(-40.17 49.93) rotate(-15.77)" style="fill:#fff;stroke:#263238;stroke-linecap:round;stroke-miterlimit:10"></rect><path d="M92.48,97.1c-.3.08-.59.14-.88.2l47.49,168.16a7.89,7.89,0,0,1,.86-.29,8.76,8.76,0,0,1,10.81,6,9,9,0,0,1,.32,2.38L223,253.29a8.56,8.56,0,0,1-1-2.2,8.76,8.76,0,0,1,6.05-10.81L180.58,72.21a8.75,8.75,0,0,1-10.81-6L98.52,86.29A8.76,8.76,0,0,1,92.48,97.1Zm58.9,41.81a32.26,32.26,0,1,1-22.28,39.81A32.26,32.26,0,0,1,151.38,138.91Z" style="fill:#BA68C8;stroke:#263238;stroke-linecap:round;stroke-miterlimit:10"></path><rect x="85.65" y="73.93" width="119.46" height="223.68" transform="translate(-67.03 83.16) rotate(-26.17)" style="fill:#fff;stroke:#263238;stroke-linecap:round;stroke-miterlimit:10"></rect><path d="M65.66,126.32a8.67,8.67,0,0,1-.83.36L141.9,283.5c.25-.15.52-.3.79-.43a8.75,8.75,0,0,1,11.72,4,8.47,8.47,0,0,1,.75,2.28l67-32.94a9.29,9.29,0,0,1-1.35-2,8.76,8.76,0,0,1,4-11.72L147.83,86a8.77,8.77,0,0,1-11.73-4L69.66,114.6A8.74,8.74,0,0,1,65.66,126.32Zm65.49,30.5A32.26,32.26,0,1,1,116.42,200,32.26,32.26,0,0,1,131.15,156.82Z" style="fill:#BA68C8;stroke:#263238;stroke-linecap:round;stroke-miterlimit:10"></path><rect x="71" y="98.3" width="119.46" height="223.68" transform="translate(-104.28 132.56) rotate(-39.84)" style="fill:#fff;stroke:#263238;stroke-linecap:round;stroke-miterlimit:10"></rect><path d="M39.22,171.22a6.14,6.14,0,0,1-.72.54l112,134.17a6.52,6.52,0,0,1,.66-.62,8.77,8.77,0,0,1,13.6,3.15l57.35-47.86a8.43,8.43,0,0,1-1.78-1.61,8.75,8.75,0,0,1,1.12-12.33L109.51,112.57a8.76,8.76,0,0,1-12.34-1.12L40.33,158.88A8.77,8.77,0,0,1,39.22,171.22Zm70.84,14.15a32.26,32.26,0,1,1-4.1,45.44A32.26,32.26,0,0,1,110.06,185.37Z" style="fill:#BA68C8;stroke:#263238;stroke-linecap:round;stroke-miterlimit:10"></path></g><g id="freepik--Calculator--inject-62"><path d="M102.86,189.64,63,224.39l-6,5.24L17.1,264.38a13.91,13.91,0,0,0-.9,19.31l36.21,37.89L144.6,427.37a11.53,11.53,0,0,0,16.26,1.11l36.88-32.14,10.16-8.85,36.88-32.14a12.77,12.77,0,0,0,1.18-17.2l-92.2-105.79-32.59-41A12.71,12.71,0,0,0,102.86,189.64Z" style="fill:#fff;stroke:#263238;stroke-miterlimit:10"></path><path d="M148.05,235.22,117.62,197a7.8,7.8,0,0,0-11.22-1L22.84,268.74A7.79,7.79,0,0,0,22.33,280l33.75,35.37Z" style="fill:#263238;stroke:#263238;stroke-miterlimit:10"></path><rect x="28.89" y="237.37" width="112.8" height="38.15" transform="translate(-147.49 119.16) rotate(-41.07)" style="fill:#696969"></rect><rect x="34.46" y="242.93" width="101.67" height="27.02" transform="translate(-147.49 119.16) rotate(-41.07)" style="fill:#c2c2c2"></rect><rect x="68.17" y="303.31" width="56.92" height="16.7" rx="4.97" transform="translate(-180.99 140.2) rotate(-41.07)" style="fill:#696969;stroke:#263238;stroke-miterlimit:10"></rect><line x1="78.84" y1="316.36" x2="89.68" y2="328.8" style="fill:none;stroke:#263238;stroke-miterlimit:10"></line><line x1="87.49" y1="308.82" x2="98.33" y2="321.26" style="fill:none;stroke:#263238;stroke-miterlimit:10"></line><line x1="96.15" y1="301.28" x2="106.99" y2="313.72" style="fill:none;stroke:#263238;stroke-miterlimit:10"></line><line x1="104.8" y1="293.74" x2="115.64" y2="306.18" style="fill:none;stroke:#263238;stroke-miterlimit:10"></line><path d="M136,275.82h11a4.63,4.63,0,0,1,4.63,4.63v3.86a4.63,4.63,0,0,1-4.63,4.63H136a4.62,4.62,0,0,1-4.62-4.62v-3.86a4.63,4.63,0,0,1,4.63-4.63Z" transform="translate(-150.71 162.45) rotate(-41.07)" style="fill:#c2c2c2;stroke:#263238;stroke-miterlimit:10"></path><rect x="90.44" y="335.85" width="20.25" height="15.44" rx="4.62" transform="translate(-200.98 150.64) rotate(-41.07)" style="fill:#c2c2c2;stroke:#263238;stroke-miterlimit:10"></rect><path d="M113,320.26h11a4.63,4.63,0,0,1,4.63,4.63v6.19a4.63,4.63,0,0,1-4.63,4.63H113a4.62,4.62,0,0,1-4.62-4.62v-6.19a4.62,4.62,0,0,1,4.62-4.62Z" transform="translate(-186.33 158.56) rotate(-41.07)" style="fill:#c2c2c2;stroke:#263238;stroke-miterlimit:10"></path><path d="M130.86,304.66h11a4.63,4.63,0,0,1,4.63,4.63v6.19a4.63,4.63,0,0,1-4.63,4.63h-11a4.63,4.63,0,0,1-4.63-4.63v-6.19a4.62,4.62,0,0,1,4.62-4.62Z" transform="translate(-171.68 166.48) rotate(-41.07)" style="fill:#c2c2c2;stroke:#263238;stroke-miterlimit:10"></path><path d="M148.75,289.06h11a4.62,4.62,0,0,1,4.62,4.62v6.19a4.62,4.62,0,0,1-4.62,4.62h-11a4.63,4.63,0,0,1-4.63-4.63v-6.19a4.63,4.63,0,0,1,4.63-4.63Z" transform="translate(-157.03 174.4) rotate(-41.07)" style="fill:#c2c2c2;stroke:#263238;stroke-miterlimit:10"></path><path d="M166.65,273.47h11a4.62,4.62,0,0,1,4.62,4.62v6.19a4.63,4.63,0,0,1-4.63,4.63h-11a4.62,4.62,0,0,1-4.62-4.62v-6.19a4.63,4.63,0,0,1,4.63-4.63Z" transform="translate(-142.38 182.31) rotate(-41.07)" style="fill:#c2c2c2;stroke:#263238;stroke-miterlimit:10"></path><path d="M108.7,351.49h11a4.62,4.62,0,0,1,4.62,4.62v6.19a4.63,4.63,0,0,1-4.63,4.63h-11a4.62,4.62,0,0,1-4.62-4.62v-6.19A4.63,4.63,0,0,1,108.7,351.49Z" transform="translate(-207.9 163.45) rotate(-41.07)" style="fill:#c2c2c2;stroke:#263238;stroke-miterlimit:10"></path><path d="M126.6,335.9h11a4.62,4.62,0,0,1,4.62,4.62v6.19a4.63,4.63,0,0,1-4.63,4.63h-11a4.62,4.62,0,0,1-4.62-4.62v-6.19a4.63,4.63,0,0,1,4.63-4.63Z" transform="translate(-193.25 171.36) rotate(-41.07)" style="fill:#696969;stroke:#263238;stroke-miterlimit:10"></path><path d="M144.49,320.3h11a4.63,4.63,0,0,1,4.63,4.63v6.19a4.62,4.62,0,0,1-4.62,4.62h-11a4.63,4.63,0,0,1-4.63-4.63v-6.19a4.62,4.62,0,0,1,4.62-4.62Z" transform="translate(-178.6 179.28) rotate(-41.07)" style="fill:#696969;stroke:#263238;stroke-miterlimit:10"></path><rect x="157.76" y="304.71" width="20.25" height="15.44" rx="4.62" transform="translate(-163.95 187.2) rotate(-41.07)" style="fill:#696969;stroke:#263238;stroke-miterlimit:10"></rect><rect x="175.65" y="289.11" width="20.25" height="15.44" rx="4.63" transform="translate(-149.3 195.12) rotate(-41.07)" style="fill:#c2c2c2;stroke:#263238;stroke-miterlimit:10"></rect><path d="M122.33,367.13h11a4.62,4.62,0,0,1,4.62,4.62v6.19a4.62,4.62,0,0,1-4.62,4.62h-11a4.63,4.63,0,0,1-4.63-4.63v-6.19a4.62,4.62,0,0,1,4.62-4.62Z" transform="translate(-214.82 176.25) rotate(-41.07)" style="fill:#c2c2c2;stroke:#263238;stroke-miterlimit:10"></path><path d="M140.23,351.54h11a4.62,4.62,0,0,1,4.62,4.62v6.19a4.62,4.62,0,0,1-4.62,4.62h-11a4.63,4.63,0,0,1-4.63-4.63v-6.19a4.62,4.62,0,0,1,4.62-4.62Z" transform="translate(-200.17 184.17) rotate(-41.07)" style="fill:#696969;stroke:#263238;stroke-miterlimit:10"></path><path d="M158.12,335.94h11a4.62,4.62,0,0,1,4.62,4.62v6.19a4.62,4.62,0,0,1-4.62,4.62h-11a4.63,4.63,0,0,1-4.63-4.63v-6.19a4.63,4.63,0,0,1,4.63-4.63Z" transform="translate(-185.52 192.09) rotate(-41.07)" style="fill:#696969;stroke:#263238;stroke-miterlimit:10"></path><path d="M176,320.35h11a4.63,4.63,0,0,1,4.63,4.63v6.19a4.63,4.63,0,0,1-4.63,4.63H176a4.62,4.62,0,0,1-4.62-4.62V325A4.62,4.62,0,0,1,176,320.35Z" transform="translate(-170.87 200.01) rotate(-41.07)" style="fill:#696969;stroke:#263238;stroke-miterlimit:10"></path><path d="M193.91,304.75h11a4.62,4.62,0,0,1,4.62,4.62v6.19a4.63,4.63,0,0,1-4.63,4.63h-11a4.63,4.63,0,0,1-4.63-4.63v-6.19a4.62,4.62,0,0,1,4.62-4.62Z" transform="translate(-156.22 207.93) rotate(-41.07)" style="fill:#c2c2c2;stroke:#263238;stroke-miterlimit:10"></path><path d="M136,382.78h11a4.62,4.62,0,0,1,4.62,4.62v6.19a4.63,4.63,0,0,1-4.63,4.63H136a4.63,4.63,0,0,1-4.63-4.63V387.4A4.62,4.62,0,0,1,136,382.78Z" transform="translate(-221.74 189.06) rotate(-41.07)" style="fill:#BA68C8;stroke:#263238;stroke-linecap:round;stroke-miterlimit:10"></path><path d="M153.86,367.18h11a4.63,4.63,0,0,1,4.63,4.63V378a4.63,4.63,0,0,1-4.63,4.63h-11a4.62,4.62,0,0,1-4.62-4.62v-6.19A4.62,4.62,0,0,1,153.86,367.18Z" transform="translate(-207.09 196.98) rotate(-41.07)" style="fill:#696969;stroke:#263238;stroke-miterlimit:10"></path><rect x="167.13" y="351.59" width="20.25" height="15.44" rx="4.63" transform="matrix(0.75, -0.66, 0.66, 0.75, -192.44, 204.9)" style="fill:#696969;stroke:#263238;stroke-miterlimit:10"></rect><rect x="185.02" y="335.99" width="20.25" height="15.44" rx="4.62" transform="translate(-177.79 212.82) rotate(-41.07)" style="fill:#696969;stroke:#263238;stroke-miterlimit:10"></rect><path d="M149.6,398.42h11a4.62,4.62,0,0,1,4.62,4.62v6.19a4.62,4.62,0,0,1-4.62,4.62h-11a4.63,4.63,0,0,1-4.63-4.63V403a4.63,4.63,0,0,1,4.63-4.63Z" transform="translate(-228.67 201.87) rotate(-41.07)" style="fill:#BA68C8;stroke:#263238;stroke-linecap:round;stroke-miterlimit:10"></path><path d="M167.49,382.82h11a4.63,4.63,0,0,1,4.63,4.63v6.19a4.63,4.63,0,0,1-4.63,4.63h-11a4.63,4.63,0,0,1-4.63-4.63v-6.19A4.62,4.62,0,0,1,167.49,382.82Z" transform="translate(-214.02 209.78) rotate(-41.07)" style="fill:#696969;stroke:#263238;stroke-miterlimit:10"></path><path d="M185.39,367.23h11a4.63,4.63,0,0,1,4.63,4.63V378a4.63,4.63,0,0,1-4.63,4.63h-11a4.63,4.63,0,0,1-4.63-4.63v-6.19A4.62,4.62,0,0,1,185.39,367.23Z" transform="translate(-199.37 217.7) rotate(-41.07)" style="fill:#696969;stroke:#263238;stroke-miterlimit:10"></path><path d="M203.28,351.63h11a4.62,4.62,0,0,1,4.62,4.62v6.19a4.63,4.63,0,0,1-4.63,4.63h-11a4.62,4.62,0,0,1-4.62-4.62v-6.19a4.62,4.62,0,0,1,4.62-4.62Z" transform="translate(-184.71 225.62) rotate(-41.07)" style="fill:#c2c2c2;stroke:#263238;stroke-miterlimit:10"></path><path d="M213.29,317.66l-10.64,9.27a3.07,3.07,0,0,0-.29,4.33l2.83,3.26,3.27,3.75,13.64,15.64a3.07,3.07,0,0,0,4.33.3l10.64-9.27a3.07,3.07,0,0,0,.29-4.33L223.73,325l-3.27-3.75L217.62,318A3.07,3.07,0,0,0,213.29,317.66Z" style="fill:#c2c2c2;stroke:#263238;stroke-miterlimit:10"></path><path d="M154,260.12h11a4.63,4.63,0,0,1,4.63,4.63v3.86a4.62,4.62,0,0,1-4.62,4.62H154a4.62,4.62,0,0,1-4.62-4.62v-3.86A4.63,4.63,0,0,1,154,260.12Z" transform="translate(-135.95 170.43) rotate(-41.07)" style="fill:#BA68C8;stroke:#263238;stroke-linecap:round;stroke-miterlimit:10"></path><path d="M156.94,273.2a4.55,4.55,0,0,1-3.63-4.15,3.28,3.28,0,0,1,1.25-2.45,3.25,3.25,0,0,1,2.59-.9,4.56,4.56,0,0,1,3.62,4.16,3.66,3.66,0,0,1-3.83,3.34Zm2.84-3.27a4.06,4.06,0,0,0-2.84-3.26A2.35,2.35,0,0,0,154.3,269a3.45,3.45,0,0,0,.95,2,3.37,3.37,0,0,0,1.89,1.22,2.13,2.13,0,0,0,1.84-.56A2.09,2.09,0,0,0,159.78,269.93Z" style="fill:#fff"></path><path d="M163.25,268.74a.4.4,0,0,1-.33-.16l-4.08-4.68a.72.72,0,0,1-.2-.48.6.6,0,0,1,.2-.41.76.76,0,0,1,.35-.16.86.86,0,0,1,.45,0L166,264.5l-3.54-4.06a.41.41,0,0,1-.11-.34.46.46,0,0,1,.17-.32.59.59,0,0,1,.33-.13.41.41,0,0,1,.33.16l4.09,4.69a.66.66,0,0,1,.18.48.64.64,0,0,1-.22.43.86.86,0,0,1-.33.17.81.81,0,0,1-.38,0l-6.4-1.64,3.5,4a.44.44,0,0,1,.11.35.55.55,0,0,1-.18.32A.52.52,0,0,1,163.25,268.74Z" style="fill:#fff"></path><path d="M100.46,349.26a.84.84,0,0,1-.43-.08L94.7,346.7l3.67,4.22a.31.31,0,0,1,.08.29.64.64,0,0,1-.19.3.67.67,0,0,1-.32.15.34.34,0,0,1-.29-.12l-4-4.58a.63.63,0,0,1-.15-.53.82.82,0,0,1,.28-.51.84.84,0,0,1,.47-.2,1,1,0,0,1,.57.1l5.16,2.37-1.64-5.43a.95.95,0,0,1,.23-1,.91.91,0,0,1,.55-.21.64.64,0,0,1,.51.22l4,4.59a.29.29,0,0,1,.07.3.55.55,0,0,1-.19.29.67.67,0,0,1-.32.15.32.32,0,0,1-.28-.12l-3.67-4.21,1.72,5.62a.71.71,0,0,1,0,.43.6.6,0,0,1-.18.32A.65.65,0,0,1,100.46,349.26Z" style="fill:#fff"></path><path d="M106,344.31a3.22,3.22,0,0,1-1.76-.25,4.39,4.39,0,0,1-1.55-1.18,4.62,4.62,0,0,1-.79-1.27,3.74,3.74,0,0,1-.29-1.36,3,3,0,0,1,.3-1.33,3.42,3.42,0,0,1,.91-1.19,3.66,3.66,0,0,1,1.71-.86.37.37,0,0,1,.4.12.38.38,0,0,1,.1.29.34.34,0,0,1-.12.27.53.53,0,0,1-.15.08l-.14,0-.18.06-.21.07-.25.12-.28.17-.31.25a2.55,2.55,0,0,0-.58.71,1.85,1.85,0,0,0-.23.77,2.38,2.38,0,0,0,.07.79,3,3,0,0,0,.32.8,5.85,5.85,0,0,0,.54.75,4.92,4.92,0,0,0,.67.63,3.24,3.24,0,0,0,.74.43,2.37,2.37,0,0,0,.77.17,1.91,1.91,0,0,0,.8-.14,2.44,2.44,0,0,0,.8-.49,2.38,2.38,0,0,0,.52-.61,5.27,5.27,0,0,0,.33-.75.61.61,0,0,1,.11-.18.39.39,0,0,1,.55.05.45.45,0,0,1,.07.47,3.58,3.58,0,0,1-1.15,1.75A3.33,3.33,0,0,1,106,344.31Z" style="fill:#fff"></path><path d="M155.22,408.74l-2.66,2.32.57,1.57a.47.47,0,0,1-.14.57.57.57,0,0,1-.35.14.39.39,0,0,1-.33-.14.55.55,0,0,1-.1-.17l-2.14-6.17a1.28,1.28,0,0,1-.09-.68.81.81,0,0,1,.29-.44.9.9,0,0,1,.47-.23,1.37,1.37,0,0,1,.66.19l5.82,3a.74.74,0,0,1,.16.12.43.43,0,0,1,.09.35.61.61,0,0,1-.19.33.48.48,0,0,1-.58.06Zm-4.31-2.26,1.38,3.82,2.22-1.93Z" style="fill:#fff"></path><path d="M159.28,407.16a3.16,3.16,0,0,1-1.77-.24,4.48,4.48,0,0,1-1.54-1.18,4.35,4.35,0,0,1-.8-1.28,3.85,3.85,0,0,1-.29-1.35,3.22,3.22,0,0,1,.3-1.34,3.51,3.51,0,0,1,.91-1.19,3.73,3.73,0,0,1,1.71-.85.38.38,0,0,1,.4.11.41.41,0,0,1,.11.3.39.39,0,0,1-.13.27.53.53,0,0,1-.15.08l-.14,0-.18.05-.21.08-.25.12a2.29,2.29,0,0,0-.27.17l-.32.25a2.42,2.42,0,0,0-.58.71,2,2,0,0,0-.23.77,2.4,2.4,0,0,0,.07.79,3.36,3.36,0,0,0,.32.79,5.3,5.3,0,0,0,.54.76,5.58,5.58,0,0,0,.67.63,3.05,3.05,0,0,0,.74.42,2.21,2.21,0,0,0,.77.18,2.08,2.08,0,0,0,.8-.14,2.62,2.62,0,0,0,.8-.49,2.42,2.42,0,0,0,.52-.62,5.35,5.35,0,0,0,.34-.75.34.34,0,0,1,.11-.17.35.35,0,0,1,.28-.09.4.4,0,0,1,.27.14.5.5,0,0,1,.07.47,3.65,3.65,0,0,1-1.16,1.75A3.32,3.32,0,0,1,159.28,407.16Z" style="fill:#fff"></path><path d="M142.46,394.05a3.18,3.18,0,0,1-1.77-.25,4.36,4.36,0,0,1-1.54-1.18,4.52,4.52,0,0,1-.8-1.27,3.94,3.94,0,0,1-.28-1.36,3,3,0,0,1,.29-1.33,3.54,3.54,0,0,1,.91-1.19,3.75,3.75,0,0,1,1.71-.86.38.38,0,0,1,.41.12.43.43,0,0,1,.1.29.34.34,0,0,1-.12.27.48.48,0,0,1-.16.08l-.13,0a.74.74,0,0,0-.19,0l-.2.07-.26.12-.27.18a2.34,2.34,0,0,0-.31.24,2.52,2.52,0,0,0-.58.71,1.91,1.91,0,0,0-.24.77,2.77,2.77,0,0,0,.07.8,3.16,3.16,0,0,0,.33.79,4.39,4.39,0,0,0,.54.75,4,4,0,0,0,.67.63,3.18,3.18,0,0,0,.73.43,2.43,2.43,0,0,0,.78.17,1.93,1.93,0,0,0,.8-.14,2.4,2.4,0,0,0,.79-.49,2.44,2.44,0,0,0,.53-.61,4.42,4.42,0,0,0,.33-.75.36.36,0,0,1,.11-.17.37.37,0,0,1,.28-.09.39.39,0,0,1,.27.13.48.48,0,0,1,.07.47,3.6,3.6,0,0,1-1.16,1.75A3.34,3.34,0,0,1,142.46,394.05Z" style="fill:#fff"></path><path d="M111.23,362.18a2.42,2.42,0,0,1-1.88-2.17,1.59,1.59,0,0,1,.58-1.27,1.85,1.85,0,0,1,.71-.39,1.6,1.6,0,0,1,.72,0,2.21,2.21,0,0,1,.65.28,2.34,2.34,0,0,1,.56.48,2.12,2.12,0,0,1,.58,1.39,1.55,1.55,0,0,1-.59,1.27A1.6,1.6,0,0,1,111.23,362.18Zm1.25-1.39a1,1,0,0,0-.1-.6,2.46,2.46,0,0,0-.39-.58,2.24,2.24,0,0,0-.52-.47,1.2,1.2,0,0,0-.58-.18.83.83,0,0,0-.57.22.82.82,0,0,0-.3.54,1.1,1.1,0,0,0,.1.59,2.46,2.46,0,0,0,.39.58,2.27,2.27,0,0,0,.53.47,1,1,0,0,0,.58.18.86.86,0,0,0,.86-.75Zm2.45,3.57a.26.26,0,0,1-.21-.09.38.38,0,0,1-.07-.18l-1.64-8a.35.35,0,0,1,.09-.35.32.32,0,0,1,.22-.07.31.31,0,0,1,.2.11.41.41,0,0,1,.09.2l1.62,7.95a.31.31,0,0,1-.08.33A.33.33,0,0,1,114.93,364.36Zm2.26-2.87a2.19,2.19,0,0,1-1.3-.78,2.13,2.13,0,0,1-.57-1.38,1.57,1.57,0,0,1,.58-1.27,1.81,1.81,0,0,1,.7-.39,1.47,1.47,0,0,1,.72,0,2.07,2.07,0,0,1,.65.28,2.3,2.3,0,0,1,.56.48,2.42,2.42,0,0,1,.51.89,1.77,1.77,0,0,1,0,.94,1.7,1.7,0,0,1-.53.83A1.59,1.59,0,0,1,117.19,361.49Zm1.25-1.39a1.1,1.1,0,0,0-.1-.59,2.73,2.73,0,0,0-.39-.59,3.2,3.2,0,0,0-.39-.36,1.76,1.76,0,0,0-.42-.24.82.82,0,0,0-.44,0,.93.93,0,0,0-.42.21.78.78,0,0,0-.3.54,1.16,1.16,0,0,0,.1.6,2.68,2.68,0,0,0,.39.58,2.46,2.46,0,0,0,.53.46,1.08,1.08,0,0,0,.57.19.84.84,0,0,0,.58-.23A.79.79,0,0,0,118.44,360.1Z" style="fill:#fff"></path><path d="M134,347.22a.42.42,0,0,1-.35-.15.62.62,0,0,1-.1-.2l-1.9-6-2.55,2.23a.44.44,0,0,1-.31.11.41.41,0,0,1-.27-.15.39.39,0,0,1-.11-.29.38.38,0,0,1,.15-.29l3-2.59a.65.65,0,0,1,.41-.18.44.44,0,0,1,.34.17,1.09,1.09,0,0,1,.23.39l2,6.32a.44.44,0,0,1-.14.5A.52.52,0,0,1,134,347.22Z" style="fill:#fff"></path><path d="M151.76,331.74a2.06,2.06,0,0,1-1.15.06,2,2,0,0,1-1-.63,2,2,0,0,1-.49-1.15,1.73,1.73,0,0,1,.39-1.2,1.71,1.71,0,0,1-1.16.21,1.78,1.78,0,0,1-1-.6,1.76,1.76,0,0,1-.46-1,2,2,0,0,1,.21-1.08,3.44,3.44,0,0,1,.78-1,3.77,3.77,0,0,1,.79-.53,2.89,2.89,0,0,1,.82-.23,1.71,1.71,0,0,1,.8.13,1.94,1.94,0,0,1,.71.52,1.7,1.7,0,0,1,.45,1,1.73,1.73,0,0,1-.35,1.1,1.92,1.92,0,0,1,1.25-.21,1.9,1.9,0,0,1,1.05.64,2,2,0,0,1,.49,1.08,2.14,2.14,0,0,1-.22,1.13,3.39,3.39,0,0,1-.82,1A3.51,3.51,0,0,1,151.76,331.74Zm1.22-2.21a1.15,1.15,0,0,0-.32-1,1.26,1.26,0,0,0-1-.5,1.76,1.76,0,0,0-1.62,1.41,1.3,1.3,0,0,0,.35,1.07,1.26,1.26,0,0,0,.64.41,1.16,1.16,0,0,0,.69,0,2.33,2.33,0,0,0,.66-.4A1.75,1.75,0,0,0,153,329.53Zm-2.38-2.7a1.11,1.11,0,0,0-.32-.94,1,1,0,0,0-.9-.42,1.78,1.78,0,0,0-1,.46,2.25,2.25,0,0,0-.36.4,1.85,1.85,0,0,0-.21.45,1.06,1.06,0,0,0,0,.5,1.22,1.22,0,0,0,.28.49,1.09,1.09,0,0,0,.89.44,1.63,1.63,0,0,0,1-.45A1.67,1.67,0,0,0,150.6,326.83Z" style="fill:#fff"></path><path d="M168.55,316.91a.35.35,0,0,1-.35-.12.51.51,0,0,1-.13-.32.34.34,0,0,1,.1-.28l.12-.06a3.09,3.09,0,0,0,1.18-.62,2.58,2.58,0,0,0,.42-.47,1.75,1.75,0,0,0,.21-.47,1.38,1.38,0,0,0,0-.5,2.17,2.17,0,0,0-.13-.5,2.79,2.79,0,0,0-.26-.52c-.11-.18-.24-.36-.36-.53s-.28-.34-.46-.54a1.36,1.36,0,0,1,0,1,2,2,0,0,1-.67,1,2.22,2.22,0,0,1-1.7.62,2.3,2.3,0,0,1-1.58-.85,2.37,2.37,0,0,1-.64-1.76,2.4,2.4,0,0,1,.91-1.69,2.72,2.72,0,0,1,.93-.57,2.13,2.13,0,0,1,.91-.14,2.37,2.37,0,0,1,.86.24,3.47,3.47,0,0,1,.8.5,6.05,6.05,0,0,1,.73.71c.19.22.37.44.52.65a6.53,6.53,0,0,1,.46.7,5,5,0,0,1,.36.74,3.13,3.13,0,0,1,.18.76,2.58,2.58,0,0,1,0,.79,2.47,2.47,0,0,1-.33.76,3.42,3.42,0,0,1-.65.75A3.54,3.54,0,0,1,168.55,316.91Zm-.08-4.7A1.68,1.68,0,0,0,168,311a1.66,1.66,0,0,0-1-.59,1.39,1.39,0,0,0-1.14.38,1.43,1.43,0,0,0-.56,1.07,1.67,1.67,0,0,0,.47,1.14,1.78,1.78,0,0,0,1,.64,1.28,1.28,0,0,0,1.1-.36A1.56,1.56,0,0,0,168.47,312.21Z" style="fill:#fff"></path><path d="M148.88,361.15a.44.44,0,0,1-.34-.16l-.74-.85-2.21,1.92a.49.49,0,0,1-.39.13.56.56,0,0,1-.36-.19.6.6,0,0,1-.14-.3l-.78-5.16a1,1,0,0,1,.31-.92.75.75,0,0,1,.51-.2.69.69,0,0,1,.51.27l2.81,3.22.56-.49a.34.34,0,0,1,.28-.09.36.36,0,0,1,.25.13.39.39,0,0,1,.1.26.36.36,0,0,1-.14.27l-.56.49.74.86a.39.39,0,0,1,.11.35.52.52,0,0,1-.18.32A.58.58,0,0,1,148.88,361.15Zm-1.58-1.58-2.59-3,.74,4.58Z" style="fill:#fff"></path><path d="M165.25,346.92a3.55,3.55,0,0,1-1.15.18.27.27,0,0,1-.22-.1.47.47,0,0,1-.11-.33.39.39,0,0,1,.13-.31.21.21,0,0,1,.17-.07,2.38,2.38,0,0,0,1.64-.61,1.49,1.49,0,0,0,.59-1.07,1.83,1.83,0,0,0-1.48-1.71,1.32,1.32,0,0,0-1,.36,1.8,1.8,0,0,0-.49.68,1.74,1.74,0,0,0-.17.77.26.26,0,0,1-.11.18.89.89,0,0,1-.39.19.32.32,0,0,1-.34-.06l-2.2-2.52a.43.43,0,0,1,.07-.68l2.54-2.21a.37.37,0,0,1,.29-.1.45.45,0,0,1,.26.14.39.39,0,0,1,.1.27.36.36,0,0,1-.14.27l-2.29,2,1.62,1.88V344a.85.85,0,0,1,0-.24,3.43,3.43,0,0,1,.12-.33A2.15,2.15,0,0,1,163,343a2.69,2.69,0,0,1,.4-.43A2.15,2.15,0,0,1,165,342a2.39,2.39,0,0,1,1.58.87,2.28,2.28,0,0,1,.61,1.76,2.5,2.5,0,0,1-.93,1.67A3.29,3.29,0,0,1,165.25,346.92Z" style="fill:#fff"></path><path d="M182.8,331.64a2.07,2.07,0,0,1-.9.14,2.56,2.56,0,0,1-.86-.23,3.89,3.89,0,0,1-.8-.51,6.05,6.05,0,0,1-.73-.71c-.2-.22-.37-.44-.53-.65a7.09,7.09,0,0,1-.46-.7,4.08,4.08,0,0,1-.35-.74,3.13,3.13,0,0,1-.18-.76,2.58,2.58,0,0,1,0-.79,2.43,2.43,0,0,1,.32-.76,3.48,3.48,0,0,1,.66-.75,3.57,3.57,0,0,1,1.44-.76.36.36,0,0,1,.36.12.51.51,0,0,1,.13.32.31.31,0,0,1-.11.28.17.17,0,0,1-.11.06,3.15,3.15,0,0,0-1.18.62,2.58,2.58,0,0,0-.42.47,1.75,1.75,0,0,0-.21.47,1.38,1.38,0,0,0,0,.5,2.15,2.15,0,0,0,.12.5,2.9,2.9,0,0,0,.27.52,6.18,6.18,0,0,0,.36.53c.13.16.28.35.46.54a1.33,1.33,0,0,1,0-1,2.07,2.07,0,0,1,.67-1,2.26,2.26,0,0,1,1.7-.62,2.32,2.32,0,0,1,1.59.85,2.34,2.34,0,0,1-.28,3.46A2.85,2.85,0,0,1,182.8,331.64Zm-2.28-2.52a1.66,1.66,0,0,0,.47,1.17,1.61,1.61,0,0,0,1,.59,1.37,1.37,0,0,0,1.13-.38,1.46,1.46,0,0,0,.57-1.07,1.67,1.67,0,0,0-.47-1.14,1.78,1.78,0,0,0-1-.64,1.27,1.27,0,0,0-1.1.36A1.54,1.54,0,0,0,180.52,329.12Z" style="fill:#fff"></path><path d="M162.13,377.79a.47.47,0,0,1-.35-.17L158,373.27l-.37,1.27a.34.34,0,0,1-.11.17.34.34,0,0,1-.27.09.37.37,0,0,1-.33-.47l.61-2a.47.47,0,0,1,.16-.24A.44.44,0,0,1,158,372a.45.45,0,0,1,.35.18l4.17,4.78a.4.4,0,0,1,.12.38.51.51,0,0,1-.19.33A.52.52,0,0,1,162.13,377.79Z" style="fill:#fff"></path><path d="M178.89,357.78a4.65,4.65,0,0,1,0,1.47l-.27,3.27,2.33-2a.37.37,0,0,1,.56,0,.35.35,0,0,1,.1.27.38.38,0,0,1-.15.29l-2.66,2.32a.72.72,0,0,1-.47.2.45.45,0,0,1-.38-.16.67.67,0,0,1-.15-.54l.23-3.79a3.36,3.36,0,0,0,0-1,1.55,1.55,0,0,0-.32-.67,1.26,1.26,0,0,0-.94-.48,1.31,1.31,0,0,0-1,.35,3.14,3.14,0,0,0-.44.46,2.41,2.41,0,0,0-.23.36,2.45,2.45,0,0,0-.15.38c-.05.17-.09.28-.1.31a.27.27,0,0,1-.09.12.44.44,0,0,1-.59-.05.37.37,0,0,1-.06-.37,4.54,4.54,0,0,1,.43-1,3.23,3.23,0,0,1,.75-.87,2.2,2.2,0,0,1,1.61-.6,1.9,1.9,0,0,1,1.44.68A2.36,2.36,0,0,1,178.89,357.78Z" style="fill:#fff"></path><path d="M196,348.13a.44.44,0,0,1-.46-.12.39.39,0,0,1-.1-.3.35.35,0,0,1,.12-.28l.11-.06a3.31,3.31,0,0,0,1.29-.68,1.87,1.87,0,0,0,.63-1,1.08,1.08,0,0,0-.27-1,1.34,1.34,0,0,0-1.08-.49,2,2,0,0,0-1.2.52l-.28.24a.34.34,0,0,1-.27.1.38.38,0,0,1-.25-.14.37.37,0,0,1-.1-.26.31.31,0,0,1,.12-.26l.26-.22a1.85,1.85,0,0,0,.65-1,1.11,1.11,0,0,0-.29-1,1,1,0,0,0-.87-.39,1.55,1.55,0,0,0-.94.4,3.45,3.45,0,0,0-.9,1.25.23.23,0,0,1-.07.1.34.34,0,0,1-.3.07.49.49,0,0,1-.3-.16.33.33,0,0,1-.07-.34,2.92,2.92,0,0,1,.4-.74,4.3,4.3,0,0,1,.71-.81,3,3,0,0,1,1-.63,1.85,1.85,0,0,1,1.09-.06,1.81,1.81,0,0,1,1,.62,1.56,1.56,0,0,1,.42,1,1.92,1.92,0,0,1-.28,1,1.81,1.81,0,0,1,1.22-.18,2,2,0,0,1,1.09.67,2.15,2.15,0,0,1,.45.84,1.79,1.79,0,0,1,0,.86,2.83,2.83,0,0,1-.37.79,3.19,3.19,0,0,1-.63.71A3.68,3.68,0,0,1,196,348.13Z" style="fill:#fff"></path><path d="M174.47,393.55a2,2,0,0,1-.92.07,2.87,2.87,0,0,1-.91-.33,4.72,4.72,0,0,1-.86-.6,7.88,7.88,0,0,1-.81-.82q-2.49-2.85-.54-4.55c1.3-1.13,2.77-.74,4.43,1.16a8.9,8.9,0,0,1,.7.91,5.11,5.11,0,0,1,.48.93,3.11,3.11,0,0,1,.2.94,2.13,2.13,0,0,1-.19.91,2.69,2.69,0,0,1-1.58,1.38Zm.7-1.57a1.26,1.26,0,0,0,.12-.45,2.1,2.1,0,0,0-.06-.48,2.62,2.62,0,0,0-.19-.49,4.27,4.27,0,0,0-.28-.49c-.12-.17-.23-.33-.34-.46l-.36-.43-.39-.44-.43-.4a3.2,3.2,0,0,0-.44-.35,2.51,2.51,0,0,0-.46-.24,1.36,1.36,0,0,0-.46-.12,1.06,1.06,0,0,0-.46.06,1.34,1.34,0,0,0-.44.26,1.31,1.31,0,0,0-.32.4.94.94,0,0,0-.12.44,1.36,1.36,0,0,0,.05.48,2,2,0,0,0,.18.48,3.29,3.29,0,0,0,.29.49,5,5,0,0,0,.34.48l.37.45.39.42.41.39a4.43,4.43,0,0,0,.45.36,3.21,3.21,0,0,0,.45.24,1.52,1.52,0,0,0,.47.13,1.24,1.24,0,0,0,.46-.06,1.15,1.15,0,0,0,.45-.26A1.24,1.24,0,0,0,175.17,392Z" style="fill:#fff"></path><path d="M190.89,376.1a1.12,1.12,0,0,1-.83-.4,1.15,1.15,0,0,1-.28-.86,1.23,1.23,0,0,1,.48-.89,1.25,1.25,0,0,1,.93-.35,1.17,1.17,0,0,1,1.11,1.27,1.29,1.29,0,0,1-.47.89A1.25,1.25,0,0,1,190.89,376.1Z" style="fill:#fff"></path><path d="M170.07,279.93a1.13,1.13,0,0,1-.8-.4,1.1,1.1,0,0,1-.27-.83,1.26,1.26,0,0,1,.46-.87,1.3,1.3,0,0,1,.91-.34,1.13,1.13,0,0,1,1.08,1.24,1.22,1.22,0,0,1-.46.86A1.23,1.23,0,0,1,170.07,279.93Z" style="fill:#fff"></path><path d="M174.56,285.08a1.17,1.17,0,0,1-.81-.4,1.08,1.08,0,0,1-.26-.84A1.22,1.22,0,0,1,174,283a1.25,1.25,0,0,1,.91-.34,1.09,1.09,0,0,1,.8.38,1.14,1.14,0,0,1,.28.85,1.38,1.38,0,0,1-1.38,1.21Z" style="fill:#fff"></path><path d="M205.45,361.49a.6.6,0,0,1-.42-.2.53.53,0,0,1-.14-.46.65.65,0,0,1,.25-.44l5.49-4.79a.69.69,0,0,1,.47-.18.52.52,0,0,1,.44.2.54.54,0,0,1,.13.46.67.67,0,0,1-.24.44l-5.52,4.81A.61.61,0,0,1,205.45,361.49Zm2.21,2.53a.59.59,0,0,1-.42-.19.6.6,0,0,1-.14-.46.67.67,0,0,1,.25-.45l5.51-4.8a.59.59,0,0,1,.45-.17.56.56,0,0,1,.44.21.53.53,0,0,1,.13.45.65.65,0,0,1-.24.43l-5.53,4.82A.58.58,0,0,1,207.66,364Z" style="fill:#fff"></path><path d="M186.21,297.93l.26,3.42a.5.5,0,0,1-.15.45.47.47,0,0,1-.33.1.39.39,0,0,1-.3-.14.44.44,0,0,1-.11-.28l-.24-3.74-3.54-.8a.28.28,0,0,1-.2-.12.44.44,0,0,1-.11-.36.52.52,0,0,1,.18-.36.47.47,0,0,1,.44-.09l3.23.72-.25-3.3a.52.52,0,0,1,.17-.46.4.4,0,0,1,.3-.11.37.37,0,0,1,.28.13.46.46,0,0,1,.1.26l.28,3.68,3.62.82a.46.46,0,0,1,.25.13.45.45,0,0,1,.09.36.61.61,0,0,1-.19.34.43.43,0,0,1-.42.1Z" style="fill:#fff"></path><path d="M223.57,341.06a.73.73,0,0,1-.5-.28l-2.23-2.55-2.66,2.32a.85.85,0,0,1-.55.2A.69.69,0,0,1,217,340a.83.83,0,0,1,.29-.51l2.67-2.32-2.25-2.58a.74.74,0,0,1-.2-.54.63.63,0,0,1,.25-.51.67.67,0,0,1,.53-.18.76.76,0,0,1,.51.27l2.25,2.58,2.67-2.32a.86.86,0,0,1,.54-.22.66.66,0,0,1,.5.23.62.62,0,0,1,.16.53.77.77,0,0,1-.28.52l-2.67,2.32,2.23,2.56a.7.7,0,0,1,.19.53.69.69,0,0,1-.24.51A.76.76,0,0,1,223.57,341.06Z" style="fill:#fff"></path><path d="M126.86,379.37a.55.55,0,0,1-.37-.2l-1.62-1.86L122.93,379a.56.56,0,0,1-.39.15.48.48,0,0,1-.37-.17.45.45,0,0,1-.12-.38.61.61,0,0,1,.21-.37l1.94-1.69-1.64-1.88a.51.51,0,0,1-.14-.39.49.49,0,0,1,.18-.37.52.52,0,0,1,.39-.13.53.53,0,0,1,.37.2l1.64,1.88,1.94-1.7a.56.56,0,0,1,.39-.15.46.46,0,0,1,.37.17.48.48,0,0,1,.11.38.51.51,0,0,1-.2.37l-1.94,1.7,1.62,1.86a.54.54,0,0,1,.14.38.53.53,0,0,1-.18.37A.5.5,0,0,1,126.86,379.37Z" style="fill:#fff"></path><path d="M196.83,315.61a.34.34,0,0,1-.3-.11.36.36,0,0,1-.07-.31.75.75,0,0,1,.26-.38l5.31-4.63a.71.71,0,0,1,.41-.2.35.35,0,0,1,.31.11.33.33,0,0,1,.06.31.77.77,0,0,1-.26.37l-5.31,4.64A.75.75,0,0,1,196.83,315.61Z" style="fill:#fff"></path><path d="M131.68,377a.4.4,0,0,1-.27-.14.4.4,0,0,1-.1-.28.35.35,0,0,1,.15-.28l3.59-3.13a.36.36,0,0,1,.3-.11.39.39,0,0,1,.26.14.43.43,0,0,1,.11.28.41.41,0,0,1-.15.28L132,376.91A.38.38,0,0,1,131.68,377Z" style="fill:#fff"></path><path d="M130.54,379.89c0,.17-.12.26-.23.28s-.21,0-.31-.17a1.57,1.57,0,0,1-.25-.62l-2-10.31a1.69,1.69,0,0,1,0-.67c0-.16.13-.26.23-.28s.21,0,.32.18a1.67,1.67,0,0,1,.24.62l2,10.3A1.52,1.52,0,0,1,130.54,379.89Z" style="fill:#fff"></path><path d="M169.53,284.29a.34.34,0,0,1-.3-.11.33.33,0,0,1-.06-.31.72.72,0,0,1,.25-.38l5.32-4.63a.68.68,0,0,1,.41-.2.34.34,0,0,1,.3.11.33.33,0,0,1,.06.31.74.74,0,0,1-.25.37l-5.32,4.64A.75.75,0,0,1,169.53,284.29Z" style="fill:#fff"></path><path d="M118.54,333.5a.79.79,0,0,1-.42-.08l-5.33-2.48,3.67,4.22a.28.28,0,0,1,.07.29.61.61,0,0,1-.19.3.55.55,0,0,1-.31.14.29.29,0,0,1-.29-.11l-4-4.58a.63.63,0,0,1-.15-.53.84.84,0,0,1,.75-.71,1,1,0,0,1,.58.1l5.16,2.37L116.43,327a1.09,1.09,0,0,1,0-.59.88.88,0,0,1,.27-.43.81.81,0,0,1,.55-.21.63.63,0,0,1,.5.22l4,4.58a.33.33,0,0,1,.08.3.64.64,0,0,1-.19.3.61.61,0,0,1-.32.14.3.3,0,0,1-.29-.11L117.32,327l1.73,5.62a.9.9,0,0,1,0,.43.69.69,0,0,1-.19.32A.62.62,0,0,1,118.54,333.5Z" style="fill:#fff"></path><path d="M123.41,329.48a.47.47,0,0,1-.35-.17l-4.16-4.78a.5.5,0,0,1-.12-.37.48.48,0,0,1,.18-.35l1.68-1.46a4.9,4.9,0,0,1,.61-.48,4.32,4.32,0,0,1,.64-.34,2.09,2.09,0,0,1,.66-.15,1.61,1.61,0,0,1,.65.15,1.74,1.74,0,0,1,.62.49,1.57,1.57,0,0,1,.42,1.07,2,2,0,0,1-.49,1.21h0a1.68,1.68,0,0,1,2.11.35l1.2,1.09,0,.05a.42.42,0,0,1,.11.35.53.53,0,0,1-.17.32.64.64,0,0,1-.37.15.43.43,0,0,1-.36-.13l-1.06-1a5,5,0,0,0-.57-.46,1.09,1.09,0,0,0-.47-.18.72.72,0,0,0-.45.09,2.33,2.33,0,0,0-.53.38l-1.3,1.13,1.88,2.15a.41.41,0,0,1,.12.38.51.51,0,0,1-.19.34A.52.52,0,0,1,123.41,329.48Zm-.84-4.59c.15-.14.28-.26.39-.38a2.47,2.47,0,0,0,.29-.39,1.17,1.17,0,0,0,.17-.43,1,1,0,0,0,0-.44,1.3,1.3,0,0,0-.27-.48,1.56,1.56,0,0,0-.35-.3.81.81,0,0,0-.36-.1,1.27,1.27,0,0,0-.34,0,1.42,1.42,0,0,0-.34.15l-.31.21-.29.25-1.23,1.07,1.55,1.78Z" style="fill:#fff"></path><path d="M136.63,317.74a1,1,0,0,1-.43-.08l-5.33-2.48,3.67,4.21a.33.33,0,0,1,.08.3.7.7,0,0,1-.19.3.58.58,0,0,1-.32.14.3.3,0,0,1-.29-.11l-4-4.58a.63.63,0,0,1-.15-.53.82.82,0,0,1,.28-.51.92.92,0,0,1,.47-.21,1.09,1.09,0,0,1,.57.11l5.16,2.37-1.64-5.43a1,1,0,0,1,0-.59.94.94,0,0,1,.26-.43.81.81,0,0,1,.55-.21.64.64,0,0,1,.51.22l4,4.58a.3.3,0,0,1,.07.3.61.61,0,0,1-.19.3.58.58,0,0,1-.32.14.29.29,0,0,1-.28-.11l-3.67-4.21,1.72,5.62a.71.71,0,0,1,0,.43.54.54,0,0,1-.18.31A.66.66,0,0,1,136.63,317.74Z" style="fill:#fff"></path><path d="M139.41,312.46a.34.34,0,0,1-.25-.11.38.38,0,0,1-.09-.28.48.48,0,0,1,.16-.27l1.72-1.5a.46.46,0,0,1,.29-.12.34.34,0,0,1,.26.12.3.3,0,0,1,.08.27.43.43,0,0,1-.16.27l-1.72,1.5A.44.44,0,0,1,139.41,312.46Z" style="fill:#fff"></path><path d="M154.71,302a.71.71,0,0,1-.42-.08L149,299.42l3.67,4.21a.3.3,0,0,1,.07.3.55.55,0,0,1-.19.29.5.5,0,0,1-.31.15.32.32,0,0,1-.29-.11l-4-4.58a.61.61,0,0,1-.16-.53.78.78,0,0,1,.29-.51.89.89,0,0,1,.46-.21,1.05,1.05,0,0,1,.58.11l5.16,2.37-1.65-5.44a1.16,1.16,0,0,1,0-.58.88.88,0,0,1,.27-.43.81.81,0,0,1,.55-.21.63.63,0,0,1,.5.22l4,4.58a.36.36,0,0,1,.07.3.61.61,0,0,1-.19.29.56.56,0,0,1-.32.15.33.33,0,0,1-.29-.11l-3.67-4.22,1.73,5.62a.91.91,0,0,1,0,.43.64.64,0,0,1-.19.32A.55.55,0,0,1,154.71,302Z" style="fill:#fff"></path><path d="M161.16,296.59a.45.45,0,0,1-.27-.14l-1.16-1.34-1.4,1.21a.37.37,0,0,1-.28.11.32.32,0,0,1-.26-.12.29.29,0,0,1-.09-.27.39.39,0,0,1,.15-.27l1.4-1.21-1.18-1.36a.41.41,0,0,1-.11-.28.39.39,0,0,1,.41-.36.37.37,0,0,1,.27.15l1.18,1.35,1.4-1.22a.41.41,0,0,1,.28-.11.28.28,0,0,1,.26.12.3.3,0,0,1,.08.27.4.4,0,0,1-.14.27l-1.4,1.22,1.17,1.34a.4.4,0,0,1,.1.28.38.38,0,0,1-.13.26A.35.35,0,0,1,161.16,296.59Z" style="fill:#fff"></path><polyline points="138.64 284.3 143.44 285.32 142.04 278.73 144.51 276.58" style="fill:none;stroke:#fff;stroke-miterlimit:10"></polyline></g><g id="freepik--Tax--inject-62"><rect x="173.27" y="158.57" width="210.59" height="289.83" style="fill:#fff;stroke:#263238;stroke-linecap:round;stroke-miterlimit:10"></rect><rect x="173.27" y="158.57" width="128.02" height="84.14" style="fill:#263238;stroke:#263238;stroke-linecap:round;stroke-miterlimit:10"></rect><path d="M196.78,221.84V179.06h-7.87v-6.65h24.65v6.65h-7.75v42.78Z" style="fill:#fff"></path><path d="M214.36,221.84l9.88-49.43h9.65l9.88,49.43h-8.36l-1.95-11.41h-8.61l-2,11.41Zm11.41-17.15h6.71l-3.35-20.75Z" style="fill:#fff"></path><path d="M245.36,221.84l9.95-26.24-9.65-23.19h8.43l6.4,15.31,5.62-15.31h7.81l-9.52,24.9,10.25,24.53h-8.42l-7-16.6-6.1,16.6Z" style="fill:#fff"></path><line x1="353.87" y1="276.05" x2="372.21" y2="276.05" style="fill:none;stroke:#263238;stroke-linecap:round;stroke-miterlimit:10"></line><line x1="325.45" y1="276.05" x2="350.82" y2="276.05" style="fill:none;stroke:#263238;stroke-linecap:round;stroke-miterlimit:10"></line><line x1="272.89" y1="276.05" x2="321.17" y2="276.05" style="fill:none;stroke:#263238;stroke-linecap:round;stroke-miterlimit:10"></line><line x1="203.52" y1="276.05" x2="269.84" y2="276.05" style="fill:none;stroke:#263238;stroke-linecap:round;stroke-miterlimit:10"></line><line x1="186.01" y1="276.05" x2="199.86" y2="276.05" style="fill:none;stroke:#263238;stroke-linecap:round;stroke-miterlimit:10"></line><line x1="330.95" y1="289.9" x2="372.21" y2="289.9" style="fill:none;stroke:#263238;stroke-linecap:round;stroke-miterlimit:10"></line><line x1="254.56" y1="289.9" x2="327.29" y2="289.9" style="fill:none;stroke:#263238;stroke-linecap:round;stroke-miterlimit:10"></line><line x1="220.02" y1="289.9" x2="249.67" y2="289.9" style="fill:none;stroke:#263238;stroke-linecap:round;stroke-miterlimit:10"></line><line x1="186.01" y1="289.9" x2="215.14" y2="289.9" style="fill:none;stroke:#263238;stroke-linecap:round;stroke-miterlimit:10"></line><line x1="282.98" y1="303.76" x2="372.21" y2="303.76" style="fill:none;stroke:#263238;stroke-linecap:round;stroke-miterlimit:10"></line><line x1="248.75" y1="303.76" x2="278.56" y2="303.76" style="fill:none;stroke:#263238;stroke-linecap:round;stroke-miterlimit:10"></line><line x1="204.97" y1="303.76" x2="246" y2="303.76" style="fill:none;stroke:#263238;stroke-linecap:round;stroke-miterlimit:10"></line><line x1="186.01" y1="303.76" x2="202.3" y2="303.76" style="fill:none;stroke:#263238;stroke-linecap:round;stroke-miterlimit:10"></line><rect x="184.9" y="314.84" width="186.2" height="119.7" style="fill:none;stroke:#263238;stroke-linecap:round;stroke-miterlimit:10"></rect><line x1="235" y1="337.56" x2="370.55" y2="337.56" style="fill:none;stroke:#263238;stroke-linecap:round;stroke-miterlimit:10"></line><line x1="185.46" y1="337.56" x2="230.41" y2="337.56" style="fill:none;stroke:#263238;stroke-linecap:round;stroke-miterlimit:10"></line><line x1="185.46" y1="353.63" x2="370.55" y2="353.63" style="fill:none;stroke:#263238;stroke-linecap:round;stroke-miterlimit:10"></line><line x1="345.93" y1="369.71" x2="370.55" y2="369.71" style="fill:none;stroke:#263238;stroke-linecap:round;stroke-miterlimit:10"></line><line x1="185.46" y1="369.71" x2="343.79" y2="369.71" style="fill:none;stroke:#263238;stroke-linecap:round;stroke-miterlimit:10"></line><line x1="261.28" y1="385.78" x2="370.55" y2="385.78" style="fill:none;stroke:#263238;stroke-linecap:round;stroke-miterlimit:10"></line><line x1="185.46" y1="385.78" x2="258.53" y2="385.78" style="fill:none;stroke:#263238;stroke-linecap:round;stroke-miterlimit:10"></line><line x1="230.41" y1="401.85" x2="370.55" y2="401.85" style="fill:none;stroke:#263238;stroke-linecap:round;stroke-miterlimit:10"></line><line x1="185.46" y1="401.85" x2="224.61" y2="401.85" style="fill:none;stroke:#263238;stroke-linecap:round;stroke-miterlimit:10"></line><line x1="264.64" y1="417.92" x2="370.55" y2="417.92" style="fill:none;stroke:#263238;stroke-linecap:round;stroke-miterlimit:10"></line><line x1="185.46" y1="417.92" x2="260.97" y2="417.92" style="fill:none;stroke:#263238;stroke-linecap:round;stroke-miterlimit:10"></line><line x1="330.1" y1="414.35" x2="330.1" y2="433.99" style="fill:none;stroke:#263238;stroke-linecap:round;stroke-miterlimit:10"></line><line x1="330.1" y1="329.4" x2="330.1" y2="410.99" style="fill:none;stroke:#263238;stroke-linecap:round;stroke-miterlimit:10"></line><line x1="330.1" y1="315.95" x2="330.1" y2="324.21" style="fill:none;stroke:#263238;stroke-linecap:round;stroke-miterlimit:10"></line></g></svg>