<svg xmlns="http://www.w3.org/2000/svg" viewBox="0 0 500 500"><g id="freepik--Device--inject-63"><g id="freepik--Laptop--inject-63"><path d="M77.13,367.06c0,3.17,2.37,5.21,5.31,6.9l120.22,69.41a11.69,11.69,0,0,0,10.62,0l193.94-112c2.94-1.69,5.31-3.87,5.31-7s-2.37-5.14-5.31-6.84L287,248.1a11.76,11.76,0,0,0-10.62,0l-193.95,112C79.5,361.77,77.12,363.88,77.13,367.06Z" style="fill:#37474f"></path><path d="M82.43,366.21l120.23,69.41a11.76,11.76,0,0,0,10.62,0l193.94-112c2.94-1.7,2.94-4.44,0-6.14L287,248.1a11.76,11.76,0,0,0-10.62,0l-193.95,112C79.5,361.77,79.5,364.52,82.43,366.21Z" style="fill:#455a64"></path><path d="M208,436.9v7.74a10.91,10.91,0,0,1-5.31-1.26L82.44,374c-2.94-1.69-5.31-3.73-5.31-6.9,0-3,2.13-5.06,4.89-6.75-2.28,1.61-2.32,4.32.42,5.9l120.22,69.41A10.81,10.81,0,0,0,208,436.9Z" style="fill:#263238"></path><path d="M98.84,361l178.23-102.9a5.51,5.51,0,0,1,5,0l6.5,3.64c1.38.8,1.38,2.1,0,2.89L110.31,367.5a5.59,5.59,0,0,1-5,0l-6.46-3.63C97.46,363.07,97.46,361.78,98.84,361Z" style="fill:#263238"></path><path d="M116.34,371.3,294.57,268.4a5.12,5.12,0,0,1,4.57-.25l46.39,26.79c1.15.66,1,1.84-.43,2.64l-178,102.76a5.15,5.15,0,0,1-4.58.26l-46.59-26.66C114.77,373.28,115,372.1,116.34,371.3Z" style="fill:#263238"></path><path d="M270.78,311.62l5.58-3.22c.23-.14.26-.35,0-.47l-5.33-3.08a.89.89,0,0,0-.81,0l-5.59,3.22c-.23.14-.25.35,0,.47l5.34,3.08A.89.89,0,0,0,270.78,311.62Zm-8.15-11.14-5.58,3.22c-.24.13-.26.34-.05.47l5.34,3.08a.89.89,0,0,0,.81,0l5.58-3.22c.24-.14.26-.35,0-.47l-5.34-3.08A.89.89,0,0,0,262.63,300.48Zm-18,10.4-9.44,5.46c-.24.13-.26.34,0,.46l5.34,3.09a.89.89,0,0,0,.81,0l9.44-5.45c.24-.14.26-.35.05-.47l-5.34-3.08A.89.89,0,0,0,244.6,310.88Zm9.87-5.7-5.58,3.23c-.23.13-.26.34,0,.46l5.33,3.09a.93.93,0,0,0,.81,0l5.58-3.22c.24-.14.26-.35.05-.47l-5.34-3.08A.89.89,0,0,0,254.47,305.18Zm-21.89,12.64L227,321c-.24.14-.26.35-.05.47l5.34,3.09a.93.93,0,0,0,.81,0l5.58-3.22c.24-.14.26-.35,0-.47l-5.34-3.08A.89.89,0,0,0,232.58,317.82Zm-8.15,4.71-5.58,3.22c-.24.14-.26.35,0,.47l5.34,3.08a.89.89,0,0,0,.81,0l5.58-3.23c.23-.13.26-.34,0-.46l-5.33-3.09A.89.89,0,0,0,224.43,322.53Zm20.92,12.58,5.58-3.22c.24-.14.26-.35,0-.47l-5.34-3.08a.92.92,0,0,0-.81,0l-5.58,3.23c-.24.13-.26.34-.05.46l5.34,3.09A.89.89,0,0,0,245.35,335.11Zm-8.15,4.71,5.58-3.22c.23-.14.25-.35,0-.47l-5.34-3.08a.89.89,0,0,0-.81,0l-5.58,3.22c-.23.14-.25.35,0,.47l5.33,3.08A.91.91,0,0,0,237.2,339.82ZM229,344.53l5.58-3.23c.24-.13.26-.34,0-.46l-5.34-3.09a.93.93,0,0,0-.81,0L222.94,341c-.24.14-.26.35-.05.47l5.34,3.08A.89.89,0,0,0,229,344.53Zm-8.16,4.7,5.58-3.22c.24-.13.26-.34,0-.46l-5.34-3.09a.89.89,0,0,0-.81,0l-5.58,3.22c-.23.14-.26.35-.05.47l5.34,3.08A.89.89,0,0,0,220.88,349.23Zm41.74-32.9,5.58-3.22c.24-.14.26-.35.05-.47l-5.34-3.08a.89.89,0,0,0-.81,0l-5.58,3.22c-.24.14-.26.35,0,.47l5.34,3.08A.89.89,0,0,0,262.62,316.33Zm-9.11,14.07L266,323.21c.24-.13.26-.34.05-.47l-13-7.48a.89.89,0,0,0-.81,0L245.79,319c-.24.14-.26.35,0,.47l6.86,4c.22.12.19.33,0,.46l-5.15,3c-.24.13-.26.34,0,.47l5.34,3.08A.89.89,0,0,0,253.51,330.4Zm-37.24-3.16-5.58,3.22c-.24.14-.26.35-.05.47L216,334a.89.89,0,0,0,.81,0l5.58-3.22c.24-.13.26-.34,0-.46l-5.34-3.09A.89.89,0,0,0,216.27,327.24ZM208.11,332l-5.58,3.22c-.23.14-.25.35,0,.47l5.33,3.08a.91.91,0,0,0,.82,0l5.58-3.22c.23-.13.25-.34,0-.47l-5.34-3.08A.89.89,0,0,0,208.11,332ZM163,382.22a.89.89,0,0,0,.81,0l5.58-3.23c.24-.13.26-.34,0-.46l-5.34-3.09a.93.93,0,0,0-.81,0l-5.58,3.22c-.24.14-.26.35-.05.47Zm-20.11-12.6-5.58,3.22c-.24.14-.26.35,0,.47l5.34,3.08a.89.89,0,0,0,.81,0l5.58-3.22c.24-.14.26-.34.05-.47l-5.34-3.08A.89.89,0,0,0,142.87,369.62Zm10.34,9.44a.89.89,0,0,0,.81,0l5.58-3.22c.24-.14.26-.35.05-.47l-5.34-3.08a.89.89,0,0,0-.81,0l-5.58,3.22c-.24.14-.26.35,0,.47Zm22.5,5.06,5.58-3.22c.24-.14.26-.35.05-.47L176,377.35a.89.89,0,0,0-.81,0l-5.58,3.22c-.24.13-.26.34-.05.47l5.34,3.08A.89.89,0,0,0,175.71,384.12Zm-9,4.74a.89.89,0,0,0,.81,0l5.58-3.22c.23-.14.25-.35,0-.47l-5.33-3.08a.89.89,0,0,0-.81,0l-5.59,3.22c-.23.13-.25.34,0,.46ZM151,364.91l-5.58,3.22c-.23.14-.26.35,0,.47l5.33,3.08a.89.89,0,0,0,.81,0l5.58-3.22c.24-.13.26-.34,0-.46l-5.34-3.09A.89.89,0,0,0,151,364.91Zm40.78-23.54-5.58,3.22c-.23.14-.26.34-.05.47l5.34,3.08a.89.89,0,0,0,.81,0l5.58-3.22c.24-.14.26-.35,0-.47l-5.34-3.08A.89.89,0,0,0,191.8,341.37ZM159.18,360.2l-5.58,3.22c-.24.14-.26.35,0,.47l5.34,3.08a.89.89,0,0,0,.81,0l5.58-3.23c.24-.13.26-.34.05-.46L160,360.17A.89.89,0,0,0,159.18,360.2ZM200,336.66l-5.58,3.22c-.24.14-.26.35,0,.47l5.34,3.08a.89.89,0,0,0,.81,0l5.58-3.22c.24-.14.26-.35.05-.47l-5.34-3.08A.89.89,0,0,0,200,336.66Zm-16.31,9.42-5.58,3.22c-.24.13-.26.34,0,.47l5.34,3.08a.89.89,0,0,0,.81,0l5.58-3.22c.23-.14.26-.35.05-.47l-5.34-3.08A.89.89,0,0,0,183.65,346.08Zm-8.16,4.7L169.91,354c-.24.13-.26.34,0,.46l5.34,3.09a.89.89,0,0,0,.81,0l5.58-3.22c.24-.14.26-.35,0-.47l-5.34-3.08A.89.89,0,0,0,175.49,350.78Zm-8.15,4.71-5.58,3.22c-.24.14-.26.35,0,.47l5.34,3.09a.93.93,0,0,0,.81,0l5.58-3.22c.23-.14.25-.35,0-.47l-5.33-3.08A.89.89,0,0,0,167.34,355.49Zm37.23,3.16,5.58-3.22c.24-.14.26-.35,0-.47l-5.34-3.08a.89.89,0,0,0-.81,0l-5.58,3.22c-.24.14-.26.35-.05.47l5.34,3.08A.89.89,0,0,0,204.57,358.65Zm76.09-68.58-5.58,3.22c-.24.14-.26.34-.05.47l5.34,3.08a.89.89,0,0,0,.81,0l5.58-3.22c.24-.14.26-.35.05-.47L281.47,290A.89.89,0,0,0,280.66,290.07Zm-9.88,5.7L265.2,299c-.23.14-.25.34,0,.47l5.33,3.08a.91.91,0,0,0,.82,0l5.58-3.22c.23-.14.25-.35,0-.47l-5.33-3.08A.91.91,0,0,0,270.78,295.77Zm18-10.41-5.58,3.22c-.23.14-.26.35-.05.47l5.34,3.08a.89.89,0,0,0,.81,0l5.58-3.22c.24-.14.26-.35,0-.47l-5.34-3.08A.89.89,0,0,0,288.81,285.36Zm-45.08,41.88,5.58-3.23c.24-.13.26-.34.05-.46L244,320.46a.89.89,0,0,0-.81,0l-5.58,3.22c-.23.14-.26.35,0,.47l5.34,3.08A.89.89,0,0,0,243.73,327.24Zm54-46.62a.89.89,0,0,0-.81,0l-5.58,3.22c-.24.14-.26.35-.05.47l5.34,3.08a.89.89,0,0,0,.81,0l5.58-3.22c.24-.14.26-.34.05-.47Zm-85,73.32,5.58-3.22c.24-.14.26-.34.05-.47L213,347.17a.89.89,0,0,0-.81,0l-5.58,3.22c-.24.14-.26.35,0,.47l5.34,3.08A.89.89,0,0,0,212.73,353.94Zm100-57.74,5.58-3.22c.24-.14.26-.35.05-.47L313,289.43a.89.89,0,0,0-.81,0l-5.58,3.22c-.23.13-.26.34-.05.47l5.34,3.08A.89.89,0,0,0,312.74,296.2Zm-15.78.31,5.58-3.23c.24-.13.26-.34,0-.46l-5.34-3.09a.89.89,0,0,0-.81,0L290.86,293c-.24.14-.26.35-.05.47l5.34,3.08A.92.92,0,0,0,297,296.51ZM305.41,285a.93.93,0,0,0-.81,0L299,288.27c-.23.14-.25.35,0,.47l5.34,3.08a.89.89,0,0,0,.81,0l5.58-3.23c.23-.13.26-.34,0-.46Zm1.71-1,13,7.49a.89.89,0,0,0,.81,0l5.58-3.22c.24-.14.26-.35,0-.47l-13-7.48a.89.89,0,0,0-.81,0l-5.58,3.23C306.93,283.7,306.91,283.91,307.12,284Zm-18.84,10.44-5.58,3.22c-.23.14-.25.35,0,.47l5.33,3.08a.91.91,0,0,0,.82,0l5.58-3.22c.23-.14.25-.34,0-.47l-5.34-3.08A.89.89,0,0,0,288.28,294.47ZM226.9,329.91l-5.58,3.22c-.24.14-.26.35,0,.47l5.34,3.08a.89.89,0,0,0,.81,0l5.58-3.22c.24-.14.26-.34.05-.47l-5.34-3.08A.89.89,0,0,0,226.9,329.91Zm76.88-29a.93.93,0,0,0,.81,0l5.58-3.22c.23-.14.26-.35.05-.47l-5.34-3.08a.89.89,0,0,0-.81,0l-5.58,3.23c-.24.13-.26.34-.05.46ZM235.06,325.2l-5.58,3.22c-.24.14-.26.35,0,.47l5.34,3.08a.89.89,0,0,0,.81,0l5.58-3.22c.24-.13.26-.34.05-.46l-5.34-3.09A.89.89,0,0,0,235.06,325.2Zm-63.92,52.31a.89.89,0,0,0,.81,0l5.58-3.22c.24-.14.26-.35.05-.47l-5.34-3.08a.89.89,0,0,0-.81,0L165.85,374c-.24.14-.26.35,0,.47Zm-9.48-9.93-5.59,3.22c-.23.14-.25.35,0,.47l5.34,3.08a.89.89,0,0,0,.81,0l5.58-3.22c.23-.14.25-.34,0-.47l-5.33-3.08A.89.89,0,0,0,161.66,367.58Zm18.44,5.2,5.58-3.22c.24-.14.26-.35,0-.47L180.39,366a.92.92,0,0,0-.81,0L174,369.26c-.23.13-.26.34,0,.46l5.33,3.09A.89.89,0,0,0,180.1,372.78Zm8.16-4.71,5.58-3.22c.24-.14.26-.35,0-.47l-5.34-3.08a.89.89,0,0,0-.81,0l-5.58,3.22c-.24.13-.26.34,0,.47l5.34,3.08A.89.89,0,0,0,188.26,368.07Zm8.16-4.71,5.58-3.22c.23-.14.25-.35,0-.47l-5.33-3.08a.91.91,0,0,0-.82,0l-5.58,3.22c-.23.14-.25.35,0,.47l5.34,3.08A.89.89,0,0,0,196.42,363.36Zm-26.61-.49-5.58,3.22c-.24.14-.26.35,0,.47l5.34,3.08a.89.89,0,0,0,.81,0l5.58-3.22c.24-.13.26-.34.05-.47l-5.34-3.08A.89.89,0,0,0,169.81,362.87Zm8.16-4.71-5.58,3.22c-.24.14-.26.35,0,.47l5.34,3.08a.89.89,0,0,0,.81,0l5.58-3.23c.23-.13.26-.34.05-.46l-5.34-3.09A.89.89,0,0,0,178,358.16Zm32.62-18.83L205,342.55c-.24.14-.26.34,0,.47l5.34,3.08a.89.89,0,0,0,.81,0l5.58-3.22c.24-.14.26-.35.05-.47l-5.34-3.08A.89.89,0,0,0,210.59,339.33ZM202.43,344l-5.58,3.22c-.23.13-.26.34,0,.46l5.33,3.09a.89.89,0,0,0,.81,0l5.58-3.22c.24-.14.26-.35.05-.47L203.24,344A.89.89,0,0,0,202.43,344Zm16.32-9.42-5.58,3.22c-.24.14-.26.35,0,.47l5.34,3.08a.89.89,0,0,0,.81,0l5.58-3.22c.23-.14.25-.35,0-.47l-5.33-3.08A.89.89,0,0,0,218.75,334.62Zm-32.63,18.83-5.58,3.22c-.23.14-.26.35,0,.47l5.34,3.08a.89.89,0,0,0,.81,0l5.58-3.22c.24-.14.26-.35.05-.47l-5.34-3.08A.89.89,0,0,0,186.12,353.45Zm8.16-4.71L188.7,352c-.24.13-.26.34,0,.46l5.34,3.09a.89.89,0,0,0,.81,0l5.58-3.22c.24-.14.26-.35.05-.47l-5.34-3.08A.89.89,0,0,0,194.28,348.74Zm-10.41,30.67,5.58-3.22c.24-.14.26-.35.05-.47l-5.34-3.08a.89.89,0,0,0-.81,0l-5.58,3.22c-.24.14-.26.35-.05.47l5.34,3.08A.89.89,0,0,0,183.87,379.41Zm-43-2-5.34-3.08a.89.89,0,0,0-.81,0l-5.58,3.22c-.24.14-.26.35,0,.47l5.34,3.08a.89.89,0,0,0,.81,0l5.58-3.22C141.05,377.71,141.07,377.5,140.86,377.38Zm10.63,2.67L146.15,377a.89.89,0,0,0-.81,0L136.76,382c-.24.14-.26.35,0,.47l5.34,3.08a.92.92,0,0,0,.81,0l8.58-5C151.68,380.38,151.7,380.17,151.49,380.05Zm-18.6-8.76-5.34-3.08a.89.89,0,0,0-.81,0l-6.86,4c-.24.13-.26.34,0,.46l5.34,3.09a.93.93,0,0,0,.81,0l6.87-4C133.08,371.63,133.1,371.42,132.89,371.29Zm5.27-3a.93.93,0,0,0,.81,0l5.58-3.22c.24-.14.26-.35,0-.47l-5.34-3.08a.89.89,0,0,0-.81,0l-5.58,3.22c-.24.14-.26.35-.05.47Zm23.11,14.95-5.34-3.08a.89.89,0,0,0-.81,0l-10.74,6.2c-.23.13-.25.34,0,.46l5.34,3.09a.89.89,0,0,0,.81,0l10.73-6.2C161.45,383.55,161.48,383.34,161.27,383.21Zm3.76,6.64-5.34-3.08a.92.92,0,0,0-.81,0l-6.87,4c-.24.14-.26.35,0,.47l5.34,3.08a.89.89,0,0,0,.81,0l6.87-4C165.22,390.18,165.24,390,165,389.85Zm33.77-56.6a.93.93,0,0,0,.81,0l5.58-3.22c.23-.14.26-.35.05-.47l-5.34-3.08a.89.89,0,0,0-.81,0l-5.58,3.22c-.24.14-.26.35,0,.47Zm-16.31,9.41a.92.92,0,0,0,.81,0l5.58-3.23c.23-.13.26-.34,0-.46l-5.33-3.09a.89.89,0,0,0-.81,0l-5.58,3.22c-.24.14-.26.35,0,.47Zm-36.18,20.89a.89.89,0,0,0,.81,0l5.58-3.22c.24-.14.26-.35.05-.47l-5.34-3.08a.92.92,0,0,0-.81,0L141,360c-.23.13-.26.34,0,.46ZM190.64,338a.89.89,0,0,0,.81,0L197,334.7c.24-.13.26-.34.05-.46l-5.34-3.09a.89.89,0,0,0-.81,0l-5.58,3.22c-.24.14-.26.35,0,.47Zm-16.31,9.42a.89.89,0,0,0,.81,0l5.58-3.22c.24-.13.26-.34.05-.47l-5.34-3.08a.89.89,0,0,0-.81,0L169,343.82c-.24.14-.26.35,0,.47ZM169,390.18a.89.89,0,0,0-.81,0l-8.58,5c-.24.14-.26.35,0,.47l5.34,3.08a.89.89,0,0,0,.81,0l8.58-4.95c.24-.14.26-.35.05-.47Zm-6.4-36.05a.89.89,0,0,0,.81,0l5.58-3.22c.23-.14.25-.35,0-.47l-5.33-3.08a.89.89,0,0,0-.81,0l-5.58,3.22c-.24.14-.26.34-.05.47Zm-8.16,4.71a.89.89,0,0,0,.81,0l5.58-3.22c.24-.14.26-.35,0-.47L155.57,352a.89.89,0,0,0-.81,0l-5.58,3.22c-.24.13-.26.34-.05.47Zm165.66-55.9a.89.89,0,0,0-.81,0l-13.74,7.93c-.23.14-.26.35,0,.47l5.33,3.08a.91.91,0,0,0,.82,0l13.73-7.93c.24-.13.26-.34.05-.46Zm-18,10.41a.89.89,0,0,0-.81,0l-5.58,3.22c-.24.14-.26.35,0,.47l5.34,3.08a.89.89,0,0,0,.81,0l5.58-3.22c.24-.13.26-.34.05-.47ZM192,374.7l5.58-3.22c.24-.14.26-.34.05-.47l-5.34-3.08a.89.89,0,0,0-.81,0l-5.58,3.22c-.23.14-.26.35,0,.47l5.34,3.08A.89.89,0,0,0,192,374.7Zm93.77-51.93a.89.89,0,0,0-.81,0L279.4,326c-.24.14-.26.34,0,.47l5.34,3.08a.89.89,0,0,0,.81,0l5.58-3.22c.24-.14.26-.35.05-.47Zm42.5-24.54a.89.89,0,0,0-.81,0l-5.59,3.22c-.23.14-.25.35,0,.47l5.34,3.08a.89.89,0,0,0,.81,0l5.58-3.23c.23-.13.25-.34,0-.46Zm13.49-1.62-13-7.49a.89.89,0,0,0-.81,0l-5.58,3.22c-.23.14-.25.35,0,.47l13,7.49a.93.93,0,0,0,.81,0l5.58-3.22C342,296.94,342,296.73,341.78,296.61Zm-86.47,43.75a.93.93,0,0,0-.81,0l-6.87,4c-.23.13-.25.34,0,.47l5.34,3.08a.89.89,0,0,0,.81,0l6.86-4c.24-.14.26-.35,0-.47Zm20.61-11.89a.89.89,0,0,0-.81,0l-8.59,4.95c-.24.14-.26.35,0,.47l5.34,3.08a.89.89,0,0,0,.81,0l8.59-5c.24-.14.26-.35.05-.47Zm-39.49,22.8a.89.89,0,0,0-.81,0l-45.93,26.51c-.24.14-.26.35-.05.47l5.34,3.08a.89.89,0,0,0,.81,0l45.93-26.52c.23-.14.26-.35,0-.47Zm-48.51,28a.89.89,0,0,0-.81,0l-6.87,4c-.24.13-.26.34-.05.46l5.34,3.09a.89.89,0,0,0,.81,0l6.87-4c.24-.13.26-.34,0-.46Zm58-33.45a.92.92,0,0,0-.81,0l-6.87,4c-.24.14-.26.35-.05.47l5.34,3.08a.89.89,0,0,0,.81,0l6.87-4c.24-.14.26-.35.05-.47Zm-67.39,38.91a.89.89,0,0,0-.81,0l-6.87,4c-.24.14-.26.35-.05.47l5.34,3.08a.89.89,0,0,0,.81,0l6.87-4c.24-.14.26-.35,0-.47Zm86.28-49.82a.89.89,0,0,0-.81,0l-6.87,4c-.24.13-.26.34-.05.46l5.34,3.09a.93.93,0,0,0,.81,0l6.87-4c.23-.13.26-.34.05-.47ZM294,318.06a.89.89,0,0,0-.81,0l-5.59,3.22c-.23.14-.25.35,0,.47l5.34,3.08a.89.89,0,0,0,.81,0l5.58-3.22c.23-.14.25-.35,0-.47Zm18.26-12.75,5.58-3.22c.24-.14.26-.35,0-.47l-5.34-3.08a.89.89,0,0,0-.81,0l-5.58,3.22c-.23.14-.26.35-.05.47l5.34,3.08A.89.89,0,0,0,312.21,305.31Zm-33.28,1.6,5.58-3.22c.24-.13.26-.34.05-.47l-5.34-3.08a.89.89,0,0,0-.81,0l-5.58,3.22c-.24.14-.26.35-.05.47l5.34,3.08A.89.89,0,0,0,278.93,306.91ZM257.27,337l16.31-9.41c.24-.14.26-.35.05-.47l-5.34-3.08a.89.89,0,0,0-.81,0l-16.31,9.42c-.24.14-.26.35,0,.47l5.34,3.08A.89.89,0,0,0,257.27,337Zm46-27a.89.89,0,0,0,.81,0l5.58-3.22c.24-.14.26-.35.05-.47l-5.34-3.08a.89.89,0,0,0-.81,0L298,306.5c-.24.13-.26.34,0,.47Zm-6.82-4.43L302,302.4c.24-.14.26-.35.05-.47l-5.34-3.08a.89.89,0,0,0-.81,0l-5.58,3.22c-.24.14-.26.35-.05.47l5.34,3.08A.89.89,0,0,0,296.43,305.62Zm-47.32,36.12,5.58-3.22c.24-.14.26-.35.05-.47L249.4,335a.89.89,0,0,0-.81,0L243,338.22c-.23.14-.26.35,0,.47l5.33,3.08A.89.89,0,0,0,249.11,341.74Zm36.11-21.28a.89.89,0,0,0,.81,0l5.58-3.22c.24-.14.26-.35.05-.47l-5.34-3.08a.92.92,0,0,0-.81,0l-5.58,3.23c-.24.13-.26.34-.05.46Zm-76.88,44.83,5.58-3.23c.23-.13.25-.34,0-.46l-5.34-3.09a.89.89,0,0,0-.81,0l-5.58,3.22c-.23.14-.25.35,0,.47l5.33,3.08A.91.91,0,0,0,208.34,365.29Zm8.15-4.71,5.58-3.22c.24-.14.26-.35.05-.47l-5.34-3.08a.89.89,0,0,0-.81,0l-5.58,3.22c-.24.14-.26.35,0,.47l5.34,3.08A.89.89,0,0,0,216.49,360.58ZM200.18,370l5.58-3.22c.24-.13.26-.34.05-.46l-5.34-3.09a.89.89,0,0,0-.81,0l-5.58,3.22c-.24.14-.26.35-.05.47l5.34,3.08A.89.89,0,0,0,200.18,370Zm32.62-18.83,5.58-3.22c.24-.14.26-.35.05-.47l-5.34-3.08a.89.89,0,0,0-.81,0l-5.58,3.22c-.24.13-.26.34,0,.46l5.34,3.09A.89.89,0,0,0,232.8,351.16Zm-8.15,4.71,5.58-3.22c.23-.14.26-.35,0-.47l-5.33-3.08a.92.92,0,0,0-.81,0l-5.58,3.23c-.24.13-.26.34-.05.46l5.34,3.09A.89.89,0,0,0,224.65,355.87ZM241,346.45l5.58-3.22c.24-.14.26-.35.05-.47l-5.34-3.08a.89.89,0,0,0-.81,0l-5.58,3.22c-.24.14-.26.34-.05.47l5.34,3.08A.89.89,0,0,0,241,346.45Zm44.5-65.5a.91.91,0,0,0,.82,0l5.58-3.22c.23-.14.25-.35,0-.47l-1.42-.82a.89.89,0,0,0-.81,0l-5.58,3.22c-.24.13-.26.34,0,.47Zm-40.53,25.66a.89.89,0,0,0,.81,0l5.58-3.22c.24-.13.26-.34.05-.47L246,299.81a.89.89,0,0,0-.81,0l-5.58,3.22c-.24.14-.26.35,0,.47Zm16.31-9.42a.89.89,0,0,0,.81,0l5.58-3.22c.24-.14.26-.35.05-.47l-5.34-3.09a.93.93,0,0,0-.81,0L256,293.64c-.24.14-.26.35,0,.47ZM235,312.36a.89.89,0,0,0,.81,0l5.58-3.22c.24-.13.26-.34,0-.47l-5.34-3.08a.89.89,0,0,0-.81,0l-5.58,3.22c-.24.14-.26.35-.05.47Zm18.11-10.46a.92.92,0,0,0,.81,0l5.58-3.23c.24-.13.26-.34,0-.46l-5.34-3.09a.89.89,0,0,0-.81,0l-5.58,3.22c-.23.14-.26.35,0,.47Zm-34.42,19.88a.89.89,0,0,0,.81,0l5.58-3.22c.24-.14.26-.35,0-.47L219.76,315a.89.89,0,0,0-.81,0l-5.58,3.22c-.24.14-.26.35-.05.47Zm8.15-4.71a.89.89,0,0,0,.81,0l5.58-3.22c.24-.14.26-.35.05-.47l-5.34-3.08a.89.89,0,0,0-.81,0l-5.58,3.22c-.24.14-.26.35-.05.47Zm42.34-26.71a.89.89,0,0,0,.81,0l5.58-3.23c.24-.13.26-.34,0-.46l-1.42-.82a.89.89,0,0,0-.81,0l-5.58,3.23c-.24.13-.26.34,0,.46Zm24.47-14.12a.89.89,0,0,0,.81,0L300,273c.24-.14.26-.35.05-.47l-1.42-.82a.89.89,0,0,0-.81,0L292.25,275c-.24.14-.26.35-.05.47Zm11.22,6.47a.89.89,0,0,0,.81,0l5.58-3.22c.23-.13.25-.34,0-.47l-5.33-3.08a.91.91,0,0,0-.82,0l-5.58,3.22c-.23.14-.25.35,0,.47Zm15.53,17.89,5.58-3.22c.24-.14.26-.35.05-.47l-5.34-3.08a.89.89,0,0,0-.81,0l-5.58,3.22c-.24.14-.26.35,0,.47l5.34,3.08A.89.89,0,0,0,320.37,300.6Zm-43.06-15a.89.89,0,0,0,.81,0l5.58-3.22c.24-.14.26-.35.05-.47l-1.42-.82a.92.92,0,0,0-.81,0l-5.58,3.23c-.24.13-.26.34-.05.46ZM210.5,326.49a.89.89,0,0,0,.81,0l5.58-3.22c.24-.14.26-.35.05-.47l-5.34-3.08a.89.89,0,0,0-.81,0l-5.58,3.22c-.24.13-.26.34-.05.47Z" style="fill:#455a64"></path><g id="freepik--tuch-pad--inject-63"><polygon points="233.86 372.9 235.07 373.6 267.3 392.2 324.62 359.11 325.81 358.43 292.37 339.13 233.86 372.9" style="fill:#263238"></polygon><polygon points="323.88 359.54 292.37 341.36 235.81 374.02 267.3 392.2 323.88 359.54" style="fill:#37474f"></polygon></g><path d="M74.82,360.9c-2.33-1.07-3-2.92-3.19-6.18L61.21,202.24a10.57,10.57,0,0,1,4.91-9l193.94-112c2.94-1.69,5.09-2.61,7.8-.76s2.76,2.88,3,6.14l10.42,152.47a10.58,10.58,0,0,1-4.91,9l-194,112C79.48,361.78,77.82,362.28,74.82,360.9Z" style="fill:#37474f"></path><path d="M270.85,86.67c-.22-3.25-2.79-4.52-5.72-2.83l-193.95,112a10.07,10.07,0,0,0-3.63,3.9l-5.06-2.55h0a10.24,10.24,0,0,1,3.64-3.9l193.94-112c2.93-1.69,5.1-2.63,7.79-.76C270.7,82.51,270.63,83.42,270.85,86.67Z" style="fill:#455a64"></path><path d="M82,360.31c-2.67,1.58-4.36,1.78-7.2.58-2.17-.91-3-2.91-3.18-6.17L61.22,202.24a9.3,9.3,0,0,1,1.27-5.06l5.06,2.52v0a9.59,9.59,0,0,0-1.27,5.06L76.7,357.26C76.9,360.28,79.51,361.79,82,360.31Z" style="fill:#263238"></path><path d="M74.55,201.65,261.2,93.92c1.76-1,3.29-.26,3.42,1.7l9.73,142.24a6.33,6.33,0,0,1-3,5.38L84.76,351c-1.76,1-3.29.25-3.43-1.7L71.61,207A6.32,6.32,0,0,1,74.55,201.65Z"></path><path d="M74.55,201.65A6.32,6.32,0,0,0,71.61,207L81.17,346.9,265.68,240.4a6.33,6.33,0,0,0,2.95-5.38L259.06,95.15Z" style="fill:#fafafa"></path></g></g><g id="freepik--Spreadsheets--inject-63"><g id="freepik--spreadsheets--inject-63"><path d="M185.67,58.68l-6-3.51-142.76,85V267.41c0,2,.72,3.48,1.88,4.15h0l3.83,2.22h0c1.16.67,2.77.57,4.55-.45l132.1-76.28a14.19,14.19,0,0,0,6.42-11.13Z" style="fill:#e6e6e6"></path><path d="M36.89,157.31v110.1c0,2,.72,3.48,1.88,4.15h0l3.83,2.22a3.31,3.31,0,0,0,1.67.42l-3.55-4.58V159.45Z" style="opacity:0.15"></path><path d="M44.28,273.47a5.16,5.16,0,0,0,2.5-.77l132.1-76.28a13.39,13.39,0,0,0,6.05-10.49V60L41.46,142.8V269.63C41.46,272,42.51,273.47,44.28,273.47Z" style="fill:#fafafa"></path><path d="M184.19,61.25V185.93a12.75,12.75,0,0,1-5.68,9.84L46.4,272.06a4.4,4.4,0,0,1-2.12.67c-1.87,0-2.07-2.17-2.07-3.1V143.23l142-82m1.48-2.57L40.72,142.37V269.63c0,2.91,1.45,4.59,3.56,4.59a5.82,5.82,0,0,0,2.87-.88l132.1-76.28a14.19,14.19,0,0,0,6.42-11.13V58.68Z" style="fill:#e0e0e0"></path><path d="M180,46.58c-1.16-.72-2.79-.64-4.6.41L43.32,123.27a14.19,14.19,0,0,0-6.43,11.12v5.76l3.83,2.22,145-83.69V52.92c0-2-.71-3.47-1.86-4.14S181.07,47.22,180,46.58Z" style="fill:#0078B6"></path><path d="M40.72,136.61a14.2,14.2,0,0,1,6.43-11.12l132.1-76.28c3.55-2.05,6.42-.39,6.42,3.71v5.76L40.72,142.37Z" style="fill:#0078B6"></path><path d="M40.72,136.61a14.2,14.2,0,0,1,6.43-11.12l132.1-76.28c3.55-2.05,6.42-.39,6.42,3.71v5.76L40.72,142.37Z" style="fill:#fff;opacity:0.30000000000000004"></path><path d="M183.88,48.81c-1.18-.72-2.81-.65-4.63.4L47.15,125.49a13,13,0,0,0-4.54,4.79l-3.84-2.21a13.17,13.17,0,0,1,4.55-4.8L175.42,47c1.81-1,3.44-1.11,4.6-.4s2.71,1.57,3.8,2.19Z" style="fill:#0078B6"></path><path d="M183.88,48.81c-1.18-.72-2.81-.65-4.63.4L47.15,125.49a13,13,0,0,0-4.54,4.79l-3.84-2.21a13.17,13.17,0,0,1,4.55-4.8L175.42,47c1.81-1,3.44-1.11,4.6-.4s2.71,1.57,3.8,2.19Z" style="fill:#fff;opacity:0.45"></path><path d="M163.24,62.89A5,5,0,0,0,161,66.78c0,1.43,1,2,2.24,1.29a5,5,0,0,0,2.25-3.88C165.49,62.76,164.48,62.18,163.24,62.89Z" style="fill:#fafafa"></path><path d="M171.09,58.37a5,5,0,0,0-2.24,3.89c0,1.43,1,2,2.24,1.29a5,5,0,0,0,2.25-3.88C173.34,58.24,172.33,57.66,171.09,58.37Z" style="fill:#fafafa"></path><path d="M178.94,53.85a5,5,0,0,0-2.24,3.89c0,1.43,1,2,2.24,1.29a4.94,4.94,0,0,0,2.24-3.88C181.18,53.72,180.18,53.14,178.94,53.85Z" style="fill:#fafafa"></path><polygon points="40.72 142.37 40.72 159.45 185.67 75.78 185.67 58.68 40.72 142.37" style="fill:#ebebeb"></polygon><polygon points="46.54 143.27 61.39 134.74 61.39 143.25 46.54 151.82 46.54 143.27" style="fill:#e0e0e0"></polygon><polygon points="65.06 132.58 65.06 135.94 72.47 131.66 72.47 128.3 65.06 132.58" style="fill:#e0e0e0"></polygon><polygon points="65.06 137.77 65.06 141.13 72.47 136.86 72.47 133.5 65.06 137.77" style="fill:#e0e0e0"></polygon><polygon points="76.17 126.16 76.17 129.53 83.57 125.25 83.57 121.89 76.17 126.16" style="fill:#e0e0e0"></polygon><polygon points="76.17 131.36 76.17 134.72 83.57 130.44 83.57 127.08 76.17 131.36" style="fill:#e0e0e0"></polygon><polygon points="87.28 119.75 87.28 123.11 94.68 118.83 94.68 115.47 87.28 119.75" style="fill:#e0e0e0"></polygon><polygon points="87.28 124.94 87.28 128.31 94.68 124.03 94.68 120.67 87.28 124.94" style="fill:#e0e0e0"></polygon><polygon points="120.6 100.51 120.6 103.87 128.01 99.6 128.01 96.23 120.6 100.51" style="fill:#e0e0e0"></polygon><polygon points="120.6 105.7 120.6 109.07 128.01 104.79 128.01 101.43 120.6 105.7" style="fill:#e0e0e0"></polygon><polygon points="131.71 94.09 131.71 97.46 139.12 93.18 139.12 89.82 131.71 94.09" style="fill:#e0e0e0"></polygon><polygon points="131.71 99.29 131.71 102.65 139.12 98.38 139.12 95.01 131.71 99.29" style="fill:#e0e0e0"></polygon><polygon points="142.82 87.68 142.82 91.04 150.22 86.77 150.22 83.4 142.82 87.68" style="fill:#e0e0e0"></polygon><polygon points="142.82 92.87 142.82 96.24 150.22 91.96 150.22 88.6 142.82 92.87" style="fill:#e0e0e0"></polygon><polygon points="98.38 113.34 116.9 102.65 116.9 111.2 98.39 121.89 98.38 113.34" style="fill:#e0e0e0"></polygon><polygon points="153.93 81.27 168.78 72.74 168.78 81.25 153.93 89.82 153.93 81.27" style="fill:#e0e0e0"></polygon><polygon points="172.45 70.58 172.45 73.94 179.85 69.67 179.85 66.3 172.45 70.58" style="fill:#e0e0e0"></polygon><polygon points="172.45 75.77 172.45 79.14 179.85 74.86 179.85 71.5 172.45 75.77" style="fill:#e0e0e0"></polygon><polygon points="40.72 142.37 36.89 140.2 36.89 157.31 40.72 159.45 40.72 142.37" style="fill:#e0e0e0"></polygon><g id="freepik--spreadsheets--inject-63"><polygon points="63.21 158.43 79.81 148.84 79.81 156.5 63.21 166.1 63.21 158.43" style="fill:#0078B6"></polygon><polygon points="63.21 219.83 79.81 210.25 79.81 217.9 63.21 227.5 63.21 219.83" style="fill:#0078B6"></polygon><polygon points="63.21 227.51 79.81 217.92 79.81 225.58 63.21 235.18 63.21 227.51" style="fill:#0078B6"></polygon><polygon points="63.21 227.51 79.81 217.92 79.81 225.58 63.21 235.18 63.21 227.51" style="fill:#fff;opacity:0.8"></polygon><polygon points="162.91 162.26 179.52 152.68 179.52 160.33 162.91 169.93 162.91 162.26" style="fill:#0078B6"></polygon><polygon points="162.91 162.26 179.52 152.68 179.52 160.33 162.91 169.93 162.91 162.26" style="fill:#fff;opacity:0.30000000000000004"></polygon><polygon points="162.91 169.94 179.52 160.35 179.52 168.01 162.91 177.61 162.91 169.94" style="fill:#0078B6"></polygon><polygon points="162.91 169.94 179.52 160.35 179.52 168.01 162.91 177.61 162.91 169.94" style="fill:#fff;opacity:0.4"></polygon><polygon points="162.91 177.62 179.52 168.03 179.52 175.69 162.91 185.29 162.91 177.62" style="fill:#0078B6"></polygon><polygon points="162.91 177.62 179.52 168.03 179.52 175.69 162.91 185.29 162.91 177.62" style="fill:#fff;opacity:0.5"></polygon><polygon points="162.91 185.29 179.52 175.71 179.52 183.36 162.91 192.96 162.91 185.29" style="fill:#0078B6"></polygon><polygon points="162.91 185.29 179.52 175.71 179.52 183.36 162.91 192.96 162.91 185.29" style="fill:#fff;opacity:0.30000000000000004"></polygon><polygon points="79.81 194.89 96.42 185.3 96.42 192.96 79.81 202.56 79.81 194.89" style="fill:#0078B6"></polygon><polygon points="79.81 194.89 96.42 185.3 96.42 192.96 79.81 202.56 79.81 194.89" style="opacity:0.30000000000000004"></polygon><polygon points="113.07 137.31 129.68 127.73 129.68 135.38 113.07 144.99 113.07 137.31" style="fill:#0078B6"></polygon><polygon points="113.07 137.31 129.68 127.73 129.68 135.38 113.07 144.99 113.07 137.31" style="fill:#fff;opacity:0.6000000000000001"></polygon><path d="M46.39,160l-.2.11V268.53L180,191.29V82.88Zm16.42,98L47,267.1v-6.7l15.81-9.13Zm0-7.65L47,259.45v-6.73l15.81-9.12Zm0-7.68L47,251.77V245l15.81-9.12Zm0-7.68L47,244.09v-6.73l15.81-9.12Zm0-7.67L47,236.42v-6.74l15.81-9.12Zm0-7.69L47,228.74V222l15.81-9.11Zm0-7.67L47,221.06v-6.73l15.81-9.12Zm0-7.67L47,213.38v-6.73l15.81-9.12Zm0-7.69L47,205.71V199l15.81-9.12Zm0-7.68L47,198v-6.73l15.81-9.11Zm0-7.67L47,190.35v-6.73l15.81-9.13Zm0-7.68L47,182.67v-6.74l15.81-9.11Zm0-7.68L47,175v-6.73l15.81-9.12Zm0-7.68L47,167.31v-6.72l15.81-9.13Zm16.62,90.2-15.81,9.12V250.8l15.81-9.12Zm0-7.65-15.81,9.12v-6.73L79.43,234Zm0-7.68-15.81,9.12v-6.74l15.81-9.12Zm0-7.68L63.62,234.5v-6.73l15.81-9.12Zm0-7.68-15.81,9.12v-6.73L79.43,211Zm0-7.67-15.81,9.12v-6.74l15.81-9.12Zm0-7.69-15.81,9.13v-6.74l15.81-9.12Zm0-7.67-15.81,9.12v-6.73l15.81-9.12Zm0-7.68-15.81,9.12v-6.73l15.81-9.13Zm0-7.68-15.81,9.13V181.7l15.81-9.12Zm0-7.68-15.81,9.12V174l15.81-9.12Zm0-7.67-15.81,9.12v-6.73l15.81-9.13Zm0-7.68L63.62,165.4v-6.74l15.81-9.12Zm0-7.68-15.81,9.12V151l15.81-9.12ZM96,238.79l-15.8,9.12V241.2L96,232.08Zm0-7.65-15.8,9.12v-6.73L96,224.41Zm0-7.68-15.8,9.12v-6.73L96,216.73Zm0-7.67-15.8,9.12v-6.74L96,209.05Zm0-7.69-15.8,9.13v-6.74L96,201.37Zm0-7.67-15.8,9.12v-6.73L96,193.7Zm0-7.68-15.8,9.12v-6.73L96,186Zm0-7.68-15.8,9.13v-6.74L96,178.34Zm0-7.68-15.8,9.12v-6.73L96,170.66Zm0-7.67-15.8,9.12v-6.73L96,163ZM96,162l-15.8,9.12v-6.74L96,155.3Zm0-7.68-15.8,9.12v-6.73L96,147.63Zm0-7.68-15.8,9.12v-6.73L96,140ZM96,139l-15.8,9.12v-6.74L96,132.27Zm16.62,90.18-15.8,9.13v-6.71l15.8-9.12Zm0-7.64-15.8,9.12v-6.74l15.8-9.12Zm0-7.69L96.86,223v-6.74l15.8-9.12Zm0-7.67-15.8,9.12v-6.73l15.8-9.12Zm0-7.68-15.8,9.12V200.9l15.8-9.13Zm0-7.68L96.86,200v-6.74l15.8-9.12Zm0-7.68-15.8,9.12v-6.73l15.8-9.12Zm0-7.67-15.8,9.12v-6.73l15.8-9.13Zm0-7.68-15.8,9.12v-6.74l15.8-9.12Zm0-7.68-15.8,9.12v-6.73l15.8-9.12Zm0-7.68-15.8,9.12v-6.73l15.8-9.12Zm0-7.67-15.8,9.12v-6.74l15.8-9.12Zm0-7.69-15.8,9.13v-6.74l15.8-9.12Zm0-7.67-15.8,9.12V131.8l15.8-9.12Zm16.62,90.2-15.8,9.12V222l15.8-9.12Zm0-7.66-15.8,9.12v-6.73l15.8-9.12Zm0-7.68-15.8,9.13v-6.74l15.8-9.12Zm0-7.68-15.8,9.13V199l15.8-9.12Zm0-7.68L113.48,198v-6.72l15.8-9.12Zm0-7.67-15.8,9.12v-6.73l15.8-9.13Zm0-7.69-15.8,9.13V176l15.8-9.12Zm0-7.67L113.48,175v-6.73l15.8-9.12Zm0-7.68-15.8,9.12V160.6l15.8-9.14Zm0-7.67-15.8,9.12v-6.74l15.8-9.12Zm0-7.69L113.48,152v-6.73l15.8-9.12Zm0-7.67-15.8,9.12v-6.73l15.8-9.12Zm0-7.68-15.8,9.12v-6.73l15.8-9.12Zm0-7.68-15.8,9.13v-6.73l15.8-9.13ZM145.9,210l-15.8,9.12v-6.71l15.8-9.12Zm0-7.66-15.8,9.13v-6.74l15.8-9.12Zm0-7.67-15.8,9.12v-6.73L145.9,188Zm0-7.68-15.8,9.12v-6.73l15.8-9.13Zm0-7.68-15.8,9.13v-6.74l15.8-9.12Zm0-7.68-15.8,9.12V174l15.8-9.12Zm0-7.67-15.8,9.12v-6.73l15.8-9.13Zm0-7.69-15.8,9.13v-6.74l15.8-9.12Zm0-7.67-15.8,9.12V151l15.8-9.12Zm0-7.68-15.8,9.12v-6.73l15.8-9.13Zm0-7.67-15.8,9.12v-6.74l15.8-9.12Zm0-7.69-15.8,9.12V128l15.8-9.12Zm0-7.68L130.1,127v-6.73l15.8-9.13Zm0-7.67-15.8,9.12v-6.73l15.8-9.12Zm16.62,90.19-15.8,9.12v-6.7l15.8-9.13Zm0-7.65-15.8,9.12v-6.74l15.8-9.12Zm0-7.68-15.8,9.13v-6.74l15.8-9.12Zm0-7.68-15.8,9.12v-6.73l15.8-9.12Zm0-7.67-15.8,9.12v-6.74l15.8-9.12Zm0-7.69-15.8,9.13v-6.74l15.8-9.12Zm0-7.67-15.8,9.12v-6.73l15.8-9.12Zm0-7.68-15.8,9.12v-6.73l15.8-9.13Zm0-7.68-15.8,9.13V141.4l15.8-9.12Zm0-7.68-15.8,9.12v-6.73l15.8-9.12Zm0-7.67-15.8,9.12v-6.73l15.8-9.13Zm0-7.68-15.8,9.12v-6.74l15.8-9.12Zm0-7.68-15.8,9.13v-6.74l15.8-9.12Zm0-7.68-15.8,9.12V103l15.8-9.12Zm16.62,90.2-15.8,9.12v-6.71l15.8-9.12Zm0-7.66-15.8,9.12v-6.73l15.8-9.12Zm0-7.67-15.8,9.12v-6.74l15.8-9.12Zm0-7.69-15.8,9.13v-6.74l15.8-9.12Zm0-7.67-15.8,9.12v-6.73l15.8-9.12Zm0-7.68-15.8,9.12v-6.73l15.8-9.13Zm0-7.68-15.8,9.13v-6.74l15.8-9.12Zm0-7.68-15.8,9.12v-6.73l15.8-9.12Zm0-7.67-15.8,9.12v-6.73l15.8-9.13Zm0-7.68-15.8,9.12v-6.74l15.8-9.12Zm0-7.68-15.8,9.12v-6.73l15.8-9.12Zm0-7.68-15.8,9.12v-6.73l15.8-9.12Zm0-7.67-15.8,9.12v-6.74L179.14,92Zm0-7.69-15.8,9.13V93.42l15.8-9.12Z" style="fill:#e0e0e0"></path></g></g></g><g id="freepik--Calculator--inject-63"><g id="freepik--calculator--inject-63"><g id="freepik--Document--inject-63"><path d="M301.81,115.85l-6-3.5-124.94,74.7V311.32c0,2,.72,3.48,1.87,4.15h0l3.83,2.22h0c1.16.67,2.77.57,4.54-.45l114.3-66a14.22,14.22,0,0,0,6.42-11.12Z" style="fill:#e6e6e6"></path><path d="M172.71,315.47h0l3.83,2.22a3.39,3.39,0,0,0,1.67.42l-3.55-4.58V189.27l-3.83-2.22V311.32C170.84,313.36,171.56,314.8,172.71,315.47Z" style="opacity:0.15"></path><path d="M178.22,317.38a5.21,5.21,0,0,0,2.5-.77L295,250.6a13.4,13.4,0,0,0,6.06-10.48v-123L175.41,189.7V313.54C175.41,316,176.46,317.38,178.22,317.38Z" style="fill:#fafafa"></path><path d="M295.42,250.49l-25.26,14.59V166.71l30.78-17.77v91C300.94,244,298.47,248.73,295.42,250.49Z" style="fill:#0078B6"></path><rect x="267.77" y="176.97" width="35.69" height="0.92" transform="translate(-50.45 166.58) rotate(-30)" style="fill:#fff"></rect><rect x="267.77" y="196.6" width="35.69" height="0.92" transform="translate(-60.27 169.21) rotate(-30)" style="fill:#fff"></rect><rect x="267.77" y="216.24" width="35.69" height="0.92" transform="translate(-70.09 171.86) rotate(-30)" style="fill:#fff"></rect><rect x="267.77" y="235.88" width="35.69" height="0.92" transform="translate(-79.91 174.49) rotate(-30)" style="fill:#fff"></rect><path d="M270.16,264.89l-89.37,51.6c-3,1.72-5.38-.11-5.38-4.07V221.49l94.75-54.7Z" style="fill:#f0f0f0"></path><rect x="165.7" y="184.79" width="144.95" height="0.92" transform="translate(-60.72 143.9) rotate(-30)" style="fill:#e0e0e0"></rect><path d="M175,241.73V221.18l32.37-18.69V223Zm.79-20.09v18.72l30.79-17.77V203.86Z" style="fill:#e0e0e0"></path><path d="M206.6,223.5V203L239,184.26v20.55Zm.79-20.09v18.72l30.79-17.78V185.63Z" style="fill:#e0e0e0"></path><path d="M238.18,205.26V184.72L270.56,166v20.55Zm.79-20.09V203.9l30.79-17.78V167.39Z" style="fill:#e0e0e0"></path><path d="M175,261.37V240.82l32.37-18.69v20.55Zm.79-20.09V260l30.79-17.78V223.5Z" style="fill:#e0e0e0"></path><path d="M206.6,243.14V222.59L239,203.9v20.55Zm.79-20.1v18.73L238.18,224V205.26Z" style="fill:#e0e0e0"></path><path d="M238.18,224.9V204.35l32.38-18.69v20.55Zm.79-20.09v18.72l30.79-17.77V187Z" style="fill:#e0e0e0"></path><path d="M175,281V260.46l32.37-18.69v20.55Zm.79-20.1v18.73l30.79-17.78V243.14Z" style="fill:#e0e0e0"></path><path d="M206.6,262.77V242.22L239,223.53v20.55Zm.79-20.09V261.4l30.79-17.77V224.9Z" style="fill:#e0e0e0"></path><path d="M238.18,244.54V224l32.38-18.69v20.55Zm.79-20.09v18.72l30.79-17.78V206.67Z" style="fill:#e0e0e0"></path><path d="M175,300.64V280.09l32.37-18.69V282Zm.79-20.09v18.73L206.6,281.5V262.77Z" style="fill:#e0e0e0"></path><path d="M206.6,282.41V261.86L239,243.17v20.55Zm.79-20.09V281l30.79-17.78V244.54Z" style="fill:#e0e0e0"></path><path d="M238.18,264.18V243.63l32.38-18.69v20.55Zm.79-20.1v18.73L269.76,245V226.3Z" style="fill:#e0e0e0"></path><path d="M178.7,317.49a3.19,3.19,0,0,1-1.6-.42c-1.32-.76-2.08-2.5-2.08-4.76V299.73L207.39,281v20.55l-26.32,15.2A4.76,4.76,0,0,1,178.7,317.49Zm-2.89-17.3v12.12c0,2,.61,3.46,1.69,4.08a3.13,3.13,0,0,0,3.18-.29l25.92-15V282.41Z" style="fill:#e0e0e0"></path><path d="M206.6,302.05V281.5L239,262.81v20.55Zm.79-20.1v18.73l30.79-17.78V264.18Z" style="fill:#e0e0e0"></path><path d="M238.18,283.81V263.26l32.38-18.69v20.55Zm.79-20.09v18.72l30.79-17.77V245.94Z" style="fill:#e0e0e0"></path><path d="M300.32,118.42v121.7a12.79,12.79,0,0,1-5.69,9.84L180.35,316a4.35,4.35,0,0,1-2.13.68c-1.87,0-2.07-2.17-2.07-3.1V190.13l124.17-71.71m1.49-2.57L174.67,189.27V313.54c0,2.9,1.45,4.58,3.55,4.58a5.85,5.85,0,0,0,2.87-.87l114.3-66a14.22,14.22,0,0,0,6.42-11.12V115.85Z" style="fill:#e0e0e0"></path><path d="M296.16,103.75c-1.17-.71-2.8-.63-4.61.41l-114.29,66a14.17,14.17,0,0,0-6.42,11.12v5.76l3.83,2.22,127.14-73.42v-5.76c0-2-.71-3.46-1.86-4.14S297.2,104.39,296.16,103.75Z" style="fill:#0078B6"></path><path d="M174.67,183.51a14.22,14.22,0,0,1,6.42-11.12l114.29-66c3.55-2,6.43-.39,6.43,3.7v5.76L174.67,189.27Z" style="fill:#0078B6"></path><path d="M174.67,183.51a14.22,14.22,0,0,1,6.42-11.12l114.29-66c3.55-2,6.43-.39,6.43,3.7v5.76L174.67,189.27Z" style="fill:#fff;opacity:0.30000000000000004"></path><path d="M300,106c-1.17-.73-2.8-.66-4.63.4l-114.28,66a13.06,13.06,0,0,0-4.54,4.8L172.71,175a13.12,13.12,0,0,1,4.56-4.8l114.28-66c1.81-1,3.44-1.12,4.6-.4s2.72,1.56,3.8,2.18C300,106,300,106,300,106Z" style="fill:#0078B6"></path><path d="M300,106c-1.17-.73-2.8-.66-4.63.4l-114.28,66a13.06,13.06,0,0,0-4.54,4.8L172.71,175a13.12,13.12,0,0,1,4.56-4.8l114.28-66c1.81-1,3.44-1.12,4.6-.4s2.72,1.56,3.8,2.18C300,106,300,106,300,106Z" style="fill:#fff;opacity:0.45"></path><path d="M279.38,120.07a4.94,4.94,0,0,0-2.24,3.88c0,1.43,1,2,2.24,1.3a5,5,0,0,0,2.24-3.89C281.62,119.93,280.62,119.35,279.38,120.07Z" style="fill:#fff"></path><path d="M287.23,115.55a4.94,4.94,0,0,0-2.24,3.88c0,1.43,1,2,2.24,1.3a5,5,0,0,0,2.24-3.89C289.47,115.41,288.47,114.83,287.23,115.55Z" style="fill:#fff"></path><path d="M295.08,111a5,5,0,0,0-2.25,3.88c0,1.43,1,2,2.25,1.3a5,5,0,0,0,2.24-3.89C297.32,110.89,296.31,110.31,295.08,111Z" style="fill:#fff"></path></g><path d="M194.54,222.64a7.38,7.38,0,0,1-3.15,4.52c-1.95,1.13-3.43.14-3.43-2.65a7.83,7.83,0,0,1,3.44-6.59c1.54-.89,2.63-.4,3.06.71l-1,1c-.27-.47-.89-1-2.06-.33a5.37,5.37,0,0,0-2.34,4.65c0,2,1,2.72,2.32,2a5.12,5.12,0,0,0,2.17-3Z" style="fill:#455a64"></path><path d="M191.26,241.63c0-.56.05-1.34,0-1.33h0s-.25.54-.38.75l-.44.86-.59-.62,1.45-2.56.94-.54v7.12l-1,.58Z" style="fill:#455a64"></path><path d="M254.51,165.35l3.89-6.08c1.33-2.13,2-3.39,2-4.61s-.65-1.93-2-1.12a4.18,4.18,0,0,0-2,3.35l-1.94.42a8.15,8.15,0,0,1,4.09-6.17c2.58-1.5,4-.56,4,2.2,0,2.43-1.11,4.3-2.86,6.9l-2.76,4.25,0,.07c.18-.1.77-.49,1.65-1l4-2.31v2.46l-8,4.62Z" style="fill:#455a64"></path><path d="M270.1,151.76c1.24-.56,2.27,0,2.27,2.18a8,8,0,0,1-4.05,6.7c-2.27,1.31-3.91.77-4.3-1.67l1.8-1.71c.25,1.44,1.11,1.83,2.45,1.06a4.2,4.2,0,0,0,2.11-3.59c0-1.44-.84-1.66-2.11-.92l-1.16.66v-2l1.08-.62a3.78,3.78,0,0,0,2.07-3.26c0-1.28-.74-1.6-2-.87a4.29,4.29,0,0,0-2.15,3.49l-1.86.39a8.26,8.26,0,0,1,4.21-6.24c2.56-1.48,3.82-.69,3.82,1.61a6,6,0,0,1-2.16,4.66Z" style="fill:#455a64"></path><path d="M282.69,144.75c0,5-1.68,8.56-4.44,10.16s-4.47,0-4.47-5,1.69-8.56,4.47-10.17S282.69,139.74,282.69,144.75Zm-6.85,3.95c0,3.45.74,4.66,2.41,3.7s2.38-3,2.38-6.46-.74-4.66-2.38-3.71S275.84,145.23,275.84,148.7Z" style="fill:#455a64"></path><path d="M289.46,148.15v-3.58L284,147.7v-2.43l4.38-11.14,3.1-1.78v8.71l1.58-.91v2.32l-1.58.92V147Zm0-12.48-.08.05-3.42,8.5,0,0,1.64-.95,1.82-1.05v-6.58Z" style="fill:#455a64"></path><path d="M220.92,227.33l1.9-3a4.56,4.56,0,0,0,1-2.24c0-.61-.31-.94-1-.55a2,2,0,0,0-1,1.64l-.95.2a4,4,0,0,1,2-3c1.26-.73,1.94-.27,1.94,1.08a5.92,5.92,0,0,1-1.39,3.35l-1.34,2.08v0c.09-.05.38-.24.81-.49l1.94-1.12v1.19l-3.9,2.26Z" style="fill:#455a64"></path><path d="M255.36,205.21c.6-.27,1.1,0,1.1,1.06a3.9,3.9,0,0,1-2,3.27c-1.11.64-1.91.37-2.1-.81l.88-.84c.12.7.54.89,1.19.52a2.06,2.06,0,0,0,1-1.75c0-.7-.41-.81-1-.45l-.56.32v-1l.52-.3a1.84,1.84,0,0,0,1-1.59c0-.62-.36-.78-1-.43a2.09,2.09,0,0,0-1,1.7l-.91.2a4,4,0,0,1,2-3c1.25-.73,1.86-.34,1.86.78a3,3,0,0,1-1,2.27Z" style="fill:#455a64"></path><path d="M191.65,264.51v-1.74L189,264.3v-1.18l2.14-5.43,1.51-.87v4.24l.77-.44v1.13l-.77.44v1.75Zm0-6.07,0,0L190,262.6l0,0,.8-.47.88-.51v-3.2Z" style="fill:#455a64"></path><path d="M222,242.88a3.1,3.1,0,0,1,1.06-1.11c1.16-.67,1.85-.1,1.85,1.27a4.22,4.22,0,0,1-2,3.6c-1.09.63-1.84.29-2-.71l.87-.79c.11.58.53.76,1.13.41a2.26,2.26,0,0,0,1.09-2c0-.83-.43-1.09-1.12-.69a2.25,2.25,0,0,0-1,1.23l-.82.19.51-4.15,3-1.75v1.25L222.16,241l-.12,1c-.06.49-.11.82-.12.86Z" style="fill:#455a64"></path><path d="M253.73,224.59a2.47,2.47,0,0,1,1-1.06c1-.58,1.78-.13,1.78,1.23a4.34,4.34,0,0,1-2.09,3.66c-1.19.69-2.08.3-2.08-1.35a7.88,7.88,0,0,1,.82-3.09l1.23-2.8,1.07-.62-1.75,4Zm1.83.68c0-.81-.43-1.08-1.13-.67a2.25,2.25,0,0,0-1.12,2c0,.84.44,1.11,1.12.72A2.35,2.35,0,0,0,255.56,225.27Z" style="fill:#455a64"></path><path d="M190.75,283.88l-1,.59,1.93-5.66c.29-.86.58-1.62.58-1.63l0,0-.7.42-2.27,1.31v-1.25l4.12-2.37v1Z" style="fill:#455a64"></path><path d="M221.94,262.13v0c-.29.11-.95,0-.95-1a3.65,3.65,0,0,1,1.85-3c1.15-.66,1.84-.21,1.84.82a3,3,0,0,1-.94,2.14v0c.55-.18,1.19,0,1.19,1.11a4,4,0,0,1-2.07,3.29c-1.33.77-2.1.34-2.1-.88A3.33,3.33,0,0,1,221.94,262.13Zm.9,2.36a2.14,2.14,0,0,0,1.12-1.81c0-.74-.45-.87-1.12-.48a2.11,2.11,0,0,0-1.13,1.78C221.71,264.73,222.18,264.87,222.84,264.49Zm0-3.42a1.91,1.91,0,0,0,1-1.58c0-.62-.39-.79-1-.45a1.88,1.88,0,0,0-1,1.57C221.86,261.27,222.28,261.39,222.84,261.07Z" style="fill:#455a64"></path><path d="M255.13,243.75a2.43,2.43,0,0,1-1,1.05c-1.09.63-1.81,0-1.81-1.26a4.48,4.48,0,0,1,2.1-3.69c1.15-.66,2.1-.32,2.1,1.36a8.39,8.39,0,0,1-1.08,3.63l-1.1,2.32-1.12.64,1.93-4Zm-1.85-.71c0,1,.51,1,1.14.68a2.29,2.29,0,0,0,1.13-2c0-.94-.51-1.07-1.13-.7A2.29,2.29,0,0,0,253.28,243Z" style="fill:#455a64"></path><path d="M193.11,296.74l-1.38.8v2.1l-.94.54v-2.1l-1.39.81v-1.17l1.39-.81v-2.08l.94-.54v2.08l1.38-.8Zm0,3.45v1.17l-3.71,2.14v-1.17Z" style="fill:#455a64"></path><path d="M225,279.38c0,2.44-.82,4.17-2.16,4.95s-2.18,0-2.18-2.44.82-4.18,2.18-5S225,276.94,225,279.38Zm-3.34,1.93c0,1.68.37,2.27,1.18,1.8S224,281.64,224,280s-.36-2.27-1.16-1.81S221.67,279.62,221.67,281.31Z" style="fill:#455a64"></path><path d="M253.8,265.67a1.3,1.3,0,0,1,.62-1.11c.4-.23.61,0,.61.4a1.28,1.28,0,0,1-.61,1.11C254,266.31,253.8,266.09,253.8,265.67Z" style="fill:#455a64"></path><path d="M252.36,182.83a1.27,1.27,0,0,1,.61-.21.69.69,0,0,1,.44.11.79.79,0,0,1,.26.35,1.72,1.72,0,0,1,.11.52c0,.21,0,.44,0,.69s0,.49,0,.72a3.07,3.07,0,0,1-.11.64,3.12,3.12,0,0,1-.26.66,2.86,2.86,0,0,1-.44.61,2.48,2.48,0,0,1-.61.49,1.51,1.51,0,0,1-.61.22.68.68,0,0,1-.43-.11.74.74,0,0,1-.27-.35,1.72,1.72,0,0,1-.11-.52c0-.21,0-.44,0-.69s0-.49,0-.72a3.07,3.07,0,0,1,.11-.64,2.94,2.94,0,0,1,.27-.67,3.55,3.55,0,0,1,.43-.61A2.43,2.43,0,0,1,252.36,182.83Zm3.83-1.9a1,1,0,0,1,.14-.26.51.51,0,0,1,.2-.18l.57-.33a.16.16,0,0,1,.17,0s.06.07.06.15a.23.23,0,0,1,0,.07.16.16,0,0,1,0,.09l-4.71,11a1.17,1.17,0,0,1-.14.25.61.61,0,0,1-.2.19l-.57.33c-.07,0-.13.05-.17,0s-.06-.07-.06-.14a.17.17,0,0,1,0-.07.19.19,0,0,1,0-.1Zm-3.32,4.48s0-.14,0-.25v-.68c0-.11,0-.19,0-.24a.59.59,0,0,0-.13-.36c-.07-.08-.19-.06-.38,0a.91.91,0,0,0-.38.4,1.46,1.46,0,0,0-.12.51s0,.13,0,.25v.68c0,.11,0,.19,0,.24a.59.59,0,0,0,.12.36c.07.07.2.06.38-.05a.79.79,0,0,0,.38-.39A1.48,1.48,0,0,0,252.87,185.41Zm3.62-.5a1.27,1.27,0,0,1,.61-.21.71.71,0,0,1,.44.11.79.79,0,0,1,.26.35,1.72,1.72,0,0,1,.11.52c0,.21,0,.44,0,.69s0,.49,0,.72a3.07,3.07,0,0,1-.11.64,3.12,3.12,0,0,1-.26.66,3.26,3.26,0,0,1-.44.61,2.48,2.48,0,0,1-.61.49,1.34,1.34,0,0,1-.61.21.62.62,0,0,1-.43-.1.74.74,0,0,1-.27-.35,1.72,1.72,0,0,1-.11-.52c0-.21,0-.44,0-.69s0-.49,0-.72a3.07,3.07,0,0,1,.11-.64,2.94,2.94,0,0,1,.27-.67,3.55,3.55,0,0,1,.43-.61A2.43,2.43,0,0,1,256.49,184.91Zm.51,2.58c0-.05,0-.14,0-.25v-.68c0-.11,0-.19,0-.24a.59.59,0,0,0-.13-.36c-.07-.08-.19-.06-.38,0a.91.91,0,0,0-.38.4,1.46,1.46,0,0,0-.12.5c0,.06,0,.14,0,.25v.69c0,.11,0,.19,0,.23a.55.55,0,0,0,.12.36c.07.08.2.07.38,0a.84.84,0,0,0,.38-.39A1.48,1.48,0,0,0,257,187.49Z" style="fill:#455a64"></path><path d="M283.81,170.59v-1.17l3.71-2.14v1.17Zm1.25-3.74a1.26,1.26,0,0,1,.62-1.1c.4-.24.61,0,.61.39a1.28,1.28,0,0,1-.61,1.12C285.27,167.5,285.06,167.27,285.06,166.85Zm0,4.82a1.29,1.29,0,0,1,.62-1.11c.4-.23.61,0,.61.4a1.31,1.31,0,0,1-.61,1.13C285.27,172.33,285.06,172.09,285.06,171.67Z" style="fill:#fafafa"></path><path d="M286.28,189.55c-.45-.53-.66-.81-.67-.8h0s-.22.52-.66,1.59l-.79,1.93-1.13.66,2-4.81-1.85-2.4,1.19-.69.68.88c.45.57.67.86.68.85h0s.24-.59.69-1.7l.64-1.59,1.09-.63-1.87,4.55,2,2.47-1.21.7Z" style="fill:#fafafa"></path><path d="M283.81,208.25v-1.17l3.71-2.15v1.17Z" style="fill:#fafafa"></path><path d="M286.14,225.73v2l-.93.53v-2l-1.39.8v-1.16l1.39-.81v-2l.93-.53v2l1.38-.8v1.17Z" style="fill:#fafafa"></path><path d="M283.81,244.61v-1.17l3.71-2.14v1.17Zm0,2.54V246l3.71-2.14V245Z" style="fill:#fafafa"></path><path d="M219.84,211a.44.44,0,0,1-.33-.15l-3-3.22a.46.46,0,0,1-.09-.5l3-6.7a.48.48,0,0,1,.19-.21l9.87-5.69a.43.43,0,0,1,.46,0,.45.45,0,0,1,.23.39v9.92a.46.46,0,0,1-.23.4l-9.87,5.69A.48.48,0,0,1,219.84,211Zm-2.47-3.77,2.56,2.73,9.32-5.38v-8.86l-9.05,5.22Z" style="fill:#455a64"></path><path d="M225.6,204.56a.46.46,0,0,1-.27-.09l-2.71-2a.47.47,0,0,1-.09-.65.46.46,0,0,1,.64-.09l2.71,2.05a.46.46,0,0,1-.28.82Z" style="fill:#455a64"></path><path d="M222.9,206.13a.39.39,0,0,1-.21-.06.44.44,0,0,1-.2-.61l2.71-5.17a.45.45,0,0,1,.62-.2.46.46,0,0,1,.19.62l-2.71,5.17A.45.45,0,0,1,222.9,206.13Z" style="fill:#455a64"></path></g></g><g id="freepik--speech-bubble--inject-63"><g id="freepik--speech-bubble--inject-63"><g id="freepik--speech-bubble--inject-63"><path d="M229.2,71.35,221.25,76l3.15,7.1a.79.79,0,0,0,.31.34L227.44,85a.72.72,0,0,0,1.06-.42l3.43-11.62Z" style="fill:#0078B6"></path><path d="M229.2,71.35,221.25,76l3.15,7.1a.79.79,0,0,0,.31.34L227.44,85a.72.72,0,0,0,1.06-.42l3.43-11.62Z" style="opacity:0.15"></path><path d="M224,77.54l3.16,7.1a.73.73,0,0,0,1.36-.09l3.43-11.62Z" style="fill:#0078B6"></path><path d="M240.41,22.36l-32.85,19a1.69,1.69,0,0,0-.75,1.31V83.39a1.65,1.65,0,0,0,.76,1.3l2.7,1.51a1.67,1.67,0,0,0,1.51,0l32.85-19a1.64,1.64,0,0,0,.75-1.3V25.16a1.64,1.64,0,0,0-.75-1.29l-2.71-1.52A1.71,1.71,0,0,0,240.41,22.36Z" style="fill:#0078B6"></path><path d="M245.37,25c-.05-.38-.36-.52-.74-.3l-32.85,19a1.62,1.62,0,0,0-.53.57l-4.2-2.4a1.42,1.42,0,0,1,.52-.54l32.84-19a1.69,1.69,0,0,1,1.52,0l2.7,1.51A1.66,1.66,0,0,1,245.37,25Z" style="fill:#fff;opacity:0.5"></path><path d="M211,85.76V45a1.69,1.69,0,0,1,.75-1.31l32.85-19c.42-.24.75-.05.75.43V65.93a1.64,1.64,0,0,1-.75,1.3l-32.85,19C211.37,86.44,211,86.24,211,85.76Z" style="fill:#0078B6"></path><path d="M211.78,86.2a1.74,1.74,0,0,1-1.51,0l-2.7-1.52a1.64,1.64,0,0,1-.76-1.3V42.63a1.51,1.51,0,0,1,.24-.77l4.2,2.4A1.47,1.47,0,0,0,211,45V85.76C211,86.2,211.34,86.45,211.78,86.2Z" style="opacity:0.15"></path></g><path d="M224.82,47.16c0,.79.06,1.49.06,2.11s0,1.31-.06,2.08a11.32,11.32,0,0,1-1.36,4.9,8.43,8.43,0,0,1-3.18,3.37c-1.31.75-2.37.86-3.18.3s-1.27-1.66-1.36-3.33c0-.73-.06-1.4-.06-2s0-1.34.06-2.17A11.28,11.28,0,0,1,217,47.5a8.36,8.36,0,0,1,3.25-3.41c1.38-.8,2.47-.91,3.25-.35S224.74,45.45,224.82,47.16Zm8-9.13a5.49,5.49,0,0,1,.41-.84,1.71,1.71,0,0,1,.6-.56L236.71,35c.2-.12.36-.14.49-.05a.61.61,0,0,1,.18.52,1.11,1.11,0,0,1,0,.23c0,.1,0,.2-.08.31L223.42,72a5,5,0,0,1-.4.83,1.6,1.6,0,0,1-.61.57l-2.91,1.68a.45.45,0,0,1-.49,0,.63.63,0,0,1-.18-.52,1.29,1.29,0,0,1,0-.24,1.22,1.22,0,0,1,.08-.3Zm-13.41,16.7a2.38,2.38,0,0,0,.24,1.07c.13.24.35.27.67.09A1.52,1.52,0,0,0,221,55a4.51,4.51,0,0,0,.24-1.34c.07-1.65.07-3.2,0-4.66A2.38,2.38,0,0,0,221,48c-.13-.24-.35-.27-.67-.08a1.47,1.47,0,0,0-.67.86,4.57,4.57,0,0,0-.24,1.34C219.3,51.61,219.3,53.16,219.37,54.73Zm21.43-1.51c0,.78.06,1.49.06,2.1s0,1.32-.06,2.09a11.22,11.22,0,0,1-1.36,4.9,8.43,8.43,0,0,1-3.18,3.37q-1.95,1.13-3.18.3c-.81-.55-1.26-1.66-1.36-3.33,0-.73-.05-1.4-.05-2s0-1.34.05-2.17A11.47,11.47,0,0,1,233,53.55a8.39,8.39,0,0,1,3.25-3.4c1.39-.8,2.47-.92,3.25-.35S240.73,51.51,240.8,53.22Zm-5.45,7.57a2.69,2.69,0,0,0,.24,1.07c.13.24.36.27.67.08a1.53,1.53,0,0,0,.68-.86,4.93,4.93,0,0,0,.23-1.34,45.22,45.22,0,0,0,0-4.66,2.54,2.54,0,0,0-.23-1.07c-.14-.24-.36-.27-.68-.09a1.57,1.57,0,0,0-.67.87,5.25,5.25,0,0,0-.24,1.34C235.28,57.67,235.28,59.22,235.35,60.79Z" style="fill:#fafafa"></path></g></g><g id="freepik--Clipboard--inject-63"><g id="freepik--clipboard--inject-63"><g id="freepik--Board--inject-63"><g id="freepik--Window--inject-63"><path d="M324.87,18.66,461.3,97.33a5.64,5.64,0,0,1,2.55,4.42V327.27a5.62,5.62,0,0,1-2.55,4.41l-.52.29a5.65,5.65,0,0,1-5.11,0L319.24,253.19a5.66,5.66,0,0,1-2.55-4.42V23.36A5.59,5.59,0,0,1,319.24,19l.52-.3A5.68,5.68,0,0,1,324.87,18.66Z" style="fill:#0078B6"></path><path d="M324.87,18.66,461.3,97.33a5.64,5.64,0,0,1,2.55,4.42V327.27a5.62,5.62,0,0,1-2.55,4.41l-.52.29a5.65,5.65,0,0,1-5.11,0L319.24,253.19a5.66,5.66,0,0,1-2.55-4.42V23.36A5.59,5.59,0,0,1,319.24,19l.52-.3A5.68,5.68,0,0,1,324.87,18.66Z" style="opacity:0.45"></path><path d="M316.69,249c0,2.24,1.57,3.67,3.52,4.79L454.7,331.38c1.94,1.13,3.52.22,3.52-2V106.08h0a7,7,0,0,0-3.51-6.08L320.22,22.33a2.35,2.35,0,0,0-3.53,2h0Z" style="fill:#0078B6"></path><path d="M316.69,249c0,2.24,1.57,3.67,3.52,4.79L454.7,331.38c1.94,1.13,3.52.22,3.52-2V106.08h0a7,7,0,0,0-3.51-6.08L320.22,22.33a2.35,2.35,0,0,0-3.53,2h0Z" style="opacity:0.30000000000000004"></path><path d="M316.68,23.36v1a2.36,2.36,0,0,1,3.54-2L454.71,100a6.89,6.89,0,0,1,2.57,2.57.25.25,0,0,1,0,.07l5.82-3.36a5.3,5.3,0,0,0-1.84-1.94L324.87,18.66a5.65,5.65,0,0,0-5.11,0l-.51.3A5.59,5.59,0,0,0,316.68,23.36Z" style="fill:#0078B6"></path><path d="M316.68,23.36v1a2.36,2.36,0,0,1,3.54-2L454.71,100a6.89,6.89,0,0,1,2.57,2.57.25.25,0,0,1,0,.07l5.82-3.36a5.3,5.3,0,0,0-1.84-1.94L324.87,18.66a5.65,5.65,0,0,0-5.11,0l-.51.3A5.59,5.59,0,0,0,316.68,23.36Z" style="opacity:0.2"></path></g></g><path id="freepik--shadow--inject-63" d="M320,243.75c0,2.31,1.62,3.78,3.63,4.94l127.11,73.38c2,1.16,3.63.22,3.63-2.1V119.09h0a7.22,7.22,0,0,0-3.61-6.26L323.65,39.41a2.42,2.42,0,0,0-3.64,2.1V243.75Z" style="opacity:0.25"></path><g id="freepik--Form--inject-63"><g id="freepik--Paper--inject-63"><path d="M451.1,115.56,324.46,42.44a2.44,2.44,0,0,0-2.17,0l-1.22.71A2.38,2.38,0,0,0,320,45V247.79a2.41,2.41,0,0,0,1.09,1.88l126.64,73.11a2.37,2.37,0,0,0,2.17,0l1.22-.7a2.4,2.4,0,0,0,1.08-1.88V117.44A2.4,2.4,0,0,0,451.1,115.56Z" style="fill:#f5f5f5"></path><path d="M448,322.9a1.68,1.68,0,0,0,.4.11l.21,0a3.69,3.69,0,0,0,.66,0,1.82,1.82,0,0,0,.4-.11l.24-.11,1.22-.71a2.38,2.38,0,0,0,1.08-1.87V117.44a2.11,2.11,0,0,0-.32-1.06l-3.38,2a2.3,2.3,0,0,1,.31,1.07V322.16C448.79,322.75,448.44,323,448,322.9Z" style="fill:#e0e0e0"></path><path d="M321.07,43.15l1.22-.71a2.44,2.44,0,0,1,2.17,0L451.1,115.56a2.4,2.4,0,0,1,1.08,1.88v13.67l-3.39,2L320,58.71V45A2.38,2.38,0,0,1,321.07,43.15Z" style="fill:#0078B6"></path><path d="M321.07,43.15l1.22-.71a2.44,2.44,0,0,1,2.17,0L451.1,115.56a2.4,2.4,0,0,1,1.08,1.88v13.67l-3.39,2L320,58.71V45A2.38,2.38,0,0,1,321.07,43.15Z" style="fill:#fff;opacity:0.4"></path><path d="M320,44.7c.14-.44.55-.59,1.05-.3l126.64,73.12a2.15,2.15,0,0,1,.77.81l3.38-2a2.13,2.13,0,0,0-.76-.81L324.45,42.44a2.35,2.35,0,0,0-2.16,0l-1.22.71A2.41,2.41,0,0,0,320,44.7Z" style="fill:#0078B6"></path><path d="M320,44.7c.14-.44.55-.59,1.05-.3l126.64,73.12a2.15,2.15,0,0,1,.77.81l3.38-2a2.13,2.13,0,0,0-.76-.81L324.45,42.44a2.35,2.35,0,0,0-2.16,0l-1.22.71A2.41,2.41,0,0,0,320,44.7Z" style="fill:#fff;opacity:0.6000000000000001"></path><path d="M452.18,117.44v13.68l-3.39,2V119.39a2.26,2.26,0,0,0-.31-1.06l3.38-2A2.17,2.17,0,0,1,452.18,117.44Z" style="fill:#0078B6"></path></g><g id="freepik--Forms--inject-63"><polygon points="443.51 136.75 416.39 121.09 416.39 123.7 443.51 139.36 443.51 136.75" style="fill:#0078B6"></polygon><polygon points="443.51 141.97 402.82 118.48 402.82 121.09 443.51 144.58 443.51 141.97" style="fill:#0078B6"></polygon><polygon points="443.51 147.19 407.35 126.31 407.35 128.92 443.51 149.8 443.51 147.19" style="fill:#0078B6"></polygon><path d="M339.85,76.71a1.09,1.09,0,0,1,.4.46,1.42,1.42,0,0,1,.17.63v3a.52.52,0,0,1-.17.44.33.33,0,0,1-.4,0l-3.74-2.15V93.59a.53.53,0,0,1-.17.44.35.35,0,0,1-.4,0l-2.78-1.6a1,1,0,0,1-.4-.46,1.31,1.31,0,0,1-.17-.64V76.81l-3.74-2.15a1.09,1.09,0,0,1-.4-.46,1.43,1.43,0,0,1-.17-.64v-3a.51.51,0,0,1,.17-.43.33.33,0,0,1,.4,0Z" style="fill:#0078B6"></path><path d="M348.69,81.82a1.64,1.64,0,0,1,.65.68,3.72,3.72,0,0,1,.31.8l4.62,20.49a2.12,2.12,0,0,1,.09.47.43.43,0,0,1-.14.36.28.28,0,0,1-.33,0l-2.67-1.55a1.45,1.45,0,0,1-.61-.59,2,2,0,0,1-.22-.59l-.59-2.69-5.65-3.26-.59,2a.58.58,0,0,1-.23.33c-.12.09-.32.06-.6-.1l-2.67-1.55a.86.86,0,0,1-.33-.37,1.16,1.16,0,0,1-.14-.52,1.18,1.18,0,0,1,.09-.38l4.62-15.15a1,1,0,0,1,.31-.44c.15-.12.36-.1.64.06Zm-3.44,10.37,3.44,2L347,86.4Z" style="fill:#0078B6"></path><path d="M362.1,103.62l-2.72,3.52a1.11,1.11,0,0,1-.28.29c-.11.07-.3,0-.59-.14l-3.22-1.86a.9.9,0,0,1-.33-.38,1.13,1.13,0,0,1-.14-.52s0-.07,0-.12a.77.77,0,0,1,.06-.15l4.9-6.31-4.69-11.5a1.35,1.35,0,0,1-.07-.35.43.43,0,0,1,.14-.36.27.27,0,0,1,.33,0l3.2,1.85a1.42,1.42,0,0,1,.62.64l.28.58,2.56,6.26,2.48-3.35c.06-.06.15-.15.28-.26s.33-.09.62.07l3.24,1.88a.81.81,0,0,1,.33.37,1.16,1.16,0,0,1,.14.52.54.54,0,0,1-.07.27l-4.71,6.19,4.86,11.83a1.89,1.89,0,0,1,.06.21c0,.06,0,.1,0,.14a.43.43,0,0,1-.14.36.29.29,0,0,1-.33,0l-3.23-1.86a1.46,1.46,0,0,1-.58-.54,4.9,4.9,0,0,1-.28-.61Z" style="fill:#0078B6"></path><polygon points="443.51 244.8 327.27 177.69 327.27 184.4 443.51 251.51 443.51 244.8" style="fill:#0078B6"></polygon><polygon points="443.51 244.8 327.27 177.69 327.27 184.4 443.51 251.51 443.51 244.8" style="fill:#fff;opacity:0.4"></polygon><path d="M328,185.43l114.81,66.29v8.87L328,194.31v-8.88m-.71-1v10.12l116.24,67.11V251.51L327.27,184.4Z" style="fill:#0078B6"></path><polygon points="404.48 238.95 405.2 239.05 405.2 229.62 404.48 229.52 404.48 238.95" style="fill:#0078B6"></polygon><polygon points="366.15 216.81 366.86 216.92 366.86 207.44 366.15 207.34 366.15 216.81" style="fill:#0078B6"></polygon><path d="M328,194.93l114.81,66.29v8.87L328,203.81v-8.88m-.71-1V204l116.24,67.11V261L327.27,193.9Z" style="fill:#0078B6"></path><polygon points="404.48 248.45 405.2 248.55 405.2 239.12 404.48 239.02 404.48 248.45" style="fill:#0078B6"></polygon><polygon points="366.15 226.31 366.86 226.41 366.86 216.94 366.15 216.84 366.15 226.31" style="fill:#0078B6"></polygon><path d="M328,204.43l114.81,66.29v8.87L328,213.31v-8.88m-.71-1v10.13l116.24,67.11V270.51L327.27,203.39Z" style="fill:#0078B6"></path><polygon points="404.48 257.94 405.2 258.05 405.2 248.62 404.48 248.52 404.48 257.94" style="fill:#0078B6"></polygon><polygon points="366.15 235.81 366.86 235.91 366.86 226.44 366.15 226.33 366.15 235.81" style="fill:#0078B6"></polygon><path d="M328,213.93l114.81,66.29v8.87L328,222.8v-8.87m-.71-1V223l116.24,67.12V280L327.27,212.89Z" style="fill:#0078B6"></path><polygon points="404.48 267.44 405.2 267.55 405.2 258.12 404.48 258.02 404.48 267.44" style="fill:#0078B6"></polygon><polygon points="366.15 245.31 366.86 245.41 366.86 235.93 366.15 235.83 366.15 245.31" style="fill:#0078B6"></polygon><path d="M328,231.14l38.17,22v11.77l-38.17-22V231.14m-.71-1.24v13.42l39.59,22.85V252.74L327.27,229.9Z" style="fill:#0078B6"></path><polygon points="443.51 304.36 384.79 270.45 384.79 276.11 443.51 310.01 443.51 304.36" style="fill:#0078B6"></polygon><polygon points="378.68 164.87 327.27 135.19 327.27 141.9 378.68 171.58 378.68 164.87" style="fill:#0078B6"></polygon><polygon points="378.68 164.87 327.27 135.19 327.27 141.9 378.68 171.58 378.68 164.87" style="fill:#fff;opacity:0.4"></polygon><path d="M333.47,155.27l-4.08-2.35v-5.36l4.08,2.36Zm-3.59-2.63,3.11,1.79V150.2l-3.11-1.8Z" style="fill:#0078B6"></path><path d="M333.47,165.26l-4.08-2.36v-5.35l4.08,2.35Zm-3.59-2.64,3.11,1.8v-4.24l-3.11-1.79Z" style="fill:#0078B6"></path><path d="M333.47,175.25l-4.08-2.36v-5.36l4.08,2.36Zm-3.59-2.64,3.11,1.8v-4.24l-3.11-1.8Z" style="fill:#0078B6"></path><path d="M376.66,176.62a.29.29,0,0,1-.18-.05l-40.6-23.43a.37.37,0,1,1,.37-.63L376.84,176a.36.36,0,0,1,.13.49A.34.34,0,0,1,376.66,176.62Z" style="fill:#e0e0e0"></path><path d="M376.66,179.16a.37.37,0,0,1-.18,0l-40.6-23.44a.36.36,0,0,1-.13-.49.35.35,0,0,1,.5-.13l40.59,23.43a.37.37,0,0,1-.18.68Z" style="fill:#e0e0e0"></path><path d="M376.66,186.61a.37.37,0,0,1-.18-.05l-40.6-23.44a.36.36,0,0,1-.13-.49.36.36,0,0,1,.5-.14l40.59,23.44a.37.37,0,0,1-.18.68Z" style="fill:#e0e0e0"></path><path d="M376.66,189.15a.37.37,0,0,1-.18-.05l-40.6-23.44a.37.37,0,1,1,.37-.63l40.59,23.44a.36.36,0,0,1,.13.49A.35.35,0,0,1,376.66,189.15Z" style="fill:#e0e0e0"></path><path d="M376.66,196.6a.37.37,0,0,1-.18,0l-40.6-23.44a.37.37,0,0,1,.37-.63l40.59,23.44a.36.36,0,0,1,.13.49A.35.35,0,0,1,376.66,196.6Z" style="fill:#e0e0e0"></path><path d="M376.66,199.13a.29.29,0,0,1-.18,0l-40.6-23.43a.37.37,0,1,1,.37-.63l40.59,23.43a.37.37,0,0,1,.13.5A.34.34,0,0,1,376.66,199.13Z" style="fill:#e0e0e0"></path><polygon points="443.51 202.3 392.1 172.62 392.1 179.33 443.51 209.01 443.51 202.3" style="fill:#0078B6"></polygon><polygon points="443.51 202.3 392.1 172.62 392.1 179.33 443.51 209.01 443.51 202.3" style="fill:#fff;opacity:0.4"></polygon><path d="M398.31,192.71l-4.08-2.36V185l4.08,2.36Zm-3.6-2.64,3.11,1.8v-4.24l-3.11-1.8Z" style="fill:#0078B6"></path><path d="M398.31,202.69l-4.08-2.35V195l4.08,2.36Zm-3.6-2.63,3.11,1.79v-4.23l-3.11-1.8Z" style="fill:#0078B6"></path><path d="M398.31,212.68l-4.08-2.36V205l4.08,2.35Zm-3.6-2.64,3.11,1.8V207.6l-3.11-1.8Z" style="fill:#0078B6"></path><path d="M441.49,214.05a.39.39,0,0,1-.18,0l-40.59-23.44a.36.36,0,0,1-.14-.5.37.37,0,0,1,.5-.13l40.6,23.44a.36.36,0,0,1-.19.67Z" style="fill:#e0e0e0"></path><path d="M441.49,216.59a.31.31,0,0,1-.18-.05l-40.59-23.43a.37.37,0,0,1-.14-.5.37.37,0,0,1,.5-.13l40.6,23.43a.37.37,0,0,1,.13.5A.36.36,0,0,1,441.49,216.59Z" style="fill:#e0e0e0"></path><path d="M441.49,224a.31.31,0,0,1-.18,0l-40.59-23.43a.37.37,0,0,1-.14-.5.37.37,0,0,1,.5-.13l40.6,23.43a.37.37,0,0,1,.13.5A.36.36,0,0,1,441.49,224Z" style="fill:#e0e0e0"></path><path d="M441.49,226.58a.41.41,0,0,1-.18-.05l-40.59-23.44a.35.35,0,0,1-.14-.49.37.37,0,0,1,.5-.14l40.6,23.44a.37.37,0,0,1,.13.5A.38.38,0,0,1,441.49,226.58Z" style="fill:#e0e0e0"></path><path d="M441.49,234a.41.41,0,0,1-.18-.05l-40.59-23.44a.35.35,0,0,1-.14-.49.37.37,0,0,1,.5-.14l40.6,23.44a.37.37,0,0,1,.13.5A.38.38,0,0,1,441.49,234Z" style="fill:#e0e0e0"></path><path d="M441.49,236.56a.39.39,0,0,1-.18,0l-40.59-23.44a.36.36,0,0,1-.14-.5.37.37,0,0,1,.5-.13l40.6,23.44a.36.36,0,0,1-.19.67Z" style="fill:#e0e0e0"></path><polygon points="443.51 177.42 327.27 110.31 327.27 117.02 443.51 184.13 443.51 177.42" style="fill:#0078B6"></polygon><polygon points="443.51 177.42 327.27 110.31 327.27 117.02 443.51 184.13 443.51 177.42" style="fill:#fff;opacity:0.4"></polygon><path d="M384.79,155.56a.41.41,0,0,1-.19-.05l-55.15-31.84a.37.37,0,1,1,.37-.63L385,154.88a.37.37,0,0,1,.13.5A.38.38,0,0,1,384.79,155.56Z" style="fill:#e0e0e0"></path><path d="M440.76,191.8a.39.39,0,0,1-.18,0L329.45,127.6a.37.37,0,1,1,.37-.63l111.12,64.16a.34.34,0,0,1,.13.49A.33.33,0,0,1,440.76,191.8Z" style="fill:#e0e0e0"></path><path d="M440.76,195.5a.31.31,0,0,1-.18-.05L329.45,131.3a.37.37,0,0,1-.13-.5.37.37,0,0,1,.5-.13l111.12,64.16a.34.34,0,0,1,.13.49A.33.33,0,0,1,440.76,195.5Z" style="fill:#e0e0e0"></path><path d="M384.79,129.73a.41.41,0,0,1-.19,0L329.45,97.84a.37.37,0,1,1,.37-.63L385,129.05a.37.37,0,0,1,.13.5A.38.38,0,0,1,384.79,129.73Z" style="fill:#e0e0e0"></path><path d="M440.76,166a.39.39,0,0,1-.18,0L329.45,101.77a.37.37,0,1,1,.37-.63L440.94,165.3a.34.34,0,0,1,.13.49A.33.33,0,0,1,440.76,166Z" style="fill:#e0e0e0"></path><path d="M440.76,169.67a.31.31,0,0,1-.18,0L329.45,105.47a.37.37,0,0,1-.13-.5.37.37,0,0,1,.5-.13L440.94,169a.34.34,0,0,1,.13.49A.33.33,0,0,1,440.76,169.67Z" style="fill:#e0e0e0"></path></g></g><g id="freepik--Clip--inject-63"><g id="freepik--shadow--inject-63" style="opacity:0.25"><path d="M349.31,51.61V62.5a9.32,9.32,0,0,0,4.27,7.39l21.07,12.16a6.76,6.76,0,0,1,2.26,3.07,11.87,11.87,0,0,0,1.63,2.66c1.64,1.86,5.21,3.79,7.73,4.6a14.74,14.74,0,0,0,2.52.58l1,.14c2.3.31,5.16.7,6.84,1.67L421.33,109a4.36,4.36,0,0,0,2.15.64,2.83,2.83,0,0,0,1.44-.37,3.53,3.53,0,0,0,1.57-3.25V95.15a9.32,9.32,0,0,0-4.27-7.39L413.94,83l-.12,0a.87.87,0,0,0-1.1.37.88.88,0,0,0,.23,1.13.3.3,0,0,0,.1.07l8.28,4.79a7.64,7.64,0,0,1,3.39,5.86V106a1.49,1.49,0,0,1-2.5,1.45L397.56,93.23c-2-1.14-5-1.55-7.49-1.88l-1-.14a13.86,13.86,0,0,1-2.24-.52,18.57,18.57,0,0,1-6.93-4.08,10.36,10.36,0,0,1-1.37-2.28,8.17,8.17,0,0,0-3-3.81L354.46,68.36a7.63,7.63,0,0,1-3.38-5.86V51.61a1.86,1.86,0,0,1,.68-1.7,1.89,1.89,0,0,1,1.82.26l7.18,4.15a6.84,6.84,0,0,1,.9-1.52l-7.2-4.16a3.19,3.19,0,0,0-5.15,3Z"></path></g><g id="freepik--clip--inject-63"><path d="M364.68,51.81h0a2.17,2.17,0,0,0-2.23.21,6.91,6.91,0,0,0-3.13,5.42,2.18,2.18,0,0,0,.93,2h0l50,28.87,4.43-7.68Z" style="fill:#37474f"></path><path d="M412.45,84.54,360.23,54.38A6.38,6.38,0,0,1,362.45,52c.11-.06.21-.09.31-.14l51.4,29.68Z" style="fill:#455a64"></path><path d="M412.45,80.9c1.73-1,3.14-.19,3.14,1.81a6.94,6.94,0,0,1-3.14,5.42c-1.73,1-3.13.19-3.13-1.81A6.92,6.92,0,0,1,412.45,80.9Z" style="fill:#263238"></path><path d="M348.42,52.39V63.27a9.32,9.32,0,0,0,4.27,7.39l21.07,12.17A6.74,6.74,0,0,1,376,85.89a11.9,11.9,0,0,0,1.62,2.67,20.17,20.17,0,0,0,7.73,4.59,14.9,14.9,0,0,0,2.53.59l1,.14c2.3.31,5.16.7,6.84,1.67l24.67,14.23a4.32,4.32,0,0,0,2.14.65,2.88,2.88,0,0,0,1.45-.38,3.54,3.54,0,0,0,1.56-3.24V95.92a9.29,9.29,0,0,0-4.27-7.39l-8.28-4.78a.25.25,0,0,0-.12,0,.87.87,0,0,0-.86,1.49.23.23,0,0,0,.09.08l8.29,4.78a7.63,7.63,0,0,1,3.38,5.86v10.89a1.48,1.48,0,0,1-2.5,1.44L396.67,94c-2-1.14-5-1.56-7.49-1.88l-1-.14a13.92,13.92,0,0,1-2.24-.53A18.55,18.55,0,0,1,379,87.39a10.36,10.36,0,0,1-1.37-2.28,8.12,8.12,0,0,0-3-3.81L353.57,69.13a7.61,7.61,0,0,1-3.38-5.86V52.39a1.89,1.89,0,0,1,.68-1.71,1.87,1.87,0,0,1,1.82.27l7.18,4.14a7.25,7.25,0,0,1,.9-1.52l-7.2-4.15a3.19,3.19,0,0,0-5.15,3Z" style="fill:#455a64"></path></g></g></g></g></svg>