<svg xmlns="http://www.w3.org/2000/svg" viewBox="0 0 500 500"><g id="freepik--background-simple--inject-64"><path d="M439.81,84.73l-2.12-4.19c-17.86-35.28-53.28-58.46-92.46-59a102.87,102.87,0,0,0-15.08.9c-36,4.86-68.95,29.29-84.39,62.64-9.08,19.61-13,42.7-28.47,57.63-20.19,19.42-51.77,17.65-79.42,14.65s-59.26-4.7-79.36,14.82c-12.59,12.22-17.7,30.59-18.12,48.22-1.12,46.7,28.08,90.78,67.7,114.62s88,29.44,133.79,23.82c64.17-7.86,127-38.2,167.23-89.44S464.21,145.26,439.81,84.73Z" style="fill:#f5f5f5"></path></g><g id="freepik--Clipboard--inject-64"><polyline points="309.94 447.14 126.81 447.14 126.81 96.1 372.04 96.1 372.04 384.37" style="fill:#fff"></polyline><path d="M372,384.37s0-.46,0-1.35,0-2.24,0-4c0-3.53,0-8.74,0-15.54,0-13.61,0-33.53-.07-58.82,0-50.59,0-122.66-.09-208.57l.23.23-245.23,0,.26-.26v.31c0,134.94,0,258.18-.06,350.73l-.2-.2,133.88.09,36.51.05,9.5,0,3.24,0-3.24,0-9.5,0-36.51.06-133.88.08h-.19v-.19c0-92.55,0-215.79-.07-350.73v-.57h.26l245.23,0h.23v.23c0,85.91-.07,158-.1,208.57,0,25.29,0,45.21-.06,58.82,0,6.8,0,12,0,15.54,0,1.75,0,3.09,0,4S372,384.37,372,384.37Z" style="fill:#263238"></path><rect x="142.32" y="117.87" width="107.11" height="57.74" style="fill:#407BFF"></rect><path d="M352.51,131.2c0,.15-19.26.27-43,.27s-43-.12-43-.27,19.25-.26,43-.26S352.51,131.06,352.51,131.2Z" style="fill:#263238"></path><path d="M352.51,141.56c0,.14-19.26.26-43,.26s-43-.12-43-.26,19.25-.26,43-.26S352.51,141.42,352.51,141.56Z" style="fill:#263238"></path><path d="M352.51,151.92c0,.14-19.26.26-43,.26s-43-.12-43-.26,19.25-.26,43-.26S352.51,151.77,352.51,151.92Z" style="fill:#263238"></path><path d="M318.28,162.27c0,.15-11.6.26-25.9.26s-25.89-.11-25.89-.26,11.59-.26,25.89-.26S318.28,162.13,318.28,162.27Z" style="fill:#263238"></path><path d="M355.79,187.29c0,.14-47.53.26-106.14.26s-106.14-.12-106.14-.26S191,187,249.65,187,355.79,187.15,355.79,187.29Z" style="fill:#263238"></path><path d="M355.79,193.67c0,.14-47,.26-105,.26s-105-.12-105-.26,47-.26,105-.26S355.79,193.53,355.79,193.67Z" style="fill:#263238"></path><rect x="143.51" y="203.96" width="212.28" height="12.32" style="fill:#e0e0e0"></rect><rect x="141.22" y="316.87" width="212.28" height="12.32" style="fill:#e0e0e0"></rect><rect x="143.51" y="256.2" width="84.66" height="12.32" style="fill:#e0e0e0"></rect><rect x="247.65" y="256.2" width="105.85" height="12.32" style="fill:#e0e0e0"></rect><path d="M266.16,227.17c0,.14-27.24.26-60.84.26s-60.84-.12-60.84-.26,27.23-.27,60.84-.27S266.16,227,266.16,227.17Z" style="fill:#263238"></path><path d="M354.6,236.86c0,.14-47.09.26-105.17.26s-105.18-.12-105.18-.26,47.08-.26,105.18-.26S354.6,236.71,354.6,236.86Z" style="fill:#263238"></path><path d="M354.6,246c0,.14-47.09.26-105.17.26s-105.18-.12-105.18-.26,47.08-.26,105.18-.26S354.6,245.9,354.6,246Z" style="fill:#263238"></path><path d="M227.43,276c0,.14-18.94.26-42.29.26s-42.3-.12-42.3-.26,18.93-.26,42.3-.26S227.43,275.89,227.43,276Z" style="fill:#263238"></path><path d="M227.43,285.5c0,.14-18.62.26-41.59.26s-41.6-.12-41.6-.26,18.62-.26,41.6-.26S227.43,285.35,227.43,285.5Z" style="fill:#263238"></path><path d="M227.09,295.11c0,.15-18.79.26-42,.26s-42-.11-42-.26,18.78-.26,42-.26S227.09,295,227.09,295.11Z" style="fill:#263238"></path><path d="M227.09,304.45c0,.14-18.79.26-42,.26s-42-.12-42-.26,18.78-.26,42-.26S227.09,304.3,227.09,304.45Z" style="fill:#263238"></path><path d="M351.87,278.25c0,.15-19.61.26-43.8.26s-43.81-.11-43.81-.26,19.61-.26,43.81-.26S351.87,278.11,351.87,278.25Z" style="fill:#263238"></path><path d="M257.53,281.27a12.31,12.31,0,0,1-.11-1.73c0-1.06-.09-2.54-.12-4.3l.23.22-6,0,.26-.26h0v3.17c0,1,0,1.95,0,2.84l-.22-.22c1.76,0,3.23.07,4.3.11a14.76,14.76,0,0,1,1.73.11,9.76,9.76,0,0,1-1.59.11c-1.05,0-2.59.09-4.44.12h-.23v-.23c0-.89,0-1.84,0-2.84v-3.17h0c-.23.23.32-.32.27-.26l6,0h.23v.23c0,1.86-.07,3.39-.11,4.44A9.76,9.76,0,0,1,257.53,281.27Z" style="fill:#263238"></path><path d="M351.87,289.84c0,.15-19.61.26-43.8.26s-43.81-.11-43.81-.26,19.61-.26,43.81-.26S351.87,289.7,351.87,289.84Z" style="fill:#263238"></path><path d="M257.53,292.86a12.31,12.31,0,0,1-.11-1.73c0-1.07-.09-2.54-.12-4.3l.23.22-6,0,.26-.26h0V290q0,1.51,0,2.85l-.22-.23c1.76,0,3.23.08,4.3.12a14.76,14.76,0,0,1,1.73.11,9.76,9.76,0,0,1-1.59.11c-1.05,0-2.59.09-4.44.11h-.23v-.23q0-1.33,0-2.85v-3.16h0c-.23.23.32-.32.27-.26l6,0h.23v.23c0,1.86-.07,3.39-.11,4.44A9.76,9.76,0,0,1,257.53,292.86Z" style="fill:#263238"></path><path d="M351.87,301.43c0,.15-19.61.26-43.8.26s-43.81-.11-43.81-.26,19.61-.26,43.81-.26S351.87,301.29,351.87,301.43Z" style="fill:#263238"></path><path d="M257.53,304.45a12.49,12.49,0,0,1-.11-1.73c0-1.07-.09-2.55-.12-4.3l.23.22-6,0,.26-.26h0v3.16q0,1.51,0,2.85l-.22-.23c1.76,0,3.23.08,4.3.12a12.49,12.49,0,0,1,1.73.11,9.76,9.76,0,0,1-1.59.11c-1.05,0-2.59.09-4.44.11h-.23v-.23q0-1.33,0-2.85v-3.16h0l.27-.27,6,0h.23v.23c0,1.85-.07,3.39-.11,4.44A9.76,9.76,0,0,1,257.53,304.45Z" style="fill:#263238"></path><path d="M351.87,397.25s0-.34,0-1,0-1.62,0-2.88c0-2.55,0-6.3,0-11.18,0-9.75-.05-24-.09-42l.16.16-209,.1h0l.26-.26c0,19.63,0,38.77,0,57.06l-.25-.25,149.28.11,43.85.07,11.79,0h3.06l1,0-1,0h-3l-11.74,0-43.78.07-149.46.12h-.26V339.93h.27l209,.1H352v.16c0,18.05-.06,32.33-.08,42.11,0,4.86,0,8.6,0,11.14,0,1.25,0,2.2,0,2.85S351.87,397.25,351.87,397.25Z" style="fill:#263238"></path><path d="M351.87,354.55c0,.14-46.66.26-104.21.26s-104.23-.12-104.23-.26,46.66-.26,104.23-.26S351.87,354.4,351.87,354.55Z" style="fill:#263238"></path><path d="M351.87,368.72c0,.14-46.66.26-104.21.26s-104.23-.12-104.23-.26,46.66-.26,104.23-.26S351.87,368.57,351.87,368.72Z" style="fill:#263238"></path><path d="M351.87,383c0,.15-46.66.26-104.21.26s-104.23-.11-104.23-.26,46.66-.26,104.23-.26S351.87,382.9,351.87,383Z" style="fill:#263238"></path><path d="M167.14,397.75c-.14,0-.26-12.91-.26-28.83s.12-28.83.26-28.83.27,12.91.27,28.83S167.29,397.75,167.14,397.75Z" style="fill:#263238"></path><path d="M237.83,396c-.15,0-.26-12.33-.26-27.53s.11-27.53.26-27.53.26,12.32.26,27.53S238,396,237.83,396Z" style="fill:#263238"></path><path d="M312.31,398.62c-.15,0-.26-12.72-.26-28.4s.11-28.39.26-28.39.26,12.71.26,28.39S312.45,398.62,312.31,398.62Z" style="fill:#263238"></path><polygon points="309.94 447.14 372.04 384.37 309.94 384.37 309.94 447.14" style="fill:#e0e0e0"></polygon><path d="M309.94,447.14c0-2.1-.09-25.95-.23-62.77v-.24h.23l43.81,0h18.9l-.43.44L327.74,429.3l-17.8,17.84L327.77,429l44.09-44.78.18.43H353.75l-43.81,0,.24-.23C310,421.19,310,445,309.94,447.14Z" style="fill:#263238"></path><path d="M306.87,410c0,.14-36.49.26-81.51.26s-81.52-.12-81.52-.26,36.49-.26,81.52-.26S306.87,409.9,306.87,410Z" style="fill:#263238"></path><path d="M306.87,418.29c0,.14-36.49.26-81.51.26s-81.52-.12-81.52-.26,36.49-.26,81.52-.26S306.87,418.14,306.87,418.29Z" style="fill:#263238"></path><path d="M218,426.54c0,.14-16.61.26-37.09.26s-37.1-.12-37.1-.26,16.61-.26,37.1-.26S218,426.39,218,426.54Z" style="fill:#263238"></path><path d="M166.91,138.44h-9.37V134h24v4.44h-9.37v23.83h-5.25Z" style="fill:#fff"></path><path d="M202.41,155.73H188.27l-2.78,6.54h-5.42L192.8,134H198l12.76,28.27h-5.49Zm-1.74-4.12-5.33-12.36-5.29,12.36Z" style="fill:#fff"></path><path d="M230.72,162.27l-7.67-10.74-7.6,10.74h-6L220,147.85,210,134H216l7.23,10.06L230.36,134h5.69l-9.9,13.65,10.63,14.62Z" style="fill:#fff"></path><path d="M357.74,108.32c0,.14-48.21.26-107.67.26s-107.67-.12-107.67-.26,48.2-.26,107.67-.26S357.74,108.18,357.74,108.32Z" style="fill:#e0e0e0"></path><path d="M250.81,112.24c0,.14-24.27.26-54.21.26s-54.2-.12-54.2-.26,24.26-.26,54.2-.26S250.81,112.09,250.81,112.24Z" style="fill:#e0e0e0"></path><rect x="114.19" y="75.49" width="269.24" height="382.15" rx="10.88" style="fill:#e0e0e0"></rect><path d="M372.55,457.63l.84-.05a12.36,12.36,0,0,0,2.42-.47,11.28,11.28,0,0,0,3.56-1.93,11,11,0,0,0,3.26-4.5,10.2,10.2,0,0,0,.71-3.29c.06-1.19,0-2.45,0-3.77,0-2.64,0-5.52,0-8.65,0-6.25,0-13.47,0-21.59,0-32.5-.05-79.51-.08-137.6,0-29,0-60.86,0-95q0-25.6,0-52.93V100.15q0-7,0-14.12a10.58,10.58,0,0,0-8.27-10,14.28,14.28,0,0,0-3.53-.27H125.1a10.62,10.62,0,0,0-10.62,10.09c0,5.48,0,11,0,16.46v96.36c0,41.81,0,82.13,0,120.54s0,74.9,0,109.06q0,6.4,0,12.7c0,2.09,0,4.2,0,6.26a10.5,10.5,0,0,0,1.93,5.68,10.81,10.81,0,0,0,4.64,3.72,11.66,11.66,0,0,0,2.9.74c1,.09,2,.07,3,.07h12l45.6,0,137.58.08,37.41.05,9.73,0c2.19,0,3.31,0,3.31,0l-3.31,0-9.73,0-37.41.05-137.58.09H126.91c-1,0-2,0-3.06-.07a11.93,11.93,0,0,1-3-.77,11.18,11.18,0,0,1-4.83-3.86,11,11,0,0,1-2-5.91c-.05-2.09,0-4.17,0-6.27v-12.7c0-34.16,0-70.66,0-109.06s0-78.73,0-120.54q0-31.35,0-63.75V102.3c0-5.48,0-11,0-16.49A11.15,11.15,0,0,1,125.1,75.22H371.38a15.47,15.47,0,0,1,3.64.29A11.06,11.06,0,0,1,383.65,86q0,7.13,0,14.14,0,14,0,27.68,0,27.29,0,52.93c0,34.16,0,66,0,95,0,58.09-.07,105.1-.09,137.6,0,8.12,0,15.34,0,21.59q0,4.69,0,8.65c0,1.32,0,2.58,0,3.78a10.67,10.67,0,0,1-.73,3.32,11,11,0,0,1-3.31,4.52,10.52,10.52,0,0,1-6,2.36Z" style="fill:#263238"></path><g style="opacity:0.30000000000000004"><polygon points="137.68 449 317.82 449 361.17 402 361.17 376.98 137.68 411.9 137.68 449"></polygon></g><g style="opacity:0.30000000000000004"><polygon points="316.75 76.27 321.88 91.5 321.88 98.96 316.1 98.96 316.75 76.27"></polygon></g><polyline points="309.33 441.84 126.2 441.84 126.2 90.8 371.42 90.8 371.42 379.07" style="fill:#fff"></polyline><path d="M371.42,379.07s0-.46,0-1.35,0-2.24,0-4c0-3.53,0-8.74,0-15.54,0-13.61,0-33.53-.06-58.82,0-50.59-.06-122.66-.1-208.57l.23.23-245.22,0,.26-.26v.31c0,134.94,0,258.18-.06,350.73l-.2-.2,133.88.09,36.5,0,9.51,0,3.24,0s-1.1,0-3.24,0l-9.51,0-36.5.06L126.2,442H126v-.19c0-92.55,0-215.79-.06-350.73v-.57h.26l245.22,0h.23v.23c0,85.91-.07,158-.09,208.57,0,25.29-.05,45.21-.06,58.82,0,6.8,0,12,0,15.54,0,1.75,0,3.09,0,4S371.42,379.07,371.42,379.07Z" style="fill:#263238"></path><rect x="141.71" y="112.57" width="107.11" height="57.74" style="fill:#407BFF"></rect><path d="M351.89,125.9c0,.15-19.26.26-43,.26s-43-.11-43-.26,19.26-.26,43-.26S351.89,125.76,351.89,125.9Z" style="fill:#263238"></path><path d="M351.89,136.26c0,.14-19.26.26-43,.26s-43-.12-43-.26,19.26-.26,43-.26S351.89,136.12,351.89,136.26Z" style="fill:#263238"></path><path d="M351.89,146.62c0,.14-19.26.26-43,.26s-43-.12-43-.26,19.26-.26,43-.26S351.89,146.47,351.89,146.62Z" style="fill:#263238"></path><path d="M317.66,157c0,.15-11.59.26-25.89.26s-25.9-.11-25.9-.26,11.6-.26,25.9-.26S317.66,156.83,317.66,157Z" style="fill:#263238"></path><path d="M355.17,182c0,.14-47.52.26-106.13.26s-106.15-.12-106.15-.26,47.52-.26,106.15-.26S355.17,181.84,355.17,182Z" style="fill:#263238"></path><path d="M355.17,188.37c0,.14-47,.26-105,.26s-105-.12-105-.26,47-.26,105-.26S355.17,188.23,355.17,188.37Z" style="fill:#263238"></path><rect x="142.89" y="198.66" width="212.28" height="12.32" style="fill:#e0e0e0"></rect><rect x="140.61" y="311.57" width="212.28" height="12.32" style="fill:#e0e0e0"></rect><rect x="142.89" y="250.9" width="84.66" height="12.32" style="fill:#e0e0e0"></rect><rect x="247.04" y="250.9" width="105.85" height="12.32" style="fill:#e0e0e0"></rect><path d="M265.55,221.86c0,.15-27.24.27-60.84.27s-60.85-.12-60.85-.27,27.24-.26,60.85-.26S265.55,221.72,265.55,221.86Z" style="fill:#263238"></path><path d="M354,231.56c0,.14-47.09.26-105.17.26s-105.19-.12-105.19-.26,47.09-.26,105.19-.26S354,231.41,354,231.56Z" style="fill:#263238"></path><path d="M354,240.74c0,.14-47.09.26-105.17.26s-105.19-.12-105.19-.26,47.09-.26,105.19-.26S354,240.6,354,240.74Z" style="fill:#263238"></path><path d="M226.82,270.74c0,.14-18.94.26-42.3.26s-42.3-.12-42.3-.26,18.94-.27,42.3-.27S226.82,270.59,226.82,270.74Z" style="fill:#263238"></path><path d="M226.82,280.2c0,.14-18.63.26-41.59.26s-41.6-.12-41.6-.26,18.62-.26,41.6-.26S226.82,280.05,226.82,280.2Z" style="fill:#263238"></path><path d="M226.47,289.81c0,.15-18.78.26-41.95.26s-42-.11-42-.26,18.78-.26,42-.26S226.47,289.67,226.47,289.81Z" style="fill:#263238"></path><path d="M226.47,299.15c0,.14-18.78.26-41.95.26s-42-.12-42-.26,18.78-.26,42-.26S226.47,299,226.47,299.15Z" style="fill:#263238"></path><path d="M351.26,273c0,.15-19.62.26-43.81.26s-43.81-.11-43.81-.26,19.61-.26,43.81-.26S351.26,272.81,351.26,273Z" style="fill:#263238"></path><path d="M256.91,276s-.06-.67-.11-1.73-.09-2.54-.11-4.3l.22.22-6,0,.26-.26h0v1.61c0,.53,0,1.05,0,1.55,0,1,0,2,0,2.85l-.23-.22c1.76,0,3.24.07,4.3.11a14.52,14.52,0,0,1,1.73.11,9.37,9.37,0,0,1-1.58.11c-1.05,0-2.59.09-4.45.12h-.22V276q0-1.34,0-2.85c0-.5,0-1,0-1.55V270h0l.26-.26,6,0h.23v.23c0,1.86-.07,3.39-.12,4.44A8.46,8.46,0,0,1,256.91,276Z" style="fill:#263238"></path><path d="M351.26,284.54c0,.15-19.62.26-43.81.26s-43.81-.11-43.81-.26,19.61-.26,43.81-.26S351.26,284.4,351.26,284.54Z" style="fill:#263238"></path><path d="M256.91,287.56s-.06-.67-.11-1.73-.09-2.54-.11-4.3l.22.22-6,0c-.06,0,.49-.5.26-.26h0v1.6c0,.53,0,1.06,0,1.56,0,1,0,2,0,2.85l-.23-.23c1.76,0,3.24.08,4.3.12a14.52,14.52,0,0,1,1.73.11,9.37,9.37,0,0,1-1.58.11c-1.05,0-2.59.09-4.45.11h-.22v-.23q0-1.33,0-2.85c0-.5,0-1,0-1.56v-1.6h0l.26-.26,6,0h.23v.23c0,1.86-.07,3.39-.12,4.44A8.46,8.46,0,0,1,256.91,287.56Z" style="fill:#263238"></path><path d="M351.26,296.13c0,.15-19.62.26-43.81.26s-43.81-.11-43.81-.26,19.61-.26,43.81-.26S351.26,296,351.26,296.13Z" style="fill:#263238"></path><path d="M256.91,299.15s-.06-.67-.11-1.73-.09-2.55-.11-4.31l.22.23-6,0,.26-.26h0v1.6c0,.53,0,1.05,0,1.56,0,1,0,2,0,2.85l-.23-.23c1.76,0,3.24.08,4.3.12a12.31,12.31,0,0,1,1.73.11,9.37,9.37,0,0,1-1.58.11c-1.05,0-2.59.09-4.45.11h-.22v-.23q0-1.33,0-2.85c0-.51,0-1,0-1.56v-1.6h0c-.23.23.32-.32.26-.27l6,0h.23v.22c0,1.86-.07,3.4-.12,4.45A8.46,8.46,0,0,1,256.91,299.15Z" style="fill:#263238"></path><path d="M351.26,392s0-.34,0-1,0-1.62,0-2.88c0-2.55,0-6.3,0-11.18,0-9.75-.05-24-.09-42l.16.16-209,.1h0l.26-.26V392l-.26-.25,149.28.11,43.85.07,11.79,0h3.06l1.05,0-1,0h-3l-11.74,0-43.79.07-149.46.11H142V392c0-18.29,0-37.43,0-57.06v-.26h.28l209,.1h.16v.16c0,18.05-.07,32.33-.09,42.11,0,4.86,0,8.6,0,11.14,0,1.25,0,2.2,0,2.85S351.26,392,351.26,392Z" style="fill:#263238"></path><path d="M351.26,349.25c0,.14-46.66.26-104.22.26s-104.22-.12-104.22-.26S189.47,349,247,349,351.26,349.1,351.26,349.25Z" style="fill:#263238"></path><path d="M351.26,363.42c0,.14-46.66.26-104.22.26s-104.22-.12-104.22-.26,46.65-.26,104.22-.26S351.26,363.27,351.26,363.42Z" style="fill:#263238"></path><path d="M351.26,377.74c0,.15-46.66.26-104.22.26s-104.22-.11-104.22-.26,46.65-.26,104.22-.26S351.26,377.6,351.26,377.74Z" style="fill:#263238"></path><path d="M166.53,392.45c-.14,0-.26-12.91-.26-28.83s.12-28.83.26-28.83.26,12.91.26,28.83S166.67,392.45,166.53,392.45Z" style="fill:#263238"></path><path d="M237.21,390.72c-.14,0-.26-12.33-.26-27.53s.12-27.53.26-27.53.26,12.32.26,27.53S237.36,390.72,237.21,390.72Z" style="fill:#263238"></path><path d="M311.69,393.32c-.14,0-.26-12.72-.26-28.4s.12-28.39.26-28.39.26,12.71.26,28.39S311.84,393.32,311.69,393.32Z" style="fill:#263238"></path><polygon points="309.33 441.84 371.42 379.07 309.33 379.07 309.33 441.84" style="fill:#e0e0e0"></polygon><path d="M309.33,441.84c0-2.1-.1-25.95-.24-62.77v-.24h.24l43.8,0H372l-.43.44L327.12,424l-17.79,17.84,17.82-18.17,44.09-44.78.18.43H353.13l-43.8,0,.24-.23C309.43,415.89,309.34,439.74,309.33,441.84Z" style="fill:#263238"></path><path d="M306.26,404.74c0,.14-36.5.26-81.51.26s-81.52-.12-81.52-.26,36.49-.26,81.52-.26S306.26,404.6,306.26,404.74Z" style="fill:#263238"></path><path d="M306.26,413c0,.14-36.5.26-81.51.26s-81.52-.12-81.52-.26,36.49-.26,81.52-.26S306.26,412.84,306.26,413Z" style="fill:#263238"></path><path d="M217.42,421.24c0,.14-16.61.26-37.1.26s-37.09-.12-37.09-.26,16.6-.26,37.09-.26S217.42,421.09,217.42,421.24Z" style="fill:#263238"></path><path d="M166.3,133.14h-9.37V128.7h24v4.44h-9.37V157H166.3Z" style="fill:#fff"></path><path d="M201.8,150.43H187.66L184.87,157h-5.41l12.72-28.27h5.17L210.12,157h-5.5Zm-1.74-4.12L194.73,134l-5.29,12.36Z" style="fill:#fff"></path><path d="M230.11,157l-7.68-10.74L214.84,157h-6l10.5-14.42-9.93-13.85h5.93l7.23,10.06,7.15-10.06h5.7l-9.9,13.65L236.16,157Z" style="fill:#fff"></path><path d="M357.13,103c0,.14-48.21.26-107.67.26s-107.68-.12-107.68-.26,48.2-.26,107.68-.26S357.13,102.88,357.13,103Z" style="fill:#e0e0e0"></path><path d="M250.19,106.94c0,.14-24.27.26-54.2.26s-54.21-.12-54.21-.26,24.27-.26,54.21-.26S250.19,106.79,250.19,106.94Z" style="fill:#e0e0e0"></path><path d="M199,66H310.42a6.33,6.33,0,0,1,6.33,6.33V102a0,0,0,0,1,0,0H192.67a0,0,0,0,1,0,0V72.29A6.33,6.33,0,0,1,199,66Z" style="fill:#263238"></path><polygon points="270.5 52.43 238.92 52.43 242.61 79.5 266.4 79.5 270.5 52.43" style="fill:#263238"></polygon><path d="M308.78,66c0,.14-24.21.26-54.07.26s-54.07-.12-54.07-.26,24.21-.26,54.07-.26S308.78,65.82,308.78,66Z" style="fill:#455a64"></path><path d="M195.45,96.15c-.14,0-.26-5.09-.26-11.37s.12-11.37.26-11.37.26,5.09.26,11.37S195.59,96.15,195.45,96.15Z" style="fill:#455a64"></path><path d="M312.73,93.46c-.14,0-.26-4.63-.26-10.33s.12-10.32.26-10.32A100.39,100.39,0,0,1,313,83.13,100.67,100.67,0,0,1,312.73,93.46Z" style="fill:#455a64"></path><path d="M306.75,98.24c0,.15-24.85.26-55.5.26s-55.5-.11-55.5-.26,24.84-.26,55.5-.26S306.75,98.1,306.75,98.24Z" style="fill:#455a64"></path></g><g id="freepik--Device--inject-64"><path d="M162.67,457.82l-97-.06a21.13,21.13,0,0,1-21.13-21.13l0-243.24a21.14,21.14,0,0,1,21.15-21.13l97,.06a21.14,21.14,0,0,1,21.12,21.14l-.05,243.23A21.13,21.13,0,0,1,162.67,457.82Z" style="fill:#263238"></path><path d="M162.64,180.92H143.83a4.67,4.67,0,0,0-4.57,4.77v3.42a4.68,4.68,0,0,1-4.57,4.77l-36.67,0a4.68,4.68,0,0,1-4.57-4.78v-3.41a4.68,4.68,0,0,0-4.57-4.78H65.81A14.79,14.79,0,0,0,51,195.66l0,237.42a14.8,14.8,0,0,0,14.79,14.8l96.83.06a14.8,14.8,0,0,0,14.81-14.8l.05-237.41A14.8,14.8,0,0,0,162.64,180.92Z" style="fill:#fff"></path><path d="M51,279.15H177.43a0,0,0,0,1,0,0V435.21a12.73,12.73,0,0,1-12.73,12.73h-101A12.73,12.73,0,0,1,51,435.21V279.15A0,0,0,0,1,51,279.15Z" style="fill:#f5f5f5"></path><rect x="50.95" y="278.84" width="95.53" height="35.25" style="fill:#e0e0e0"></rect><path d="M166.17,447.94a11.26,11.26,0,0,0,11.26-11.26V279.15h-31V447.94Z" style="fill:#407BFF"></path><path d="M174.53,314.4c0,.15-28,.26-62.55.26s-62.55-.11-62.55-.26,28-.26,62.55-.26S174.53,314.26,174.53,314.4Z" style="fill:#263238"></path><path d="M174.53,348.7c0,.14-28,.26-62.55.26s-62.55-.12-62.55-.26,28-.26,62.55-.26S174.53,348.55,174.53,348.7Z" style="fill:#263238"></path><path d="M174.53,385c0,.15-28,.26-62.55.26s-62.55-.11-62.55-.26,28-.26,62.55-.26S174.53,384.87,174.53,385Z" style="fill:#263238"></path><path d="M174.53,419.31c0,.14-28,.26-62.55.26s-62.55-.12-62.55-.26,28-.26,62.55-.26S174.53,419.17,174.53,419.31Z" style="fill:#263238"></path><path d="M81.9,419.31c-.15,0-.26-31.27-.26-69.83s.11-69.84.26-69.84.26,31.26.26,69.84S82,419.31,81.9,419.31Z" style="fill:#263238"></path><path d="M114.19,448c-.14,0-.26-37.69-.26-84.18s.12-84.18.26-84.18.26,37.68.26,84.18S114.33,448,114.19,448Z" style="fill:#263238"></path><path d="M146.48,447.94c-.14,0-.26-37.68-.26-84.15s.12-84.15.26-84.15.26,37.67.26,84.15S146.63,447.94,146.48,447.94Z" style="fill:#263238"></path><path d="M70.72,326.88V328L66,338.65H64.18l4.66-10.31H63.46v2.1H61.84v-3.56Z" style="fill:#263238"></path><path d="M103.11,335.32c0,2.14-1.81,3.46-4.69,3.46s-4.65-1.32-4.65-3.46a2.91,2.91,0,0,1,2.06-2.84,2.67,2.67,0,0,1-1.64-2.54c0-2,1.69-3.2,4.23-3.2s4.27,1.23,4.27,3.2a2.67,2.67,0,0,1-1.66,2.54A2.92,2.92,0,0,1,103.11,335.32Zm-1.68-.05c0-1.3-1.14-2.1-3-2.1s-3,.8-3,2.1,1.11,2.15,3,2.15S101.43,336.6,101.43,335.27ZM95.85,330c0,1.16,1,1.88,2.57,1.88s2.63-.72,2.63-1.88-1-1.9-2.63-1.9S95.85,328.83,95.85,330Z" style="fill:#263238"></path><path d="M134.93,332.61c0,4-2.27,6.17-5.56,6.17a5.7,5.7,0,0,1-2.93-.68l.64-1.32a4.08,4.08,0,0,0,2.27.56c2.39,0,3.9-1.5,3.9-4.44v-.42a3.94,3.94,0,0,1-3.39,1.55c-2.34,0-4-1.4-4-3.57s1.81-3.72,4.15-3.72C133.15,326.74,134.93,328.86,134.93,332.61Zm-2.06-2.23c0-1.21-1-2.27-2.81-2.27a2.31,2.31,0,0,0-2.59,2.28c0,1.38,1,2.27,2.67,2.27A2.45,2.45,0,0,0,132.87,330.38Z" style="fill:#263238"></path><path d="M125.21,294.7a2.51,2.51,0,1,1,2.5,2.78A2.5,2.5,0,0,1,125.21,294.7Zm3.55,0c0-1.08-.42-1.59-1-1.59s-1,.53-1,1.59.43,1.6,1,1.6S128.76,295.78,128.76,294.7ZM133.7,292h1.71l-6.87,10.06h-1.71Zm-1.65,7.4a2.51,2.51,0,1,1,2.49,2.78A2.5,2.5,0,0,1,132.05,299.44Zm3.54,0c0-1.06-.42-1.59-1.05-1.59s-1,.52-1,1.59.43,1.6,1,1.6S135.59,300.51,135.59,299.44Z" style="fill:#263238"></path><path d="M62.23,297.05a5.12,5.12,0,0,1,5.36-5.18,5,5,0,0,1,3.84,1.58l-.94.91a3.72,3.72,0,0,0-2.84-1.2,3.89,3.89,0,1,0,0,7.77,3.76,3.76,0,0,0,2.84-1.21l.94.91a5,5,0,0,1-3.86,1.59A5.11,5.11,0,0,1,62.23,297.05Z" style="fill:#263238"></path><path d="M72.39,371.23H70.15v2.9H68.52v-2.9H62v-1.17l6-7.71h1.82l-5.77,7.44h4.52v-2.56h1.58v2.56h2.24Z" style="fill:#263238"></path><path d="M102.09,370.59c0,2-1.45,3.67-4.46,3.67a6.76,6.76,0,0,1-4.32-1.43l.78-1.33a5.28,5.28,0,0,0,3.53,1.26c1.78,0,2.79-.82,2.79-2.1s-.84-2.15-3.57-2.15H94.17l.62-6.16h6.64v1.47H96.2l-.32,3.23H97.2C100.71,367.05,102.09,368.51,102.09,370.59Z" style="fill:#263238"></path><path d="M135.29,370.54c0,2.27-1.84,3.72-4.17,3.72-3.16,0-5-2.12-5-5.87,0-4,2.27-6.17,5.57-6.17a5.7,5.7,0,0,1,2.93.69l-.64,1.31a4.15,4.15,0,0,0-2.26-.55c-2.38,0-3.91,1.49-3.91,4.44,0,.13,0,.26,0,.42a3.92,3.92,0,0,1,3.38-1.55C133.59,367,135.29,368.37,135.29,370.54Zm-1.63.07c0-1.38-1-2.27-2.69-2.27a2.44,2.44,0,0,0-2.71,2.29c0,1.21,1,2.27,2.79,2.27A2.33,2.33,0,0,0,133.66,370.61Z" style="fill:#263238"></path><path d="M65.8,397.15v11.77H64.13V398.61H61.47v-1.46Z" style="fill:#263238"></path><path d="M102.11,407.46v1.46H93.65v-1.15l4.79-4.62c1.24-1.21,1.48-1.95,1.48-2.69,0-1.21-.86-1.95-2.51-1.95a3.69,3.69,0,0,0-3,1.28l-1.14-1A5.43,5.43,0,0,1,97.57,397c2.45,0,4,1.26,4,3.28,0,1.15-.34,2.17-1.93,3.7l-3.6,3.47Z" style="fill:#263238"></path><path d="M134.23,405.45c0,2-1.46,3.6-4.46,3.6a6.68,6.68,0,0,1-4.32-1.43l.77-1.32a5.32,5.32,0,0,0,3.55,1.26c1.77,0,2.78-.81,2.78-2.09s-.89-2.05-2.91-2.05h-.94v-1.18l3-3.63H126v-1.46h7.77v1.14l-3.08,3.8C133,402.31,134.23,403.64,134.23,405.45Z" style="fill:#263238"></path><path d="M76.17,433.57c0-3.83,2-6,4.81-6s4.79,2.19,4.79,6-2,6-4.79,6S76.17,437.4,76.17,433.57Zm7.92,0c0-3-1.28-4.52-3.11-4.52s-3.13,1.51-3.13,4.52,1.28,4.52,3.13,4.52S84.09,436.58,84.09,433.57Z" style="fill:#263238"></path><path d="M131.67,434.09a3.3,3.3,0,0,1-.28,1.21l-.79,2.34h-1.06l.62-2.5a1.09,1.09,0,0,1-.71-1.05,1.1,1.1,0,0,1,1.13-1.14A1.08,1.08,0,0,1,131.67,434.09Z" style="fill:#263238"></path><rect x="156.65" y="430.62" width="11.48" height="1.21" style="fill:#263238"></rect><rect x="156.65" y="434.26" width="11.48" height="1.21" style="fill:#263238"></rect><rect x="158.1" y="401.95" width="8.6" height="0.9" style="fill:#263238"></rect><path d="M167.14,403.29h-9.49V401.5h9.49Zm-8.6-.88,7.71,0Z" style="fill:#263238"></path><rect x="158.1" y="401.95" width="8.6" height="0.9" transform="translate(-240 564.79) rotate(-90)" style="fill:#263238"></rect><path d="M163.29,407.14H161.5v-9.48h1.79Zm-.91-.89h0l0-7.71Z" style="fill:#263238"></path><polygon points="166.38 329.4 165.12 328.13 162.4 330.85 159.68 328.13 158.41 329.4 161.13 332.12 158.41 334.84 159.68 336.1 162.39 333.38 165.11 336.1 166.38 334.83 163.66 332.12 166.38 329.4" style="fill:#263238"></polygon><rect x="158.1" y="367.91" width="8.6" height="0.9" style="fill:#263238"></rect><path d="M167.14,369.25h-9.49v-1.79h9.49Zm-8.6-.88,7.71,0Z" style="fill:#263238"></path><rect x="158.1" y="297.19" width="8.6" height="0.9" style="fill:#263238"></rect><path d="M167.14,298.53h-9.49v-1.79h9.49Zm-8.6-.88,7.71,0Z" style="fill:#263238"></path><circle cx="162.39" cy="292.91" r="1.44" style="fill:#263238"></circle><path d="M163.84,302.1a1.45,1.45,0,1,1-1.45-1.44A1.45,1.45,0,0,1,163.84,302.1Z" style="fill:#263238"></path><polygon points="102.5 295.13 101.73 294.36 100.08 296.01 98.43 294.36 97.67 295.13 99.31 296.78 97.67 298.43 98.43 299.19 100.08 297.54 101.73 299.19 102.5 298.43 100.85 296.78 102.5 295.13" style="fill:#263238"></polygon><path d="M104.5,301.43H96.26a1.48,1.48,0,0,1-1.08-.47l-2.9-3.15a1.53,1.53,0,0,1,0-2.06l2.9-3.15a1.49,1.49,0,0,1,1.08-.48h8.24a1.49,1.49,0,0,1,1.47,1.51v6.3A1.49,1.49,0,0,1,104.5,301.43Zm-8.24-8.31a.49.49,0,0,0-.34.15L93,296.42a.53.53,0,0,0,0,.71l2.9,3.15a.45.45,0,0,0,.34.15h8.24a.48.48,0,0,0,.47-.5v-6.3a.49.49,0,0,0-.47-.51Z" style="fill:#263238"></path><path d="M109.4,242.84v20.92h-1.52V244.21h-5.11v-1.37Z" style="fill:#263238"></path><path d="M129.07,242.84v1.07l-9,19.85H118.4l8.91-19.55H115.56v4h-1.5v-5.38Z" style="fill:#263238"></path><path d="M145.24,257.87c0,3.47-2.51,6-7.33,6-3.07,0-5.91-1.14-7.38-2.81l.78-1.17a8.9,8.9,0,0,0,6.6,2.58c3.77,0,5.77-1.8,5.77-4.64s-1.91-4.63-6.09-4.63h-1.32v-1.11l6.19-7.92H131.31v-1.37h13.12v1.07l-6.28,8C142.91,252.07,145.24,254.46,145.24,257.87Z" style="fill:#263238"></path><path d="M164.19,258c0,3.65-3,5.89-7.95,5.89s-7.9-2.24-7.9-5.89c0-2.63,1.62-4.45,4.46-5.2-2.39-.78-3.71-2.42-3.71-4.72,0-3.35,2.81-5.41,7.15-5.41s7.2,2.06,7.2,5.41c0,2.3-1.35,3.94-3.77,4.72C162.54,253.57,164.19,255.42,164.19,258Zm-1.53,0c0-2.78-2.39-4.54-6.42-4.54s-6.37,1.76-6.37,4.54,2.33,4.58,6.37,4.58S162.66,260.83,162.66,258Zm-6.42-5.8c3.55,0,5.67-1.58,5.67-4.06S159.7,244,156.24,244s-5.62,1.59-5.62,4.13S152.68,252.22,156.24,252.22Z" style="fill:#263238"></path></g><g id="freepik--Table--inject-64"><polygon points="304.61 341.35 304.61 341.43 304.61 382.37 313.96 382.37 304.61 341.35" style="fill:#263238"></polygon><rect x="256.92" y="341.35" width="47.69" height="42.53" style="fill:#fff"></rect><rect x="287.08" y="359.61" width="6.52" height="6.87" style="fill:#407BFF"></rect><path d="M261.21,380.37a2.56,2.56,0,0,1,0-.47c0-.35,0-.82,0-1.42,0-1.28,0-3.12-.05-5.45,0-4.79-.07-11.62-.11-19.92v-.21h.21l39.55,0c-.05-.05.5.5.26.27h0v14.17c0,4.56,0,8.94,0,13.08v.24h-.24l-28.61-.12-8.1-.06-2.13,0-.54,0h0l.57,0,2.18,0,8.15-.06,28.45-.12-.23.24c0-4.14,0-8.52,0-13.08,0-2.29,0-4.61,0-7v-7.19h0c-.23-.24.32.31.26.25l-39.55-.05.21-.21c-.05,8.25-.09,15-.11,19.79,0,2.35,0,4.2-.06,5.5,0,.62,0,1.1,0,1.46S261.21,380.36,261.21,380.37Z" style="fill:#263238"></path><rect x="256.92" y="341.35" width="47.69" height="8.2" style="fill:#407BFF"></rect><path d="M256.92,383.88s0-.25,0-.75,0-1.28,0-2.25c0-2,0-4.91-.06-8.6,0-7.47-.06-18.12-.11-30.93v-.22h.22l47.69,0c-.05-.06.5.49.26.26h0v11.4c0,3.73,0,7.4,0,11,0,7.13,0,13.9,0,20.15v.23h-.23L270,384l-9.69-.06-2.55,0-.64,0c-.14,0-.22,0-.21,0h.23l.68,0,2.58,0,9.75-.06,34.45-.12-.23.23c0-6.25,0-13,0-20.15,0-3.57,0-7.24,0-11v-11.4h0l.26.26-47.69,0,.22-.22c-.05,12.75-.09,23.35-.11,30.79,0,3.71,0,6.63-.06,8.65,0,1,0,1.75,0,2.29S256.92,383.88,256.92,383.88Z" style="fill:#263238"></path><path d="M300.65,359.61c0,.14-8.8.26-19.66.26s-19.65-.12-19.65-.26,8.79-.26,19.65-.26S300.65,359.46,300.65,359.61Z" style="fill:#263238"></path><path d="M300.65,366.47c0,.15-8.8.27-19.66.27s-19.65-.12-19.65-.27,8.79-.26,19.65-.26S300.65,366.33,300.65,366.47Z" style="fill:#263238"></path><path d="M300.65,373.34c0,.15-8.8.26-19.66.26s-19.65-.11-19.65-.26,8.79-.26,19.65-.26S300.65,373.2,300.65,373.34Z" style="fill:#263238"></path><path d="M267.64,380.3c-.14,0-.26-6.07-.26-13.56s.12-13.56.26-13.56.26,6.07.26,13.56S267.79,380.3,267.64,380.3Z" style="fill:#263238"></path><path d="M274.1,380.3c-.14,0-.26-6.07-.26-13.56s.12-13.56.26-13.56.26,6.07.26,13.56S274.24,380.3,274.1,380.3Z" style="fill:#263238"></path><path d="M280.62,380.3c-.14,0-.26-6.07-.26-13.56s.12-13.56.26-13.56.26,6.07.26,13.56S280.77,380.3,280.62,380.3Z" style="fill:#263238"></path><path d="M287.08,380.3c-.15,0-.26-6.07-.26-13.56s.11-13.56.26-13.56.26,6.07.26,13.56S287.22,380.3,287.08,380.3Z" style="fill:#263238"></path><path d="M293.6,380.3c-.15,0-.26-6.07-.26-13.56s.11-13.56.26-13.56.26,6.07.26,13.56S293.74,380.3,293.6,380.3Z" style="fill:#263238"></path><rect x="296.53" y="353.76" width="3.53" height="1.61" style="fill:#e0e0e0"></rect><rect x="296.58" y="360.72" width="3.53" height="1.61" style="fill:#e0e0e0"></rect><rect x="296.58" y="367.67" width="3.53" height="1.61" style="fill:#e0e0e0"></rect><rect x="296.66" y="374.62" width="3.53" height="1.61" style="fill:#e0e0e0"></rect><rect x="282.67" y="353.76" width="3.53" height="1.61" style="fill:#e0e0e0"></rect><rect x="282.73" y="360.72" width="3.53" height="1.61" style="fill:#e0e0e0"></rect><rect x="282.73" y="367.67" width="3.53" height="1.61" style="fill:#e0e0e0"></rect><rect x="282.8" y="374.62" width="3.53" height="1.61" style="fill:#e0e0e0"></rect><rect x="269.75" y="353.76" width="3.53" height="1.61" style="fill:#e0e0e0"></rect><rect x="269.8" y="360.72" width="3.53" height="1.61" style="fill:#e0e0e0"></rect><rect x="269.8" y="367.67" width="3.53" height="1.61" style="fill:#e0e0e0"></rect><rect x="269.88" y="374.62" width="3.53" height="1.61" style="fill:#e0e0e0"></rect><rect x="276.5" y="353.76" width="3.53" height="1.61" style="fill:#e0e0e0"></rect><rect x="276.55" y="360.72" width="3.53" height="1.61" style="fill:#e0e0e0"></rect><rect x="276.55" y="367.67" width="3.53" height="1.61" style="fill:#e0e0e0"></rect><rect x="276.63" y="374.62" width="3.53" height="1.61" style="fill:#e0e0e0"></rect><rect x="263.42" y="353.76" width="3.53" height="1.61" style="fill:#e0e0e0"></rect><rect x="263.47" y="360.72" width="3.53" height="1.61" style="fill:#e0e0e0"></rect><rect x="263.47" y="367.67" width="3.53" height="1.61" style="fill:#e0e0e0"></rect><rect x="263.55" y="374.62" width="3.53" height="1.61" style="fill:#e0e0e0"></rect><rect x="289.08" y="353.76" width="3.53" height="1.61" style="fill:#e0e0e0"></rect><rect x="289.14" y="367.67" width="3.53" height="1.61" style="fill:#e0e0e0"></rect><rect x="289.14" y="374.62" width="3.53" height="1.61" style="fill:#e0e0e0"></rect><path d="M286.73,359.16a33.54,33.54,0,0,1,3.42-3.6,37.07,37.07,0,0,1,3.56-3.45,18.06,18.06,0,0,1-3.19,3.82A18.73,18.73,0,0,1,286.73,359.16Z" style="fill:#407BFF"></path><path d="M295.19,359.8a36,36,0,0,1-4.7-3.84,35.58,35.58,0,0,1-4.34-4.22,36.21,36.21,0,0,1,4.69,3.83A35.73,35.73,0,0,1,295.19,359.8Z" style="fill:#407BFF"></path><path d="M262.85,345.06h0a.87.87,0,0,1-.88-.88V339a.88.88,0,0,1,.88-.89h0a.88.88,0,0,1,.88.89v5.16A.87.87,0,0,1,262.85,345.06Z" style="fill:#263238"></path><path d="M268.6,345.06h0a.88.88,0,0,1-.88-.88V339a.89.89,0,0,1,.88-.89h0a.89.89,0,0,1,.89.89v5.16A.88.88,0,0,1,268.6,345.06Z" style="fill:#263238"></path><path d="M274.38,345.06h0a.87.87,0,0,1-.88-.88V339a.88.88,0,0,1,.88-.89h0a.89.89,0,0,1,.88.89v5.16A.88.88,0,0,1,274.38,345.06Z" style="fill:#263238"></path><path d="M280.15,345.06h0a.87.87,0,0,1-.88-.88V339a.88.88,0,0,1,.88-.89h0a.88.88,0,0,1,.88.89v5.16A.87.87,0,0,1,280.15,345.06Z" style="fill:#263238"></path><path d="M285.92,345.06h0a.88.88,0,0,1-.88-.88V339a.89.89,0,0,1,.88-.89h0a.89.89,0,0,1,.89.89v5.16A.88.88,0,0,1,285.92,345.06Z" style="fill:#263238"></path><path d="M291.7,345.06h0a.87.87,0,0,1-.88-.88V339a.88.88,0,0,1,.88-.89h0a.88.88,0,0,1,.88.89v5.16A.87.87,0,0,1,291.7,345.06Z" style="fill:#263238"></path><path d="M297.47,345.06h0a.87.87,0,0,1-.88-.88V339a.88.88,0,0,1,.88-.89h0a.88.88,0,0,1,.88.89v5.16A.87.87,0,0,1,297.47,345.06Z" style="fill:#263238"></path><rect x="187.64" y="382.37" width="131.97" height="10.73" style="fill:#455a64"></rect><rect x="192.42" y="390.52" width="120.47" height="31.38" style="fill:#455a64"></rect><rect x="192.42" y="389.56" width="10.43" height="68.44" style="fill:#455a64"></rect><rect x="302.46" y="389.56" width="10.43" height="68.44" style="fill:#455a64"></rect><path d="M319.77,393.1c0,.14-29.62.26-66.14.26s-66.15-.12-66.15-.26,29.61-.26,66.15-.26S319.77,393,319.77,393.1Z" style="fill:#263238"></path><path d="M203,393.43c.15,0,.23,14.46.19,32.28S203,458,202.86,458s-.23-14.45-.19-32.28S202.86,393.43,203,393.43Z" style="fill:#263238"></path><path d="M302.87,393.43c.15,0,.26,13.54.26,30.24s-.11,30.23-.26,30.23-.26-13.53-.26-30.23S302.73,393.43,302.87,393.43Z" style="fill:#263238"></path><path d="M298.85,418.33s0-.13,0-.38,0-.63,0-1.11c0-1,0-2.41,0-4.26,0-3.73,0-9.14-.08-16l.15.15-92.34.11h0l.26-.26v21.74l-.26-.25,65.83.11,19.43.08,5.25,0,1.37,0h.47l-.44,0-1.33,0-5.2,0-19.37.07-66,.12h-.25v-.26c0-7,0-14.29,0-21.74v-.26h.27l92.34.11H299v.15c0,6.89-.06,12.33-.08,16.08,0,1.83,0,3.25,0,4.23,0,.46,0,.82,0,1.08S298.85,418.33,298.85,418.33Z" style="fill:#263238"></path><path d="M254.36,408c-.05,0-.06-.25-.19-.67a2.88,2.88,0,0,0-1-1.45,2.68,2.68,0,0,0-2.51-.33,2.62,2.62,0,0,0,0,4.91,2.7,2.7,0,0,0,2.51-.34,2.82,2.82,0,0,0,1-1.44c.13-.42.14-.68.19-.68a1.36,1.36,0,0,1,0,.72,2.78,2.78,0,0,1-1,1.7,3,3,0,0,1-2.89.49,3.08,3.08,0,0,1,0-5.81,3,3,0,0,1,2.89.49,2.79,2.79,0,0,1,1,1.69A1.33,1.33,0,0,1,254.36,408Z" style="fill:#263238"></path><polygon points="265.41 364.54 275.85 374.58 255.22 374.58 265.41 364.54" style="fill:#e0e0e0"></polygon><polygon points="255.22 374.58 265.41 364.54 245.24 364.54 255.22 374.58" style="fill:#f5f5f5"></polygon><polygon points="206.5 374.58 215.39 362.35 244.08 362.35 235.25 374.58 206.5 374.58" style="fill:#f5f5f5"></polygon><polygon points="244.08 362.35 255.22 374.58 235.25 374.58 244.08 362.35" style="fill:#e0e0e0"></polygon><path d="M275.85,374.58a5.17,5.17,0,0,1-.8-.67l-2.15-2-7.64-7.22h.31l-10.16,10.07-.2.19-.18-.2-1-1.06-10.15-11.2.35,0-6.49,8.81-1.84,2.45a5.86,5.86,0,0,1-.69.84,6.51,6.51,0,0,1,.58-.92l1.74-2.52,6.33-8.93.16-.22.19.2,10.21,11.16.95,1.06H255l10.22-10,.15-.15.16.15,7.51,7.36,2.07,2.07A6.89,6.89,0,0,1,275.85,374.58Z" style="fill:#263238"></path><path d="M206.5,374.58a7.41,7.41,0,0,1,.59-1l1.79-2.6,6.28-8.89.08-.11H222c6,0,11.49,0,15.44.08l4.68.08a11.73,11.73,0,0,1,1.71.1,10.16,10.16,0,0,1-1.71.1l-4.68.09c-3.95,0-9.41.07-15.44.07h-6.66l.2-.1-6.44,8.78c-.78,1-1.41,1.86-1.9,2.51A5.85,5.85,0,0,1,206.5,374.58Z" style="fill:#263238"></path><path d="M265.18,364.54a86.07,86.07,0,0,1-9.55.26,85.92,85.92,0,0,1-9.55-.26,89,89,0,0,1,9.55-.26A89.1,89.1,0,0,1,265.18,364.54Z" style="fill:#263238"></path><path d="M232,370.81a79.49,79.49,0,0,1-9.18.26,79.74,79.74,0,0,1-9.19-.26,82.55,82.55,0,0,1,9.19-.26A82.29,82.29,0,0,1,232,370.81Z" style="fill:#263238"></path><path d="M234.44,368.34a79.74,79.74,0,0,1-9.19.26,79.74,79.74,0,0,1-9.19-.26,82.55,82.55,0,0,1,9.19-.26A82.55,82.55,0,0,1,234.44,368.34Z" style="fill:#263238"></path><path d="M236.91,365.87a79.74,79.74,0,0,1-9.19.26,79.74,79.74,0,0,1-9.19-.26,82.55,82.55,0,0,1,9.19-.26A82.55,82.55,0,0,1,236.91,365.87Z" style="fill:#263238"></path><rect x="200.82" y="374.58" width="71.38" height="7.79" style="fill:#f5f5f5"></rect><rect x="224.42" y="374.58" width="47.79" height="7.79" style="fill:#e0e0e0"></rect><path d="M200.82,382.37a2.66,2.66,0,0,1,0-.52c0-.39,0-.89,0-1.52,0-1.39,0-3.32-.07-5.75v-.15h.15c7.1-.07,18.66-.11,31.7-.11l27.93.08,8.47.08,2.3,0a5.06,5.06,0,0,1,.8.05,3.87,3.87,0,0,1-.8.05l-2.3.05-8.47.09-27.93.07c-13,0-24.6,0-31.7-.1l.16-.16c0,2.43-.06,4.36-.07,5.75,0,.63,0,1.13,0,1.52A1.93,1.93,0,0,1,200.82,382.37Z" style="fill:#263238"></path></g></svg>