<svg xmlns="http://www.w3.org/2000/svg" viewBox="0 0 500 500"><g id="freepik--Shadow--inject-2"><ellipse id="freepik--path--inject-2" cx="250" cy="415.69" rx="193.89" ry="11.32" style="fill:#f5f5f5"></ellipse></g><g id="freepik--Lamp--inject-2"><ellipse cx="212" cy="176.69" rx="4.8" ry="3.24" style="fill:#FFC100"></ellipse><path d="M213.6,360.19h-3.24V123.33a1.61,1.61,0,0,1,1.62-1.62h0a1.62,1.62,0,0,1,1.62,1.62Z" style="fill:#FFC100"></path><polygon points="213.5 216.05 210.48 216.05 207.93 178.24 216.05 178.24 213.5 216.05" style="fill:#FFC100"></polygon><rect x="208.77" y="168.76" width="6.45" height="6.45" style="fill:#FFC100"></rect><polygon points="223.9 382.44 200.07 382.44 200.16 382.23 223.8 382.23 223.9 382.44" style="fill:#FFC100"></polygon><path d="M228.46,374.7v7.53H195.72V374.7h0a12.2,12.2,0,0,0,11.11-7.16l4.06-8.93h2.17l4.06,8.93a12.21,12.21,0,0,0,11.11,7.16Z" style="fill:#FFC100"></path><path d="M228.46,374.7h-.23a12.21,12.21,0,0,1-11.11-7.16l-3.52-7.76V214.53l2.43-36.1a2.55,2.55,0,0,0,.77-1.74,2.9,2.9,0,0,0-1.57-2.39v-5.54H213.6V123.33a1.62,1.62,0,0,0-3.24,0v45.43h-1.59v5.54a2.9,2.9,0,0,0-1.57,2.39,2.51,2.51,0,0,0,.74,1.7l2.42,35.87V359.79l-3.53,7.75a12.2,12.2,0,0,1-11.11,7.16v7.53h4.45l-.1.21H223.9l-.1-.21h4.66Z" style="fill:#fff;opacity:0.4"></path><path d="M251.42,164.89h0a524.07,524.07,0,0,1-78.65,0h0L183.14,127h0a141.88,141.88,0,0,1,57.9,0h0Z" style="fill:#FFC100"></path><path d="M251.42,164.89h0a524.07,524.07,0,0,1-78.65,0h0L183.14,127h0a141.88,141.88,0,0,1,57.9,0h0Z" style="fill:#fff;opacity:0.7000000000000001"></path></g><g id="freepik--Sofa--inject-2"><path d="M246.74,363.48H220.82l13.62-128.15c.58-5.42,4.86-9.82,9.55-9.82h113.1l-16.58,138Z" style="fill:#FFC100"></path><path d="M246.74,363.48H220.82l13.62-128.15c.58-5.42,4.86-9.82,9.55-9.82h113.1l-16.58,138Z" style="fill:#fff;opacity:0.1"></path><path d="M241,352.43H198.18L195.34,315l-.6-8h0l-.28-3.69a22.75,22.75,0,0,0-.42-2.9l-.15-.64a1.86,1.86,0,0,0-.13-.46,22.1,22.1,0,0,0-19.88-15.5h40.25q.66,0,1.32,0a22.09,22.09,0,0,1,21.1,15.53,1.86,1.86,0,0,1,.13.46,21.43,21.43,0,0,1,.57,3.54l.28,3.69h0Z" style="fill:#FFC100"></path><path d="M241,352.43H198.18L195.34,315l-.6-8h0l-.28-3.69a22.75,22.75,0,0,0-.42-2.9l-.15-.64a1.86,1.86,0,0,0-.13-.46,22.1,22.1,0,0,0-19.88-15.5h40.25q.66,0,1.32,0a22.09,22.09,0,0,1,21.1,15.53,1.86,1.86,0,0,1,.13.46,21.43,21.43,0,0,1,.57,3.54l.28,3.69h0Z" style="fill:#FFC100"></path><path d="M328.94,363.48h25.92l13.62-128.15c.58-5.42-2.76-9.82-7.46-9.82h-8.91c-4.69,0-9,4.4-9.55,9.82Z" style="fill:#FFC100"></path><path d="M280.59,323h15.59c3.79,0,6.86,3.55,6.86,7.92v13.63c0,4.38-3.07,7.92-6.86,7.92H280.59Z" style="fill:#FFC100"></path><g style="opacity:0.1"><path d="M280.59,323h15.59c3.79,0,6.86,3.55,6.86,7.92v13.63c0,4.38-3.07,7.92-6.86,7.92H280.59Z"></path></g><rect x="198.18" y="322.96" width="88.74" height="29.47" rx="5.42" transform="translate(485.1 675.4) rotate(180)" style="fill:#FFC100"></rect><path d="M378.8,305.86a22.1,22.1,0,0,1-18.33,21.79l-4,53.15c-.35,4.52-3.62,8-7.55,8H306.11c3.93,0,7.2-3.46,7.55-8l2.15-28.37,1.87-24.78A22.05,22.05,0,0,0,333.54,316c.21-.38.39-.79.57-1.2a21.77,21.77,0,0,0,1.9-9,22.23,22.23,0,0,0-.46-4.5c-.12-.6-.27-1.19-.43-1.76a22.55,22.55,0,0,0-3.67-7.19h0a22.14,22.14,0,0,0-7.65-6.3,21.84,21.84,0,0,0-9.87-2.33h42.79a21.76,21.76,0,0,1,9.87,2.33,22.14,22.14,0,0,1,7.65,6.3h0A22,22,0,0,1,378.8,305.86Z" style="fill:#FFC100"></path><path d="M378.8,305.86a22.1,22.1,0,0,1-18.33,21.79l-4,53.15c-.35,4.52-3.62,8-7.55,8H306.11c3.93,0,7.2-3.46,7.55-8l2.15-28.37,1.87-24.78A22.05,22.05,0,0,0,333.54,316c.21-.38.39-.79.57-1.2a21.77,21.77,0,0,0,1.9-9,22.23,22.23,0,0,0-.46-4.5c-.12-.6-.27-1.19-.43-1.76a22.55,22.55,0,0,0-3.67-7.19h0a22.14,22.14,0,0,0-7.65-6.3,21.84,21.84,0,0,0-9.87-2.33h42.79a21.76,21.76,0,0,1,9.87,2.33,22.14,22.14,0,0,1,7.65,6.3h0A22,22,0,0,1,378.8,305.86Z" style="opacity:0.1"></path><path d="M336,305.87a22.12,22.12,0,0,1-18.34,21.78l-4,53.15c-.34,4.52-3.62,8-7.56,8h-126c-3.93,0-7.2-3.47-7.56-8l-4-53.24a22.09,22.09,0,0,1-5.69-41.46,21.86,21.86,0,0,1,9.88-2.34,22.09,22.09,0,0,1,21.09,15.54,1.81,1.81,0,0,1,.13.47,22.29,22.29,0,0,1,.57,3.52l.28,3.7h0l3.43,45.43H288l3.71-49.14c.54-6.93,4.27-12.72,9.44-15.46a21.85,21.85,0,0,1,11.44-4c.44,0,.88-.05,1.32-.05a21.65,21.65,0,0,1,9.61,2.22c.09,0,.18.08.27.12a22,22,0,0,1,7.65,6.3h0A22,22,0,0,1,336,305.87Z" style="fill:#FFC100"></path><path d="M273.53,323c-9.85,2.33-20.09,5.61-25.59,13.93-3.05,4.6-4.13,10-4.67,15.54-.37,3.63-.51,7.34-.81,10.94-.77,9.09-3.79,19.32-12.1,23.07-5.67,2.56-12.23,1.33-18.45,1.64a21.74,21.74,0,0,0-4.53.7H180.07c-3.94,0-7.21-3.46-7.56-8l-4-53.23a22.09,22.09,0,1,1,25.29-28.27,2.6,2.6,0,0,1,.12.46,21.43,21.43,0,0,1,.57,3.54l.28,3.69v0l3.44,45.42h5.61a5.67,5.67,0,0,1-5.6-5.69V328.66a5.69,5.69,0,0,1,5.68-5.7Z" style="opacity:0.1"></path><path d="M342.06,405.35h1.46a1.66,1.66,0,0,0,1.55-1.48l2.14-15.09h-8.85l2.15,15.09A1.66,1.66,0,0,0,342.06,405.35Z" style="fill:#FFC100"></path><path d="M342.06,405.35h1.46a1.66,1.66,0,0,0,1.55-1.48l2.14-15.09h-8.85l2.15,15.09A1.66,1.66,0,0,0,342.06,405.35Z" style="fill:#fff;opacity:0.7000000000000001"></path><path d="M185.46,405.35h1.46a1.66,1.66,0,0,0,1.55-1.48l2.15-15.09h-8.85l2.14,15.09A1.66,1.66,0,0,0,185.46,405.35Z" style="fill:#FFC100"></path><path d="M185.46,405.35h1.46a1.66,1.66,0,0,0,1.55-1.48l2.15-15.09h-8.85l2.14,15.09A1.66,1.66,0,0,0,185.46,405.35Z" style="fill:#fff;opacity:0.5"></path><path d="M230.73,405.35h1.45a1.66,1.66,0,0,0,1.56-1.48l2.14-15.09H227l2.15,15.09A1.66,1.66,0,0,0,230.73,405.35Z" style="fill:#FFC100"></path><path d="M230.73,405.35h1.45a1.66,1.66,0,0,0,1.56-1.48l2.14-15.09H227l2.15,15.09A1.66,1.66,0,0,0,230.73,405.35Z" style="fill:#fff;opacity:0.7000000000000001"></path><path d="M297.88,405.35h1.46a1.66,1.66,0,0,0,1.55-1.48L303,388.78h-8.85l2.14,15.09A1.66,1.66,0,0,0,297.88,405.35Z" style="fill:#FFC100"></path><path d="M297.88,405.35h1.46a1.66,1.66,0,0,0,1.55-1.48L303,388.78h-8.85l2.14,15.09A1.66,1.66,0,0,0,297.88,405.35Z" style="fill:#fff;opacity:0.5"></path><rect x="335.97" y="221.71" width="6.42" height="1" style="fill:#FFC100"></rect><rect x="303.82" y="221.71" width="25.13" height="1" style="fill:#FFC100"></rect></g><g id="freepik--walking-stick--inject-2"><g style="opacity:0.2"><path d="M318.78,297.41a24.71,24.71,0,0,0-1.82-3.25,11.33,11.33,0,0,0-1.94-2.24,10.25,10.25,0,0,0-5.39-2.6,9.85,9.85,0,0,0-5,.54c-4.17,1.57-7.1,5.83-7.84,10.32a.34.34,0,0,0,0,.1l-8.26,88.51h3l8.23-88.18c.79-4.66,4.53-9,9.45-8.32a7.82,7.82,0,0,1,5.27,3.53,20.78,20.78,0,0,1,1.34,2.32l-.44,1.36a1.5,1.5,0,0,0,2.86.93l.62-1.93A1.52,1.52,0,0,0,318.78,297.41Z" style="fill:#263238"></path></g><path d="M269.8,413.22a1.47,1.47,0,0,1-.36,0,1.5,1.5,0,0,1-1.1-1.82l30.13-120.77,0-.1a13.4,13.4,0,0,1,8.58-8.85c2.44-.7,6.19-.82,10.28,2.59l.08.07a10,10,0,0,1,2.82,9.5L318.81,300a1.51,1.51,0,1,1-2.93-.69l1.46-6.19a7,7,0,0,0-1.94-6.61c-2.42-2-5-2.69-7.49-2a10.45,10.45,0,0,0-6.54,6.84L271.25,412.09A1.49,1.49,0,0,1,269.8,413.22Z" style="fill:#263238"></path></g><g id="freepik--Character--inject-2"><path d="M257.23,319.26l-40.43,1.62-14.54,2.29c-3.18,22.89-18.3,57.77-19.81,61.23l0,0c0,.05,0,.1-.06.13h0l-.73,2.28L172.51,385l.38-2.07v0q0-.09,0-.39c.5-5.56,5.7-63.25,12.23-75.88,6.86-13.28,66.74-12.42,66.74-12.42C271.31,298.8,257.23,319.26,257.23,319.26Z" style="fill:#ffb373"></path><path d="M179.43,396.35a25.85,25.85,0,0,1,.22,3.51c0,1.21-.24,2.65-1.34,3.17a2.66,2.66,0,0,1-2.58-.46c-.75-.53-1.35-1.25-2.11-1.77-2-1.36-4.58-1.16-7-1.34a19.21,19.21,0,0,1-3.2-.51,4.13,4.13,0,0,1-1.41-.56c-1.19-.83-1.34-2.5-1.37-3.95a18.41,18.41,0,0,0,7,0,9,9,0,0,0,3.2-1,1,1,0,0,1,.16-.1l1.5-8.3,9.13,1.85-2.57,8A5.82,5.82,0,0,1,179.43,396.35Z" style="fill:#ffb373"></path><path d="M179.43,396.35a25.85,25.85,0,0,1,.22,3.51c0,1.21-.24,2.65-1.34,3.17a2.66,2.66,0,0,1-2.58-.46c-.75-.53-1.35-1.25-2.11-1.77-2-1.36-4.58-1.16-7-1.34a19.21,19.21,0,0,1-3.2-.51,4.13,4.13,0,0,1-1.41-.56c-1.19-.83-1.34-2.5-1.37-3.95a18.41,18.41,0,0,0,7,0,9,9,0,0,0,3.2-1,1,1,0,0,1,.16-.1l1.5-8.3,9.13,1.85-2.57,8A5.82,5.82,0,0,1,179.43,396.35Z" style="fill:#FFC100"></path><g style="opacity:0.8"><path d="M179.43,396.35a25.85,25.85,0,0,1,.22,3.51c0,1.21-.24,2.65-1.34,3.17a2.66,2.66,0,0,1-2.58-.46c-.75-.53-1.35-1.25-2.11-1.77-2-1.36-4.58-1.16-7-1.34a19.21,19.21,0,0,1-3.2-.51,4.13,4.13,0,0,1-1.41-.56c-1.19-.83-1.34-2.5-1.37-3.95a18.41,18.41,0,0,0,7,0,9,9,0,0,0,3.2-1,1,1,0,0,1,.16-.1l1.5-8.3,9.13,1.85-2.57,8A5.82,5.82,0,0,1,179.43,396.35Z" style="fill:#ffb373"></path><path d="M179.43,396.35a25.85,25.85,0,0,1,.22,3.51c0,1.21-.24,2.65-1.34,3.17a2.66,2.66,0,0,1-2.58-.46c-.75-.53-1.35-1.25-2.11-1.77-2-1.36-4.58-1.16-7-1.34a19.21,19.21,0,0,1-3.2-.51,4.13,4.13,0,0,1-1.41-.56c-1.19-.83-1.34-2.5-1.37-3.95a18.41,18.41,0,0,0,7,0,9,9,0,0,0,3.2-1,1,1,0,0,1,.16-.1l1.5-8.3,9.13,1.85-2.57,8A5.82,5.82,0,0,1,179.43,396.35Z" style="fill:#FFC100"></path></g><g style="opacity:0.8"><path d="M179.43,396.35a25.85,25.85,0,0,1,.22,3.51c0,1.21-.24,2.65-1.34,3.17a2.66,2.66,0,0,1-2.58-.46c-.75-.53-1.35-1.25-2.11-1.77-2-1.36-4.58-1.16-7-1.34a19.21,19.21,0,0,1-3.2-.51,4.13,4.13,0,0,1-1.41-.56c-1.19-.83-1.34-2.5-1.37-3.95a18.41,18.41,0,0,0,7,0,9,9,0,0,0,3.2-1,1,1,0,0,1,.16-.1l1.5-8.3,9.13,1.85-2.57,8A5.82,5.82,0,0,1,179.43,396.35Z" style="fill:#fff"></path><path d="M179.43,396.35a25.85,25.85,0,0,1,.22,3.51c0,1.21-.24,2.65-1.34,3.17a2.66,2.66,0,0,1-2.58-.46c-.75-.53-1.35-1.25-2.11-1.77-2-1.36-4.58-1.16-7-1.34a19.21,19.21,0,0,1-3.2-.51,4.13,4.13,0,0,1-1.41-.56c-1.19-.83-1.34-2.5-1.37-3.95a18.41,18.41,0,0,0,7,0,9,9,0,0,0,3.2-1,1,1,0,0,1,.16-.1l1.5-8.3,9.13,1.85-2.57,8A5.82,5.82,0,0,1,179.43,396.35Z" style="fill:#fff"></path><g style="opacity:0.8"><path d="M179.43,396.35a25.85,25.85,0,0,1,.22,3.51c0,1.21-.24,2.65-1.34,3.17a2.66,2.66,0,0,1-2.58-.46c-.75-.53-1.35-1.25-2.11-1.77-2-1.36-4.58-1.16-7-1.34a19.21,19.21,0,0,1-3.2-.51,4.13,4.13,0,0,1-1.41-.56c-1.19-.83-1.34-2.5-1.37-3.95a18.41,18.41,0,0,0,7,0,9,9,0,0,0,3.2-1,1,1,0,0,1,.16-.1l1.5-8.3,9.13,1.85-2.57,8A5.82,5.82,0,0,1,179.43,396.35Z" style="fill:#fff"></path><path d="M179.43,396.35a25.85,25.85,0,0,1,.22,3.51c0,1.21-.24,2.65-1.34,3.17a2.66,2.66,0,0,1-2.58-.46c-.75-.53-1.35-1.25-2.11-1.77-2-1.36-4.58-1.16-7-1.34a19.21,19.21,0,0,1-3.2-.51,4.13,4.13,0,0,1-1.41-.56c-1.19-.83-1.34-2.5-1.37-3.95a18.41,18.41,0,0,0,7,0,9,9,0,0,0,3.2-1,1,1,0,0,1,.16-.1l1.5-8.3,9.13,1.85-2.57,8A5.82,5.82,0,0,1,179.43,396.35Z" style="fill:#fff"></path></g></g><polygon points="182.96 382.74 182.45 384.4 182.43 384.44 181.68 386.87 181.64 386.86 172.51 385.01 172.32 384.97 172.92 382.51 173.43 380.44 182.96 382.74" style="fill:#FFC100"></polygon><polygon points="182.96 382.74 182.45 384.4 182.43 384.44 181.68 386.87 181.64 386.86 172.51 385.01 172.32 384.97 172.92 382.51 173.43 380.44 182.96 382.74" style="fill:#fff;opacity:0.5"></polygon><path d="M270.93,324.06c-1.05.18-2.19.33-3.4.44l-.35,0-1.79.14h-.16c-16.21,1-42.17-2.42-42.17-2.42s-.47,4.48-1.38,13a338.9,338.9,0,0,1-9.59,51.63c-.23.83-.45,1.67-.68,2.5l-.39,1.67-.85,3.58-10.19-2,0-1.24-.05-1.79,0-.63c0-1.56-.08-3.25-.12-5-.3-13.8-.47-34,.48-50.35.72-12.3,2.07-22.45,4.47-26.1,6.33-9.62,30.3-12.47,47.46-13.24,10.39-.47,18.28-.18,18.28-.18l8.94-2.92S285.71,321.52,270.93,324.06Z" style="fill:#f8b07b"></path><polygon points="211.02 391.06 210.17 394.64 199.98 392.68 199.94 391.44 199.89 389.65 199.87 389.02 199.87 388.85 211.02 391.06" style="fill:#FFC100"></polygon><polygon points="211.02 391.06 210.17 394.64 199.98 392.68 199.94 391.44 199.89 389.65 199.87 389.02 199.87 388.85 211.02 391.06" style="fill:#fff;opacity:0.5"></polygon><path d="M209.84,405.24A4.86,4.86,0,0,1,210,408c-2.72-.3-4-.83-7.8-1a6.08,6.08,0,0,1-3.57-.91,9.49,9.49,0,0,1-2.14-3.08l0,0a8.05,8.05,0,0,0,2.56-1.76,5.47,5.47,0,0,1,1.24-1.18c0-.48-.25-7.35-.25-7.35l10.19,2-.72,3.06,0,.08-.84,3.91h0s0,0,0,0A25.66,25.66,0,0,1,209.84,405.24Z" style="fill:#ffb373"></path><path d="M209.84,405.24A4.86,4.86,0,0,1,210,408c-2.72-.3-4-.83-7.8-1a6.08,6.08,0,0,1-3.57-.91,9.49,9.49,0,0,1-2.14-3.08l0,0a8.05,8.05,0,0,0,2.56-1.76,5.47,5.47,0,0,1,1.24-1.18c0-.48-.25-7.35-.25-7.35l10.19,2-.72,3.06,0,.08-.84,3.91h0s0,0,0,0A25.66,25.66,0,0,1,209.84,405.24Z" style="fill:#FFC100"></path><path d="M209.84,405.24A4.86,4.86,0,0,1,210,408c-2.72-.3-4-.83-7.8-1a6.08,6.08,0,0,1-3.57-.91,9.49,9.49,0,0,1-2.14-3.08l0,0a8.05,8.05,0,0,0,2.56-1.76,5.47,5.47,0,0,1,1.24-1.18c0-.48-.25-7.35-.25-7.35l10.19,2-.72,3.06,0,.08-.84,3.91h0s0,0,0,0A25.66,25.66,0,0,1,209.84,405.24Z" style="fill:#fff;opacity:0.8"></path><path d="M247.3,230.74c-2,5.87-4.12,11.57-6.4,17.3s-4.63,11.39-7.3,17.11l-1.08,2.24a11.73,11.73,0,0,1-2.78,3.66,15.06,15.06,0,0,1-6.49,3.26,32.64,32.64,0,0,1-10.84.58,74.89,74.89,0,0,1-18.83-4.46l1.63-6.53,4.4.38c1.48.11,3,.13,4.42.24a82.23,82.23,0,0,0,8.6,0,26.12,26.12,0,0,0,7.33-1.28,3.42,3.42,0,0,0,1.55-.95c0-.08-.1,0-.1,0l.76-2c2.06-5.55,4.09-11.33,6.11-17s4.12-11.45,6.26-17.12Z" style="fill:#ffb373"></path><path d="M229.51,229.8c-4.37,7.94-2.79,17.91-2.79,17.91l12,1.7s12.16-14.68,9.28-21.17C244.8,221,234.11,221.38,229.51,229.8Z" style="fill:#FFC100"></path><path d="M229.51,229.8c-4.37,7.94-2.79,17.91-2.79,17.91l12,1.7s12.16-14.68,9.28-21.17C244.8,221,234.11,221.38,229.51,229.8Z" style="opacity:0.6000000000000001"></path><rect x="230.22" y="243.9" width="1.07" height="3.69" transform="translate(-45.74 438.57) rotate(-81.7)" style="fill:#fff"></rect><path d="M238.73,249.41l-7.64-1.08A68.66,68.66,0,0,1,237.15,233c4-6.92,7-9.11,10.7-7.45C249.64,234.66,238.73,249.41,238.73,249.41Z" style="opacity:0.2;isolation:isolate"></path><path d="M185.9,270.06a6,6,0,0,1-2.23-.79c-2.44-2-1.36-5.65.62-8.09h0c.08-.1,2.32-2.48,2.41-2.58,2.15-2.28,3.6-.11,5.88,2l4.56,4.3-2.19,5.7a33.62,33.62,0,0,1-7.16-.26c-.44-.07-1.16-.18-1.89-.33Z" style="fill:#ffb373"></path><path d="M269.54,219.78c1.23,0,13.64,2.11,11.41,13.87-9.5,46.19-3.28,35.46,3.77,56.35l-48.17,2.6s3.8-23.13,1.29-28.74c-4.25-9.46-4.36-16.56-1.48-26.56,3.19-11,4.51-14.06,4.51-14.06C245.29,221.91,260.09,217,269.54,219.78Z" style="fill:#FFC100"></path><path d="M269.54,219.78c1.23,0,13.64,2.11,11.41,13.87-9.5,46.19-3.28,35.46,3.77,56.35l-48.17,2.6s3.8-23.13,1.29-28.74c-4.25-9.46-4.36-16.56-1.48-26.56,3.19-11,4.51-14.06,4.51-14.06C245.29,221.91,260.09,217,269.54,219.78Z" style="opacity:0.5"></path><path d="M257.46,203.34c-.36,5.5-.39,13.48,3.83,16.58a51.44,51.44,0,0,0-12,12.85,1.56,1.56,0,0,1-2.17.43,1.52,1.52,0,0,1-.39-.37c-5.13-7-2.15-10.74-2.15-10.74,3.46-1,2.81-4.13,1.25-8.17Z" style="fill:#ffb373"></path><path d="M254.36,207.79l-6.56,4.32-2,1.81a13.22,13.22,0,0,1,1.29,5.32C251.46,217.65,256.16,211.35,254.36,207.79Z" style="opacity:0.2;isolation:isolate"></path><path d="M256.39,190.58c2.06,8.84,3.13,12.57.07,18.26-4.59,8.67-15.89,9.27-20.54,1.23-4.16-7.24-6.92-20.46.59-26.46a12.38,12.38,0,0,1,19.88,7Z" style="fill:#ffb373"></path><path d="M242.68,208.11a6.27,6.27,0,0,1-1.14.1.21.21,0,0,1-.23-.2h0a.23.23,0,0,1,.23-.23,6.13,6.13,0,0,0,4.93-2.49.23.23,0,0,1,.31-.07.23.23,0,0,1,.07.31A6.29,6.29,0,0,1,242.68,208.11Z" style="fill:#263238"></path><path d="M245.52,196.4a6.9,6.9,0,0,0,3.62-1.31A13.42,13.42,0,0,0,245.52,196.4Z" style="opacity:0.2;isolation:isolate"></path><path d="M245.61,202.79c.81.75,2.48.94,3.46,3.2A20.16,20.16,0,0,0,245.61,202.79Z" style="opacity:0.2;isolation:isolate"></path><path d="M245.25,195.78a5,5,0,0,0,2.87-1.7A9.48,9.48,0,0,0,245.25,195.78Z" style="opacity:0.2;isolation:isolate"></path><path d="M243.24,197c.21.71,0,1.39-.46,1.53s-1-.32-1.21-1,0-1.38.45-1.53S243,196.32,243.24,197Z" style="fill:#263238"></path><path d="M235.25,199.41c.22.7,0,1.4-.45,1.53s-1-.32-1.22-1,0-1.39.45-1.53S235,198.7,235.25,199.41Z" style="fill:#263238"></path><path d="M234.25,198.3l-1.83,0S233.68,199.39,234.25,198.3Z" style="fill:#263238"></path><path d="M238.09,200a19.73,19.73,0,0,1-1.16,5.26,3.19,3.19,0,0,0,2.66-.28Z" style="fill:#ea573f"></path><path d="M260.71,196.81a6.61,6.61,0,0,1-2.35,4.49c-1.78,1.49-3.64.11-3.91-2.07-.26-2,.35-5.1,2.52-5.74a3,3,0,0,1,3.74,3.32Z" style="fill:#ffb373"></path><path d="M243.84,191.78a.44.44,0,0,1-.51,0c-1.73-1-4.09,0-4.11,0a.43.43,0,0,1-.57-.21.44.44,0,0,1,.21-.58c.12,0,2.8-1.23,4.91,0a.43.43,0,0,1,.15.59A.5.5,0,0,1,243.84,191.78Z" style="fill:#263238"></path><path d="M243.84,191.78a.44.44,0,0,1-.51,0c-1.73-1-4.09,0-4.11,0a.43.43,0,0,1-.57-.21.44.44,0,0,1,.21-.58c.12,0,2.8-1.23,4.91,0a.43.43,0,0,1,.15.59A.5.5,0,0,1,243.84,191.78Z" style="fill:#fff;opacity:0.8"></path><path d="M234.53,193.45a.43.43,0,0,0-.41-.72,4.3,4.3,0,0,0-3,2.53.42.42,0,0,0,.27.55.43.43,0,0,0,.55-.26,3.45,3.45,0,0,1,2.43-2A.47.47,0,0,0,234.53,193.45Z" style="fill:#263238"></path><path d="M234.53,193.45a.43.43,0,0,0-.41-.72,4.3,4.3,0,0,0-3,2.53.42.42,0,0,0,.27.55.43.43,0,0,0,.55-.26,3.45,3.45,0,0,1,2.43-2A.47.47,0,0,0,234.53,193.45Z" style="fill:#fff;opacity:0.8"></path><path d="M242.24,196.17l-1.83,0S241.65,197.26,242.24,196.17Z" style="fill:#263238"></path><path d="M270.06,254.92c.25-5.77,8.19-28.13,6.12-30.65-1.52-.67-8.72-3-12.13,1.37C257,246.07,270.06,254.92,270.06,254.92Z" style="opacity:0.2;isolation:isolate"></path><path d="M205.76,295.66c-6.93,1-13.89,3.31-19,8-5.74,5.26-8.66,12.87-11,20.29a237,237,0,0,0-10.18,51.2c9.1,1.15,18.31,2.34,26.86,5.65,4.69,1.81,9.17,4.26,14.06,5.43s10.49.88,14.36-2.34c4.41-3.67,5.39-9.95,6.06-15.65q1.6-13.5,3.2-27c.51-4.31,1.23-9,4.52-11.87,2.75-2.38,6.62-2.81,10.24-3.14,7.31-.67,20.58-1.56,27.89-2.23,7-.63,24.42-8.29,14.8-27.42-1.73-3.45-2.52-7.83-6.05-9.39-2.21-1-4.73-.72-7.13-.46l-26.73,3c-3.6.41-7.35.46-10.73,1.78C233.28,293,212.69,294.68,205.76,295.66Z" style="fill:#b7b7b7"></path><path d="M210.23,248.58s1.31-5.07,1.76-7a20.52,20.52,0,0,0,.51-3.27l26.86,31s-1.18,7.52-3,9.5Z" style="fill:#FFC100"></path><g style="opacity:0.8"><path d="M210.23,248.58s1.31-5.07,1.76-7a20.52,20.52,0,0,0,.51-3.27l26.86,31s-1.18,7.52-3,9.5Z" style="fill:#fff"></path></g><path d="M210.23,248.58s4.56-7.89,6.24-10.93a48,48,0,0,0,2.43-4.91l26.86,31s-5.58,11.33-9.37,15Z" style="fill:#FFC100"></path><g style="opacity:0.9"><path d="M210.23,248.58s4.56-7.89,6.24-10.93a48,48,0,0,0,2.43-4.91l26.86,31s-5.58,11.33-9.37,15Z" style="fill:#fff"></path></g><rect x="222.93" y="242.67" width="3.14" height="39.97" transform="translate(-117.15 211) rotate(-40.88)" style="fill:#FFC100"></rect><g style="opacity:0.4"><rect x="222.93" y="242.67" width="3.14" height="39.97" transform="translate(-117.15 211) rotate(-40.88)"></rect></g><rect x="223.13" y="234.79" width="20.96" height="39.97" transform="translate(-109.76 215.04) rotate(-40.88)" style="fill:#FFC100"></rect><path d="M243,265.29l.52.28-2.89,5.31c-.53.2-1.06.37-1.6.53-.46-.28-.91-.57-1.36-.87l3-6Z" style="fill:#ffb373"></path><path d="M270.17,272.16l-.67-.51-.09-.06a2.64,2.64,0,0,0,.1-.3.07.07,0,0,0,0-.06l.07-.31.06-.29.31-.1,0,.22Z" style="fill:#ffb373"></path><path d="M280.48,271.8c-.09.46-.19.92-.31,1.4s-.24,1-.42,1.48c-1.09,8.92-10.91,7.11-10.91,7.11a18.86,18.86,0,0,1-3.68-.06,41.6,41.6,0,0,1-10.2-2.45,83.73,83.73,0,0,1-15.9-7.87c.54-.16,1.07-.33,1.6-.53l2.89-5.31-.52-.28,2,.63c1.43.45,2.88.84,4.3,1.26,2.86.81,5.71,1.55,8.51,2.11,2.63.58,6.72,1.65,9.39,1.68a8.16,8.16,0,0,0,2.41-.34l-.06.29-.07.31a.07.07,0,0,1,0,.06,2.64,2.64,0,0,1-.1.3l.09.06.67.51-.23-1.41,0-.22-.31.1c0-.16.06-.32.08-.48s-.16-29.85-.66-35.76l13.79-.25C283.54,240.49,281.1,268.45,280.48,271.8Z" style="fill:#ffb373"></path><path d="M270.17,272.16l-.67-.51-.09-.06a2.64,2.64,0,0,0,.1-.3.07.07,0,0,0,0-.06l.07-.31.06-.29.31-.1,0,.22Z" style="fill:#ffb373"></path><path d="M243.55,265.57l-2.89,5.31c-.53.2-1.06.37-1.6.53a28.7,28.7,0,0,1-4.78,1,5.89,5.89,0,0,1-2.93-.41c-2.89-1.22-5.89-2.59-3-7.45,0-.06.22-.7.4-1.34s.36-1.27.39-1.33c1.43-2.8,4.23-1.61,7-.2l6.87,3.65Z" style="fill:#ffb373"></path><path d="M263.07,231.9c.94,10.83,4.45,9.28,6.47,15.31l13-1.84S286.8,237.3,285,230a11.85,11.85,0,0,0-17.83-6.94A8.88,8.88,0,0,0,263.07,231.9Z" style="fill:#FFC100"></path><path d="M263.07,231.9c.94,10.83,4.45,9.28,6.47,15.31l13-1.84S286.8,237.3,285,230a11.85,11.85,0,0,0-17.83-6.94A8.88,8.88,0,0,0,263.07,231.9Z" style="opacity:0.4"></path><rect x="270.47" y="242.5" width="3.69" height="1.07" transform="translate(-37.62 50.26) rotate(-9.87)" style="fill:#fff"></rect><rect x="276.15" y="241.83" width="3.98" height="1.07" transform="translate(-16.68 20.59) rotate(-4.12)" style="fill:#fff"></rect><path d="M270.37,190.57a9.18,9.18,0,0,0,1-8.18c-1.58-3.76-5.93-5.38-9.82-6.6l-5.35-1.67c-1.3-.41-2.81-.79-4,0s-1.4,2.66-.78,4a11.53,11.53,0,0,0,2.87,3.37,41.5,41.5,0,0,1,7.58,10.46C264.62,196.71,268,194.5,270.37,190.57Z" style="fill:#263238"></path><path d="M270.37,190.57a9.18,9.18,0,0,0,1-8.18c-1.58-3.76-5.93-5.38-9.82-6.6l-5.35-1.67c-1.3-.41-2.81-.79-4,0s-1.4,2.66-.78,4a11.53,11.53,0,0,0,2.87,3.37,41.5,41.5,0,0,1,7.58,10.46C264.62,196.71,268,194.5,270.37,190.57Z" style="fill:#fff;opacity:0.9"></path><path d="M261.73,205.26a7.51,7.51,0,0,1-4.46,1.87,13.31,13.31,0,0,0,1.08-5.82h0a6.56,6.56,0,0,0,2.34-4.49,3,3,0,0,0-.07-1.23,3,3,0,0,0-2.69-2.18,2.57,2.57,0,0,0-.87.07l-.1,0c-1.83.54-2.55,2.85-2.58,4.74-1.8-1.33-2.56-4-3.9-6A9.77,9.77,0,0,0,245,188.4a10.54,10.54,0,0,0-2.79-.43,14.05,14.05,0,0,0-8.9,3.29,15.88,15.88,0,0,1-1.31,1,4,4,0,0,1-.8.39,2,2,0,0,1-2.28-.6,2.68,2.68,0,0,1,.19-2.42,24.18,24.18,0,0,1,12.08-12l0,0c.7-.32,1.41-.6,2.13-.85.48-.16.94-.3,1.37-.4l.13,0,.67-.13.45-.06c6.11-.83,13.44,1.53,16.24,6.54C265.8,189.13,267.47,200.62,261.73,205.26Z" style="fill:#263238"></path><path d="M261.73,205.26a7.51,7.51,0,0,1-4.46,1.87,13.31,13.31,0,0,0,1.08-5.82h0a6.56,6.56,0,0,0,2.34-4.49,3,3,0,0,0-.07-1.23,3,3,0,0,0-2.69-2.18,2.57,2.57,0,0,0-.87.07l-.1,0c-1.83.54-2.55,2.85-2.58,4.74-1.8-1.33-2.56-4-3.9-6A9.77,9.77,0,0,0,245,188.4a10.54,10.54,0,0,0-2.79-.43,14.05,14.05,0,0,0-8.9,3.29,15.88,15.88,0,0,1-1.31,1,4,4,0,0,1-.8.39,2,2,0,0,1-2.28-.6,2.68,2.68,0,0,1,.19-2.42,24.18,24.18,0,0,1,12.08-12l0,0c.7-.32,1.41-.6,2.13-.85.48-.16.94-.3,1.37-.4l.13,0,.67-.13.45-.06c6.11-.83,13.44,1.53,16.24,6.54C265.8,189.13,267.47,200.62,261.73,205.26Z" style="fill:#fff;opacity:0.8"></path><path d="M233.51,197.52a2.2,2.2,0,0,0-2,3.58,7.19,7.19,0,0,0,1.36,1.34,3.18,3.18,0,0,0,2.19,1,2.11,2.11,0,0,0,1.44-1,6,6,0,0,0,.71-1.64,3.44,3.44,0,0,0,.24-1.22C237.35,198.16,234.66,197.52,233.51,197.52Z" style="fill:none;stroke:#263238;stroke-linecap:round;stroke-linejoin:round;stroke-width:0.5px"></path><path d="M242.66,194.45c1.2-.64,2.8-.71,3.49.18a2.22,2.22,0,0,1,.25,1.9,8.28,8.28,0,0,1-.88,2,4.4,4.4,0,0,1-1.93,2.15,2.5,2.5,0,0,1-2,0,5.23,5.23,0,0,1-1.46-1.08,3,3,0,0,1-.79-1C238.81,197.2,241.43,195.1,242.66,194.45Z" style="fill:none;stroke:#263238;stroke-linecap:round;stroke-linejoin:round;stroke-width:0.5px"></path><path d="M237.35,199.86a.37.37,0,0,1-.14,0,.26.26,0,0,1-.07-.35,1.94,1.94,0,0,1,2.76-.41.25.25,0,0,1,0,.35.24.24,0,0,1-.35,0,1.4,1.4,0,0,0-1.07-.26,1.36,1.36,0,0,0-.95.57A.26.26,0,0,1,237.35,199.86Z" style="fill:#263238"></path><path d="M233.12,217.43a.25.25,0,0,1-.2-.13,5.13,5.13,0,0,1-.44-3.22l0-.39c.07-1,0-2.37-.95-2.95a3.22,3.22,0,0,0-1.38-.4,4.89,4.89,0,0,1-1.34-.34c-1.62-.75-2-3-1.45-4.66a17,17,0,0,1,.81-2,10.86,10.86,0,0,0,.94-2.58,11.23,11.23,0,0,0-.68-5.09c-.12-.4-.23-.81-.34-1.21-.52-2-.8-4.72.82-6.49a2.81,2.81,0,0,1,2.43-.61,4.27,4.27,0,0,1,3.24,2.67.27.27,0,0,1-.13.35.28.28,0,0,1-.36-.13,3.72,3.72,0,0,0-2.84-2.36,2.24,2.24,0,0,0-1.95.44c-1.46,1.59-1.18,4.13-.69,6,.1.4.22.8.33,1.21a8.81,8.81,0,0,1-.28,8,15,15,0,0,0-.79,2c-.44,1.49-.18,3.4,1.17,4a4.72,4.72,0,0,0,1.19.29,4,4,0,0,1,1.59.48c.9.58,1.3,1.74,1.19,3.43l0,.4a4.83,4.83,0,0,0,.36,2.9.27.27,0,0,1-.08.37A.38.38,0,0,1,233.12,217.43Z" style="fill:#263238"></path><g style="opacity:0.9"><path d="M233.12,217.43a.25.25,0,0,1-.2-.13,5.13,5.13,0,0,1-.44-3.22l0-.39c.07-1,0-2.37-.95-2.95a3.22,3.22,0,0,0-1.38-.4,4.89,4.89,0,0,1-1.34-.34c-1.62-.75-2-3-1.45-4.66a17,17,0,0,1,.81-2,10.86,10.86,0,0,0,.94-2.58,11.23,11.23,0,0,0-.68-5.09c-.12-.4-.23-.81-.34-1.21-.52-2-.8-4.72.82-6.49a2.81,2.81,0,0,1,2.43-.61,4.27,4.27,0,0,1,3.24,2.67.27.27,0,0,1-.13.35.28.28,0,0,1-.36-.13,3.72,3.72,0,0,0-2.84-2.36,2.24,2.24,0,0,0-1.95.44c-1.46,1.59-1.18,4.13-.69,6,.1.4.22.8.33,1.21a8.81,8.81,0,0,1-.28,8,15,15,0,0,0-.79,2c-.44,1.49-.18,3.4,1.17,4a4.72,4.72,0,0,0,1.19.29,4,4,0,0,1,1.59.48c.9.58,1.3,1.74,1.19,3.43l0,.4a4.83,4.83,0,0,0,.36,2.9.27.27,0,0,1-.08.37A.38.38,0,0,1,233.12,217.43Z" style="fill:#fff;opacity:0.7000000000000001"></path></g><path d="M241.47,228c.36,3.19,2.14,6.53,5.22,7.4a7.6,7.6,0,0,0,6.41-1.5,23,23,0,0,0,4.57-5l4-5.36c1.11-1.51,2.28-3.18,2.22-5.05a4.29,4.29,0,0,0-2-3.42c-1.16-.73-2.61-1.33-3.86-.77a4.51,4.51,0,0,1-.56,3.86,7.38,7.38,0,0,1-2.76,2.18c-1.54.8-3.35,1.53-5,1A4.12,4.12,0,0,1,247,217.8c-1.86-1.28-2.72,1-3.51,2A11.72,11.72,0,0,0,241.47,228Z" style="fill:#FFC100"></path><path d="M270.17,272.16l-.67-.51,0-.73.4-.17Z" style="fill:#ffb373"></path><path d="M172,256l.43.79a2.81,2.81,0,0,1,.38,1.41v4.47c0,2.73,3,5,6.65,5h1a7.06,7.06,0,0,0,6-2.87,2.09,2.09,0,0,0,.84-.38l2.59-1.93a1.33,1.33,0,0,0,.6-1.07V259c0-.83-.92-1.51-2-1.51h-1.36c-.08-.16.07-.42.28-.68l0-.05a5.87,5.87,0,0,1,.7-.68l.06,0s-.12-.57-1.49-.28c-.39.08-.76.18-1.1.28l-.15,0h0l-.11,0a5.57,5.57,0,0,0-3.54-.06,5.6,5.6,0,0,0-3.27,0,1.25,1.25,0,0,1,.25.09h-.5l.25-.09a5.62,5.62,0,0,0-3.44.09h-.47c-.34-.1-.73-.2-1.12-.28C172.11,255.47,172,256,172,256Zm15,7.68c0-.05.06-3.58.07-5.08,0-.37.4-.66.9-.66h.57c.7,0,1.28.43,1.28,1v2.19c0,.73,0,.69-.73,1.22Z" style="fill:#FFC100"></path><path d="M172,256l.43.79a2.81,2.81,0,0,1,.38,1.41v4.47c0,2.73,3,5,6.65,5h1a7.06,7.06,0,0,0,6-2.87,2.09,2.09,0,0,0,.84-.38l2.59-1.93a1.33,1.33,0,0,0,.6-1.07V259c0-.83-.92-1.51-2-1.51h-1.36c-.08-.16.07-.42.28-.68l0-.05a5.87,5.87,0,0,1,.7-.68l.06,0s-.12-.57-1.49-.28c-.39.08-.76.18-1.1.28l-.15,0h0l-.11,0a5.57,5.57,0,0,0-3.54-.06,5.6,5.6,0,0,0-3.27,0,1.25,1.25,0,0,1,.25.09h-.5l.25-.09a5.62,5.62,0,0,0-3.44.09h-.47c-.34-.1-.73-.2-1.12-.28C172.11,255.47,172,256,172,256Zm15,7.68c0-.05.06-3.58.07-5.08,0-.37.4-.66.9-.66h.57c.7,0,1.28.43,1.28,1v2.19c0,.73,0,.69-.73,1.22Z" style="fill:#fff;opacity:0.5"></path><path d="M173.94,241.68c.33,1.73,1.72,3,3.12,4.13a13.31,13.31,0,0,1,3.81,3.62c.87,1.54.78,3.81-.72,4.74a5.28,5.28,0,0,0,.5-9c-1.27-.89-2.93-1.22-4-2.37a4.65,4.65,0,0,1-.93-3.91,20.5,20.5,0,0,1,1.17-3.3C175,236.12,173.57,239.74,173.94,241.68Z" style="fill:#fff"></path><path d="M178.37,237a12.37,12.37,0,0,0,1.64-4.27c.18-1.52-1.62-4-1.62-4a6.43,6.43,0,0,1,1.49,9.46,12.12,12.12,0,0,1-2.69,2.37C176.93,239.35,177.79,238.12,178.37,237Z" style="fill:#fff"></path><path d="M171.66,399.32a5.69,5.69,0,0,1-3-1.74,8.93,8.93,0,0,1-1.14-3.35,7.33,7.33,0,0,0-.61-1.74c-4.19-1.24-12.7.13-12.7.13-1.73.33-2.15,5.05,1.86,6.17,6.65,1.86,5.38.68,11,2.34,4.78,1.41,8.14,2.65,12,3.86a1.06,1.06,0,0,0,.31.05,1.53,1.53,0,0,0,1.5-1.59v-.37C176.45,401.66,176.06,400.75,171.66,399.32Z" style="fill:#263238"></path><path d="M210,408a2,2,0,0,1-.57.88,2.83,2.83,0,0,1-2.77.28c-.92-.32-1.74-.88-2.66-1.19-2.41-.82-5,.14-7.5.65a20.62,20.62,0,0,1-3.41.41,4.36,4.36,0,0,1-1.61-.16c-1.45-.5-2.08-2.16-2.54-3.63a19.46,19.46,0,0,0,7.12-2.05l.4-.2,0,0a9.49,9.49,0,0,0,2.14,3.08,6.08,6.08,0,0,0,3.57.91C206,407.15,207.25,407.68,210,408Z" style="fill:#ffb373"></path><path d="M211.67,410.61a1.19,1.19,0,0,1-.33,0c-4.24-.12-8-.42-13.31-.47-6.23-.06-4.6.77-11.92.81-4.41,0-5.35-4.92-3.68-5.75,0,0,8.28-3.87,12.91-3.82a7.33,7.33,0,0,1,1.09,1.55l0,0a9.49,9.49,0,0,0,2.14,3.08,6.08,6.08,0,0,0,3.57.91c3.84.14,5.08.67,7.8,1,.75.09,1.61.16,2.67.2l.1.37A1.62,1.62,0,0,1,211.67,410.61Z" style="fill:#263238"></path></g></svg>