<svg xmlns="http://www.w3.org/2000/svg" xmlns:xlink="http://www.w3.org/1999/xlink" viewBox="0 0 400 300" data-imageid="finance-analytics-1" imageName="Motivation" class="illustrations_image" style="width: 219px;"><defs><linearGradient id="linear-gradient" x1="65.83" y1="168.12" x2="35.82" y2="192.97" gradientUnits="userSpaceOnUse"><stop offset="0" stop-color="#00c1a5"/><stop offset="1" stop-color="#fff"/></linearGradient></defs><title>PP</title><g style="isolation:isolate"><g id="Layer_2" data-name="Layer 2"><path d="M193.23,287.42,13.5,181.2C7.78,178,2.87,172.71,8.45,169.25l180.37-104c2.71-1.68,6.82-2.78,9.57-1.18L387,173.61c5.72,3.32,6.75,12.6,1,15.93L216.92,287.25A23.9,23.9,0,0,1,193.23,287.42Z" fill="#a6ede3"/><path d="M155.85,167.58v-8.47s8-14.93,50.48-14.92c44.36,0,49.69,16.16,49.69,16.16v13.17" fill="#ffeb3b" class="target-color"/><ellipse cx="205.15" cy="208.21" rx="46.76" ry="19.32" fill="#ffeb3b" class="target-color"/><ellipse cx="205.15" cy="208.21" rx="42.1" ry="15.25" opacity="0.61"/><path d="M155.85,167.58s-4.06,48.57,50.05,49.49S256,167.58,256,167.58" fill="#ffeb3b" class="target-color"/><ellipse cx="205.9" cy="167.58" rx="50.05" ry="18.7" fill="#5d4030"/><path d="M173.88,123.45A108.72,108.72,0,0,1,175.5,135c.12,1.34,1.84,27.19,1.79,29.48a26.76,26.76,0,0,0,6.13,0c2.74-24.12.43-71.23-5.11-94.91-2-8.53-4-20-11.64-25.54-5.75-4.2-14.13-3.75-18.2,2.4-1.53,2.31,2.18,4.46,3.7,2.16,3-4.51,9.31-3.55,12.87-.36,3.23,2.9,4.84,7.25,6.12,11.28a169.55,169.55,0,0,1,6,27,206.8,206.8,0,0,1,1.69,40.64,115.38,115.38,0,0,0-5.76-22.39,118.66,118.66,0,0,0-23.51-38.75c-1.86-2.05-4.88,1-3,3a113.28,113.28,0,0,1,22.1,36A114.67,114.67,0,0,1,173.88,123.45Z" fill="#386b02"/><path d="M150.37,47.37s6.43-10,3.22-18.18S140.38,17.94,135,18.26,115.14,21,112.25,22.92,99.86,34.83,100.34,34s11.26-3.4,18.5-1.22,16.57,5.83,17.69,9.32-3.46,1.07-9.13-1-28.19-4-30.76-2.25S85.22,58.47,85.22,58.47s26.7-9.65,33.14-7.4S117.08,56,115.14,56,88.92,59,87.31,62.33c0,0,2,19.06,3.44,21.84s0,6.39,0,6.39,4.58-4.44,7.5-4.3,19,5.14,25.27,4.3,19.16-7.36,22.36-12.91c0,0-3.05-11.11-6.25-15.69s1.81-4.3,3.61-2.64,4.72,14.44,5.14,14.16,9.16-6.11,10.41-9.3S150.37,47.37,150.37,47.37Z" fill="#4d9632"/><path d="M150.59,46.85c-.86.17-1.71.39-2.56.6l0-.17a.43.43,0,0,0-.21-.34A41.71,41.71,0,0,0,119.6,25.05c-.67-.15-1,.89-.29,1A40.68,40.68,0,0,1,147,47.7,68.09,68.09,0,0,0,133.35,53a.46.46,0,0,0-.7-.28.51.51,0,0,0-.19-.2,56.63,56.63,0,0,0-34.57-7.4c-.68.07-.69,1.15,0,1.07a55.66,55.66,0,0,1,34,7.25.49.49,0,0,0,.44,0v0A108.65,108.65,0,0,0,116.7,63.93a.49.49,0,0,0-.45-.29,79.25,79.25,0,0,0-17.4,1.48c-.68.13-.39,1.17.28,1a77.86,77.86,0,0,1,16.55-1.44c-5.21,4.13-10.2,8.58-15.08,13-.51.46.25,1.22.76.76,4.8-4.33,9.7-8.71,14.81-12.77.85,2.5.5,5.36.47,8l-.1,7.68a.54.54,0,0,0,1.07,0l.13-9.73a17.7,17.7,0,0,0-.68-6.59,108.68,108.68,0,0,1,15.45-10.31,101.86,101.86,0,0,1,.78,21.76c0,.69,1,.69,1.07,0a103,103,0,0,0-.85-22.29,67.67,67.67,0,0,1,13.61-5.39,123.35,123.35,0,0,1,1.11,15.69.54.54,0,0,0,1.07,0,125,125,0,0,0-1.14-15.94c.9-.22,1.79-.45,2.7-.63C151.55,47.75,151.26,46.72,150.59,46.85Z" fill="#5fbf5b"/><path d="M161.39,54.45s-.91-11.83,5.82-17.52,17-3.62,21.55-.78S204.93,48,206.55,51.08s5.23,16.36,5.19,15.43-8.29-8.35-15.69-9.87-17.35-2.75-20-.23,2.53,2.59,8.52,3.45,26.71,9.88,28.13,12.66.71,22.69.71,22.69S194.51,74,187.78,72.93s-1.21,4.92.48,5.88,21.66,15.06,21.47,18.8c0,0-10.87,15.79-13.41,17.57s-3,5.62-3,5.62-1.92-6.09-4.55-7.35-19.18-4.53-24.28-8.24-13.35-15.59-13.52-22c0,0,8-8.32,13-10.83s.46-4.65-1.92-4-11,10.46-11.26,10-5.15-9.74-4.73-13.14S161.39,54.45,161.39,54.45Z" fill="#88bc22"/><path d="M161.44,53.88c.68.56,1.32,1.15,2,1.74l.1-.14a.43.43,0,0,1,.35-.19,41.71,41.71,0,0,1,35.21-5.84c.66.19.42,1.24-.24,1a40.68,40.68,0,0,0-34.62,5.84,68.09,68.09,0,0,1,9.45,11.18.46.46,0,0,1,.75.08.51.51,0,0,1,.26-.08,56.63,56.63,0,0,1,33.92,9.94c.56.39.06,1.33-.51.94a55.66,55.66,0,0,0-33.38-9.81.49.49,0,0,1-.4-.17l0,0A108.65,108.65,0,0,1,183.12,85a.49.49,0,0,1,.53,0,79.25,79.25,0,0,1,14.6,9.58c.53.44-.21,1.21-.74.77a77.86,77.86,0,0,0-13.87-9.15c2.62,6.11,4.88,12.4,7.08,18.59.23.65-.8,1-1,.31-2.16-6.09-4.38-12.27-7-18.28-1.93,1.8-3,4.47-4.19,6.77L175,100.4a.54.54,0,0,1-.94-.51l4.51-8.62a17.7,17.7,0,0,1,3.74-5.47,108.68,108.68,0,0,0-8.68-16.42,101.86,101.86,0,0,0-11,18.77c-.28.63-1.23.12-.94-.51A103,103,0,0,1,173,68.43a67.67,67.67,0,0,0-9.41-11.22,123.35,123.35,0,0,0-8.44,13.27.54.54,0,0,1-.94-.51,125,125,0,0,1,8.59-13.48c-.68-.62-1.36-1.25-2.08-1.84C160.17,54.22,160.91,53.44,161.44,53.88Z" fill="#386b02"/><path d="M154.14,47.17S128.9,45,120.71,49.39s-17.49,15.28-18.6,17.93-2.44,12.4-2.44,12.4S114.51,68,124,70.64s-23.69,9.3-25.24,17.27,0,20.81,0,20.81,13.06-16.61,21.7-20.81,4.43,2.44-2,6.86-16.83,13.06-16.38,15.5,14.83,16.83,15.5,19.7c0,0,1.78,2.46.8,4.71,0,0,4.21-4.49,5.47-6s9.27-3.09,14.32-4.21,16.85-6.74,20.92-15.72c0,0,2.11-5.05,1.26-7.44s-12.07-15.72-10.81-17.69,6.74.28,9,3.65,4.35,18.25,4.35,18.25S169.09,94,171.2,88.64s4.21-22.32,3.79-26.11S154.14,47.17,154.14,47.17Z" fill="#58bc53"/><path d="M165.71,82.08a126.27,126.27,0,0,0-21.1-22.26l.08-.17a.55.55,0,0,0,.4-.77q3.26-6.28,7.07-12.25c-.44,0-.87.06-1.31.06Q147.16,52.5,144,58.62a118.75,118.75,0,0,0-38.1,7.79c-.64.24-.36,1.28.29,1a117.84,117.84,0,0,1,37-7.7.41.41,0,0,0,.1.33c-3.13,6.19-6,12.55-8.61,19l-.14-.09a.47.47,0,0,0-.63.09,104.44,104.44,0,0,0-27.77,9.38c-.62.31-.07,1.24.54.93a103.44,103.44,0,0,1,27.53-9.27l0,0c-.87,2.1-1.76,4.22-2.65,6.34a.54.54,0,0,0-.25.61c-4.9,11.74-9.69,23.8-11,36.43-.07.69,1,.68,1.07,0,1.23-12.16,5.78-23.81,10.51-35.14a166.5,166.5,0,0,1,11.81,30.46.54.54,0,0,0,1-.29A167.89,167.89,0,0,0,132.51,87q1.34-3.2,2.66-6.37c3.93,2.46,7.75,5.16,10,9.35.33.61,1.25.07.93-.54-2.35-4.39-6.38-7.23-10.5-9.8,2.63-6.36,5.43-12.66,8.53-18.8a125.15,125.15,0,0,1,20.66,21.82C165.19,83.17,166.12,82.63,165.71,82.08Z" fill="#308029"/><path d="M241.68,249.22c-.81-1.8-2.69-3.28-4.06-4.64a10.45,10.45,0,0,1-3.29-5.12c-.29-1,.35-14.31.66-14.26-3.34-.53-8.44-1.71-10.27-4.61-1,6.38-3,20.87-2.58,21.63.59,1,3.41,2.38,3.41,2.38l.5-7.88.63,7.66a4.75,4.75,0,0,0,1.1,1.7,9.53,9.53,0,0,0,2.71,1.61,27.07,27.07,0,0,0,5.72,2.43c1.41.36,4.75,1,5.54-.73Z" fill="#000000"/><path d="M254,240.56c-.81-1.8-2.69-3.28-4.06-4.64a10.45,10.45,0,0,1-3.29-5.12c-.29-1,.35-14.31.66-14.26-3.34-.53-8.44-1.71-10.27-4.61-1,6.38-3,20.87-2.58,21.63.59,1,3.41,2.38,3.41,2.38l.5-7.88.63,7.66a4.75,4.75,0,0,0,1.1,1.7,9.53,9.53,0,0,0,2.71,1.61,27.07,27.07,0,0,0,5.72,2.43c1.41.36,4.75,1,5.54-.73Z" fill="#000000"/><path d="M215.47,121.54l-.26,0a1.46,1.46,0,0,0-.21-.27,1.51,1.51,0,0,0-2.12,0,4.14,4.14,0,0,0,.21,5.31c1.44,1.61,4.1,1,5.06-.84A2.85,2.85,0,0,0,215.47,121.54Z" fill="#ffac99"/><path d="M228.61,132.69s11.1,15.52,13.85,17.38c0,0-8,3-8.08,9.15,0,0-9.71-5.27-11.87-8.29S228.61,132.69,228.61,132.69Z" fill="#ffc36c"/><path d="M225.8,150.52s24,11.43,26.68,23.19-.32,44.52-3.57,46.33c0,0-11.64-.09-14.75-9.8,0,0,1.12-14.71,3-24.62,0,0-13-1.72-20.33-9.54-4.39-4.66-4.06-24.28-.88-26.13S225.68,138.68,225.8,150.52Z" fill="#d86044"/><path d="M221.21,154.95s16.77,9,19.48,20.7-2,52.28-5.29,54.1c0,0-10.17,2.63-13.28-7.08,0,0,.19-26.49,2.06-36.4a69.59,69.59,0,0,1-17.38-12.78c-4.39-4.66-2.6-18.71.59-20.56S221.09,143.11,221.21,154.95Z" fill="#ea7554"/><path d="M229.41,133.94c-.5-6.64-1.51-12.24-2.68-12.84-3-1.52-14.12,2-19.39,9.41s-3,28.2-3,28.2,9.65,2,22.52-1.18l.12-.06A145.65,145.65,0,0,1,229.41,133.94Z" fill="#ffc36c"/><polyline points="232.05 174.49 218.63 167.51 241.03 151.17 253.59 155.41" fill="#000000"/><path d="M223.74,160.17s6.54,1.43,7.13,1.9,3.17,2.7,3,3.49.88,4.78-.29,5.18-3,1.31-3.78,0a8.84,8.84,0,0,0-3.16-3.17c-1-.4-2.63.4-3.75,0s-4-2.54-4.2-3.49" fill="#ffac99"/><path d="M213.82,133.42a138.39,138.39,0,0,0,2.11,16.53c1.09,6.2,9.35,10.22,9.35,10.22s-5.74,3.74-5.32,6.38c0,0-23.52-4.62-17.68-32.79" fill="#ffc36c"/><path d="M224,112s2,12.89-3.74,15.33c-4.2,1.78-6.94-3.68-7.53-7a11.23,11.23,0,0,1,4.35-10.45C219.86,107.77,223.42,108.11,224,112Z" fill="#ffac99"/><path d="M214.9,116s1.15-.56,1.65-.09-.4,2.49,1.21,2.57,5.9,0,8.45-3.08-.66-10.25-6.23-10.77-13.53,4.68-14.52,12.45-.82,8.24-3.22,10.57-5.46,2.52-3.68,6.67,6.73,2.33,6.82,6,5.22,7.63,10.51,4.5,4.28-9,.74-11.45S211.83,119.07,214.9,116Z" fill="#000000"/><path d="M232,173.18c-.26-1,5.29-19.62,5.29-19.62l26-16.63-7.1,21.29-24.13,16.26Z" fill="#ffeb3b" class="target-color"/><polygon points="118.22 179.77 117.96 217.72 114.84 219.42 114.84 179.17 118.22 179.77" fill="#ffeb3b" class="target-color"/><polyline points="110.15 162.06 114.15 159.81 127.88 181.79 124.4 184.2" fill="#ffeb3b" class="target-color"/><g opacity="0.5"><polygon points="118.22 179.77 117.96 217.72 114.84 219.42 114.84 179.17 118.22 179.77" fill="#0da6bf" opacity="0.5"/><polyline points="110.15 162.06 114.15 159.81 127.88 181.79 124.4 184.2" fill="#0da6bf" opacity="0.5"/></g><polygon points="95.91 168.19 110.15 162.06 124.4 184.2 114.84 179.17 114.84 219.42 105.07 213.7 104.58 173.39 95.91 168.19 95.91 168.19" fill="#ffeb3b" class="target-color"/><polygon points="317.29 153.09 316.87 213.27 311.93 215.97 311.93 152.14 317.29 153.09" fill="#ffeb3b" class="target-color"/><polyline points="304.49 125 310.83 121.44 332.6 156.29 327.09 160.11" fill="#ffeb3b" class="target-color"/><g opacity="0.5"><polygon points="317.29 153.09 316.87 213.27 311.93 215.97 311.93 152.14 317.29 153.09" fill="#0da6bf" opacity="0.5"/><polyline points="304.49 125 310.83 121.44 332.6 156.29 327.09 160.11" fill="#0da6bf" opacity="0.5"/></g><polygon points="281.9 134.74 304.49 125 327.09 160.11 311.93 152.14 311.93 215.97 296.43 206.89 295.66 142.98 281.9 134.74 281.9 134.74" fill="#ffeb3b" class="target-color"/><polygon points="262.29 89.53 262.03 127.48 258.91 129.18 258.91 88.93 262.29 89.53" fill="#ffeb3b" class="target-color"/><polyline points="254.22 71.82 258.22 69.57 271.94 91.55 268.47 93.96" fill="#ffeb3b" class="target-color"/><g opacity="0.5"><polygon points="262.29 89.53 262.03 127.48 258.91 129.18 258.91 88.93 262.29 89.53" fill="#0da6bf" opacity="0.5"/><polyline points="254.22 71.82 258.22 69.57 271.94 91.55 268.47 93.96" fill="#0da6bf" opacity="0.5"/></g><polygon points="239.97 77.95 254.22 71.82 268.47 93.96 258.91 88.93 258.91 129.18 249.13 123.46 248.65 83.15 239.97 77.95 239.97 77.95" fill="#ffeb3b" class="target-color"/><path d="M41.18,169.48,17.34,183.61s9.77,11.06,28,18.72l32.74-19.67" fill="url(#linear-gradient)" style="mix-blend-mode:multiply"/><ellipse cx="59.04" cy="175.96" rx="20.31" ry="11.9" fill="#ff912e"/><polygon points="38.72 175.96 38.72 172.53 40.93 175.27 38.72 175.96" fill="#e0944f"/><polygon points="79.35 172.53 79.35 175.96 76.77 175.96 78.66 173.2 79.35 172.53" fill="#e0944f"/><ellipse cx="59.04" cy="172.52" rx="20.31" ry="11.9" fill="#ffb92c"/><path d="M69.34,170.93a1.59,1.59,0,0,1,.16.9l-.08.32-3.71,0a1.68,1.68,0,0,0,.07-.32,1.39,1.39,0,0,0-.22-.68,2,2,0,0,0-.9-.82,4.06,4.06,0,0,0-1.74-.46,3.76,3.76,0,0,0-1.66.25q-.78.33-.6.87a3.21,3.21,0,0,0,.79,1.16,14.12,14.12,0,0,1,1.12,1.29,1.35,1.35,0,0,1,.2,1.43,3.19,3.19,0,0,1-1.8,1.4,10.67,10.67,0,0,1-3.93.82,12.57,12.57,0,0,1-4.3-.61l-2.13.92-2.5-1.22,2.07-.89a4.68,4.68,0,0,1-1-.89,2.64,2.64,0,0,1-.49-.83,2.72,2.72,0,0,1-.13-.67,1.45,1.45,0,0,1,0-.47l.07-.18H52.4a3,3,0,0,0-.09.38,1.58,1.58,0,0,0,.3.84,2.78,2.78,0,0,0,1.23,1,5.27,5.27,0,0,0,2.15.56,4.49,4.49,0,0,0,2-.32q.77-.33.58-.87a3.2,3.2,0,0,0-.82-1.16,11.87,11.87,0,0,1-1.13-1.29,1.33,1.33,0,0,1-.16-1.44,3.46,3.46,0,0,1,1.89-1.43,10.2,10.2,0,0,1,3.77-.74,10.89,10.89,0,0,1,4,.63l2.13-.91,2.33,1.27-2.13.92A3,3,0,0,1,69.34,170.93Z" fill="#ea8b24"/><ellipse cx="59.07" cy="172.67" rx="17.05" ry="9.99" fill="none" stroke="#f7931e" stroke-miterlimit="10" stroke-width="6"/><ellipse cx="59.04" cy="169.41" rx="20.31" ry="11.9" fill="#ff912e"/><polygon points="38.72 169.41 38.72 165.97 40.93 168.72 38.72 169.41" fill="#e0944f"/><polygon points="79.35 165.97 79.35 169.41 76.77 169.41 78.66 166.65 79.35 165.97" fill="#e0944f"/><ellipse cx="59.04" cy="165.97" rx="20.31" ry="11.9" fill="#ffb92c"/><path d="M69.34,164.38a1.59,1.59,0,0,1,.16.9l-.08.32-3.71,0a1.68,1.68,0,0,0,.07-.32,1.39,1.39,0,0,0-.22-.68,2,2,0,0,0-.9-.82,4.06,4.06,0,0,0-1.74-.46,3.76,3.76,0,0,0-1.66.25q-.78.33-.6.87a3.21,3.21,0,0,0,.79,1.16,14.12,14.12,0,0,1,1.12,1.29,1.35,1.35,0,0,1,.2,1.43,3.19,3.19,0,0,1-1.8,1.4,10.67,10.67,0,0,1-3.93.82,12.57,12.57,0,0,1-4.3-.61l-2.13.92-2.5-1.22,2.07-.89a4.68,4.68,0,0,1-1-.89,2.64,2.64,0,0,1-.49-.83,2.72,2.72,0,0,1-.13-.67,1.45,1.45,0,0,1,0-.47l.07-.18H52.4a3,3,0,0,0-.09.38,1.58,1.58,0,0,0,.3.84,2.78,2.78,0,0,0,1.23,1,5.27,5.27,0,0,0,2.15.56,4.49,4.49,0,0,0,2-.32q.77-.33.58-.87a3.2,3.2,0,0,0-.82-1.16,11.87,11.87,0,0,1-1.13-1.29,1.33,1.33,0,0,1-.16-1.44,3.46,3.46,0,0,1,1.89-1.43,10.2,10.2,0,0,1,3.77-.74,10.89,10.89,0,0,1,4,.63l2.13-.91,2.33,1.27-2.13.92A3,3,0,0,1,69.34,164.38Z" fill="#ea8b24"/><ellipse cx="59.07" cy="166.11" rx="17.05" ry="9.99" fill="none" stroke="#f7931e" stroke-miterlimit="10" stroke-width="6"/><ellipse cx="59.04" cy="162.82" rx="20.31" ry="11.9" fill="#ff912e"/><polygon points="38.72 162.82 38.72 159.39 40.93 162.13 38.72 162.82" fill="#e0944f"/><polygon points="79.35 159.39 79.35 162.82 76.77 162.82 78.66 160.06 79.35 159.39" fill="#e0944f"/><ellipse cx="59.04" cy="159.39" rx="20.31" ry="11.9" fill="#ffb92c"/><path d="M69.34,157.8a1.59,1.59,0,0,1,.16.9l-.08.32-3.71,0a1.68,1.68,0,0,0,.07-.32,1.39,1.39,0,0,0-.22-.68,2,2,0,0,0-.9-.82,4.06,4.06,0,0,0-1.74-.46,3.76,3.76,0,0,0-1.66.25q-.78.33-.6.87a3.21,3.21,0,0,0,.79,1.16,14.12,14.12,0,0,1,1.12,1.29,1.35,1.35,0,0,1,.2,1.43,3.19,3.19,0,0,1-1.8,1.4,10.67,10.67,0,0,1-3.93.82,12.57,12.57,0,0,1-4.3-.61l-2.13.92-2.5-1.22,2.07-.89a4.68,4.68,0,0,1-1-.89,2.64,2.64,0,0,1-.49-.83,2.72,2.72,0,0,1-.13-.67,1.45,1.45,0,0,1,0-.47l.07-.18H52.4a3,3,0,0,0-.09.38,1.58,1.58,0,0,0,.3.84,2.78,2.78,0,0,0,1.23,1A5.27,5.27,0,0,0,56,162a4.49,4.49,0,0,0,2-.32q.77-.33.58-.87a3.2,3.2,0,0,0-.82-1.16,11.87,11.87,0,0,1-1.13-1.29,1.33,1.33,0,0,1-.16-1.44,3.46,3.46,0,0,1,1.89-1.43,10.2,10.2,0,0,1,3.77-.74,10.89,10.89,0,0,1,4,.63l2.13-.91,2.33,1.27-2.13.92A3,3,0,0,1,69.34,157.8Z" fill="#ea8b24"/><ellipse cx="59.07" cy="159.53" rx="17.05" ry="9.99" fill="none" stroke="#f7931e" stroke-miterlimit="10" stroke-width="6"/><ellipse cx="59.04" cy="157.96" rx="20.31" ry="11.9" fill="#ff912e"/><polygon points="38.72 157.96 38.72 154.52 40.93 157.27 38.72 157.96" fill="#e0944f"/><polygon points="79.35 154.52 79.35 157.96 76.77 157.96 78.66 155.2 79.35 154.52" fill="#e0944f"/><ellipse cx="59.04" cy="154.52" rx="20.31" ry="11.9" fill="#ffb92c"/><path d="M69.34,152.93a1.59,1.59,0,0,1,.16.9l-.08.32-3.71,0a1.68,1.68,0,0,0,.07-.32,1.39,1.39,0,0,0-.22-.68,2,2,0,0,0-.9-.82,4.06,4.06,0,0,0-1.74-.46,3.76,3.76,0,0,0-1.66.25q-.78.33-.6.87a3.21,3.21,0,0,0,.79,1.16,14.12,14.12,0,0,1,1.12,1.29,1.35,1.35,0,0,1,.2,1.43,3.19,3.19,0,0,1-1.8,1.4,10.67,10.67,0,0,1-3.93.82,12.57,12.57,0,0,1-4.3-.61l-2.13.92-2.5-1.22,2.07-.89a4.68,4.68,0,0,1-1-.89,2.64,2.64,0,0,1-.49-.83,2.72,2.72,0,0,1-.13-.67,1.45,1.45,0,0,1,0-.47l.07-.18H52.4a3,3,0,0,0-.09.38,1.58,1.58,0,0,0,.3.84,2.78,2.78,0,0,0,1.23,1,5.27,5.27,0,0,0,2.15.56,4.49,4.49,0,0,0,2-.32q.77-.33.58-.87a3.2,3.2,0,0,0-.82-1.16,11.87,11.87,0,0,1-1.13-1.29,1.33,1.33,0,0,1-.16-1.44,3.46,3.46,0,0,1,1.89-1.43,10.2,10.2,0,0,1,3.77-.74,10.89,10.89,0,0,1,4,.63l2.13-.91,2.33,1.27-2.13.92A3,3,0,0,1,69.34,152.93Z" fill="#ea8b24"/><ellipse cx="59.07" cy="154.66" rx="17.05" ry="9.99" fill="none" stroke="#f7931e" stroke-miterlimit="10" stroke-width="6"/><ellipse cx="62.33" cy="151.38" rx="20.31" ry="11.9" fill="#ff912e"/><polygon points="42.02 151.38 42.02 147.94 44.23 150.69 42.02 151.38" fill="#e0944f"/><polygon points="82.65 147.94 82.65 151.38 80.07 151.38 81.96 148.62 82.65 147.94" fill="#e0944f"/><ellipse cx="62.33" cy="147.94" rx="20.31" ry="11.9" fill="#ffb92c"/><path d="M72.64,146.35a1.59,1.59,0,0,1,.16.9l-.08.32-3.71,0a1.68,1.68,0,0,0,.07-.32,1.39,1.39,0,0,0-.22-.68,2,2,0,0,0-.9-.82,4.06,4.06,0,0,0-1.74-.46,3.76,3.76,0,0,0-1.66.25q-.78.33-.6.87a3.21,3.21,0,0,0,.79,1.16,14.12,14.12,0,0,1,1.12,1.29,1.35,1.35,0,0,1,.2,1.43,3.19,3.19,0,0,1-1.8,1.4,10.67,10.67,0,0,1-3.93.82,12.57,12.57,0,0,1-4.3-.61l-2.13.92-2.5-1.22,2.07-.89a4.68,4.68,0,0,1-1-.89A2.64,2.64,0,0,1,52,149a2.72,2.72,0,0,1-.13-.67,1.45,1.45,0,0,1,0-.47l.07-.18H55.7a3,3,0,0,0-.09.38,1.58,1.58,0,0,0,.3.84,2.78,2.78,0,0,0,1.23,1,5.27,5.27,0,0,0,2.15.56,4.49,4.49,0,0,0,2-.32q.77-.33.58-.87A3.2,3.2,0,0,0,61,148.2a11.87,11.87,0,0,1-1.13-1.29,1.33,1.33,0,0,1-.16-1.44A3.46,3.46,0,0,1,61.64,144a10.2,10.2,0,0,1,3.77-.74,10.89,10.89,0,0,1,4,.63l2.13-.91,2.33,1.27-2.13.92A3,3,0,0,1,72.64,146.35Z" fill="#ea8b24"/><ellipse cx="62.37" cy="148.08" rx="17.05" ry="9.99" fill="none" stroke="#f7931e" stroke-miterlimit="10" stroke-width="3"/><ellipse cx="69.53" cy="144.34" rx="20.31" ry="11.9" fill="#ff912e"/><polygon points="49.22 144.34 49.22 140.9 51.43 143.65 49.22 144.34" fill="#e0944f"/><polygon points="89.84 140.9 89.84 144.34 87.27 144.34 89.16 141.58 89.84 140.9" fill="#e0944f"/><ellipse cx="69.53" cy="140.9" rx="20.31" ry="11.9" fill="#ffb92c"/><path d="M79.83,139.31a1.59,1.59,0,0,1,.16.9l-.08.32-3.71,0a1.68,1.68,0,0,0,.07-.32,1.39,1.39,0,0,0-.22-.68,2,2,0,0,0-.9-.82,4.06,4.06,0,0,0-1.74-.46,3.76,3.76,0,0,0-1.66.25q-.78.33-.6.87a3.21,3.21,0,0,0,.79,1.16,14.12,14.12,0,0,1,1.12,1.29,1.35,1.35,0,0,1,.2,1.43,3.19,3.19,0,0,1-1.8,1.4,10.67,10.67,0,0,1-3.93.82,12.57,12.57,0,0,1-4.3-.61l-2.13.92-2.5-1.22,2.07-.89a4.68,4.68,0,0,1-1-.89,2.64,2.64,0,0,1-.49-.83,2.72,2.72,0,0,1-.13-.67,1.45,1.45,0,0,1,0-.47l.07-.18H62.9a3,3,0,0,0-.09.38,1.58,1.58,0,0,0,.3.84,2.78,2.78,0,0,0,1.23,1,5.27,5.27,0,0,0,2.15.56,4.49,4.49,0,0,0,2-.32q.77-.33.58-.87a3.2,3.2,0,0,0-.82-1.16,11.87,11.87,0,0,1-1.13-1.29,1.33,1.33,0,0,1-.16-1.44A3.46,3.46,0,0,1,68.83,137a10.2,10.2,0,0,1,3.77-.74,10.89,10.89,0,0,1,4,.63l2.13-.91,2.33,1.27-2.13.92A3,3,0,0,1,79.83,139.31Z" fill="#ea8b24"/><ellipse cx="69.57" cy="141.05" rx="17.05" ry="9.99" fill="none" stroke="#f7931e" stroke-miterlimit="10" stroke-width="2"/><ellipse cx="59.67" cy="134.32" rx="20.31" ry="11.9" fill="#ff912e"/><polygon points="39.36 134.32 39.36 130.89 41.57 133.63 39.36 134.32" fill="#e0944f"/><polygon points="79.99 130.89 79.99 134.32 77.41 134.32 79.3 131.56 79.99 130.89" fill="#e0944f"/><ellipse cx="59.67" cy="130.89" rx="20.31" ry="11.9" fill="#ffb92c"/><path d="M70,129.3a1.59,1.59,0,0,1,.16.9l-.08.32-3.71,0a1.68,1.68,0,0,0,.07-.32,1.39,1.39,0,0,0-.22-.68,2,2,0,0,0-.9-.82,4.06,4.06,0,0,0-1.74-.46,3.76,3.76,0,0,0-1.66.25q-.78.33-.6.87a3.21,3.21,0,0,0,.79,1.16,14.12,14.12,0,0,1,1.12,1.29,1.35,1.35,0,0,1,.2,1.43,3.19,3.19,0,0,1-1.8,1.4,10.67,10.67,0,0,1-3.93.82,12.57,12.57,0,0,1-4.3-.61l-2.13.92-2.5-1.22,2.07-.89a4.68,4.68,0,0,1-1-.89,2.64,2.64,0,0,1-.49-.83,2.72,2.72,0,0,1-.13-.67,1.45,1.45,0,0,1,0-.47l.07-.18H53A3,3,0,0,0,53,131a1.58,1.58,0,0,0,.3.84,2.78,2.78,0,0,0,1.23,1,5.27,5.27,0,0,0,2.15.56,4.49,4.49,0,0,0,2-.32q.77-.33.58-.87a3.2,3.2,0,0,0-.82-1.16,11.87,11.87,0,0,1-1.13-1.29,1.33,1.33,0,0,1-.16-1.44A3.46,3.46,0,0,1,59,127a10.2,10.2,0,0,1,3.77-.74,10.89,10.89,0,0,1,4,.63L68.9,126l2.33,1.27-2.13.92A3,3,0,0,1,70,129.3Z" fill="#ea8b24"/><ellipse cx="59.71" cy="131.03" rx="17.05" ry="9.99" fill="none" stroke="#f7931e" stroke-miterlimit="10" stroke-width="2"/></g></g></svg>