<svg xmlns="http://www.w3.org/2000/svg" viewBox="0 0 750 500"><g id="freepik--Plant--inject-642"><g style="fill:#00a100;"><path d="M212.59,138.83c.16,0-3.18-9.81-3.46-10.4-3.26-6.88-13.6-18.25-22-17.14-6.08.8-9.49,6.88-8.13,12.61s7.36,10.22,12.57,12.52C197.62,139.11,212.58,138.83,212.59,138.83Z"></path><path d="M84.31,219.09c6.58-1.12,18.9-9.61,18.91-9.62s-8.06-6.42-8.62-6.76c-6.52-3.94-21.41-7.72-27.84-2.13-4.64,4-4.13,11,.17,15S78.71,220,84.31,219.09Z"></path><path d="M112.4,252.47c5.81-2.7,14.85-13.26,15.56-14.11A179,179,0,0,0,147,252.65c3.87,2.54,7.84,5,11.86,7.39-2-.82-3.79-1.55-4-1.62-7.32-2.08-22.69-1.79-27.41,5.3-3.41,5.1-1.08,11.67,4.12,14.42s12.55,1.19,17.7-1.21,13.11-11.28,15.16-13.65c1.55.9,3.09,1.83,4.64,2.72,7.46,4.32,14.92,8.59,22.1,13,2.54,1.56,5,3.18,7.42,4.8-1.78-.73-3.28-1.33-3.51-1.4-7.32-2.08-22.69-1.79-27.42,5.3-3.4,5.1-1.08,11.67,4.13,14.42s12.54,1.19,17.69-1.21c5-2.32,12.34-10.42,14.8-13.23,2.45,1.73,4.91,3.46,7.21,5.25,1.54,1.25,3.12,2.36,4.6,3.7l4.43,3.88c2.73,2.56,5.56,5.19,8.16,7.76,1.82,1.77,3.52,3.49,5.24,5.22-2.5-1.57-7.47-4.56-7.91-4.76-6.92-3.16-22.15-5.21-27.9,1.08-4.14,4.54-2.84,11.38,1.89,14.89s12.22,3.08,17.67,1.48c6-1.75,16.17-10.42,17.43-11.51,2.83,2.88,5.57,5.7,8.1,8.4,7,7.41,12.78,14,17.28,19.31l4.27-3.65c-4.68-5.26-10.69-11.82-17.91-19.16-2.87-2.93-6-6-9.23-9.13a106.85,106.85,0,0,0,6.74-11c6.24,1.56,18.61,0,20.21-.16.78,4,1.5,7.82,2.12,11.47,1.54,8.93,2.66,16.81,3.47,23.31l5-4.26c-.9-5.81-2-12.53-3.48-20-.78-4-1.69-8.31-2.66-12.7,1.52-.6,14-5.57,18.3-10.08,3.94-4.09,7.84-10.39,6.9-16.34s-6.36-10.15-12.3-8.59c-8.24,2.16-13.51,16.6-13.93,24.19,0,.45.25,5.34.48,8.43-.41-1.8-.78-3.54-1.23-5.38-.85-3.64-1.8-7.26-2.82-11.15-.55-1.86-1.12-3.74-1.68-5.64s-1.32-3.83-2-5.77c-1.62-4.45-3.47-8.89-5.43-13.32,3.19-.76,14.48-3.59,19-7.05s9.32-9.09,9.3-15.1-4.75-11-10.85-10.37c-8.48.89-15.88,14.36-17.44,21.81-.1.46-.62,5.93-.85,8.94-1.2-2.65-2.39-5.31-3.69-7.95-3.76-7.64-7.8-15.26-11.8-22.87-1.23-2.33-2.42-4.67-3.62-7,1.13-.25,14.63-3.33,19.71-7.21,4.52-3.44,9.32-9.08,9.3-15.1s-4.75-11-10.85-10.36c-8.48.89-15.88,14.36-17.44,21.8-.12.57-.86,8.44-.95,10.45-2.65-5.15-5.24-10.3-7.59-15.48a177.55,177.55,0,0,1-8.24-21.51c.53-.12,14.63-3.27,19.84-7.24,4.52-3.44,9.32-9.09,9.3-15.1s-4.75-11-10.86-10.36c-8.47.89-15.87,14.36-17.44,21.8-.1.49-.67,6.49-.87,9.34l-.49.05a130.31,130.31,0,0,1-4.25-22.76c-.46-4.24-.66-8.31-.77-12.28,2.68-.31,14.94-1.9,20-5,4.88-2.93,10.27-8,10.91-14s-3.51-11.46-9.65-11.5c-8.52,0-17.36,12.53-19.73,19.76-.13.4-1,4.54-1.59,7.56,0-1.79-.07-3.63-.06-5.35,0-6.44.46-12.34.88-17.56.27-3,.56-5.65.87-8.15,2.47-1.69,12.35-8.61,15.4-13.57s5.42-11.84,3.23-17.44-8.4-8.55-13.86-5.75c-7.58,3.88-9.63,19.12-8.4,26.63.1.64,2.93,10.6,3.06,10.52l.15-.11c-.35,2.41-.68,5-1,7.81-.53,5.22-1.09,11.13-1.27,17.6a179.5,179.5,0,0,0,.43,20.89,131.51,131.51,0,0,0,3.79,23.07c0,.09.06.18.08.27-1.33-2.11-5.25-7.89-5.61-8.3-5-5.77-17.93-14-25.78-10.7-5.66,2.38-7.34,9.14-4.52,14.31s9.8,7.91,15.43,8.75c6.33,1,19.7-2.88,20.76-3.19a177.27,177.27,0,0,0,8,22.43c1.82,4.26,3.78,8.49,5.81,12.71-1.21-1.79-2.31-3.38-2.49-3.58-5-5.78-17.93-14-25.78-10.71-5.66,2.38-7.34,9.14-4.52,14.31s9.8,7.91,15.43,8.75,17.16-2.18,20.18-3c.79,1.61,1.57,3.23,2.37,4.83,3.83,7.71,7.7,15.39,11.26,23,1.25,2.7,2.39,5.4,3.54,8.09-1.08-1.58-2-2.91-2.16-3.1-5-5.77-17.93-14-25.79-10.7-5.66,2.38-7.34,9.13-4.52,14.31s9.81,7.91,15.43,8.75c5.44.81,16-1.89,19.64-2.88,1.09,2.8,2.19,5.6,3.12,8.36.59,1.9,1.3,3.68,1.79,5.62s1.05,3.81,1.56,5.68c.86,3.64,1.77,7.4,2.52,11,.54,2.49,1,4.86,1.49,7.25-1.22-2.69-3.71-7.92-4-8.33a39.25,39.25,0,0,0-14.84-13,12.19,12.19,0,0,0-1.34-1.78c-4-4.35-10.91-5-15-.39-5.69,6.35-2.12,21.3,1.72,27.87.23.38,3.16,4.31,5.05,6.76-1.33-1.27-2.61-2.52-4-3.81-2.72-2.57-5.51-5.05-8.5-7.74l-4.52-3.77c-1.48-1.3-3.21-2.47-4.82-3.73-3.81-2.83-7.8-5.51-11.89-8.12,2.25-2.39,10.1-11,12-16.37s2.76-12.72-.57-17.73-10-6.56-14.77-2.65c-6.58,5.41-5.32,20.73-2.52,27.8.18.44,2.76,5.29,4.23,7.93C198,279,195.52,277.45,193,276c-7.35-4.3-14.92-8.42-22.46-12.56-2.31-1.27-4.59-2.56-6.88-3.85.8-.84,10.36-10.85,12.46-16.89,1.87-5.36,2.77-12.72-.57-17.72s-10-6.56-14.77-2.66c-6.58,5.42-5.32,20.74-2.51,27.81.21.53,3.93,7.5,5,9.23-5.05-2.83-10.06-5.7-14.88-8.72a179.18,179.18,0,0,1-18.74-13.4c.38-.39,10.4-10.79,12.56-17,1.87-5.37,2.76-12.73-.58-17.73s-10-6.56-14.77-2.66c-6.58,5.42-5.32,20.74-2.51,27.81.18.47,3,5.78,4.42,8.28l-.37.31a129.57,129.57,0,0,1-16.11-16.65c-2.72-3.28-5.14-6.56-7.42-9.81,2.07-1.75,11.41-9.83,14-15.18,2.45-5.13,4.14-12.34,1.38-17.69s-9.25-7.62-14.39-4.26c-7.13,4.67-7.56,20-5.55,27.37.1.4,1.67,4.33,2.84,7.18-1-1.48-2.07-3-3-4.43-3.52-5.4-6.42-10.55-9-15.14-1.41-2.62-2.64-5-3.77-7.27,1.13-2.77,5.55-14,5.36-19.81s-2-12.87-6.93-16.33S74,141.72,71,147.07c-4.18,7.42,2.51,21.25,7.68,26.84.45.48,8.3,7.23,8.36,7.09a1.56,1.56,0,0,1,.07-.17c1,2.19,2.18,4.53,3.47,7.06,2.44,4.65,5.23,9.88,8.65,15.37a178.94,178.94,0,0,0,11.88,17.2A132.48,132.48,0,0,0,127,237.61l.22.18c-2.28-1-8.74-3.68-9.26-3.83-7.32-2.08-22.68-1.79-27.41,5.3-3.41,5.1-1.08,11.67,4.13,14.43S107.25,254.88,112.4,252.47Z"></path><path d="M84.31,219.09c6.58-1.12,18.9-9.61,18.91-9.62s-8.06-6.42-8.62-6.76c-6.52-3.94-21.41-7.72-27.84-2.13-4.64,4-4.13,11,.17,15S78.71,220,84.31,219.09Z" style="opacity:0.30000000000000004"></path><path d="M212.59,138.83c.16,0-3.18-9.81-3.46-10.4-3.26-6.88-13.6-18.25-22-17.14-6.08.8-9.49,6.88-8.13,12.61s7.36,10.22,12.57,12.52C197.62,139.11,212.58,138.83,212.59,138.83Z" style="opacity:0.30000000000000004"></path><path d="M112.4,252.47c5.81-2.7,14.85-13.26,15.56-14.11A179,179,0,0,0,147,252.65c3.87,2.54,7.84,5,11.86,7.39-2-.82-3.79-1.55-4-1.62-7.32-2.08-22.69-1.79-27.41,5.3-3.41,5.1-1.08,11.67,4.12,14.42s12.55,1.19,17.7-1.21,13.11-11.28,15.16-13.65c1.55.9,3.09,1.83,4.64,2.72,7.46,4.32,14.92,8.59,22.1,13,2.54,1.56,5,3.18,7.42,4.8-1.78-.73-3.28-1.33-3.51-1.4-7.32-2.08-22.69-1.79-27.42,5.3-3.4,5.1-1.08,11.67,4.13,14.42s12.54,1.19,17.69-1.21c5-2.32,12.34-10.42,14.8-13.23,2.45,1.73,4.91,3.46,7.21,5.25,1.54,1.25,3.12,2.36,4.6,3.7l4.43,3.88c2.73,2.56,5.56,5.19,8.16,7.76,1.82,1.77,3.52,3.49,5.24,5.22-2.5-1.57-7.47-4.56-7.91-4.76-6.92-3.16-22.15-5.21-27.9,1.08-4.14,4.54-2.84,11.38,1.89,14.89s12.22,3.08,17.67,1.48c6-1.75,16.17-10.42,17.43-11.51,2.83,2.88,5.57,5.7,8.1,8.4,7,7.41,12.78,14,17.28,19.31l4.27-3.65c-4.68-5.26-10.69-11.82-17.91-19.16-2.87-2.93-6-6-9.23-9.13a106.85,106.85,0,0,0,6.74-11c6.24,1.56,18.61,0,20.21-.16.78,4,1.5,7.82,2.12,11.47,1.54,8.93,2.66,16.81,3.47,23.31l5-4.26c-.9-5.81-2-12.53-3.48-20-.78-4-1.69-8.31-2.66-12.7,1.52-.6,14-5.57,18.3-10.08,3.94-4.09,7.84-10.39,6.9-16.34s-6.36-10.15-12.3-8.59c-8.24,2.16-13.51,16.6-13.93,24.19,0,.45.25,5.34.48,8.43-.41-1.8-.78-3.54-1.23-5.38-.85-3.64-1.8-7.26-2.82-11.15-.55-1.86-1.12-3.74-1.68-5.64s-1.32-3.83-2-5.77c-1.62-4.45-3.47-8.89-5.43-13.32,3.19-.76,14.48-3.59,19-7.05s9.32-9.09,9.3-15.1-4.75-11-10.85-10.37c-8.48.89-15.88,14.36-17.44,21.81-.1.46-.62,5.93-.85,8.94-1.2-2.65-2.39-5.31-3.69-7.95-3.76-7.64-7.8-15.26-11.8-22.87-1.23-2.33-2.42-4.67-3.62-7,1.13-.25,14.63-3.33,19.71-7.21,4.52-3.44,9.32-9.08,9.3-15.1s-4.75-11-10.85-10.36c-8.48.89-15.88,14.36-17.44,21.8-.12.57-.86,8.44-.95,10.45-2.65-5.15-5.24-10.3-7.59-15.48a177.55,177.55,0,0,1-8.24-21.51c.53-.12,14.63-3.27,19.84-7.24,4.52-3.44,9.32-9.09,9.3-15.1s-4.75-11-10.86-10.36c-8.47.89-15.87,14.36-17.44,21.8-.1.49-.67,6.49-.87,9.34l-.49.05a130.31,130.31,0,0,1-4.25-22.76c-.46-4.24-.66-8.31-.77-12.28,2.68-.31,14.94-1.9,20-5,4.88-2.93,10.27-8,10.91-14s-3.51-11.46-9.65-11.5c-8.52,0-17.36,12.53-19.73,19.76-.13.4-1,4.54-1.59,7.56,0-1.79-.07-3.63-.06-5.35,0-6.44.46-12.34.88-17.56.27-3,.56-5.65.87-8.15,2.47-1.69,12.35-8.61,15.4-13.57s5.42-11.84,3.23-17.44-8.4-8.55-13.86-5.75c-7.58,3.88-9.63,19.12-8.4,26.63.1.64,2.93,10.6,3.06,10.52l.15-.11c-.35,2.41-.68,5-1,7.81-.53,5.22-1.09,11.13-1.27,17.6a179.5,179.5,0,0,0,.43,20.89,131.51,131.51,0,0,0,3.79,23.07c0,.09.06.18.08.27-1.33-2.11-5.25-7.89-5.61-8.3-5-5.77-17.93-14-25.78-10.7-5.66,2.38-7.34,9.14-4.52,14.31s9.8,7.91,15.43,8.75c6.33,1,19.7-2.88,20.76-3.19a177.27,177.27,0,0,0,8,22.43c1.82,4.26,3.78,8.49,5.81,12.71-1.21-1.79-2.31-3.38-2.49-3.58-5-5.78-17.93-14-25.78-10.71-5.66,2.38-7.34,9.14-4.52,14.31s9.8,7.91,15.43,8.75,17.16-2.18,20.18-3c.79,1.61,1.57,3.23,2.37,4.83,3.83,7.71,7.7,15.39,11.26,23,1.25,2.7,2.39,5.4,3.54,8.09-1.08-1.58-2-2.91-2.16-3.1-5-5.77-17.93-14-25.79-10.7-5.66,2.38-7.34,9.13-4.52,14.31s9.81,7.91,15.43,8.75c5.44.81,16-1.89,19.64-2.88,1.09,2.8,2.19,5.6,3.12,8.36.59,1.9,1.3,3.68,1.79,5.62s1.05,3.81,1.56,5.68c.86,3.64,1.77,7.4,2.52,11,.54,2.49,1,4.86,1.49,7.25-1.22-2.69-3.71-7.92-4-8.33a39.25,39.25,0,0,0-14.84-13,12.19,12.19,0,0,0-1.34-1.78c-4-4.35-10.91-5-15-.39-5.69,6.35-2.12,21.3,1.72,27.87.23.38,3.16,4.31,5.05,6.76-1.33-1.27-2.61-2.52-4-3.81-2.72-2.57-5.51-5.05-8.5-7.74l-4.52-3.77c-1.48-1.3-3.21-2.47-4.82-3.73-3.81-2.83-7.8-5.51-11.89-8.12,2.25-2.39,10.1-11,12-16.37s2.76-12.72-.57-17.73-10-6.56-14.77-2.65c-6.58,5.41-5.32,20.73-2.52,27.8.18.44,2.76,5.29,4.23,7.93C198,279,195.52,277.45,193,276c-7.35-4.3-14.92-8.42-22.46-12.56-2.31-1.27-4.59-2.56-6.88-3.85.8-.84,10.36-10.85,12.46-16.89,1.87-5.36,2.77-12.72-.57-17.72s-10-6.56-14.77-2.66c-6.58,5.42-5.32,20.74-2.51,27.81.21.53,3.93,7.5,5,9.23-5.05-2.83-10.06-5.7-14.88-8.72a179.18,179.18,0,0,1-18.74-13.4c.38-.39,10.4-10.79,12.56-17,1.87-5.37,2.76-12.73-.58-17.73s-10-6.56-14.77-2.66c-6.58,5.42-5.32,20.74-2.51,27.81.18.47,3,5.78,4.42,8.28l-.37.31a129.57,129.57,0,0,1-16.11-16.65c-2.72-3.28-5.14-6.56-7.42-9.81,2.07-1.75,11.41-9.83,14-15.18,2.45-5.13,4.14-12.34,1.38-17.69s-9.25-7.62-14.39-4.26c-7.13,4.67-7.56,20-5.55,27.37.1.4,1.67,4.33,2.84,7.18-1-1.48-2.07-3-3-4.43-3.52-5.4-6.42-10.55-9-15.14-1.41-2.62-2.64-5-3.77-7.27,1.13-2.77,5.55-14,5.36-19.81s-2-12.87-6.93-16.33S74,141.72,71,147.07c-4.18,7.42,2.51,21.25,7.68,26.84.45.48,8.3,7.23,8.36,7.09a1.56,1.56,0,0,1,.07-.17c1,2.19,2.18,4.53,3.47,7.06,2.44,4.65,5.23,9.88,8.65,15.37a178.94,178.94,0,0,0,11.88,17.2A132.48,132.48,0,0,0,127,237.61l.22.18c-2.28-1-8.74-3.68-9.26-3.83-7.32-2.08-22.68-1.79-27.41,5.3-3.41,5.1-1.08,11.67,4.13,14.43S107.25,254.88,112.4,252.47Z" style="opacity:0.30000000000000004"></path></g></g><g id="freepik--Banknotes--inject-642"><rect x="410.96" y="23.18" width="105.94" height="213.23" transform="translate(-5.95 23.53) rotate(-2.89)" style="fill:#001169;stroke:#263238;stroke-linecap:round;stroke-linejoin:round"></rect><rect x="427.05" y="39.38" width="73.76" height="180.84" transform="translate(-5.95 23.53) rotate(-2.89)" style="fill:#fff;stroke:#263238;stroke-linecap:round;stroke-linejoin:round"></rect><path d="M480.67,129c.71,14-6.21,25.82-15.46,26.29s-17.31-10.55-18-24.61,6.21-25.82,15.46-26.29S480,114.9,480.67,129Z" style="fill:#fff;stroke:#263238;stroke-linecap:round;stroke-linejoin:round"></path><rect x="428.54" y="19.34" width="105.94" height="213.23" transform="translate(8.37 -28.5) rotate(3.42)" style="fill:#001169;stroke:#263238;stroke-linecap:round;stroke-linejoin:round"></rect><rect x="444.63" y="35.54" width="73.76" height="180.84" transform="translate(8.37 -28.5) rotate(3.42)" style="fill:#fff;stroke:#263238;stroke-linecap:round;stroke-linejoin:round"></rect><path d="M498.25,127c-.84,14-9,25-18.26,24.43S463.94,139,464.78,125s9-25,18.25-24.44S499.09,112.91,498.25,127Z" style="fill:#001169;stroke:#263238;stroke-linecap:round;stroke-linejoin:round"></path><rect x="449.94" y="15.5" width="105.94" height="213.23" transform="translate(34.5 -97.94) rotate(11.52)" style="fill:#001169;stroke:#263238;stroke-linecap:round;stroke-linejoin:round"></rect><rect x="466.03" y="31.7" width="73.76" height="180.84" transform="translate(34.5 -97.94) rotate(11.52)" style="fill:#fff;stroke:#263238;stroke-linecap:round;stroke-linejoin:round"></rect><path d="M519.34,125.46c-2.81,13.79-12.44,23.47-21.52,21.63s-14.14-14.53-11.33-28.32S498.93,95.3,508,97.15,522.15,111.68,519.34,125.46Z" style="fill:#001169;stroke:#263238;stroke-linecap:round;stroke-linejoin:round"></path><rect x="466.21" y="26.56" width="105.94" height="213.23" transform="translate(74.6 -166.22) rotate(19.57)" style="fill:#001169;stroke:#263238;stroke-linecap:round;stroke-linejoin:round"></rect><rect x="482.3" y="42.75" width="73.76" height="180.84" transform="translate(74.6 -166.22) rotate(19.57)" style="fill:#fff;stroke:#263238;stroke-linecap:round;stroke-linejoin:round"></rect><path d="M535,138.79c-4.72,13.26-15.61,21.5-24.33,18.39s-12-16.36-7.26-29.62,15.6-21.49,24.33-18.39S539.69,125.53,535,138.79Z" style="fill:#001169;stroke:#263238;stroke-linecap:round;stroke-linejoin:round"></path><rect x="477.96" y="39.08" width="105.94" height="213.23" transform="translate(141.67 -243.65) rotate(29.66)" style="fill:#001169;stroke:#263238;stroke-linecap:round;stroke-linejoin:round"></rect><rect x="494.06" y="55.28" width="73.76" height="180.84" transform="translate(141.67 -243.66) rotate(29.66)" style="fill:#fff;stroke:#263238;stroke-linecap:round;stroke-linejoin:round"></rect><path d="M545.5,154c-7,12.23-19.13,18.43-27.17,13.85s-8.92-18.21-2-30.44S535.5,119,543.55,123.56,552.47,141.76,545.5,154Z" style="fill:#001169;stroke:#263238;stroke-linecap:round;stroke-linejoin:round"></path><rect x="488.96" y="56.63" width="105.94" height="213.23" transform="translate(247.01 -319.83) rotate(41.83)" style="fill:#001169;stroke:#263238;stroke-linecap:round;stroke-linejoin:round"></rect><rect x="505.05" y="72.82" width="73.76" height="180.84" transform="translate(247.01 -319.83) rotate(41.83)" style="fill:#fff;stroke:#263238;stroke-linecap:round;stroke-linejoin:round"></rect><path d="M554.42,174.42c-9.39,10.49-22.59,14-29.49,7.81s-4.88-19.68,4.51-30.17,22.59-14,29.48-7.8S563.8,163.94,554.42,174.42Z" style="fill:#001169;stroke:#263238;stroke-linecap:round;stroke-linejoin:round"></path><rect x="495.57" y="74.4" width="105.94" height="213.23" transform="translate(362.72 -365.92) rotate(52.97)" style="fill:#001169;stroke:#263238;stroke-linecap:round;stroke-linejoin:round"></rect><rect x="511.66" y="90.59" width="73.76" height="180.84" transform="translate(362.72 -365.92) rotate(52.97)" style="fill:#fff;stroke:#263238;stroke-linecap:round;stroke-linejoin:round"></rect><path d="M558.63,194.39c-11.23,8.48-24.86,9.36-30.43,2s-1-20.25,10.24-28.72,24.87-9.35,30.44-2S569.87,185.92,558.63,194.39Z" style="fill:#001169;stroke:#263238;stroke-linecap:round;stroke-linejoin:round"></path></g><g id="freepik--Document--inject-642"><rect x="245.97" y="52.16" width="263.91" height="391.26" style="fill:#fff;stroke:#263238;stroke-linecap:round;stroke-linejoin:round"></rect><rect x="261.22" y="151.27" width="236.89" height="5.37" style="fill:#001169"></rect><path d="M454.42,346.16a39.37,39.37,0,1,0,39.37,39.37A39.37,39.37,0,0,0,454.42,346.16Zm0,74A34.6,34.6,0,1,1,489,385.53,34.59,34.59,0,0,1,454.42,420.12Zm0-6A28.6,28.6,0,1,1,483,385.53,28.59,28.59,0,0,1,454.42,414.12Z" style="fill:#001169"></path><line x1="336.56" y1="223.03" x2="416.06" y2="223.03" style="fill:none;stroke:#263238;stroke-linecap:round;stroke-linejoin:round"></line><line x1="336.56" y1="233.49" x2="477.44" y2="233.49" style="fill:none;stroke:#263238;stroke-linecap:round;stroke-linejoin:round"></line><line x1="336.56" y1="246.04" x2="477.44" y2="246.04" style="fill:none;stroke:#263238;stroke-linecap:round;stroke-linejoin:round"></line><line x1="336.56" y1="179.79" x2="477.44" y2="179.79" style="fill:none;stroke:#263238;stroke-linecap:round;stroke-linejoin:round"></line><line x1="267.12" y1="186.06" x2="311.06" y2="186.06" style="fill:none;stroke:#263238;stroke-linecap:round;stroke-linejoin:round"></line><line x1="267.12" y1="199.31" x2="311.06" y2="199.31" style="fill:none;stroke:#263238;stroke-linecap:round;stroke-linejoin:round"></line><line x1="267.12" y1="212.57" x2="311.06" y2="212.57" style="fill:none;stroke:#263238;stroke-linecap:round;stroke-linejoin:round"></line><line x1="267.12" y1="225.82" x2="311.06" y2="225.82" style="fill:none;stroke:#263238;stroke-linecap:round;stroke-linejoin:round"></line><line x1="267.12" y1="239.07" x2="311.06" y2="239.07" style="fill:none;stroke:#263238;stroke-linecap:round;stroke-linejoin:round"></line><line x1="267.12" y1="252.32" x2="311.06" y2="252.32" style="fill:none;stroke:#263238;stroke-linecap:round;stroke-linejoin:round"></line><rect x="259.14" y="170.02" width="59.26" height="107.4" rx="4.03" style="fill:none;stroke:#263238;stroke-linecap:round;stroke-linejoin:round"></rect><rect x="325.55" y="170.02" width="173.51" height="25.8" rx="4.03" style="fill:none;stroke:#263238;stroke-linecap:round;stroke-linejoin:round"></rect><rect x="325.55" y="209.08" width="172.8" height="68.35" rx="4.03" style="fill:none;stroke:#263238;stroke-linecap:round;stroke-linejoin:round"></rect><line x1="280.07" y1="307.42" x2="477.44" y2="307.42" style="fill:none;stroke:#263238;stroke-linecap:round;stroke-linejoin:round"></line><line x1="280.07" y1="329.73" x2="477.44" y2="329.73" style="fill:none;stroke:#263238;stroke-linecap:round;stroke-linejoin:round"></line><line x1="280.07" y1="352.05" x2="477.44" y2="352.05" style="fill:none;stroke:#263238;stroke-linecap:round;stroke-linejoin:round"></line><line x1="280.07" y1="374.37" x2="477.44" y2="374.37" style="fill:none;stroke:#263238;stroke-linecap:round;stroke-linejoin:round"></line><line x1="280.07" y1="396.69" x2="477.44" y2="396.69" style="fill:none;stroke:#263238;stroke-linecap:round;stroke-linejoin:round"></line><path d="M311.28,142.35V77.19h28.16v9.73H325.68v16.42h12v10h-12v29Z" style="fill:#fff"></path><path d="M345.87,142.35V77.19h14.4v65.16Z" style="fill:#FF671F"></path><path d="M370,142.35V77.19h10.14l13.35,31.37V77.19H405.4v65.16h-9.73l-13.36-33.79v33.79Z" style="fill:#046A38"></path><path d="M415.13,142.35V77.19h29.29V87H429.53v16.17h11.35v10H429.53v19.47h15.05v9.73Z" style="fill:#fff"></path></g><g id="freepik--Coins--inject-642"><path d="M281.57,433.87v9.84c0,1.21,17.63,2.19,39.38,2.19s39.37-1,39.37-2.19v-9.84Z" style="fill:#fff;stroke:#263238;stroke-linecap:round;stroke-linejoin:round"></path><path d="M360.32,433.87c0,1.2-17.63,2.18-39.37,2.18s-39.38-1-39.38-2.18,17.63-2.19,39.38-2.19S360.32,432.66,360.32,433.87Z" style="fill:#fff;stroke:#263238;stroke-linecap:round;stroke-linejoin:round"></path><path d="M351.19,433.59c0,.78-13.54,1.4-30.24,1.4s-30.25-.62-30.25-1.4,13.54-1.4,30.25-1.4S351.19,432.82,351.19,433.59Z" style="fill:#fff;stroke:#263238;stroke-linecap:round;stroke-linejoin:round"></path><line x1="356.4" y1="434.99" x2="356.4" y2="442.62" style="fill:none;stroke:#263238;stroke-linecap:round;stroke-linejoin:round"></line><line x1="350.77" y1="435.79" x2="350.77" y2="443.83" style="fill:none;stroke:#263238;stroke-linecap:round;stroke-linejoin:round"></line><line x1="342.34" y1="435.99" x2="342.34" y2="442.22" style="fill:none;stroke:#263238;stroke-linecap:round;stroke-linejoin:round"></line><line x1="331.29" y1="440.01" x2="331.29" y2="445.43" style="fill:none;stroke:#263238;stroke-linecap:round;stroke-linejoin:round"></line><line x1="319.44" y1="446.04" x2="319.44" y2="439.21" style="fill:none;stroke:#263238;stroke-linecap:round;stroke-linejoin:round"></line><line x1="284.09" y1="434.99" x2="284.09" y2="438.4" style="fill:none;stroke:#263238;stroke-linecap:round;stroke-linejoin:round"></line><line x1="288.71" y1="444.63" x2="288.71" y2="440.61" style="fill:none;stroke:#263238;stroke-linecap:round;stroke-linejoin:round"></line><line x1="306.98" y1="445.03" x2="306.98" y2="440.21" style="fill:none;stroke:#263238;stroke-linecap:round;stroke-linejoin:round"></line><path d="M283.36,424v9.84c0,1.21,17.63,2.19,39.38,2.19s39.37-1,39.37-2.19V424Z" style="fill:#fff;stroke:#263238;stroke-linecap:round;stroke-linejoin:round"></path><path d="M362.11,424c0,1.21-17.63,2.19-39.37,2.19s-39.38-1-39.38-2.19,17.63-2.19,39.38-2.19S362.11,422.8,362.11,424Z" style="fill:#fff;stroke:#263238;stroke-linecap:round;stroke-linejoin:round"></path><path d="M353,423.74c0,.77-13.54,1.4-30.24,1.4s-30.25-.63-30.25-1.4,13.54-1.41,30.25-1.41S353,423,353,423.74Z" style="fill:#fff;stroke:#263238;stroke-linecap:round;stroke-linejoin:round"></path><line x1="358.19" y1="425.13" x2="358.19" y2="432.77" style="fill:none;stroke:#263238;stroke-linecap:round;stroke-linejoin:round"></line><line x1="352.56" y1="425.94" x2="352.56" y2="433.97" style="fill:none;stroke:#263238;stroke-linecap:round;stroke-linejoin:round"></line><line x1="344.13" y1="426.14" x2="344.13" y2="432.36" style="fill:none;stroke:#263238;stroke-linecap:round;stroke-linejoin:round"></line><line x1="333.08" y1="430.16" x2="333.08" y2="435.58" style="fill:none;stroke:#263238;stroke-linecap:round;stroke-linejoin:round"></line><line x1="321.23" y1="436.18" x2="321.23" y2="429.35" style="fill:none;stroke:#263238;stroke-linecap:round;stroke-linejoin:round"></line><line x1="285.88" y1="425.13" x2="285.88" y2="428.55" style="fill:none;stroke:#263238;stroke-linecap:round;stroke-linejoin:round"></line><line x1="290.5" y1="434.77" x2="290.5" y2="430.76" style="fill:none;stroke:#263238;stroke-linecap:round;stroke-linejoin:round"></line><line x1="308.78" y1="435.18" x2="308.78" y2="430.36" style="fill:none;stroke:#263238;stroke-linecap:round;stroke-linejoin:round"></line><path d="M283.66,414.16V424c0,1.21,17.63,2.19,39.38,2.19s39.37-1,39.37-2.19v-9.84Z" style="fill:#fff;stroke:#263238;stroke-linecap:round;stroke-linejoin:round"></path><path d="M362.41,414.16c0,1.2-17.63,2.18-39.37,2.18s-39.38-1-39.38-2.18S301.29,412,323,412,362.41,413,362.41,414.16Z" style="fill:#fff;stroke:#263238;stroke-linecap:round;stroke-linejoin:round"></path><path d="M353.28,413.88c0,.78-13.54,1.4-30.24,1.4s-30.25-.62-30.25-1.4,13.54-1.4,30.25-1.4S353.28,413.1,353.28,413.88Z" style="fill:#fff;stroke:#263238;stroke-linecap:round;stroke-linejoin:round"></path><line x1="358.49" y1="415.28" x2="358.49" y2="422.91" style="fill:none;stroke:#263238;stroke-linecap:round;stroke-linejoin:round"></line><line x1="352.86" y1="416.08" x2="352.86" y2="424.12" style="fill:none;stroke:#263238;stroke-linecap:round;stroke-linejoin:round"></line><line x1="344.43" y1="416.28" x2="344.43" y2="422.51" style="fill:none;stroke:#263238;stroke-linecap:round;stroke-linejoin:round"></line><line x1="333.38" y1="420.3" x2="333.38" y2="425.72" style="fill:none;stroke:#263238;stroke-linecap:round;stroke-linejoin:round"></line><line x1="321.53" y1="426.33" x2="321.53" y2="419.5" style="fill:none;stroke:#263238;stroke-linecap:round;stroke-linejoin:round"></line><line x1="286.18" y1="415.28" x2="286.18" y2="418.69" style="fill:none;stroke:#263238;stroke-linecap:round;stroke-linejoin:round"></line><line x1="290.8" y1="424.92" x2="290.8" y2="420.9" style="fill:none;stroke:#263238;stroke-linecap:round;stroke-linejoin:round"></line><line x1="309.07" y1="425.32" x2="309.07" y2="420.5" style="fill:none;stroke:#263238;stroke-linecap:round;stroke-linejoin:round"></line><path d="M283.36,404.3v9.84c0,1.21,17.63,2.19,39.38,2.19s39.37-1,39.37-2.19V404.3Z" style="fill:#fff;stroke:#263238;stroke-linecap:round;stroke-linejoin:round"></path><path d="M362.11,404.3c0,1.21-17.63,2.19-39.37,2.19s-39.38-1-39.38-2.19,17.63-2.19,39.38-2.19S362.11,403.09,362.11,404.3Z" style="fill:#fff;stroke:#263238;stroke-linecap:round;stroke-linejoin:round"></path><path d="M353,404c0,.77-13.54,1.4-30.24,1.4s-30.25-.63-30.25-1.4,13.54-1.41,30.25-1.41S353,403.25,353,404Z" style="fill:#fff;stroke:#263238;stroke-linecap:round;stroke-linejoin:round"></path><line x1="358.19" y1="405.42" x2="358.19" y2="413.06" style="fill:none;stroke:#263238;stroke-linecap:round;stroke-linejoin:round"></line><line x1="352.56" y1="406.23" x2="352.56" y2="414.26" style="fill:none;stroke:#263238;stroke-linecap:round;stroke-linejoin:round"></line><line x1="344.13" y1="406.43" x2="344.13" y2="412.65" style="fill:none;stroke:#263238;stroke-linecap:round;stroke-linejoin:round"></line><line x1="333.08" y1="410.45" x2="333.08" y2="415.87" style="fill:none;stroke:#263238;stroke-linecap:round;stroke-linejoin:round"></line><line x1="321.23" y1="416.47" x2="321.23" y2="409.64" style="fill:none;stroke:#263238;stroke-linecap:round;stroke-linejoin:round"></line><line x1="285.88" y1="405.42" x2="285.88" y2="408.84" style="fill:none;stroke:#263238;stroke-linecap:round;stroke-linejoin:round"></line><line x1="290.5" y1="415.06" x2="290.5" y2="411.05" style="fill:none;stroke:#263238;stroke-linecap:round;stroke-linejoin:round"></line><line x1="308.78" y1="415.47" x2="308.78" y2="410.65" style="fill:none;stroke:#263238;stroke-linecap:round;stroke-linejoin:round"></line><path d="M284,394.45v9.84c0,1.21,17.63,2.19,39.38,2.19s39.37-1,39.37-2.19v-9.84Z" style="fill:#fff;stroke:#263238;stroke-linecap:round;stroke-linejoin:round"></path><path d="M362.71,394.45c0,1.2-17.63,2.18-39.37,2.18s-39.38-1-39.38-2.18,17.63-2.19,39.38-2.19S362.71,393.24,362.71,394.45Z" style="fill:#fff;stroke:#263238;stroke-linecap:round;stroke-linejoin:round"></path><path d="M353.58,394.17c0,.78-13.54,1.4-30.24,1.4s-30.25-.62-30.25-1.4,13.54-1.4,30.25-1.4S353.58,393.39,353.58,394.17Z" style="fill:#fff;stroke:#263238;stroke-linecap:round;stroke-linejoin:round"></path><line x1="358.79" y1="395.57" x2="358.79" y2="403.2" style="fill:none;stroke:#263238;stroke-linecap:round;stroke-linejoin:round"></line><line x1="353.16" y1="396.37" x2="353.16" y2="404.41" style="fill:none;stroke:#263238;stroke-linecap:round;stroke-linejoin:round"></line><line x1="344.73" y1="396.57" x2="344.73" y2="402.8" style="fill:none;stroke:#263238;stroke-linecap:round;stroke-linejoin:round"></line><line x1="333.68" y1="400.59" x2="333.68" y2="406.01" style="fill:none;stroke:#263238;stroke-linecap:round;stroke-linejoin:round"></line><line x1="321.83" y1="406.62" x2="321.83" y2="399.79" style="fill:none;stroke:#263238;stroke-linecap:round;stroke-linejoin:round"></line><line x1="286.48" y1="395.57" x2="286.48" y2="398.98" style="fill:none;stroke:#263238;stroke-linecap:round;stroke-linejoin:round"></line><line x1="291.1" y1="405.21" x2="291.1" y2="401.19" style="fill:none;stroke:#263238;stroke-linecap:round;stroke-linejoin:round"></line><line x1="309.37" y1="405.61" x2="309.37" y2="400.79" style="fill:none;stroke:#263238;stroke-linecap:round;stroke-linejoin:round"></line><path d="M281.57,384.59v9.84c0,1.21,17.63,2.19,39.38,2.19s39.37-1,39.37-2.19v-9.84Z" style="fill:#fff;stroke:#263238;stroke-linecap:round;stroke-linejoin:round"></path><path d="M360.32,384.59c0,1.21-17.63,2.19-39.37,2.19s-39.38-1-39.38-2.19S299.2,382.4,321,382.4,360.32,383.38,360.32,384.59Z" style="fill:#fff;stroke:#263238;stroke-linecap:round;stroke-linejoin:round"></path><path d="M351.19,384.32c0,.77-13.54,1.4-30.24,1.4s-30.25-.63-30.25-1.4,13.54-1.41,30.25-1.41S351.19,383.54,351.19,384.32Z" style="fill:#fff;stroke:#263238;stroke-linecap:round;stroke-linejoin:round"></path><line x1="356.4" y1="385.71" x2="356.4" y2="393.35" style="fill:none;stroke:#263238;stroke-linecap:round;stroke-linejoin:round"></line><line x1="350.77" y1="386.52" x2="350.77" y2="394.55" style="fill:none;stroke:#263238;stroke-linecap:round;stroke-linejoin:round"></line><line x1="342.34" y1="386.72" x2="342.34" y2="392.94" style="fill:none;stroke:#263238;stroke-linecap:round;stroke-linejoin:round"></line><line x1="331.29" y1="390.74" x2="331.29" y2="396.16" style="fill:none;stroke:#263238;stroke-linecap:round;stroke-linejoin:round"></line><line x1="319.44" y1="396.76" x2="319.44" y2="389.93" style="fill:none;stroke:#263238;stroke-linecap:round;stroke-linejoin:round"></line><line x1="284.09" y1="385.71" x2="284.09" y2="389.13" style="fill:none;stroke:#263238;stroke-linecap:round;stroke-linejoin:round"></line><line x1="288.71" y1="395.35" x2="288.71" y2="391.34" style="fill:none;stroke:#263238;stroke-linecap:round;stroke-linejoin:round"></line><line x1="306.98" y1="395.76" x2="306.98" y2="390.94" style="fill:none;stroke:#263238;stroke-linecap:round;stroke-linejoin:round"></line><path d="M280.38,374.74v9.84c0,1.21,17.63,2.19,39.37,2.19s39.38-1,39.38-2.19v-9.84Z" style="fill:#fff;stroke:#263238;stroke-linecap:round;stroke-linejoin:round"></path><path d="M359.13,374.74c0,1.2-17.63,2.18-39.38,2.18s-39.37-1-39.37-2.18,17.63-2.19,39.37-2.19S359.13,373.53,359.13,374.74Z" style="fill:#fff;stroke:#263238;stroke-linecap:round;stroke-linejoin:round"></path><path d="M350,374.46c0,.78-13.54,1.4-30.25,1.4s-30.24-.62-30.24-1.4,13.54-1.4,30.24-1.4S350,373.68,350,374.46Z" style="fill:#fff;stroke:#263238;stroke-linecap:round;stroke-linejoin:round"></path><line x1="355.2" y1="375.86" x2="355.2" y2="383.49" style="fill:none;stroke:#263238;stroke-linecap:round;stroke-linejoin:round"></line><line x1="349.58" y1="376.66" x2="349.58" y2="384.7" style="fill:none;stroke:#263238;stroke-linecap:round;stroke-linejoin:round"></line><line x1="341.14" y1="376.86" x2="341.14" y2="383.09" style="fill:none;stroke:#263238;stroke-linecap:round;stroke-linejoin:round"></line><line x1="330.09" y1="380.88" x2="330.09" y2="386.3" style="fill:none;stroke:#263238;stroke-linecap:round;stroke-linejoin:round"></line><line x1="318.24" y1="386.91" x2="318.24" y2="380.08" style="fill:none;stroke:#263238;stroke-linecap:round;stroke-linejoin:round"></line><line x1="282.89" y1="375.86" x2="282.89" y2="379.27" style="fill:none;stroke:#263238;stroke-linecap:round;stroke-linejoin:round"></line><line x1="287.51" y1="385.5" x2="287.51" y2="381.48" style="fill:none;stroke:#263238;stroke-linecap:round;stroke-linejoin:round"></line><line x1="305.79" y1="385.9" x2="305.79" y2="381.08" style="fill:none;stroke:#263238;stroke-linecap:round;stroke-linejoin:round"></line><path d="M278.29,364.88v9.84c0,1.21,17.62,2.19,39.37,2.19s39.38-1,39.38-2.19v-9.84Z" style="fill:#fff;stroke:#263238;stroke-linecap:round;stroke-linejoin:round"></path><path d="M357,364.88c0,1.21-17.63,2.19-39.38,2.19s-39.37-1-39.37-2.19,17.62-2.19,39.37-2.19S357,363.67,357,364.88Z" style="fill:#fff;stroke:#263238;stroke-linecap:round;stroke-linejoin:round"></path><path d="M347.91,364.61c0,.77-13.55,1.4-30.25,1.4s-30.24-.63-30.24-1.4,13.54-1.41,30.24-1.41S347.91,363.83,347.91,364.61Z" style="fill:#fff;stroke:#263238;stroke-linecap:round;stroke-linejoin:round"></path><line x1="353.11" y1="366" x2="353.11" y2="373.64" style="fill:none;stroke:#263238;stroke-linecap:round;stroke-linejoin:round"></line><line x1="347.49" y1="366.81" x2="347.49" y2="374.84" style="fill:none;stroke:#263238;stroke-linecap:round;stroke-linejoin:round"></line><line x1="339.05" y1="367.01" x2="339.05" y2="373.23" style="fill:none;stroke:#263238;stroke-linecap:round;stroke-linejoin:round"></line><line x1="328" y1="371.02" x2="328" y2="376.45" style="fill:none;stroke:#263238;stroke-linecap:round;stroke-linejoin:round"></line><line x1="316.15" y1="377.05" x2="316.15" y2="370.22" style="fill:none;stroke:#263238;stroke-linecap:round;stroke-linejoin:round"></line><line x1="280.8" y1="366" x2="280.8" y2="369.42" style="fill:none;stroke:#263238;stroke-linecap:round;stroke-linejoin:round"></line><line x1="285.42" y1="375.64" x2="285.42" y2="371.63" style="fill:none;stroke:#263238;stroke-linecap:round;stroke-linejoin:round"></line><line x1="303.7" y1="376.05" x2="303.7" y2="371.23" style="fill:none;stroke:#263238;stroke-linecap:round;stroke-linejoin:round"></line><path d="M281.57,355v9.84c0,1.21,17.63,2.19,39.38,2.19s39.37-1,39.37-2.19V355Z" style="fill:#fff;stroke:#263238;stroke-linecap:round;stroke-linejoin:round"></path><path d="M360.32,355c0,1.2-17.63,2.18-39.37,2.18s-39.38-1-39.38-2.18,17.63-2.19,39.38-2.19S360.32,353.82,360.32,355Z" style="fill:#fff;stroke:#263238;stroke-linecap:round;stroke-linejoin:round"></path><path d="M351.19,354.75c0,.78-13.54,1.4-30.24,1.4s-30.25-.62-30.25-1.4,13.54-1.4,30.25-1.4S351.19,354,351.19,354.75Z" style="fill:#fff;stroke:#263238;stroke-linecap:round;stroke-linejoin:round"></path><line x1="356.4" y1="356.15" x2="356.4" y2="363.78" style="fill:none;stroke:#263238;stroke-linecap:round;stroke-linejoin:round"></line><line x1="350.77" y1="356.95" x2="350.77" y2="364.99" style="fill:none;stroke:#263238;stroke-linecap:round;stroke-linejoin:round"></line><line x1="342.34" y1="357.15" x2="342.34" y2="363.38" style="fill:none;stroke:#263238;stroke-linecap:round;stroke-linejoin:round"></line><line x1="331.29" y1="361.17" x2="331.29" y2="366.59" style="fill:none;stroke:#263238;stroke-linecap:round;stroke-linejoin:round"></line><line x1="319.44" y1="367.2" x2="319.44" y2="360.37" style="fill:none;stroke:#263238;stroke-linecap:round;stroke-linejoin:round"></line><line x1="284.09" y1="356.15" x2="284.09" y2="359.56" style="fill:none;stroke:#263238;stroke-linecap:round;stroke-linejoin:round"></line><line x1="288.71" y1="365.79" x2="288.71" y2="361.77" style="fill:none;stroke:#263238;stroke-linecap:round;stroke-linejoin:round"></line><line x1="306.98" y1="366.19" x2="306.98" y2="361.37" style="fill:none;stroke:#263238;stroke-linecap:round;stroke-linejoin:round"></line><path d="M278.88,345.17V355c0,1.21,17.63,2.19,39.38,2.19s39.37-1,39.37-2.19v-9.84Z" style="fill:#fff;stroke:#263238;stroke-linecap:round;stroke-linejoin:round"></path><ellipse cx="318.26" cy="345.17" rx="39.38" ry="2.19" style="fill:#fff;stroke:#263238;stroke-linecap:round;stroke-linejoin:round"></ellipse><path d="M348.5,344.9c0,.77-13.54,1.4-30.24,1.4S288,345.67,288,344.9s13.55-1.41,30.25-1.41S348.5,344.12,348.5,344.9Z" style="fill:#fff;stroke:#263238;stroke-linecap:round;stroke-linejoin:round"></path><line x1="353.71" y1="346.29" x2="353.71" y2="353.93" style="fill:none;stroke:#263238;stroke-linecap:round;stroke-linejoin:round"></line><line x1="348.08" y1="347.1" x2="348.08" y2="355.13" style="fill:none;stroke:#263238;stroke-linecap:round;stroke-linejoin:round"></line><line x1="339.65" y1="347.3" x2="339.65" y2="353.52" style="fill:none;stroke:#263238;stroke-linecap:round;stroke-linejoin:round"></line><line x1="328.6" y1="351.31" x2="328.6" y2="356.74" style="fill:none;stroke:#263238;stroke-linecap:round;stroke-linejoin:round"></line><line x1="316.75" y1="357.34" x2="316.75" y2="350.51" style="fill:none;stroke:#263238;stroke-linecap:round;stroke-linejoin:round"></line><line x1="281.4" y1="346.29" x2="281.4" y2="349.71" style="fill:none;stroke:#263238;stroke-linecap:round;stroke-linejoin:round"></line><line x1="286.02" y1="355.93" x2="286.02" y2="351.92" style="fill:none;stroke:#263238;stroke-linecap:round;stroke-linejoin:round"></line><line x1="304.3" y1="356.34" x2="304.3" y2="351.52" style="fill:none;stroke:#263238;stroke-linecap:round;stroke-linejoin:round"></line><path d="M281.57,335.32v9.84c0,1.21,17.63,2.19,39.38,2.19s39.37-1,39.37-2.19v-9.84Z" style="fill:#fff;stroke:#263238;stroke-linecap:round;stroke-linejoin:round"></path><path d="M360.32,335.32c0,1.2-17.63,2.18-39.37,2.18s-39.38-1-39.38-2.18,17.63-2.19,39.38-2.19S360.32,334.11,360.32,335.32Z" style="fill:#fff;stroke:#263238;stroke-linecap:round;stroke-linejoin:round"></path><path d="M351.19,335c0,.78-13.54,1.4-30.24,1.4s-30.25-.62-30.25-1.4,13.54-1.4,30.25-1.4S351.19,334.26,351.19,335Z" style="fill:#fff;stroke:#263238;stroke-linecap:round;stroke-linejoin:round"></path><line x1="356.4" y1="336.44" x2="356.4" y2="344.07" style="fill:none;stroke:#263238;stroke-linecap:round;stroke-linejoin:round"></line><line x1="350.77" y1="337.24" x2="350.77" y2="345.28" style="fill:none;stroke:#263238;stroke-linecap:round;stroke-linejoin:round"></line><line x1="342.34" y1="337.44" x2="342.34" y2="343.67" style="fill:none;stroke:#263238;stroke-linecap:round;stroke-linejoin:round"></line><line x1="331.29" y1="341.46" x2="331.29" y2="346.88" style="fill:none;stroke:#263238;stroke-linecap:round;stroke-linejoin:round"></line><line x1="319.44" y1="347.49" x2="319.44" y2="340.66" style="fill:none;stroke:#263238;stroke-linecap:round;stroke-linejoin:round"></line><line x1="284.09" y1="336.44" x2="284.09" y2="339.85" style="fill:none;stroke:#263238;stroke-linecap:round;stroke-linejoin:round"></line><line x1="288.71" y1="346.08" x2="288.71" y2="342.06" style="fill:none;stroke:#263238;stroke-linecap:round;stroke-linejoin:round"></line><line x1="306.98" y1="346.48" x2="306.98" y2="341.66" style="fill:none;stroke:#263238;stroke-linecap:round;stroke-linejoin:round"></line><path d="M284.56,325.46v9.84c0,1.21,17.63,2.19,39.37,2.19s39.38-1,39.38-2.19v-9.84Z" style="fill:#fff;stroke:#263238;stroke-linecap:round;stroke-linejoin:round"></path><ellipse cx="323.93" cy="325.46" rx="39.38" ry="2.19" style="fill:#fff;stroke:#263238;stroke-linecap:round;stroke-linejoin:round"></ellipse><path d="M354.18,325.19c0,.77-13.54,1.4-30.25,1.4s-30.24-.63-30.24-1.4,13.54-1.41,30.24-1.41S354.18,324.41,354.18,325.19Z" style="fill:#fff;stroke:#263238;stroke-linecap:round;stroke-linejoin:round"></path><line x1="359.38" y1="326.58" x2="359.38" y2="334.22" style="fill:none;stroke:#263238;stroke-linecap:round;stroke-linejoin:round"></line><line x1="353.76" y1="327.39" x2="353.76" y2="335.42" style="fill:none;stroke:#263238;stroke-linecap:round;stroke-linejoin:round"></line><line x1="345.32" y1="327.59" x2="345.32" y2="333.81" style="fill:none;stroke:#263238;stroke-linecap:round;stroke-linejoin:round"></line><line x1="334.28" y1="331.6" x2="334.28" y2="337.03" style="fill:none;stroke:#263238;stroke-linecap:round;stroke-linejoin:round"></line><line x1="322.42" y1="337.63" x2="322.42" y2="330.8" style="fill:none;stroke:#263238;stroke-linecap:round;stroke-linejoin:round"></line><line x1="287.07" y1="326.58" x2="287.07" y2="330" style="fill:none;stroke:#263238;stroke-linecap:round;stroke-linejoin:round"></line><line x1="291.69" y1="336.22" x2="291.69" y2="332.21" style="fill:none;stroke:#263238;stroke-linecap:round;stroke-linejoin:round"></line><line x1="309.97" y1="336.63" x2="309.97" y2="331.81" style="fill:none;stroke:#263238;stroke-linecap:round;stroke-linejoin:round"></line><path d="M284.56,316.21v9.85c0,1.2,17.63,2.18,39.37,2.18s39.38-1,39.38-2.18v-9.85Z" style="fill:#fff;stroke:#263238;stroke-linecap:round;stroke-linejoin:round"></path><path d="M363.31,316.21c0,1.21-17.63,2.19-39.38,2.19s-39.37-1-39.37-2.19S302.19,314,323.93,314,363.31,315,363.31,316.21Z" style="fill:#fff;stroke:#263238;stroke-linecap:round;stroke-linejoin:round"></path><ellipse cx="323.93" cy="315.94" rx="30.24" ry="1.4" style="fill:#fff;stroke:#263238;stroke-linecap:round;stroke-linejoin:round"></ellipse><line x1="359.38" y1="317.34" x2="359.38" y2="324.97" style="fill:none;stroke:#263238;stroke-linecap:round;stroke-linejoin:round"></line><line x1="353.76" y1="318.14" x2="353.76" y2="326.17" style="fill:none;stroke:#263238;stroke-linecap:round;stroke-linejoin:round"></line><line x1="345.32" y1="318.34" x2="345.32" y2="324.57" style="fill:none;stroke:#263238;stroke-linecap:round;stroke-linejoin:round"></line><line x1="334.28" y1="322.36" x2="334.28" y2="327.78" style="fill:none;stroke:#263238;stroke-linecap:round;stroke-linejoin:round"></line><line x1="322.42" y1="328.38" x2="322.42" y2="321.55" style="fill:none;stroke:#263238;stroke-linecap:round;stroke-linejoin:round"></line><line x1="287.07" y1="317.34" x2="287.07" y2="320.75" style="fill:none;stroke:#263238;stroke-linecap:round;stroke-linejoin:round"></line><line x1="291.69" y1="326.98" x2="291.69" y2="322.96" style="fill:none;stroke:#263238;stroke-linecap:round;stroke-linejoin:round"></line><line x1="309.97" y1="327.38" x2="309.97" y2="322.56" style="fill:none;stroke:#263238;stroke-linecap:round;stroke-linejoin:round"></line><path d="M280.77,307v9.84c0,1.21,17.63,2.19,39.38,2.19s39.38-1,39.38-2.19V307Z" style="fill:#fff;stroke:#263238;stroke-linecap:round;stroke-linejoin:round"></path><ellipse cx="320.15" cy="306.97" rx="39.38" ry="2.19" style="fill:#fff;stroke:#263238;stroke-linecap:round;stroke-linejoin:round"></ellipse><ellipse cx="320.15" cy="306.69" rx="30.24" ry="1.4" style="fill:#fff;stroke:#263238;stroke-linecap:round;stroke-linejoin:round"></ellipse><line x1="355.6" y1="308.09" x2="355.6" y2="315.72" style="fill:none;stroke:#263238;stroke-linecap:round;stroke-linejoin:round"></line><line x1="349.98" y1="308.89" x2="349.98" y2="316.93" style="fill:none;stroke:#263238;stroke-linecap:round;stroke-linejoin:round"></line><line x1="341.54" y1="309.09" x2="341.54" y2="315.32" style="fill:none;stroke:#263238;stroke-linecap:round;stroke-linejoin:round"></line><line x1="330.49" y1="313.11" x2="330.49" y2="318.53" style="fill:none;stroke:#263238;stroke-linecap:round;stroke-linejoin:round"></line><line x1="318.64" y1="319.14" x2="318.64" y2="312.31" style="fill:none;stroke:#263238;stroke-linecap:round;stroke-linejoin:round"></line><line x1="283.29" y1="308.09" x2="283.29" y2="311.5" style="fill:none;stroke:#263238;stroke-linecap:round;stroke-linejoin:round"></line><line x1="287.91" y1="317.73" x2="287.91" y2="313.71" style="fill:none;stroke:#263238;stroke-linecap:round;stroke-linejoin:round"></line><line x1="306.19" y1="318.13" x2="306.19" y2="313.31" style="fill:none;stroke:#263238;stroke-linecap:round;stroke-linejoin:round"></line><path d="M276.15,297.72v9.84c0,1.21,17.63,2.19,39.38,2.19s39.37-1,39.37-2.19v-9.84Z" style="fill:#fff;stroke:#263238;stroke-linecap:round;stroke-linejoin:round"></path><path d="M354.9,297.72c0,1.21-17.63,2.19-39.37,2.19s-39.38-1-39.38-2.19,17.63-2.19,39.38-2.19S354.9,296.51,354.9,297.72Z" style="fill:#fff;stroke:#263238;stroke-linecap:round;stroke-linejoin:round"></path><path d="M345.77,297.44c0,.78-13.54,1.41-30.24,1.41s-30.25-.63-30.25-1.41,13.54-1.4,30.25-1.4S345.77,296.67,345.77,297.44Z" style="fill:#fff;stroke:#263238;stroke-linecap:round;stroke-linejoin:round"></path><line x1="350.98" y1="298.84" x2="350.98" y2="306.47" style="fill:none;stroke:#263238;stroke-linecap:round;stroke-linejoin:round"></line><line x1="345.35" y1="299.64" x2="345.35" y2="307.68" style="fill:none;stroke:#263238;stroke-linecap:round;stroke-linejoin:round"></line><line x1="336.92" y1="299.84" x2="336.92" y2="306.07" style="fill:none;stroke:#263238;stroke-linecap:round;stroke-linejoin:round"></line><line x1="325.87" y1="303.86" x2="325.87" y2="309.29" style="fill:none;stroke:#263238;stroke-linecap:round;stroke-linejoin:round"></line><line x1="314.02" y1="309.89" x2="314.02" y2="303.06" style="fill:none;stroke:#263238;stroke-linecap:round;stroke-linejoin:round"></line><line x1="278.67" y1="298.84" x2="278.67" y2="302.26" style="fill:none;stroke:#263238;stroke-linecap:round;stroke-linejoin:round"></line><line x1="283.29" y1="308.48" x2="283.29" y2="304.46" style="fill:none;stroke:#263238;stroke-linecap:round;stroke-linejoin:round"></line><line x1="301.56" y1="308.88" x2="301.56" y2="304.06" style="fill:none;stroke:#263238;stroke-linecap:round;stroke-linejoin:round"></line><path d="M211.19,437.11V447c0,1.21,17.63,2.19,39.38,2.19S290,448.16,290,447v-9.84Z" style="fill:#fff;stroke:#263238;stroke-linecap:round;stroke-linejoin:round"></path><ellipse cx="250.57" cy="437.11" rx="39.38" ry="2.19" style="fill:#fff;stroke:#263238;stroke-linecap:round;stroke-linejoin:round"></ellipse><ellipse cx="250.57" cy="436.83" rx="30.24" ry="1.4" style="fill:#fff;stroke:#263238;stroke-linecap:round;stroke-linejoin:round"></ellipse><line x1="286.02" y1="438.23" x2="286.02" y2="445.87" style="fill:none;stroke:#263238;stroke-linecap:round;stroke-linejoin:round"></line><line x1="280.4" y1="439.04" x2="280.4" y2="447.07" style="fill:none;stroke:#263238;stroke-linecap:round;stroke-linejoin:round"></line><line x1="271.96" y1="439.24" x2="271.96" y2="445.46" style="fill:none;stroke:#263238;stroke-linecap:round;stroke-linejoin:round"></line><line x1="260.91" y1="443.25" x2="260.91" y2="448.68" style="fill:none;stroke:#263238;stroke-linecap:round;stroke-linejoin:round"></line><line x1="249.06" y1="449.28" x2="249.06" y2="442.45" style="fill:none;stroke:#263238;stroke-linecap:round;stroke-linejoin:round"></line><line x1="213.71" y1="438.23" x2="213.71" y2="441.65" style="fill:none;stroke:#263238;stroke-linecap:round;stroke-linejoin:round"></line><line x1="218.33" y1="447.87" x2="218.33" y2="443.86" style="fill:none;stroke:#263238;stroke-linecap:round;stroke-linejoin:round"></line><line x1="236.61" y1="448.28" x2="236.61" y2="443.46" style="fill:none;stroke:#263238;stroke-linecap:round;stroke-linejoin:round"></line><path d="M213.63,427v9.84c0,1.21,17.63,2.19,39.37,2.19s39.38-1,39.38-2.19V427Z" style="fill:#fff;stroke:#263238;stroke-linecap:round;stroke-linejoin:round"></path><path d="M292.38,427c0,1.2-17.63,2.18-39.38,2.18s-39.37-1-39.37-2.18,17.63-2.19,39.37-2.19S292.38,425.8,292.38,427Z" style="fill:#fff;stroke:#263238;stroke-linecap:round;stroke-linejoin:round"></path><ellipse cx="253" cy="426.73" rx="30.24" ry="1.4" style="fill:#fff;stroke:#263238;stroke-linecap:round;stroke-linejoin:round"></ellipse><line x1="288.45" y1="428.13" x2="288.45" y2="435.76" style="fill:none;stroke:#263238;stroke-linecap:round;stroke-linejoin:round"></line><line x1="282.83" y1="428.93" x2="282.83" y2="436.97" style="fill:none;stroke:#263238;stroke-linecap:round;stroke-linejoin:round"></line><line x1="274.39" y1="429.13" x2="274.39" y2="435.36" style="fill:none;stroke:#263238;stroke-linecap:round;stroke-linejoin:round"></line><line x1="263.34" y1="433.15" x2="263.34" y2="438.57" style="fill:none;stroke:#263238;stroke-linecap:round;stroke-linejoin:round"></line><line x1="251.49" y1="439.17" x2="251.49" y2="432.35" style="fill:none;stroke:#263238;stroke-linecap:round;stroke-linejoin:round"></line><line x1="216.14" y1="428.13" x2="216.14" y2="431.54" style="fill:none;stroke:#263238;stroke-linecap:round;stroke-linejoin:round"></line><line x1="220.76" y1="437.77" x2="220.76" y2="433.75" style="fill:none;stroke:#263238;stroke-linecap:round;stroke-linejoin:round"></line><line x1="239.04" y1="438.17" x2="239.04" y2="433.35" style="fill:none;stroke:#263238;stroke-linecap:round;stroke-linejoin:round"></line><path d="M215,416.9v9.84c0,1.21,17.63,2.19,39.38,2.19s39.37-1,39.37-2.19V416.9Z" style="fill:#fff;stroke:#263238;stroke-linecap:round;stroke-linejoin:round"></path><ellipse cx="254.37" cy="416.9" rx="39.38" ry="2.19" style="fill:#fff;stroke:#263238;stroke-linecap:round;stroke-linejoin:round"></ellipse><path d="M284.61,416.62c0,.78-13.54,1.41-30.24,1.41s-30.25-.63-30.25-1.41,13.54-1.4,30.25-1.4S284.61,415.85,284.61,416.62Z" style="fill:#fff;stroke:#263238;stroke-linecap:round;stroke-linejoin:round"></path><line x1="289.82" y1="418.02" x2="289.82" y2="425.65" style="fill:none;stroke:#263238;stroke-linecap:round;stroke-linejoin:round"></line><line x1="284.19" y1="418.83" x2="284.19" y2="426.86" style="fill:none;stroke:#263238;stroke-linecap:round;stroke-linejoin:round"></line><line x1="275.76" y1="419.03" x2="275.76" y2="425.25" style="fill:none;stroke:#263238;stroke-linecap:round;stroke-linejoin:round"></line><line x1="264.71" y1="423.04" x2="264.71" y2="428.47" style="fill:none;stroke:#263238;stroke-linecap:round;stroke-linejoin:round"></line><line x1="252.86" y1="429.07" x2="252.86" y2="422.24" style="fill:none;stroke:#263238;stroke-linecap:round;stroke-linejoin:round"></line><line x1="217.51" y1="418.02" x2="217.51" y2="421.44" style="fill:none;stroke:#263238;stroke-linecap:round;stroke-linejoin:round"></line><line x1="222.13" y1="427.66" x2="222.13" y2="423.65" style="fill:none;stroke:#263238;stroke-linecap:round;stroke-linejoin:round"></line><line x1="240.41" y1="428.07" x2="240.41" y2="423.24" style="fill:none;stroke:#263238;stroke-linecap:round;stroke-linejoin:round"></line><path d="M213.63,406.79v9.85c0,1.21,17.63,2.18,39.37,2.18s39.38-1,39.38-2.18v-9.85Z" style="fill:#fff;stroke:#263238;stroke-linecap:round;stroke-linejoin:round"></path><ellipse cx="253" cy="406.79" rx="39.38" ry="2.19" style="fill:#fff;stroke:#263238;stroke-linecap:round;stroke-linejoin:round"></ellipse><ellipse cx="253" cy="406.52" rx="30.24" ry="1.4" style="fill:#fff;stroke:#263238;stroke-linecap:round;stroke-linejoin:round"></ellipse><line x1="288.45" y1="407.92" x2="288.45" y2="415.55" style="fill:none;stroke:#263238;stroke-linecap:round;stroke-linejoin:round"></line><line x1="282.83" y1="408.72" x2="282.83" y2="416.75" style="fill:none;stroke:#263238;stroke-linecap:round;stroke-linejoin:round"></line><line x1="274.39" y1="408.92" x2="274.39" y2="415.15" style="fill:none;stroke:#263238;stroke-linecap:round;stroke-linejoin:round"></line><line x1="263.34" y1="412.94" x2="263.34" y2="418.36" style="fill:none;stroke:#263238;stroke-linecap:round;stroke-linejoin:round"></line><line x1="251.49" y1="418.96" x2="251.49" y2="412.13" style="fill:none;stroke:#263238;stroke-linecap:round;stroke-linejoin:round"></line><line x1="216.14" y1="407.92" x2="216.14" y2="411.33" style="fill:none;stroke:#263238;stroke-linecap:round;stroke-linejoin:round"></line><line x1="220.76" y1="417.56" x2="220.76" y2="413.54" style="fill:none;stroke:#263238;stroke-linecap:round;stroke-linejoin:round"></line><line x1="239.04" y1="417.96" x2="239.04" y2="413.14" style="fill:none;stroke:#263238;stroke-linecap:round;stroke-linejoin:round"></line><path d="M215.81,396.69v9.84c0,1.21,17.63,2.19,39.38,2.19s39.37-1,39.37-2.19v-9.84Z" style="fill:#fff;stroke:#263238;stroke-linecap:round;stroke-linejoin:round"></path><ellipse cx="255.19" cy="396.69" rx="39.38" ry="2.19" style="fill:#fff;stroke:#263238;stroke-linecap:round;stroke-linejoin:round"></ellipse><ellipse cx="255.19" cy="396.41" rx="30.24" ry="1.4" style="fill:#fff;stroke:#263238;stroke-linecap:round;stroke-linejoin:round"></ellipse><line x1="290.64" y1="397.81" x2="290.64" y2="405.44" style="fill:none;stroke:#263238;stroke-linecap:round;stroke-linejoin:round"></line><line x1="285.01" y1="398.61" x2="285.01" y2="406.65" style="fill:none;stroke:#263238;stroke-linecap:round;stroke-linejoin:round"></line><line x1="276.58" y1="398.82" x2="276.58" y2="405.04" style="fill:none;stroke:#263238;stroke-linecap:round;stroke-linejoin:round"></line><line x1="265.53" y1="402.83" x2="265.53" y2="408.26" style="fill:none;stroke:#263238;stroke-linecap:round;stroke-linejoin:round"></line><line x1="253.68" y1="408.86" x2="253.68" y2="402.03" style="fill:none;stroke:#263238;stroke-linecap:round;stroke-linejoin:round"></line><line x1="218.33" y1="397.81" x2="218.33" y2="401.23" style="fill:none;stroke:#263238;stroke-linecap:round;stroke-linejoin:round"></line><line x1="222.95" y1="407.45" x2="222.95" y2="403.44" style="fill:none;stroke:#263238;stroke-linecap:round;stroke-linejoin:round"></line><line x1="241.22" y1="407.85" x2="241.22" y2="403.03" style="fill:none;stroke:#263238;stroke-linecap:round;stroke-linejoin:round"></line><path d="M210.62,386.58v9.85c0,1.2,17.63,2.18,39.38,2.18s39.37-1,39.37-2.18v-9.85Z" style="fill:#fff;stroke:#263238;stroke-linecap:round;stroke-linejoin:round"></path><ellipse cx="250" cy="386.58" rx="39.38" ry="2.19" style="fill:#fff;stroke:#263238;stroke-linecap:round;stroke-linejoin:round"></ellipse><path d="M280.24,386.31c0,.77-13.54,1.4-30.24,1.4s-30.25-.63-30.25-1.4,13.54-1.41,30.25-1.41S280.24,385.53,280.24,386.31Z" style="fill:#fff;stroke:#263238;stroke-linecap:round;stroke-linejoin:round"></path><line x1="285.45" y1="387.71" x2="285.45" y2="395.34" style="fill:none;stroke:#263238;stroke-linecap:round;stroke-linejoin:round"></line><line x1="279.82" y1="388.51" x2="279.82" y2="396.54" style="fill:none;stroke:#263238;stroke-linecap:round;stroke-linejoin:round"></line><line x1="271.39" y1="388.71" x2="271.39" y2="394.94" style="fill:none;stroke:#263238;stroke-linecap:round;stroke-linejoin:round"></line><line x1="260.34" y1="392.73" x2="260.34" y2="398.15" style="fill:none;stroke:#263238;stroke-linecap:round;stroke-linejoin:round"></line><line x1="248.49" y1="398.75" x2="248.49" y2="391.92" style="fill:none;stroke:#263238;stroke-linecap:round;stroke-linejoin:round"></line><line x1="213.14" y1="387.71" x2="213.14" y2="391.12" style="fill:none;stroke:#263238;stroke-linecap:round;stroke-linejoin:round"></line><line x1="217.76" y1="397.35" x2="217.76" y2="393.33" style="fill:none;stroke:#263238;stroke-linecap:round;stroke-linejoin:round"></line><line x1="236.04" y1="397.75" x2="236.04" y2="392.93" style="fill:none;stroke:#263238;stroke-linecap:round;stroke-linejoin:round"></line><circle cx="289.96" cy="417.07" r="43.1" transform="translate(-167.93 636.97) rotate(-80.84)" style="fill:#263238;stroke:#263238;stroke-linecap:round;stroke-linejoin:round"></circle><circle cx="287.45" cy="417.07" r="43.1" transform="matrix(0.29, -0.96, 0.96, 0.29, -194.51, 572.92)" style="fill:#fff;stroke:#263238;stroke-linecap:round;stroke-linejoin:round"></circle><circle cx="287.45" cy="417.07" r="37.38" transform="translate(-182.15 606.93) rotate(-77.44)" style="fill:#fff;stroke:#263238;stroke-linecap:round;stroke-linejoin:round"></circle><path d="M298.17,447.33l-2.29-5.89q-6.25,2.08-10.74-.38t-7.69-10l8.57-4.92a25.07,25.07,0,0,0,2.48,4.79,5.85,5.85,0,0,0,2.47,2.2,3.46,3.46,0,0,0,2.55,0c1.12-.43,1.69-1.09,1.74-2a6.31,6.31,0,0,0-.42-2.58,9.33,9.33,0,0,0-3.36-4.49,23.26,23.26,0,0,0-5.45-2.64l-5.64-2a37.46,37.46,0,0,1-4.53-2,14.67,14.67,0,0,1-3.87-3,15.3,15.3,0,0,1-3-5q-2.2-5.65-.21-10.13a14.35,14.35,0,0,1,7.31-7l-2.2-5.65,3-1.18,2.18,5.59a11.69,11.69,0,0,1,6.15-.57,9.84,9.84,0,0,1,4.47,2.23,16.52,16.52,0,0,1,3.12,3.79,34.61,34.61,0,0,1,2.1,4.08l-8.78,4.73c-.6-1.42-1.18-2.63-1.73-3.65a5.89,5.89,0,0,0-1.8-2.15,2.31,2.31,0,0,0-2.3,0,2.51,2.51,0,0,0-1.72,2.1,5.33,5.33,0,0,0,.26,2.78,7.46,7.46,0,0,0,3.25,4.05,33.56,33.56,0,0,0,4.47,2.06l5.42,1.94a38.67,38.67,0,0,1,5.24,2.48,18.53,18.53,0,0,1,4.52,3.59,16.88,16.88,0,0,1,3.3,5.5,13.66,13.66,0,0,1,.94,6.28,11.66,11.66,0,0,1-2.09,5.71,13.65,13.65,0,0,1-5.06,4.27l2.32,5.95Z" style="fill:#263238;stroke:#263238;stroke-linecap:round;stroke-linejoin:round"></path><path d="M297.08,447.33l-2.3-5.89q-6.24,2.08-10.73-.38t-7.7-10l8.58-4.92a24.51,24.51,0,0,0,2.48,4.79,5.78,5.78,0,0,0,2.46,2.2,3.49,3.49,0,0,0,2.56,0c1.11-.43,1.69-1.09,1.73-2a6,6,0,0,0-.42-2.58,9.38,9.38,0,0,0-3.35-4.49,23.45,23.45,0,0,0-5.45-2.64l-5.64-2a36.12,36.12,0,0,1-4.53-2,14.71,14.71,0,0,1-3.88-3,15.66,15.66,0,0,1-3-5q-2.19-5.65-.2-10.13a14.32,14.32,0,0,1,7.31-7l-2.21-5.65,3-1.18L278,391a11.67,11.67,0,0,1,6.15-.57,9.76,9.76,0,0,1,4.46,2.23,16.26,16.26,0,0,1,3.12,3.79,33.3,33.3,0,0,1,2.11,4.08l-8.79,4.73a40.06,40.06,0,0,0-1.73-3.65,5.78,5.78,0,0,0-1.79-2.15,2.33,2.33,0,0,0-2.31,0,2.51,2.51,0,0,0-1.71,2.1,5.33,5.33,0,0,0,.25,2.78,7.52,7.52,0,0,0,3.26,4.05,33.56,33.56,0,0,0,4.47,2.06l5.41,1.94a38.23,38.23,0,0,1,5.25,2.48,18.72,18.72,0,0,1,4.52,3.59,17,17,0,0,1,3.3,5.5,13.66,13.66,0,0,1,.94,6.28,11.67,11.67,0,0,1-2.1,5.71,13.61,13.61,0,0,1-5.05,4.27l2.31,5.95Z" style="fill:#fff;stroke:#263238;stroke-linecap:round;stroke-linejoin:round"></path></g><g id="freepik--character-2--inject-642"><path d="M563.54,309,568,385l5.52,53.12s-2.55.79-2.35,1.77,1.57,6.27,1.57,6.27L566,452.21s-7.25,2.94-7.25,4.11,2.74,2.16,3.92,2.35,11,.59,12.35.2a45.75,45.75,0,0,0,6.27-3.33c.59-.39,6.47-.59,7.25-2s.4-4.31,0-6.08-.78-5.29-.78-5.29a20.83,20.83,0,0,0,0-3.72c-.2-1.57-.39-7.84-.39-9.41s1.88-91,1.88-91l2.69.64,8,97.62s-.59,3.53.59,5.1,3.92,5.88,3.92,5.88,1.18,7.84,5.1,11.36,6.66,1.18,6.86-.78,1.17-5.49.19-7.64-2.15-4.9-2.35-5.49-.78-6.08-.78-6.08S615,433,614.84,431s-1.37-2.94-1.76-7.26S616,353.65,616,353.65l1.88-42.93-54.26-7.22Z" style="fill:#263238;stroke:#263238;stroke-linecap:round;stroke-linejoin:round"></path><path d="M583.63,234.13l-8.31,76.58s4,3.79,13.71,4.3S600.6,315,600.6,315l6-85.1-11.88-4.5Z" style="fill:#fff;stroke:#263238;stroke-linecap:round;stroke-linejoin:round"></path><path d="M566.27,192.3l8.58-4.63s6.92-.95,7.45-.91,9.47,3,9.78,3.9-10.86,5.22-10.86,5.22-4.18,2.52-5.54,3.05-7.18-.64-7.18-.64Z" style="fill:#fff;stroke:#263238;stroke-linecap:round;stroke-linejoin:round"></path><path d="M569.59,193.52a6.43,6.43,0,0,0,4.16-.94c1.82-1.29,3.08-2.1,3.08-2.1L579,190" style="fill:none;stroke:#263238;stroke-linecap:round;stroke-linejoin:round"></path><path d="M559.8,308.15l-.34,5.28a35.93,35.93,0,0,0,6.85,5.13,89,89,0,0,0,9.24,3.62l1.05-7.35Z" style="fill:#001169;stroke:#263238;stroke-linecap:round;stroke-linejoin:round"></path><polygon points="561.65 194.1 566.27 192.3 568.91 201.09 564.58 203.86 561.65 194.1" style="fill:none;stroke:#263238;stroke-linecap:round;stroke-linejoin:round"></polygon><path d="M575,217.6,554,211l11.81-5.85-4.19-11s-27.38,7.64-30.44,9.22-6,1.72-5,4.2,11.88,14.21,22.1,21.64,19.33,14.08,19.33,14.08-9.33,64.11-8.8,65.62,11,6.16,13.73,6.81,4.81,1.22,4.81,1.22l8.59-79.58,2.65-11.85Z" style="fill:#001169;stroke:#263238;stroke-linecap:round;stroke-linejoin:round"></path><line x1="554.03" y1="210.95" x2="542.1" y2="218.11" style="fill:none;stroke:#263238;stroke-linecap:round;stroke-linejoin:round"></line><line x1="565" y1="221.89" x2="567.61" y2="243.24" style="fill:none;stroke:#263238;stroke-linecap:round;stroke-linejoin:round"></line><line x1="561.11" y1="226.85" x2="565.23" y2="237.18" style="fill:none;stroke:#263238;stroke-linecap:round;stroke-linejoin:round"></line><line x1="551.01" y1="213.6" x2="546.21" y2="218.21" style="fill:none;stroke:#263238;stroke-linecap:round;stroke-linejoin:round"></line><polygon points="585.94 237.31 585.48 248.29 590.99 243.21 597.25 248.95 605.61 226.72 601.92 224.99 588.59 225.46 585.94 237.31" style="fill:#fff;stroke:#263238;stroke-linecap:round;stroke-linejoin:round"></polygon><path d="M577.11,192.24s-6.2,8.59-6.88,9.3-2.92,1.45-2.72,2.7,2.21,3,2.21,3,4.16,14.17,5.22,16.12,3.7,9.46,6.94,12.56c2.58,2.47,4.26,2.55,5.34,2.64l1.07.1s1.58,10.06,2.76,9.08,10.82-22.28,10.87-22.74-.84-6.27-.84-6.27,2.79-3.47,2.41-6.14a28.71,28.71,0,0,0-1.25-5.07s-3.14-11.6-6.74-14.71S582.09,188.5,577.11,192.24Z" style="fill:#fff;stroke:#263238;stroke-linecap:round;stroke-linejoin:round"></path><path d="M579,210.26c1.44-.49,12.41-4.33,12.41-4.33s1.6,5,2,6.24,2.14-1.11,2.59-.92.6,5.65,1.39,5.56a2.3,2.3,0,0,0,1.37-.94s-2-3.37-.9-5.5c2-4,4.44-2.86,4.44-2.86s-3.14-11.6-6.74-14.71-13.41-4.3-18.39-.56c0,0-6.2,8.59-6.88,9.3s-2.92,1.45-2.72,2.7,2.21,3,2.21,3S577.55,210.75,579,210.26Z" style="fill:#263238;stroke:#263238;stroke-linecap:round;stroke-linejoin:round"></path><path d="M588.29,238.65s3.15-.49,4-1.5,3.43-5.43,3.43-5.43l-6.23,12.46Z" style="fill:#263238;stroke:#263238;stroke-linecap:round;stroke-linejoin:round"></path><path d="M583.38,229s.77,1.85,2.37,1.57a4.52,4.52,0,0,0,2.53-1.45" style="fill:none;stroke:#263238;stroke-linecap:round;stroke-linejoin:round"></path><line x1="580.5" y1="220.22" x2="574.32" y2="219.15" style="fill:none;stroke:#263238;stroke-linecap:round;stroke-linejoin:round"></line><line x1="585.58" y1="219.53" x2="592.64" y2="217.75" style="fill:none;stroke:#263238;stroke-linecap:round;stroke-linejoin:round"></line><path d="M576.93,222.72a3.76,3.76,0,0,0,3.85.24" style="fill:none;stroke:#263238;stroke-linecap:round;stroke-linejoin:round"></path><path d="M588.06,222.26s2.72,1.08,4.35-.76" style="fill:none;stroke:#263238;stroke-linecap:round;stroke-linejoin:round"></path><line x1="585.74" y1="232.92" x2="588.37" y2="232.74" style="fill:none;stroke:#263238;stroke-linecap:round;stroke-linejoin:round"></line><path d="M615.14,320.54,613,325.66s-2.61,5.55-2.64,6.93-.7,6.82-.61,7.84,1.41.68,1.41.68l-.63,2s-1.36.8-1.14,1.37,1.93,1,2.69.79a14.78,14.78,0,0,0,6.4-3.83c2.06-2.39,5.31-10,5.37-10.73s.93-5.24.93-5.24Z" style="fill:#fff;stroke:#263238;stroke-linecap:round;stroke-linejoin:round"></path><polyline points="611.19 341.11 613.3 335.97 615.07 330.62" style="fill:#fff;stroke:#263238;stroke-linecap:round;stroke-linejoin:round"></polyline><path d="M597,318.65l-.1,5.57s13.4-1.32,18.26-3.68a36.26,36.26,0,0,0,5.86-3.19l.71-5Z" style="fill:#001169;stroke:#263238;stroke-linecap:round;stroke-linejoin:round"></path><path d="M604,226.71s-2,39-4.29,62.7S597,318.65,597,318.65s10.6-1.17,13.47-2.11,4.63-1.31,4.63-1.31l6.63-2.86s7.2-74.4,6.79-75.76a7.19,7.19,0,0,0-2-2.71Z" style="fill:#001169;stroke:#263238;stroke-linecap:round;stroke-linejoin:round"></path><path d="M626.34,236.94s-7.16,16.23-7.4,23.38,3,27,3,27l-7.91,34.88,7.13,3.43,4.81,1.23s14-34.61,13.7-37.29-7.42-47.68-8.46-51a6.75,6.75,0,0,0-4.76-4.68" style="fill:#001169;stroke:#263238;stroke-linecap:round;stroke-linejoin:round"></path></g><g id="freepik--character-1--inject-642"><path d="M152.57,269.9s10.13-10.42,11.27-13.31,1-11.26,1.5-13.51,7.28-9.6,7.31-8.3-.42,2.13-1.31,3.64l-2,3.39a37.71,37.71,0,0,1,3.21-2.82c1-.7,4.7-2,4.75-1.07s-2.27,2.12-2.27,2.12l-4.07,3.8a8.76,8.76,0,0,1,4.52-2c2.54-.21,3.33.26,2.67.87a12.25,12.25,0,0,1-2.87,1.39,25.36,25.36,0,0,0-3.1,2.55,37.7,37.7,0,0,1,5.06,0c1.61.22.38,1.36-.45,1.71a44.89,44.89,0,0,1-4.47,1s.61,3.29-.27,4.88-1.75,3-1.75,3-8.66,17.38-14.09,23.89-11.72,8.18-12,7.67,4.86-11.34,5.75-13.23S152.57,269.9,152.57,269.9Z" style="fill:#fff;stroke:#263238;stroke-linecap:round;stroke-linejoin:round"></path><path d="M163.84,256.59s.46-6.94,1-8.1,5.88-7.73,6.2-6.82-.7,3.23-1.48,4.48-1.19,2.06-1.19,2.06,1.72,2.19,1.44,3.89a15.49,15.49,0,0,1-2.12,4.38" style="fill:#fff;stroke:#263238;stroke-linecap:round;stroke-linejoin:round"></path><path d="M142.45,371.47A73,73,0,0,1,140.56,385c-1.74,7.32-21.67,60.75-21.67,60.75s2.72,2.34,4.22,3.9,10.09,3.44,10,5.16-7.85,2.71-9.77,2.19a25.56,25.56,0,0,0-9.56-.31c-2.09.59-7.11.46-5.74-4.54s2.81-7,4.48-12,11.87-53.43,11.87-53.43l.75-15.46Z" style="fill:#fff;stroke:#263238;stroke-linecap:round;stroke-linejoin:round"></path><path d="M133.15,454.84c0-1.09-3.42-2.25-6.33-3.34a1.07,1.07,0,0,0-.21.13c-1.42,1.08-4.52,1.39-9.59.62-4.09-.63-7.38-1.35-8.49-1.61-.15.49-.3,1-.45,1.54-1.37,5,3.65,5.13,5.74,4.54a25.56,25.56,0,0,1,9.56.31C125.3,457.55,133.11,456.56,133.15,454.84Z" style="fill:#001169;stroke:#263238;stroke-linecap:round;stroke-linejoin:round"></path><path d="M114.66,368.56a48.6,48.6,0,0,1,0,9.11c-.5,4-3.7,9.65-2.74,18.62s10.94,44.69,11.18,47,.18,10.95.14,12.49,1.63,2.32,2.87,2.16a58.77,58.77,0,0,1,7.08.62c1.38.15,10.93.93,12.33.31s3-2,1.93-2.78-8.82-4.78-12.12-8.33-4.33-5.55-4.47-6.17-1.33-29.64-1.25-37.83,2.46-28.66,2.46-28.66l.89-2.45Z" style="fill:#fff;stroke:#263238;stroke-linecap:round;stroke-linejoin:round"></path><path d="M147.47,456.1c-.86-.62-6.08-3.35-9.8-6.25l-1.4,3.78-13-3.57c0,2.56,0,5,0,5.73-.05,1.55,1.63,2.32,2.87,2.16a59,59,0,0,1,7.08.62c1.38.15,10.93.93,12.33.31S148.53,456.87,147.47,456.1Z" style="fill:#001169;stroke:#263238;stroke-linecap:round;stroke-linejoin:round"></path><path d="M134.5,234.28s-8.33,4-12.75,11.39-5.88,24.06-6.12,29-2.57,12.37-5.35,20S98.54,319.4,96.45,337.83s-4.52,32.24-4.52,32.24l6.74,1.57-.07,1.54s22.77,1.81,35.56,1.09a132.54,132.54,0,0,0,24.36-3.87l.12-2.53s2.69-.93,4.26-1.67,3-1.58,3-1.58-4.26-21.1-9.19-37.37-13.62-32.3-13.81-33,4.42-9.58,4.78-10.23,6.61-5,7.13-9-4.25-21.21-4.25-21.21-3.66-10.85-6.8-14.11S137.05,233.79,134.5,234.28Z" style="fill:#001169;stroke:#263238;stroke-linecap:round;stroke-linejoin:round"></path><line x1="128.76" y1="283.09" x2="142.74" y2="280.03" style="fill:none;stroke:#263238;stroke-miterlimit:10"></line><line x1="134.26" y1="283.8" x2="142.63" y2="282.2" style="fill:none;stroke:#263238;stroke-miterlimit:10"></line><path d="M99.62,342.19c.15-1.65.32-3.24.53-4.72" style="fill:none;stroke:#263238;stroke-miterlimit:10"></path><path d="M98.72,369.86s-.18-13,.64-24.53" style="fill:none;stroke:#263238;stroke-miterlimit:10"></path><path d="M153.74,331.72c-.52-2.56-1.09-5.1-1.71-7.56" style="fill:none;stroke:#263238;stroke-miterlimit:10"></path><path d="M158.29,362.44c-.57-5.64-1.89-17-4.09-28.38" style="fill:none;stroke:#263238;stroke-miterlimit:10"></path><path d="M158.64,366.09s0-.58-.14-1.63" style="fill:none;stroke:#263238;stroke-miterlimit:10"></path><path d="M152.36,198.7s3.41,2.28,4.37,5.27,1.53,7,2.59,7.75,5.41,1.88,5.24,3.19-2.81,3.57-2.81,3.57-.52,8.57-.71,10.1-3.08,2.36-3.74,2.34l-6.59,0a67.48,67.48,0,0,0-1.31,11.3c-.19,6.27,1.89,15.44,1.89,15.44l-4.26-.42s-4.5-13.85-6.95-17.75a13.43,13.43,0,0,0-5.58-5.18s2.9-3.23,2.52-6.76-2.29-4.89-2.29-4.89-4.75-1.75-1.3-11.9S148,197.4,152.36,198.7Z" style="fill:#fff;stroke:#263238;stroke-linecap:round;stroke-linejoin:round"></path><path d="M129.25,199.42a12.39,12.39,0,0,0-10-1.32,14.93,14.93,0,0,0-9.71,16.73c1.47,8.39,8.83,12.95,9.7,15.5a11.8,11.8,0,0,1,.84,3.2s.69-.75,3.59-6.19.74-15.49,1.71-19.65A27.45,27.45,0,0,1,129.25,199.42Z" style="fill:#263238;stroke:#263238;stroke-linecap:round;stroke-linejoin:round"></path><path d="M141.46,217.5a5.21,5.21,0,0,0,1.14-3.06c-.16-1.43-.92-3.87,1.82-6s7.52-5.56,9-9,.83-5.81-.59-6.06-7.17.5-9.73,1.22-12.55.5-16.22,8.12-2.36,12.7,0,16.05a28.4,28.4,0,0,0,9.32,7.46c1.4.47,2.58-1,3.64-2.67S141.46,217.5,141.46,217.5Z" style="fill:#263238;stroke:#263238;stroke-linecap:round;stroke-linejoin:round"></path><path d="M142.29,218.61s-2.89-4-4.57-3.39-2.58,3.46-1.37,5.8,4.49,2.51,5.43,1.32" style="fill:#fff;stroke:#263238;stroke-linecap:round;stroke-linejoin:round"></path><path d="M156.33,211.73c.17.93-.08,1.75-.56,1.85s-1-.57-1.17-1.49.09-1.75.57-1.84S156.17,210.81,156.33,211.73Z" style="fill:#263238"></path><path d="M152.06,209.7a4.44,4.44,0,0,1,3.54-2.79" style="fill:none;stroke:#263238;stroke-linecap:round;stroke-linejoin:round"></path><path d="M160.58,222.2c0,.6-.27,1.09-.55,1.08s-.47-.5-.44-1.11.27-1.09.55-1.08S160.61,221.59,160.58,222.2Z" style="fill:#263238;stroke:#263238;stroke-linecap:round;stroke-linejoin:round"></path><path d="M150.71,230.89a11.48,11.48,0,0,1-3.25-1.06,13,13,0,0,1-2.86-2.26s1.69,3.89,2.85,4.9a10.79,10.79,0,0,0,2.45,1.59Z" style="fill:#263238;stroke:#263238;stroke-linecap:round;stroke-linejoin:round"></path><path d="M134.85,236.05s-3.12-1.39-7.55,1.71-16.11,26.49-16.11,26.49l11.07,9.8,10.58-14.29" style="fill:#001169;stroke:#263238;stroke-linecap:round;stroke-linejoin:round"></path><path d="M111.19,264.25s-9.07,19.38-10.51,26.49-5.84,27.92-6.92,29.77-6.73,5.13-8.14,4.77-3.83-.41-3.54.48,2.49.82,2.49.82-2.35.83-3.58,1.13-.82,1.09.05,1.32a8.59,8.59,0,0,0,3.1-.48s-4,1.67-3.73,2.23.85.46,2.31-.06,4.46-1.33,4.46-1.33-2.86,2.35-3.56,3.11.12,2.2,1.5.91,4.22-3.32,5.48-4.28,4.81-1.77,4.81-1.77-2.18,4.24-2.26,5.78.24,2,.91,1.67,1.17-1.51,2-3.47,2.93-3.79,3.15-6.2.26-5.28.53-6.48,8.62-19.28,10.88-25.06,11.6-19.55,11.6-19.55Z" style="fill:#fff;stroke:#263238;stroke-linecap:round;stroke-linejoin:round"></path><line x1="84.14" y1="328.55" x2="86.07" y2="327.84" style="fill:none;stroke:#263238;stroke-linecap:round;stroke-linejoin:round"></line></g></svg>
