<svg xmlns="http://www.w3.org/2000/svg" viewBox="0 0 500 500"><g id="freepik--Floor--inject-179"><ellipse id="freepik--floor--inject-179" cx="250" cy="363.89" rx="225.48" ry="130.18" style="fill:#f5f5f5"></ellipse></g><g id="freepik--Shadows--inject-179"><ellipse id="freepik--Shadow--inject-179" cx="219.02" cy="421.54" rx="53.15" ry="30.68" style="fill:#e0e0e0"></ellipse><polygon id="freepik--shadow--inject-179" points="150.11 462.11 40.66 398.92 248.35 279 357.8 342.2 150.11 462.11" style="fill:#e0e0e0"></polygon><polygon id="freepik--shadow--inject-179" points="422.32 387.96 467.92 361.63 356 297.01 310.4 323.34 422.32 387.96" style="fill:#e0e0e0"></polygon><polygon id="freepik--shadow--inject-179" points="375.88 452.94 416.32 429.59 363.7 399.17 323.26 422.52 375.88 452.94" style="fill:#e0e0e0"></polygon></g><g id="freepik--banknotes-1--inject-179"><g id="freepik--Money--inject-179"><polygon points="323.61 96.56 323.62 324.04 422.12 380.91 422.11 153.43 323.61 96.56" style="fill:#92E3A9"></polygon><polygon points="323.61 96.56 323.62 324.04 422.12 380.91 422.11 153.43 323.61 96.56" style="opacity:0.2"></polygon><path d="M416.94,371.93V156.42l-88.14-50.89V321Zm-2.6-4.49-82.95-47.89V110l82.94,47.89Z" style="opacity:0.2"></path><g style="opacity:0.2"><path d="M396.53,220.82c6.71,11.63,10.92,25.11,10.92,37.37h0c0,11.93-4.09,21.14-11.22,25.25-6.53,3.78-15,3.05-23.8-2-18.83-10.87-34.14-38.74-34.14-62.13,0-11.93,4.09-21.14,11.21-25.25,6.54-3.77,15-3.05,23.81,2S390.44,210.26,396.53,220.82Zm-45.82,35c5.94,10.28,13.88,19.07,22.6,24.1,8.25,4.76,16.08,5.49,22,2.05,6.57-3.8,10.33-12.45,10.33-23.73h0c0-22.83-14.91-50-33.25-60.6-8.25-4.76-16.08-5.49-22-2-6.57,3.79-10.34,12.44-10.34,23.72C340.05,231.25,344.16,244.42,350.71,255.77Z"></path></g><g style="opacity:0.8"><path d="M391,224c6.38,11.05,10,23.51,10,34.19,0,9.59-2.93,16.78-8,19.73-4.47,2.58-10.66,1.86-17.42-2.05-7.71-4.45-15.14-12.41-20.91-22.41-6.38-11.05-10-23.51-10-34.18,0-9.6,2.92-16.79,8-19.74,4.48-2.58,10.67-1.85,17.43,2.05C377.83,206,385.25,214,391,224Z" style="fill:#92E3A9"></path></g><path d="M410.41,172.16l-.17,62.63-1.68-4a92.89,92.89,0,0,0-5.19-10.49c-7.09-12.26-18.88-22.73-27.43-27.67-9.58-5.53-23-9-31.35-4.13a23.35,23.35,0,0,0-7.32,6.75l-1.6,2.27.16-68.57,6.51,3.75a2.31,2.31,0,0,0,3.86-2.23v-7.52L400,154.2v6.49a10.53,10.53,0,0,0,4.74,8.23Z" style="fill:#92E3A9;opacity:0.8"></path><g style="opacity:0.4"><path d="M379.45,162.51a18.46,18.46,0,0,1,2.61,8.93c0,3-1.06,5.33-2.92,6.4s-3.91.83-6.15-.47c-4.52-2.61-8.2-9.29-8.2-14.88,0-3,1.06-5.33,2.92-6.4s3.91-.83,6.16.47A16.16,16.16,0,0,1,379.45,162.51Z" style="fill:#fff"></path></g><path d="M409.94,279.9l.08,68.3-6.51-3.76a2.31,2.31,0,0,0-3.86,2.23v7.52l-53.56-31.34v-6.49a10.64,10.64,0,0,0-4.74-8.21l-5.63-3.24-.08-62.47,1.7,4.08a93.07,93.07,0,0,0,5.2,10.5C349,268.13,360,279.46,370,285.22c12.47,7.2,22.32,8.82,29.27,4.8a33.7,33.7,0,0,0,9.12-7.89Z" style="fill:#92E3A9"></path><g style="opacity:0.4"><path d="M379.7,305.52a18.57,18.57,0,0,1,2.61,8.93h0c0,3-1.06,5.33-2.92,6.4s-3.91.83-6.16-.47c-4.52-2.61-8.19-9.28-8.19-14.88,0-3,1.06-5.33,2.92-6.4s3.91-.83,6.16.47A16.24,16.24,0,0,1,379.7,305.52Z" style="fill:#fff"></path></g><path d="M422.11,251.31s.57-73.46-2.21-96.51c-30.17-18.18-60.07-35.58-93.91-53.9l-2.38,93.55Z" style="opacity:0.15"></path><polygon points="323.61 96.56 348.47 82.21 446.97 139.08 422.11 153.43 323.61 96.56" style="fill:#92E3A9"></polygon><polygon points="323.61 96.56 348.47 82.21 446.97 139.08 422.11 153.43 323.61 96.56" style="fill:#fff;opacity:0.4"></polygon><g style="opacity:0.5"><polygon points="429.2 149.33 398.67 131.05 430.46 148.61 429.2 149.33" style="fill:#92E3A9"></polygon><polygon points="335.93 89.45 346.82 95.13 336.98 88.84 335.93 89.45" style="fill:#92E3A9"></polygon><polygon points="340.88 86.59 393.47 116.08 342.4 85.71 340.88 86.59" style="fill:#92E3A9"></polygon><polygon points="434.14 146.49 383.11 116.08 435.77 145.55 434.14 146.49" style="fill:#92E3A9"></polygon></g><polygon points="446.97 139.08 446.97 366.56 422.12 380.91 422.11 153.43 446.97 139.08" style="fill:#92E3A9"></polygon><polygon points="446.97 139.08 446.97 366.56 422.12 380.91 422.11 153.43 446.97 139.08" style="fill:#fff;opacity:0.2"></polygon><g style="opacity:0.8"><polygon points="429.2 149.33 429.77 160.99 430.46 148.61 429.2 149.33" style="fill:#92E3A9"></polygon><polygon points="434.14 146.49 434.97 206.2 435.77 145.55 434.14 146.49" style="fill:#92E3A9"></polygon><polygon points="434.35 373.85 434.96 331.59 435.57 373.14 434.35 373.85" style="fill:#92E3A9"></polygon><polygon points="439.56 370.84 440.14 346.56 440.72 370.17 439.56 370.84" style="fill:#92E3A9"></polygon></g><path d="M422.11,251.31s0-.48-.09-13.21c-.25-17.86-1.09-59.28-4.41-82.08a553.52,553.52,0,0,0-107.54-52.24c7.35,29.91,12.81,59.93,13.55,90.7Z" style="fill:#92E3A9"></path><path d="M422.11,251.31s0-.48-.09-13.21c-.25-17.86-1.09-59.28-4.41-82.08a553.52,553.52,0,0,0-107.54-52.24c7.35,29.91,12.81,59.93,13.55,90.7Z" style="opacity:0.1"></path><path d="M416.91,248.31c0-30.27-.25-60.23-4.26-90.29-29.76-18.48-63.22-35.23-95-46.67,8,28.14,11.1,56.92,11.15,86.11l2.62,1.43a369.49,369.49,0,0,0-10.21-84C351,127,382.38,141.84,410.48,159.42c3.88,29.11,3.92,58.1,3.86,87.41C415.21,247.32,416.05,247.83,416.91,248.31Z" style="opacity:0.2"></path><g style="opacity:0.2"><path d="M405.14,241.52c-1.22-5.63-3.15-12.06-9.43-22.92A60.94,60.94,0,0,0,375.46,197c-8.79-5.48-14.7-7.11-23.54-4.17-5.26,1.75-9,7.71-11,11.6l1.54.88c1.56-3.15,4.78-9.07,10.09-10.82,8.36-2.76,15.1-.22,22.51,4.71,12.52,8.33,22.5,23.11,27.93,41Z"></path></g><g style="opacity:0.5"><path d="M397,236.81a83.11,83.11,0,0,0-5.51-12.37C385,213.6,379,207.59,371.42,203c-6.87-4.18-11.79-6.14-18.38-3.61-2.78,1.07-5.73,5.32-6.57,8.32Z" style="fill:#92E3A9"></path></g><path d="M410.29,234.73c.67-20.63,1.23-41.17-1.49-61.71a24.55,24.55,0,0,1-5.58-3.31,17,17,0,0,1-5.69-8.29,23,23,0,0,1-.95-6.15c-19.33-12.9-38.5-19.66-57.34-28.34.55,2.33.82,3.68,1.11,5.6.2,1.3.51,2.8-.28,3.52-1,.89-2.27.3-3.63-.28a70.61,70.61,0,0,1-6.48-3.21c5.12,22.47,5.85,41.78,5.79,64.75,0,0,.51-.82,1.84-2.55a22.51,22.51,0,0,1,7.52-5.89c10.89-5.43,21.66-3,33,3.87,10.12,6.09,17.77,15.79,24.68,26.13a57.12,57.12,0,0,1,5.67,10.42A42.36,42.36,0,0,1,410.29,234.73Z" style="fill:#92E3A9"></path><g style="opacity:0.4"><path d="M378.15,177.45c2.33-1.27,3.16-3,2.88-5.7a20,20,0,0,0-3-8.6c-1.61-2.25-3.17-4.34-5.43-5.52s-4.61-2-6.71-.48-2.42,4.91-2,7.74c.69,4.53,2.26,7.58,6.55,11C372.53,177.56,376.28,178.46,378.15,177.45Z" style="fill:#fff"></path></g><polygon points="320.17 192.47 422.11 251.31 422.12 287.22 320.17 228.38 320.17 192.47" style="fill:#fafafa"></polygon><polygon points="422.12 287.22 448.79 271.82 448.79 235.91 422.11 251.31 422.12 287.22" style="fill:#ebebeb"></polygon><polygon points="448.79 235.91 446.97 234.86 446.97 236.96 448.79 235.91" style="fill:#e0e0e0"></polygon><polygon points="320.17 192.47 323.5 190.55 323.61 194.46 320.17 192.47" style="fill:#e0e0e0"></polygon><g style="opacity:0.30000000000000004"><polygon points="446.96 234.87 422.12 249.21 422.11 251.31 446.96 236.97 446.96 234.87"></polygon></g><g style="opacity:0.2"><polygon points="422.12 249.21 323.56 192.31 323.61 194.46 422.11 251.31 422.12 249.21"></polygon></g><polygon points="320.17 196.34 422.11 255.2 422.11 258.18 320.18 199.33 320.17 196.34" style="fill:#455a64"></polygon><polygon points="320.18 221.49 422.12 280.35 422.12 283.34 320.19 224.48 320.18 221.49" style="fill:#455a64"></polygon><polygon points="422.11 255.2 448.79 239.79 448.79 242.78 422.11 258.18 422.11 255.2" style="fill:#263238"></polygon><polygon points="422.12 280.35 448.79 264.95 448.79 267.95 422.12 283.34 422.12 280.35" style="fill:#263238"></polygon></g><g id="freepik--money--inject-179"><polygon points="41.48 362.95 238.49 249.22 336.99 306.09 139.98 419.82 41.48 362.95" style="fill:#92E3A9"></polygon><polygon points="41.48 362.95 238.49 249.22 336.99 306.09 139.98 419.82 41.48 362.95" style="fill:#fff;opacity:0.4"></polygon><path d="M238.49,255.2,51.84,363,140,413.84,326.62,306.09ZM140,410.84,57,363,238.49,258.2l82.94,47.89Z" style="fill:#92E3A9"></path><path d="M152.5,356.24c-8.82-5.09-13.67-12.05-13.67-19.59,0-8.23,5.93-16.38,16.26-22.34,20.26-11.7,52-12.37,70.87-1.5,8.82,5.09,13.68,12.05,13.68,19.59,0,8.23-5.93,16.38-16.27,22.34h0C212.76,360.87,199,364,185.55,364,173.36,364,161.46,361.41,152.5,356.24ZM156,315.83c-9.78,5.65-15.39,13.23-15.39,20.82,0,6.88,4.55,13.3,12.8,18.06,18.33,10.59,49.33,9.92,69.1-1.49h0c9.78-5.65,15.38-13.24,15.38-20.82,0-6.88-4.54-13.3-12.79-18.06-8.72-5-20.3-7.53-32.17-7.53C179.81,306.81,166.35,309.85,156,315.83Z" style="fill:#92E3A9"></path><g style="opacity:0.5"><path d="M155.69,350.71c-6.76-3.9-10.48-8.89-10.48-14.06,0-5.89,4.76-12,13.08-16.82,9.24-5.34,21.86-8.4,34.62-8.4,11.55,0,22.15,2.45,29.86,6.9,6.76,3.91,10.49,8.9,10.49,14.07,0,5.89-4.77,12-13.08,16.82-9.24,5.34-21.86,8.4-34.62,8.4C174,357.62,163.4,355.16,155.69,350.71Z" style="fill:#92E3A9"></path></g><path d="M144.73,397.06a10.56,10.56,0,0,0-9.5,0l-5.62,3.24-54-31,6.51-3.75a2.31,2.31,0,0,0,0-4.46l-6.51-3.76,59.31-34.43-1.16,2.53a23.25,23.25,0,0,0-2.19,9.71c0,9.65,9.67,19.55,19.25,25.08,8.55,4.94,23.52,9.92,37.68,9.92a91,91,0,0,0,11.68-.75l4.34-.55-54.16,31.45Z" style="fill:#92E3A9;opacity:0.5"></path><g style="opacity:0.4"><path d="M118.57,376.48c-2.25-1.3-3.49-3.11-3.49-5.1s1.49-4.23,4.08-5.73c4.85-2.8,12.47-2.95,17-.34,2.25,1.29,3.49,3.1,3.49,5.09,0,2.15-1.49,4.23-4.09,5.73a18.42,18.42,0,0,1-9,2.21A16.23,16.23,0,0,1,118.57,376.48Z" style="fill:#fff"></path></g><path d="M244.56,343.55a33.75,33.75,0,0,0,2.28-11.84c0-8-6.33-15.75-18.8-22.95-10-5.77-25.3-9.64-38.13-9.64a92.42,92.42,0,0,0-11.69.74l-4.39.57L228,269.27l5.62,3.25a10.68,10.68,0,0,0,9.48,0l5.62-3.25L302.62,300l-6.52,3.77a2.31,2.31,0,0,0,0,4.46l6.51,3.75-59.19,34.09Z" style="fill:#92E3A9;opacity:0.5"></path><g style="opacity:0.4"><path d="M242.54,305.19c-2.24-1.3-3.48-3.11-3.48-5.1,0-2.15,1.49-4.23,4.08-5.73,4.85-2.8,12.47-2.95,17-.35,2.25,1.3,3.48,3.11,3.48,5.1,0,2.15-1.48,4.23-4.08,5.73h0a18.48,18.48,0,0,1-9,2.21A16.3,16.3,0,0,1,242.54,305.19Z" style="fill:#fff"></path></g><polygon points="41.48 362.95 41.48 391.65 139.98 448.52 139.98 419.82 41.48 362.95" style="fill:#92E3A9"></polygon><polygon points="41.48 362.95 41.48 391.65 139.98 448.52 139.98 419.82 41.48 362.95" style="opacity:0.2"></polygon><g style="opacity:0.30000000000000004"><polygon points="139.98 428.01 108.88 410.71 139.98 429.46 139.98 428.01"></polygon><polygon points="41.48 377.18 51.85 383.77 41.48 378.39 41.48 377.18"></polygon><polygon points="41.48 382.88 93.32 413.69 41.48 384.65 41.48 382.88"></polygon><polygon points="139.98 433.71 88.14 404.72 139.98 435.59 139.98 433.71"></polygon></g><polygon points="139.98 448.52 336.99 334.79 336.99 306.09 139.98 419.82 139.98 448.52" style="fill:#92E3A9"></polygon><polygon points="139.98 448.52 336.99 334.79 336.99 306.09 139.98 419.82 139.98 448.52" style="fill:#fff;opacity:0.2"></polygon><polygon points="139.98 428.01 150.36 422.67 139.98 429.46 139.98 428.01" style="fill:#92E3A9"></polygon><polygon points="139.98 433.71 192.11 404.58 139.98 435.59 139.98 433.71" style="fill:#92E3A9"></polygon><polygon points="336.99 320.21 300.69 341.87 336.99 321.62 336.99 320.21" style="fill:#92E3A9"></polygon><polygon points="336.99 326.23 316.25 338.87 336.99 327.57 336.99 326.23" style="fill:#92E3A9"></polygon><polygon points="122.82 312.02 224.75 370.88 255.85 352.93 153.93 294.06 122.82 312.02" style="fill:#fafafa"></polygon><polygon points="255.85 352.93 255.85 383.73 224.75 401.69 224.75 370.88 255.85 352.93" style="fill:#ebebeb"></polygon><polygon points="224.75 401.69 222.93 400.63 224.75 399.58 224.75 401.69" style="fill:#e0e0e0"></polygon><polygon points="122.82 312.02 122.82 316 126.26 314.01 122.82 312.02" style="fill:#e0e0e0"></polygon><g style="opacity:0.30000000000000004"><polygon points="222.93 400.62 222.93 371.94 224.75 370.88 224.75 399.57 222.93 400.62"></polygon></g><g style="opacity:0.2"><polygon points="222.93 371.94 124.44 315.06 126.26 314.01 224.75 370.88 222.93 371.94"></polygon></g><polygon points="126.17 310.09 228.12 368.94 230.7 367.44 128.77 308.6 126.17 310.09" style="fill:#455a64"></polygon><polygon points="147.96 297.52 249.9 356.37 252.49 354.87 150.56 296.03 147.96 297.52" style="fill:#455a64"></polygon><polygon points="228.12 368.94 228.12 399.74 230.7 398.25 230.7 367.44 228.12 368.94" style="fill:#263238"></polygon><polygon points="249.9 356.37 249.9 387.17 252.5 385.67 252.49 354.87 249.9 356.37" style="fill:#263238"></polygon></g><g id="freepik--money--inject-179"><polygon id="freepik--shadow--inject-179" points="336.99 306.09 336.99 313.54 148.31 422.47 148.31 415.01 139.98 419.82 139.98 448.52 41.48 391.65 41.48 362.95 234.46 251.54 336.99 306.09" style="opacity:0.15"></polygon><polygon points="52.28 328.06 249.28 214.32 347.78 271.19 150.78 384.92 52.28 328.06" style="fill:#92E3A9"></polygon><polygon points="52.28 328.06 249.28 214.32 347.78 271.19 150.78 384.92 52.28 328.06" style="fill:#fff;opacity:0.4"></polygon><path d="M249.28,220.31,62.64,328.05l88.14,50.89L337.42,271.19ZM150.77,375.94,67.83,328.05,249.28,223.3l83,47.89Z" style="fill:#92E3A9"></path><path d="M163.3,321.34c-8.82-5.09-13.68-12-13.68-19.59,0-8.23,5.93-16.37,16.27-22.34,20.25-11.7,52.05-12.37,70.87-1.5,8.82,5.09,13.68,12,13.68,19.59,0,8.23-5.93,16.38-16.27,22.34h0c-10.62,6.13-24.4,9.23-37.82,9.23C184.16,329.07,172.26,326.51,163.3,321.34Zm3.47-40.41c-9.77,5.65-15.38,13.24-15.38,20.82,0,6.89,4.54,13.3,12.79,18.07,18.34,10.58,49.34,9.91,69.11-1.5h0c9.77-5.65,15.38-13.23,15.38-20.82,0-6.88-4.54-13.3-12.79-18.06-8.72-5-20.3-7.52-32.17-7.52C190.6,271.92,177.14,275,166.77,280.93Z" style="fill:#92E3A9"></path><g style="opacity:0.5"><path d="M166.49,315.81c-6.76-3.9-10.48-8.89-10.48-14.06,0-5.89,4.76-12,13.07-16.82,9.25-5.34,21.87-8.4,34.63-8.4,11.54,0,22.15,2.45,29.86,6.91,6.76,3.9,10.48,8.9,10.48,14.06,0,5.89-4.76,12-13.07,16.82-9.25,5.34-21.87,8.4-34.62,8.4C184.81,322.72,174.2,320.27,166.49,315.81Z" style="fill:#92E3A9"></path></g><path d="M155.53,362.17a10.53,10.53,0,0,0-9.5,0l-5.62,3.24-54-31,6.51-3.75a2.84,2.84,0,0,0,1.72-2.24c0-.79-.61-1.58-1.72-2.22l-6.5-3.76L145.71,288l-1.16,2.53a23.12,23.12,0,0,0-2.2,9.72c0,9.65,9.67,19.54,19.26,25.07,8.55,4.94,23.51,9.92,37.67,9.92a92.62,92.62,0,0,0,11.68-.74l4.34-.56-54.15,31.45Z" style="fill:#92E3A9;opacity:0.5"></path><g style="opacity:0.4"><path d="M129.37,341.58c-2.25-1.3-3.49-3.11-3.49-5.1,0-2.14,1.49-4.23,4.08-5.73,4.85-2.8,12.47-2.95,17-.34,2.25,1.3,3.48,3.11,3.48,5.09,0,2.15-1.48,4.24-4.08,5.73a18.45,18.45,0,0,1-9,2.21A16.23,16.23,0,0,1,129.37,341.58Z" style="fill:#fff"></path></g><path d="M255.36,308.65a34,34,0,0,0,2.27-11.84c0-8-6.32-15.75-18.79-22.95-10-5.76-25.3-9.64-38.13-9.64A90.75,90.75,0,0,0,189,265l-4.38.56,54.14-31.16,5.62,3.25a10.68,10.68,0,0,0,9.48,0l5.62-3.26,53.92,30.71-6.51,3.78a2.79,2.79,0,0,0-1.7,2.22,2.83,2.83,0,0,0,1.7,2.23l6.51,3.75-59.19,34.09Z" style="fill:#92E3A9;opacity:0.5"></path><g style="opacity:0.4"><path d="M253.34,270.29c-2.25-1.3-3.48-3.11-3.48-5.1s1.48-4.23,4.08-5.73c4.85-2.8,12.47-2.95,17-.34,2.25,1.29,3.49,3.1,3.49,5.09,0,2.15-1.49,4.24-4.08,5.73h0a18.49,18.49,0,0,1-9.05,2.21A16.29,16.29,0,0,1,253.34,270.29Z" style="fill:#fff"></path></g><polygon points="52.28 328.06 52.28 356.75 150.78 413.62 150.78 384.92 52.28 328.06" style="fill:#92E3A9"></polygon><polygon points="52.28 328.06 52.28 356.75 150.78 413.62 150.78 384.92 52.28 328.06" style="opacity:0.2"></polygon><g style="opacity:0.30000000000000004"><polygon points="150.78 393.11 119.67 375.81 150.78 394.57 150.78 393.11"></polygon><polygon points="52.28 342.28 62.65 348.87 52.28 343.49 52.28 342.28"></polygon><polygon points="52.28 347.99 104.11 378.8 52.28 349.75 52.28 347.99"></polygon><polygon points="150.78 398.81 98.94 369.82 150.78 400.69 150.78 398.81"></polygon></g><polygon points="150.78 413.62 347.78 299.89 347.78 271.19 150.78 384.92 150.78 413.62" style="fill:#92E3A9"></polygon><polygon points="150.78 413.62 347.78 299.89 347.78 271.19 150.78 384.92 150.78 413.62" style="fill:#fff;opacity:0.2"></polygon><polygon points="150.78 393.11 161.16 387.77 150.78 394.57 150.78 393.11" style="fill:#92E3A9"></polygon><polygon points="150.78 398.81 202.91 369.68 150.78 400.69 150.78 398.81" style="fill:#92E3A9"></polygon><polygon points="347.78 285.31 311.49 306.97 347.78 286.72 347.78 285.31" style="fill:#92E3A9"></polygon><polygon points="347.79 291.33 327.05 303.97 347.78 292.67 347.79 291.33" style="fill:#92E3A9"></polygon><polygon points="133.62 277.12 235.55 335.98 266.65 318.03 164.72 259.16 133.62 277.12" style="fill:#fafafa"></polygon><polygon points="266.65 318.03 266.65 348.84 235.55 366.79 235.55 335.98 266.65 318.03" style="fill:#ebebeb"></polygon><polygon points="235.55 366.79 233.73 365.74 235.55 364.68 235.55 366.79" style="fill:#e0e0e0"></polygon><polygon points="133.62 277.12 133.62 281.1 137.06 279.11 133.62 277.12" style="fill:#e0e0e0"></polygon><g style="opacity:0.30000000000000004"><polygon points="233.73 365.72 233.73 337.04 235.55 335.98 235.55 364.67 233.73 365.72"></polygon></g><g style="opacity:0.2"><polygon points="233.73 337.04 135.24 280.16 137.06 279.11 235.55 335.98 233.73 337.04"></polygon></g><polygon points="136.97 275.19 238.91 334.04 241.5 332.55 139.56 273.7 136.97 275.19" style="fill:#455a64"></polygon><polygon points="158.75 262.62 260.7 321.47 263.29 319.98 161.35 261.13 158.75 262.62" style="fill:#455a64"></polygon><polygon points="238.91 334.04 238.91 364.85 241.5 363.35 241.5 332.55 238.91 334.04" style="fill:#263238"></polygon><polygon points="260.7 321.47 260.7 352.27 263.3 350.77 263.29 319.98 260.7 321.47" style="fill:#263238"></polygon></g><g id="freepik--money--inject-179"><polygon id="freepik--shadow--inject-179" points="333.08 267.35 140.24 378.69 140.24 407.54 52.28 356.75 52.28 328.06 245.26 216.64 333.08 267.35" style="opacity:0.15"></polygon><polygon points="31.09 295.55 31.09 324.25 129.59 381.12 129.59 352.42 31.09 295.55" style="fill:#92E3A9"></polygon><polygon points="31.09 295.55 31.09 324.25 129.59 381.12 129.59 352.42 31.09 295.55" style="opacity:0.2"></polygon><g style="opacity:0.30000000000000004"><polygon points="129.59 360.61 98.48 343.31 129.59 362.06 129.59 360.61"></polygon><polygon points="31.09 309.78 41.46 316.37 31.09 310.99 31.09 309.78"></polygon><polygon points="31.09 315.49 82.92 346.29 31.09 317.25 31.09 315.49"></polygon><polygon points="129.59 366.31 77.75 337.32 129.59 368.19 129.59 366.31"></polygon></g><polygon points="129.59 381.12 326.59 267.39 326.59 238.69 129.59 352.42 129.59 381.12" style="fill:#92E3A9"></polygon><polygon points="129.59 381.12 326.59 267.39 326.59 238.69 129.59 352.42 129.59 381.12" style="fill:#fff;opacity:0.2"></polygon><g style="opacity:0.8"><polygon points="129.59 360.61 139.97 355.27 129.59 362.06 129.59 360.61" style="fill:#92E3A9"></polygon><polygon points="129.59 366.31 181.72 337.18 129.59 368.19 129.59 366.31" style="fill:#92E3A9"></polygon><polygon points="326.59 252.81 290.3 274.46 326.59 254.22 326.59 252.81" style="fill:#92E3A9"></polygon><polygon points="326.59 258.83 305.85 271.47 326.59 260.17 326.59 258.83" style="fill:#92E3A9"></polygon></g><polygon points="31.09 295.55 228.09 181.82 326.59 238.69 129.59 352.42 31.09 295.55" style="fill:#92E3A9"></polygon><polygon points="31.09 295.55 228.09 181.82 326.59 238.69 129.59 352.42 31.09 295.55" style="fill:#fff;opacity:0.4"></polygon><path d="M228.09,187.8,41.45,295.55l88.13,50.89L316.23,238.69ZM129.58,343.44,46.64,295.55,228.09,190.8l83,47.89Z" style="fill:#92E3A9"></path><path d="M142.11,288.84c-8.82-5.09-13.68-12-13.68-19.59,0-8.23,5.93-16.38,16.27-22.34,20.25-11.7,52.05-12.37,70.87-1.5,8.82,5.09,13.68,12,13.68,19.59,0,8.23-5.93,16.38-16.27,22.34h0c-10.62,6.13-24.4,9.23-37.82,9.23C163,296.57,151.07,294,142.11,288.84Zm3.47-40.41c-9.77,5.65-15.38,13.23-15.38,20.82,0,6.88,4.54,13.3,12.79,18.06,18.34,10.59,49.34,9.92,69.11-1.49h0c9.77-5.65,15.38-13.23,15.38-20.82,0-6.88-4.54-13.3-12.79-18.06-8.72-5-20.3-7.53-32.17-7.53C169.41,239.41,156,242.45,145.58,248.43Z" style="fill:#92E3A9"></path><g style="opacity:0.5"><path d="M145.3,283.31c-6.76-3.9-10.49-8.89-10.49-14.06,0-5.89,4.77-12,13.08-16.82,9.25-5.34,21.87-8.4,34.63-8.4,11.54,0,22.15,2.45,29.86,6.9,6.76,3.91,10.48,8.9,10.48,14.07,0,5.89-4.76,12-13.07,16.82-9.25,5.34-21.87,8.4-34.62,8.4C163.61,290.22,153,287.76,145.3,283.31Z" style="fill:#92E3A9"></path></g><path d="M134.34,329.66a10.56,10.56,0,0,0-9.5,0l-5.62,3.24-54-31,6.51-3.75a2.31,2.31,0,0,0,0-4.46L65.21,290l59.3-34.43-1.16,2.53a23.25,23.25,0,0,0-2.19,9.71c0,9.65,9.67,19.55,19.26,25.08,8.55,4.94,23.51,9.92,37.67,9.92a90.79,90.79,0,0,0,11.68-.75l4.34-.55L140,332.92Z" style="fill:#92E3A9;opacity:0.5"></path><g style="opacity:0.4"><path d="M108.18,309.08c-2.25-1.3-3.49-3.11-3.49-5.1,0-2.14,1.49-4.23,4.08-5.73,4.85-2.8,12.47-2.95,17-.34,2.25,1.29,3.48,3.1,3.48,5.09,0,2.15-1.48,4.23-4.08,5.73a18.45,18.45,0,0,1-9,2.21A16.23,16.23,0,0,1,108.18,309.08Z" style="fill:#fff"></path></g><path d="M234.17,276.15a34,34,0,0,0,2.27-11.84c0-8-6.32-15.75-18.79-22.95-10-5.77-25.3-9.64-38.14-9.64a92.54,92.54,0,0,0-11.69.74l-4.38.57,54.14-31.16,5.62,3.25a10.68,10.68,0,0,0,9.48,0l5.62-3.25,53.92,30.71-6.51,3.77a2.31,2.31,0,0,0,0,4.46l6.51,3.75L233,278.65Z" style="fill:#92E3A9;opacity:0.5"></path><g style="opacity:0.4"><path d="M232.15,237.79c-2.25-1.3-3.49-3.11-3.49-5.1,0-2.15,1.49-4.23,4.09-5.73,4.84-2.8,12.46-3,17-.35,2.25,1.3,3.49,3.11,3.49,5.1,0,2.15-1.49,4.23-4.08,5.73h0a18.49,18.49,0,0,1-9,2.21A16.29,16.29,0,0,1,232.15,237.79Z" style="fill:#fff"></path></g><path d="M115.87,246.61l-78,49.53c27.46,17.58,58.41,35.7,92.34,54.27l84.16-46.93Z" style="opacity:0.15"></path><path d="M115.9,246.6c-27,14.75-55.75,25-85.33,33.62a553,553,0,0,0,99,67c21.4-8.52,57.7-28.5,73.29-37.22,11.06-6.31,11.49-6.53,11.49-6.53Z" style="fill:#92E3A9"></path><path d="M115.9,246.6c-27,14.75-55.75,25-85.33,33.62a553,553,0,0,0,99,67c21.4-8.52,57.7-28.5,73.29-37.22,11.06-6.31,11.49-6.53,11.49-6.53Z" style="fill:#fff;opacity:0.4"></path><path d="M206.65,298.93c-25.36,14.7-50.54,29.23-77.69,40.42C99.69,323.8,71.17,304,45.81,284.3a369.27,369.27,0,0,0,77.81-33.13l-2.55-1.56C95.77,264.17,69.28,275.83,40.93,283c25.78,21.78,57,42.38,87.9,58.92,28-11.57,54.18-26.33,80.39-41.49Z" style="fill:#92E3A9"></path><path d="M195.23,292.43c-18.25,4.26-36,3-49.51-3.67-8-3.95-13.55-8.52-15.34-17.14-1.14-5.48,2.38-11.22,4.33-14.15l-1.53-.89c-2.37,3.68-5.66,9.91-4.54,15.34,1.88,9.13,6.24,13.42,15.38,18.3A60.9,60.9,0,0,0,172.83,297c12.54,0,19.07-1.54,24.56-3.3Z" style="fill:#92E3A9"></path><g style="opacity:0.5"><path d="M138.74,259.8c-2.17,2.22-4.38,6.9-3.91,9.85,1.09,7,5.26,10.25,12.31,14.11,7.82,4.27,16,6.46,28.63,6.63A83.64,83.64,0,0,0,189.23,289Z" style="fill:#92E3A9"></path></g><path d="M188.46,302.66a57,57,0,0,1-11.86.3,80.29,80.29,0,0,1-34.09-9.84c-11.57-6.41-20-13-20.73-25.11a22.63,22.63,0,0,1,1.34-9.45c.83-2,1.29-2.87,1.29-2.87-19.86,11.54-36.95,20.56-59,27.37a68.35,68.35,0,0,1,6,4c1.18.88,2.34,1.7,2.06,3-.23,1-1.69,1.53-2.91,2-1.81.7-3.11,1.14-5.41,1.83,17,12,32.38,25.2,53.22,35.49a23.34,23.34,0,0,1,5.8-2.25,17,17,0,0,1,10,.78,24.67,24.67,0,0,1,5.67,3.18c19.14-7.92,36.65-18.67,54.18-29.56A42.11,42.11,0,0,1,188.46,302.66Z" style="fill:#92E3A9;opacity:0.5"></path><g style="opacity:0.4"><path d="M125.28,298a26,26,0,0,0-16.2-.59c-2.76.76-4.1,1.81-4.41,4.42s1.29,3.61,3.44,5a18.7,18.7,0,0,0,7.83,2.53,18.36,18.36,0,0,0,8.66-1.12c2.48-1.11,4.13-2.54,4.22-5.19S127.8,299,125.28,298Z" style="fill:#fff"></path></g><polygon points="112.43 244.62 214.36 303.48 245.46 285.53 143.53 226.66 112.43 244.62" style="fill:#fafafa"></polygon><polygon points="245.46 285.53 245.46 316.33 214.36 334.29 214.36 303.48 245.46 285.53" style="fill:#ebebeb"></polygon><polygon points="214.36 334.29 212.54 333.23 214.36 332.18 214.36 334.29" style="fill:#e0e0e0"></polygon><polygon points="112.43 244.62 112.43 248.46 115.87 246.61 112.43 244.62" style="fill:#e0e0e0"></polygon><g style="opacity:0.30000000000000004"><polygon points="212.54 333.22 212.54 304.54 214.36 303.48 214.36 332.17 212.54 333.22"></polygon></g><g style="opacity:0.2"><polygon points="212.54 304.54 113.98 247.62 115.87 246.61 214.36 303.48 212.54 304.54"></polygon></g><polygon points="115.78 242.69 217.72 301.54 220.31 300.04 118.37 241.2 115.78 242.69" style="fill:#455a64"></polygon><polygon points="137.56 230.12 239.51 288.97 242.09 287.47 140.16 228.63 137.56 230.12" style="fill:#455a64"></polygon><polygon points="217.72 301.54 217.72 332.35 220.31 330.85 220.31 300.04 217.72 301.54" style="fill:#263238"></polygon><polygon points="239.51 288.97 239.51 319.77 242.1 318.27 242.09 287.47 239.51 288.97" style="fill:#263238"></polygon></g></g><g id="freepik--Character--inject-179"><g id="freepik--character--inject-179"><g id="freepik--Bottom--inject-179"><path d="M174.1,338.88c-2.64,2.28-7.3,10.32-7.3,10.32a6.5,6.5,0,0,0,1.31,5.87l9.32-10.59Z" style="fill:#263238"></path><polygon points="168.11 355.07 180.71 360.99 188.87 354.28 177.43 344.48 168.11 355.07"></polygon><path d="M183.89,326.69c.26-.46.54-1,.83-1.44a1.59,1.59,0,0,1,2.18-.59c-.17.38-.45.88-.51,1.08.08.39.12,1.13,1.78,3a11.46,11.46,0,0,0,2.48,2.13c1,.59,1.84,1.34,2.81,1.93a2.29,2.29,0,0,1,.73.57,2.39,2.39,0,0,1,.19,1.86c-.21,1.22-.42,2.43-.62,3.65-.11.59-.21,1.19-.31,1.78a4.84,4.84,0,0,0-.25,1.7.42.42,0,0,0,.27-.17,24.16,24.16,0,0,1,6.52-5.43,1.08,1.08,0,0,1,.48-.18.47.47,0,0,1,.51.48c0,.24-3.33,6.69-5.37,12.25a57.88,57.88,0,0,0-3.3,12.34c-1.11,8.88.16,17.23.4,21.6.32,5.85-5.44,6.65-13.31-1.93-3.9-4.26-8-12.4-7.65-16.85s3.7-10,3.78-13.4-2.5-9-1.43-12.16l.06-.17a16.23,16.23,0,0,1,2-3.73,28.24,28.24,0,0,1,3.53-3.72l.42-.42,1.91-1.9a12,12,0,0,0,1.67-2A3.31,3.31,0,0,0,183.89,326.69Z" style="fill:#263238"></path><path d="M236.31,278.33c-3.56-5.38-6.1-7.52-22.09-19.58a387,387,0,0,0-32.45-21.46l-19.61,21,17.18,17.15,26.32,17.29a35.91,35.91,0,0,0-7.21,10.55c-1,2.13-9.92,25.91-9.92,25.91l13.53,16.49s20.46-30.19,29.45-44.9C240,286.91,237.64,280.34,236.31,278.33Z" style="fill:#9e6767"></path><path d="M187.85,228.09c4.28,4.2,9.06,7.52,20.56,16.8,10.34,8.35,27.1,22.37,30.14,30.72,2.72,7.45.87,14.17-5.08,25S201,348,201,348l-13.6-17s7.78-24.77,11.65-31.38c3-5.18,5.44-6.64,5.44-6.64l-40.38-21.91-6.76-24C161.32,234.87,175.21,229.86,187.85,228.09Z" style="fill:#37474f"></path><path d="M201,348l-13.6-17s7.78-24.77,11.65-31.38a29,29,0,0,1,3.46-4.84c3.22,4.94,5.11,7.69,6.17,19.47.48,5.33.88,13.76,1.17,21.38C204.85,342.75,201,348,201,348Z" style="fill:#263238"></path><path d="M180.65,244.89c-.27,9.58-1.2,16.8-1.2,16.8l21.33,29.25-36.63-19.88Z" style="fill:#263238"></path><path d="M202.94,252.14c5,3.61,16.09,15.06,18.57,17.77a63.43,63.43,0,0,1,7.18,8.92,17.24,17.24,0,0,1,1.94,3.89,6.25,6.25,0,0,1,.31,2,12,12,0,0,1-.32,2.09,47,47,0,0,1-3.12,8.44c-1.25,2.78-2.65,5.5-4.07,8.21q-4.31,8.11-8.89,16.14a163.1,163.1,0,0,0,10.24-15.39q2.35-4,4.39-8.18a44.86,44.86,0,0,0,3.32-8.8,14.88,14.88,0,0,0,.34-2.46,7.91,7.91,0,0,0-.42-2.57,17.08,17.08,0,0,0-2.23-4.31,63.45,63.45,0,0,0-7.43-8.91C218.33,264.31,208.31,255.15,202.94,252.14Z" style="fill:#263238"></path><path d="M229.61,425.69c-.76-1.1-6.6-8.35-7.52-9.71-4.24-6.23-6.87-16.67-9.06-23.17-1.2-3.55-1.74-12.9-2.82-22.75h0s-5.14-59.27-7.08-68.3-29.2-38.71-29.2-38.71,5.79-11.12,5.23-37.87c-14.31,8.7-32.3,8.77-52.24,4.23-2.47,9.83-7.69,19.85-5.53,30.47S133.5,280.15,146.61,290c10.85,8.16,25.43,19.42,28.47,21.76,2.67,2.05,4.19,4.38,3.84,10.86-.38,6.69-1.85,17.7,7.19,40,3,8.7,5.64,22.29,6.42,27l-.28,2.95a6.45,6.45,0,0,0,1.1,4.31c.89,1.4,1.84,2.72,2.86,4,2.72,3.49,7.76,11.25,11.19,16.79,4.94,8,11.95,10.43,18.54,11.05S230.28,426.67,229.61,425.69Z" style="fill:#9e6767"></path><path d="M191,408.71c-.74,3.41.55,12.63.55,12.63a6.72,6.72,0,0,0,4.9,3.83l1-14.08Z" style="fill:#263238"></path><polygon points="196.42 425.17 213.13 421.34 213.36 411.82 197.4 411.09 196.42 425.17"></polygon><path d="M191.31,393.07c-.08-.52-.19-1.11-.23-1.64a1.64,1.64,0,0,1,1.45-1.81c.1.41.19,1,.27,1.17a4.74,4.74,0,0,0,3.42,1.92,28.82,28.82,0,0,0,3.72.26,57,57,0,0,0,5.91-.19,2.74,2.74,0,0,1,1,0,2.48,2.48,0,0,1,1.36,1.36,40.08,40.08,0,0,0,3.35,4.79.34.34,0,0,0,.12-.3,29.21,29.21,0,0,1,.87-6.78c.21-.8.75-1.28.8-1.1.26,1,.95,4.22,1.23,5a52.87,52.87,0,0,0,3.83,9.35,72.75,72.75,0,0,0,7.34,12c7.11,9.39,10.9,11.46,13.22,14.68,3.5,4.87-1,8.85-13.78,8.45-8.41-.26-17-6.14-19.64-9.86s-3.37-10.18-5.49-12.9-7.93-5.58-9.08-8.73l-.06-.17a15.72,15.72,0,0,1-.71-4.19,27.27,27.27,0,0,1,.56-5.1c0-.2.05-.39.08-.59.12-.89.24-1.78.37-2.67a11.15,11.15,0,0,0,.14-2.58C191.34,393.29,191.33,393.18,191.31,393.07Z" style="fill:#37474f"></path><path d="M120.42,227.05c-2,4-5.66,13.44-6,21.81s-.85,17.93,14.31,31.95c12.59,11.66,45.65,31.82,46.85,35s1.46,27.94,4,35.3c4.76,13.66,11,31.22,11,31.22,8.14,2.51,15.91,1.65,21-2,0,0-2.94-33.22-4.06-47.24-1.9-24-1.87-31.42-6.07-37.64s-5.69-8.18-5.69-8.18L176,262.22s2.7-6,4.66-17.33c1.32-7.58-.22-17.86-.22-17.86S145.22,236.2,120.42,227.05Z" style="fill:#37474f"></path><path d="M130.78,257.35l-.14-.44c-4.16-7.39-2.43-14.11-.16-22.91.38-1.48.77-3,1.15-4.62l.94.23c-.39,1.6-.78,3.15-1.16,4.63-2.17,8.41-3.81,14.88-.1,21.84,6.75-3,6.06-13.76,5.62-20.29-.07-1.07-.14-2-.16-2.85l1,0c0,.8.09,1.75.16,2.82.45,6.77,1.19,17.91-6.1,21.22a27.08,27.08,0,0,0,2.43,3.4c4.89,5.84,17.36,18.33,28.37,29.34,8.69,8.71,16.2,16.22,17.83,18.34,2.06,2.68,2.83,10.43,3.81,20.23.8,8,1.71,17.15,3.53,25.3a130.56,130.56,0,0,0,11.11,29.85l-1.15-.13a131.5,131.5,0,0,1-10.9-29.51c-1.84-8.2-2.75-17.34-3.55-25.41-.92-9.27-1.72-17.28-3.61-19.74-1.59-2.07-9.08-9.57-17.76-18.25-11-11-23.51-23.52-28.42-29.41a26.39,26.39,0,0,1-2.6-3.65Z" style="fill:#263238"></path><path d="M148.06,236.46a32.33,32.33,0,0,0-.16,9.27,46.42,46.42,0,0,0,2,9.09,49.38,49.38,0,0,0,3.74,8.52,41,41,0,0,0,5.34,7.57c-1.41-2.75-2.77-5.47-4-8.24s-2.32-5.58-3.25-8.45a77.53,77.53,0,0,1-2.35-8.73A74.67,74.67,0,0,1,148.06,236.46Z" style="fill:#263238"></path><path d="M145.93,236.4a30.22,30.22,0,0,0-2.32,7.52,50.2,50.2,0,0,0-.8,7.83,54.27,54.27,0,0,0,.42,7.86,31,31,0,0,0,1.82,7.65c-.19-2.62-.27-5.18-.32-7.76s-.07-5.14,0-7.71.17-5.12.35-7.68S145.56,239,145.93,236.4Z" style="fill:#263238"></path><path d="M182.34,281.94c2.92,4.41,6,8.71,8.91,13.09,1.43,2.2,2.83,4.41,4,6.71a26.84,26.84,0,0,1,2.66,7.14c.43,2.53.84,5.18,1.22,7.77l1.18,7.83q1.15,7.83,2.61,15.64-.25-8-1.06-15.84c-.55-5.27-1.15-10.49-2.08-15.77a26,26,0,0,0-3-7.6,60.56,60.56,0,0,0-4.4-6.71C189.27,289.93,185.82,285.92,182.34,281.94Z" style="fill:#263238"></path><path d="M211.29,377c-3.21,3-17,4.73-21.86,2.28l1.64,7s3.32,1.78,11.56,1.29,9.29-3.72,9.29-3.72Z" style="fill:#263238"></path><path d="M127.55,221.54c4.5,2.77,12.34,6.07,24.88,6.43s25.27-4.6,29.07-8.08l1,6.57s-10.58,8.56-30.06,8.34-26.24-7.11-26.24-7.11Z" style="fill:#455a64"></path></g><g id="freepik--Top--inject-179"><path d="M253.91,124.36a5.93,5.93,0,0,0-3.44.9,38.43,38.43,0,0,0-4.48,3.68c-2.3,1.84-6,4.85-9,5.25-.61.08-1.89.06-1.2-.83a25.55,25.55,0,0,0,2.56-3.57,5.28,5.28,0,0,0,.49-4.24,1.84,1.84,0,0,0-.8-1c-.57-.28-.86,0-1.2.38a10.62,10.62,0,0,1-1.18,1L233.2,128c-4.8,4.1-9.5,8.73-11.69,14.8-.32.89-2,7.67-3.12,11.53-.87,3.5-7.23,25.54-7.23,25.54l-18.31-11.78a57,57,0,0,0-16.31-7.79c-2.93-.82-8.66-1.88-8.66-1.88l13,30.74s21.32,10.53,24.67,12.14c5,2.4,14.44,6.77,18.93.39,5.51-7.81,5.85-19.44,6.85-28,1.12-9.67,1.17-14.22,2.26-17.28s3.65-3.72,5.38-4.62a28.81,28.81,0,0,0,6.65-4.44,26.73,26.73,0,0,0,4.82-5.09,8.26,8.26,0,0,0,1.68-3,24.34,24.34,0,0,1,0-2.83c.26-1.08,1-2,1.17-3.11a10.47,10.47,0,0,0-.29-2.6c-.19-1.37.51-2.31,1.3-3.35a4.14,4.14,0,0,0,.94-1.63C255.44,124.78,254.72,124.43,253.91,124.36Z" style="fill:#9e6767"></path><path d="M169.82,155.35c9.82,1,18.42,7.86,23.62,11.45,12.85,8.86,17,10.83,17,10.83l2-2.17s1.23,5,7.37,8.19S229.93,186,229.93,186a45.86,45.86,0,0,1-2.59,11.26c-2.06,5.16-4,7.77-8.21,8.3s-13-3.18-21.43-7.55-18.92-9-18.92-9Z" style="fill:#ebebeb"></path><path d="M210.44,177.63c-1.83,4.09-3.66,11.53-2.15,17.26-5-6.9.07-18.41.07-18.41Z" style="fill:#e0e0e0"></path><path d="M190.6,190.27c-6.1-7-9.75-21.11-9.75-21.11l-2.75-4.3.68,24.15s10.48,4.6,18.92,9a94.19,94.19,0,0,0,15.77,6.76C213.1,204.57,196.62,197.15,190.6,190.27Z" style="fill:#e0e0e0"></path><path d="M217.29,188a16.34,16.34,0,0,0,5.86,3.51c5.52,1.55,7.31.29,7.6-1s-.94-1.93.24-3.74,1.15-2.47.8-3.87,1.66-4.41-.9-5.17l-.5,2.36A19.49,19.49,0,0,1,220,177.81c-5.55-2.9-6.43-6.41-6.43-6.41L214,170a1.78,1.78,0,0,0-1.9,1.19c-.46,1.35,0,3.2-1.14,4.17s-1,2.29-.51,3.76c.71,2.24,3.24,5.81,6.83,8.91" style="fill:#e0e0e0"></path><path d="M234.12,137.36c-.63,3.59-3.34,8-5.11,9.47,0,0,3.16-.91,4.45-3.39A7.52,7.52,0,0,0,234.12,137.36Z" style="fill:#874c4c"></path><path d="M123.47,209.76a42.23,42.23,0,0,0-2.5-14c-2.4-7.3-1.61-15.86-1.86-22.07-.37-9.2,1-14.07,3.9-15.81,0,0,6.57-2.42,8.83-2.73,3.17-.44,8.3-1.09,14.71-1.71,11-1,23.27,1.94,23.27,1.94,5.67,4.54,9.53,7.52,16.47,17.38,4.16,5.93,6.76,16.18-1.7,23.87.16,1.88,1.17,5.79.81,18.57,2.1,5.34,3.91,6.87,2.45,12.92,0,0-9.72,10.94-32,10.53-25.09-.46-32.92-9.68-35.44-11.57C117.17,224.51,123.51,214.78,123.47,209.76Z" style="fill:#f5f5f5"></path><path d="M120.42,227.05a2.44,2.44,0,0,1-.92-1.43,5.61,5.61,0,0,1-.11-1.73,18.33,18.33,0,0,1,.67-3.39c.65-2.21,1.47-4.34,2.11-6.51a21.23,21.23,0,0,0,.73-3.24,21.74,21.74,0,0,0,0-3.32,40.81,40.81,0,0,0-1-6.66q-.39-1.64-.87-3.27c-.32-1.07-.69-2.16-1-3.29a38,38,0,0,1-1-6.84c-.13-2.3-.12-4.59-.08-6.87s.17-4.56.22-6.84c.38,4.55.26,9.13.73,13.64a43.52,43.52,0,0,0,1.17,6.64c.3,1.06.66,2.14,1,3.24s.64,2.22.91,3.33a38.62,38.62,0,0,1,1,6.86,22.82,22.82,0,0,1,0,3.5,18.75,18.75,0,0,1-.89,3.39c-.76,2.18-1.67,4.27-2.41,6.4a17.93,17.93,0,0,0-.9,3.26A3.4,3.4,0,0,0,120.42,227.05Z" style="fill:#e0e0e0"></path><path d="M172,198.57c1.28-10.87-1-15.53-3.38-20.47-.38-.77-.76-1.56-1.14-2.39l-1.08.49c.38.84.77,1.64,1.15,2.42,2.42,5,4.51,9.29,3.27,19.81-1,8.73-.5,25.31.18,38.54l1.17-.32C171.45,223.51,170.94,207.17,172,198.57Z" style="fill:#e0e0e0"></path><path d="M164.41,197.75s-6.76,7.56-16.35,6a16.33,16.33,0,0,1-9.57-5,.66.66,0,0,0-1.05.79c1.67,2.91,4.92,6.14,11.21,6.89C160.23,207.87,164.41,197.75,164.41,197.75Z" style="fill:#e0e0e0"></path><path d="M141,91.89c4,1.1,5.76,2.18,8.48-1.75,3.33-3.69,9.23-3.34,12.68,0,1.18,1.1,2.43,2.58,4,2.32.87-.14,1.9-.87,3.45-1.28A6.17,6.17,0,0,1,176,93.69c.69,1.25.51,2.8.57,4.23a3.77,3.77,0,0,0,2,3.38,2.25,2.25,0,0,0,3-1.75c1.53.94,1.58,3.46.44,4.89a6.35,6.35,0,0,1-4.78,2c3.27,0,6.62,3.25,5.55,6.82-.48,1.57-1.84,2.81-1.94,4.46-.14,2,1.66,3.61,2.45,5.49a6,6,0,0,1-1.92,7c-1.71,1.19-4,1.3-5.62,2.57s-2.48,3.84-3.79,5.74c-6.51,8.86-12.94-1.41-20,3.41a17.3,17.3,0,0,0-2.51,2.48c-.34.37-.67.73-1,1.07a3.8,3.8,0,0,0-.88.91,2.94,2.94,0,0,1-2,1.53,8.56,8.56,0,0,1-2.53.12c-2.72-.15-5.61-.47-7.72-2.29a20.29,20.29,0,0,1-1.88-2,8,8,0,0,0-4.33-2.88c-2-.35-4.08.53-5.91-.3a6.55,6.55,0,0,1-2.85-3.51,13,13,0,0,0-2.27-4.05,4.82,4.82,0,0,0-5-1.13,7.88,7.88,0,0,1,2.26-4.94c.88-.87,1.93-1.49,2.88-2.26a5,5,0,0,0,.88-.84,4.74,4.74,0,0,0,.67-1.15,7.65,7.65,0,0,0,.57-2.68c0-.34,0-.68,0-1-.08-1.87-.51-3.72-.53-5.59,0-3,1.16-6.19,3.55-7.88,1.08-.77,2.35-1.2,3.5-1.87a5.71,5.71,0,0,0,2-1.86c.21-.34.38-.71.6-1a3.45,3.45,0,0,0,.42-1,14,14,0,0,1,1.47-4.24C133.36,92.11,137.53,91.08,141,91.89Z" style="fill:#263238"></path><path d="M167.42,104c4,3.58,6.47,7.66,5.8,13.56-.21,1.87,1.32,4.86,1.51,7.24,1,13.34-3.4,19.59-7.22,21.62-2.27,1.21-6.34,1.26-6.34,1.26l.6,6.62s9.49,12.84,6.5,24.82C149.6,168.43,140.37,155,140.37,155L139,138.12s-1.71,2.32-5.76.27c-3.29-1.67-5.52-7.2-3.15-10.48s6-2.91,7.51.29c1.37,2.89,4.34,2.58,3.86-2.53s-2.26-13.28,3.74-18.11C156.81,106.36,157.66,115.58,167.42,104Z" style="fill:#9e6767"></path><path d="M140.1,151.71l.13,1.57s8.15,12.88,28,25.82c-8-.47-21.28-5-21.64-6.07a34.21,34.21,0,0,1-.36-5.51l-14.43-12.4Z" style="fill:#e0e0e0"></path><path d="M168.27,179.1s5-6.48,5-11.32c0-1.57-5-4.55-5-4.55l-.34-7.81-6.4-3.71.24,2.74A41.52,41.52,0,0,1,168.27,179.1Z" style="fill:#e0e0e0"></path><path d="M155.91,134.05l6.26,1.58a3.09,3.09,0,0,1-3.81,2.39A3.38,3.38,0,0,1,155.91,134.05Z" style="fill:#874c4c"></path><polygon points="158.97 118.53 161.07 131.47 167.42 129.15 158.97 118.53" style="fill:#874c4c"></polygon><path d="M154.21,122.56a2.08,2.08,0,1,1-2.08-2.08A2.08,2.08,0,0,1,154.21,122.56Z" style="fill:#263238"></path><path d="M170.19,121.3a2.08,2.08,0,1,1-4.12-.56,2.08,2.08,0,0,1,4.12.56Z" style="fill:#263238"></path><path d="M171.49,116.22l-4.89-2.17a2.67,2.67,0,0,1,4.89,2.17Z" style="fill:#263238"></path><path d="M147.34,118.43l4.6-2.73a2.67,2.67,0,1,0-4.6,2.73Z" style="fill:#263238"></path><path d="M161.17,147.66c-4.71.1-13.37.11-18.77-6.17,0,0,2,4.6,5.4,6.28,4.74,2.37,13.56,2,13.56,2Z" style="fill:#874c4c"></path><path d="M159.78,138a2.9,2.9,0,0,0-3.13-2.6,2.67,2.67,0,0,0-.69.16,3.34,3.34,0,0,0,2.4,2.42A3,3,0,0,0,159.78,138Z" style="fill:#ffa8a7"></path><path d="M115.56,161.67c-4.36,2.92-6.44,5-12.79,11.33l-8.34,8.83C93.32,175.4,91,161.73,90.59,159c-.73-4-1.63-10.89-1.85-11.8-1.51-6.27-5.69-11.39-10-16l-2.25-2.34a11.56,11.56,0,0,1-1.06-1.16c-.29-.4-.56-.72-1.15-.5a1.78,1.78,0,0,0-.91.92,5.29,5.29,0,0,0,0,4.27,25.29,25.29,0,0,0,2.16,3.82c.58,1-.69.84-1.29.69-2.91-.71-6.26-4.11-8.34-6.19a39.78,39.78,0,0,0-4.06-4.15,6,6,0,0,0-3.32-1.26c-.81,0-1.57.24-1.49,1.26a4.21,4.21,0,0,0,.76,1.72c.68,1.12,1.27,2.13.94,3.48a10.35,10.35,0,0,0-.58,2.55c0,1.11.68,2.11.82,3.22a23.62,23.62,0,0,1-.28,2.82,8.15,8.15,0,0,0,1.35,3.12,27,27,0,0,0,4.23,5.58,29.07,29.07,0,0,0,6.14,5.14c1.61,1.08,4.1,2,4.85,5.17s.29,7.69.36,17.43c.06,8.65-.13,21.33,4.5,29.7,4.81,6.13,14,1.3,18.89-1.35,3.26-1.78,20-11.88,20-11.88l4-34.84A30,30,0,0,0,115.56,161.67Z" style="fill:#9e6767"></path><path d="M124.15,157.44c-9.75,1.5-14.07,7.38-18.55,11.75C96.86,177.72,93,181.55,93,181.55l-2.13-1.88s-1,5.08-7,8.55-8.53,3.53-8.53,3.53.59,5.36,1.69,10.41c1.19,5.43,4.41,7.56,8.62,7.88s12.82-3.83,21-8.62S121.06,193,121.06,193C127.62,187.09,130.86,162.27,124.15,157.44Z" style="fill:#ebebeb"></path><path d="M94.71,180.39c2.18,4,1.92,11.43,1.28,15.06,2.28-3.95,2.93-11,.25-17.11l-1.53,1.33Z" style="fill:#e0e0e0"></path><path d="M127.83,168.49c-.09.6-2.56,16-15.06,26.75-6.94,5.95-21.13,13.54-21.49,13.72h0a54,54,0,0,0,5.35-2.2l.06,0c.6-.29,1.22-.58,1.84-.89l.1,0c1.25-.62,2.54-1.29,3.83-2l.41-.23,1.48-.82.49-.27,1.85-1.07,4.37-2.55,3.78-2.22,2.11-1.24,1.73-1,1.07-.64.69-.4.62-.37C125.28,189.19,128.12,177.58,127.83,168.49Z" style="fill:#e0e0e0"></path><path d="M89.09,191.79a20.45,20.45,0,0,1-7.28,2.77c-5.65,1-7.31-.45-7.47-1.72s1.13-1.83.14-3.74-.9-2.57-.41-3.93-1-4.55,1.59-5.06l0,2.4a19.77,19.77,0,0,0,10.6-1.29c5.81-2.33,7-5.73,7-5.73L93.1,174a1.74,1.74,0,0,1,1.73,1.37c.32,1.39-.45,2.49.62,3.52a4.48,4.48,0,0,1,.42,4.36C94,187.67,93,189.06,89.09,191.79Z" style="fill:#e0e0e0"></path><path d="M76.81,140.4c.23,3.63,2.44,8.33,4,10,0,0-3-1.25-4.07-3.85A7.51,7.51,0,0,1,76.81,140.4Z" style="fill:#874c4c"></path></g></g></g></svg>