<svg xmlns="http://www.w3.org/2000/svg" viewBox="0 0 500 500"><g id="freepik--Floor--inject-84"><path id="freepik--floor--inject-84" d="M77.66,243.08c-95.18,54.95-95.17,144,0,199s249.49,54.95,344.67,0,95.17-144,0-199S172.84,188.13,77.66,243.08Z" style="fill:#fafafa"></path></g><g id="freepik--Plants--inject-84"></g><g id="freepik--Clouds--inject-84"><path id="freepik--Cloud--inject-84" d="M249.77,66.91a13.23,13.23,0,0,0-4.39-.81c-1.42-.11-1.86-.39-2.14-.7a10.45,10.45,0,0,0-12.56-3.71c-.84-3.4-5-6.35-9.48-5.36.16-4.42-5.48-9.16-10.55-10.24-4.86-1-9.1-.6-11.87,2.6-3-5.8-14.6-7.43-20.9-4.37-3.62,1.77-6.69,3.58-8.19,6.89a13.76,13.76,0,0,0-1.36,6.6c-2.46-2.16-7.37-2.75-10.65-1.48-3.53,1.37-3.8,4-4,6.74a12.46,12.46,0,0,0-6.44-.12c-2.22.66-3.51,2.41-3.2,3.82-1.76-.1-6,1.33-5.48,3.19.55,2.08,5.34,1.87,7.13,1.81a33.48,33.48,0,0,0,5-.79,7.9,7.9,0,0,0,2.6.5c3,0,4.35-1.33,4.84-2.47,1.49,3.14,6.78,5.53,10.53,6.48,7.06,1.81,17,.71,21.38-4.56a8,8,0,0,0,2.1,2.56,12.23,12.23,0,0,0,6.53,2.64c2.9.27,10.67.64,12.86-4,1.55,3.06,8.48,4.46,13.74,3.71a21.77,21.77,0,0,0,5.89-1.78,35.32,35.32,0,0,0,3.39-2c1-.63,1.51-.62,2.89-.2,3.61,1.09,7.81,1.53,11.49,0C251.91,70.62,252.53,68.16,249.77,66.91Z" style="fill:#f0f0f0"></path><path id="freepik--cloud--inject-84" d="M354.2,83.46a8.34,8.34,0,0,0-2.78-.51c-.9-.07-1.18-.25-1.36-.45a6.62,6.62,0,0,0-8-2.35,5.08,5.08,0,0,0-6-3.39c.1-2.8-3.47-5.8-6.68-6.49s-5.76-.38-7.52,1.65c-1.88-3.68-9.25-4.71-13.24-2.77-2.29,1.12-4.24,2.27-5.19,4.37a8.82,8.82,0,0,0-.86,4.18,7.37,7.37,0,0,0-6.74-.94c-2.24.86-2.41,2.55-2.52,4.27a7.82,7.82,0,0,0-4.08-.08c-1.41.42-2.22,1.53-2,2.42-1.11-.06-3.77.84-3.46,2s3.37,1.19,4.51,1.15a22.1,22.1,0,0,0,3.17-.5,4.8,4.8,0,0,0,1.65.31c1.94,0,2.75-.84,3.06-1.56.95,2,4.3,3.5,6.68,4.11,4.47,1.14,10.79.44,13.54-2.9a5,5,0,0,0,1.33,1.63,7.75,7.75,0,0,0,4.14,1.67c1.83.17,6.76.41,8.14-2.51,1,1.94,5.37,2.82,8.7,2.35A13.76,13.76,0,0,0,342.44,88a22,22,0,0,0,2.14-1.28,1.79,1.79,0,0,1,1.83-.13,10.89,10.89,0,0,0,7.28,0C355.56,85.81,356,84.25,354.2,83.46Z" style="fill:#f0f0f0"></path></g><g id="freepik--piggy-bank--inject-84"><g id="freepik--piggy-bank--inject-84"><g id="freepik--piggu-bank--inject-84"><path d="M191.74,190.73c-.56-1.63-2.27-3-4-2.25-3.73,1.61-5.18,1.82-9.38,2.17a20.23,20.23,0,0,1-9.21-2.11,19.5,19.5,0,0,1-9.86-15.73,28.58,28.58,0,0,1,1.19-10c8.87,4.8,21.36,2.74,28.08-4.92,5-5.67,3.87-12.74-3.38-15.73s-17.83-1.93-24.39,2.24a21.63,21.63,0,0,0-2,1.45c.84-7,3.66-14,12.84-18.13,1.07-.49,2-1.72.72-1.9-8-1.06-14.63,4-18.12,10.82-2.73,5.35-4.1,11.59-1.94,17.16a37.89,37.89,0,0,0-4,11c-1.36,6.84-.22,16.12,2.8,21.46,4.12,7.3,10.36,13.22,22.52,15.14C180.2,202.41,195.13,200.59,191.74,190.73Zm-14-41.39c3.34,0,6.37,1.4,4.24,4.21-1.23,1.63-3.09,2.58-5.52,3.51-3.75,1.44-8.93.51-12.51-1.37C167.32,151.32,172.2,149.37,177.76,149.34Z" style="fill:#407BFF"></path><path d="M152.3,153.81a37,37,0,0,0-3.32,8.27,17.82,17.82,0,0,0,10.41,6.32,28.12,28.12,0,0,1,1.1-5.58C155.19,159.74,153.77,157,152.3,153.81Z" style="opacity:0.2"></path><path d="M164,155.69a16.67,16.67,0,0,1,1.34-1.53,14.56,14.56,0,0,1-4-3.39c-2.36-2.8-2.51-4.91-2.51-4.91C158.6,149.3,160.93,154,164,155.69Z" style="opacity:0.2"></path><path d="M267.08,349.9c0-.07,0-.14,0-.21l0-.21h0c.69-4.85-2.14-9.86-8.53-13.65C247,329,228,328.75,216.27,335.38c-6.48,3.64-9.42,8.59-8.83,13.45h0l0,.23c0,.06-12.42-1.75-12.42-1.75l2.83,3a55.27,55.27,0,0,1,14.2,29.47l1.58,10.52h0l0,.11h0c.51,3,2.7,5.87,6.61,8.18,9,5.35,23.79,5.51,32.94.36,4-2.23,6.21-5.08,6.78-8h0l0-.08a.17.17,0,0,1,0-.07Z" style="fill:#407BFF"></path><path d="M267.08,349.9c0-.07,0-.14,0-.21l0-.21h0c.69-4.85-2.14-9.86-8.53-13.65C247,329,228,328.75,216.27,335.38c-6.48,3.64-9.42,8.59-8.83,13.45h0l0,.23c0,.06-12.42-1.75-12.42-1.75l2.83,3a55.27,55.27,0,0,1,14.2,29.47l1.58,10.52h0l0,.11h0c.51,3,2.7,5.87,6.61,8.18,9,5.35,23.79,5.51,32.94.36,4-2.23,6.21-5.08,6.78-8h0l0-.08a.17.17,0,0,1,0-.07Z" style="fill:#fff;opacity:0.1"></path><path d="M204.84,313.06l0-.2,0-.22h0c.7-4.85-2.22-9.72-8.53-13.65-4.45-2.77-27.79-3-41.3-3.17-8-.09-12.43-.95-11.84,3.92h0l0,.22c0,.07-8.81-11.08-8.81-11.08h0A151.89,151.89,0,0,1,148.29,333l3.13,20.52v.13h0c.5,3,2.7,5.86,6.6,8.17,9,5.35,23.79,5.51,32.94.36,4-2.23,6.22-5.08,6.78-8h0V354a.17.17,0,0,0,0-.07Z" style="fill:#407BFF"></path><path d="M274.29,326.58l0-.21,0-.22h0c-.59-4.86,2.44-9.66,8.83-13.45,4.51-2.68,27.85-2.43,41.36-2.29,8,.09,12.44-.67,11.75,4.18h0l0,.22,0,.2-9.28,53.15v0l0,.1h0c-.57,3-2.83,5.81-6.78,8-9.15,5.15-23.9,5-32.94-.36-3.91-2.31-6.1-5.21-6.61-8.18h0v-.08a.17.17,0,0,1,0-.07Z" style="fill:#407BFF"></path><path d="M274.29,326.58l0-.21,0-.22h0c-.59-4.86,2.44-9.66,8.83-13.45,4.51-2.68,27.85-2.43,41.36-2.29,8,.09,12.44-.67,11.75,4.18h0l0,.22,0,.2-9.28,53.15v0l0,.1h0c-.57,3-2.83,5.81-6.78,8-9.15,5.15-23.9,5-32.94-.36-3.91-2.31-6.1-5.21-6.61-8.18h0v-.08a.17.17,0,0,1,0-.07Z" style="fill:#407BFF"></path><path d="M272.8,173.47c-13.2-5.89-31.21-8.33-46.66-8.5a95.45,95.45,0,0,0-96.47,94.41c-.38,35.07,18,68,43.86,87.93,12.47,9.6,30.78,19.49,42.2,24.13,19.46,7.9,31.72,8.75,49.35,8.94A95.45,95.45,0,0,0,361.55,286c.26-24.2-8.72-45.72-23.06-62.94-5.94-7.13-15.41-18.06-22.91-23.6C301,188.63,287.47,180,272.8,173.47Z" style="fill:#407BFF"></path><path d="M272.8,173.47c-13.2-5.89-31.21-8.33-46.66-8.5a95.45,95.45,0,0,0-96.47,94.41c-.38,35.07,18,68,43.86,87.93,12.47,9.6,30.78,19.49,42.2,24.13,19.46,7.9,31.72,8.75,49.35,8.94A95.45,95.45,0,0,0,361.55,286c.26-24.2-8.72-45.72-23.06-62.94-5.94-7.13-15.41-18.06-22.91-23.6C301,188.63,287.47,180,272.8,173.47Z" style="fill:#fff;opacity:0.30000000000000004"></path><circle cx="264.64" cy="323.43" r="17.44" transform="translate(-67.23 69.45) rotate(-13.28)" style="fill:#407BFF;opacity:0.5"></circle><path d="M349.37,279.72A17.45,17.45,0,0,1,359.18,264,93,93,0,0,1,361.55,286a97,97,0,0,1-.65,10.15A17.44,17.44,0,0,1,349.37,279.72Z" style="fill:#407BFF;opacity:0.5"></path><path d="M187.89,328.09c-36.52-30.18-57.92-96.34-28-137.36a95.15,95.15,0,0,0-30.22,68.65c-.38,35.07,18,68,43.86,87.93,12.47,9.6,30.78,19.49,42.2,24.13,19.46,7.9,31.72,8.75,49.35,8.94a95.23,95.23,0,0,0,70.77-30.28c.3-.34.61-.67.91-1C282.79,387.07,224.41,358.26,187.89,328.09Z" style="fill:#407BFF;opacity:0.30000000000000004"></path><path d="M288.67,207.91l14.65,8.67c14.78-4.1,32.38-1.32,43.44,17.83,0,0,4.33-44.53-1.22-56.91,0,0-3-1.78-4.26-2.52-1.85-1.11-4.85-1.47-8.45-.88C314.59,177.08,298,192,288.67,207.91Z" style="fill:#407BFF"></path><path d="M303.32,216.58c19.14-4.69,33.62,1.44,43.44,17.83,0,0,17.43-63.88-9.84-57.89C318.45,180.58,303.32,216.58,303.32,216.58Z" style="fill:#407BFF"></path><path d="M303.32,216.58c19.14-4.69,33.62,1.44,43.44,17.83,0,0,17.43-63.88-9.84-57.89C318.45,180.58,303.32,216.58,303.32,216.58Z" style="fill:#fff;opacity:0.2"></path><path d="M331,210.5c-17.66-6.7-27.7,6.08-27.7,6.08,19.14-4.69,33.62,1.44,43.44,17.83C346.76,234.41,348.69,217.2,331,210.5Z" style="fill:#407BFF;opacity:0.5"></path><path d="M273.66,233.28c-16.31,14.52-31,33-41.93,60.81l-14-8.24c-5.24-5.43-18.5-51.25,8.23-68C243.78,206.69,273.66,233.28,273.66,233.28Z" style="fill:#407BFF"></path><path d="M273.66,233.28c-19.27,16.93-32.84,37.46-41.93,60.81,0,0-29.1-51.63-2.14-74C245.33,207,273.66,233.28,273.66,233.28Z" style="fill:#407BFF"></path><path d="M273.66,233.28c-19.27,16.93-32.84,37.46-41.93,60.81,0,0-29.1-51.63-2.14-74C245.33,207,273.66,233.28,273.66,233.28Z" style="fill:#fff;opacity:0.2"></path><path d="M273.66,233.28s-16.22-.18-30.41,18.82c-13.26,17.76-11.52,42-11.52,42C240.82,270.74,254.39,250.21,273.66,233.28Z" style="fill:#407BFF;opacity:0.5"></path><path d="M343.84,282c-5.68-3.35-13.78-2.87-22.82,2.22-17.41,9.8-31.68,33-31.89,51.78-.09,9,3,15.32,8.23,18.43,2.5,1.51,12.31,7.33,14.84,8.79,5.67,3.3,13.73,2.8,22.73-2.26,17.4-9.8,31.67-33,31.88-51.78.09-9-3-15.31-8.21-18.43C356.09,289.22,346.32,283.45,343.84,282Z" style="fill:#407BFF"></path><path d="M358.6,290.73c-2.51-1.51-12.28-7.28-14.76-8.75-5.68-3.35-13.78-2.87-22.82,2.22-7.26,4.08-14,10.5-19.34,17.95l57.09,33.79c4.92-8.72,7.94-18.2,8-26.78C366.9,300.19,363.78,293.85,358.6,290.73Z" style="fill:#fff;opacity:0.2"></path><path d="M292.53,319.14l54.69,32.22a73.7,73.7,0,0,0,11.55-15.42l-57.09-33.79A72.33,72.33,0,0,0,292.53,319.14Z" style="fill:#fff;opacity:0.1"></path><path d="M335.66,292.87c17.41-9.8,31.35-2.51,31.15,16.29s-14.48,42-31.88,51.78-31.35,2.5-31.15-16.3S318.26,302.67,335.66,292.87Z" style="fill:#407BFF"></path><path d="M335.66,292.87c17.41-9.8,31.35-2.51,31.15,16.29s-14.48,42-31.88,51.78-31.35,2.5-31.15-16.3S318.26,302.67,335.66,292.87Z" style="fill:#407BFF"></path><path d="M335.66,292.87c17.41-9.8,31.35-2.51,31.15,16.29s-14.48,42-31.88,51.78-31.35,2.5-31.15-16.3S318.26,302.67,335.66,292.87Z" style="fill:#fff;opacity:0.30000000000000004"></path><path d="M324.06,345.42h0c-2.13,1.2-3.82-.12-3.79-2.93l.15-14.34c0-2.81,1.78-6.06,3.9-7.26h0c2.12-1.19,3.82.12,3.79,2.93L328,338.16C327.92,341,326.18,344.23,324.06,345.42Z" style="fill:#407BFF"></path><path d="M320.42,328.15l-.15,14.34a5.23,5.23,0,0,0,.23,1.67,3.67,3.67,0,0,0,.84-.35c2.12-1.19,3.87-4.44,3.9-7.26l.15-14.34a5.16,5.16,0,0,0-.23-1.66,3.61,3.61,0,0,0-.84.34C322.2,322.09,320.45,325.34,320.42,328.15Z" style="fill:#407BFF"></path><path d="M320.42,328.15l-.15,14.34a5.23,5.23,0,0,0,.23,1.67,3.67,3.67,0,0,0,.84-.35c2.12-1.19,3.87-4.44,3.9-7.26l.15-14.34a5.16,5.16,0,0,0-.23-1.66,3.61,3.61,0,0,0-.84.34C322.2,322.09,320.45,325.34,320.42,328.15Z" style="opacity:0.15"></path><path d="M346.27,332.91h0c-2.13,1.19-3.82-.12-3.79-2.93l.15-14.34c0-2.81,1.78-6.06,3.9-7.26h0c2.12-1.19,3.82.12,3.79,2.93l-.16,14.34C350.13,328.47,348.39,331.71,346.27,332.91Z" style="fill:#407BFF"></path><path d="M342.63,315.64,342.48,330a5.23,5.23,0,0,0,.23,1.67,4.18,4.18,0,0,0,.84-.35c2.12-1.19,3.87-4.44,3.9-7.26l.15-14.34a5.27,5.27,0,0,0-.23-1.67,4.18,4.18,0,0,0-.84.35C344.41,309.58,342.66,312.83,342.63,315.64Z" style="fill:#407BFF"></path><path d="M342.63,315.64,342.48,330a5.23,5.23,0,0,0,.23,1.67,4.18,4.18,0,0,0,.84-.35c2.12-1.19,3.87-4.44,3.9-7.26l.15-14.34a5.27,5.27,0,0,0-.23-1.67,4.18,4.18,0,0,0-.84.35C344.41,309.58,342.66,312.83,342.63,315.64Z" style="opacity:0.15"></path><path d="M309.92,358.19c-7.8-11-2.46-33.74,6.47-47.47-7.56,10.44-12.49,22.93-12.61,33.92-.2,18.8,13.74,26.09,31.15,16.3a59.52,59.52,0,0,0,15.69-13.31C339.58,360.58,318.25,369.92,309.92,358.19Z" style="fill:#fff;opacity:0.30000000000000004"></path><path d="M289.71,287.35a7.24,7.24,0,1,1-7.23-7.23A7.24,7.24,0,0,1,289.71,287.35Z" style="fill:#263238"></path><path d="M344,262.29a7.24,7.24,0,1,1-7.24-7.23A7.24,7.24,0,0,1,344,262.29Z" style="fill:#263238"></path><polygon points="268.68 214.78 208.82 179.29 219.43 173.31 279.29 208.81 268.68 214.78" style="fill:#407BFF"></polygon><polygon points="268.68 214.78 208.82 179.29 219.43 173.31 279.29 208.81 268.68 214.78" style="opacity:0.2"></polygon><polygon points="219.43 173.31 219.36 179.4 273.98 211.79 279.29 208.81 219.43 173.31" style="fill:#407BFF"></polygon><polygon points="219.43 173.31 219.36 179.4 214.06 182.39 208.82 179.29 219.43 173.31" style="opacity:0.2"></polygon></g></g></g><g id="freepik--Hourglass--inject-84"><g id="freepik--hourglass--inject-84"><path d="M148.55,381.33c0-7.27-4.8-14.53-14.4-20.07-19.19-11.08-50.31-11.08-69.5,0-9.6,5.54-14.4,12.8-14.4,20.07V388c0,7.27,4.8,14.53,14.4,20.07,19.19,11.08,50.31,11.08,69.51,0,9.6-5.54,14.39-12.8,14.39-20.07Z" style="fill:#37474f"></path><path d="M80.33,355.18a59.71,59.71,0,0,0-15.68,6.08c-9.6,5.54-14.4,12.8-14.4,20.07V388c0,7.27,4.8,14.53,14.4,20.07a59.71,59.71,0,0,0,15.68,6.08Z" style="fill:#263238"></path><path d="M64.64,361.26c-9.59,5.54-14.39,12.8-14.39,20.07s4.8,14.52,14.4,20.06c19.19,11.08,50.31,11.08,69.51,0,9.59-5.54,14.39-12.8,14.39-20.06s-4.8-14.53-14.39-20.07C115,350.18,83.84,350.18,64.64,361.26Z" style="fill:#455a64"></path><path d="M133.23,340.66a88.07,88.07,0,0,0-11.85-10.88c-4.08-3.12-7.36-5.16-9.5-7.24-3.93-3.83-4.8-6.74-4.8-9s.87-5.18,4.8-9,11.74-7.53,21.35-18.12,10.5-23.51,10.5-39h0c0-6.55-4.33-13.1-13-18.1-17.31-10-45.37-10-62.68,0-8.66,5-13,11.55-13,18.1h0c0,15.47.87,28.4,10.48,39S83,300.69,86.91,304.53s4.82,6.74,4.82,9-.88,5.17-4.82,9-11.73,7.53-21.35,18.12-10.48,23.5-10.48,39h0c0,6.55,4.32,13.1,13,18.09,17.31,10,45.37,10,62.68,0,8.66-5,13-11.54,13-18.09h0C143.73,364.16,142.85,351.25,133.23,340.66Z" style="fill:#407BFF"></path><path d="M133.23,340.66a88.07,88.07,0,0,0-11.85-10.88c-4.08-3.12-7.36-5.16-9.5-7.24-3.93-3.83-4.8-6.74-4.8-9s.87-5.18,4.8-9,11.74-7.53,21.35-18.12,10.5-23.51,10.5-39h0c0-6.55-4.33-13.1-13-18.1-17.31-10-45.37-10-62.68,0-8.66,5-13,11.55-13,18.1h0c0,15.47.87,28.4,10.48,39S83,300.69,86.91,304.53s4.82,6.74,4.82,9-.88,5.17-4.82,9-11.73,7.53-21.35,18.12-10.48,23.5-10.48,39h0c0,6.55,4.32,13.1,13,18.09,17.31,10,45.37,10,62.68,0,8.66-5,13-11.54,13-18.09h0C143.73,364.16,142.85,351.25,133.23,340.66Z" style="fill:#fff;opacity:0.8"></path><path d="M100.07,401.07c-11.26,0-21.8-2.37-29.67-6.75-7.37-4.1-11.32-9.44-11.32-15,0-14.81.71-26.92,9.62-36.74a90,90,0,0,1,15.49-13.47,52,52,0,0,0,5.71-4.51c3.92-3.81,5.83-7.53,5.83-11.38s-1.91-7.59-5.83-11.41a52.51,52.51,0,0,0-5.72-4.5A90.35,90.35,0,0,1,68.7,283.8c-8.91-9.81-9.62-21.92-9.62-36.74,0-5.59,4-11,11.31-15.2,7.88-4.55,18.41-7.05,29.68-7.05s21.8,2.5,29.67,7.05c7.3,4.21,11.32,9.61,11.32,15.2,0,14.82-.71,26.93-9.63,36.74a89.73,89.73,0,0,1-15.51,13.49,51.9,51.9,0,0,0-5.7,4.48c-3.91,3.82-5.81,7.55-5.81,11.41s1.9,7.57,5.81,11.38a50.85,50.85,0,0,0,5.67,4.47c1.24.89,2.65,1.9,4.13,3a83.76,83.76,0,0,1,11.41,10.47c8.92,9.82,9.63,21.93,9.63,36.74,0,5.6-3.93,11-11.32,15C121.78,398.7,111.33,401.07,100.07,401.07Z" style="fill:#fff;opacity:0.8"></path><path d="M148.55,242.91c0-7.27-4.8-14.53-14.4-20.07-19.19-11.08-50.31-11.08-69.5,0-9.6,5.54-14.4,12.8-14.4,20.07v6.71c0,7.26,4.8,14.53,14.4,20.07,19.19,11.08,50.31,11.08,69.51,0,9.6-5.54,14.39-12.81,14.39-20.07Z" style="fill:#37474f"></path><path d="M80.33,216.76a59.36,59.36,0,0,0-15.68,6.08c-9.6,5.54-14.4,12.8-14.4,20.07v6.71c0,7.26,4.8,14.53,14.4,20.07a59.71,59.71,0,0,0,15.68,6.08Z" style="fill:#263238"></path><path d="M64.64,222.84c-9.59,5.54-14.39,12.8-14.39,20.07s4.8,14.52,14.4,20.06c19.19,11.08,50.31,11.08,69.51,0,9.59-5.54,14.39-12.8,14.39-20.06s-4.8-14.53-14.39-20.07C115,211.76,83.84,211.76,64.64,222.84Z" style="fill:#455a64"></path><path d="M135.91,354.62h0c-1-3.85-4.45-7.57-10.25-10.53-14.13-7.21-37-7.21-51.16,0-5.8,3-9.22,6.68-10.25,10.53h0c-1.11,4.06-2.65,12.13-2.65,24.21,0,5,3.75,10.06,11.27,13.89,15,7.68,39.41,7.68,54.44,0,7.52-3.83,11.27-8.86,11.27-13.89h0C138.56,366.75,137,358.68,135.91,354.62Z" style="fill:#ffc107"></path><path d="M74.49,344.09c-7.07,3.61-10.6,8.33-10.6,13.06s3.54,9.45,10.6,13.05c14.13,7.21,37,7.21,51.16,0,7.06-3.6,10.6-8.33,10.59-13.05s-3.53-9.45-10.59-13.06C111.52,336.88,88.62,336.88,74.49,344.09Z" style="fill:#fff;opacity:0.2"></path><path d="M109.27,294c-7.63,2.37-9.56,1.12-17.3-4.34a30.9,30.9,0,0,0-6.44-3.43c-2.49-.79-6.08.23-4.24,2.84,2.53,3.6,5.59,5.47,7.82,7.35a40.46,40.46,0,0,1,4.5,4.18c3.28,3.75,4.89,7.51,4.9,11.47s.57,4.85,1.67,4.85,1.66-.89,1.64-4.86,1.57-7.73,4.84-11.5a41,41,0,0,1,4.47-4.21C114.22,293.74,111.9,293.22,109.27,294Zm-9.08,26.22a2.37,2.37,0,1,0,2,2.33A2.18,2.18,0,0,0,100.19,320.25Z" style="fill:#ffc107"></path></g></g><g id="freepik--Character--inject-84"><g id="freepik--character--inject-84"><g id="freepik--Bottom--inject-84"><path d="M376.47,338.18s1.39,20.69,1.61,29.09c0,.62,5.81,3.26,10.08,2.52s5.4-2.23,5.4-2.68c0-1.55,1.55-3.63,1.71-5.17,1-9.79,1.62-16.63,2.37-23.59Z" style="fill:#ffbda7"></path><path d="M354.07,388c-.29,0-.67,3.12.94,4.41,1.85,1.49,7.25,3.91,14.29,2.9s9-2.41,11.76-4.75,5.32-4.79,8.5-5.53c2.95-.69,7.44-1.92,8.37-2.82s.72-4.86.72-4.86Z" style="fill:#263238"></path><path d="M395.58,360.27a1.28,1.28,0,0,1,1.22.92c.24,1.09.54,4.25,1,6a43.57,43.57,0,0,1,.7,11.51c-.34,2-6.45,3.4-9.51,4.59a29.25,29.25,0,0,0-8.54,5.45,22.06,22.06,0,0,1-12.95,4.86c-5.44.05-11.61-1.56-13.06-4-1.81-3-2.12-5.91,5.87-9.68,1.52-.71,6.17-3.47,8-4.62a35.11,35.11,0,0,0,5.53-4.24,28.61,28.61,0,0,0,2-2.1,6.49,6.49,0,0,0,1.07-2.23c.45-1.45.22-3,.44-4.51a.76.76,0,0,1,.13-.39.78.78,0,0,1,.36-.22,9.74,9.74,0,0,1,3.95-.26,16.23,16.23,0,0,1,4,.8,3.4,3.4,0,0,1,1.85,1.1,2.76,2.76,0,0,1,.39,1.46,11,11,0,0,0,.08,1.52.82.82,0,0,0,.22.49c.28.27.71,0,.94-.17a20.1,20.1,0,0,0,2.12-2.57c.37-.47,2.08-.78,2.55-1.16a12.87,12.87,0,0,0,1.37-.89C395.83,361.5,395.57,360.9,395.58,360.27Z" style="fill:#37474f"></path><path d="M380.49,388.77a41.74,41.74,0,0,1,3.69-2.85h0s-8.53,3.45-12.42,1c-2.51-1.6-1.38-3.61-1.33-4.24s-6.11-3.26-8.51-3.5h0c-.66.37-1.22.67-1.57.83-8,3.77-7.68,6.68-5.87,9.68,1.45,2.42,5.93,4.26,13,4.14A22.64,22.64,0,0,0,380.49,388.77Z" style="fill:#455a64"></path><path d="M371.06,380.77c-5,2-2.82,2.91-1.41,3.08s8.41-3.91,13.48-8c5.29-4.22,9.88-8.66,11.84-10.21.73-.58,1.52-1.28,2.22-1.95-.15-1.07-.28-2-.39-2.55-.21-.91-1.33-1.16-1.33-1.16l-.2,1.91a3.67,3.67,0,0,1-1.37.79,6.5,6.5,0,0,0-2.47,1.3,20.1,20.1,0,0,1-2.12,2.57C385,372.08,376,378.74,371.06,380.77Z" style="fill:#263238"></path><path d="M370,383.13a.49.49,0,0,0,.37-.8,12.19,12.19,0,0,0-9.27-3.36.48.48,0,1,0,.12.95,11.31,11.31,0,0,1,8.39,3A.52.52,0,0,0,370,383.13Z" style="fill:#f0f0f0"></path><path d="M374.32,380.66a.52.52,0,0,0,.32-.11.48.48,0,0,0,.07-.68,12.18,12.18,0,0,0-9.19-3.57.48.48,0,0,0-.44.53.5.5,0,0,0,.55.43,11.23,11.23,0,0,1,8.31,3.22A.57.57,0,0,0,374.32,380.66Z" style="fill:#f0f0f0"></path><path d="M378.32,377.86a.49.49,0,0,0,.37-.8,12.17,12.17,0,0,0-9.27-3.36.48.48,0,0,0-.43.54.49.49,0,0,0,.56.42,11.24,11.24,0,0,1,8.38,3A.54.54,0,0,0,378.32,377.86Z" style="fill:#f0f0f0"></path><path d="M381.85,375.33a.5.5,0,0,0,.31-.1.47.47,0,0,0,.09-.68,12.23,12.23,0,0,0-9.12-3.74.49.49,0,0,0-.45.52.5.5,0,0,0,.54.44,11.28,11.28,0,0,1,8.25,3.38A.49.49,0,0,0,381.85,375.33Z" style="fill:#f0f0f0"></path><path d="M385.64,372.36a.5.5,0,0,0,.31-.1.46.46,0,0,0,.09-.67c-1.9-2.43-6.28-4.09-10-3.77a.48.48,0,0,0-.45.52.51.51,0,0,0,.54.44c3.33-.29,7.41,1.24,9.1,3.39A.51.51,0,0,0,385.64,372.36Z" style="fill:#f0f0f0"></path><path d="M436.77,341.9l-20,.14L421,367.5l1,6.5c.7,4.72,11.86,6,14.56-1.33l-.09-6.38C436.54,360.42,436.62,350.66,436.77,341.9Z" style="fill:#ffbda7"></path><path d="M420.55,399.37c.05,4.83.64,8.06,2.22,11s4.75,4,8.06,3.28,7.59-2.68,8.73-6.79,1.09-7,.56-11.47Z" style="fill:#263238"></path><path d="M436.46,366.29c1.12.42,1.09,7,1.55,13.55.5,7,1.62,9.13,2.09,14.86.53,6.55,0,8.7-2.5,12.52s-10.72,7.29-14.42,1.47c-3-4.75-2.83-9.11-2.22-15.59a135.51,135.51,0,0,0,.7-15.48c0-4.88-1.86-9.63-.67-10.12-.22.09.1,3.41.17,3.7a6.17,6.17,0,0,0,.61,1.83c.59.94,1-.53,1-1.09,0-1-.24-1.74.55-2.51a5.71,5.71,0,0,1,2.07-1.05,12.41,12.41,0,0,1,2.48-.58,25.91,25.91,0,0,1,5.21,0,2.51,2.51,0,0,1,2,.93,1.59,1.59,0,0,1,.17.52c.1.65,0,1.3.09,1.94,0,.18.08.65.24.76s.45.09.47,0S436.53,367.43,436.46,366.29Z" style="fill:#37474f"></path><path d="M439.93,392.46c.09,1,.45,6.84-1.29,7.87s-2.66-3.81-2.66-3.81-4.23-1.52-10.61.92c.27,1-.86,4.3-2.54,3.51s-1.92-7.2-1.92-7.29c-.56,6.21-.66,10.42,2.27,15,3.7,5.82,12,2.36,14.42-1.47s3-6,2.5-12.52C440.05,394.05,440,393.05,439.93,392.46Z" style="fill:#455a64"></path><path d="M435.47,396.92c-.09,2.35,2,1.64,2.53-1.65.72-4.93-.28-9.72,0-15.43-.46-6.52-.21-13.38-1.55-13.55,0,1.13-.45,5.58-.45,5.58.18,4.87,1.18,10.59.74,15.58C436.37,391.84,435.56,394.57,435.47,396.92Z" style="fill:#263238"></path><path d="M426.09,397.41c-.33-2.33-1-3-1.3-7.43s-2.29-12.36-3-17.14c-.18-1.48-.81-5.29-.82-5.34-.86.37-.65,3.13-.13,6.09s.87,4.78,1.16,7.62c.89,5.65.77,11.6,1.37,14.87S426.42,399.74,426.09,397.41Z" style="fill:#263238"></path><path d="M425.55,397.49a.41.41,0,0,0,.19,0,15.88,15.88,0,0,1,10.42-.57.5.5,0,0,0,.3-1,16.67,16.67,0,0,0-11.14.62.5.5,0,0,0-.24.67A.48.48,0,0,0,425.55,397.49Z" style="fill:#f0f0f0"></path><path d="M424.42,392.76a.47.47,0,0,0,.17,0c.06,0,6.17-2.48,12.16-.79a.5.5,0,1,0,.28-1c-6.34-1.79-12.58.73-12.83.83a.5.5,0,0,0,.22,1Z" style="fill:#f0f0f0"></path><path d="M437.63,388.15a.51.51,0,0,0,.44-.32.51.51,0,0,0-.28-.65c-5.94-2.33-14,.11-14.27.23a.49.49,0,0,0-.24.66.51.51,0,0,0,.66.25c.06,0,8-2.38,13.48-.2Z" style="fill:#f0f0f0"></path><path d="M436.85,383.89a.5.5,0,0,0,.17-1c-6.52-2.7-13.51.61-13.76.74a.5.5,0,0,0-.2.68.51.51,0,0,0,.68.2c.06,0,6.83-3.21,12.9-.7A.52.52,0,0,0,436.85,383.89Z" style="fill:#f0f0f0"></path><path d="M436.69,378.73a.5.5,0,0,0,.18-1c-6.11-2.63-13.59.73-13.86.87a.5.5,0,0,0-.21.67.49.49,0,0,0,.67.22c.06,0,7.33-3.29,13-.85A.35.35,0,0,0,436.69,378.73Z" style="fill:#ebebeb"></path><path d="M404.41,277l-3,21.34s.6,12.86-.32,21.29c-1.2,11-3.5,24.49-4.71,33.83-9.63,5.69-19.33.21-19.33.21s-2.92-42.45-3.23-56.69c-.4-18.63-1.51-60.23-.93-79h61.14s.84,15.75,1.07,30.9c.31,19.67,1.77,42.54,1.77,42.54,4.62,18.87,1.7,37.54.25,65.75-8.79,4.6-18.3.63-18.3.63s-4.46-25.86-6.91-39.48c-2.71-15-5.31-27.78-7.55-41.27" style="fill:#455a64"></path><path d="M381.06,247.31,380,270.43c0,3.68-.61,11.77-.58,15.46s-.12,8.78.09,15.19.73,24.73.64,32.13C378.85,325,378.25,306.63,378,297s.26-15.93,1-26.66S380.32,254.66,381.06,247.31Z" style="fill:#37474f"></path><path d="M413.73,246.92c2.14,14.63,5.28,40.72,6.36,49.09s5.4,35.45,6.21,43.89c-1.47-8.35-6.74-35.24-7.9-43.67S414.49,262.94,413.73,246.92Z" style="fill:#37474f"></path><path d="M399,246.22,404.41,277l-3,21.34-.39-24.44-5.37-25.07s-10.09-3-12.72-13.25C388.13,243.87,399,246.22,399,246.22Z" style="fill:#37474f"></path></g><g id="freepik--Top--inject-84"><path d="M286.62,138.6l-.31-.08a2.59,2.59,0,0,0-1.9.13c-1.22.66-1.39,2.38-1,3.69a2.7,2.7,0,0,1,.19.92,4.07,4.07,0,0,1-.26,1c-.41,1.38.44,2.79,1.21,4a1.41,1.41,0,0,1,.28.75,1.88,1.88,0,0,1-.1.47,3.6,3.6,0,0,0,1,2.85,32.87,32.87,0,0,0,2.35,2.78,14.65,14.65,0,0,0,2.28,2,16.23,16.23,0,0,0,2.8,1.47c2.61,1.14,5.3,2.11,8,3,2.51.84,5.17,1.42,7.58,2.47,5.73,2.5,26.38,12.77,30.39,14.39s7.2.26,15.73-1.8c11-2.65,25.83-7.83,25.83-7.83l.91-1.1,1.15-22.6c-4.46,0-10.73,3.81-13.17,4.77-13.49,5.29-25.71,10-25.71,10-8.58-2.09-17.52-3.71-25.88-6.53a15.52,15.52,0,0,1-6.11-3.26c-1.8-1.75-2.42-4.2-4.26-6-1.32-1.27-2.93-2.21-4.25-3.47a17.36,17.36,0,0,1-2-2.38c-.4-.55-.56-1.37-1.08-1.82s-1.49-.14-1.91.55a5.6,5.6,0,0,0-.31,4.27c.38,1.5,1.33,2.67,1.93,4.08.06.17.12.38,0,.51a.38.38,0,0,1-.26.1,4.23,4.23,0,0,1-3-1.06c-2.15-1.63-3.65-4-5.69-5.74a6,6,0,0,0-2.11-1.42,1.5,1.5,0,0,0-1.5.3c-.19.2-.32.47-.58.54A.6.6,0,0,1,286.62,138.6Z" style="fill:#ffbda7"></path><path d="M383.3,144.14c-5.46.87-8.24,2.21-16.27,5.68-11.29,4.89-15.39,6.61-15.39,6.61s-1.83,3.9-1,10.6,4.68,9.91,4.68,9.91L382,169.27Z" style="fill:#407BFF"></path><g id="freepik--Chest--inject-84"><path id="freepik--chest--inject-84" d="M414.24,142.44c8.24,3.21,12.43,4.85,17.26,6.87,0,0,10.66,3.33,6.1,22a128.24,128.24,0,0,0-2.4,17,164.89,164.89,0,0,0-.81,19.4c.14,7.77.11,13.27.27,17.7,0,0-11.72,7.29-36.75,4.92-19.65-1.86-25.23-8.81-25.23-8.81V179.16c0-23.92,5.28-30.77,10.62-35,.7-.42,14.49-1.94,14.49-1.94Z" style="fill:#263238"></path></g><g id="freepik--Head--inject-84"><path d="M395.88,91.05c10.73-2.7,22.51.5,25.45,10.59,4.3.34,5.52,4.11,5.86,8.19,1.17,13.74-10.78,20.11-13,26.66l-31-25.8C379.8,103.55,382.54,94.41,395.88,91.05Z" style="fill:#37474f"></path><path d="M407.88,106.67a16,16,0,0,0,.9,3c.61,1.91,2.33,3.22,2.9,5.18.46,1.55,0,3.69,1.44,4.71,2.33,1.6,3.74-2,5.34-3,2.5-1.55,5.73-.89,6.87,2,1.59,4-.41,8.53-3,10.1a4.46,4.46,0,0,1-5.77-.6l-.51,15.2a17.44,17.44,0,0,1-16.41,7.59c-6.86-.84-5.66-4.73-3.1-7.3l.1-4a16.89,16.89,0,0,1-5.29-1.12,11,11,0,0,1-7-8.93c-1-5.51.05-11,.24-15.76.14-3.4-.11-8.51,3.78-9.94a11.51,11.51,0,0,1,3.56-.48c2-.08,3.91.43,5.84.15a11,11,0,0,1-2.67,2,17.93,17.93,0,0,0,6.73-.15,29.61,29.61,0,0,0,6.18-1.94A12.39,12.39,0,0,0,407.88,106.67Z" style="fill:#ffbda7"></path><polygon points="397.91 112.25 396.69 124.03 390.35 121.15 397.91 112.25" style="fill:#f0997a"></polygon><path d="M401.07,125.74,395.26,128a3.08,3.08,0,0,0,4,1.82A3.18,3.18,0,0,0,401.07,125.74Z" style="fill:#b16668"></path><path d="M397.37,129.92a3.07,3.07,0,0,0,1.89-.1,3.15,3.15,0,0,0,2-3.12A4.68,4.68,0,0,0,397.37,129.92Z" style="fill:#f28f8f"></path><path d="M401.78,111.46l4.29,1.34a2.29,2.29,0,0,0-1.49-2.84A2.23,2.23,0,0,0,401.78,111.46Z" style="fill:#263238"></path><path d="M391.67,110.64l-4.41.87a2.29,2.29,0,0,1,1.8-2.66A2.21,2.21,0,0,1,391.67,110.64Z" style="fill:#263238"></path><path d="M404.71,116.46a1.83,1.83,0,1,1-1.67-2A1.82,1.82,0,0,1,404.71,116.46Z" style="fill:#263238"></path><path d="M391.67,115.36a1.83,1.83,0,1,1-1.67-2A1.81,1.81,0,0,1,391.67,115.36Z" style="fill:#263238"></path><path d="M396.63,139.65a29.11,29.11,0,0,0,9-1.21c3.28-1.05,5.34-2.11,7.48-6.11a9.55,9.55,0,0,1-2.83,5.73c-4.22,3.63-13.73,3.74-13.73,3.74Z" style="fill:#f0997a"></path></g></g><g id="freepik--Timer--inject-84"><g id="freepik--Clock--inject-84"><g id="freepik--clock--inject-84"><path d="M295.62,131l11-6.35,0,0,.08-.05h0c5.33-3,12.67-2.55,20.77,2.12C343.81,136.13,357,159,357,177.84c0,9.35-3.26,15.94-8.55,19h0l-.08.05,0,0-11,6.35-1.88-4.94a31.68,31.68,0,0,1-8.16-3.38c-16.3-9.41-29.51-32.3-29.51-51.12a31.56,31.56,0,0,1,1.13-8.69Z" style="fill:#455a64"></path><path d="M356.76,173.24a42.28,42.28,0,0,1,.26,4.6c0,9.35-3.26,15.94-8.55,19h0l-.08.05,0,0-11,6.35-1.88-4.94q-.92-.23-1.86-.54l-2.79-9.62Z" style="fill:#263238"></path><ellipse cx="316.39" cy="167.22" rx="24.1" ry="41.74" transform="matrix(0.87, -0.5, 0.5, 0.87, -41.22, 180.6)" style="fill:#37474f"></ellipse><path d="M293.59,139.31c4.14-6.62,12.17-7.64,21.48-2.72,15.39,8.13,27.84,29.7,27.19,47.09a23.28,23.28,0,0,1-3.07,11.45c-4.15,6.62-12.18,7.64-21.48,2.73-15.39-8.14-27.84-29.7-27.19-47.1a23.28,23.28,0,0,1,3.07-11.45Z" style="fill:#263238"></path><path d="M320.71,196.17c5.92,3.13,11.32,3.84,15.54,2.25a12.5,12.5,0,0,0,2.94-3.29,23.28,23.28,0,0,0,3.07-11.45c.65-17.39-11.8-39-27.19-47.09-5.93-3.13-11.33-3.85-15.55-2.25a12.76,12.76,0,0,0-2.93,3.28h0a23.27,23.27,0,0,0-3.07,11.44C292.86,166.47,305.32,188,320.71,196.17Z" style="fill:#fafafa"></path><path d="M316.31,167.22l16.28-1.09q-5.94-11.61-14.7-17.49Z" style="fill:#407BFF;opacity:0.30000000000000004"></path><path d="M318.2,140.87a1.45,1.45,0,0,1,.62,1.14v3.19c0,.43-.28.61-.62.41a1.43,1.43,0,0,1-.62-1.13v-3.2C317.58,140.86,317.85,140.67,318.2,140.87Z" style="fill:#407BFF"></path><path d="M297,153.12a1.45,1.45,0,0,0,.67,1.1l2.77,1.6c.37.22.67.07.67-.33a1.44,1.44,0,0,0-.67-1.11l-2.77-1.6C297.29,152.57,297,152.72,297,153.12Z" style="fill:#407BFF"></path><path d="M340.18,179a1.43,1.43,0,0,0-.67-1.11l-2.77-1.6c-.37-.21-.67-.06-.67.33a1.47,1.47,0,0,0,.68,1.11l2.76,1.6C339.88,179.49,340.18,179.34,340.18,179Z" style="fill:#407BFF"></path><path d="M319,191.19a1.45,1.45,0,0,1-.62-1.14v-3.19c0-.43.28-.61.62-.41a1.45,1.45,0,0,1,.62,1.13v3.2C319.6,191.21,319.32,191.39,319,191.19Z" style="fill:#407BFF"></path></g><polygon points="316.94 168.37 332.59 166.13 315.72 166.13 316.94 168.37" style="fill:#407BFF"></polygon><path d="M316.34,148.94s-1.45,13.45-1.9,16.57a2.23,2.23,0,0,0-.07.55,4.47,4.47,0,0,0,2,3.49,1.41,1.41,0,0,0,1.42.14l1.08-.62a1.41,1.41,0,0,0,.6-1.31c.19-3.22-1-18.69-1-18.69l-1.05-.75Z" style="fill:#37474f"></path><path d="M314.37,166.06a4.47,4.47,0,0,0,2,3.49c1.11.64,2,.12,2-1.17.19-3.21-1-18.68-1-18.68l-1.05-.76S314.38,164.77,314.37,166.06Z" style="fill:#455a64"></path><path d="M315.48,166.7a2,2,0,0,0,.91,1.57c.5.29.91.06.91-.52a2,2,0,0,0-.91-1.58C315.89,165.88,315.48,166.11,315.48,166.7Z" style="fill:#263238"></path><rect x="301.58" y="164.16" width="0.27" height="3.26" transform="translate(101 445.5) rotate(-83.13)" style="fill:#37474f"></rect><rect x="308.73" y="180.65" width="3.26" height="0.27" transform="translate(22.17 395.16) rotate(-66.86)" style="fill:#37474f"></rect><rect x="325.06" y="151.24" width="3.26" height="0.27" transform="translate(59.12 392.31) rotate(-66.86)" style="fill:#37474f"></rect><rect x="335.21" y="164.73" width="0.27" height="3.26" transform="translate(130.04 479.39) rotate(-83.13)" style="fill:#37474f"></rect><rect x="299.15" y="142.92" width="0.27" height="4.37" transform="translate(-20.68 235.96) rotate(-41.72)" style="fill:#37474f"></rect><rect x="309.98" y="136.67" width="0.27" height="4.37" transform="translate(-27.92 104.47) rotate(-18.31)" style="fill:#37474f"></rect><rect x="326.93" y="191.05" width="0.27" height="4.37" transform="translate(-44.15 112.54) rotate(-18.31)" style="fill:#37474f"></rect><rect x="337.77" y="184.8" width="0.27" height="4.37" transform="translate(-38.72 272.38) rotate(-41.73)" style="fill:#37474f"></rect></g></g><path d="M431.7,150.06c10.45,5.86,10.18,17.45-1.85,31-12.76,14.39-15.25,17.72-18.49,20.57-5.76,5.08-7.84,3.68-18.42,2.54-.69-.07-1.38-.16-2.07-.24-6.52-.83-13-2.2-19.4-3.45-10.15-2-17.06-3.75-21-5.56s-8.2-4.11-11.09-7.52a33.27,33.27,0,0,1-3.16-4.16c-1.19-2-2.55-4.23-2.31-6.64a3.23,3.23,0,0,1,.64-1.72.72.72,0,0,0,.14-.24.69.69,0,0,0,0-.2,7.66,7.66,0,0,1-.24-1.7,1.72,1.72,0,0,1,.42-1.11c.06-.06.76-.59.78-.52a4.54,4.54,0,0,1-.13-1.16,1.21,1.21,0,0,1,.31-.95,1.78,1.78,0,0,1,1.57-.22,3.34,3.34,0,0,1,1.93,1.3,2.2,2.2,0,0,1,2.07,0,5.83,5.83,0,0,1,2.3,1.85q1.69,2.16,3.59,4.19a6.93,6.93,0,0,0,5.48,2.44,3.58,3.58,0,0,0,2-.52,3.54,3.54,0,0,0,1-1.33,8.25,8.25,0,0,0,.89-4.58c2.55,2.24,3.1,6.08,5.32,8.64a10.69,10.69,0,0,0,4.16,2.82c3.68,1.46,7.92,1.45,11.84,1.52,4.17.07,19.6-.19,21.59-.34L415.62,164S425.54,151.09,431.7,150.06Z" style="fill:#ffbda7"></path><path d="M339.19,171.46a34,34,0,0,0,8.31,11.37,20.5,20.5,0,0,1-8.31-11.37Z" style="fill:#f0997a"></path><path d="M334.93,175.28a36.7,36.7,0,0,0,7.82,11.09,20.72,20.72,0,0,1-7.82-11.09Z" style="fill:#f0997a"></path><path d="M336,171.65a41,41,0,0,0,3.44,7,52.63,52.63,0,0,0,5.11,5.88A21.73,21.73,0,0,1,336,171.65Z" style="fill:#f0997a"></path><path d="M356.64,172.13c2.11,1.52,3,4.15,4.21,6.34a11.37,11.37,0,0,0,5.27,5.12c-6.35-1.64-6.05-7.3-9.48-11.46Z" style="fill:#f0997a"></path><path d="M431.5,149.31c9.43,5,11.22,14.37,5.84,22.38-8.91,13.26-15.81,18.86-15.81,18.86s-5.75.48-10.73-5-5.36-9-5.36-9,7.29-9.09,11.74-14.85C421.38,156.21,425.73,151.38,431.5,149.31Z" style="fill:#407BFF"></path></g></g></svg>
