<svg id="Layer_2" data-name="Layer 2" xmlns="http://www.w3.org/2000/svg" viewBox="0 0 400 300" data-imageid="revenue-f" imageName="Revenue" class="illustrations_image" style="width: 219px;"><title>0</title><path d="M372.76,160.48c-38.57,20.7-152,86.18-187.77,106.85a21.68,21.68,0,0,1-21.79,0l-136-79.42c-5.41-3.16-3.68-9.13,1.77-12.22L218.75,65.37a6.49,6.49,0,0,1,6.41,0l147.73,84A6.33,6.33,0,0,1,372.76,160.48Z" fill="#6287ef"/><path d="M209.18,72.67s-3.23,22.08,10.67,22.15c13.35.07,9.91-22.42,9.91-22.42S220,64,209.18,72.67Z" fill="#68e1fd" class="target-color"/><path d="M209.18,72.67s-3.23,22.08,10.67,22.15c13.35.07,9.91-22.42,9.91-22.42S220,64,209.18,72.67Z" opacity="0.15"/><ellipse cx="219.43" cy="72.67" rx="10.27" ry="4.24" fill="#68e1fd" class="target-color"/><ellipse cx="219.43" cy="72.67" rx="10.27" ry="4.24" opacity="0.7"/><path d="M203.26,40.44s-7.16-1.72-4.41-7.68C198.85,32.76,203.77,33.73,203.26,40.44Z" fill="#938f05"/><path d="M207.61,46.44s-1-5.09,3-7.15C210.6,39.3,213.79,44.63,207.61,46.44Z" fill="#938f05"/><path d="M212.08,54.25s-1.19-6.09,3.57-8.55C215.65,45.7,219.47,52.08,212.08,54.25Z" fill="#938f05"/><path d="M215.54,62.76s-1.19-6.09,3.57-8.55C219.11,54.21,222.93,60.59,215.54,62.76Z" fill="#938f05"/><path d="M207.18,46.58s-2.53-4.53-6.89-3.53C200.29,43,201.29,49.18,207.18,46.58Z" fill="#938f05"/><path d="M211.71,54.44s-3.23-5.3-8.4-3.9C203.3,50.54,204.78,57.83,211.71,54.44Z" fill="#938f05"/><path d="M215.14,62.83s-3.8-4.91-8.78-3C206.36,59.88,208.63,67,215.14,62.83Z" fill="#938f05"/><path d="M217.82,77h.1a5,5,0,0,1,1,.08.49.49,0,0,0,0-.1,73.42,73.42,0,0,0-15.44-37.27c-.45-.56-1.23.23-.79.79a72.07,72.07,0,0,1,15.11,36.48Z" fill="#42352f"/><path d="M234.76,50.16s6.14-1.47,3.78-6.59C238.55,43.57,234.32,44.41,234.76,50.16Z" fill="#938f05"/><path d="M231,55.31s.85-4.37-2.56-6.13C228.47,49.19,225.72,53.76,231,55.31Z" fill="#938f05"/><path d="M227.2,62s1-5.23-3.06-7.33C224.14,54.68,220.85,60.15,227.2,62Z" fill="#938f05"/><path d="M224.23,69.31s1-5.23-3.06-7.33C221.17,62,217.89,67.45,224.23,69.31Z" fill="#938f05"/><path d="M231.4,55.43s2.17-3.89,5.91-3C237.31,52.4,236.46,57.66,231.4,55.43Z" fill="#938f05"/><path d="M227.52,62.17s2.77-4.54,7.21-3.35C234.73,58.82,233.46,65.08,227.52,62.17Z" fill="#938f05"/><path d="M224.57,69.37s3.26-4.21,7.53-2.53C232.11,66.84,230.16,72.91,224.57,69.37Z" fill="#938f05"/><path d="M234.57,49.51A63,63,0,0,0,222,76.88c.32-.05.66-.1,1-.13a61.82,61.82,0,0,1,12.23-26.57C235.62,49.71,235,49,234.57,49.51Z" fill="#42352f"/><polygon points="325.02 111.67 325.07 163.83 213.72 230.49 213.72 174.15 325.02 111.67" fill="#76b52c"/><polygon points="150.66 141.46 150.66 194.1 213.72 230.49 213.72 174.15 150.66 141.46" fill="#8cce46"/><polyline points="324.12 112.83 213.09 180.93 150.66 144.52 204.44 123.81" fill="#63a01c"/><path d="M143.64,140.41l61.87,36.17a157.51,157.51,0,0,0,53.71-19.16c27.68-16,65.81-45.74,65.81-45.74L268.16,78.33l-80.45,48.1S165.48,137.41,143.64,140.41Z" fill="#8cce46"/><path d="M150.66,141.46l55.92,32.69s26.12-5.16,51.14-19.61,59.48-41.35,59.48-41.35L265.82,83.05,193.1,126.53A215.43,215.43,0,0,1,150.66,141.46Z" fill="none" stroke="#736357" stroke-miterlimit="10"/><ellipse cx="240.78" cy="129.52" rx="28.63" ry="17.37" fill="#63a01c"/><path d="M65.27,190.09a28.07,28.07,0,0,1,1.37-13.45c2.57-7,13.78,11.67,13.78,11.67" fill="#f2ae16"/><path d="M99.87,168.63c16.3,2.18,27.36,13,24.7,24.13s-18,18.41-34.34,16.23-27.36-13-24.7-24.13S83.57,166.45,99.87,168.63Z" fill="#f2ae16"/><path d="M100.37,162.36c16.3,2.18,27.36,13,24.7,24.13s-18,18.41-34.34,16.23-27.36-13-24.7-24.13S84.07,160.18,100.37,162.36Z" fill="#ffd008"/><path d="M99.78,164.85c14.29,1.91,24,11.38,21.65,21.14s-15.8,16.13-30.09,14.22-24-11.38-21.65-21.14S85.49,162.94,99.78,164.85Z" fill="none" stroke="#f7931e" stroke-miterlimit="10"/><path d="M96.1,173.89a7.23,7.23,0,0,0-3.83,6.88q-4.35.61-8.68,1.26a6.31,6.31,0,0,1,.19-1.75c.45-1.75-3.22-2-3.67-.31a6.55,6.55,0,0,0-.08,2.61l-4.79.75c-2.31.37-1.76,3.11.57,2.73l5.08-.79a10.22,10.22,0,0,0,11.9,5.47c4.11-1.08,3.92-4.18,3.53-6.89,0-.27-.08-.54-.13-.81q4.13-.56,8.28-1.08a17.67,17.67,0,0,1-.59,3.66c-.47,1.75,3.2,2,3.67.31a16.4,16.4,0,0,0,.58-4.42l2.86-.35c2.35-.27,1.78-3-.57-2.73l-2.65.32a8.11,8.11,0,0,0-2.4-4A8.36,8.36,0,0,0,96.1,173.89Zm-3.23,11.64c-1,2.58-3.53,3.16-6.14,1.56a6.82,6.82,0,0,1-2.37-2.35q4.16-.63,8.33-1.21A4.23,4.23,0,0,1,92.87,185.53Zm9.65-9.06a4.64,4.64,0,0,1,1.7,2.73q-4.14.52-8.27,1.08a5.88,5.88,0,0,1,.06-.75C96.37,177.39,99,174,102.52,176.47Z" fill="#f7931e"/><path d="M158.66,25.14l-23,10.31,9.18,5.3-24,49.42L93.48,80.76,74.52,128c3.66,2.19,7.37,4.29,11,6.54l15.06-38.23,26.89,8.52,26.58-59,10.43,6.28Z" fill="#68e1fd" class="target-color"/><polygon points="179.27 158.33 185.55 155.85 183.62 145.72 177.76 144.48 179.27 158.33" fill="#7c1251"/><path d="M271.22,65.9s3.33,1.19,3.7,1.19,6.23-.07,5.85,3.37S271.22,73,271.22,73L267,68.57" fill="#ea831c"/><path d="M283,70.06l-4.69-1.56s-5.7-1.23-6.26,0,1,5.3,1.57,5.43l4.32,1,4.26.49" fill="#f7931e"/><path d="M246,115.7s-29.08,19.1-31.93,19.37-31.53,11.47-31.53,11.47,1.42,7.22.66,10.54c0,0,52.4-13.2,59-15.45s21.76-17.26,17.89-21.3S246,115.7,246,115.7Z" fill="#e86a58"/><path d="M262.82,85.6c-2.38-2.25-6.35-12.3-5.38-14.62s7.38,1.52,7.38,1.52l6.41-6.59s-8.93-7.35-13.2-8.53-7.57.2-8.93,5.33,3.11,23.18,2.54,27-5.64,26-5.64,26c4.08,7,20.77,10.68,23.1,10.09s14.17-27.06,14.17-27.06,22.13-14.42,19.22-21.14S286.75,69,284.13,68.68s-4.61,8.16-4.61,8.16,8.39,2.36,9.17,3.44-2.91,3.83-9.9,5.34-8.54.67-8.54.67" fill="#68e1fd" class="target-color"/><path d="M179.27,158.33s.54-4.79.92-7,1.77-14.47-3.79-14.05-2,12.35-2.21,13.67-.74,5.05.08,6.21S177.48,159.58,179.27,158.33Z" fill="#7c1251"/><path d="M172.28,148.82s-2,1.37-3.37-.26-2.13-14.95-3.14-17.61-1.12-7.38,2.13-7.69,3.71,1.29,4.38,3.43,3.29,8.76,5.73,9.6a57.72,57.72,0,0,0,6.18,1.59l-.56,7.84Z" fill="#981e61"/><path d="M265.25,89.16S259.54,115,259.3,115.7s-5.42,3.71-5.42,3.71l-1.15-4.65,10.93-26.08Z" fill="#091114"/><path d="M272.8,86.49s-7.46,6.45-7.13,6-1.59-3-1.59-3l-3.35,1,3.83-6.7" fill="#091114"/><path d="M261,74.48s-2.82,10.44,1.84,12.73,7.93-1.12,9.35-4.24S273,72.56,267,71.81C261.75,71.16,261,74.48,261,74.48Z" fill="#f7931e"/><path d="M259.72,72.6a1.89,1.89,0,0,0,1,3,2.68,2.68,0,0,0,2.25-.46c.76-.54,1.44-1.43,2.49-1a1.51,1.51,0,0,1,.93,1.47,4.82,4.82,0,0,0-.15,1.24,1.26,1.26,0,0,0,1.38.91c1,0,1.78-.46,2.64.31a1.94,1.94,0,0,1,.35,2.4,2.74,2.74,0,0,0-.4.55c-.16.28.16.49.41.41a.33.33,0,0,0,.18-.1,2.67,2.67,0,0,0,.35-.48.79.79,0,0,1,.72-.2c.67.18.39.88,0,1.24a2.56,2.56,0,0,1-2.15.76.33.33,0,0,0-.27.56.31.31,0,0,0-.09.27,3.38,3.38,0,0,1-.32,2,.35.35,0,0,0,.11.49.27.27,0,0,0,.35.29,8.74,8.74,0,0,0,3.32-1.71,14.37,14.37,0,0,0,4.43-7.68c.63-2.86-.16-7.06-3.82-7.12a1.19,1.19,0,0,1-.44-.05,1,1,0,0,1-.28-.2A7.19,7.19,0,0,0,265.93,68a4.57,4.57,0,0,0-1.79.86,3.19,3.19,0,0,0-3.32-.61c-1.48.71-1.27,3-.78,4.26A.32.32,0,0,0,259.72,72.6Zm5.82.87.1,0,.06,0a.89.89,0,0,0,.19.11,1,1,0,0,1,.49.42A2.15,2.15,0,0,0,265.55,73.48ZM260.4,71.4a3,3,0,0,0,.13.34l0,0C260.45,71.65,260.43,71.53,260.4,71.4Z" fill="#935542"/><path d="M269.09,125.79s-4.8,15-14.37,18.12S237.43,141,233,142.42s-40.92,5.89-50.43,4.12c0,0-1.61-10.32.66-12.48s42.12-10.29,46-10.84S250.48,120,250.48,120" fill="#ff7b61"/><path d="M65.1,175.5a28.07,28.07,0,0,1,1.37-13.45c2.57-7,13.78,11.67,13.78,11.67" fill="#f2ae16"/><path d="M99.7,154c16.3,2.18,27.36,13,24.7,24.13s-18,18.41-34.34,16.23-27.36-13-24.7-24.13S83.4,151.86,99.7,154Z" fill="#f2ae16"/><path d="M100.2,147.77c16.3,2.18,27.36,13,24.7,24.13s-18,18.41-34.34,16.23-27.36-13-24.7-24.13S83.9,145.59,100.2,147.77Z" fill="#ffd008"/><path d="M99.6,150.27c14.29,1.91,24,11.38,21.65,21.14s-15.8,16.13-30.09,14.22-24-11.38-21.65-21.14S85.32,148.35,99.6,150.27Z" fill="none" stroke="#f7931e" stroke-miterlimit="10"/><path d="M95.92,159.3a7.23,7.23,0,0,0-3.83,6.88q-4.35.61-8.68,1.26a6.31,6.31,0,0,1,.19-1.75c.45-1.75-3.22-2-3.67-.31a6.55,6.55,0,0,0-.08,2.61l-4.79.75c-2.31.37-1.76,3.11.57,2.73l5.08-.79a10.22,10.22,0,0,0,11.9,5.47c4.11-1.08,3.92-4.18,3.53-6.89,0-.27-.08-.54-.13-.81q4.13-.56,8.28-1.08a17.67,17.67,0,0,1-.59,3.66c-.47,1.75,3.2,2,3.67.31a16.4,16.4,0,0,0,.58-4.42l2.86-.35c2.35-.27,1.78-3-.57-2.73l-2.65.32a8.11,8.11,0,0,0-2.4-4A8.36,8.36,0,0,0,95.92,159.3Zm-3.23,11.64c-1,2.58-3.53,3.16-6.14,1.56a6.82,6.82,0,0,1-2.37-2.35q4.16-.63,8.33-1.21A4.23,4.23,0,0,1,92.69,170.94Zm9.65-9.06a4.64,4.64,0,0,1,1.7,2.73q-4.14.52-8.27,1.08a5.88,5.88,0,0,1,.06-.75C96.19,162.8,98.88,159.37,102.34,161.88Z" fill="#f7931e"/><path d="M63,163a28.07,28.07,0,0,1,1.37-13.45c2.57-7,13.78,11.67,13.78,11.67" fill="#f2ae16"/><path d="M97.6,141.54c16.3,2.18,27.36,13,24.7,24.13s-18,18.41-34.34,16.23-27.36-13-24.7-24.13S81.3,139.36,97.6,141.54Z" fill="#f2ae16"/><path d="M98.1,135.28c16.3,2.18,27.36,13,24.7,24.13s-18,18.41-34.34,16.23-27.36-13-24.7-24.13S81.8,133.09,98.1,135.28Z" fill="#ffd008"/><path d="M97.5,137.77c14.29,1.91,24,11.38,21.65,21.14S103.34,175,89.06,173.13s-24-11.38-21.65-21.14S83.22,135.86,97.5,137.77Z" fill="none" stroke="#f7931e" stroke-miterlimit="10"/><path d="M93.82,146.81A7.23,7.23,0,0,0,90,153.69q-4.35.61-8.68,1.26a6.31,6.31,0,0,1,.19-1.75c.45-1.75-3.22-2-3.67-.31a6.55,6.55,0,0,0-.08,2.61l-4.79.75c-2.31.37-1.76,3.11.57,2.73l5.08-.79a10.22,10.22,0,0,0,11.9,5.47c4.11-1.08,3.92-4.18,3.53-6.89,0-.27-.08-.54-.13-.81q4.13-.56,8.28-1.08a17.67,17.67,0,0,1-.59,3.66c-.47,1.75,3.2,2,3.67.31a16.4,16.4,0,0,0,.58-4.42l2.86-.35c2.35-.27,1.78-3-.57-2.73l-2.65.32a8.11,8.11,0,0,0-2.4-4A8.36,8.36,0,0,0,93.82,146.81Zm-3.23,11.64c-1,2.58-3.53,3.16-6.14,1.56a6.82,6.82,0,0,1-2.37-2.35q4.16-.63,8.33-1.21A4.23,4.23,0,0,1,90.59,158.44Zm9.65-9.06a4.64,4.64,0,0,1,1.7,2.73q-4.14.52-8.27,1.08a5.88,5.88,0,0,1,.06-.75C94.09,150.3,96.78,146.87,100.24,149.38Z" fill="#f7931e"/><path d="M119.15,138.42s.49,7.6-5.42,8.07c0,0,5,2.08,5.84,6.06,0,0,.62-5.56,5.7-6.13A7.82,7.82,0,0,1,119.15,138.42Z" fill="#fff"/><line x1="325.02" y1="120.77" x2="213.72" y2="189.87" fill="#63a01c"/><path d="M325,120.77c-9.17,5.93-18.39,11.77-27.62,17.6l-27.76,17.37-27.88,17.18-14,8.52-14,8.43L227.51,181l13.84-8.76,27.76-17.37L297,137.72C306.31,132,315.64,126.35,325,120.77Z" fill="#009245"/><line x1="325.05" y1="126.48" x2="213.75" y2="195.57" fill="#63a01c"/><path d="M325,126.48c-9.17,5.93-18.39,11.77-27.62,17.6l-27.76,17.37-27.88,17.18-14,8.52-14,8.43,13.78-8.85L241.37,178l27.76-17.37L297,143.42C306.34,137.73,315.66,132.06,325,126.48Z" fill="#009245"/><line x1="326.12" y1="132.83" x2="214.83" y2="201.93" fill="#63a01c"/><path d="M326.12,132.83c-9.17,5.93-18.39,11.77-27.62,17.6l-27.76,17.37L242.86,185l-14,8.52-14,8.43,13.78-8.85,13.84-8.76L270.21,167l27.89-17.18C307.41,144.09,316.74,138.42,326.12,132.83Z" fill="#009245"/><line x1="326.12" y1="140.52" x2="214.83" y2="209.62" fill="#63a01c"/><path d="M326.12,140.52c-9.17,5.93-18.39,11.77-27.62,17.6L270.74,175.5l-27.88,17.18-14,8.52-14,8.43,13.78-8.85L242.45,192l27.76-17.37,27.89-17.18C307.41,151.78,316.74,146.11,326.12,140.52Z" fill="#009245"/><line x1="325.03" y1="149.11" x2="213.74" y2="218.21" fill="#63a01c"/><path d="M325,149.11c-9.17,5.93-18.39,11.77-27.62,17.6l-27.76,17.37-27.88,17.18-14,8.52-14,8.43,13.78-8.85,13.84-8.76,27.76-17.37L297,166.06C306.32,160.37,315.65,154.69,325,149.11Z" fill="#009245"/><line x1="325.06" y1="154.82" x2="213.76" y2="223.91" fill="#63a01c"/><path d="M325.06,154.82c-9.17,5.93-18.39,11.77-27.62,17.6l-27.76,17.37L241.79,207l-14,8.52-14,8.43,13.78-8.85,13.84-8.76,27.76-17.37L297,171.77C306.35,166.08,315.68,160.4,325.06,154.82Z" fill="#009245"/><line x1="151.64" y1="154.91" x2="211.66" y2="188.51" fill="#63a01c"/><path d="M151.64,154.91c5.1,2.62,10.15,5.34,15.19,8.07s10,5.53,15.06,8.3,10,5.63,14.95,8.5l7.43,4.32c2.46,1.47,4.94,2.91,7.38,4.41-2.56-1.3-5.08-2.66-7.62-4l-7.57-4.08c-5-2.73-10-5.53-15.06-8.3s-10-5.63-14.95-8.5S156.54,157.89,151.64,154.91Z" fill="#009245"/><line x1="151.64" y1="161.72" x2="211.66" y2="195.32" fill="#63a01c"/><path d="M151.64,161.72c5.1,2.62,10.15,5.34,15.19,8.07s10,5.53,15.06,8.3,10,5.63,14.95,8.5l7.43,4.32c2.46,1.47,4.94,2.91,7.38,4.41-2.56-1.3-5.08-2.66-7.62-4l-7.57-4.08c-5-2.73-10-5.53-15.06-8.3s-10-5.63-14.95-8.5S156.54,164.7,151.64,161.72Z" fill="#009245"/><line x1="152.52" y1="169.16" x2="212.54" y2="202.76" fill="#63a01c"/><path d="M152.52,169.16c5.1,2.62,10.15,5.34,15.19,8.07s10,5.53,15.06,8.3,10,5.63,14.95,8.5l7.43,4.32c2.46,1.47,4.94,2.91,7.38,4.41-2.56-1.3-5.08-2.66-7.62-4l-7.57-4.08c-5-2.73-10-5.53-15.06-8.3s-10-5.63-14.95-8.5S157.42,172.14,152.52,169.16Z" fill="#009245"/><line x1="152.52" y1="175.97" x2="212.54" y2="209.57" fill="#63a01c"/><path d="M152.52,176c5.1,2.62,10.15,5.34,15.19,8.07s10,5.53,15.06,8.3,10,5.63,14.95,8.5l7.43,4.32c2.46,1.47,4.94,2.91,7.38,4.41-2.56-1.3-5.08-2.66-7.62-4l-7.57-4.08c-5-2.73-10-5.53-15.06-8.3s-10-5.63-14.95-8.5S157.42,178.95,152.52,176Z" fill="#009245"/><line x1="152.18" y1="180.93" x2="212.2" y2="214.53" fill="#63a01c"/><path d="M152.18,180.93c5.1,2.62,10.15,5.34,15.19,8.07s10,5.53,15.06,8.3,10,5.63,14.95,8.5l7.43,4.32c2.46,1.47,4.94,2.91,7.38,4.41-2.56-1.3-5.08-2.66-7.62-4L197,206.47c-5-2.73-10-5.53-15.06-8.3s-10-5.63-14.95-8.5S157.09,183.91,152.18,180.93Z" fill="#009245"/><line x1="152.18" y1="187.74" x2="212.2" y2="221.34" fill="#63a01c"/><path d="M152.18,187.74c5.1,2.62,10.15,5.34,15.19,8.07s10,5.53,15.06,8.3,10,5.63,14.95,8.5l7.43,4.32c2.46,1.47,4.94,2.91,7.38,4.41-2.56-1.3-5.08-2.66-7.62-4L197,213.27c-5-2.73-10-5.53-15.06-8.3s-10-5.63-14.95-8.5S157.09,190.72,152.18,187.74Z" fill="#009245"/></svg>