<svg xmlns="http://www.w3.org/2000/svg" xmlns:xlink="http://www.w3.org/1999/xlink" viewBox="0 0 400 300" data-imageid="chatting-d" imageName="Family" class="illustrations_image" style="width: 219px;"><defs><linearGradient id="linear-gradient" x1="129.51" y1="237.35" x2="174.65" y2="187.45" gradientUnits="userSpaceOnUse"><stop offset="0" stop-color="#fff" stop-opacity="0"/><stop offset="1" stop-color="#f15a24"/></linearGradient><linearGradient id="linear-gradient-2" x1="261.97" y1="229.99" x2="292.49" y2="209.9" xlink:href="#linear-gradient"/></defs><title>191-200</title><g style="isolation:isolate"><g id="Layer_2" data-name="Layer 2"><path d="M48.36,177.13,163.86,110a5.46,5.46,0,0,1,5.46,0L342,208.8a5.46,5.46,0,0,1,0,9.47L231.6,282a17.83,17.83,0,0,1-17.83,0L48.37,186.58A5.46,5.46,0,0,1,48.36,177.13Z" fill="#febc44"/><path d="M174.2,258.76l61.27-34.28L137.3,160,69.62,199.29C75.66,203.43,168.26,254.48,174.2,258.76Z" opacity="0.32" fill="url(#linear-gradient)" style="mix-blend-mode:multiply"/><path d="M249.72,254.43,316,213.09,291.2,197.3l-67.69,39.32C229.56,240.76,243.77,250.14,249.72,254.43Z" opacity="0.32" fill="url(#linear-gradient-2)" style="mix-blend-mode:multiply"/><path d="M223.52,231.6a19.5,19.5,0,0,0,8.62-4c4.61-3.56-8.62-3.05-8.62-3.05Z" fill="#f2e2d1"/><path d="M126.42,166v11.87s.61,1.71,3.34,1.5,3.14-1.84,3.14-1.84V163.33Z" fill="#1a110a"/><path d="M213.14,219.12V231s.61,1.71,3.34,1.5,3.14-1.84,3.14-1.84V216.46Z" fill="#1a110a"/><path d="M232.32,168.48c5.91-3.91,12-7.54,17.88-11.47l-95.73-54.74a12.35,12.35,0,0,0-12.39.07l-26.46,15.52c-4.35,2.56-3.69,6.45-3.69,6.45s-1.17,36.35,0,38.7,4.81,4.06,4.81,4.06L223.52,231.6C232.3,225,225.18,173.21,232.32,168.48Z" fill="#e8bc95"/><path d="M237.26,176.8s-89-51.07-88.87-51.61,0-19.16,0-19.16L253.47,166.5Z" fill="#f2e2d1"/><path d="M121.77,140.17l26.89-15,101.71,58.37-30.54,16.7a4.8,4.8,0,0,1-4.65,0l-93.42-52.41A4.37,4.37,0,0,1,121.77,140.17Z" fill="#f7ecdf"/><path d="M262.36,165.17l-1.22-.1a26.84,26.84,0,0,1-6,3.42,188.2,188.2,0,0,1-28.69,17.21v42.75a13.94,13.94,0,0,0,3.85.22l27.38-16.23a11.83,11.83,0,0,0,5.8-10.18v-36C263.08,165.91,262.71,165.55,262.36,165.17Z" fill="#f2e2d1"/><path d="M112.82,119.06s-2.58.86,0,4.06,12-3.56,12-3.56L148.39,106,253.47,166.5,226,182.11s-2.12,1.66-.52,3.53,3.85,1,8.32-1.2,28.84-16,28.84-16,2.42-1.64-1.27-4.75-108-61.86-108-61.86a7.84,7.84,0,0,0-8.64-1.11C140,103.2,112.82,119.06,112.82,119.06Z" fill="#f7ecdf"/><ellipse cx="300.8" cy="204.29" rx="20.35" ry="14.33" fill="#68e1fd" class="target-color"/><ellipse cx="300.8" cy="204.29" rx="20.35" ry="14.33" fill="#68e1fd" class="target-color"/><ellipse cx="300.79" cy="195.82" rx="15.24" ry="6.24" fill="#333"/><path d="M300.23,185.41c0-2.82-.1-5.63-.32-8.44q-.09-1.09-.2-2.18c0-.12-.12-1-.16-1.44s-.23-1.5-.22-1.46q-.14-.86-.3-1.71a67.18,67.18,0,0,0-10.88-26.6,38.9,38.9,0,0,0-3,15.58c0,1.55.12,3.08.25,4.62,0,.41,0,.59.05.65s0-.09.07.26c.13.76.26,1.51.42,2.27a61.49,61.49,0,0,0,2.41,8.44,51.35,51.35,0,0,0,3.29,7.36c1.38,2.66,2.89,5.25,4.5,7.77,1.26,2,2.46,3.75,3.66,5.42C300.05,192.46,300.22,188.94,300.23,185.41Zm-8-31.63a2.53,2.53,0,0,0-.07-1.09h0q.59.6,1.14,1.22A3.49,3.49,0,0,0,292.22,153.78Z" fill="#0f9506"/><path d="M305.48,187.59c1.52-2.37,3-4.79,4.29-7.27q.52-1,1-1.94l.64-1.3.61-1.35q.34-.8.67-1.6a67.18,67.18,0,0,0,5.23-28.26,38.9,38.9,0,0,0-11,11.47c-.83,1.31-1.57,2.66-2.29,4l-.31.58s.06-.07-.08.26c-.3.71-.6,1.42-.87,2.13a61.49,61.49,0,0,0-2.54,8.41,51.35,51.35,0,0,0-1.21,8c-.28,3-.4,6-.41,9,0,2.34,0,4.48.15,6.54C301.52,193.42,303.57,190.55,305.48,187.59Zm10.37-30.94a2.53,2.53,0,0,0,.53-1h0q.17.82.3,1.65A3.49,3.49,0,0,0,315.84,156.65Z" fill="#0f9506"/><path d="M305.36,194.6q2.38-1.18,4.66-2.54l1.17-.72.76-.49.76-.53.88-.65a42.25,42.25,0,0,0,11.95-13.57,24.47,24.47,0,0,0-9.62,2.65c-.87.44-1.7.93-2.53,1.44l-.35.21s.05,0-.13.11c-.39.28-.78.57-1.16.87a38.67,38.67,0,0,0-4.08,3.72,32.29,32.29,0,0,0-3.23,3.91c-1.11,1.52-2.15,3.1-3.12,4.71-.76,1.26-1.42,2.43-2,3.58C301.35,196.48,303.38,195.59,305.36,194.6Zm15.58-13.35a1.59,1.59,0,0,0,.6-.35h0q-.17.5-.37,1A2.19,2.19,0,0,0,320.95,181.25Z" fill="#0f9506"/><path d="M300.23,185.41c0-2.82-.1-5.63-.32-8.44q-.09-1.09-.2-2.18c0-.12-.12-1-.16-1.44s-.23-1.5-.22-1.46q-.14-.86-.3-1.71a67.18,67.18,0,0,0-10.88-26.6,38.9,38.9,0,0,0-3,15.58c0,1.55.12,3.08.25,4.62,0,.41,0,.59.05.65s0-.09.07.26c.13.76.26,1.51.42,2.27a61.49,61.49,0,0,0,2.41,8.44,51.35,51.35,0,0,0,3.29,7.36c1.38,2.66,2.89,5.25,4.5,7.77,1.26,2,2.46,3.75,3.66,5.42C300.05,192.46,300.22,188.94,300.23,185.41Zm-8-31.63a2.53,2.53,0,0,0-.07-1.09h0q.59.6,1.14,1.22A3.49,3.49,0,0,0,292.22,153.78Z" fill="#0f9506"/><path d="M305.48,187.59c1.52-2.37,3-4.79,4.29-7.27q.52-1,1-1.94l.64-1.3.61-1.35q.34-.8.67-1.6a67.18,67.18,0,0,0,5.23-28.26,38.9,38.9,0,0,0-11,11.47c-.83,1.31-1.57,2.66-2.29,4l-.31.58s.06-.07-.08.26c-.3.71-.6,1.42-.87,2.13a61.49,61.49,0,0,0-2.54,8.41,51.35,51.35,0,0,0-1.21,8c-.28,3-.4,6-.41,9,0,2.34,0,4.48.15,6.54C301.52,193.42,303.57,190.55,305.48,187.59Zm10.37-30.94a2.53,2.53,0,0,0,.53-1h0q.17.82.3,1.65A3.49,3.49,0,0,0,315.84,156.65Z" fill="#0f9506"/><path d="M305.36,194.6q2.38-1.18,4.66-2.54l1.17-.72.76-.49.76-.53.88-.65a42.25,42.25,0,0,0,11.95-13.57,24.47,24.47,0,0,0-9.62,2.65c-.87.44-1.7.93-2.53,1.44l-.35.21s.05,0-.13.11c-.39.28-.78.57-1.16.87a38.67,38.67,0,0,0-4.08,3.72,32.29,32.29,0,0,0-3.23,3.91c-1.11,1.52-2.15,3.1-3.12,4.71-.76,1.26-1.42,2.43-2,3.58C301.35,196.48,303.38,195.59,305.36,194.6Zm15.58-13.35a1.59,1.59,0,0,0,.6-.35h0q-.17.5-.37,1A2.19,2.19,0,0,0,320.95,181.25Z" fill="#0f9506"/><path d="M275.52,60.7l-.91,50a3.14,3.14,0,0,1-4.55,2.76L227.58,92.29a4.16,4.16,0,0,1-2.31-3.8l.91-50a3.4,3.4,0,0,1,4.95-3l42.11,21.42A4.16,4.16,0,0,1,275.52,60.7Z" fill="#68e1fd" class="target-color"/><path d="M232.65,68.28c8.09,2.28,5.29,11.26,11.11,16,7.07,5.81,9.74-10.68,18.42-9.64,10.42,1.24,12.43,36,12.43,36-1.65,3.95-4.55,2.76-4.55,2.76L225.23,91.12l.35-19.24C227.46,69.69,229.78,68,232.65,68.28Z" fill="#68e1fd" class="target-color"/><path d="M232.65,68.28c8.09,2.28,5.29,11.26,11.11,16,7.07,5.81,9.74-10.68,18.42-9.64,10.42,1.24,12.43,36,12.43,36-1.65,3.95-4.55,2.76-4.55,2.76L225.23,91.12l.35-19.24C227.46,69.69,229.78,68,232.65,68.28Z" fill="#333" opacity="0.39"/><path d="M139.8,114.75c0,.61-4.92,6.48-6.42,8.2s-8,3.52-7.48,4.52,3.08.74,3.08.74-2.71,4.12-2.56,6,1,3.15,2.06,3.41,3.81-2.74,4.1-4a35.86,35.86,0,0,1,2.76-5.37l7.34-9.14" fill="#ffe8e6"/><path d="M118,201.06l-3.73-2.48s.15-3.55,1.63-4.07S118,201.06,118,201.06Z" fill="#dd654a"/><path d="M114.2,179.26s-4.76,15.26-5.47,16.06-9,7.09-9.87,8.51,7.18,1.52,10.29,1.17,6.12-1.48,6.38-2.6-.19-7.06.91-6.79,1.57,5.43,1.57,5.43l2.86-1.22,3.21-21.13" fill="#dd654a"/><path d="M132.48,206.92l-3.73-2.48s.15-3.55,1.63-4.07S132.48,206.92,132.48,206.92Z" fill="#dd654a"/><path d="M128.66,185.12s-4.76,15.26-5.47,16.06-9,7.09-9.87,8.51,7.18,1.52,10.29,1.17,6.12-1.48,6.38-2.6-.19-7.06.91-6.79,1.57,5.43,1.57,5.43l2.86-1.22,3.21-21.13" fill="#dd654a"/><path d="M162.91,114.4c1.5,1.27-6.22,17-7.85,26.22S131.63,155,131.63,155l-6,37.63a80,80,0,0,1-16-2.29s6.18-43.82,8.46-48.61S153,118.23,153,118.23" fill="#895851"/><path d="M168.53,117.26c1.5,1.27,6.22,11.63,1.57,25-3.07,8.83-22.36,16.14-22.36,16.14l-9.33,36.21s-5.87,3.05-14,.52c0,0,3.31-41.12,5.59-45.91s26.83-22.67,26.83-22.67" fill="#895851"/><path d="M168.37,90.7a25.16,25.16,0,0,0-12.44-1.76,10.1,10.1,0,0,0-5.59,2.42c-2,1.87-2.83,4.7-3.92,7.14a107.47,107.47,0,0,1-5.53,10.24,73.39,73.39,0,0,1-5.76,9.26l6.44,4.83,9.73-11.36L165.8,119l-12.9,6.59c-1.08,2,8.33,8,8.33,8s14.46-1.49,17.45-16C182.92,96.9,168.4,90.71,168.37,90.7Z" fill="#ff9a22"/><line x1="119.67" y1="119.06" x2="120.91" y2="117.69" fill="#fff7f0"/><path d="M150.88,106.22s-.46,13.13.3,14.57,14.59,7.46,14.59,7.46l8.69-10.75Z" fill="#ff9a22"/><path d="M155.75,83.29s-1.79,5.59-.63,7.37,6.11-.13,6.11-.13" fill="#dd654a"/><path d="M155,80.63s1.14,10.76,5.7,11.39,6.23-5.11,6.23-5.11,0-7.36-1.6-8.71S157,77.31,155,80.63Z" fill="#ffe8e6"/><path d="M153.14,79.65s3.48,3.85,5.37,4.71,3.8,0,4.59,1.39-.36,10.28,1.84,11.65,5.59-3.78,7.6-1.69,1.58,6.4,4.42,7,5.54-4,2.53-7.06-3.46-4.67-2.1-6c2-1.92-1-7.72-3.74-8.55s-4.15-6.64-9-7.53S153.74,76.2,153.14,79.65Z" fill="#dd654a"/><path d="M152,102.06q-.09,9.09.21,18.18c0,.69-1,.68-1.07,0q-.29-9.09-.21-18.18A.54.54,0,0,1,152,102.06Z" fill="#f26250"/><path d="M153.1,125.18A24.39,24.39,0,0,0,167,108.29c.15-.67,1.19-.38,1,.29a25.39,25.39,0,0,1-14.39,17.52C153,126.39,152.47,125.46,153.1,125.18Z" fill="#f26250"/><path d="M156.52,75.46s8,2,8.35,9.13c0,0,1.29-4.41-.49-7.77a6.07,6.07,0,0,0-5.48-3.13S156.59,74.19,156.52,75.46Z" fill="#6b2215"/><path d="M159,187.46s-.17,5.23-1.21,6.09-6,3.59-8.32,3.72-2.13,2.54-.74,4,11.88.81,12.63.06,3.64-5.47,3.21-5.55-.63,6.3-.22,6.52a5.55,5.55,0,0,0,1.76.15l1.52-16.73" fill="#333"/><path d="M170.41,188.87s.7,5.18-.18,6.21-5.33,4.53-7.59,5-1.68,2.86-.07,4,11.85-1.17,12.46-2,2.68-6,2.24-6,.42,6.32.86,6.46a5.55,5.55,0,0,0,1.76-.14l-1.28-16.75" fill="#333"/><path d="M178.42,121.09s-13.65,8.09-28.39-.1l-.7,10.76s16.2,6.45,27.64,3.81" fill="#68e1fd" class="target-color"/><path d="M178.42,121.09s-13.65,8.09-28.39-.1l-.7,10.76s16.2,6.45,27.64,3.81" fill="#333" opacity="0.62"/><path d="M149.88,123.27s-1.77-.82-1.93-.93c-.74-.49-1.45-1.05-2.16-1.57a5.6,5.6,0,0,0-2.16-1.19,1.13,1.13,0,0,0-1.25,1.42c.15.82,1.52,1.71,2.06,2.3,0,0,.42-1,.47-1a5.11,5.11,0,0,1-.47,1,1,1,0,0,1-.11.34c-.65,1.21-1.56,2.28-2.25,3.47a4.32,4.32,0,0,1-.3.55l-.18.39a24,24,0,0,0,2.52.31,20.62,20.62,0,0,0,5.42.47C149.7,127,149.73,125.18,149.88,123.27Z" fill="#ffe8e6"/><path d="M146.33,126.61c-1.7-.71-1.63-2.45-1.36-4,.05-.29-.4-.42-.45-.12-.32,1.84-.27,3.75,1.69,4.57C146.49,127.18,146.61,126.72,146.33,126.61Z" fill="#42210b"/><path d="M168.49,163.51c1.08.09,11,1.26,18.51-1.47a26.8,26.8,0,0,0,3.72-9,52.39,52.39,0,0,0,1.4-8.72l-7.59.35a128.13,128.13,0,0,0-22.24,2.68c-4.26,1-9.1,1.95-12.17,5.33-3.49,3.85-2.46,9.19-1.46,13.81a138.4,138.4,0,0,0,6.9,21.84l18.36-2.74S166.52,163.35,168.49,163.51Z" fill="#e54b5d"/><path d="M176.19,166.52c6.4.52,17.65,2.91,20.49-5,.34-.94,1.45-14.13,0-14.06l-4.45.21A128.13,128.13,0,0,0,170,150.34c-4.26,1-9.1,1.95-12.17,5.33-3.49,3.85-2.46,9.19-1.46,13.81a138.4,138.4,0,0,0,6.9,21.84l18.36-2.74S174.22,166.36,176.19,166.52Z" fill="#e54b5d"/><path d="M144,139l5.6-6.93a1,1,0,0,0,.06-1.18L141,117.45a1,1,0,0,0-1.61-.11l-6.54,7.7a1,1,0,0,0,0,1.26L142.44,139A1,1,0,0,0,144,139Z" fill="#333"/><path d="M153.63,141.11l-.07,0a1,1,0,0,0-.49-1.34,1.08,1.08,0,0,0-.82-1.44,24.51,24.51,0,0,1-3.68-1,16.9,16.9,0,0,1-2.23-1.13c-.77-.4-1.52-.82-2.25-1.29a16.09,16.09,0,0,1-2.72-2.3c-.38-.39-.74-.8-1.13-1.18a7.07,7.07,0,0,1-1.11-1.15c-.56-.88-1.3-1.11-1.83-.12s.63,1.88,1.22,2.87c-1-.18-1.91-.3-2.87-.39l-.08.06q-1.36,1.19-.44,2.08a.51.51,0,0,1-.08.61c-.45.55-1,1.9.12,2.09a.51.51,0,0,1,.35.62,3,3,0,0,0,1.09,2.76c1.46.66,3,.55,4.7.81a32.56,32.56,0,0,1,5,1.38q2.54.65,5,1.46a1.12,1.12,0,0,0,1.37-1.47l.35.09C154.25,143.41,154.75,141.48,153.63,141.11Z" fill="#ffe8e6"/><path d="M135,135.4l-.09.13,3.5.43a.23.23,0,0,0,.06-.46l-3.32-.41A.67.67,0,0,1,135,135.4Z" fill="#42210b"/><path d="M135.49,138.09c1,.1,2.08.21,3.12.29.3,0,.36-.44.06-.46-1.11-.09-2.22-.2-3.33-.31A.6.6,0,0,1,135.49,138.09Z" fill="#42210b"/><path d="M136.06,140.34l2.93.13c.3,0,.36-.45.06-.46l-3.27-.15A2.94,2.94,0,0,0,136.06,140.34Z" fill="#42210b"/><path d="M178,121a41.39,41.39,0,0,1-31.63,15.24l-2.71,8.82s19.28,6.26,31.9-4.26l2.12,5.37s10.76,5.15,19.19,1.17c0,0-.3-23.57-17.22-31.45" fill="#68e1fd" class="target-color"/><path d="M178,121s-11.9,15.21-31.63,15.24l-2.71,8.82s19.28,6.26,31.9-4.26l2.12,5.37s10.76,5.15,19.19,1.17c0,0-.3-23.57-17.22-31.45" fill="#333" opacity="0.13"/><path d="M169.09,110.39s-.57,10.61,4.62,11.89c5.93,1.45,9.91-6.73,7.26-11.33S170.48,106.83,169.09,110.39Z" fill="#ffe8e6"/><path d="M172.48,105.89a7.73,7.73,0,0,0-4.75,4.19c-.06.15-.11.29-.16.44a6.47,6.47,0,0,0-.06,1.28,2.67,2.67,0,0,0,1.64,2.45,6.13,6.13,0,0,1,1.76-4.84s-.6,1.17,5.1,3.72c0,0,3.92,5.18,2.83,7.86.1-.26.82-.63,1-.81a15.62,15.62,0,0,0,2.33-2.42C187,111.46,179.26,103.74,172.48,105.89Z" fill="#e54b5d"/><path d="M170.92,109.41s.17,4.85,6,5.73c3.5.54-3.91,7-.44,9s10-2.45,11.59-5.78-3.62-13-11.94-13.48c0,0-6-1.15-8.43,5.58" fill="#e54b5d"/><path d="M172.51,115.28a.23.23,0,0,0-.07.46A.23.23,0,0,0,172.51,115.28Z" fill="#42210b"/><path d="M169.89,114.76l-.13,0c-.29.09-.11.53.17.44l.13,0C170.35,115.1,170.18,114.67,169.89,114.76Z" fill="#42210b"/><path d="M179.26,115.15c-1-1.71-3.26.1-3.19,1.54a.41.41,0,0,0,.51.39.52.52,0,0,0,.05.16,1.38,1.38,0,0,1-.34,0c-.59-.12-.73.81-.14.93C177.6,118.44,180.24,116.89,179.26,115.15Zm-2,.81a.47.47,0,0,0,.17.14.44.44,0,0,0,.45-.05.53.53,0,0,1-.1.17.91.91,0,0,1-.71.34H177A1,1,0,0,1,177.29,116Z" fill="#ffe8e6"/><path d="M171.58,117.95c-.9,0-.41-1.05-.28-1.51s.31-1,.47-1.51c.1-.29-.36-.41-.45-.12-.17.5-.33,1-.47,1.51a5.63,5.63,0,0,0-.33,1.29c0,.62.54.8,1.06.82C171.88,118.43,171.88,118,171.58,117.95Z" fill="#42210b"/><path d="M173.89,117.89a1.91,1.91,0,0,1-.75,1,2.62,2.62,0,0,1-1.54.16c-.29,0-.42.41-.12.45a3.3,3.3,0,0,0,1.74-.13,2.14,2.14,0,0,0,1.08-1.26C174.42,117.85,174,117.61,173.89,117.89Z" fill="#42210b"/><path d="M180.54,147.86c-8.31.43-21.51.42-25.2,9.78-1.86,4.7-.46,10.65.59,15.4a153.12,153.12,0,0,0,5.36,17.51c.21.6,1.18.34,1-.27-1.66-4.73-3.32-9.47-4.59-14.32s-2.61-10.22-2-15.23c1.32-11.3,16.34-11.42,24.9-11.87C181.18,148.83,181.18,147.83,180.54,147.86Z" fill="#333"/><path d="M172.55,211s.16,8.3-.45,9.2-12.34,7.35-12.19,9.16,3.5,2.56,5.59,2.41,14.12-5.17,14.87-6.65.75-14.12.75-14.12Z" fill="#5c2d1d"/><path d="M192.23,221s-2.71,8.88-3.31,9.78-9.48,6.77-9.33,8.58,3.5,2.56,5.59,2.41,14.12-5.17,14.87-6.65.75-14.12.75-14.12Z" fill="#5c2d1d"/><path d="M215.61,140s4,16.79,1,25.79-31.47,16.6-31.47,16.6l-3,33.25c-9.43,3-11.93-2.46-11.93-2.46s-1.83-31.49,1.16-39.59,31.86-21.54,31.86-21.54" fill="#895851"/><path d="M216.29,161.36s-23.18,15.9-26.16,24-2.73,40.5-2.73,40.5,4,4.32,13.4,1.36l4.35-34s16.71-5.35,19.67-14.35,1.74-22.65,1.74-22.65" fill="#895851"/><path d="M225.5,161.7c4-9.62,5.66-34.61,3.21-37.62-5.07-6.24-15.77-5.48-15.77-5.48s-6.22-3.72-11.41.68c-3.87,3.28-1.12,23.4,0,36.19C208.3,161.7,215.78,163.45,225.5,161.7Z" fill="#8cc63f"/><path d="M179.28,162.66s7-2.17,6.64,3.64c0,0,11.28-7.61,14.08-10.93s1.53-11.63,1.53-11.63L200,122.32s1.53-3-9.21,29.79C189.7,155.43,179.28,162.66,179.28,162.66Z" fill="#8cc63f"/><path d="M211.68,115.25c0,2.06.05,4.12-.06,6.17.37.94.89,1.6,1.64,1.52,2.45-.26,5.37-3.93,5.37-3.93l.43-5.72Z" fill="#f9c7af"/><path d="M223.62,101c-1.53-3.3-4.55-3.92-7.67-3.32a6.84,6.84,0,0,0-2.35-1.08c-2.61-.62-5.85.2-7.46,2.41a5,5,0,0,0-2.5.33c-2.35,1-2.63,3.49-2.08,5.67,0,.09.05.17.08.25.25,3.88,4,5.5,4,5.5l12.16,6.06a8.84,8.84,0,0,0,3.23-3,4.69,4.69,0,0,0,.5-1.6,1.84,1.84,0,0,0,.24-.25C224.18,109,225.3,104.65,223.62,101Z" fill="#895851"/><path d="M205.37,107.72c.31,1.3,2.49,13.62,8.06,12.59s5.91-9.24,5.91-9.24-5-1.36-5.44-3.25-.2-2.72-2.67-3.22S204.86,105.56,205.37,107.72Z" fill="#ffe0ce"/><polygon points="201.66 154.83 200.19 132.6 196.47 158.61 201.66 154.83" fill="#6d9928"/><path d="M200.94,165.5a4,4,0,0,0-1.39.42c-1.32.64-2.78,1.06-4.08,1.76a13.49,13.49,0,0,0-5.12,5.37c-.26.58-1.39,2.69-.81,3.28s1.9,0,1.9,0-.07,1.21.35,1.49,1.69-.7,1.69-.7.58,1.48,1.38,1.13,2.22-2.47,2.22-2.47-.15,1.62.55,1.62,3.7-4.12,3.7-4.12l6.33-3.31s-1.87-2-2.06-2.2a9.59,9.59,0,0,0-3-2A3.69,3.69,0,0,0,200.94,165.5Z" fill="#ffe0ce"/><path d="M199.85,170.85a14.41,14.41,0,0,0-3.15,5.39c-.08.25.31.35.39.11a13.92,13.92,0,0,1,3-5.21C200.32,170.94,200,170.66,199.85,170.85Z" fill="#5c2d1d"/><path d="M198,169.61a15.57,15.57,0,0,0-4.67,7.78.2.2,0,0,0,.39.11,15.19,15.19,0,0,1,4.56-7.6C198.48,169.72,198.19,169.43,198,169.61Z" fill="#5c2d1d"/><path d="M196.12,169.18a16.33,16.33,0,0,0-4.87,7.25c-.08.25.31.35.39.11a15.93,15.93,0,0,1,4.77-7.07C196.6,169.3,196.31,169,196.12,169.18Z" fill="#5c2d1d"/><path d="M229.08,144.65s-2.32,14.83-5.44,18.24-16.84,9.49-16.84,9.49-3.44-6-7.08-7.47c0,0,14-7.86,14.33-9.35" fill="#8cc63f"/><path d="M217.58,134.72c-.23,3.2-.56,6.38-1,9.55a45.94,45.94,0,0,1-1.55,8.42c-1,2.91-4.92,4.64-7.4,6.25s-5.25,3.35-7.91,5c-.6.37-.05,1.32.56,1q4.65-2.84,9.21-5.82c2.06-1.35,5.19-2.75,6.28-5.12,1.19-2.58,1.37-6.07,1.79-8.85.52-3.44.89-6.89,1.14-10.36C218.74,134,217.64,134,217.58,134.72Z" fill="#6d9928"/><path d="M181.89,161.7a3.32,3.32,0,0,0-1.14.34c-1.09.53-2.28.87-3.35,1.45a11.09,11.09,0,0,0-4.21,4.41c-.22.48-1.14,2.21-.66,2.7s1.56,0,1.56,0-.06,1,.29,1.22,1.39-.58,1.39-.58.47,1.21,1.13.92,1.82-2,1.82-2-.12,1.33.45,1.33,3-3.38,3-3.38l5.2-2.72s-1.53-1.66-1.69-1.81a7.88,7.88,0,0,0-2.44-1.65A3,3,0,0,0,181.89,161.7Z" fill="#ffe0ce"/><path d="M181,166.1a11.84,11.84,0,0,0-2.59,4.43c-.07.2.25.29.32.09a11.43,11.43,0,0,1,2.5-4.28C181.38,166.17,181.14,165.94,181,166.1Z" fill="#5c2d1d"/><path d="M179.47,165.08a12.79,12.79,0,0,0-3.83,6.39.17.17,0,0,0,.32.09,12.48,12.48,0,0,1,3.75-6.25C179.87,165.17,179.63,164.93,179.47,165.08Z" fill="#5c2d1d"/><path d="M177.93,164.73a13.41,13.41,0,0,0-4,6c-.07.2.25.29.32.09a13.09,13.09,0,0,1,3.91-5.81C178.32,164.82,178.09,164.59,177.93,164.73Z" fill="#5c2d1d"/></g></g></svg>