<svg xmlns="http://www.w3.org/2000/svg" viewBox="0 0 500 500"><g id="freepik--Plants--inject-1--inject-25"><g id="freepik--plants--inject-1--inject-25"><path d="M448.79,308l-7.14-4.15s-2.46-15.56,0-29c3.43-18.9,16.5-25.14,21.14-23.15s5.62,7.64-3.1,18.41C454.52,276.45,449,290.39,448.79,308Z" style="fill:#37474f"></path><path d="M445.55,300h.06a.43.43,0,0,0,.38-.47c-2.05-17.81,5.54-37.1,13.75-44.76a.42.42,0,0,0-.58-.62c-8.36,7.8-16.09,27.4-14,45.48A.43.43,0,0,0,445.55,300Z" style="fill:#fff"></path><path d="M464.62,317.18c.93.56,2.95-.43,3.7-.91a9,9,0,0,0,3.06-3.35,8.38,8.38,0,0,0,.86-5,20.56,20.56,0,0,0-.57-2.7l-.69-2.62a6.4,6.4,0,0,1-.32-2.63c.27-1.77,1.87-3,3.34-4s3.3-2.69,3.34-4.83a7.58,7.58,0,0,0-1.78-4.53c-1-1.32-2.19-2.49-3.08-3.88a5.25,5.25,0,0,1-1-3.35,5.36,5.36,0,0,1,.77-2.07,28.59,28.59,0,0,0,2.37-4.11,4.18,4.18,0,0,0-.62-4.45,4.9,4.9,0,0,0-3.66-1c-2.26.1-4.46,1.7-6.26,2.94s-3.2,3-5.26,3.69c-2.7.95-6.28.4-8.08,3.15-1.55,2.38-.43,5.06-.27,7.59.25,4.09-3.6,5.61-5.48,8.56a5.37,5.37,0,0,0-.71,3.24,15.6,15.6,0,0,0,1.25,5.53,54,54,0,0,0,3,5.5C448.6,308,464.48,317.09,464.62,317.18Z" style="fill:#455a64"></path><path d="M455.16,312h0a.42.42,0,0,0,.42-.43c-.31-16.82,8-35.2,13.92-40.45a.43.43,0,0,0-.57-.64c-6,5.37-14.51,24.05-14.2,41.11A.42.42,0,0,0,455.16,312Z" style="fill:#fff"></path><path d="M458.14,292.16h.13a56.56,56.56,0,0,1,12.24-1.69.43.43,0,1,0,0-.85A58.88,58.88,0,0,0,458,291.33a.43.43,0,0,0-.3.52A.42.42,0,0,0,458.14,292.16Z" style="fill:#fff"></path></g><path d="M64.37,318.49s1.38-14.88-3.5-27.67-13.35-21.9-22.46-24.57-18.39,4.3-9.69,12.23,25.07,17.58,28.61,41.18Z" style="fill:#407BFF"></path><path d="M64.37,318.49s1.38-14.88-3.5-27.67-13.35-21.9-22.46-24.57-18.39,4.3-9.69,12.23,25.07,17.58,28.61,41.18Z" style="opacity:0.2"></path><path d="M63.45,315.72a.5.5,0,0,1-.49-.46c-2.86-29.27-28.65-44-28.91-44.17a.5.5,0,0,1-.19-.68.5.5,0,0,1,.68-.19c.27.15,26.51,15.16,29.41,44.95a.49.49,0,0,1-.45.54Z" style="fill:#fff"></path><path d="M64.07,346.25c-2.92.83-7.71,1.88-10.83.66s-5.91-3.54-6.45-8a18.21,18.21,0,0,0-1.06-5.58,6.52,6.52,0,0,0-4.12-3.23c-2.11-.64-4.37-.63-6.51-1.14s-4.34-1.76-5-3.86a6.35,6.35,0,0,1,.54-4.45c.64-1.4,1.53-2.66,2.2-4,1.18-2.42.79-4.72-1.67-6-4.78-2.44-12.56-6.77-9.24-11s11.28-2.85,16.85.22a14.32,14.32,0,0,0,11.85,1.55c5-1.32,7.32.18,9.78,6,1.08,2.56,2.55,3.08,4.39,4.72,2,1.79,1.67,6,1.68,8.64q.06,12.09-1,24.14C65.34,346.13,65,345.4,64.07,346.25Z" style="fill:#407BFF"></path><path d="M66.54,336.16a47.84,47.84,0,0,0-7.9-14.08.48.48,0,0,0-.17-.23,59,59,0,0,0-4.13-4.58,41.71,41.71,0,0,1,.22-11.34.51.51,0,0,0-.39-.59.5.5,0,0,0-.59.4,40.36,40.36,0,0,0-.36,10.44,76.45,76.45,0,0,0-24.89-15.51.5.5,0,1,0-.32.95c.22.07,16.87,5.84,28.65,19.62a31.08,31.08,0,0,0-19.1.5.5.5,0,1,0,.38.93,30.58,30.58,0,0,1,19.9,0,47.16,47.16,0,0,1,7.76,13.82.5.5,0,0,0,.64.3A.48.48,0,0,0,66.54,336.16Z" style="fill:#fff"></path></g><g id="freepik--Bills--inject-1--inject-25"><g id="freepik--Money--inject-1--inject-25"><polygon points="303.38 407.74 193.71 344.43 138.88 376.08 248.55 439.39 303.38 407.74" style="fill:#407BFF"></polygon><path d="M144.65,376.08l103.9,60,49.06-28.32-103.9-60Zm2.89,0,46.17-26.66,101,58.32L248.55,434.4Z" style="opacity:0.4"></path><g style="opacity:0.4"><path d="M223.18,408.3c-7.48,0-15.15-1.72-21.06-5.13h0c-5.75-3.33-9.05-7.86-9.05-12.44,0-4.2,2.7-8.07,7.61-10.91,10.48-6.05,28.18-5.67,39.45.84,5.76,3.32,9.06,7.85,9.06,12.43,0,4.2-2.71,8.08-7.61,10.91S230,408.3,223.18,408.3Zm-4.1-31.81c-6.61,0-13.05,1.38-17.91,4.18-4.59,2.65-7.12,6.23-7.12,10.06,0,4.22,3.12,8.44,8.57,11.59h0c11,6.35,28.26,6.72,38.46.83,4.6-2.65,7.13-6.22,7.13-10.06,0-4.22-3.13-8.44-8.57-11.58C233.87,378.17,226.38,376.49,219.08,376.49Z"></path></g><g style="opacity:0.2"><path d="M223.17,404.77c-7.1,0-14.12-1.71-19.27-4.68-4.62-2.67-7.28-6.08-7.28-9.36,0-2.88,2.07-5.66,5.84-7.83,4.29-2.48,10.19-3.84,16.62-3.84,7.1,0,14.13,1.7,19.28,4.67,4.62,2.67,7.28,6.09,7.28,9.36,0,2.88-2.08,5.66-5.84,7.83C235.51,403.4,229.6,404.77,223.17,404.77Z"></path></g><path d="M242.77,428.54,212.63,411l2.41.31a52.16,52.16,0,0,0,6.5.41,45.76,45.76,0,0,0,21-5.52c5.33-3.08,10.72-8.59,10.72-14a13.1,13.1,0,0,0-1.22-5.41l-.65-1.4,33,19.16-3.62,2.1a1.57,1.57,0,0,0-.95,1.23,1.6,1.6,0,0,0,.95,1.25l3.63,2.09-30.07,17.25-3.13-1.81a5.87,5.87,0,0,0-5.29,0Z" style="opacity:0.2"></path><path d="M256,416.3a10.27,10.27,0,0,1-5-1.23,3.91,3.91,0,0,1-2.27-3.19,3.36,3.36,0,0,1,1.94-2.83,10.44,10.44,0,0,1,9.45.19,3.9,3.9,0,0,1,2.28,3.19,3.38,3.38,0,0,1-1.94,2.84A9.09,9.09,0,0,1,256,416.3Z" style="fill:#407BFF"></path><path d="M191,398.33l-33-19,3.63-2.09c.61-.35,1-.79.94-1.24a1.55,1.55,0,0,0-.94-1.24l-3.63-2.1,30-17.09,3.13,1.81a6,6,0,0,0,5.28,0l3.13-1.81,30.13,17.34-2.44-.31a50.13,50.13,0,0,0-6.51-.42c-7.14,0-15.67,2.16-21.23,5.37-6.94,4-10.46,8.3-10.46,12.77a18.91,18.91,0,0,0,1.27,6.59Z" style="opacity:0.2"></path><path d="M187,376.61a10.34,10.34,0,0,1-5-1.22h0a3.93,3.93,0,0,1-2.28-3.19,3.36,3.36,0,0,1,1.94-2.84,10.49,10.49,0,0,1,9.46.19,3.94,3.94,0,0,1,2.27,3.19,3.36,3.36,0,0,1-1.94,2.84A9,9,0,0,1,187,376.61Z" style="fill:#407BFF"></path><polygon points="303.38 407.74 303.38 421.07 248.55 452.73 248.55 439.39 303.38 407.74" style="fill:#407BFF"></polygon><g style="opacity:0.1"><polygon points="303.38 407.74 303.38 421.07 248.55 452.73 248.55 439.39 303.38 407.74"></polygon></g><g style="opacity:0.1"><polygon points="248.55 442.37 265.86 432.73 248.54 443.18 248.55 442.37"></polygon><polygon points="303.38 414.07 297.61 417.74 303.38 414.74 303.38 414.07"></polygon><polygon points="303.38 417.25 274.52 434.4 303.38 418.23 303.38 417.25"></polygon><polygon points="248.54 445.54 277.4 429.4 248.54 446.59 248.54 445.54"></polygon></g><polygon points="248.55 452.73 138.88 389.41 138.88 376.08 248.55 439.39 248.55 452.73" style="fill:#407BFF"></polygon><g style="opacity:0.2"><polygon points="248.55 452.73 138.88 389.41 138.88 376.08 248.55 439.39 248.55 452.73"></polygon></g><g style="opacity:0.30000000000000004;mix-blend-mode:multiply"><polygon points="248.55 442.37 242.77 439.39 248.54 443.18 248.55 442.37"></polygon></g><g style="opacity:0.30000000000000004;mix-blend-mode:multiply"><polygon points="248.54 445.54 219.53 429.32 248.54 446.59 248.54 445.54"></polygon></g><g style="opacity:0.30000000000000004;mix-blend-mode:multiply"><polygon points="138.88 382.36 159.08 394.41 138.88 383.14 138.88 382.36"></polygon></g><g style="opacity:0.30000000000000004;mix-blend-mode:multiply"><polygon points="138.88 385.71 150.42 392.75 138.88 386.45 138.88 385.71"></polygon></g><polygon points="258.1 379.38 201.36 412.15 184.04 402.16 240.78 369.39 258.1 379.38" style="fill:#455a64"></polygon><polygon points="184.04 402.16 184.04 416.66 201.36 426.65 201.36 412.15 184.04 402.16" style="fill:#263238"></polygon><polygon points="201.36 426.65 202.37 426.07 201.36 425.48 201.36 426.65" style="fill:#e0e0e0"></polygon><polygon points="258.1 379.38 258.1 381.6 256.18 380.49 258.1 379.38" style="fill:#e0e0e0"></polygon><g style="opacity:0.30000000000000004;mix-blend-mode:multiply"><polygon points="202.37 426.06 202.37 412.74 201.36 412.15 201.36 425.48 202.37 426.06"></polygon></g><g style="opacity:0.2;mix-blend-mode:multiply"><polygon points="202.37 412.74 257.2 381.08 256.18 380.49 201.36 412.15 202.37 412.74"></polygon></g><polygon points="256.23 378.31 199.48 411.07 198.04 410.24 254.79 377.48 256.23 378.31" style="fill:#fafafa"></polygon><polygon points="244.11 371.31 187.36 404.07 185.92 403.24 242.66 370.48 244.11 371.31" style="fill:#fafafa"></polygon><polygon points="199.48 411.07 199.48 425.57 198.04 424.74 198.04 410.24 199.48 411.07" style="fill:#e0e0e0"></polygon><polygon points="187.36 404.07 187.36 418.57 185.91 417.74 185.92 403.24 187.36 404.07" style="fill:#e0e0e0"></polygon></g></g><g id="freepik--bars-chart--inject-1--inject-25"><polygon points="300.92 89.03 265.01 109.77 300.93 130.5 336.85 109.77 300.92 89.03" style="fill:#407BFF"></polygon><polygon points="300.92 89.03 265.01 109.77 300.93 130.5 336.85 109.77 300.92 89.03" style="opacity:0.30000000000000004"></polygon><polygon points="336.85 109.7 336.85 229.6 300.93 250.33 300.93 130.51 336.85 109.7" style="fill:#407BFF"></polygon><polygon points="336.85 109.7 336.85 229.6 300.93 250.33 300.93 130.51 336.85 109.7" style="opacity:0.4"></polygon><polygon points="300.93 130.51 300.93 250.33 265.01 229.59 265.01 109.77 300.93 130.51" style="fill:#407BFF"></polygon><polygon points="300.93 130.51 300.93 250.33 265.01 229.59 265.01 109.77 300.93 130.51" style="opacity:0.55"></polygon><polygon points="233.08 192.72 197.17 213.45 233.09 234.19 269 213.46 233.08 192.72" style="fill:#407BFF"></polygon><polygon points="233.08 192.72 197.17 213.45 233.09 234.19 269 213.46 233.08 192.72" style="fill:#fff;opacity:0.30000000000000004"></polygon><polygon points="269.01 213.46 269.01 268.76 233.09 289.5 233.09 234.19 269.01 213.46" style="fill:#407BFF"></polygon><polygon points="233.09 234.19 233.09 289.5 197.17 268.76 197.17 213.45 233.09 234.19" style="fill:#407BFF"></polygon><polygon points="233.09 234.19 233.09 289.5 197.17 268.76 197.17 213.45 233.09 234.19" style="opacity:0.1"></polygon><polygon points="165.24 162.77 129.32 183.51 165.24 204.24 201.15 183.5 165.24 162.77" style="fill:#407BFF"></polygon><polygon points="165.24 162.77 129.32 183.51 165.24 204.24 201.15 183.5 165.24 162.77" style="fill:#fff;opacity:0.7000000000000001"></polygon><polygon points="201.16 183.51 201.16 307.98 165.24 328.68 165.24 204.24 201.16 183.51" style="fill:#407BFF"></polygon><polygon points="201.16 183.51 201.16 307.98 165.24 328.68 165.24 204.24 201.16 183.51" style="fill:#fff;opacity:0.6000000000000001"></polygon><polygon points="165.24 204.24 165.24 328.68 129.32 307.94 129.32 183.51 165.24 204.24" style="fill:#407BFF"></polygon><polygon points="165.24 204.24 165.24 328.68 129.32 307.94 129.32 183.51 165.24 204.24" style="fill:#fff;opacity:0.4"></polygon><polygon points="97.39 229.58 61.48 250.33 97.4 271.07 133.31 250.34 97.39 229.58" style="fill:#455a64"></polygon><polygon points="133.32 250.26 133.32 347.1 97.4 367.84 97.39 271.08 133.32 250.26" style="fill:#37474f"></polygon><polygon points="97.39 271.08 97.4 367.84 61.48 347.1 61.48 250.26 97.39 271.08" style="fill:#263238"></polygon><path d="M304.92,68.3v9.21l-12.54-7.25a4.7,4.7,0,0,1-2.13-3.69V59.24Z" style="fill:#b16668"></path><path d="M332.55,82.4V91c0,1.36-.95,1.91-2.13,1.23L316.9,84.43V75.21Z" style="fill:#b16668"></path><path d="M171.56,151.48l1.66-2.54,66,60.55,3.07-.44-.05.08A2.4,2.4,0,0,1,239,210l-8.74-5a12.87,12.87,0,0,1-2.19-1.61Z" style="fill:#b16668"></path><polygon points="304.92 68.3 316.9 75.21 241.07 201.94 230.67 192.4 304.92 68.3" style="fill:#ffa8a7"></polygon><path d="M316.9,75.21v9.21L242.33,209.05a1.91,1.91,0,0,1-3.07.44L175,150.6a2,2,0,0,0-3.15.4l-58.52,89.42h0l-6.64,10.14,0,0a2.49,2.49,0,0,1-1.33,1v-9.21l1.35-1,6.63-10.14,58.53-89.44a2,2,0,0,1,3.15-.39l64.23,58.89a1.92,1.92,0,0,0,3.07-.44Z" style="fill:#f28f8f"></path><path d="M105.37,242.39v9.21a2.56,2.56,0,0,1-2.12-.2l-6.77-3.9-.06,0a4.72,4.72,0,0,1-2.06-3.65V236Z" style="fill:#b16668"></path><path d="M106.72,241.36l65.16-99.58a2.08,2.08,0,0,1,2.75-.68l-11.29-7a2.53,2.53,0,0,0-3.44.76L94.75,234.45a2.3,2.3,0,0,0,.78,3.28l7.72,4.46A2.63,2.63,0,0,0,106.72,241.36Z" style="fill:#ffa8a7"></path><path d="M291.09,60.31,330.73,83.2c1.18.68,2,.14,1.79-1.21l-4.88-35.21A1.86,1.86,0,0,0,325,45.23l-33.76,13C290,58.69,289.91,59.63,291.09,60.31Z" style="fill:#ffa8a7"></path></g><g id="freepik--Dollar--inject-1--inject-25"><polygon points="404.71 236.88 392.42 229.76 416.2 209.48 428.49 216.58 404.71 236.88" style="fill:#407BFF"></polygon><polygon points="404.71 236.88 392.42 229.76 416.2 209.48 428.49 216.58 404.71 236.88" style="opacity:0.30000000000000004"></polygon><path d="M412.26,241.56c-6.28-4.45-17.21-1.09-26.45,1.83-2.22.74-4.23,1.41-6.05,2a11.18,11.18,0,0,0-.91,4.28c0,7.16,6.07,5.21,19.27.86a97.57,97.57,0,0,1,13.64-3.59c.4,3.65,2.93,7,12.8,1.76Z" style="fill:#407BFF"></path><path d="M412.26,241.56c-6.28-4.45-17.21-1.09-26.45,1.83-2.22.74-4.23,1.41-6.05,2a11.18,11.18,0,0,0-.91,4.28c0,7.16,6.07,5.21,19.27.86a97.57,97.57,0,0,1,13.64-3.59c.4,3.65,2.93,7,12.8,1.76Z" style="opacity:0.30000000000000004"></path><polygon points="381.8 334.8 369.51 327.7 369.51 313.18 381.8 320.3 381.8 334.8" style="fill:#407BFF"></polygon><polygon points="381.8 334.8 369.51 327.7 369.51 313.18 381.8 320.3 381.8 334.8" style="opacity:0.30000000000000004"></polygon><path d="M402.63,279.69c0,5.77-4.34,10.92-10.76,14.66-10.25,5.95-14.23,1.1-15.11-3.64l-2.16-1.25a22.79,22.79,0,0,0,5-2.23c4.86-2.83,8.52-6.48,10-10.58C397.17,274.17,402.63,273.2,402.63,279.69Z" style="fill:#407BFF"></path><path d="M402.63,279.69c0,5.77-4.34,10.92-10.76,14.66-10.25,5.95-14.23,1.1-15.11-3.64l-2.16-1.25a22.79,22.79,0,0,0,5-2.23c4.86-2.83,8.52-6.48,10-10.58C397.17,274.17,402.63,273.2,402.63,279.69Z" style="opacity:0.30000000000000004"></path><path d="M356.92,315.27a8.12,8.12,0,0,0-4.49-1.09c-.25-.73-.47-1.49-.66-2.3l-12.3-7.1c1.23,5.33,3.67,8.66,6.89,10.5h0l12.27,7.09S360.7,317.75,356.92,315.27Z" style="fill:#407BFF"></path><path d="M356.92,315.27a8.12,8.12,0,0,0-4.49-1.09c-.25-.73-.47-1.49-.66-2.3l-12.3-7.1c1.23,5.33,3.67,8.66,6.89,10.5h0l12.27,7.09S360.7,317.75,356.92,315.27Z" style="opacity:0.30000000000000004"></path><path d="M398.12,250.5c-13.2,4.35-19.27,6.3-19.27-.86a11.18,11.18,0,0,1,.91-4.28c-9,2.78-13.2,3.13-13.2-2.82,0-4.37,2.95-9.76,11.09-14.5,8.69-5,13.55-3.86,14.77,1.72l23.78-20.28c-.1-.31-.22-.58-.33-.88a15.11,15.11,0,0,0,4.22-1.62l-9.81-5.83c-.31-.2-.62-.39-.94-.56l-.15-.09h0a16.72,16.72,0,0,0-9.34-1.52,41.08,41.08,0,0,0-12.29,3.37v-.25L399.85,195l-12.29-7.11h0l-8.34,4.85-11.28,6.56h0v14.5c-16.66,12.13-27.07,28-27.07,45.12,0,7.8,2.11,12.23,5.51,14.49h0l.16.1a10,10,0,0,0,.91.5l10.29,5.8a7.62,7.62,0,0,0-.63-4.64,57.3,57.3,0,0,0,9.63-2.1c12.51-3.78,23.61-9.72,23.61-.45a11.47,11.47,0,0,1-.75,4.07c7.59-2.48,13.05-3.45,13.05,3,0,5.77-4.34,10.92-10.76,14.66-10.25,5.95-14.23,1.1-15.11-3.64h0l-2.16-1.25-10.13-5.86-25,21.18,12.3,7.1a21.22,21.22,0,0,0,1.89,5.22c4.8.08,10.31-1.5,15.85-3.92v5.87l12.29,1.5,7.15-4.16v-14.5c16.83-12.42,28.46-29.15,28.46-46.62a23.78,23.78,0,0,0-1.39-8.76C410.45,246.63,403.94,248.66,398.12,250.5Z" style="fill:#407BFF"></path><path d="M398.12,250.5c-13.2,4.35-19.27,6.3-19.27-.86a11.18,11.18,0,0,1,.91-4.28c-9,2.78-13.2,3.13-13.2-2.82,0-4.37,2.95-9.76,11.09-14.5,8.69-5,13.55-3.86,14.77,1.72l23.78-20.28c-.1-.31-.22-.58-.33-.88a15.11,15.11,0,0,0,4.22-1.62l-9.81-5.83c-.31-.2-.62-.39-.94-.56l-.15-.09h0a16.72,16.72,0,0,0-9.34-1.52,41.08,41.08,0,0,0-12.29,3.37v-.25L399.85,195l-12.29-7.11h0l-8.34,4.85-11.28,6.56h0v14.5c-16.66,12.13-27.07,28-27.07,45.12,0,7.8,2.11,12.23,5.51,14.49h0l.16.1a10,10,0,0,0,.91.5l10.29,5.8a7.62,7.62,0,0,0-.63-4.64,57.3,57.3,0,0,0,9.63-2.1c12.51-3.78,23.61-9.72,23.61-.45a11.47,11.47,0,0,1-.75,4.07c7.59-2.48,13.05-3.45,13.05,3,0,5.77-4.34,10.92-10.76,14.66-10.25,5.95-14.23,1.1-15.11-3.64h0l-2.16-1.25-10.13-5.86-25,21.18,12.3,7.1a21.22,21.22,0,0,0,1.89,5.22c4.8.08,10.31-1.5,15.85-3.92v5.87l12.29,1.5,7.15-4.16v-14.5c16.83-12.42,28.46-29.15,28.46-46.62a23.78,23.78,0,0,0-1.39-8.76C410.45,246.63,403.94,248.66,398.12,250.5Z" style="fill:#fff;opacity:0.4"></path><path d="M416,246.51c-5.57.12-12.08,2.15-17.9,4-13.2,4.35-19.27,6.3-19.27-.86a11.18,11.18,0,0,1,.91-4.28c1.41-3.35,4.56-6.94,10.2-10.22,8.68-5,13.54-3.85,14.75,1.74l23.78-20.3c-2.28-6.86-6.92-10.43-13.81-10.58-4.13-.11-9.09,1-14.83,3.46V195l-12.29,7.14-7.32,4.26v14.5c-16.66,12.14-27.08,28-27.08,45.12a25.2,25.2,0,0,0,1.48,9.34c3.68,9.19,13.76,7.93,24.38,4.81,3.72-1.12,7.34-2.44,10.56-3.48,7.59-2.48,13.05-3.45,13.05,3,0,5.77-4.34,10.92-10.76,14.66-10.25,5.95-14.23,1.1-15.11-3.64l-25,21.17a21.22,21.22,0,0,0,1.89,5.22c3.25,6.1,9.07,7.78,15.85,6.89a46.81,46.81,0,0,0,12.29-3.69v14.5l19.44-11.22V309c16.84-12.4,28.46-29.13,28.46-46.62C429.7,249.79,423.74,246.33,416,246.51Z" style="fill:#407BFF"></path><polygon points="380.24 220.87 367.94 213.76 367.94 199.25 380.24 206.36 380.24 220.87" style="fill:#407BFF"></polygon><polygon points="380.24 220.87 367.94 213.76 367.94 199.25 380.24 206.36 380.24 220.87" style="opacity:0.30000000000000004"></polygon><path d="M367.94,199.25c2.08,1.13,4.17,2.25,6.23,3.41s4.14,2.31,6.19,3.49h-.24c1.63-1,3.25-1.93,4.89-2.86l4.92-2.83,4.95-2.78c1.65-.93,3.31-1.82,5-2.72-1.61,1-3.21,2-4.83,3l-4.86,2.92-4.89,2.88c-1.62,1-3.27,1.89-4.91,2.84l-.12.07-.12-.07c-2.05-1.19-4.09-2.39-6.11-3.62S370,200.49,367.94,199.25Z" style="fill:#fff"></path><polygon points="380.24 220.87 379.98 206.36 380.5 206.36 380.24 220.87" style="fill:#fff"></polygon><path d="M380.24,220.86l-2.16,1.71c-.7.52-1.51,1.22-2.43,2s-1.95,1.71-3,2.73-2.23,2.2-3.45,3.4-2.39,2.6-3.55,4.08c-.59.72-1.2,1.45-1.76,2.24s-1.17,1.54-1.69,2.37-1.09,1.65-1.61,2.5l-1.48,2.59-1.34,2.67c-.43.9-.78,1.83-1.17,2.73a45.88,45.88,0,0,0-1.79,5.47c-.11.45-.25.9-.34,1.35s-.18.89-.26,1.34a22.26,22.26,0,0,0-.44,2.59c-.1.86-.24,1.68-.28,2.49s-.08,1.58-.11,2.33a35.67,35.67,0,0,0,.09,4.09,25.51,25.51,0,0,0,.45,3.12c.19.85.38,1.51.53,2s.24.68.24.68l-.26-.67a19.1,19.1,0,0,1-.59-1.95,27.56,27.56,0,0,1-.56-3.12,30.73,30.73,0,0,1-.2-4.11c0-.76.05-1.54.07-2.36s.16-1.64.23-2.5.24-1.74.4-2.63a24.52,24.52,0,0,1,.59-2.72,46.13,46.13,0,0,1,1.77-5.54c.39-.92.74-1.85,1.17-2.76s.89-1.8,1.33-2.71l1.52-2.61c.52-.85,1.09-1.67,1.63-2.5s1.16-1.6,1.73-2.39,1.18-1.52,1.78-2.24c1.17-1.49,2.46-2.78,3.63-4s2.37-2.38,3.52-3.36,2.16-1.91,3.13-2.66,1.78-1.44,2.49-1.94Z" style="fill:#fff"></path><path d="M416,246.51l-.47,0c-.3,0-.74.05-1.3.11a46,46,0,0,0-4.6.8c-1.89.41-4.06,1-6.38,1.71s-4.77,1.48-7.22,2.3l-3.68,1.16c-1.22.37-2.42.73-3.6,1a26.6,26.6,0,0,1-3.43.72,11.33,11.33,0,0,1-3.16.11,3.55,3.55,0,0,1-2.38-1.19l-.35-.47c-.09-.17-.14-.34-.21-.5a3,3,0,0,1-.25-.91,5.77,5.77,0,0,1-.12-1.3c0-.31,0-.47,0-.47s0,.16,0,.46a6.48,6.48,0,0,0,.18,1.29,3.24,3.24,0,0,0,.29.88c.08.15.14.31.23.47l.35.43a3.41,3.41,0,0,0,2.27,1,10.51,10.51,0,0,0,3.07-.19c.54-.09,1.09-.2,1.66-.34s1.13-.28,1.72-.44c1.16-.31,2.35-.68,3.56-1.06l3.67-1.19c2.45-.8,4.92-1.57,7.25-2.24s4.54-1.19,6.45-1.56a36.14,36.14,0,0,1,4.65-.59c.57,0,1,0,1.31,0Z" style="fill:#fff"></path><path d="M402.63,279.69v.43a10.89,10.89,0,0,1-.08,1.21,11.44,11.44,0,0,1-.36,1.85,11.92,11.92,0,0,1-.89,2.29,17.3,17.3,0,0,1-1.53,2.47,20,20,0,0,1-2.15,2.43,30.62,30.62,0,0,1-5.64,4.22l-1.58.83c-.52.28-1.09.49-1.63.74a18,18,0,0,1-3.34,1,8.76,8.76,0,0,1-3.27,0,7.76,7.76,0,0,1-1.46-.46,6.85,6.85,0,0,1-1.2-.77,6.22,6.22,0,0,1-1.6-1.87,9.64,9.64,0,0,1-.76-1.73,11.33,11.33,0,0,1-.3-1.18l-.08-.42.11.42a9.7,9.7,0,0,0,.36,1.15,9.14,9.14,0,0,0,.83,1.66,6.73,6.73,0,0,0,1.62,1.74,6,6,0,0,0,1.16.69,6.35,6.35,0,0,0,1.39.39,9.12,9.12,0,0,0,3.12-.05,16.93,16.93,0,0,0,3.23-1c.52-.25,1.06-.45,1.58-.74l1.57-.85a33.77,33.77,0,0,0,2.95-1.91,26.85,26.85,0,0,0,2.63-2.17,18.61,18.61,0,0,0,3.73-4.71,14.08,14.08,0,0,0,1-2.21,11,11,0,0,0,.45-1.8,9,9,0,0,0,.14-1.2Z" style="fill:#fff"></path><path d="M339.47,304.78l6.22,3.42,6.19,3.48-.26,0,6.23-5.32,6.26-5.27c2.09-1.77,4.2-3.5,6.3-5.24s4.23-3.44,6.35-5.17c-2.05,1.81-4.08,3.64-6.14,5.42s-4.12,3.58-6.2,5.34l-6.24,5.31-6.27,5.27-.12.1-.14-.08-6.1-3.62Z" style="fill:#fff"></path><path d="M401.24,309l1.9-1.52c.61-.48,1.35-1.06,2.15-1.78s1.76-1.47,2.71-2.39,2.05-1.86,3.09-3l1.64-1.66,1.64-1.8c.57-.6,1.11-1.24,1.65-1.9s1.1-1.31,1.63-2c1-1.39,2.12-2.79,3.06-4.27s1.88-3,2.76-4.48,1.61-3,2.24-4.57,1.18-3,1.73-4.43c.21-.73.42-1.43.62-2.12.1-.34.2-.68.29-1s.15-.66.22-1c.27-1.29.55-2.47.67-3.54s.3-2,.32-2.77c.09-1.54.14-2.43.14-2.43s0,.89-.05,2.44a27.17,27.17,0,0,1-.23,2.78,28.85,28.85,0,0,1-.56,3.59c-.07.32-.13.66-.2,1s-.18.67-.27,1c-.19.69-.38,1.41-.58,2.15-.53,1.43-1,3-1.68,4.49s-1.43,3.07-2.23,4.63-1.73,3.07-2.75,4.53-2,2.89-3.11,4.28c-.54.69-1.11,1.34-1.66,2s-1.1,1.3-1.67,1.9L413,299l-1.68,1.64c-1.07,1.08-2.17,2-3.16,2.9s-2,1.63-2.79,2.32-1.59,1.24-2.21,1.7Z" style="fill:#fff"></path><path d="M369.51,324c1.06-.18,2.1-.42,3.14-.7s2.06-.57,3.07-.91c2-.69,4-1.45,6-2.32l.36-.16v.4c0,1.2,0,2.41,0,3.62l0,3.63c0,2.41-.1,4.83-.21,7.25q-.15-3.63-.21-7.25l0-3.63c0-1.21,0-2.42,0-3.62l.36.23a57.23,57.23,0,0,1-6.07,2.22A32.66,32.66,0,0,1,369.51,324Z" style="fill:#fff"></path><path d="M390,235.14c.66-.37,1.29-.77,2-1.11s1.33-.68,2-1a10.2,10.2,0,0,1,1-.41,8.55,8.55,0,0,1,1.08-.36c.36-.09.72-.22,1.09-.28s.75-.15,1.13-.17a8.69,8.69,0,0,1,1.14,0,6.34,6.34,0,0,1,1.15.14,4.85,4.85,0,0,1,1.1.35,5.67,5.67,0,0,1,1,.59,5,5,0,0,1,.83.82,5.61,5.61,0,0,1,.64,1,7.08,7.08,0,0,1,.46,1.06c.13.37.21.74.32,1.11l-.39-.13,5.94-5.09,6-5.06,6-5,6-5-5.85,5.19-5.89,5.13-5.93,5.1-6,5.06-.28.24-.1-.37c-.1-.35-.18-.71-.3-1.06a5.81,5.81,0,0,0-.43-1,4.2,4.2,0,0,0-.58-.9,4.56,4.56,0,0,0-.75-.77,4.45,4.45,0,0,0-.91-.56,4,4,0,0,0-1-.35,5.42,5.42,0,0,0-1.07-.16,8.06,8.06,0,0,0-1.1,0c-.37,0-.73.1-1.1.15s-.72.16-1.08.24-.72.21-1.07.32a9.32,9.32,0,0,0-1.05.37c-.7.26-1.39.56-2.06.88S390.63,234.8,390,235.14Z" style="fill:#fff"></path></g></svg>