<svg xmlns="http://www.w3.org/2000/svg" viewBox="0 0 500 500"><g id="freepik--Plants--inject-5"><g id="freepik--plants--inject-5"><path d="M427.27,296.42c-3.39,4-8.37,9.4-13.22,15.36-7.25,8.92-14.2,19.07-15,27.38l-.2.82h0l-3,12.43-.41,1.69-2.64-2.28-6.49-5.61c.17-12.05,1.14-23.82,7.63-41,6-15.87,20.92-31.71,30.8-30.85C433.9,275.15,435.74,286.51,427.27,296.42Z" style="fill:#4caf50"></path><path d="M427.27,296.42c-3.39,4-8.37,9.4-13.22,15.36-7.25,8.92-14.2,19.07-15,27.38l-.2.82h0l-3,12.43-.41,1.69-2.64-2.28-6.49-5.61c.17-12.05,1.14-23.82,7.63-41,6-15.87,20.92-31.71,30.8-30.85C433.9,275.15,435.74,286.51,427.27,296.42Z" style="fill:#fff;opacity:0.25"></path><path d="M390.38,346.52a.6.6,0,0,0,.47-.54c2-31.12,19.85-56.75,34.51-64.47a.59.59,0,0,0-.55-1c-14.9,7.84-33.11,33.89-35.14,65.44a.58.58,0,0,0,.55.62A.43.43,0,0,0,390.38,346.52Z" style="fill:#fff"></path><path d="M434.74,317.78c-2.13,5.7-14.15,10.59-23,18.78-8,7.4-12.47,15.6-13.12,20.29h0l-3.17-2.73-2.64-2.28c2.48-21.86,11.61-34.66,21.29-40.05a24.47,24.47,0,0,1,7.11-2.66C431.27,307.16,437.28,311,434.74,317.78Z" style="fill:#4caf50"></path><path d="M434.74,317.78c-2.13,5.7-14.15,10.59-23,18.78-8,7.4-12.47,15.6-13.12,20.29h0l-3.17-2.73-2.64-2.28c2.48-21.86,11.61-34.66,21.29-40.05a24.47,24.47,0,0,1,7.11-2.66C431.27,307.16,437.28,311,434.74,317.78Z" style="fill:#fff;opacity:0.6000000000000001"></path><path d="M396,352.4a.59.59,0,0,0,.45-.45c5.07-24.63,21.79-35.39,29.92-37.63a.59.59,0,0,0,.41-.73.57.57,0,0,0-.72-.41c-9,2.48-25.59,13.39-30.77,38.53a.61.61,0,0,0,.46.7A.69.69,0,0,0,396,352.4Z" style="fill:#fff"></path></g><g id="freepik--plants--inject-5"><path d="M57.25,320c3.39,4,8.37,9.4,13.22,15.36,7.25,8.92,14.19,19.06,15,27.38l.2.82h0l3,12.43.41,1.69,2.64-2.28,6.49-5.61a109.72,109.72,0,0,0-7.64-41C84.62,313,69.7,297.11,59.82,298,50.62,298.77,48.78,310.12,57.25,320Z" style="fill:#4caf50"></path><path d="M57.25,320c3.39,4,8.37,9.4,13.22,15.36,7.25,8.92,14.19,19.06,15,27.38l.2.82h0l3,12.43.41,1.69,2.64-2.28,6.49-5.61a109.72,109.72,0,0,0-7.64-41C84.62,313,69.7,297.11,59.82,298,50.62,298.77,48.78,310.12,57.25,320Z" style="fill:#fff;opacity:0.25"></path><path d="M94.14,370.14a.59.59,0,0,1-.47-.54c-2-31.12-19.86-56.75-34.51-64.47a.59.59,0,0,1-.25-.8.59.59,0,0,1,.8-.24C74.6,311.93,92.82,338,94.85,369.52a.59.59,0,0,1-.55.63A.42.42,0,0,1,94.14,370.14Z" style="fill:#fff"></path><path d="M49.78,341.4c2.13,5.7,14.14,10.59,23,18.78,8,7.4,12.47,15.6,13.13,20.29h0l3.17-2.73,2.64-2.28c-2.49-21.86-11.61-34.66-21.29-40.05a24.57,24.57,0,0,0-7.11-2.66C53.25,330.78,47.23,334.57,49.78,341.4Z" style="fill:#4CAF50"></path><path d="M49.78,341.4c2.13,5.7,14.14,10.59,23,18.78,8,7.4,12.47,15.6,13.13,20.29h0l3.17-2.73,2.64-2.28c-2.49-21.86-11.61-34.66-21.29-40.05a24.57,24.57,0,0,0-7.11-2.66C53.25,330.78,47.23,334.57,49.78,341.4Z" style="fill:#fff;opacity:0.6000000000000001"></path><path d="M88.56,376a.59.59,0,0,1-.45-.46C83,350.94,66.33,340.18,58.2,337.93a.59.59,0,1,1,.31-1.14c9,2.49,25.59,13.4,30.76,38.54a.58.58,0,0,1-.46.69A.53.53,0,0,1,88.56,376Z" style="fill:#fff"></path></g></g><g id="freepik--Shadows--inject-5"><ellipse id="freepik--Shadow--inject-5" cx="278.58" cy="386.79" rx="134.17" ry="77.46" style="fill:#4caf50aa"></ellipse><ellipse id="freepik--shadow--inject-5" cx="132.85" cy="415.31" rx="91.83" ry="53.02" style="fill:#4caf50aa"></ellipse></g><g id="freepik--Characters--inject-5"><g id="freepik--Character--inject-5"><g id="freepik--Arm--inject-5"><path d="M179.16,144.57c7.93,2.1,15.36,3.63,20.93,4.59A159.43,159.43,0,0,0,217.43,151s5.87,11.6-1.09,19.62c-12.16,5.06-33.84-1-33.84-1Z" style="fill:#FF81AE"></path><path d="M179.16,144.57c7.93,2.1,15.36,3.63,20.93,4.59A159.43,159.43,0,0,0,217.43,151s5.87,11.6-1.09,19.62c-12.16,5.06-33.84-1-33.84-1Z" style="opacity:0.2"></path></g><g id="freepik--Head--inject-5"><path d="M180.84,80.78c2.93-1.25,7.81-3.31,10.33-2.56,9.64,2.73,12.9,12.25,11,23-1.65,9.14-5.5,13.14-10.79,24.81-2.45,5.41-2.76,10.86-.12,16a.47.47,0,0,1-.46.66,12.3,12.3,0,0,1-8.08-2.89c-.66,4.91-10.76-.77-13.27-2-16.3-9.48-13-29.67-6.18-43.9C165.89,86.85,172.85,82.32,180.84,80.78Z" style="fill:#263238"></path><path d="M183.9,66.19a8.92,8.92,0,0,0,.92,1.66c1.36,1.65,4.32,1.15,5.62,2.86a9.92,9.92,0,0,1,1,2.7c.71,1.94,2.52,3.24,3.65,5a8.08,8.08,0,0,1,1.13,6.11,2.94,2.94,0,0,1-.55,1.28,2.91,2.91,0,0,1-1.28.83c-2.95,1.12-6.37.16-8.93-1.69s-4.43-4.49-6.25-7.07c-1.17-1.65-2.43-3.27-3.47-5a9.54,9.54,0,0,1-1.56-3.72,4.49,4.49,0,0,1,1.26-3.3,5,5,0,0,1,8.47.39Z" style="fill:#FF81AE"></path><path d="M132.94,112.18c-.74-.62-.81-1.57,1.06-5.56l6.83-44.48C130.64,56.55,116,63.47,111.72,76c-2.12,6.22-2.79,12.35-3.47,18.77-.68,5.75-3,11.89-7.57,15.64-4.4,4.13,6,2.89,7.7,1.76-2.31,4.37-1.33,9.69,1,13.8a.69.69,0,0,0,.73.48c.84,0,3.06-2.42,3.76-2.87a13.86,13.86,0,0,0,12.33,12.07,2.12,2.12,0,0,0,2.66-1.43c1.31-3.44,1.76-7.15,3.08-10.58S135.94,115.62,132.94,112.18Z" style="fill:#263238"></path><path d="M183.69,111c21.47-12,5.49-49.89-17-42.15-4.32-6.89-31.94-9.34-40.18,14.76-6.21,18.15-5.82,32.65,13.17,45.85C155.72,131.84,171.72,119.58,183.69,111Z" style="fill:#263238"></path><path d="M119.2,84.72c-1.31-1.61-.38-3.54,1.69-4.67s-1-2.3,1.41-4,4.62-2.46,4.14-4.31C128,73,131,81.27,127.73,83.83S121.78,86.81,119.2,84.72Z" style="fill:#FF81AE"></path><path d="M119.2,84.72c-1.31-1.61-.38-3.54,1.69-4.67s-1-2.3,1.41-4,4.62-2.46,4.14-4.31C128,73,131,81.27,127.73,83.83S121.78,86.81,119.2,84.72Z" style="opacity:0.15"></path><path d="M143.16,59.31A4.67,4.67,0,0,0,140,60.59a21.83,21.83,0,0,1-2.17,2c-1.53,1-3.51.88-5.35,1a9.18,9.18,0,0,0-5.56,2.08,5,5,0,0,0-1.46,5.47,5.26,5.26,0,0,1,.85,2.28c-.06.87-.79,1.52-1.14,2.32-1,2.21,1.21,4.89.24,7.11-.8,1.85-4.47,2.89-6.19,1.83.4,2.19,3.7,3,5.92,2.86a6.31,6.31,0,0,0,5.06-3.85,2.42,2.42,0,0,1,.24-.61c.08-.22.16-.44.23-.66a9.09,9.09,0,0,1,.48-1.26c.13-.26.37-.45.5-.71a10.52,10.52,0,0,0,.5-1.32,5.51,5.51,0,0,1,1-2,7.19,7.19,0,0,1,3.09-1.49,3.45,3.45,0,0,0,2.5-2.18c.17-.79-.16-1.66.15-2.41a2.29,2.29,0,0,1,1.59-1.2c.67-.18,1.37-.2,2-.38a4.48,4.48,0,0,0,2.06-1.2,4.37,4.37,0,0,0,.64-.65,5.78,5.78,0,0,0,.59-2,21.3,21.3,0,0,0,.26-2.76C146.17,61,145.22,59.38,143.16,59.31Z" style="fill:#FF81AE"></path><path d="M187.82,107.62c-.09,3.48.33,4.9,0,10.51s-2.16,10.26-5.32,13.68c-3.64,3.94-9.9,5.8-15.85,5.6l-1.42-.07-.71,6.23c3.51,5.25,7.57,10.18-4.29,11.42s-23.85-9-23.68-14.86L139.47,118c0,.83-3.95,4.24-8.24.73-2.64-2.17-4.08-7.79-2-12.07a5.67,5.67,0,0,1,7.71-3c4.22,1.64,3.3,5.28,6,5.55,3.19.31,5.25-3.4,5.25-7.28a11.1,11.1,0,0,0,6.09-12.13c3.4-6.6,13.26-9.47,20.61-1.75,7.84-5.28,13.48-1.2,14.36,7.92C189.76,101.88,187.93,103.6,187.82,107.62Z" style="fill:#ffa8a7"></path><path d="M165.21,137.3a41.54,41.54,0,0,1-17-6,19,19,0,0,1-6-6.82,16.43,16.43,0,0,0,3.22,7.57c5.86,6.91,19.41,8.43,19.41,8.43Z" style="fill:#f28f8f"></path><path d="M160.7,110.46a5.18,5.18,0,1,1-5.69-4.61A5.17,5.17,0,0,1,160.7,110.46Z" style="fill:#f28f8f"></path><path d="M190.84,115a5.18,5.18,0,1,1-5.69-4.61A5.17,5.17,0,0,1,190.84,115Z" style="fill:#f28f8f"></path><path d="M165.88,104.92a2.87,2.87,0,1,1-2.86-3A2.92,2.92,0,0,1,165.88,104.92Z" style="fill:#263238"></path><path d="M159.59,98.06l5.32-2.36a2.91,2.91,0,0,0-5.32,2.36Z" style="fill:#263238"></path><path d="M180.94,96.86l4.84,3.37a2.95,2.95,0,1,0-4.84-3.37Z" style="fill:#263238"></path><path d="M162.29,117.16,171.6,122a5.16,5.16,0,0,1-7,2.44A5.49,5.49,0,0,1,162.29,117.16Z" style="fill:#b16668"></path><path d="M166.61,124.31a5.6,5.6,0,0,0-4.78-5.62,5.43,5.43,0,0,0,2.76,5.73,5.14,5.14,0,0,0,1.94.54A4.62,4.62,0,0,0,166.61,124.31Z" style="fill:#f28f8f"></path><path d="M184.86,107a2.87,2.87,0,1,1-2.86-3A2.92,2.92,0,0,1,184.86,107Z" style="fill:#263238"></path><polygon points="170.09 103.69 169.74 117.36 177.91 116.02 170.09 103.69" style="fill:#f28f8f"></polygon></g><g id="freepik--Leg--inject-5"><path d="M307.79,369.16c.68-5.19,2-12.63,2-12.63l29.5,5.92a43.1,43.1,0,0,0-3.17,8.58c-1.07,4.19,2.42,10.66,2.42,10.66s-7.75,7.59-17.42,6.67-13.65-17.18-13.65-17.18Z" style="fill:#f28f8f"></path><path d="M372.7,410.12c.42,0,.86,4.68-1.51,6.56-2.73,2.16-10.63,5.58-20.81,3.83s-15.59-5.15-19.55-8.75-9.49-8.67-14.08-9.89c-4.26-1.13-11.16-3.84-12.48-5.23s-.88-7.29-.88-7.29Z" style="fill:#263238"></path><path d="M307.83,368.83s-.64-.25-1,1.11c-.38,1.62-1,4.49-1.76,7.14-1.09,3.67-2,11.26-1.6,14.31s9.67,6,14.08,7.92,9.64,5.74,14.13,9.77c4.64,4.17,14.6,8.57,21.26,8.94,10.18.58,16.89-1.91,19.08-5.49,2.71-4.42,1.65-9.17-9.83-15.08-2.17-1.12-9.76-6.05-12.34-7.83a60.18,60.18,0,0,1-7.72-6.26c-.56-.55-1.12-1.11-1.66-1.69-.29-.3-.57-.62-.85-.93A9.72,9.72,0,0,0,339,380a2.08,2.08,0,0,1-.49-.68,4.38,4.38,0,0,1-.45-1.84c0-1,.27-2-.22-2.83a2.28,2.28,0,0,0-1.67-1,7.13,7.13,0,0,0-2,.09c-3.16.46-6.43.81-9.51,0a8.5,8.5,0,0,0-1.51-.35,6.45,6.45,0,0,0-.76,0c-.21,0-.42,0-.63,0a6.38,6.38,0,0,0-2.54,1,8.8,8.8,0,0,0-.83.65l-.15.14a10.58,10.58,0,0,0-1.76,2.29c-.2.35-.53.78-.47,1.2,0,.14.06.27-.08.36-.55.31-1-1.19-1.16-1.51-.29-.78-.46-1.61-.79-2.38a6.86,6.86,0,0,0-1.35-2.53c-1.88-1.72-3.65-1.37-4.19-1.95C308.42,370.73,307.61,370.29,307.83,368.83Z" style="fill:#37474f"></path><path d="M362.85,397.78c-14.79.4-19.39,12-20.26,17.61A35,35,0,0,0,353,418c10.18.58,17.31-1.89,19.5-5.46C375,408.38,373.14,402.18,362.85,397.78Z" style="fill:#fafafa"></path><path d="M341.16,399.69a.66.66,0,0,1-.45-.18.71.71,0,0,1-.06-1c2.16-2.43,9-7.55,14.36-6.75a.72.72,0,0,1,.6.82.71.71,0,0,1-.82.61c-5-.74-11.35,4.35-13.06,6.27A.71.71,0,0,1,341.16,399.69Z" style="fill:#f0f0f0"></path><path d="M335,395.73a.77.77,0,0,1-.45-.18.73.73,0,0,1-.06-1c2.16-2.43,9-7.56,14.36-6.74a.72.72,0,0,1,.61.82.71.71,0,0,1-.82.6c-5-.74-11.36,4.35-13.07,6.28A.71.71,0,0,1,335,395.73Z" style="fill:#f0f0f0"></path><path d="M329.25,391.26a.74.74,0,0,1-.44-.18.72.72,0,0,1-.06-1c2.15-2.43,9.05-7.55,14.36-6.74a.72.72,0,0,1-.22,1.42c-5-.74-11.36,4.35-13.07,6.28A.71.71,0,0,1,329.25,391.26Z" style="fill:#f0f0f0"></path><path d="M323.67,386.79a.66.66,0,0,1-.44-.17.72.72,0,0,1-.08-1c3-3.45,10.26-7.57,15.59-6.76a.72.72,0,1,1-.21,1.42c-4.8-.72-11.65,3.23-14.29,6.28A.69.69,0,0,1,323.67,386.79Z" style="fill:#f0f0f0"></path><path d="M283.56,262.46c3.17,2.28,30.74-1.43,53.51,1.35,31.74,3.87,33.95,15.57,34.67,27.67.64,10.79-5.36,22.2-13.89,38.9-5.21,10.19-20.31,38.71-20.31,38.71s-20.13,6.11-29.22-8.91c0,0,2.22-33.22,5.62-39l-45.59,9.92L243.57,291Z" style="fill:#37474f"></path><path d="M313.94,321.16c4.39-10.91,11.07-18.09,13.95-19.26-14.47,3.72-19,20.08-19,20.08Z" style="fill:#263238"></path><path d="M201,412.83c.07,1.56-.36,4.17-2.18,5.29-5.67,3.47-14.64,4.71-21.66,2.85-8.05-2.14-12.07-6.49-13.84-11.87s-1.44-10.37-.14-17.86a42,42,0,0,0-.68-16.54c-2.91-10.85-2-18.2-.31-22.47,2.76-7,10.14-7.71,14.68-6.21l1.92,62.56Z" style="fill:#263238"></path><path d="M190.14,388.4c.24,7.34,2,9.92,5.43,14.14,3,3.71,10.42,8.23,1.21,13.24-7.17,3.89-25.24,5.44-30.59-6.48-4.14-9.25,1.18-18.29-.72-30.56-.59-3.82-2.55-10.6-2.49-16.25.07-6.53,2.47-11.87,6.9-14.78,5.12-3.36,10.55-2.65,19,2.24,4,2.33,6,3.07,5.9,5.3l-1.43-.59c-4.8-.71-8.22,7.18-10.19,10.56-3.11,5.32,0,11,.56,17.91Z" style="fill:#37474f"></path><path d="M194.87,401.45c-7.4-5.24-24-1.34-27,3.31s-1.84,6.93.37,9.06,9.62,6,21.44,4.23,11.84-6.18,12-8S198.13,404.46,194.87,401.45Z" style="fill:#fafafa"></path><path d="M191.29,395.63c-4.66-2.42-15.3-1.42-18.15.73-.09-2.2,2.59-3.85,8.7-4.1S191.22,393.71,191.29,395.63Z" style="fill:#fafafa"></path><path d="M190.21,389.75c-4.66-2.42-15.31-1.42-18.16.74-.09-2.2,2.6-3.86,8.71-4.11S190.13,387.84,190.21,389.75Z" style="fill:#fafafa"></path><path d="M191.9,353.76l9.48,4.51,1,41.68L190.14,388.4l-6.4-5.27s-2.69-5.34-2.33-14.6C181.81,358.38,185.44,354,191.9,353.76Z" style="fill:#f28f8f"></path><path d="M193.52,374.42a104.83,104.83,0,0,1,7.86-16.15l7.58,3.36s-11.77-21-17.41-37.12c-5.33-15.25-8.94-31.54-5.36-52.52l64.73-4.38,32.64-5.15C295.13,288.58,268.44,321,268.44,321s14.26,54.33,19,71.13c4.48,15.81,2.25,27.95-4.72,34C271,436.34,254,437.23,232.2,422.92c-20.67-13.56-41.26-31.87-41.26-31.87S189.42,385.87,193.52,374.42Z" style="fill:#37474f"></path><path d="M313.94,321.16l-39.32,6.46-1.81-8.57s15.61-15,12.7-30.3C278.79,307.21,266,313.91,266,313.91l5,16.6Z" style="fill:#263238"></path><path d="M201.38,358.27l7.58,3.36h0s21.43,36.75,33.42,41c0,0-15.25-3.53-25.6-16.62C210,377.5,201.38,358.27,201.38,358.27Z" style="fill:#263238"></path></g><g id="freepik--Top--inject-5"><g id="freepik--Chest--inject-5"><path d="M324,240.12c-7.9-14.42-16.34-33.22-30-50.92s-13.93-19.07-28.79-24.41l10.4,63.37,20,24.35-7.77,8.81c22.25,1.64,19.22,15,19.22,15s13.73,1.17,19.42-4.08C337.17,262.37,326.63,244.86,324,240.12Z" style="fill:#FF81AE"></path><path d="M295.37,237.78c7.54-3.2,13.14-2.62,16-1.81-9.9-5.17-21.57,2-21.57,2l-13.67-22,1.16,14.24,15.2,18.54-.21-7.33c11.62-4.16,24.47-2.42,29.33,2.42C315.48,236.78,305.23,236.15,295.37,237.78Z" style="opacity:0.2"></path><path d="M277.14,188.66c-3.17-18.24-8.45-23-14.25-24.88,0,0-19.29-8.92-36.7-8.22s-34.25,3.74-39.64,10.24c-8.29,10-8.44,37.35-8.05,56.54.32,16.08,1.51,48.65,6.34,71,37,7.82,83.81,6.57,102.67-29.55,5.1-21.8-3.85-32.15-7-40.83C279.76,211.89,278.63,197.25,277.14,188.66Z" style="fill:#263238"></path><g id="freepik--head--inject-5"><path d="M248.62,140.81c6.27-11,16.68-18.72,19.62-31.72,1-5.34,3.29-11.87-1.57-16.1,2.27-3,3.22-7.31,1.09-10.77s-5-4.67-6.79-4.26c1.19-2.93.36-5.66-2.49-8.6s-5.67-2.42-8.72-2.16c-1-9.29-13.12-12.13-19.2-5.91-4.9-9.84-23-5.46-25.52,4.31-8.74-3.75-14.46,8.82-10.37,17.1-6.31,2.19-3.69,13,2,14.57.95,0,.81,1.28.93,1.93,4.25,12.19,20.93,11.42,31.23,15.58.43.12,2.7.41,2.95.82Z" style="fill:#263238"></path><path d="M258.53,133.82c-5.86,3-9.43-.93-9.43-.93l-1.68,27.45s7.26,15-10.1,12.78-23.6-9.86-24.95-15.91l.13-8.14s-2.83-.29-6.56-1.08c-6.22-1.29-11.28-6.25-13.21-13-2.32-8.16-1.57-18.87.61-27.32a38.77,38.77,0,0,0,1.07-8.31,24.67,24.67,0,0,1,1.74-9.67,12.35,12.35,0,0,1,6.26-7c11.6-5.41,34.9-1.2,35.18,11.32.33,9.9,0,13.92,5.78,16.83-.46,2.37-1.18,8.4,2.77,8.56,2.84.11,3.27-3.43,6.4-6.36s10-3.31,12.29,1.49C268.07,121.21,265,130.56,258.53,133.82Z" style="fill:#f28f8f"></path><path d="M245.18,119.16a2,2,0,0,1-.42-.19l-.2-.13a2.69,2.69,0,0,1-.32-.27l-.16-.17c-.1-.12-.19-.25-.28-.38l-.09-.15a5.8,5.8,0,0,1-.63-2.16v0c0-.27-.05-.54-.06-.82h0c-.85,5.1-5.69,13.59-12,13.1-8.28-.65-12.56-5.76-22.29-4.73-7.77.82-9.28,3-12.33,3.36s-5-2.22-5.07-2.27A41.88,41.88,0,0,0,192.73,135c1.93,6.78,7,11.74,13.21,13,3.73.79,6.56,1.08,6.56,1.08h0c1.84.94,11.34,2.22,21.22-3.9a22.15,22.15,0,0,0,6.19-5c2.17-2.44,3.53-6.89,4.21-10.31a70.51,70.51,0,0,1,4.35-11.53,3.37,3.37,0,0,1-.48.45v0a3.24,3.24,0,0,1-.52.33l-.05,0a2.67,2.67,0,0,1-.5.17l-.14,0a2.6,2.6,0,0,1-.63,0,2.87,2.87,0,0,1-.75-.12Z" style="fill:#b16668;opacity:0.35000000000000003"></path><path d="M220.8,127c-.59,0-.79.42-1.15.83a10.12,10.12,0,0,1-1.1,1.07,9.86,9.86,0,0,1-2.82,1.65,12.86,12.86,0,0,1-3.23.81c-1.12.11-2.21-.09-3.32,0-.27,0-.32.52-.1.63a8.07,8.07,0,0,0,3.54.67,10.43,10.43,0,0,0,3.88-.62,11.16,11.16,0,0,0,2.91-1.65,10.61,10.61,0,0,0,1.2-1.12,1.8,1.8,0,0,0,.65-1.67C221.23,127.39,221.05,127,220.8,127Z" style="fill:#9a4a4d"></path><path d="M212.5,149.07a38.58,38.58,0,0,0,10.94-.58c4.51-.9,10.54-3.11,15-7.72,3.9-4.06,5.71-11,5.71-11s-.3,8.75-5.15,14.06c-3.55,3.88-10.81,8.24-26.53,8.51Z" style="fill:#b16668"></path><path d="M221.53,107.53c-.62,1.49.94,1.22,2.38,1.81s2.21,1.81,2.82.32a2.81,2.81,0,1,0-5.2-2.13Z" style="fill:#263238"></path><path d="M229.27,99.94,224,95.61a3.58,3.58,0,0,0,.53,5A3.34,3.34,0,0,0,229.27,99.94Z" style="fill:#263238"></path><path d="M204.62,94.53,198.16,97a3.31,3.31,0,0,0,4.35,2.08A3.64,3.64,0,0,0,204.62,94.53Z" style="fill:#263238"></path><path d="M198.34,107.06c.23,1.6,1.41.48,2.95.25s2.84.53,2.61-1.06a2.81,2.81,0,1,0-5.56.81Z" style="fill:#263238"></path><path d="M201.74,116.48l11.16,4.31,3.25-17.58C212.69,101.51,207,109.73,201.74,116.48Z" style="fill:#b16668"></path></g><path d="M217.7,126.58a1,1,0,0,0,0-.41c-.06-.15-.12-.29-.19-.44a8.59,8.59,0,0,0-.83-1.35,8.3,8.3,0,0,0-.54-.64l-.28-.28a.6.6,0,0,0-.22-.17l-.17-.05c-.29-.07-.38.43-.3.61a3.41,3.41,0,0,0,.17.33l.13.15.25.3q.24.32.45.63a6.52,6.52,0,0,1,.38.68c.06.11.11.22.17.34a1.42,1.42,0,0,0,.08.18l0,.07h0v0l.07.18c0,.09,0,0,0,0a1,1,0,0,0,.17.31c.3.3.61-.11.64-.41Z" style="fill:#263238"></path><path d="M219.36,126.17a3.8,3.8,0,0,0-.55-1.08,8.43,8.43,0,0,0-.55-.78,7,7,0,0,0-.71-.73,6.73,6.73,0,0,0-.72-.6c-.13-.1-.28,0-.33.15a.42.42,0,0,0,0,.46,14.78,14.78,0,0,1,1.21,1.53c.17.25.37.53.51.75s.16.27.23.41a2.51,2.51,0,0,0,.32.52.25.25,0,0,0,.41,0A.73.73,0,0,0,219.36,126.17Z" style="fill:#263238"></path><path d="M221,127.32a4.29,4.29,0,0,0-.36-1.08,8.61,8.61,0,0,0-.53-1,5.46,5.46,0,0,0-1.45-1.54c-.18-.14-.35.26-.24.39a11.38,11.38,0,0,1,1.23,1.87,7.23,7.23,0,0,1,.42.89c.13.33.2.68.33,1a.25.25,0,0,0,.4.12A.72.72,0,0,0,221,127.32Z" style="fill:#263238"></path><path d="M222.68,128a3.17,3.17,0,0,0-.43-1q-.27-.48-.57-.93a13.17,13.17,0,0,0-1.11-1.47c-.3-.34-.62.38-.43.64a15.41,15.41,0,0,1,1.06,1.73c.15.28.3.57.43.87a3.59,3.59,0,0,0,.45.87.29.29,0,0,0,.45,0A.77.77,0,0,0,222.68,128Z" style="fill:#263238"></path><path d="M224.31,128.65a2.55,2.55,0,0,0-.49-1.25q-.3-.5-.63-1a13.66,13.66,0,0,0-1.29-1.54c-.13-.14-.33.07-.38.17a.56.56,0,0,0,0,.56,15.78,15.78,0,0,1,1.22,1.69c.18.29.34.59.5.89l.24.47c.09.17.17.4.35.49S224.31,128.9,224.31,128.65Z" style="fill:#263238"></path><path d="M204.62,126.62a.81.81,0,0,1,0-.41,3.43,3.43,0,0,1,.19-.44,8.35,8.35,0,0,1,.85-1.33,5.62,5.62,0,0,1,.55-.64l.28-.28a.76.76,0,0,1,.23-.17l.17,0c.29-.06.37.43.28.62a1.66,1.66,0,0,1-.17.32l-.13.14c-.09.1-.17.21-.25.31a6.62,6.62,0,0,0-.46.62c-.15.22-.27.45-.4.68l-.16.33-.09.18,0,.07h0v0c0,.06-.05.11-.07.17h0a.83.83,0,0,1-.18.3c-.3.3-.61-.11-.63-.42C204.61,126.65,204.62,126.63,204.62,126.62Z" style="fill:#263238"></path><path d="M203,126.19a4,4,0,0,1,.57-1.08c.18-.26.36-.52.56-.77a7.08,7.08,0,0,1,.72-.73c.24-.2.48-.4.73-.59s.28,0,.33.17a.41.41,0,0,1,0,.46,14.53,14.53,0,0,0-1.22,1.5c-.19.25-.39.53-.53.75l-.24.4a2.51,2.51,0,0,1-.32.52.26.26,0,0,1-.42,0A.75.75,0,0,1,203,126.19Z" style="fill:#263238"></path><path d="M201.35,127.31a4.76,4.76,0,0,1,.37-1.08,7.81,7.81,0,0,1,.55-1,5.49,5.49,0,0,1,1.47-1.53c.19-.13.35.26.23.4a12.31,12.31,0,0,0-1.26,1.85,7.1,7.1,0,0,0-.42.88c-.14.33-.21.68-.35,1a.24.24,0,0,1-.4.11A.68.68,0,0,1,201.35,127.31Z" style="fill:#263238"></path><path d="M199.62,128a3.19,3.19,0,0,1,.44-1c.19-.32.38-.62.58-.92a14.54,14.54,0,0,1,1.14-1.45c.3-.34.62.38.42.65a14.43,14.43,0,0,0-1.09,1.7c-.15.29-.3.57-.44.87a3.6,3.6,0,0,1-.47.86.28.28,0,0,1-.44,0A.78.78,0,0,1,199.62,128Z" style="fill:#263238"></path><path d="M198,128.59a2.55,2.55,0,0,1,.51-1.24c.21-.32.42-.64.65-.95a11.92,11.92,0,0,1,1.31-1.52c.13-.14.32.07.37.17a.56.56,0,0,1,0,.56,14.24,14.24,0,0,0-1.25,1.67c-.19.29-.35.58-.51.88l-.25.47c-.09.17-.17.4-.36.49S198,128.84,198,128.59Z" style="fill:#263238"></path><path d="M236.8,192.18c-5.54-.39-12.54,3-15.64,7.63-1.82,2.7-1.88,5.19-.52,6.88h0l28.94,35.92a2,2,0,0,0,3.49-1.7L242.57,196h0C242.05,193.89,240,192.41,236.8,192.18Z" style="fill:#f0997a"></path><path d="M243.38,217.22a73.61,73.61,0,0,1-9.48-6,78,78,0,0,1-7.92-6.6c-.08-.08-.12.13-.07.19a44.77,44.77,0,0,0,8.13,7.61,36.78,36.78,0,0,0,4.36,2.76,53,53,0,0,0,4.95,2.17C243.4,217.36,243.42,217.24,243.38,217.22Z" style="fill:#ffbda7"></path><path d="M244.45,212.13a49.28,49.28,0,0,0-4.51-2.49,48.94,48.94,0,0,1-4.43-2.7c-1.33-.9-2.63-1.86-3.89-2.86s-2.41-2.09-3.68-3.06c-.1-.08-.14.13-.09.2a33.94,33.94,0,0,0,7.69,6.69q2,1.36,4.2,2.55a16,16,0,0,0,4.67,1.93C244.52,212.41,244.52,212.17,244.45,212.13Z" style="fill:#ffbda7"></path><path d="M234.72,198.23a7.57,7.57,0,0,0-.65,1.1l-.78,1.41a32,32,0,0,1-1.78,2.78,28.9,28.9,0,0,1-2,2.51,12.59,12.59,0,0,0-2.15,2.47c0,.09,0,.44.14.39,1-.27,1.67-1.27,2.31-2a26.77,26.77,0,0,0,2.06-2.58,29.79,29.79,0,0,0,1.72-2.73,10.86,10.86,0,0,0,1.34-3.16C234.92,198.35,234.83,198.1,234.72,198.23Z" style="fill:#ffbda7"></path><path d="M239.71,200.16a16.88,16.88,0,0,1-1.2,3.46,20.13,20.13,0,0,1-2.32,3.39,75.17,75.17,0,0,1-6.17,6.58c-.07.06,0,.3.08.22a42,42,0,0,0,6.59-6.54c1.6-1.94,3.39-4.39,3.3-7C240,200.07,239.77,199.92,239.71,200.16Z" style="fill:#ffbda7"></path><path d="M241.84,203.55a6.33,6.33,0,0,0-.6,1.64,16.7,16.7,0,0,1-.68,1.78,23.65,23.65,0,0,1-1.81,3.27,50.47,50.47,0,0,1-5.26,6.33s0,.15,0,.11a35.14,35.14,0,0,0,5.87-6,17,17,0,0,0,1.81-3.15,7.8,7.8,0,0,0,.84-3.89C242,203.52,241.9,203.44,241.84,203.55Z" style="fill:#ffbda7"></path><path d="M243.48,210.65a9.93,9.93,0,0,0-1.29,1.79c-.41.66-.79,1.33-1.22,2a36.61,36.61,0,0,1-2.91,3.67c-.05,0,0,.26.07.19a17.32,17.32,0,0,0,3.28-3.29,9.59,9.59,0,0,0,2.15-4.22S243.54,210.59,243.48,210.65Z" style="fill:#ffbda7"></path><path d="M243.13,205.45c-1-.51-2.11-.93-3.11-1.52-.47-.28-.9-.62-1.38-.9l-1.28-.75s-.05.06,0,.08a9.06,9.06,0,0,0,1.18,1.3,7.85,7.85,0,0,0,1.44,1,14.21,14.21,0,0,0,1.51.76c.26.12.53.23.8.33a3.82,3.82,0,0,0,.83.17C243.3,205.91,243.28,205.52,243.13,205.45Z" style="fill:#ffbda7"></path><path d="M240.29,188.73c0,.06.05.12.08.19.5,1.32.65,2.1.78,2.48a7.53,7.53,0,0,0,1.4,2.31,22.14,22.14,0,0,1,2.4,3,2.37,2.37,0,0,1,.41,1.44,1,1,0,0,1-1,1c-.54,0-1-.63-1.53-.42-.23.09-.37.33-.55.51a1.33,1.33,0,0,1-1.54.21,4.76,4.76,0,0,1-.94-.91,1.12,1.12,0,0,0-1.18-.37c-.36.16-.5.58-.65.93s-.45.74-.84.7-.52-.33-.79-.49a1.39,1.39,0,0,0-1.74.61,5.67,5.67,0,0,0-.59,1.95,2.57,2.57,0,0,1-1,1.74c-1.17.72-2.76-.38-4,.15s-1.41,2.39-2.52,3.22a2.07,2.07,0,0,1-2.24.11c-.59-.35-1.13-1-1.78-.82a1.78,1.78,0,0,0-.72.59,3.41,3.41,0,0,1-1.76,1.05,2.18,2.18,0,0,1-1.93-.53c-.78-.8-.64-2.08-.47-3.19a5.05,5.05,0,0,0,0-2.32c-.09-.31-.27-.58-.38-.89-.22-.6-.58-1.14-.84-1.73a13.06,13.06,0,0,1,23.93-10.47Z" style="fill:#FF81AE"></path><path d="M236.34,199.26c.27.16.48.46.79.49s.68-.34.84-.7.29-.77.65-.93a1.12,1.12,0,0,1,1.18.37,6.21,6.21,0,0,0,.85.85c-.67-.69-1.06-1.77-2-1.9a1.23,1.23,0,0,0-1.34,1.15c-.4.17-.74-.32-1-.66a2.3,2.3,0,0,0-3-.26,3.4,3.4,0,0,0-1.31,2.88c0,.44,0,1-.43,1.13a.86.86,0,0,1-.6-.12c-.81-.38-1.81-.84-2.51-.28a3.66,3.66,0,0,0-.76,1.3c-.23.45-.75.87-1.21.65-.65-.3-.37-1.41-.93-1.85a1.16,1.16,0,0,0-1.41.27,4.86,4.86,0,0,1-1.18,1,1.86,1.86,0,0,1-2.25-1.29,7,7,0,0,1-.08-2.89,3.79,3.79,0,0,0-.58-2.77,9.16,9.16,0,0,0-1.63-1.18,5.4,5.4,0,0,1-1.78-5.12,10,10,0,0,1,.75-2.55,13,13,0,0,0-1,12.35c.26.59.62,1.13.84,1.73.11.31.29.58.38.89a5.05,5.05,0,0,1,0,2.32c-.17,1.11-.31,2.39.47,3.19a2.18,2.18,0,0,0,1.93.53,3.41,3.41,0,0,0,1.76-1.05,1.78,1.78,0,0,1,.72-.59c.65-.2,1.19.47,1.78.82a2.07,2.07,0,0,0,2.24-.11c1.11-.83,1.25-2.67,2.52-3.22s2.85.57,4-.15a2.57,2.57,0,0,0,1-1.74,5.67,5.67,0,0,1,.59-1.95A1.39,1.39,0,0,1,236.34,199.26Z" style="opacity:0.15"></path><path d="M220.64,186a2.7,2.7,0,0,0-.79,1.36,1.12,1.12,0,0,0,.72,1.25,1.65,1.65,0,0,0,.73-.06l3.83-.91c.58-.13,1.33-.21,1.65.3.22.34.11.79.19,1.18a1.32,1.32,0,0,0,1.81.87c.74-.39.91-1.35,1.39-2a2.5,2.5,0,0,1,3.56-.4c.39.35.8.88,1.31.74s.59-.63.57-1.07a2.38,2.38,0,0,0-1.47-2c-.78-.31-1.74-.21-2.37-.75a6.38,6.38,0,0,1-.73-.9c-1.08-1.31-2.85-1.2-4.34-.91a9.63,9.63,0,0,0-1.68.43,14.1,14.1,0,0,0-2,1A10.86,10.86,0,0,0,220.64,186Z" style="fill:#fff;opacity:0.2"></path><path d="M247.56,212.7c-.77,1.37,1.42,7.49,3,14.87l3,13.9a2.17,2.17,0,0,1-1.61,2.45,1.86,1.86,0,0,1-2.65-.93s-8.66-10.28-10-12.2a67.12,67.12,0,0,0-4.53-5.39s5.08-.54,8.69-6.82S246.46,212.7,247.56,212.7Z" style="fill:#4caf50aa"></path><path d="M234.76,225.4c4.37-1.5,6.91-4.28,9.53-10.37a17.09,17.09,0,0,1,1.87-3.65l-.45-2s2.22.26,3.12,1.36-1.62,1.85-2.92,4.6S241,224.46,234.76,225.4Z" style="fill:#fafafa"></path><path d="M320.42,253.4c-8.53-11.25-22.84-10.05-32-13s-12.25-6.43-15.65-11c-2.72-3.7-1.52-5.31-11.08-8.42s-12.06-10.43-14.41-7.67c-1.79,2.1-.14,6.47,2,10.06a66.11,66.11,0,0,1-13.1-4.34c-3.94-1.69-8.22-3.63-9.55-.85s.7,4.5,5.31,7.36c-.7,1.47-.6,1.76.05,3.58s1.76,5.15,2.85,6a12.8,12.8,0,0,0,2.33,1.49,4.33,4.33,0,0,0,.6,5.31c2.39,2.75,4.29,2.33,4.94,4.15s2.89,4.89,3.77,7,2.31,2.52,7.48,4.8,10.09,1.58,14.13,2.53c5.71,1.35,10.66,2.54,16.12,6s13.76,10.86,25,9.58C328.88,273.78,329.82,265.59,320.42,253.4Z" style="fill:#f28f8f"></path><path d="M266.26,228.53c-1.34-1.78-5.42-2.52-7.88-3.28s-5.72-1.64-7.94-3.27-3.86-6.29-3.93-6.48c-.08,2.26,1.21,5.25,2.78,7.84,0,0,5.1,1.84,8.2,2.69S265.29,227.79,266.26,228.53Z" style="fill:#b16668"></path><path d="M232,225.51a42.3,42.3,0,0,1,5.91,3l1.42.79a15.47,15.47,0,0,0,1.49.62l3.09,1.12c2,.78,4.12,1.52,6.15,2.38.51.21,1,.48,1.5.66a10.12,10.12,0,0,0,1.55.42,14.76,14.76,0,0,0,3.25.34,12.64,12.64,0,0,1-3.31,0,10.39,10.39,0,0,1-1.64-.34c-.56-.17-1.05-.39-1.56-.57l-6.2-2.21-3.08-1.19a15.75,15.75,0,0,1-1.54-.68c-.5-.27-1-.57-1.42-.88C235.73,227.74,233.87,226.59,232,225.51Z" style="fill:#b16668"></path><path d="M237.18,236.63a44.34,44.34,0,0,1,5.89,2.51,25.93,25.93,0,0,1,2.73,1.71A6.33,6.33,0,0,1,248,243.2a9.61,9.61,0,0,0-2.51-1.87c-.91-.52-1.84-1-2.77-1.54s-1.88-1-2.81-1.49S238.07,237.23,237.18,236.63Z" style="fill:#b16668"></path><path d="M260,237.29a2.78,2.78,0,0,0-1.14-.74c-.33-.11-.66-.18-1-.26a6.05,6.05,0,0,1-.94-.3,3.48,3.48,0,0,1-.43-.22,2.34,2.34,0,0,1-.41-.29.18.18,0,0,0-.32,0,.52.52,0,0,0,0,.51,2.35,2.35,0,0,0,1,.92,6.41,6.41,0,0,0,1,.39,10,10,0,0,1,2,.69.24.24,0,0,0,.33-.18A.67.67,0,0,0,260,237.29Z" style="fill:#b16668"></path><path d="M257.78,245.85a1.48,1.48,0,0,0-.81-.53,5.13,5.13,0,0,0-1.17-.21c-.58,0-1.16.1-1.75.09a2,2,0,0,1-1.53-.61c-.48-.53-1-1.08-1.43-1.62-.16-.17-.25.14-.18.26l.66,1.19a6.09,6.09,0,0,0,.88,1.34,2.63,2.63,0,0,0,1.85.75,6.3,6.3,0,0,0,1.84-.13,3.17,3.17,0,0,1,.81-.12l.42,0a1,1,0,0,0,.34,0C257.88,246.23,257.85,246,257.78,245.85Z" style="fill:#b16668"></path><path d="M254.22,251.43c-.32-.07-.63-.14-1-.18a3.84,3.84,0,0,1-.95-.21c-.54-.21-1.13-.06-1.68-.26a2.83,2.83,0,0,1-1-.71c-.14-.15-.27-.32-.4-.49a1.85,1.85,0,0,0-.19-.27.87.87,0,0,0-.24-.15c-.09,0-.12.11-.12.16a1.45,1.45,0,0,0,.11.54c.05.11.11.23.17.34a8.23,8.23,0,0,0,.46.74,3,3,0,0,0,1.25,1,2.77,2.77,0,0,0,.81.16,2.18,2.18,0,0,0,.88,0c.15-.05.27-.15.42-.19a2.47,2.47,0,0,1,.38-.05,7.63,7.63,0,0,0,1-.25C254.29,251.58,254.28,251.44,254.22,251.43Z" style="fill:#b16668"></path></g></g><g id="freepik--Bottom--inject-5"><g id="freepik--bottom--inject-5"><path d="M111.14,218.64c-5.28,10.16-5.77,19.26-6.11,28.81-.69,19.85-.08,42.05-.24,61.86,0,0-6.92,9.14-9.52,30.5C93.78,352.05,93.7,373.32,90,386.7L89.45,389c1.08,9.29,12.43,12.53,14.58,7.22,0,0,23.24-50.45,30.08-67.53A261.76,261.76,0,0,0,148,279.78l5,36.43a150.36,150.36,0,0,0-2.13,28.85c.54,13.25,2.61,29.54,2,44.3-.08,2,1.79,4.9,1.71,6.88,0,.57,1.35,2.54,6.75,3.69s9.35-2.32,9.47-3.12c.28-1.85,14.59-59.92,16.71-73.49,4.58-29.21,0-80-2.23-101.23Z" style="fill:#ffa8a7"></path><path d="M110.47,215.24c-3.87,8.54-6.74,18.8-6.84,33.64s-.17,59.36-.17,59.36-4.6,8.36-5.82,12.64c3.78,6.42,22.22,16.47,35,14.09,0,0,2.69-6.47,6.53-16.93S148,282.6,148,282.6l3.15,33a108.83,108.83,0,0,0-1.05,15.53c8.48,4.36,28.64,3.2,37.63-3.33a248,248,0,0,0,3.67-47c-.3-18.78-5.3-53.13-5.3-53.13Z" style="fill:#455a64"></path><path d="M148,282.6,152.44,259s13.14-.29,21.64-9.16c0,0-.89,9.67-17.54,14.49l-3.94,18.58-1.48,32.72Z" style="fill:#37474f"></path><path d="M198.72,425.61c.34,0,.44,3.87-1.6,5.26-2.35,1.61-9,3.95-17.18,1.95s-10.33-3.93-13.35-7.09-5.75-6.42-9.42-7.67c-3.41-1.16-8.57-3.15-9.57-4.36s-.31-6-.31-6Z" style="fill:#263238"></path><path d="M152.8,387.25a1.5,1.5,0,0,0-1.54,1c-.4,1.3-1.11,5.12-1.9,7.23a55.15,55.15,0,0,0-2.1,13.92c.19,2.51,7.24,4.85,10.73,6.64s6,4,9.47,7.58a25.69,25.69,0,0,0,14.74,7.34c6.42.67,13.87-.6,15.86-3.4,2.45-3.45,3.15-7-5.87-12.42-1.71-1-6.89-4.91-8.9-6.5a42.47,42.47,0,0,1-6.06-5.78,25.82,25.82,0,0,1-3.32-4.71,12.56,12.56,0,0,1-.85-3,29.56,29.56,0,0,1-.53-3.24,2.23,2.23,0,0,0-.67-1.66,2.07,2.07,0,0,0-1.23-.24,33.4,33.4,0,0,0-6.54.71,3.91,3.91,0,0,0-2.31,1.14,3.48,3.48,0,0,0-.62,1.72,14,14,0,0,1-.25,1.84,1.11,1.11,0,0,1-.32.58c-.36.29-.84,0-1.09-.31a24.41,24.41,0,0,1-2.22-3.36c-.39-.61-2.37-1.19-2.88-1.69a18.62,18.62,0,0,1-1.52-1.24C152.37,388.72,152.74,388,152.8,387.25Z" style="fill:#37474f"></path><path d="M167.46,423.6a49.22,49.22,0,0,0-4-3.88h0s9.69,5.14,14.55,2.55c3.14-1.66,2-4.23,2-5s7.56-3.29,10.43-3.31h0c.74.52,1.36.95,1.75,1.18,9,5.47,8.32,9,5.87,12.42-2,2.8-7.48,4.53-15.77,3.61A26.49,26.49,0,0,1,167.46,423.6Z" style="fill:#455a64"></path><path d="M179.47,414.91c5.65,3,3,3.85,1.33,3.9s-9.5-5.69-15-11.17c-5.78-5.71-10.71-11.62-12.85-13.73-.8-.78-1.65-1.73-2.41-2.61.31-1.29.56-2.46.75-3.07A2.15,2.15,0,0,1,153,387l-.07,2.39a4.54,4.54,0,0,0,1.63,1.07,7.76,7.76,0,0,1,2.77,1.86,24.41,24.41,0,0,0,2.22,3.36C163.93,402.78,173.82,411.88,179.47,414.91Z" style="fill:#263238"></path><path d="M180.47,417.89a.55.55,0,0,1-.35-.17.58.58,0,0,1,0-.83,14.15,14.15,0,0,1,11.31-3.07.59.59,0,0,1,.44.7.58.58,0,0,1-.7.45c-4-.89-8.73,1.29-10.23,2.76A.58.58,0,0,1,180.47,417.89Z" style="fill:#f0f0f0"></path><path d="M175.63,414.41a.64.64,0,0,1-.36-.17.59.59,0,0,1,0-.83,14.16,14.16,0,0,1,11.23-3.33.59.59,0,0,1,.47.69.58.58,0,0,1-.69.46c-4-.79-8.7,1.49-10.17,3A.61.61,0,0,1,175.63,414.41Z" style="fill:#f0f0f0"></path><path d="M171.22,410.56a.55.55,0,0,1-.35-.17.59.59,0,0,1,0-.84,14.12,14.12,0,0,1,11.31-3.06.59.59,0,0,1,.44.7.58.58,0,0,1-.7.45c-4-.89-8.73,1.28-10.23,2.76A.61.61,0,0,1,171.22,410.56Z" style="fill:#f0f0f0"></path><path d="M167.34,407.1a.62.62,0,0,1-.36-.16.6.6,0,0,1,0-.84c1.82-1.93,6.85-4.32,11.17-3.54a.59.59,0,1,1-.21,1.16c-4-.71-8.66,1.65-10.1,3.19A.6.6,0,0,1,167.34,407.1Z" style="fill:#f0f0f0"></path><path d="M163.2,403.06a.57.57,0,0,1-.36-.16.59.59,0,0,1,0-.83c2.51-2.74,7.85-4.27,12.18-3.48a.59.59,0,1,1-.21,1.16c-3.89-.71-8.88.69-11.11,3.12A.57.57,0,0,1,163.2,403.06Z" style="fill:#f0f0f0"></path><path d="M100.25,425.13c-1.32,5.61-2.87,9.21-5.46,12.17s-6.57,3.34-10.24,1.69-8.13-5.11-8.37-10.19.58-8.39,2.38-13.49Z" style="fill:#263238"></path><path d="M90.91,383c-1.41.19-3.56,7.36-5.81,14.81-2.42,8-4.29,10.2-6.35,16.74-2.34,7.47-2.26,10.12-.39,15.22s10.54,11.3,16.38,5.5c4.77-4.72,5.69-9.85,6.69-17.54a163.21,163.21,0,0,1,3.26-18.18c1.32-5.67,4.11-10.57,2.85-11.45-.25.82-2.68,6.86-3.62,6-.45-.17-.4-1,0-2.46a2.54,2.54,0,0,0-.11-1.92,3,3,0,0,0-1.62-1.09c-1.5-.59-3.56-1.44-5.11-1.87-.91-.24-.39-.17-1.31-.38s-2.59-.78-3.49-.5c-.53.17-.66.64-.88,1.16s-.48,1.24-.74,1.74c-.1.2-.47.59-.69.53s-.29-1.09-.18-1.52.19-1.13.3-1.64S90.53,384.31,90.91,383Z" style="fill:#37474f"></path><path d="M79.54,412c-.35,1.08-2.33,7.83-.57,9.49s4.09-3.72,4.09-3.72,5.33-.66,12.11,3.85c-.59,1.12-.15,5.23,2,4.76s4.12-7.87,4.15-8c-1,7.38-2,12.3-6.6,16.88-5.84,5.8-14.52-.41-16.38-5.5s-2-7.75.39-15.22C79,413.8,79.28,412.66,79.54,412Z" style="fill:#455a64"></path><path d="M83.55,418.35c-.52,2.76-2.82,1.37-2.51-2.58.46-5.93,2.89-11.24,4.06-18,2.25-7.45,4.21-15,5.81-14.81-.29,1.31-.93,4.11-.93,4.11-.14.56-.45,2-.45,2-1.5,5.61-4.17,12-5,17.92C83.84,412.21,84.07,415.59,83.55,418.35Z" style="fill:#263238"></path><path d="M94.33,421.39c1-2.63,2-3.24,3.47-8.29s4.78-13.76,6.85-19.13c.59-1.68,2.87-5.81,2.89-5.87.91.65.54,3.67-.85,7s-2.28,5.33-3.36,8.55c-2.52,6.34-4,13.29-5.51,16.93S93.33,424,94.33,421.39Z" style="fill:#263238"></path><path d="M94.93,421.63a.54.54,0,0,1-.2-.1,19,19,0,0,0-12-3.41.6.6,0,0,1-.1-1.19,19.83,19.83,0,0,1,12.8,3.66.6.6,0,0,1-.53,1Z" style="fill:#f0f0f0"></path><path d="M97.49,416.42a.51.51,0,0,1-.18-.09c-.06,0-6.52-4.51-13.94-4.12a.59.59,0,0,1-.62-.56.59.59,0,0,1,.56-.63c7.84-.41,14.44,4.16,14.69,4.34a.61.61,0,0,1,.14.84A.59.59,0,0,1,97.49,416.42Z" style="fill:#f0f0f0"></path><path d="M83.35,407.58a.58.58,0,0,1-.42-.48.59.59,0,0,1,.49-.68c7.52-1.15,16.26,3.81,16.53,4a.59.59,0,0,1,.11.83.6.6,0,0,1-.84.11c-.06,0-8.62-4.86-15.61-3.78A.57.57,0,0,1,83.35,407.58Z" style="fill:#f0f0f0"></path><path d="M85.38,402.83a.59.59,0,0,1,.06-1.16c8.29-1.42,15.55,4.27,15.8,4.49a.6.6,0,0,1-.79.89c0-.05-7.09-5.52-14.81-4.2A.57.57,0,0,1,85.38,402.83Z" style="fill:#f0f0f0"></path><path d="M86.92,396.88a.58.58,0,0,1-.42-.46.6.6,0,0,1,.47-.7c7.8-1.44,15.61,4.44,15.88,4.67a.6.6,0,0,1,.07.84.59.59,0,0,1-.84.07c-.06-.05-7.65-5.75-14.89-4.41A.5.5,0,0,1,86.92,396.88Z" style="fill:#ebebeb"></path></g></g><g id="freepik--top--inject-5"><path d="M190.87,206.26c.66,11.78,1,26.41-4.31,29.35-16.29,10.3-60.25,14.64-80.52-7.63-4.51-5.8,7.65-23.5,8-40.34.16-8.12-1.78-20.35-1.84-23.83-.14-7-1.47-17,6.87-20.81l17.49-2.87h0c1.56,5.53,11.34,13.06,21.8,13,9.71,0,9.31-4.17,6.17-9.57l.23-2c8.59,1.68,14.51,3,14.51,3s8.08,9.26,9.55,25.81C189.08,173.56,190,191.19,190.87,206.26Z" style="fill:#FF81AE"></path><path d="M182.07,185.64c5.54-.37,12.53,3.08,15.61,7.69,1.81,2.7,1.86,5.2.49,6.89h0L169.09,236a2,2,0,0,1-3.48-1.71l10.67-44.89,0,0C176.81,187.33,178.83,185.85,182.07,185.64Z" style="fill:#f0997a"></path><path d="M175.39,210.65a73.22,73.22,0,0,0,9.5-6,75.54,75.54,0,0,0,7.94-6.56c.09-.08.12.13.07.19a44.45,44.45,0,0,1-8.16,7.58,38,38,0,0,1-4.36,2.74c-1.62.84-3.28,1.48-5,2.15C175.36,210.79,175.35,210.67,175.39,210.65Z" style="fill:#ffbda7"></path><path d="M174.33,205.55a50.71,50.71,0,0,1,4.53-2.46,51.22,51.22,0,0,0,4.43-2.69c1.34-.9,2.65-1.84,3.91-2.84s2.42-2.09,3.69-3.05c.1-.08.14.14.09.2a33.27,33.27,0,0,1-7.72,6.66c-1.36.91-2.77,1.75-4.21,2.53a15.94,15.94,0,0,1-4.68,1.92C174.27,205.84,174.27,205.59,174.33,205.55Z" style="fill:#ffbda7"></path><path d="M184.12,191.69a7.67,7.67,0,0,1,.65,1.11l.78,1.41a29.13,29.13,0,0,0,1.77,2.79,27.07,27.07,0,0,0,2,2.52,12.31,12.31,0,0,1,2.14,2.48c0,.08,0,.44-.14.39-1-.28-1.67-1.29-2.3-2a28.19,28.19,0,0,1-2.05-2.6,29.69,29.69,0,0,1-1.71-2.73,10.84,10.84,0,0,1-1.33-3.16C183.92,191.82,184,191.56,184.12,191.69Z" style="fill:#ffbda7"></path><path d="M179.13,193.6a16.7,16.7,0,0,0,1.18,3.47,20.63,20.63,0,0,0,2.3,3.39,75.41,75.41,0,0,0,6.15,6.61c.07.07,0,.31-.08.22a42,42,0,0,1-6.56-6.56c-1.59-1.95-3.37-4.41-3.28-7C178.85,193.52,179.06,193.37,179.13,193.6Z" style="fill:#ffbda7"></path><path d="M177,197a6.77,6.77,0,0,1,.59,1.63,14.27,14.27,0,0,0,.67,1.79,22.7,22.7,0,0,0,1.8,3.28,50.42,50.42,0,0,0,5.23,6.35s0,.15,0,.11a34.78,34.78,0,0,1-5.84-6,16.39,16.39,0,0,1-1.79-3.16,7.56,7.56,0,0,1-.82-3.89C176.8,197,176.92,196.88,177,197Z" style="fill:#ffbda7"></path><path d="M175.31,204.08a9.81,9.81,0,0,1,1.28,1.8c.42.65.79,1.33,1.22,2a36.54,36.54,0,0,0,2.89,3.68c.05.05,0,.26-.06.19a17.38,17.38,0,0,1-3.28-3.3,9.75,9.75,0,0,1-2.13-4.23S175.25,204,175.31,204.08Z" style="fill:#ffbda7"></path><path d="M175.69,198.88c1-.5,2.11-.92,3.11-1.5.47-.28.91-.62,1.38-.9l1.29-.75s0,.07,0,.09a9.68,9.68,0,0,1-1.19,1.29,8.8,8.8,0,0,1-1.44,1,14.29,14.29,0,0,1-1.52.75c-.26.12-.53.23-.8.33a4.57,4.57,0,0,1-.82.16C175.51,199.34,175.54,199,175.69,198.88Z" style="fill:#ffbda7"></path><path d="M178.59,182.17c0,.06-.05.12-.08.19-.5,1.32-.66,2.1-.79,2.48a7.76,7.76,0,0,1-1.4,2.3,22.85,22.85,0,0,0-2.42,3,2.39,2.39,0,0,0-.42,1.45,1.05,1.05,0,0,0,1,1c.54,0,1-.62,1.53-.41.24.09.37.33.55.51a1.32,1.32,0,0,0,1.54.22,4.76,4.76,0,0,0,.94-.91,1.12,1.12,0,0,1,1.19-.36c.35.16.49.58.64.94s.44.74.83.7.52-.33.8-.49a1.38,1.38,0,0,1,1.74.62,5.65,5.65,0,0,1,.58,1.95,2.53,2.53,0,0,0,1,1.74c1.15.72,2.75-.37,4,.17s1.4,2.4,2.51,3.23a2.09,2.09,0,0,0,2.24.12c.58-.35,1.13-1,1.78-.81a1.7,1.7,0,0,1,.72.59,3.37,3.37,0,0,0,1.76,1,2.13,2.13,0,0,0,1.92-.52c.79-.79.66-2.08.49-3.18a5.09,5.09,0,0,1,0-2.33c.1-.3.28-.58.39-.88.23-.6.58-1.15.84-1.74a13.06,13.06,0,1,0-23.88-10.56Z" style="fill:#FF81AE"></path><path d="M178.59,182.17c0,.06-.05.12-.08.19-.5,1.32-.66,2.1-.79,2.48a7.76,7.76,0,0,1-1.4,2.3,22.85,22.85,0,0,0-2.42,3,2.39,2.39,0,0,0-.42,1.45,1.05,1.05,0,0,0,1,1c.54,0,1-.62,1.53-.41.24.09.37.33.55.51a1.32,1.32,0,0,0,1.54.22,4.76,4.76,0,0,0,.94-.91,1.12,1.12,0,0,1,1.19-.36c.35.16.49.58.64.94s.44.74.83.7.52-.33.8-.49a1.38,1.38,0,0,1,1.74.62,5.65,5.65,0,0,1,.58,1.95,2.53,2.53,0,0,0,1,1.74c1.15.72,2.75-.37,4,.17s1.4,2.4,2.51,3.23a2.09,2.09,0,0,0,2.24.12c.58-.35,1.13-1,1.78-.81a1.7,1.7,0,0,1,.72.59,3.37,3.37,0,0,0,1.76,1,2.13,2.13,0,0,0,1.92-.52c.79-.79.66-2.08.49-3.18a5.09,5.09,0,0,1,0-2.33c.1-.3.28-.58.39-.88.23-.6.58-1.15.84-1.74a13.06,13.06,0,1,0-23.88-10.56Z" style="fill:#fff;opacity:0.5"></path><path d="M182.5,192.72c-.28.16-.49.46-.8.49s-.67-.35-.83-.7-.29-.78-.64-.94a1.12,1.12,0,0,0-1.19.36,5.69,5.69,0,0,1-.85.85c.67-.68,1.06-1.77,2-1.89a1.22,1.22,0,0,1,1.33,1.15c.4.18.74-.32,1-.65a2.32,2.32,0,0,1,3-.25,3.4,3.4,0,0,1,1.31,2.88c0,.44,0,1,.42,1.14a.86.86,0,0,0,.6-.12c.81-.38,1.82-.83,2.51-.27a3.58,3.58,0,0,1,.75,1.3c.24.45.75.87,1.21.66.65-.3.38-1.41.94-1.85a1.17,1.17,0,0,1,1.41.27,5,5,0,0,0,1.18,1,1.86,1.86,0,0,0,2.25-1.29,7.14,7.14,0,0,0,.09-2.88,3.73,3.73,0,0,1,.6-2.77,8.82,8.82,0,0,1,1.63-1.18,5.4,5.4,0,0,0,1.8-5.11,10,10,0,0,0-.74-2.56,13,13,0,0,1,1,12.35c-.26.59-.61,1.14-.84,1.74-.11.3-.29.58-.39.88a5.09,5.09,0,0,0,0,2.33c.17,1.1.3,2.39-.49,3.18a2.13,2.13,0,0,1-1.92.52,3.37,3.37,0,0,1-1.76-1,1.7,1.7,0,0,0-.72-.59c-.65-.21-1.2.46-1.78.81a2.09,2.09,0,0,1-2.24-.12c-1.11-.83-1.24-2.68-2.51-3.23s-2.86.55-4-.17a2.53,2.53,0,0,1-1-1.74,5.65,5.65,0,0,0-.58-1.95A1.38,1.38,0,0,0,182.5,192.72Z" style="fill:#FF81AE;opacity:0.5"></path><path d="M198.25,179.54a2.62,2.62,0,0,1,.78,1.35,1.1,1.1,0,0,1-.72,1.25,1.65,1.65,0,0,1-.73-.06l-3.83-.92c-.58-.14-1.33-.22-1.65.29-.21.34-.11.78-.19,1.18a1.32,1.32,0,0,1-1.81.86c-.74-.39-.91-1.36-1.39-2a2.5,2.5,0,0,0-3.55-.41c-.4.35-.81.87-1.32.74a1,1,0,0,1-.56-1.08,2.4,2.4,0,0,1,1.47-2c.78-.31,1.74-.2,2.38-.74a6.38,6.38,0,0,0,.73-.9c1.08-1.31,2.85-1.19,4.35-.89a8.94,8.94,0,0,1,1.67.44,12.75,12.75,0,0,1,2,1A10.35,10.35,0,0,1,198.25,179.54Z" style="fill:#fff;opacity:0.2"></path><path d="M171.22,206.11c.77,1.37-1.44,7.49-3.05,14.86l-3,13.89a2.17,2.17,0,0,0,1.6,2.46,1.85,1.85,0,0,0,2.65-.92s8.7-10.24,10-12.17a67.87,67.87,0,0,1,4.56-5.37s-5.08-.55-8.67-6.85S172.32,206.12,171.22,206.11Z" style="fill:#4caf50aa"></path><path d="M184,218.86c-4.37-1.51-6.9-4.31-9.49-10.4a16.88,16.88,0,0,0-1.86-3.66l.46-2s-2.22.26-3.12,1.35,1.6,1.86,2.89,4.61S177.79,217.9,184,218.86Z" style="fill:#fafafa"></path><path d="M145,240.68a56.17,56.17,0,0,0,12.22,1,22,22,0,0,0,9-2c1.81-.8,3.95-3.12,4.94-4.31.59-.71,1.84-1.13,4.15-2.91s1.72-3.65,1.72-3.65a10.17,10.17,0,0,0,2.06-.79c1-.54,2-2.37,2.82-3.7a6.38,6.38,0,0,0,1-3.41c4.07-1.51,5.94-2.54,5.34-4.94s-4.27-1.55-7.64-.85a53.22,53.22,0,0,1-11,1.32c2.28-2.48,4.27-5.65,3.2-7.58-1.41-2.54-3.91,1-12.55,3.73a65.16,65.16,0,0,0-9.65,4.37c-4.31,2.24-10.25.66-14.86-1.33-6.92-3-19.48-9.26-19.48-9.26l7.24-30.52s4.13-23.64-4.84-32.27c-12.52,3.15-18.44,4.9-22.88,22.47a420.2,420.2,0,0,0-8.24,44.06c-.77,6-.66,12.6,6.83,16.68,7,3.83,20.59,7.8,30.16,10.12S141.15,240.07,145,240.68Z" style="fill:#ffa8a7"></path><path d="M169.63,216.52c1.64-1.79,3.13-3.93,3.43-5.72-.08.14-2.16,3.56-4.12,4.47s-4.71,1.09-6.76,1.3-3.32-.19-4.66,1c.88-.44,2.66-.07,5.23-.24S169.63,216.52,169.63,216.52Zm8.16,5.84-1.24.4a10.19,10.19,0,0,1-1.27.25l-2.6.39c-1.74.29-3.48.53-5.22.89a10.93,10.93,0,0,1-5.18.11,10.46,10.46,0,0,0,2.6.54,7.61,7.61,0,0,0,1.35,0c.46-.05.88-.15,1.31-.2l5.23-.76,2.61-.44a10,10,0,0,0,2.57-.75c1.63-.65,3.27-1.26,5-1.8A34.83,34.83,0,0,0,177.79,222.36Zm-8.21,8.47a5.27,5.27,0,0,0-2.1,1.5,8,8,0,0,1,2.27-1.07l2.42-.76c.82-.25,1.64-.46,2.45-.73s1.61-.55,2.41-.88a37.23,37.23,0,0,0-5,1A21.93,21.93,0,0,0,169.58,230.83Zm-9-4.85c.69,0,1.75-1.51.42-.87-1,.43-2.81-.23-3.18,1,0,.11.1.23.23.19C158.92,226.1,159.81,226.21,160.63,226Zm2.94,7.66c.25-.2,2.07-1.95,1.52-2-2.51,2.65-3.38.09-5.72,1.2-.32.4.32.41.59.45C161.09,233.69,162.43,234.39,163.57,233.64Zm1.24,3.83a3.53,3.53,0,0,1-2.53.54c-.17,0-.46,0-.44.23a2.6,2.6,0,0,0,3.27-.06C165.87,237.65,165.82,236.7,164.81,237.47Z" style="fill:#f28f8f"></path><path d="M119,143c-8.64,1-15.67,3.94-19.1,10.11s-10.08,31.22-10.08,31.22,2.74,7.59,15.82,9.67,15.41-.16,15.41-.16,3.6-14.93,4.56-20.13S128.5,149.48,119,143Z" style="fill:#FF81AE"></path><path d="M119,143c-8.64,1-15.67,3.94-19.1,10.11s-10.08,31.22-10.08,31.22,2.74,7.59,15.82,9.67,15.41-.16,15.41-.16,3.6-14.93,4.56-20.13S128.5,149.48,119,143Z" style="opacity:0.2"></path></g><g id="freepik--arm--inject-5"><path d="M248.5,142.81c5,.21,10,1,12.83,4.88s5.62,9.47,7.53,13.21a18.25,18.25,0,0,1,2,10.64c-.47,2.8-.67,3.38-2.77,4.14-1.09,4.15-1.71,5.44-4.11,5.74s-5.23.37-6.43.52a3.32,3.32,0,0,1-1.94-.27,84.75,84.75,0,0,1-5.74,6.63c-1.3,1.07-2.91-.26-2.33-4s2.28-5.95,4.47-10.28,2.52-4.55,1.38-7.43c0,0-.39,1.69-.69,3.65a30,30,0,0,1,.78,4.62l-3.84,6.74a63.12,63.12,0,0,0-2.23-7.9c-1.23-3.22-1.23-5.94,0-13.2Z" style="fill:#ffa8a7"></path><path d="M255.63,181.67c1.25-2,2.47-3.89,3.8-5.79l.52-.7.26-.35c.06-.1.12-.18.18-.3A9.45,9.45,0,0,0,261,173c.35-1.08.65-2.19,1-3.31a14.7,14.7,0,0,1-.24,3.5,8,8,0,0,1-.52,1.76,4,4,0,0,1-.25.44l-.25.35-.49.71c-.68.94-1.37,1.87-2.13,2.75A16.55,16.55,0,0,1,255.63,181.67Z" style="fill:#f28f8f"></path><polygon points="253.09 171.94 249.16 179.47 248.84 178.23 252.76 170.42 253.09 171.94" style="fill:#f28f8f"></polygon><path d="M268.11,175.68c.11-1.49.16-2.85.18-4.27a33.28,33.28,0,0,1,.26-4.3,11.4,11.4,0,0,1,.74,4.32,10.86,10.86,0,0,1-.28,2.2A5.89,5.89,0,0,1,268.11,175.68Z" style="fill:#f28f8f"></path><path d="M259.1,177.21a6.54,6.54,0,0,1,3.17-.83l-.89-3.26-.55,1.59Z" style="fill:#f28f8f"></path></g></g></g><g id="freepik--Hearts--inject-5"><g id="freepik--hearts--inject-5"><path d="M294.73,102.07c6.51-2.17,12.59,3.48,12.38,12.38,3.41-8.23,11.25-10.92,16.33-6.3S324,128.83,302.33,137C285.82,120.75,288.22,104.25,294.73,102.07Z" style="fill:#FF81AE"></path><path d="M299.91,60.23c3.78-3.55,9.74-1.59,12.41,4.59-.26-6.73,4.27-11.06,9.22-9.49s6.93,14-5.37,26.5C299.69,75.87,296.12,63.78,299.91,60.23Z" style="fill:#FF81AE"></path><path d="M299.91,60.23c3.78-3.55,9.74-1.59,12.41,4.59-.26-6.73,4.27-11.06,9.22-9.49s6.93,14-5.37,26.5C299.69,75.87,296.12,63.78,299.91,60.23Z" style="fill:#fff;opacity:0.30000000000000004"></path><path d="M346.2,86.16c4-1.38,7.81,2.07,7.74,7.58,2.06-5.11,6.89-6.82,10.06-4s.48,12.78-12.88,18C340.81,97.76,342.19,87.54,346.2,86.16Z" style="fill:#FF81AE"></path><path d="M346.2,86.16c4-1.38,7.81,2.07,7.74,7.58,2.06-5.11,6.89-6.82,10.06-4s.48,12.78-12.88,18C340.81,97.76,342.19,87.54,346.2,86.16Z" style="fill:#fff;opacity:0.6000000000000001"></path></g><g id="freepik--hearts--inject-5"><path d="M69.54,87.51c-5.17-.48-8.67,4.72-7,11.23-3.93-5.47-10.16-6.1-13.1-1.82s3.13,15.32,20.5,17.62C79.31,99.72,74.71,88,69.54,87.51Z" style="fill:#FF81AE"></path><path d="M69.54,87.51c-5.17-.48-8.67,4.72-7,11.23-3.93-5.47-10.16-6.1-13.1-1.82s3.13,15.32,20.5,17.62C79.31,99.72,74.71,88,69.54,87.51Z" style="fill:#fff;opacity:0.30000000000000004"></path><path d="M61.08,141.41c-4.18-.77-7.41,3.22-6.5,8.65-2.81-4.74-7.85-5.7-10.55-2.43s1.45,12.71,15.44,15.84C68.16,152.06,65.25,142.17,61.08,141.41Z" style="fill:#FF81AE"></path><path d="M61.08,141.41c-4.18-.77-7.41,3.22-6.5,8.65-2.81-4.74-7.85-5.7-10.55-2.43s1.45,12.71,15.44,15.84C68.16,152.06,65.25,142.17,61.08,141.41Z" style="fill:#fff;opacity:0.6000000000000001"></path><path d="M91.87,128.1c-1.88-1.92-5-1-6.51,2.12.27-3.48-2-5.81-4.59-5.1S76.9,132.24,83,139C91.67,136.2,93.76,130,91.87,128.1Z" style="fill:#FF81AE"></path></g></g></svg>